<?xml version="1.0" encoding="UTF-8" standalone="no"?>
<!DOCTYPE svg PUBLIC "-//W3C//DTD SVG 1.1//EN"
 "http://www.w3.org/Graphics/SVG/1.1/DTD/svg11.dtd">
<!-- Generated by graphviz version 14.0.1 (20251006.0113)
 -->
<!-- Title: manager/StatementManager.java Pages: 1 -->
<svg width="867pt" height="96pt"
 viewBox="0.00 0.00 867.00 96.00" xmlns="http://www.w3.org/2000/svg" xmlns:xlink="http://www.w3.org/1999/xlink">
<g id="graph0" class="graph" transform="scale(1 1) rotate(0) translate(4 92)">
<title>manager/StatementManager.java</title>
<!-- Node1 -->
<g id="Node000001" class="node">
<title>Node1</title>
<g id="a_Node000001"><a xlink:title=" ">
<polygon fill="#999999" stroke="#666666" points="590.88,-88 430.88,-88 430.88,-68 590.88,-68 590.88,-88"/>
<text xml:space="preserve" text-anchor="middle" x="510.88" y="-74.5" font-family="Helvetica,sans-Serif" font-size="10.00">manager/StatementManager.java</text>
</a>
</g>
</g>
<!-- Node2 -->
<g id="Node000002" class="node">
<title>Node2</title>
<g id="a_Node000002"><a xlink:title=" ">
<polygon fill="#e0e0e0" stroke="#999999" points="133.75,-32 0,-32 0,0 133.75,0 133.75,-32"/>
<text xml:space="preserve" text-anchor="start" x="8" y="-18.5" font-family="Helvetica,sans-Serif" font-size="10.00">com.bank.model.accounts.</text>
<text xml:space="preserve" text-anchor="middle" x="66.88" y="-6.5" font-family="Helvetica,sans-Serif" font-size="10.00">Account</text>
</a>
</g>
</g>
<!-- Node1&#45;&gt;Node2 -->
<g id="edge1_Node000001_Node000002" class="edge">
<title>Node1&#45;&gt;Node2</title>
<g id="a_edge1_Node000001_Node000002"><a xlink:title=" ">
<path fill="none" stroke="#63b8ff" d="M430.6,-68.89C358.51,-61.23 249.54,-48.67 145.33,-32.32"/>
<polygon fill="#63b8ff" stroke="#63b8ff" points="145.88,-28.86 135.46,-30.75 144.79,-35.78 145.88,-28.86"/>
</a>
</g>
</g>
<!-- Node3 -->
<g id="Node000003" class="node">
<title>Node3</title>
<g id="a_Node000003"><a xlink:title=" ">
<polygon fill="#e0e0e0" stroke="#999999" points="294.25,-32 151.5,-32 151.5,0 294.25,0 294.25,-32"/>
<text xml:space="preserve" text-anchor="start" x="159.5" y="-18.5" font-family="Helvetica,sans-Serif" font-size="10.00">com.bank.model.statements.</text>
<text xml:space="preserve" text-anchor="middle" x="222.88" y="-6.5" font-family="Helvetica,sans-Serif" font-size="10.00">StatementEntry</text>
</a>
</g>
</g>
<!-- Node1&#45;&gt;Node3 -->
<g id="edge2_Node000001_Node000003" class="edge">
<title>Node1&#45;&gt;Node3</title>
<g id="a_edge2_Node000001_Node000003"><a xlink:title=" ">
<path fill="none" stroke="#63b8ff" d="M465.56,-67.56C422.83,-58.66 357.78,-45.1 305.78,-34.27"/>
<polygon fill="#63b8ff" stroke="#63b8ff" points="306.54,-30.85 296.03,-32.24 305.11,-37.71 306.54,-30.85"/>
</a>
</g>
</g>
<!-- Node4 -->
<g id="Node000004" class="node">
<title>Node4</title>
<g id="a_Node000004"><a xlink:title=" ">
<polygon fill="#e0e0e0" stroke="#999999" points="461.25,-32 312.5,-32 312.5,0 461.25,0 461.25,-32"/>
<text xml:space="preserve" text-anchor="start" x="320.5" y="-18.5" font-family="Helvetica,sans-Serif" font-size="10.00">com.bank.storage.CsvStorage</text>
<text xml:space="preserve" text-anchor="middle" x="386.88" y="-6.5" font-family="Helvetica,sans-Serif" font-size="10.00">Manager</text>
</a>
</g>
</g>
<!-- Node1&#45;&gt;Node4 -->
<g id="edge3_Node000001_Node000004" class="edge">
<title>Node1&#45;&gt;Node4</title>
<g id="a_edge3_Node000001_Node000004"><a xlink:title=" ">
<path fill="none" stroke="#63b8ff" d="M491.5,-67.62C474.76,-59.52 449.98,-47.53 428.74,-37.26"/>
<polygon fill="#63b8ff" stroke="#63b8ff" points="430.54,-34.24 420.01,-33.03 427.49,-40.54 430.54,-34.24"/>
</a>
</g>
</g>
<!-- Node5 -->
<g id="Node000005" class="node">
<title>Node5</title>
<g id="a_Node000005"><a xlink:title=" ">
<polygon fill="#e0e0e0" stroke="#999999" points="542.5,-26 479.25,-26 479.25,-6 542.5,-6 542.5,-26"/>
<text xml:space="preserve" text-anchor="middle" x="510.88" y="-12.5" font-family="Helvetica,sans-Serif" font-size="10.00">java.io.File</text>
</a>
</g>
</g>
<!-- Node1&#45;&gt;Node5 -->
<g id="edge4_Node000001_Node000005" class="edge">
<title>Node1&#45;&gt;Node5</title>
<g id="a_edge4_Node000001_Node000005"><a xlink:title=" ">
<path fill="none" stroke="#63b8ff" d="M510.88,-67.62C510.88,-59.56 510.88,-47.65 510.88,-37.41"/>
<polygon fill="#63b8ff" stroke="#63b8ff" points="514.38,-37.63 510.88,-27.63 507.38,-37.63 514.38,-37.63"/>
</a>
</g>
</g>
<!-- Node6 -->
<g id="Node000006" class="node">
<title>Node6</title>
<g id="a_Node000006"><a xlink:title=" ">
<polygon fill="#e0e0e0" stroke="#999999" points="652.75,-26 561,-26 561,-6 652.75,-6 652.75,-26"/>
<text xml:space="preserve" text-anchor="middle" x="606.88" y="-12.5" font-family="Helvetica,sans-Serif" font-size="10.00">java.util.ArrayList</text>
</a>
</g>
</g>
<!-- Node1&#45;&gt;Node6 -->
<g id="edge5_Node000001_Node000006" class="edge">
<title>Node1&#45;&gt;Node6</title>
<g id="a_edge5_Node000001_Node000006"><a xlink:title=" ">
<path fill="none" stroke="#63b8ff" d="M525.88,-67.62C540.95,-58.2 564.45,-43.52 582.26,-32.39"/>
<polygon fill="#63b8ff" stroke="#63b8ff" points="584.07,-35.38 590.7,-27.11 580.36,-29.44 584.07,-35.38"/>
</a>
</g>
</g>
<!-- Node7 -->
<g id="Node000007" class="node">
<title>Node7</title>
<g id="a_Node000007"><a xlink:title=" ">
<polygon fill="#e0e0e0" stroke="#999999" points="772.62,-26 671.12,-26 671.12,-6 772.62,-6 772.62,-26"/>
<text xml:space="preserve" text-anchor="middle" x="721.88" y="-12.5" font-family="Helvetica,sans-Serif" font-size="10.00">java.util.Collections</text>
</a>
</g>
</g>
<!-- Node1&#45;&gt;Node7 -->
<g id="edge6_Node000001_Node000007" class="edge">
<title>Node1&#45;&gt;Node7</title>
<g id="a_edge6_Node000001_Node000007"><a xlink:title=" ">
<path fill="none" stroke="#63b8ff" d="M543.84,-67.62C579.89,-57.37 637.84,-40.9 677.78,-29.54"/>
<polygon fill="#63b8ff" stroke="#63b8ff" points="678.67,-32.92 687.33,-26.82 676.76,-26.19 678.67,-32.92"/>
</a>
</g>
</g>
<!-- Node8 -->
<g id="Node000008" class="node">
<title>Node8</title>
<g id="a_Node000008"><a xlink:title=" ">
<polygon fill="#e0e0e0" stroke="#999999" points="859.12,-26 790.62,-26 790.62,-6 859.12,-6 859.12,-26"/>
<text xml:space="preserve" text-anchor="middle" x="824.88" y="-12.5" font-family="Helvetica,sans-Serif" font-size="10.00">java.util.List</text>
</a>
</g>
</g>
<!-- Node1&#45;&gt;Node8 -->
<g id="edge7_Node000001_Node000008" class="edge">
<title>Node1&#45;&gt;Node8</title>
<g id="a_edge7_Node000001_Node000008"><a xlink:title=" ">
<path fill="none" stroke="#63b8ff" d="M589.88,-67.51C644.34,-60.09 718.11,-48.29 781.88,-32 784.3,-31.38 786.79,-30.68 789.28,-29.94"/>
<polygon fill="#63b8ff" stroke="#63b8ff" points="790.2,-33.32 798.64,-26.92 788.05,-26.66 790.2,-33.32"/>
</a>
</g>
</g>
</g>
</svg>
