<?xml version="1.0" encoding="UTF-8" standalone="no"?>
<!DOCTYPE svg PUBLIC "-//W3C//DTD SVG 1.1//EN"
 "http://www.w3.org/Graphics/SVG/1.1/DTD/svg11.dtd">
<!-- Generated by graphviz version 14.0.1 (20251006.0113)
 -->
<!-- Title: model/statements/StatementEntry.java Pages: 1 -->
<svg width="435pt" height="108pt"
 viewBox="0.00 0.00 435.00 108.00" xmlns="http://www.w3.org/2000/svg" xmlns:xlink="http://www.w3.org/1999/xlink">
<g id="graph0" class="graph" transform="scale(1 1) rotate(0) translate(4 104)">
<title>model/statements/StatementEntry.java</title>
<!-- Node1 -->
<g id="Node000001" class="node">
<title>Node1</title>
<g id="a_Node000001"><a xlink:title=" ">
<polygon fill="#999999" stroke="#666666" points="280.38,-100 138.38,-100 138.38,-68 280.38,-68 280.38,-100"/>
<text xml:space="preserve" text-anchor="start" x="146.38" y="-86.5" font-family="Helvetica,sans-Serif" font-size="10.00">model/statements/Statement</text>
<text xml:space="preserve" text-anchor="middle" x="209.38" y="-74.5" font-family="Helvetica,sans-Serif" font-size="10.00">Entry.java</text>
</a>
</g>
</g>
<!-- Node2 -->
<g id="Node000002" class="node">
<title>Node2</title>
<g id="a_Node000002"><a xlink:title=" ">
<polygon fill="#e0e0e0" stroke="#999999" points="124.75,-26 0,-26 0,-6 124.75,-6 124.75,-26"/>
<text xml:space="preserve" text-anchor="middle" x="62.38" y="-12.5" font-family="Helvetica,sans-Serif" font-size="10.00">java.time.LocalDateTime</text>
</a>
</g>
</g>
<!-- Node1&#45;&gt;Node2 -->
<g id="edge1_Node000001_Node000002" class="edge">
<title>Node1&#45;&gt;Node2</title>
<g id="a_edge1_Node000001_Node000002"><a xlink:title=" ">
<path fill="none" stroke="#63b8ff" d="M174.91,-67.53C150.33,-56.49 117.55,-41.77 93.71,-31.07"/>
<polygon fill="#63b8ff" stroke="#63b8ff" points="95.38,-27.98 84.83,-27.08 92.51,-34.37 95.38,-27.98"/>
</a>
</g>
</g>
<!-- Node3 -->
<g id="Node000003" class="node">
<title>Node3</title>
<g id="a_Node000003"><a xlink:title=" ">
<polygon fill="#e0e0e0" stroke="#999999" points="275.5,-32 143.25,-32 143.25,0 275.5,0 275.5,-32"/>
<text xml:space="preserve" text-anchor="start" x="151.25" y="-18.5" font-family="Helvetica,sans-Serif" font-size="10.00">java.time.format.DateTime</text>
<text xml:space="preserve" text-anchor="middle" x="209.38" y="-6.5" font-family="Helvetica,sans-Serif" font-size="10.00">Formatter</text>
</a>
</g>
</g>
<!-- Node1&#45;&gt;Node3 -->
<g id="edge2_Node000001_Node000003" class="edge">
<title>Node1&#45;&gt;Node3</title>
<g id="a_edge2_Node000001_Node000003"><a xlink:title=" ">
<path fill="none" stroke="#63b8ff" d="M209.38,-67.69C209.38,-60.53 209.38,-51.79 209.38,-43.59"/>
<polygon fill="#63b8ff" stroke="#63b8ff" points="212.88,-43.74 209.38,-33.74 205.88,-43.74 212.88,-43.74"/>
</a>
</g>
</g>
<!-- Node4 -->
<g id="Node000004" class="node">
<title>Node4</title>
<g id="a_Node000004"><a xlink:title=" ">
<polygon fill="#e0e0e0" stroke="#999999" points="426.88,-26 293.88,-26 293.88,-6 426.88,-6 426.88,-26"/>
<text xml:space="preserve" text-anchor="middle" x="360.38" y="-12.5" font-family="Helvetica,sans-Serif" font-size="10.00">com.bank.storage.Storable</text>
</a>
</g>
</g>
<!-- Node1&#45;&gt;Node4 -->
<g id="edge3_Node000001_Node000004" class="edge">
<title>Node1&#45;&gt;Node4</title>
<g id="a_edge3_Node000001_Node000004"><a xlink:title=" ">
<path fill="none" stroke="#63b8ff" d="M244.78,-67.53C270.03,-56.49 303.7,-41.77 328.19,-31.07"/>
<polygon fill="#63b8ff" stroke="#63b8ff" points="329.58,-34.28 337.34,-27.07 326.78,-27.86 329.58,-34.28"/>
</a>
</g>
</g>
</g>
</svg>
