<?xml version="1.0" encoding="UTF-8" standalone="no"?>
<!DOCTYPE svg PUBLIC "-//W3C//DTD SVG 1.1//EN"
 "http://www.w3.org/Graphics/SVG/1.1/DTD/svg11.dtd">
<!-- Generated by graphviz version 14.0.1 (20251006.0113)
 -->
<!-- Title: com.bank.gui.view.panel.CompanyIssueBillPanel.CompanyIssueBillPanel Pages: 1 -->
<svg width="631pt" height="266pt"
 viewBox="0.00 0.00 631.00 266.00" xmlns="http://www.w3.org/2000/svg" xmlns:xlink="http://www.w3.org/1999/xlink">
<g id="graph0" class="graph" transform="scale(1 1) rotate(0) translate(4 262)">
<title>com.bank.gui.view.panel.CompanyIssueBillPanel.CompanyIssueBillPanel</title>
<!-- Node1 -->
<g id="Node000001" class="node">
<title>Node1</title>
<g id="a_Node000001"><a xlink:title="Δημιουργεί panel έκδοσης λογαριασμού για εταιρικό χρήστη.">
<polygon fill="#999999" stroke="#666666" points="165.25,-110 0,-110 0,-66 165.25,-66 165.25,-110"/>
<text xml:space="preserve" text-anchor="start" x="8" y="-96.5" font-family="Helvetica,sans-Serif" font-size="10.00">com.bank.gui.view.panel.</text>
<text xml:space="preserve" text-anchor="start" x="8" y="-84.5" font-family="Helvetica,sans-Serif" font-size="10.00">CompanyIssueBillPanel.Company</text>
<text xml:space="preserve" text-anchor="middle" x="82.62" y="-72.5" font-family="Helvetica,sans-Serif" font-size="10.00">IssueBillPanel</text>
</a>
</g>
</g>
<!-- Node2 -->
<g id="Node000002" class="node">
<title>Node2</title>
<g id="a_Node000002"><a xlink:href="../../dc/d48/classcom_1_1bank_1_1manager_1_1_bill_manager.html#abff1fcc6244988c55e92bb56be27ecae" target="_top" xlink:title="Issues (creates or replaces) a bill and persists it.">
<polygon fill="white" stroke="#666666" points="398,-158 201.25,-158 201.25,-138 398,-138 398,-158"/>
<text xml:space="preserve" text-anchor="middle" x="299.62" y="-144.5" font-family="Helvetica,sans-Serif" font-size="10.00">com.bank.manager.BillManager.createBill</text>
</a>
</g>
</g>
<!-- Node1&#45;&gt;Node2 -->
<g id="edge1_Node000001_Node000002" class="edge">
<title>Node1&#45;&gt;Node2</title>
<g id="a_edge1_Node000001_Node000002"><a xlink:title=" ">
<path fill="none" stroke="#63b8ff" d="M154.66,-110.43C169.98,-115.08 186.12,-119.82 201.25,-124 214.62,-127.69 229.11,-131.41 242.71,-134.78"/>
<polygon fill="#63b8ff" stroke="#63b8ff" points="241.88,-138.18 252.42,-137.16 243.54,-131.38 241.88,-138.18"/>
</a>
</g>
</g>
<!-- Node6 -->
<g id="Node000006" class="node">
<title>Node6</title>
<g id="a_Node000006"><a xlink:href="../../dc/d48/classcom_1_1bank_1_1manager_1_1_bill_manager.html#ae8eda57edbba75f404b5053d0f1a240f" target="_top" xlink:title="Persists in&#45;memory issued &amp; paid lists to global ledgers.">
<polygon fill="white" stroke="#666666" points="622.5,-120 434,-120 434,-100 622.5,-100 622.5,-120"/>
<text xml:space="preserve" text-anchor="middle" x="528.25" y="-106.5" font-family="Helvetica,sans-Serif" font-size="10.00">com.bank.manager.BillManager.saveAll</text>
</a>
</g>
</g>
<!-- Node1&#45;&gt;Node6 -->
<g id="edge8_Node000001_Node000006" class="edge">
<title>Node1&#45;&gt;Node6</title>
<g id="a_edge8_Node000001_Node000006"><a xlink:title=" ">
<path fill="none" stroke="#63b8ff" d="M165.51,-92.06C237.81,-95.65 343.64,-100.89 422.17,-104.79"/>
<polygon fill="#63b8ff" stroke="#63b8ff" points="421.88,-108.28 432.04,-105.28 422.22,-101.29 421.88,-108.28"/>
</a>
</g>
</g>
<!-- Node7 -->
<g id="Node000007" class="node">
<title>Node7</title>
<g id="a_Node000007"><a xlink:href="../../db/d15/classcom_1_1bank_1_1manager_1_1_user_manager.html#afbdaa6e3428ae4884bb804b28b9c5535" target="_top" xlink:title="Finds a customer by VAT number.">
<polygon fill="white" stroke="#666666" points="389.38,-82 209.88,-82 209.88,-50 389.38,-50 389.38,-82"/>
<text xml:space="preserve" text-anchor="start" x="217.88" y="-68.5" font-family="Helvetica,sans-Serif" font-size="10.00">com.bank.manager.UserManager.find</text>
<text xml:space="preserve" text-anchor="middle" x="299.62" y="-56.5" font-family="Helvetica,sans-Serif" font-size="10.00">ByVat</text>
</a>
</g>
</g>
<!-- Node1&#45;&gt;Node7 -->
<g id="edge6_Node000001_Node000007" class="edge">
<title>Node1&#45;&gt;Node7</title>
<g id="a_edge6_Node000001_Node000007"><a xlink:title=" ">
<path fill="none" stroke="#63b8ff" d="M165.52,-79.62C176.18,-78.53 187.19,-77.4 198.11,-76.29"/>
<polygon fill="#63b8ff" stroke="#63b8ff" points="198.33,-79.78 207.93,-75.28 197.62,-72.82 198.33,-79.78"/>
</a>
</g>
</g>
<!-- Node8 -->
<g id="Node000008" class="node">
<title>Node8</title>
<g id="a_Node000008"><a xlink:href="../../dd/db1/classcom_1_1bank_1_1manager_1_1_account_manager.html#a9cfb69758fe6d4532cba2d754cca7af2" target="_top" xlink:title="Returns all loaded accounts.">
<polygon fill="white" stroke="#666666" points="368.75,-32 230.5,-32 230.5,0 368.75,0 368.75,-32"/>
<text xml:space="preserve" text-anchor="start" x="238.5" y="-18.5" font-family="Helvetica,sans-Serif" font-size="10.00">com.bank.manager.Account</text>
<text xml:space="preserve" text-anchor="middle" x="299.62" y="-6.5" font-family="Helvetica,sans-Serif" font-size="10.00">Manager.getAllAccounts</text>
</a>
</g>
</g>
<!-- Node1&#45;&gt;Node8 -->
<g id="edge7_Node000001_Node000008" class="edge">
<title>Node1&#45;&gt;Node8</title>
<g id="a_edge7_Node000001_Node000008"><a xlink:title=" ">
<path fill="none" stroke="#63b8ff" d="M135.5,-65.6C155.8,-57.28 179.41,-48.14 201.25,-41 207.06,-39.1 213.1,-37.26 219.2,-35.49"/>
<polygon fill="#63b8ff" stroke="#63b8ff" points="220.07,-38.87 228.75,-32.79 218.17,-32.14 220.07,-38.87"/>
</a>
</g>
</g>
<!-- Node3 -->
<g id="Node000003" class="node">
<title>Node3</title>
<g id="a_Node000003"><a xlink:href="../../d3/dd4/classcom_1_1bank_1_1model_1_1bills_1_1_bill.html#a85e3655af649e76472f6b1f19b522ccf" target="_top" xlink:title=" ">
<polygon fill="white" stroke="#666666" points="598.88,-258 457.62,-258 457.62,-226 598.88,-226 598.88,-258"/>
<text xml:space="preserve" text-anchor="start" x="465.62" y="-244.5" font-family="Helvetica,sans-Serif" font-size="10.00">com.bank.model.bills.Bill.get</text>
<text xml:space="preserve" text-anchor="middle" x="528.25" y="-232.5" font-family="Helvetica,sans-Serif" font-size="10.00">IssueDate</text>
</a>
</g>
</g>
<!-- Node2&#45;&gt;Node3 -->
<g id="edge2_Node000002_Node000003" class="edge">
<title>Node2&#45;&gt;Node3</title>
<g id="a_edge2_Node000002_Node000003"><a xlink:title=" ">
<path fill="none" stroke="#63b8ff" d="M317.76,-158.4C342.62,-173.12 390.49,-200.14 434,-217 438.61,-218.79 443.39,-220.49 448.25,-222.11"/>
<polygon fill="#63b8ff" stroke="#63b8ff" points="446.93,-225.37 457.52,-225.06 449.05,-218.69 446.93,-225.37"/>
</a>
</g>
</g>
<!-- Node4 -->
<g id="Node000004" class="node">
<title>Node4</title>
<g id="a_Node000004"><a xlink:href="../../d3/dd4/classcom_1_1bank_1_1model_1_1bills_1_1_bill.html#a73882163a2347d97e6d532096d4c2312" target="_top" xlink:title=" ">
<polygon fill="white" stroke="#666666" points="598.88,-208 457.62,-208 457.62,-176 598.88,-176 598.88,-208"/>
<text xml:space="preserve" text-anchor="start" x="465.62" y="-194.5" font-family="Helvetica,sans-Serif" font-size="10.00">com.bank.model.bills.Bill.get</text>
<text xml:space="preserve" text-anchor="middle" x="528.25" y="-182.5" font-family="Helvetica,sans-Serif" font-size="10.00">PaymentCode</text>
</a>
</g>
</g>
<!-- Node2&#45;&gt;Node4 -->
<g id="edge3_Node000002_Node000004" class="edge">
<title>Node2&#45;&gt;Node4</title>
<g id="a_edge3_Node000002_Node000004"><a xlink:title=" ">
<path fill="none" stroke="#63b8ff" d="M354.62,-158.48C382.02,-163.8 415.87,-170.37 446.31,-176.29"/>
<polygon fill="#63b8ff" stroke="#63b8ff" points="445.38,-179.67 455.87,-178.14 446.72,-172.8 445.38,-179.67"/>
</a>
</g>
</g>
<!-- Node5 -->
<g id="Node000005" class="node">
<title>Node5</title>
<g id="a_Node000005"><a xlink:href="../../d3/dd4/classcom_1_1bank_1_1model_1_1bills_1_1_bill.html#a5cfd451c2f0ce7ccd05bad2dd2c1e1f0" target="_top" xlink:title="Serializes the bill to a single&#45;line key&#45;value representation.">
<polygon fill="white" stroke="#666666" points="609.38,-158 447.12,-158 447.12,-138 609.38,-138 609.38,-158"/>
<text xml:space="preserve" text-anchor="middle" x="528.25" y="-144.5" font-family="Helvetica,sans-Serif" font-size="10.00">com.bank.model.bills.Bill.marshal</text>
</a>
</g>
</g>
<!-- Node2&#45;&gt;Node5 -->
<g id="edge4_Node000002_Node000005" class="edge">
<title>Node2&#45;&gt;Node5</title>
<g id="a_edge4_Node000002_Node000005"><a xlink:title=" ">
<path fill="none" stroke="#63b8ff" d="M398.38,-148C410.76,-148 423.4,-148 435.68,-148"/>
<polygon fill="#63b8ff" stroke="#63b8ff" points="435.32,-151.5 445.32,-148 435.32,-144.5 435.32,-151.5"/>
</a>
</g>
</g>
<!-- Node2&#45;&gt;Node6 -->
<g id="edge5_Node000002_Node000006" class="edge">
<title>Node2&#45;&gt;Node6</title>
<g id="a_edge5_Node000002_Node000006"><a xlink:title=" ">
<path fill="none" stroke="#63b8ff" d="M363.15,-137.52C391.27,-132.8 424.64,-127.21 453.92,-122.3"/>
<polygon fill="#63b8ff" stroke="#63b8ff" points="454.15,-125.81 463.44,-120.7 452.99,-118.9 454.15,-125.81"/>
</a>
</g>
</g>
</g>
</svg>
