<?xml version="1.0" encoding="UTF-8" standalone="no"?>
<!DOCTYPE svg PUBLIC "-//W3C//DTD SVG 1.1//EN"
 "http://www.w3.org/Graphics/SVG/1.1/DTD/svg11.dtd">
<!-- Generated by graphviz version 14.0.1 (20251006.0113)
 -->
<!-- Title: com.bank.storage.StorageManager Pages: 1 -->
<svg width="131pt" height="88pt"
 viewBox="0.00 0.00 131.00 88.00" xmlns="http://www.w3.org/2000/svg" xmlns:xlink="http://www.w3.org/1999/xlink">
<g id="graph0" class="graph" transform="scale(1 1) rotate(0) translate(4 84)">
<title>com.bank.storage.StorageManager</title>
<!-- Node1 -->
<g id="Node000001" class="node">
<title>Node1</title>
<g id="a_Node000001"><a xlink:title="Defines a contract for managing persistent storage of Storable objects.">
<polygon fill="#999999" stroke="none" points="122.75,-80 0,-80 0,0 122.75,0 122.75,-80"/>
<text xml:space="preserve" text-anchor="start" x="4" y="-66.5" font-family="Helvetica,sans-Serif" font-size="10.00">com.bank.storage.Storage</text>
<text xml:space="preserve" text-anchor="start" x="42.62" y="-54.5" font-family="Helvetica,sans-Serif" font-size="10.00">Manager</text>
<text xml:space="preserve" text-anchor="start" x="59.88" y="-38.5" font-family="Helvetica,sans-Serif" font-size="10.00"> </text>
<text xml:space="preserve" text-anchor="start" x="23.44" y="-22.5" font-family="Helvetica,sans-Serif" font-size="10.00">+</text>
<text xml:space="preserve" text-anchor="start" x="52.88" y="-22.5" font-family="Helvetica,sans-Serif" font-size="10.00">load()</text>
<text xml:space="preserve" text-anchor="start" x="23.44" y="-6.5" font-family="Helvetica,sans-Serif" font-size="10.00">+</text>
<text xml:space="preserve" text-anchor="start" x="52.88" y="-6.5" font-family="Helvetica,sans-Serif" font-size="10.00">save()</text>
<polygon fill="#666666" stroke="#666666" points="0,-50 0,-50 122.75,-50 122.75,-50 0,-50"/>
<polygon fill="#666666" stroke="#666666" points="0,-34 0,-34 122.75,-34 122.75,-34 0,-34"/>
<polygon fill="none" stroke="#666666" points="0,0 0,-80 122.75,-80 122.75,0 0,0"/>
</a>
</g>
</g>
</g>
</svg>
