<?xml version="1.0" encoding="UTF-8" standalone="no"?>
<!DOCTYPE svg PUBLIC "-//W3C//DTD SVG 1.1//EN"
 "http://www.w3.org/Graphics/SVG/1.1/DTD/svg11.dtd">
<!-- Generated by graphviz version 14.0.1 (20251006.0113)
 -->
<!-- Title: com.bank.model.orders.PaymentOrder Pages: 1 -->
<svg width="160pt" height="628pt"
 viewBox="0.00 0.00 160.00 628.00" xmlns="http://www.w3.org/2000/svg" xmlns:xlink="http://www.w3.org/1999/xlink">
<g id="graph0" class="graph" transform="scale(1 1) rotate(0) translate(4 624)">
<title>com.bank.model.orders.PaymentOrder</title>
<!-- Node1 -->
<g id="Node000001" class="node">
<title>Node1</title>
<g id="a_Node000001"><a xlink:title="Standing order that pays a bill (by payment code) on its due date within a max amount limit.">
<polygon fill="#999999" stroke="none" points="152,-128 0,-128 0,0 152,0 152,-128"/>
<text xml:space="preserve" text-anchor="start" x="4" y="-114.5" font-family="Helvetica,sans-Serif" font-size="10.00">com.bank.model.orders.Payment</text>
<text xml:space="preserve" text-anchor="start" x="64" y="-102.5" font-family="Helvetica,sans-Serif" font-size="10.00">Order</text>
<text xml:space="preserve" text-anchor="start" x="74.5" y="-86.5" font-family="Helvetica,sans-Serif" font-size="10.00"> </text>
<text xml:space="preserve" text-anchor="start" x="20.25" y="-70.5" font-family="Helvetica,sans-Serif" font-size="10.00">+</text>
<text xml:space="preserve" text-anchor="start" x="46.5" y="-70.5" font-family="Helvetica,sans-Serif" font-size="10.00">PaymentOrder()</text>
<text xml:space="preserve" text-anchor="start" x="20.25" y="-54.5" font-family="Helvetica,sans-Serif" font-size="10.00">+</text>
<text xml:space="preserve" text-anchor="start" x="46.5" y="-54.5" font-family="Helvetica,sans-Serif" font-size="10.00">execute()</text>
<text xml:space="preserve" text-anchor="start" x="20.25" y="-38.5" font-family="Helvetica,sans-Serif" font-size="10.00">+</text>
<text xml:space="preserve" text-anchor="start" x="46.5" y="-38.5" font-family="Helvetica,sans-Serif" font-size="10.00">isFailed()</text>
<text xml:space="preserve" text-anchor="start" x="20.25" y="-22.5" font-family="Helvetica,sans-Serif" font-size="10.00">+</text>
<text xml:space="preserve" text-anchor="start" x="46.5" y="-22.5" font-family="Helvetica,sans-Serif" font-size="10.00">marshal()</text>
<text xml:space="preserve" text-anchor="start" x="20.25" y="-6.5" font-family="Helvetica,sans-Serif" font-size="10.00">+</text>
<text xml:space="preserve" text-anchor="start" x="46.5" y="-6.5" font-family="Helvetica,sans-Serif" font-size="10.00">unmarshal()</text>
<polygon fill="#666666" stroke="#666666" points="0,-98 0,-98 152,-98 152,-98 0,-98"/>
<polygon fill="#666666" stroke="#666666" points="0,-82 0,-82 152,-82 152,-82 0,-82"/>
<polygon fill="none" stroke="#666666" points="0,0 0,-128 152,-128 152,0 0,0"/>
</a>
</g>
</g>
<!-- Node2 -->
<g id="Node000002" class="node">
<title>Node2</title>
<g id="a_Node000002"><a xlink:href="../../d7/d26/classcom_1_1bank_1_1model_1_1orders_1_1_standing_order.html" target="_top" xlink:title="Abstract base class for automated scheduled banking orders.">
<polygon fill="white" stroke="none" points="151.62,-516 0.38,-516 0.38,-164 151.62,-164 151.62,-516"/>
<text xml:space="preserve" text-anchor="start" x="4.38" y="-502.5" font-family="Helvetica,sans-Serif" font-size="10.00">com.bank.model.orders.Standing</text>
<text xml:space="preserve" text-anchor="start" x="64" y="-490.5" font-family="Helvetica,sans-Serif" font-size="10.00">Order</text>
<text xml:space="preserve" text-anchor="start" x="19.12" y="-474.5" font-family="Helvetica,sans-Serif" font-size="10.00">+</text>
<text xml:space="preserve" text-anchor="start" x="43.88" y="-474.5" font-family="Helvetica,sans-Serif" font-size="10.00">description</text>
<text xml:space="preserve" text-anchor="start" x="19.12" y="-458.5" font-family="Helvetica,sans-Serif" font-size="10.00">+</text>
<text xml:space="preserve" text-anchor="start" x="43.88" y="-458.5" font-family="Helvetica,sans-Serif" font-size="10.00">isActive</text>
<text xml:space="preserve" text-anchor="start" x="19.5" y="-442.5" font-family="Helvetica,sans-Serif" font-size="10.00">#</text>
<text xml:space="preserve" text-anchor="start" x="43.88" y="-442.5" font-family="Helvetica,sans-Serif" font-size="10.00">orderId</text>
<text xml:space="preserve" text-anchor="start" x="19.5" y="-426.5" font-family="Helvetica,sans-Serif" font-size="10.00">#</text>
<text xml:space="preserve" text-anchor="start" x="43.88" y="-426.5" font-family="Helvetica,sans-Serif" font-size="10.00">title</text>
<text xml:space="preserve" text-anchor="start" x="19.5" y="-410.5" font-family="Helvetica,sans-Serif" font-size="10.00">#</text>
<text xml:space="preserve" text-anchor="start" x="43.88" y="-410.5" font-family="Helvetica,sans-Serif" font-size="10.00">startingDate</text>
<text xml:space="preserve" text-anchor="start" x="19.5" y="-394.5" font-family="Helvetica,sans-Serif" font-size="10.00">#</text>
<text xml:space="preserve" text-anchor="start" x="43.88" y="-394.5" font-family="Helvetica,sans-Serif" font-size="10.00">endingDate</text>
<text xml:space="preserve" text-anchor="start" x="19.5" y="-378.5" font-family="Helvetica,sans-Serif" font-size="10.00">#</text>
<text xml:space="preserve" text-anchor="start" x="43.88" y="-378.5" font-family="Helvetica,sans-Serif" font-size="10.00">formatter</text>
<text xml:space="preserve" text-anchor="start" x="19.12" y="-362.5" font-family="Helvetica,sans-Serif" font-size="10.00">+</text>
<text xml:space="preserve" text-anchor="start" x="43.88" y="-362.5" font-family="Helvetica,sans-Serif" font-size="10.00">StandingOrder()</text>
<text xml:space="preserve" text-anchor="start" x="19.12" y="-346.5" font-family="Helvetica,sans-Serif" font-size="10.00">+</text>
<text xml:space="preserve" text-anchor="start" x="43.88" y="-346.5" font-family="Helvetica,sans-Serif" font-size="10.00">getOrderId()</text>
<text xml:space="preserve" text-anchor="start" x="19.12" y="-330.5" font-family="Helvetica,sans-Serif" font-size="10.00">+</text>
<text xml:space="preserve" text-anchor="start" x="43.88" y="-330.5" font-family="Helvetica,sans-Serif" font-size="10.00">getTitle()</text>
<text xml:space="preserve" text-anchor="start" x="19.12" y="-314.5" font-family="Helvetica,sans-Serif" font-size="10.00">+</text>
<text xml:space="preserve" text-anchor="start" x="43.88" y="-314.5" font-family="Helvetica,sans-Serif" font-size="10.00">getDescription()</text>
<text xml:space="preserve" text-anchor="start" x="19.12" y="-298.5" font-family="Helvetica,sans-Serif" font-size="10.00">+</text>
<text xml:space="preserve" text-anchor="start" x="43.88" y="-298.5" font-family="Helvetica,sans-Serif" font-size="10.00">getIsActive()</text>
<text xml:space="preserve" text-anchor="start" x="19.12" y="-282.5" font-family="Helvetica,sans-Serif" font-size="10.00">+</text>
<text xml:space="preserve" text-anchor="start" x="43.88" y="-282.5" font-family="Helvetica,sans-Serif" font-size="10.00">setIsActive()</text>
<text xml:space="preserve" text-anchor="start" x="19.12" y="-266.5" font-family="Helvetica,sans-Serif" font-size="10.00">+</text>
<text xml:space="preserve" text-anchor="start" x="43.88" y="-266.5" font-family="Helvetica,sans-Serif" font-size="10.00">getStartingDate()</text>
<text xml:space="preserve" text-anchor="start" x="19.12" y="-250.5" font-family="Helvetica,sans-Serif" font-size="10.00">+</text>
<text xml:space="preserve" text-anchor="start" x="43.88" y="-250.5" font-family="Helvetica,sans-Serif" font-size="10.00">getEndingDate()</text>
<text xml:space="preserve" text-anchor="start" x="19.12" y="-234.5" font-family="Helvetica,sans-Serif" font-size="10.00">+</text>
<text xml:space="preserve" text-anchor="start" x="43.88" y="-234.5" font-family="Helvetica,sans-Serif" font-size="10.00">execute()</text>
<text xml:space="preserve" text-anchor="start" x="19.12" y="-218.5" font-family="Helvetica,sans-Serif" font-size="10.00">+</text>
<text xml:space="preserve" text-anchor="start" x="43.88" y="-218.5" font-family="Helvetica,sans-Serif" font-size="10.00">marshal()</text>
<text xml:space="preserve" text-anchor="start" x="19.12" y="-202.5" font-family="Helvetica,sans-Serif" font-size="10.00">+</text>
<text xml:space="preserve" text-anchor="start" x="43.88" y="-202.5" font-family="Helvetica,sans-Serif" font-size="10.00">unmarshal()</text>
<text xml:space="preserve" text-anchor="start" x="19.12" y="-186.5" font-family="Helvetica,sans-Serif" font-size="10.00">+</text>
<text xml:space="preserve" text-anchor="start" x="43.88" y="-186.5" font-family="Helvetica,sans-Serif" font-size="10.00">isExpired()</text>
<text xml:space="preserve" text-anchor="start" x="19.12" y="-170.5" font-family="Helvetica,sans-Serif" font-size="10.00">+</text>
<text xml:space="preserve" text-anchor="start" x="43.88" y="-170.5" font-family="Helvetica,sans-Serif" font-size="10.00">isFailed()</text>
<polygon fill="#666666" stroke="#666666" points="0.38,-486 0.38,-486 151.62,-486 151.62,-486 0.38,-486"/>
<polygon fill="#666666" stroke="#666666" points="0.38,-374 0.38,-374 41.88,-374 41.88,-374 0.38,-374"/>
<polygon fill="#666666" stroke="#666666" points="41.88,-374 41.88,-374 151.62,-374 151.62,-374 41.88,-374"/>
<polygon fill="none" stroke="#666666" points="0.38,-164 0.38,-516 151.62,-516 151.62,-164 0.38,-164"/>
</a>
</g>
</g>
<!-- Node2&#45;&gt;Node1 -->
<g id="edge1_Node000001_Node000002" class="edge">
<title>Node2&#45;&gt;Node1</title>
<g id="a_edge1_Node000001_Node000002"><a xlink:title=" ">
<path fill="none" stroke="#63b8ff" d="M76,-153.02C76,-144.22 76,-135.74 76,-127.74"/>
<polygon fill="none" stroke="#63b8ff" points="72.5,-152.79 76,-162.79 79.5,-152.79 72.5,-152.79"/>
</a>
</g>
</g>
<!-- Node3 -->
<g id="Node000003" class="node">
<title>Node3</title>
<g id="a_Node000003"><a xlink:href="../../dd/d8c/interfacecom_1_1bank_1_1storage_1_1_storable.html" target="_top" xlink:title="Defines the serialization and deserialization behavior for persistent objects.">
<polygon fill="white" stroke="none" points="138.5,-620 13.5,-620 13.5,-552 138.5,-552 138.5,-620"/>
<text xml:space="preserve" text-anchor="start" x="17.5" y="-606.5" font-family="Helvetica,sans-Serif" font-size="10.00">com.bank.storage.Storable</text>
<text xml:space="preserve" text-anchor="start" x="74.5" y="-590.5" font-family="Helvetica,sans-Serif" font-size="10.00"> </text>
<text xml:space="preserve" text-anchor="start" x="31.5" y="-574.5" font-family="Helvetica,sans-Serif" font-size="10.00">+</text>
<text xml:space="preserve" text-anchor="start" x="55.5" y="-574.5" font-family="Helvetica,sans-Serif" font-size="10.00">marshal()</text>
<text xml:space="preserve" text-anchor="start" x="31.5" y="-558.5" font-family="Helvetica,sans-Serif" font-size="10.00">+</text>
<text xml:space="preserve" text-anchor="start" x="55.5" y="-558.5" font-family="Helvetica,sans-Serif" font-size="10.00">unmarshal()</text>
<polygon fill="#666666" stroke="#666666" points="13.5,-602 13.5,-602 138.5,-602 138.5,-602 13.5,-602"/>
<polygon fill="#666666" stroke="#666666" points="13.5,-586 13.5,-586 138.5,-586 138.5,-586 13.5,-586"/>
<polygon fill="none" stroke="#666666" points="13.5,-552 13.5,-620 138.5,-620 138.5,-552 13.5,-552"/>
</a>
</g>
</g>
<!-- Node3&#45;&gt;Node2 -->
<g id="edge2_Node000002_Node000003" class="edge">
<title>Node3&#45;&gt;Node2</title>
<g id="a_edge2_Node000002_Node000003"><a xlink:title=" ">
<path fill="none" stroke="#63b8ff" d="M76,-540.65C76,-532.97 76,-524.6 76,-515.77"/>
<polygon fill="none" stroke="#63b8ff" points="72.5,-540.58 76,-550.58 79.5,-540.58 72.5,-540.58"/>
</a>
</g>
</g>
</g>
</svg>
