<?xml version="1.0" encoding="UTF-8" standalone="no"?>
<!DOCTYPE svg PUBLIC "-//W3C//DTD SVG 1.1//EN"
 "http://www.w3.org/Graphics/SVG/1.1/DTD/svg11.dtd">
<!-- Generated by graphviz version 14.0.1 (20251006.0113)
 -->
<!-- Title: cli/IndividualMenu.java Pages: 1 -->
<svg width="970pt" height="96pt"
 viewBox="0.00 0.00 970.00 96.00" xmlns="http://www.w3.org/2000/svg" xmlns:xlink="http://www.w3.org/1999/xlink">
<g id="graph0" class="graph" transform="scale(1 1) rotate(0) translate(4 92)">
<title>cli/IndividualMenu.java</title>
<!-- Node1 -->
<g id="Node000001" class="node">
<title>Node1</title>
<g id="a_Node000001"><a xlink:title=" ">
<polygon fill="#999999" stroke="#666666" points="565.5,-88 450.5,-88 450.5,-68 565.5,-68 565.5,-88"/>
<text xml:space="preserve" text-anchor="middle" x="508" y="-74.5" font-family="Helvetica,sans-Serif" font-size="10.00">cli/IndividualMenu.java</text>
</a>
</g>
</g>
<!-- Node2 -->
<g id="Node000002" class="node">
<title>Node2</title>
<g id="a_Node000002"><a xlink:title=" ">
<polygon fill="#e0e0e0" stroke="#999999" points="106,-26 0,-26 0,-6 106,-6 106,-26"/>
<text xml:space="preserve" text-anchor="middle" x="53" y="-12.5" font-family="Helvetica,sans-Serif" font-size="10.00">com.bank.manager.*</text>
</a>
</g>
</g>
<!-- Node1&#45;&gt;Node2 -->
<g id="edge1_Node000001_Node000002" class="edge">
<title>Node1&#45;&gt;Node2</title>
<g id="a_edge1_Node000001_Node000002"><a xlink:title=" ">
<path fill="none" stroke="#63b8ff" d="M450.07,-72.62C373.13,-66.28 233.16,-52.98 115,-32 110.08,-31.13 104.97,-30.1 99.89,-28.99"/>
<polygon fill="#63b8ff" stroke="#63b8ff" points="100.91,-25.63 90.38,-26.82 99.35,-32.46 100.91,-25.63"/>
</a>
</g>
</g>
<!-- Node3 -->
<g id="Node000003" class="node">
<title>Node3</title>
<g id="a_Node000003"><a xlink:title=" ">
<polygon fill="#e0e0e0" stroke="#999999" points="263.5,-26 124.5,-26 124.5,-6 263.5,-6 263.5,-26"/>
<text xml:space="preserve" text-anchor="middle" x="194" y="-12.5" font-family="Helvetica,sans-Serif" font-size="10.00">com.bank.model.users.User</text>
</a>
</g>
</g>
<!-- Node1&#45;&gt;Node3 -->
<g id="edge2_Node000001_Node000003" class="edge">
<title>Node1&#45;&gt;Node3</title>
<g id="a_edge2_Node000001_Node000003"><a xlink:title=" ">
<path fill="none" stroke="#63b8ff" d="M458.27,-67.54C410.51,-58.45 336.32,-44.32 272,-32 266.16,-30.88 260.07,-29.71 253.99,-28.55"/>
<polygon fill="#63b8ff" stroke="#63b8ff" points="255.06,-25.19 244.58,-26.74 253.74,-32.06 255.06,-25.19"/>
</a>
</g>
</g>
<!-- Node4 -->
<g id="Node000004" class="node">
<title>Node4</title>
<g id="a_Node000004"><a xlink:title=" ">
<polygon fill="#e0e0e0" stroke="#999999" points="414.88,-32 281.12,-32 281.12,0 414.88,0 414.88,-32"/>
<text xml:space="preserve" text-anchor="start" x="289.12" y="-18.5" font-family="Helvetica,sans-Serif" font-size="10.00">com.bank.model.accounts.</text>
<text xml:space="preserve" text-anchor="middle" x="348" y="-6.5" font-family="Helvetica,sans-Serif" font-size="10.00">Account</text>
</a>
</g>
</g>
<!-- Node1&#45;&gt;Node4 -->
<g id="edge3_Node000001_Node000004" class="edge">
<title>Node1&#45;&gt;Node4</title>
<g id="a_edge3_Node000001_Node000004"><a xlink:title=" ">
<path fill="none" stroke="#63b8ff" d="M483,-67.62C460.89,-59.33 427.91,-46.96 400.08,-36.53"/>
<polygon fill="#63b8ff" stroke="#63b8ff" points="401.32,-33.26 390.73,-33.02 398.86,-39.81 401.32,-33.26"/>
</a>
</g>
</g>
<!-- Node5 -->
<g id="Node000005" class="node">
<title>Node5</title>
<g id="a_Node000005"><a xlink:title=" ">
<polygon fill="#e0e0e0" stroke="#999999" points="583.5,-26 432.5,-26 432.5,-6 583.5,-6 583.5,-26"/>
<text xml:space="preserve" text-anchor="middle" x="508" y="-12.5" font-family="Helvetica,sans-Serif" font-size="10.00">com.bank.model.transactions.*</text>
</a>
</g>
</g>
<!-- Node1&#45;&gt;Node5 -->
<g id="edge4_Node000001_Node000005" class="edge">
<title>Node1&#45;&gt;Node5</title>
<g id="a_edge4_Node000001_Node000005"><a xlink:title=" ">
<path fill="none" stroke="#63b8ff" d="M508,-67.62C508,-59.56 508,-47.65 508,-37.41"/>
<polygon fill="#63b8ff" stroke="#63b8ff" points="511.5,-37.63 508,-27.63 504.5,-37.63 511.5,-37.63"/>
</a>
</g>
</g>
<!-- Node6 -->
<g id="Node000006" class="node">
<title>Node6</title>
<g id="a_Node000006"><a xlink:title=" ">
<polygon fill="#e0e0e0" stroke="#999999" points="726.38,-26 601.62,-26 601.62,-6 726.38,-6 726.38,-26"/>
<text xml:space="preserve" text-anchor="middle" x="664" y="-12.5" font-family="Helvetica,sans-Serif" font-size="10.00">com.bank.model.bills.Bill</text>
</a>
</g>
</g>
<!-- Node1&#45;&gt;Node6 -->
<g id="edge5_Node000001_Node000006" class="edge">
<title>Node1&#45;&gt;Node6</title>
<g id="a_edge5_Node000001_Node000006"><a xlink:title=" ">
<path fill="none" stroke="#63b8ff" d="M532.38,-67.62C558.29,-57.66 599.5,-41.81 628.9,-30.5"/>
<polygon fill="#63b8ff" stroke="#63b8ff" points="630.05,-33.81 638.13,-26.95 627.54,-27.27 630.05,-33.81"/>
</a>
</g>
</g>
<!-- Node7 -->
<g id="Node000007" class="node">
<title>Node7</title>
<g id="a_Node000007"><a xlink:title=" ">
<polygon fill="#e0e0e0" stroke="#999999" points="887.38,-32 744.62,-32 744.62,0 887.38,0 887.38,-32"/>
<text xml:space="preserve" text-anchor="start" x="752.62" y="-18.5" font-family="Helvetica,sans-Serif" font-size="10.00">com.bank.model.statements.</text>
<text xml:space="preserve" text-anchor="middle" x="816" y="-6.5" font-family="Helvetica,sans-Serif" font-size="10.00">StatementEntry</text>
</a>
</g>
</g>
<!-- Node1&#45;&gt;Node7 -->
<g id="edge6_Node000001_Node000007" class="edge">
<title>Node1&#45;&gt;Node7</title>
<g id="a_edge6_Node000001_Node000007"><a xlink:title=" ">
<path fill="none" stroke="#63b8ff" d="M556.46,-67.56C603.79,-58.34 676.74,-44.13 733.27,-33.12"/>
<polygon fill="#63b8ff" stroke="#63b8ff" points="733.71,-36.6 742.85,-31.25 732.37,-29.73 733.71,-36.6"/>
</a>
</g>
</g>
<!-- Node8 -->
<g id="Node000008" class="node">
<title>Node8</title>
<g id="a_Node000008"><a xlink:title=" ">
<polygon fill="#e0e0e0" stroke="#999999" points="962.25,-26 905.75,-26 905.75,-6 962.25,-6 962.25,-26"/>
<text xml:space="preserve" text-anchor="middle" x="934" y="-12.5" font-family="Helvetica,sans-Serif" font-size="10.00">java.util.*</text>
</a>
</g>
</g>
<!-- Node1&#45;&gt;Node8 -->
<g id="edge7_Node000001_Node000008" class="edge">
<title>Node1&#45;&gt;Node8</title>
<g id="a_edge7_Node000001_Node000008"><a xlink:title=" ">
<path fill="none" stroke="#63b8ff" d="M565.71,-74.99C642.24,-71.27 781.06,-60.83 896,-32 898.12,-31.47 900.27,-30.85 902.43,-30.17"/>
<polygon fill="#63b8ff" stroke="#63b8ff" points="903.34,-33.56 911.59,-26.91 901,-26.96 903.34,-33.56"/>
</a>
</g>
</g>
</g>
</svg>
