<?xml version="1.0" encoding="UTF-8" standalone="no"?>
<!DOCTYPE svg PUBLIC "-//W3C//DTD SVG 1.1//EN"
 "http://www.w3.org/Graphics/SVG/1.1/DTD/svg11.dtd">
<!-- Generated by graphviz version 14.0.1 (20251006.0113)
 -->
<!-- Title: Graphical Class Hierarchy Pages: 1 -->
<svg width="339pt" height="190pt"
 viewBox="0.00 0.00 339.00 190.00" xmlns="http://www.w3.org/2000/svg" xmlns:xlink="http://www.w3.org/1999/xlink">
<g id="graph0" class="graph" transform="scale(1 1) rotate(0) translate(4 186)">
<title>Graphical Class Hierarchy</title>
<!-- Node0 -->
<g id="Node000000" class="node">
<title>Node0</title>
<g id="a_Node000000"><a xlink:href="d5/d94/classcom_1_1bank_1_1model_1_1transactions_1_1_transaction.html" target="_top" xlink:title="Abstract base class representing a financial transaction.">
<polygon fill="white" stroke="#666666" points="147.25,-107 0,-107 0,-75 147.25,-75 147.25,-107"/>
<text xml:space="preserve" text-anchor="start" x="8" y="-93.5" font-family="Helvetica,sans-Serif" font-size="10.00">com.bank.model.transactions.</text>
<text xml:space="preserve" text-anchor="middle" x="73.62" y="-81.5" font-family="Helvetica,sans-Serif" font-size="10.00">Transaction</text>
</a>
</g>
</g>
<!-- Node1 -->
<g id="Node000001" class="node">
<title>Node1</title>
<g id="a_Node000001"><a xlink:href="da/dd0/classcom_1_1bank_1_1model_1_1transactions_1_1_deposit.html" target="_top" xlink:title="Represents a deposit transaction to a single bank account.">
<polygon fill="white" stroke="#666666" points="330.5,-182 183.25,-182 183.25,-150 330.5,-150 330.5,-182"/>
<text xml:space="preserve" text-anchor="start" x="191.25" y="-168.5" font-family="Helvetica,sans-Serif" font-size="10.00">com.bank.model.transactions.</text>
<text xml:space="preserve" text-anchor="middle" x="256.88" y="-156.5" font-family="Helvetica,sans-Serif" font-size="10.00">Deposit</text>
</a>
</g>
</g>
<!-- Node0&#45;&gt;Node1 -->
<g id="edge1_Node000000_Node000001" class="edge">
<title>Node0&#45;&gt;Node1</title>
<g id="a_edge1_Node000000_Node000001"><a xlink:title=" ">
<path fill="none" stroke="#63b8ff" d="M118.2,-112.26C137.87,-121.55 161.53,-132.29 183.25,-141 190.55,-143.93 198.35,-146.84 206.02,-149.57"/>
<polygon fill="#63b8ff" stroke="#63b8ff" points="119.91,-109.2 109.38,-108.07 116.9,-115.52 119.91,-109.2"/>
</a>
</g>
</g>
<!-- Node2 -->
<g id="Node000002" class="node">
<title>Node2</title>
<g id="a_Node000002"><a xlink:href="dd/d71/classcom_1_1bank_1_1model_1_1transactions_1_1_payment.html" target="_top" xlink:title="Represents a bill payment transaction between a customer and a business account.">
<polygon fill="white" stroke="#666666" points="330.5,-132 183.25,-132 183.25,-100 330.5,-100 330.5,-132"/>
<text xml:space="preserve" text-anchor="start" x="191.25" y="-118.5" font-family="Helvetica,sans-Serif" font-size="10.00">com.bank.model.transactions.</text>
<text xml:space="preserve" text-anchor="middle" x="256.88" y="-106.5" font-family="Helvetica,sans-Serif" font-size="10.00">Payment</text>
</a>
</g>
</g>
<!-- Node0&#45;&gt;Node2 -->
<g id="edge2_Node000000_Node000002" class="edge">
<title>Node0&#45;&gt;Node2</title>
<g id="a_edge2_Node000000_Node000002"><a xlink:title=" ">
<path fill="none" stroke="#63b8ff" d="M158.81,-102.61C166.82,-103.72 174.9,-104.83 182.79,-105.92"/>
<polygon fill="#63b8ff" stroke="#63b8ff" points="159.45,-99.17 149.06,-101.27 158.49,-106.1 159.45,-99.17"/>
</a>
</g>
</g>
<!-- Node3 -->
<g id="Node000003" class="node">
<title>Node3</title>
<g id="a_Node000003"><a xlink:href="d1/d0c/classcom_1_1bank_1_1model_1_1transactions_1_1_transfer.html" target="_top" xlink:title="Represents a money transfer between two bank accounts.">
<polygon fill="white" stroke="#666666" points="330.5,-82 183.25,-82 183.25,-50 330.5,-50 330.5,-82"/>
<text xml:space="preserve" text-anchor="start" x="191.25" y="-68.5" font-family="Helvetica,sans-Serif" font-size="10.00">com.bank.model.transactions.</text>
<text xml:space="preserve" text-anchor="middle" x="256.88" y="-56.5" font-family="Helvetica,sans-Serif" font-size="10.00">Transfer</text>
</a>
</g>
</g>
<!-- Node0&#45;&gt;Node3 -->
<g id="edge3_Node000000_Node000003" class="edge">
<title>Node0&#45;&gt;Node3</title>
<g id="a_edge3_Node000000_Node000003"><a xlink:title=" ">
<path fill="none" stroke="#63b8ff" d="M158.81,-79.39C166.82,-78.28 174.9,-77.17 182.79,-76.08"/>
<polygon fill="#63b8ff" stroke="#63b8ff" points="158.49,-75.9 149.06,-80.73 159.45,-82.83 158.49,-75.9"/>
</a>
</g>
</g>
<!-- Node4 -->
<g id="Node000004" class="node">
<title>Node4</title>
<g id="a_Node000004"><a xlink:href="dd/df3/classcom_1_1bank_1_1model_1_1transactions_1_1_withdrawal.html" target="_top" xlink:title="Represents a withdrawal transaction from a bank account.">
<polygon fill="white" stroke="#666666" points="330.5,-32 183.25,-32 183.25,0 330.5,0 330.5,-32"/>
<text xml:space="preserve" text-anchor="start" x="191.25" y="-18.5" font-family="Helvetica,sans-Serif" font-size="10.00">com.bank.model.transactions.</text>
<text xml:space="preserve" text-anchor="middle" x="256.88" y="-6.5" font-family="Helvetica,sans-Serif" font-size="10.00">Withdrawal</text>
</a>
</g>
</g>
<!-- Node0&#45;&gt;Node4 -->
<g id="edge4_Node000000_Node000004" class="edge">
<title>Node0&#45;&gt;Node4</title>
<g id="a_edge4_Node000000_Node000004"><a xlink:title=" ">
<path fill="none" stroke="#63b8ff" d="M118.2,-69.74C137.87,-60.45 161.53,-49.71 183.25,-41 190.55,-38.07 198.35,-35.16 206.02,-32.43"/>
<polygon fill="#63b8ff" stroke="#63b8ff" points="116.9,-66.48 109.38,-73.93 119.91,-72.8 116.9,-66.48"/>
</a>
</g>
</g>
</g>
</svg>
