<?xml version="1.0" encoding="UTF-8" standalone="no"?>
<!DOCTYPE svg PUBLIC "-//W3C//DTD SVG 1.1//EN"
 "http://www.w3.org/Graphics/SVG/1.1/DTD/svg11.dtd">
<!-- Generated by graphviz version 14.0.1 (20251006.0113)
 -->
<!-- Title: Graphical Class Hierarchy Pages: 1 -->
<svg width="261pt" height="66pt"
 viewBox="0.00 0.00 261.00 66.00" xmlns="http://www.w3.org/2000/svg" xmlns:xlink="http://www.w3.org/1999/xlink">
<g id="graph0" class="graph" transform="scale(1 1) rotate(0) translate(4 62)">
<title>Graphical Class Hierarchy</title>
<!-- Node0 -->
<g id="Node000000" class="node">
<title>Node0</title>
<g id="a_Node000000"><a xlink:title=" ">
<polygon fill="#e0e0e0" stroke="#999999" points="49,-39 0,-39 0,-19 49,-19 49,-39"/>
<text xml:space="preserve" text-anchor="middle" x="24.5" y="-25.5" font-family="Helvetica,sans-Serif" font-size="10.00">JFrame</text>
</a>
</g>
</g>
<!-- Node1 -->
<g id="Node000001" class="node">
<title>Node1</title>
<g id="a_Node000001"><a xlink:href="d4/dd0/classcom_1_1bank_1_1gui_1_1view_1_1_login_window.html" target="_top" xlink:title="Απλό Swing παράθυρο σύνδεσης (username/password) για το e&#45;banking GUI.">
<polygon fill="white" stroke="#666666" points="248.38,-58 89.88,-58 89.88,-38 248.38,-38 248.38,-58"/>
<text xml:space="preserve" text-anchor="middle" x="169.12" y="-44.5" font-family="Helvetica,sans-Serif" font-size="10.00">com.bank.gui.view.LoginWindow</text>
</a>
</g>
</g>
<!-- Node0&#45;&gt;Node1 -->
<g id="edge19_Node000000_Node000001" class="edge">
<title>Node0&#45;&gt;Node1</title>
<g id="a_edge19_Node000000_Node000001"><a xlink:title=" ">
<path fill="none" stroke="#63b8ff" d="M60.78,-33.7C69.67,-34.88 79.57,-36.2 89.66,-37.55"/>
<polygon fill="#63b8ff" stroke="#63b8ff" points="61.25,-30.23 50.87,-32.38 60.32,-37.17 61.25,-30.23"/>
</a>
</g>
</g>
<!-- Node2 -->
<g id="Node000002" class="node">
<title>Node2</title>
<g id="a_Node000002"><a xlink:href="d4/d3b/classcom_1_1bank_1_1gui_1_1view_1_1_main_dashboard.html" target="_top" xlink:title="Main Swing frame acting as role&#45;aware dashboard (Individual / Company / Admin).">
<polygon fill="white" stroke="#666666" points="253.25,-20 85,-20 85,0 253.25,0 253.25,-20"/>
<text xml:space="preserve" text-anchor="middle" x="169.12" y="-6.5" font-family="Helvetica,sans-Serif" font-size="10.00">com.bank.gui.view.MainDashboard</text>
</a>
</g>
</g>
<!-- Node0&#45;&gt;Node2 -->
<g id="edge20_Node000000_Node000002" class="edge">
<title>Node0&#45;&gt;Node2</title>
<g id="a_edge20_Node000000_Node000002"><a xlink:title=" ">
<path fill="none" stroke="#63b8ff" d="M60.7,-24.31C69.52,-23.14 79.33,-21.83 89.35,-20.49"/>
<polygon fill="#63b8ff" stroke="#63b8ff" points="60.32,-20.83 50.87,-25.62 61.25,-27.77 60.32,-20.83"/>
</a>
</g>
</g>
</g>
</svg>
