<?xml version="1.0" encoding="UTF-8" standalone="no"?>
<!DOCTYPE svg PUBLIC "-//W3C//DTD SVG 1.1//EN"
 "http://www.w3.org/Graphics/SVG/1.1/DTD/svg11.dtd">
<!-- Generated by graphviz version 14.0.1 (20251006.0113)
 -->
<!-- Title: Graphical Class Hierarchy Pages: 1 -->
<svg width="729pt" height="299pt"
 viewBox="0.00 0.00 729.00 299.00" xmlns="http://www.w3.org/2000/svg" xmlns:xlink="http://www.w3.org/1999/xlink">
<g id="graph0" class="graph" transform="scale(1 1) rotate(0) translate(4 295)">
<title>Graphical Class Hierarchy</title>
<!-- Node0 -->
<g id="Node000000" class="node">
<title>Node0</title>
<g id="a_Node000000"><a xlink:href="dd/d8c/interfacecom_1_1bank_1_1storage_1_1_storable.html" target="_top" xlink:title="Defines the serialization and deserialization behavior for persistent objects.">
<polygon fill="white" stroke="#666666" points="133,-152 0,-152 0,-132 133,-132 133,-152"/>
<text xml:space="preserve" text-anchor="middle" x="66.5" y="-138.5" font-family="Helvetica,sans-Serif" font-size="10.00">com.bank.storage.Storable</text>
</a>
</g>
</g>
<!-- Node1 -->
<g id="Node000001" class="node">
<title>Node1</title>
<g id="a_Node000001"><a xlink:href="da/d83/classcom_1_1bank_1_1model_1_1accounts_1_1_account.html" target="_top" xlink:title="Abstract base class for bank accounts.">
<polygon fill="white" stroke="#666666" points="315.5,-246 181.75,-246 181.75,-214 315.5,-214 315.5,-246"/>
<text xml:space="preserve" text-anchor="start" x="189.75" y="-232.5" font-family="Helvetica,sans-Serif" font-size="10.00">com.bank.model.accounts.</text>
<text xml:space="preserve" text-anchor="middle" x="248.62" y="-220.5" font-family="Helvetica,sans-Serif" font-size="10.00">Account</text>
</a>
</g>
</g>
<!-- Node0&#45;&gt;Node1 -->
<g id="edge5_Node000000_Node000001" class="edge">
<title>Node0&#45;&gt;Node1</title>
<g id="a_edge5_Node000000_Node000001"><a xlink:title=" ">
<path fill="none" stroke="#63b8ff" d="M90.88,-158.85C110.87,-172.67 140.8,-192.01 169,-205 175.77,-208.12 183.03,-211 190.3,-213.61"/>
<polygon fill="#63b8ff" stroke="#63b8ff" points="93.09,-156.12 82.89,-153.24 89.07,-161.85 93.09,-156.12"/>
</a>
</g>
</g>
<!-- Node4 -->
<g id="Node000004" class="node">
<title>Node4</title>
<g id="a_Node000004"><a xlink:href="d3/dd4/classcom_1_1bank_1_1model_1_1bills_1_1_bill.html" target="_top" xlink:title="Represents a payable bill/invoice with issuer, customer, amount and due date.">
<polygon fill="white" stroke="#666666" points="311,-196 186.25,-196 186.25,-176 311,-176 311,-196"/>
<text xml:space="preserve" text-anchor="middle" x="248.62" y="-182.5" font-family="Helvetica,sans-Serif" font-size="10.00">com.bank.model.bills.Bill</text>
</a>
</g>
</g>
<!-- Node0&#45;&gt;Node4 -->
<g id="edge8_Node000000_Node000004" class="edge">
<title>Node0&#45;&gt;Node4</title>
<g id="a_edge8_Node000000_Node000004"><a xlink:title=" ">
<path fill="none" stroke="#63b8ff" d="M120.53,-155.11C136.14,-158.95 153.25,-163.16 169,-167 180.46,-169.8 192.86,-172.8 204.36,-175.58"/>
<polygon fill="#63b8ff" stroke="#63b8ff" points="121.48,-151.74 110.93,-152.74 119.81,-158.53 121.48,-151.74"/>
</a>
</g>
</g>
<!-- Node5 -->
<g id="Node000005" class="node">
<title>Node5</title>
<g id="a_Node000005"><a xlink:href="d7/d26/classcom_1_1bank_1_1model_1_1orders_1_1_standing_order.html" target="_top" xlink:title="Abstract base class for automated scheduled banking orders.">
<polygon fill="white" stroke="#666666" points="328.25,-158 169,-158 169,-126 328.25,-126 328.25,-158"/>
<text xml:space="preserve" text-anchor="start" x="177" y="-144.5" font-family="Helvetica,sans-Serif" font-size="10.00">com.bank.model.orders.Standing</text>
<text xml:space="preserve" text-anchor="middle" x="248.62" y="-132.5" font-family="Helvetica,sans-Serif" font-size="10.00">Order</text>
</a>
</g>
</g>
<!-- Node0&#45;&gt;Node5 -->
<g id="edge9_Node000000_Node000005" class="edge">
<title>Node0&#45;&gt;Node5</title>
<g id="a_edge9_Node000000_Node000005"><a xlink:title=" ">
<path fill="none" stroke="#63b8ff" d="M144.73,-142C152.61,-142 160.64,-142 168.54,-142"/>
<polygon fill="#63b8ff" stroke="#63b8ff" points="144.81,-138.5 134.81,-142 144.81,-145.5 144.81,-138.5"/>
</a>
</g>
</g>
<!-- Node8 -->
<g id="Node000008" class="node">
<title>Node8</title>
<g id="a_Node000008"><a xlink:href="d2/d71/classcom_1_1bank_1_1model_1_1statements_1_1_statement_entry.html" target="_top" xlink:title="Represents a single transaction record in an account statement.">
<polygon fill="white" stroke="#666666" points="320,-108 177.25,-108 177.25,-76 320,-76 320,-108"/>
<text xml:space="preserve" text-anchor="start" x="185.25" y="-94.5" font-family="Helvetica,sans-Serif" font-size="10.00">com.bank.model.statements.</text>
<text xml:space="preserve" text-anchor="middle" x="248.62" y="-82.5" font-family="Helvetica,sans-Serif" font-size="10.00">StatementEntry</text>
</a>
</g>
</g>
<!-- Node0&#45;&gt;Node8 -->
<g id="edge12_Node000000_Node000008" class="edge">
<title>Node0&#45;&gt;Node8</title>
<g id="a_edge12_Node000000_Node000008"><a xlink:title=" ">
<path fill="none" stroke="#63b8ff" d="M116.12,-128.5C138.35,-122.33 164.89,-114.97 188.29,-108.47"/>
<polygon fill="#63b8ff" stroke="#63b8ff" points="115.42,-125.07 106.72,-131.11 117.29,-131.81 115.42,-125.07"/>
</a>
</g>
</g>
<!-- Node9 -->
<g id="Node000009" class="node">
<title>Node9</title>
<g id="a_Node000009"><a xlink:href="dd/dee/classcom_1_1bank_1_1model_1_1users_1_1_user.html" target="_top" xlink:title="Abstract base class for all user types in the banking system.">
<polygon fill="white" stroke="#666666" points="318.12,-58 179.12,-58 179.12,-38 318.12,-38 318.12,-58"/>
<text xml:space="preserve" text-anchor="middle" x="248.62" y="-44.5" font-family="Helvetica,sans-Serif" font-size="10.00">com.bank.model.users.User</text>
</a>
</g>
</g>
<!-- Node0&#45;&gt;Node9 -->
<g id="edge13_Node000000_Node000009" class="edge">
<title>Node0&#45;&gt;Node9</title>
<g id="a_edge13_Node000000_Node000009"><a xlink:title=" ">
<path fill="none" stroke="#63b8ff" d="M86.9,-123.92C106.27,-106.82 137.61,-81.65 169,-67 176.25,-63.61 184.17,-60.79 192.11,-58.46"/>
<polygon fill="#63b8ff" stroke="#63b8ff" points="84.61,-121.27 79.53,-130.57 89.29,-126.47 84.61,-121.27"/>
</a>
</g>
</g>
<!-- Node2 -->
<g id="Node000002" class="node">
<title>Node2</title>
<g id="a_Node000002"><a xlink:href="d3/d75/classcom_1_1bank_1_1model_1_1accounts_1_1_business_account.html" target="_top" xlink:title="Represents a business (company) bank account with an additional monthly maintenance fee.">
<polygon fill="white" stroke="#666666" points="511.5,-291 377.75,-291 377.75,-259 511.5,-259 511.5,-291"/>
<text xml:space="preserve" text-anchor="start" x="385.75" y="-277.5" font-family="Helvetica,sans-Serif" font-size="10.00">com.bank.model.accounts.</text>
<text xml:space="preserve" text-anchor="middle" x="444.62" y="-265.5" font-family="Helvetica,sans-Serif" font-size="10.00">BusinessAccount</text>
</a>
</g>
</g>
<!-- Node1&#45;&gt;Node2 -->
<g id="edge6_Node000001_Node000002" class="edge">
<title>Node1&#45;&gt;Node2</title>
<g id="a_edge6_Node000001_Node000002"><a xlink:title=" ">
<path fill="none" stroke="#63b8ff" d="M326.72,-247.88C343.48,-251.77 361.07,-255.85 377.37,-259.63"/>
<polygon fill="#63b8ff" stroke="#63b8ff" points="327.85,-244.55 317.32,-245.7 326.27,-251.37 327.85,-244.55"/>
</a>
</g>
</g>
<!-- Node3 -->
<g id="Node000003" class="node">
<title>Node3</title>
<g id="a_Node000003"><a xlink:href="dc/df2/classcom_1_1bank_1_1model_1_1accounts_1_1_personal_account.html" target="_top" xlink:title="Represents a personal bank account that can have multiple co&#45;owners.">
<polygon fill="white" stroke="#666666" points="511.5,-241 377.75,-241 377.75,-209 511.5,-209 511.5,-241"/>
<text xml:space="preserve" text-anchor="start" x="385.75" y="-227.5" font-family="Helvetica,sans-Serif" font-size="10.00">com.bank.model.accounts.</text>
<text xml:space="preserve" text-anchor="middle" x="444.62" y="-215.5" font-family="Helvetica,sans-Serif" font-size="10.00">PersonalAccount</text>
</a>
</g>
</g>
<!-- Node1&#45;&gt;Node3 -->
<g id="edge7_Node000001_Node000003" class="edge">
<title>Node1&#45;&gt;Node3</title>
<g id="a_edge7_Node000001_Node000003"><a xlink:title=" ">
<path fill="none" stroke="#63b8ff" d="M327.2,-228C343.82,-227.57 361.23,-227.12 377.37,-226.71"/>
<polygon fill="#63b8ff" stroke="#63b8ff" points="327.27,-224.5 317.36,-228.25 327.45,-231.5 327.27,-224.5"/>
</a>
</g>
</g>
<!-- Node6 -->
<g id="Node000006" class="node">
<title>Node6</title>
<g id="a_Node000006"><a xlink:href="dc/d2a/classcom_1_1bank_1_1model_1_1orders_1_1_payment_order.html" target="_top" xlink:title="Standing order that pays a bill (by payment code) on its due date within a max amount limit.">
<polygon fill="white" stroke="#666666" points="524.62,-182 364.62,-182 364.62,-150 524.62,-150 524.62,-182"/>
<text xml:space="preserve" text-anchor="start" x="372.62" y="-168.5" font-family="Helvetica,sans-Serif" font-size="10.00">com.bank.model.orders.Payment</text>
<text xml:space="preserve" text-anchor="middle" x="444.62" y="-156.5" font-family="Helvetica,sans-Serif" font-size="10.00">Order</text>
</a>
</g>
</g>
<!-- Node5&#45;&gt;Node6 -->
<g id="edge10_Node000005_Node000006" class="edge">
<title>Node5&#45;&gt;Node6</title>
<g id="a_edge10_Node000005_Node000006"><a xlink:title=" ">
<path fill="none" stroke="#63b8ff" d="M339.91,-153.17C348.01,-154.17 356.16,-155.18 364.16,-156.17"/>
<polygon fill="#63b8ff" stroke="#63b8ff" points="340.39,-149.7 330.03,-151.95 339.53,-156.65 340.39,-149.7"/>
</a>
</g>
</g>
<!-- Node7 -->
<g id="Node000007" class="node">
<title>Node7</title>
<g id="a_Node000007"><a xlink:href="d4/d34/classcom_1_1bank_1_1model_1_1orders_1_1_transfer_order.html" target="_top" xlink:title="Standing order that transfers a fixed amount between two IBANs on a specific day each month.">
<polygon fill="white" stroke="#666666" points="523.12,-132 366.12,-132 366.12,-100 523.12,-100 523.12,-132"/>
<text xml:space="preserve" text-anchor="start" x="374.12" y="-118.5" font-family="Helvetica,sans-Serif" font-size="10.00">com.bank.model.orders.Transfer</text>
<text xml:space="preserve" text-anchor="middle" x="444.62" y="-106.5" font-family="Helvetica,sans-Serif" font-size="10.00">Order</text>
</a>
</g>
</g>
<!-- Node5&#45;&gt;Node7 -->
<g id="edge11_Node000005_Node000007" class="edge">
<title>Node5&#45;&gt;Node7</title>
<g id="a_edge11_Node000005_Node000007"><a xlink:title=" ">
<path fill="none" stroke="#63b8ff" d="M339.84,-129.91C348.49,-128.75 357.21,-127.58 365.73,-126.44"/>
<polygon fill="#63b8ff" stroke="#63b8ff" points="339.48,-126.43 330.03,-131.22 340.41,-133.36 339.48,-126.43"/>
</a>
</g>
</g>
<!-- Node10 -->
<g id="Node000010" class="node">
<title>Node10</title>
<g id="a_Node000010"><a xlink:href="d3/dd3/classcom_1_1bank_1_1model_1_1users_1_1_admin.html" target="_top" xlink:title="Represents an administrative user in the banking system.">
<polygon fill="white" stroke="#666666" points="517.5,-77 371.75,-77 371.75,-57 517.5,-57 517.5,-77"/>
<text xml:space="preserve" text-anchor="middle" x="444.62" y="-63.5" font-family="Helvetica,sans-Serif" font-size="10.00">com.bank.model.users.Admin</text>
</a>
</g>
</g>
<!-- Node9&#45;&gt;Node10 -->
<g id="edge14_Node000009_Node000010" class="edge">
<title>Node9&#45;&gt;Node10</title>
<g id="a_edge14_Node000009_Node000010"><a xlink:title=" ">
<path fill="none" stroke="#63b8ff" d="M329.95,-55.87C343.65,-57.21 357.81,-58.6 371.29,-59.92"/>
<polygon fill="#63b8ff" stroke="#63b8ff" points="330.37,-52.39 320.07,-54.9 329.69,-59.36 330.37,-52.39"/>
</a>
</g>
</g>
<!-- Node11 -->
<g id="Node000011" class="node">
<title>Node11</title>
<g id="a_Node000011"><a xlink:href="dd/d5f/classcom_1_1bank_1_1model_1_1users_1_1_customer.html" target="_top" xlink:title="Abstract base class representing a general bank customer.">
<polygon fill="white" stroke="#666666" points="525,-39 364.25,-39 364.25,-19 525,-19 525,-39"/>
<text xml:space="preserve" text-anchor="middle" x="444.62" y="-25.5" font-family="Helvetica,sans-Serif" font-size="10.00">com.bank.model.users.Customer</text>
</a>
</g>
</g>
<!-- Node9&#45;&gt;Node11 -->
<g id="edge15_Node000009_Node000011" class="edge">
<title>Node9&#45;&gt;Node11</title>
<g id="a_edge15_Node000009_Node000011"><a xlink:title=" ">
<path fill="none" stroke="#63b8ff" d="M329.75,-40.15C341.06,-39.05 352.68,-37.91 363.98,-36.8"/>
<polygon fill="#63b8ff" stroke="#63b8ff" points="329.69,-36.64 320.07,-41.1 330.37,-43.61 329.69,-36.64"/>
</a>
</g>
</g>
<!-- Node12 -->
<g id="Node000012" class="node">
<title>Node12</title>
<g id="a_Node000012"><a xlink:href="de/db1/classcom_1_1bank_1_1model_1_1users_1_1_company.html" target="_top" xlink:title="Represents a business customer of the banking system.">
<polygon fill="white" stroke="#666666" points="721,-58 561,-58 561,-38 721,-38 721,-58"/>
<text xml:space="preserve" text-anchor="middle" x="641" y="-44.5" font-family="Helvetica,sans-Serif" font-size="10.00">com.bank.model.users.Company</text>
</a>
</g>
</g>
<!-- Node11&#45;&gt;Node12 -->
<g id="edge16_Node000011_Node000012" class="edge">
<title>Node11&#45;&gt;Node12</title>
<g id="a_edge16_Node000011_Node000012"><a xlink:title=" ">
<path fill="none" stroke="#63b8ff" d="M536.51,-37.88C544.53,-38.67 552.6,-39.46 560.5,-40.23"/>
<polygon fill="#63b8ff" stroke="#63b8ff" points="537.05,-34.42 526.75,-36.93 536.36,-41.39 537.05,-34.42"/>
</a>
</g>
</g>
<!-- Node13 -->
<g id="Node000013" class="node">
<title>Node13</title>
<g id="a_Node000013"><a xlink:href="dd/d7b/classcom_1_1bank_1_1model_1_1users_1_1_individual.html" target="_top" xlink:title="Represents an individual (personal) customer in the banking system.">
<polygon fill="white" stroke="#666666" points="720.62,-20 561.38,-20 561.38,0 720.62,0 720.62,-20"/>
<text xml:space="preserve" text-anchor="middle" x="641" y="-6.5" font-family="Helvetica,sans-Serif" font-size="10.00">com.bank.model.users.Individual</text>
</a>
</g>
</g>
<!-- Node11&#45;&gt;Node13 -->
<g id="edge17_Node000011_Node000013" class="edge">
<title>Node11&#45;&gt;Node13</title>
<g id="a_edge17_Node000011_Node000013"><a xlink:title=" ">
<path fill="none" stroke="#63b8ff" d="M536.44,-20.12C544.69,-19.32 553,-18.5 561.13,-17.71"/>
<polygon fill="#63b8ff" stroke="#63b8ff" points="536.36,-16.61 526.75,-21.07 537.05,-23.58 536.36,-16.61"/>
</a>
</g>
</g>
</g>
</svg>
