<?xml version="1.0" encoding="UTF-8" standalone="no"?>
<!DOCTYPE svg PUBLIC "-//W3C//DTD SVG 1.1//EN"
 "http://www.w3.org/Graphics/SVG/1.1/DTD/svg11.dtd">
<!-- Generated by graphviz version 14.0.1 (20251006.0113)
 -->
<!-- Title: Graphical Class Hierarchy Pages: 1 -->
<svg width="245pt" height="940pt"
 viewBox="0.00 0.00 245.00 940.00" xmlns="http://www.w3.org/2000/svg" xmlns:xlink="http://www.w3.org/1999/xlink">
<g id="graph0" class="graph" transform="scale(1 1) rotate(0) translate(4 936)">
<title>Graphical Class Hierarchy</title>
<!-- Node0 -->
<g id="Node000000" class="node">
<title>Node0</title>
<g id="a_Node000000"><a xlink:title=" ">
<polygon fill="#e0e0e0" stroke="#999999" points="46,-476 0,-476 0,-456 46,-456 46,-476"/>
<text xml:space="preserve" text-anchor="middle" x="23" y="-462.5" font-family="Helvetica,sans-Serif" font-size="10.00">JPanel</text>
</a>
</g>
</g>
<!-- Node1 -->
<g id="Node000001" class="node">
<title>Node1</title>
<g id="a_Node000001"><a xlink:href="df/d31/classcom_1_1bank_1_1gui_1_1view_1_1panel_1_1_accounts_panel.html" target="_top" xlink:title="Εμφανίζει όλους τους τραπεζικούς λογαριασμούς του συνδεδεμένου χρήστη.">
<polygon fill="white" stroke="#666666" points="222.5,-932 96.25,-932 96.25,-900 222.5,-900 222.5,-932"/>
<text xml:space="preserve" text-anchor="start" x="104.25" y="-918.5" font-family="Helvetica,sans-Serif" font-size="10.00">com.bank.gui.view.panel.</text>
<text xml:space="preserve" text-anchor="middle" x="159.38" y="-906.5" font-family="Helvetica,sans-Serif" font-size="10.00">AccountsPanel</text>
</a>
</g>
</g>
<!-- Node0&#45;&gt;Node1 -->
<g id="edge21_Node000000_Node000001" class="edge">
<title>Node0&#45;&gt;Node1</title>
<g id="a_edge21_Node000000_Node000001"><a xlink:title=" ">
<path fill="none" stroke="#63b8ff" d="M24.02,-487.33C24.51,-564.61 30.05,-828.7 82,-891 85.93,-895.71 90.77,-899.55 96.08,-902.66"/>
<polygon fill="#63b8ff" stroke="#63b8ff" points="27.52,-487.73 23.98,-477.74 20.52,-487.75 27.52,-487.73"/>
</a>
</g>
</g>
<!-- Node2 -->
<g id="Node000002" class="node">
<title>Node2</title>
<g id="a_Node000002"><a xlink:href="dd/d41/classcom_1_1bank_1_1gui_1_1view_1_1panel_1_1_admin_account_details_panel.html" target="_top" xlink:title="Προβολή λεπτομερειών λογαριασμού για Admin.">
<polygon fill="white" stroke="#666666" points="227,-882 91.75,-882 91.75,-850 227,-850 227,-882"/>
<text xml:space="preserve" text-anchor="start" x="99.75" y="-868.5" font-family="Helvetica,sans-Serif" font-size="10.00">com.bank.gui.view.panel.</text>
<text xml:space="preserve" text-anchor="middle" x="159.38" y="-856.5" font-family="Helvetica,sans-Serif" font-size="10.00">AdminAccountDetailsPanel</text>
</a>
</g>
</g>
<!-- Node0&#45;&gt;Node2 -->
<g id="edge22_Node000000_Node000002" class="edge">
<title>Node0&#45;&gt;Node2</title>
<g id="a_edge22_Node000000_Node000002"><a xlink:title=" ">
<path fill="none" stroke="#63b8ff" d="M24.46,-487.54C26.4,-559.02 36.14,-786.99 82,-841 84.8,-844.3 88.04,-847.16 91.58,-849.65"/>
<polygon fill="#63b8ff" stroke="#63b8ff" points="27.97,-487.85 24.22,-477.94 20.97,-488.02 27.97,-487.85"/>
</a>
</g>
</g>
<!-- Node3 -->
<g id="Node000003" class="node">
<title>Node3</title>
<g id="a_Node000003"><a xlink:href="d3/d97/classcom_1_1bank_1_1gui_1_1view_1_1panel_1_1_admin_account_list_panel.html" target="_top" xlink:title="Πίνακας εμφάνισης όλων των λογαριασμών για χρήση από τον διαχειριστή.">
<polygon fill="white" stroke="#666666" points="222.5,-832 96.25,-832 96.25,-800 222.5,-800 222.5,-832"/>
<text xml:space="preserve" text-anchor="start" x="104.25" y="-818.5" font-family="Helvetica,sans-Serif" font-size="10.00">com.bank.gui.view.panel.</text>
<text xml:space="preserve" text-anchor="middle" x="159.38" y="-806.5" font-family="Helvetica,sans-Serif" font-size="10.00">AdminAccountListPanel</text>
</a>
</g>
</g>
<!-- Node0&#45;&gt;Node3 -->
<g id="edge23_Node000000_Node000003" class="edge">
<title>Node0&#45;&gt;Node3</title>
<g id="a_edge23_Node000000_Node000003"><a xlink:title=" ">
<path fill="none" stroke="#63b8ff" d="M25.03,-487.55C28.54,-552.58 42.17,-745.17 82,-791 85.94,-795.53 90.7,-799.24 95.91,-802.28"/>
<polygon fill="#63b8ff" stroke="#63b8ff" points="28.53,-487.65 24.53,-477.84 21.54,-488.01 28.53,-487.65"/>
</a>
</g>
</g>
<!-- Node4 -->
<g id="Node000004" class="node">
<title>Node4</title>
<g id="a_Node000004"><a xlink:href="d0/d7a/classcom_1_1bank_1_1gui_1_1view_1_1panel_1_1_admin_account_statements_panel.html" target="_top" xlink:title="Προβολή καταστάσεων λογαριασμού (statements) για χρήση από τον διαχειριστή.">
<polygon fill="white" stroke="#666666" points="236.75,-782 82,-782 82,-750 236.75,-750 236.75,-782"/>
<text xml:space="preserve" text-anchor="start" x="90" y="-768.5" font-family="Helvetica,sans-Serif" font-size="10.00">com.bank.gui.view.panel.</text>
<text xml:space="preserve" text-anchor="middle" x="159.38" y="-756.5" font-family="Helvetica,sans-Serif" font-size="10.00">AdminAccountStatementsPanel</text>
</a>
</g>
</g>
<!-- Node0&#45;&gt;Node4 -->
<g id="edge24_Node000000_Node000004" class="edge">
<title>Node0&#45;&gt;Node4</title>
<g id="a_edge24_Node000000_Node000004"><a xlink:title=" ">
<path fill="none" stroke="#63b8ff" d="M25.8,-487.57C31.04,-545.62 48.15,-703.26 82,-741 84.98,-744.32 88.41,-747.21 92.13,-749.71"/>
<polygon fill="#63b8ff" stroke="#63b8ff" points="29.29,-487.38 24.94,-477.72 22.32,-487.98 29.29,-487.38"/>
</a>
</g>
</g>
<!-- Node5 -->
<g id="Node000005" class="node">
<title>Node5</title>
<g id="a_Node000005"><a xlink:href="dd/df4/classcom_1_1bank_1_1gui_1_1view_1_1panel_1_1_admin_create_account_panel.html" target="_top" xlink:title="Παράθυρο δημιουργίας νέου λογαριασμού από τον διαχειριστή.">
<polygon fill="white" stroke="#666666" points="226.25,-732 92.5,-732 92.5,-700 226.25,-700 226.25,-732"/>
<text xml:space="preserve" text-anchor="start" x="100.5" y="-718.5" font-family="Helvetica,sans-Serif" font-size="10.00">com.bank.gui.view.panel.</text>
<text xml:space="preserve" text-anchor="middle" x="159.38" y="-706.5" font-family="Helvetica,sans-Serif" font-size="10.00">AdminCreateAccountPanel</text>
</a>
</g>
</g>
<!-- Node0&#45;&gt;Node5 -->
<g id="edge25_Node000000_Node000005" class="edge">
<title>Node0&#45;&gt;Node5</title>
<g id="a_edge25_Node000000_Node000005"><a xlink:title=" ">
<path fill="none" stroke="#63b8ff" d="M23.16,-487.38C22.62,-531.46 27.75,-633.16 82,-691 85.05,-694.26 88.54,-697.09 92.3,-699.55"/>
<polygon fill="#63b8ff" stroke="#63b8ff" points="26.65,-487.71 23.4,-477.62 19.65,-487.53 26.65,-487.71"/>
</a>
</g>
</g>
<!-- Node6 -->
<g id="Node000006" class="node">
<title>Node6</title>
<g id="a_Node000006"><a xlink:href="d2/d09/classcom_1_1bank_1_1gui_1_1view_1_1panel_1_1_admin_create_customer_panel.html" target="_top" xlink:title="Δημιουργία νέου χρήστη από διαχειριστή (Individual / Company / Admin).">
<polygon fill="white" stroke="#666666" points="229.62,-682 89.12,-682 89.12,-650 229.62,-650 229.62,-682"/>
<text xml:space="preserve" text-anchor="start" x="97.12" y="-668.5" font-family="Helvetica,sans-Serif" font-size="10.00">com.bank.gui.view.panel.</text>
<text xml:space="preserve" text-anchor="middle" x="159.38" y="-656.5" font-family="Helvetica,sans-Serif" font-size="10.00">AdminCreateCustomerPanel</text>
</a>
</g>
</g>
<!-- Node0&#45;&gt;Node6 -->
<g id="edge26_Node000000_Node000006" class="edge">
<title>Node0&#45;&gt;Node6</title>
<g id="a_edge26_Node000000_Node000006"><a xlink:title=" ">
<path fill="none" stroke="#63b8ff" d="M25.09,-487.58C28.09,-524.18 39.41,-598.56 82,-641 85.26,-644.25 88.95,-647.08 92.9,-649.54"/>
<polygon fill="#63b8ff" stroke="#63b8ff" points="28.59,-487.58 24.43,-477.84 21.61,-488.05 28.59,-487.58"/>
</a>
</g>
</g>
<!-- Node7 -->
<g id="Node000007" class="node">
<title>Node7</title>
<g id="a_Node000007"><a xlink:href="d0/dbd/classcom_1_1bank_1_1gui_1_1view_1_1panel_1_1_admin_customer_details_panel.html" target="_top" xlink:title="Εμφανίζει στοιχεία πελάτη (Customer) και τους συνδεδεμένους λογαριασμούς.">
<polygon fill="white" stroke="#666666" points="230.38,-632 88.38,-632 88.38,-600 230.38,-600 230.38,-632"/>
<text xml:space="preserve" text-anchor="start" x="96.38" y="-618.5" font-family="Helvetica,sans-Serif" font-size="10.00">com.bank.gui.view.panel.</text>
<text xml:space="preserve" text-anchor="middle" x="159.38" y="-606.5" font-family="Helvetica,sans-Serif" font-size="10.00">AdminCustomerDetailsPanel</text>
</a>
</g>
</g>
<!-- Node0&#45;&gt;Node7 -->
<g id="edge27_Node000000_Node000007" class="edge">
<title>Node0&#45;&gt;Node7</title>
<g id="a_edge27_Node000000_Node000007"><a xlink:title=" ">
<path fill="none" stroke="#63b8ff" d="M28.43,-487.6C35.21,-515.37 50.82,-563.31 82,-591 85.65,-594.24 89.73,-597.07 94.05,-599.52"/>
<polygon fill="#63b8ff" stroke="#63b8ff" points="31.85,-486.87 26.24,-477.88 25.02,-488.41 31.85,-486.87"/>
</a>
</g>
</g>
<!-- Node8 -->
<g id="Node000008" class="node">
<title>Node8</title>
<g id="a_Node000008"><a xlink:href="dc/deb/classcom_1_1bank_1_1gui_1_1view_1_1panel_1_1_admin_customer_list_panel.html" target="_top" xlink:title="Εμφανίζει λίστα όλων των εγγεγραμμένων πελατών (Individuals και Companies).">
<polygon fill="white" stroke="#666666" points="222.88,-582 95.88,-582 95.88,-550 222.88,-550 222.88,-582"/>
<text xml:space="preserve" text-anchor="start" x="103.88" y="-568.5" font-family="Helvetica,sans-Serif" font-size="10.00">com.bank.gui.view.panel.</text>
<text xml:space="preserve" text-anchor="middle" x="159.38" y="-556.5" font-family="Helvetica,sans-Serif" font-size="10.00">AdminCustomerListPanel</text>
</a>
</g>
</g>
<!-- Node0&#45;&gt;Node8 -->
<g id="edge28_Node000000_Node000008" class="edge">
<title>Node0&#45;&gt;Node8</title>
<g id="a_edge28_Node000000_Node000008"><a xlink:title=" ">
<path fill="none" stroke="#63b8ff" d="M35.03,-486.29C45.17,-503.17 61.7,-526.68 82,-541 86.56,-544.22 91.56,-547.04 96.75,-549.51"/>
<polygon fill="#63b8ff" stroke="#63b8ff" points="38.07,-484.56 30.06,-477.63 32,-488.05 38.07,-484.56"/>
</a>
</g>
</g>
<!-- Node9 -->
<g id="Node000009" class="node">
<title>Node9</title>
<g id="a_Node000009"><a xlink:href="dd/d30/classcom_1_1bank_1_1gui_1_1view_1_1panel_1_1_admin_pay_bill_panel.html" target="_top" xlink:title="Επιτρέπει σε διαχειριστή να πληρώσει λογαριασμό (Bill) εκ μέρους πελάτη.">
<polygon fill="white" stroke="#666666" points="222.5,-532 96.25,-532 96.25,-500 222.5,-500 222.5,-532"/>
<text xml:space="preserve" text-anchor="start" x="104.25" y="-518.5" font-family="Helvetica,sans-Serif" font-size="10.00">com.bank.gui.view.panel.</text>
<text xml:space="preserve" text-anchor="middle" x="159.38" y="-506.5" font-family="Helvetica,sans-Serif" font-size="10.00">AdminPayBillPanel</text>
</a>
</g>
</g>
<!-- Node0&#45;&gt;Node9 -->
<g id="edge29_Node000000_Node000009" class="edge">
<title>Node0&#45;&gt;Node9</title>
<g id="a_edge29_Node000000_Node000009"><a xlink:title=" ">
<path fill="none" stroke="#63b8ff" d="M56.71,-480.71C64.91,-484.23 73.73,-487.87 82,-491 89.7,-493.91 97.91,-496.81 105.98,-499.55"/>
<polygon fill="#63b8ff" stroke="#63b8ff" points="58.35,-477.61 47.78,-476.82 55.55,-484.02 58.35,-477.61"/>
</a>
</g>
</g>
<!-- Node10 -->
<g id="Node000010" class="node">
<title>Node10</title>
<g id="a_Node000010"><a xlink:href="d3/d13/classcom_1_1bank_1_1gui_1_1view_1_1panel_1_1_admin_simulate_time_panel.html" target="_top" xlink:title="Προσομοίωση “ροής χρόνου” για το σύστημα (τόκοι/πάγια, standing orders).">
<polygon fill="white" stroke="#666666" points="223.62,-482 95.12,-482 95.12,-450 223.62,-450 223.62,-482"/>
<text xml:space="preserve" text-anchor="start" x="103.12" y="-468.5" font-family="Helvetica,sans-Serif" font-size="10.00">com.bank.gui.view.panel.</text>
<text xml:space="preserve" text-anchor="middle" x="159.38" y="-456.5" font-family="Helvetica,sans-Serif" font-size="10.00">AdminSimulateTimePanel</text>
</a>
</g>
</g>
<!-- Node0&#45;&gt;Node10 -->
<g id="edge30_Node000000_Node000010" class="edge">
<title>Node0&#45;&gt;Node10</title>
<g id="a_edge30_Node000000_Node000010"><a xlink:title=" ">
<path fill="none" stroke="#63b8ff" d="M57.91,-466C69.11,-466 81.95,-466 94.64,-466"/>
<polygon fill="#63b8ff" stroke="#63b8ff" points="58,-462.5 48,-466 58,-469.5 58,-462.5"/>
</a>
</g>
</g>
<!-- Node11 -->
<g id="Node000011" class="node">
<title>Node11</title>
<g id="a_Node000011"><a xlink:href="d1/d65/classcom_1_1bank_1_1gui_1_1view_1_1panel_1_1_admin_standing_orders_panel.html" target="_top" xlink:title="Προβολή όλων των ενεργών, ληγμένων ή αποτυχημένων standing orders.">
<polygon fill="white" stroke="#666666" points="227.38,-432 91.38,-432 91.38,-400 227.38,-400 227.38,-432"/>
<text xml:space="preserve" text-anchor="start" x="99.38" y="-418.5" font-family="Helvetica,sans-Serif" font-size="10.00">com.bank.gui.view.panel.</text>
<text xml:space="preserve" text-anchor="middle" x="159.38" y="-406.5" font-family="Helvetica,sans-Serif" font-size="10.00">AdminStandingOrdersPanel</text>
</a>
</g>
</g>
<!-- Node0&#45;&gt;Node11 -->
<g id="edge31_Node000000_Node000011" class="edge">
<title>Node0&#45;&gt;Node11</title>
<g id="a_edge31_Node000000_Node000011"><a xlink:title=" ">
<path fill="none" stroke="#63b8ff" d="M56.71,-451.29C64.91,-447.77 73.73,-444.13 82,-441 89.7,-438.09 97.91,-435.19 105.98,-432.45"/>
<polygon fill="#63b8ff" stroke="#63b8ff" points="55.55,-447.98 47.78,-455.18 58.35,-454.39 55.55,-447.98"/>
</a>
</g>
</g>
<!-- Node12 -->
<g id="Node000012" class="node">
<title>Node12</title>
<g id="a_Node000012"><a xlink:href="d1/d1f/classcom_1_1bank_1_1gui_1_1view_1_1panel_1_1_company_issue_bill_panel.html" target="_top" xlink:title="Έκδοση νέου λογαριασμού (Bill) από εταιρικό χρήστη.">
<polygon fill="white" stroke="#666666" points="222.5,-382 96.25,-382 96.25,-350 222.5,-350 222.5,-382"/>
<text xml:space="preserve" text-anchor="start" x="104.25" y="-368.5" font-family="Helvetica,sans-Serif" font-size="10.00">com.bank.gui.view.panel.</text>
<text xml:space="preserve" text-anchor="middle" x="159.38" y="-356.5" font-family="Helvetica,sans-Serif" font-size="10.00">CompanyIssueBillPanel</text>
</a>
</g>
</g>
<!-- Node0&#45;&gt;Node12 -->
<g id="edge32_Node000000_Node000012" class="edge">
<title>Node0&#45;&gt;Node12</title>
<g id="a_edge32_Node000000_Node000012"><a xlink:title=" ">
<path fill="none" stroke="#63b8ff" d="M35.03,-445.71C45.17,-428.83 61.7,-405.32 82,-391 86.56,-387.78 91.56,-384.96 96.75,-382.49"/>
<polygon fill="#63b8ff" stroke="#63b8ff" points="32,-443.95 30.06,-454.37 38.07,-447.44 32,-443.95"/>
</a>
</g>
</g>
<!-- Node13 -->
<g id="Node000013" class="node">
<title>Node13</title>
<g id="a_Node000013"><a xlink:href="d3/db4/classcom_1_1bank_1_1gui_1_1view_1_1panel_1_1_company_issued_bills_panel.html" target="_top" xlink:title="Προβολή όλων των λογαριασμών (bills) που έχει εκδώσει μία εταιρεία.">
<polygon fill="white" stroke="#666666" points="224.75,-332 94,-332 94,-300 224.75,-300 224.75,-332"/>
<text xml:space="preserve" text-anchor="start" x="102" y="-318.5" font-family="Helvetica,sans-Serif" font-size="10.00">com.bank.gui.view.panel.</text>
<text xml:space="preserve" text-anchor="middle" x="159.38" y="-306.5" font-family="Helvetica,sans-Serif" font-size="10.00">CompanyIssuedBillsPanel</text>
</a>
</g>
</g>
<!-- Node0&#45;&gt;Node13 -->
<g id="edge33_Node000000_Node000013" class="edge">
<title>Node0&#45;&gt;Node13</title>
<g id="a_edge33_Node000000_Node000013"><a xlink:title=" ">
<path fill="none" stroke="#63b8ff" d="M28.43,-444.4C35.21,-416.63 50.82,-368.69 82,-341 85.65,-337.76 89.73,-334.93 94.05,-332.48"/>
<polygon fill="#63b8ff" stroke="#63b8ff" points="25.02,-443.59 26.24,-454.12 31.85,-445.13 25.02,-443.59"/>
</a>
</g>
</g>
<!-- Node14 -->
<g id="Node000014" class="node">
<title>Node14</title>
<g id="a_Node000014"><a xlink:href="d0/d3c/classcom_1_1bank_1_1gui_1_1view_1_1panel_1_1_company_paid_bills_panel.html" target="_top" xlink:title="Προβολή όλων των εξοφλημένων λογαριασμών που έχει εκδώσει μια εταιρεία.">
<polygon fill="white" stroke="#666666" points="222.5,-282 96.25,-282 96.25,-250 222.5,-250 222.5,-282"/>
<text xml:space="preserve" text-anchor="start" x="104.25" y="-268.5" font-family="Helvetica,sans-Serif" font-size="10.00">com.bank.gui.view.panel.</text>
<text xml:space="preserve" text-anchor="middle" x="159.38" y="-256.5" font-family="Helvetica,sans-Serif" font-size="10.00">CompanyPaidBillsPanel</text>
</a>
</g>
</g>
<!-- Node0&#45;&gt;Node14 -->
<g id="edge34_Node000000_Node000014" class="edge">
<title>Node0&#45;&gt;Node14</title>
<g id="a_edge34_Node000000_Node000014"><a xlink:title=" ">
<path fill="none" stroke="#63b8ff" d="M25.09,-444.42C28.09,-407.82 39.41,-333.44 82,-291 86.05,-286.96 90.77,-283.58 95.82,-280.74"/>
<polygon fill="#63b8ff" stroke="#63b8ff" points="21.61,-443.95 24.43,-454.16 28.59,-444.42 21.61,-443.95"/>
</a>
</g>
</g>
<!-- Node15 -->
<g id="Node000015" class="node">
<title>Node15</title>
<g id="a_Node000015"><a xlink:href="d4/df3/classcom_1_1bank_1_1gui_1_1view_1_1panel_1_1_deposit_panel.html" target="_top" xlink:title="Panel για κατάθεση χρημάτων από τον χρήστη σε έναν από τους λογαριασμούς του.">
<polygon fill="white" stroke="#666666" points="222.5,-232 96.25,-232 96.25,-200 222.5,-200 222.5,-232"/>
<text xml:space="preserve" text-anchor="start" x="104.25" y="-218.5" font-family="Helvetica,sans-Serif" font-size="10.00">com.bank.gui.view.panel.</text>
<text xml:space="preserve" text-anchor="middle" x="159.38" y="-206.5" font-family="Helvetica,sans-Serif" font-size="10.00">DepositPanel</text>
</a>
</g>
</g>
<!-- Node0&#45;&gt;Node15 -->
<g id="edge35_Node000000_Node000015" class="edge">
<title>Node0&#45;&gt;Node15</title>
<g id="a_edge35_Node000000_Node000015"><a xlink:title=" ">
<path fill="none" stroke="#63b8ff" d="M23.16,-444.62C22.62,-400.54 27.75,-298.84 82,-241 86.01,-236.73 90.76,-233.18 95.9,-230.24"/>
<polygon fill="#63b8ff" stroke="#63b8ff" points="19.65,-444.47 23.4,-454.38 26.65,-444.29 19.65,-444.47"/>
</a>
</g>
</g>
<!-- Node16 -->
<g id="Node000016" class="node">
<title>Node16</title>
<g id="a_Node000016"><a xlink:href="dc/dd6/classcom_1_1bank_1_1gui_1_1view_1_1panel_1_1_pay_bill_panel.html" target="_top" xlink:title="Πληρωμή λογαριασμού (Bill) μέσω RF Code από επιλεγμένο λογαριασμό χρήστη.">
<polygon fill="white" stroke="#666666" points="222.5,-182 96.25,-182 96.25,-150 222.5,-150 222.5,-182"/>
<text xml:space="preserve" text-anchor="start" x="104.25" y="-168.5" font-family="Helvetica,sans-Serif" font-size="10.00">com.bank.gui.view.panel.</text>
<text xml:space="preserve" text-anchor="middle" x="159.38" y="-156.5" font-family="Helvetica,sans-Serif" font-size="10.00">PayBillPanel</text>
</a>
</g>
</g>
<!-- Node0&#45;&gt;Node16 -->
<g id="edge36_Node000000_Node000016" class="edge">
<title>Node0&#45;&gt;Node16</title>
<g id="a_edge36_Node000000_Node000016"><a xlink:title=" ">
<path fill="none" stroke="#63b8ff" d="M25.8,-444.43C31.04,-386.38 48.15,-228.74 82,-191 86.01,-186.53 90.82,-182.86 96.06,-179.85"/>
<polygon fill="#63b8ff" stroke="#63b8ff" points="22.32,-444.02 24.94,-454.28 29.29,-444.62 22.32,-444.02"/>
</a>
</g>
</g>
<!-- Node17 -->
<g id="Node000017" class="node">
<title>Node17</title>
<g id="a_Node000017"><a xlink:href="d1/d7d/classcom_1_1bank_1_1gui_1_1view_1_1panel_1_1_statement_panel.html" target="_top" xlink:title="Προβολή κινήσεων (statements) για έναν επιλεγμένο λογαριασμό του χρήστη.">
<polygon fill="white" stroke="#666666" points="222.5,-132 96.25,-132 96.25,-100 222.5,-100 222.5,-132"/>
<text xml:space="preserve" text-anchor="start" x="104.25" y="-118.5" font-family="Helvetica,sans-Serif" font-size="10.00">com.bank.gui.view.panel.</text>
<text xml:space="preserve" text-anchor="middle" x="159.38" y="-106.5" font-family="Helvetica,sans-Serif" font-size="10.00">StatementPanel</text>
</a>
</g>
</g>
<!-- Node0&#45;&gt;Node17 -->
<g id="edge37_Node000000_Node000017" class="edge">
<title>Node0&#45;&gt;Node17</title>
<g id="a_edge37_Node000000_Node000017"><a xlink:title=" ">
<path fill="none" stroke="#63b8ff" d="M25.03,-444.45C28.54,-379.42 42.17,-186.83 82,-141 85.94,-136.47 90.7,-132.76 95.91,-129.72"/>
<polygon fill="#63b8ff" stroke="#63b8ff" points="21.54,-443.99 24.53,-454.16 28.53,-444.35 21.54,-443.99"/>
</a>
</g>
</g>
<!-- Node18 -->
<g id="Node000018" class="node">
<title>Node18</title>
<g id="a_Node000018"><a xlink:href="dc/d10/classcom_1_1bank_1_1gui_1_1view_1_1panel_1_1_transfer_panel.html" target="_top" xlink:title="Μεταφορά χρημάτων από λογαριασμό του χρήστη προς άλλον λογαριασμό (IBAN).">
<polygon fill="white" stroke="#666666" points="222.5,-82 96.25,-82 96.25,-50 222.5,-50 222.5,-82"/>
<text xml:space="preserve" text-anchor="start" x="104.25" y="-68.5" font-family="Helvetica,sans-Serif" font-size="10.00">com.bank.gui.view.panel.</text>
<text xml:space="preserve" text-anchor="middle" x="159.38" y="-56.5" font-family="Helvetica,sans-Serif" font-size="10.00">TransferPanel</text>
</a>
</g>
</g>
<!-- Node0&#45;&gt;Node18 -->
<g id="edge38_Node000000_Node000018" class="edge">
<title>Node0&#45;&gt;Node18</title>
<g id="a_edge38_Node000000_Node000018"><a xlink:title=" ">
<path fill="none" stroke="#63b8ff" d="M24.46,-444.46C26.4,-372.98 36.14,-145.01 82,-91 85.88,-86.43 90.62,-82.68 95.8,-79.62"/>
<polygon fill="#63b8ff" stroke="#63b8ff" points="20.97,-443.98 24.22,-454.06 27.97,-444.15 20.97,-443.98"/>
</a>
</g>
</g>
<!-- Node19 -->
<g id="Node000019" class="node">
<title>Node19</title>
<g id="a_Node000019"><a xlink:href="d3/da8/classcom_1_1bank_1_1gui_1_1view_1_1panel_1_1_withdraw_panel.html" target="_top" xlink:title="Ανάληψη χρημάτων από λογαριασμό του χρήστη.">
<polygon fill="white" stroke="#666666" points="222.5,-32 96.25,-32 96.25,0 222.5,0 222.5,-32"/>
<text xml:space="preserve" text-anchor="start" x="104.25" y="-18.5" font-family="Helvetica,sans-Serif" font-size="10.00">com.bank.gui.view.panel.</text>
<text xml:space="preserve" text-anchor="middle" x="159.38" y="-6.5" font-family="Helvetica,sans-Serif" font-size="10.00">WithdrawPanel</text>
</a>
</g>
</g>
<!-- Node0&#45;&gt;Node19 -->
<g id="edge39_Node000000_Node000019" class="edge">
<title>Node0&#45;&gt;Node19</title>
<g id="a_edge39_Node000000_Node000019"><a xlink:title=" ">
<path fill="none" stroke="#63b8ff" d="M24.02,-444.67C24.51,-367.39 30.05,-103.3 82,-41 85.93,-36.29 90.77,-32.45 96.08,-29.34"/>
<polygon fill="#63b8ff" stroke="#63b8ff" points="20.52,-444.25 23.98,-454.26 27.52,-444.27 20.52,-444.25"/>
</a>
</g>
</g>
</g>
</svg>
