<?xml version="1.0" encoding="UTF-8" standalone="no"?>
<!DOCTYPE svg PUBLIC "-//W3C//DTD SVG 1.1//EN"
 "http://www.w3.org/Graphics/SVG/1.1/DTD/svg11.dtd">
<!-- Generated by graphviz version 14.0.1 (20251006.0113)
 -->
<!-- Title: com.bank.gui.view.panel.AdminCustomerDetailsPanel.AdminCustomerDetailsPanel Pages: 1 -->
<svg width="408pt" height="266pt"
 viewBox="0.00 0.00 408.00 266.00" xmlns="http://www.w3.org/2000/svg" xmlns:xlink="http://www.w3.org/1999/xlink">
<g id="graph0" class="graph" transform="scale(1 1) rotate(0) translate(4 262)">
<title>com.bank.gui.view.panel.AdminCustomerDetailsPanel.AdminCustomerDetailsPanel</title>
<!-- Node1 -->
<g id="Node000001" class="node">
<title>Node1</title>
<g id="a_Node000001"><a xlink:title="Δημιουργεί το panel εμφάνισης στοιχείων πελάτη για τον Admin.">
<polygon fill="#999999" stroke="#666666" points="172.75,-142 0,-142 0,-98 172.75,-98 172.75,-142"/>
<text xml:space="preserve" text-anchor="start" x="8" y="-128.5" font-family="Helvetica,sans-Serif" font-size="10.00">com.bank.gui.view.panel.</text>
<text xml:space="preserve" text-anchor="start" x="8" y="-116.5" font-family="Helvetica,sans-Serif" font-size="10.00">AdminCustomerDetailsPanel.Admin</text>
<text xml:space="preserve" text-anchor="middle" x="86.38" y="-104.5" font-family="Helvetica,sans-Serif" font-size="10.00">CustomerDetailsPanel</text>
</a>
</g>
</g>
<!-- Node2 -->
<g id="Node000002" class="node">
<title>Node2</title>
<g id="a_Node000002"><a xlink:href="../../db/d15/classcom_1_1bank_1_1manager_1_1_user_manager.html#afbdaa6e3428ae4884bb804b28b9c5535" target="_top" xlink:title="Finds a customer by VAT number.">
<polygon fill="white" stroke="#666666" points="394.25,-258 214.75,-258 214.75,-226 394.25,-226 394.25,-258"/>
<text xml:space="preserve" text-anchor="start" x="222.75" y="-244.5" font-family="Helvetica,sans-Serif" font-size="10.00">com.bank.manager.UserManager.find</text>
<text xml:space="preserve" text-anchor="middle" x="304.5" y="-232.5" font-family="Helvetica,sans-Serif" font-size="10.00">ByVat</text>
</a>
</g>
</g>
<!-- Node1&#45;&gt;Node2 -->
<g id="edge1_Node000001_Node000002" class="edge">
<title>Node1&#45;&gt;Node2</title>
<g id="a_edge1_Node000001_Node000002"><a xlink:title=" ">
<path fill="none" stroke="#63b8ff" d="M109.09,-142.1C131.95,-164.15 169.95,-197.48 208.75,-217 211.84,-218.56 215.04,-220.02 218.31,-221.4"/>
<polygon fill="#63b8ff" stroke="#63b8ff" points="216.95,-224.63 227.53,-224.98 219.48,-218.1 216.95,-224.63"/>
</a>
</g>
</g>
<!-- Node3 -->
<g id="Node000003" class="node">
<title>Node3</title>
<g id="a_Node000003"><a xlink:href="../../dd/db1/classcom_1_1bank_1_1manager_1_1_account_manager.html#a9cfb69758fe6d4532cba2d754cca7af2" target="_top" xlink:title="Returns all loaded accounts.">
<polygon fill="white" stroke="#666666" points="373.62,-208 235.38,-208 235.38,-176 373.62,-176 373.62,-208"/>
<text xml:space="preserve" text-anchor="start" x="243.38" y="-194.5" font-family="Helvetica,sans-Serif" font-size="10.00">com.bank.manager.Account</text>
<text xml:space="preserve" text-anchor="middle" x="304.5" y="-182.5" font-family="Helvetica,sans-Serif" font-size="10.00">Manager.getAllAccounts</text>
</a>
</g>
</g>
<!-- Node1&#45;&gt;Node3 -->
<g id="edge2_Node000001_Node000003" class="edge">
<title>Node1&#45;&gt;Node3</title>
<g id="a_edge2_Node000001_Node000003"><a xlink:title=" ">
<path fill="none" stroke="#63b8ff" d="M141.59,-142.48C162.41,-150.72 186.5,-159.78 208.75,-167 214.46,-168.85 220.41,-170.67 226.4,-172.43"/>
<polygon fill="#63b8ff" stroke="#63b8ff" points="225.18,-175.72 235.76,-175.1 227.11,-168.99 225.18,-175.72"/>
</a>
</g>
</g>
<!-- Node4 -->
<g id="Node000004" class="node">
<title>Node4</title>
<g id="a_Node000004"><a xlink:href="../../dd/dee/classcom_1_1bank_1_1model_1_1users_1_1_user.html#a5391325a7c7123854a0ea11946fe7a85" target="_top" xlink:title=" ">
<polygon fill="white" stroke="#666666" points="382.25,-158 226.75,-158 226.75,-126 382.25,-126 382.25,-158"/>
<text xml:space="preserve" text-anchor="start" x="234.75" y="-144.5" font-family="Helvetica,sans-Serif" font-size="10.00">com.bank.model.users.User.get</text>
<text xml:space="preserve" text-anchor="middle" x="304.5" y="-132.5" font-family="Helvetica,sans-Serif" font-size="10.00">FullName</text>
</a>
</g>
</g>
<!-- Node1&#45;&gt;Node4 -->
<g id="edge3_Node000001_Node000004" class="edge">
<title>Node1&#45;&gt;Node4</title>
<g id="a_edge3_Node000001_Node000004"><a xlink:title=" ">
<path fill="none" stroke="#63b8ff" d="M173.1,-128.73C186.96,-130.14 201.33,-131.6 215.24,-133.02"/>
<polygon fill="#63b8ff" stroke="#63b8ff" points="214.48,-136.46 224.78,-133.99 215.19,-129.49 214.48,-136.46"/>
</a>
</g>
</g>
<!-- Node5 -->
<g id="Node000005" class="node">
<title>Node5</title>
<g id="a_Node000005"><a xlink:href="../../dd/dee/classcom_1_1bank_1_1model_1_1users_1_1_user.html#ae782efebfa028fc60f91c67e4ffd6167" target="_top" xlink:title="Returns the user’s role type.">
<polygon fill="white" stroke="#666666" points="392.38,-108 216.62,-108 216.62,-88 392.38,-88 392.38,-108"/>
<text xml:space="preserve" text-anchor="middle" x="304.5" y="-94.5" font-family="Helvetica,sans-Serif" font-size="10.00">com.bank.model.users.User.getRole</text>
</a>
</g>
</g>
<!-- Node1&#45;&gt;Node5 -->
<g id="edge4_Node000001_Node000005" class="edge">
<title>Node1&#45;&gt;Node5</title>
<g id="a_edge4_Node000001_Node000005"><a xlink:title=" ">
<path fill="none" stroke="#63b8ff" d="M173.1,-111.27C183.69,-110.2 194.57,-109.09 205.32,-107.99"/>
<polygon fill="#63b8ff" stroke="#63b8ff" points="205.36,-111.51 214.95,-107.01 204.65,-104.54 205.36,-111.51"/>
</a>
</g>
</g>
<!-- Node6 -->
<g id="Node000006" class="node">
<title>Node6</title>
<g id="a_Node000006"><a xlink:href="../../dd/dee/classcom_1_1bank_1_1model_1_1users_1_1_user.html#a4347326cfb6910b50c691e19ec805c1c" target="_top" xlink:title=" ">
<polygon fill="white" stroke="#666666" points="382.25,-70 226.75,-70 226.75,-38 382.25,-38 382.25,-70"/>
<text xml:space="preserve" text-anchor="start" x="234.75" y="-56.5" font-family="Helvetica,sans-Serif" font-size="10.00">com.bank.model.users.User.get</text>
<text xml:space="preserve" text-anchor="middle" x="304.5" y="-44.5" font-family="Helvetica,sans-Serif" font-size="10.00">Username</text>
</a>
</g>
</g>
<!-- Node1&#45;&gt;Node6 -->
<g id="edge5_Node000001_Node000006" class="edge">
<title>Node1&#45;&gt;Node6</title>
<g id="a_edge5_Node000001_Node000006"><a xlink:title=" ">
<path fill="none" stroke="#63b8ff" d="M151.05,-97.59C169.58,-91.31 189.9,-84.66 208.75,-79 214.91,-77.15 221.31,-75.3 227.76,-73.49"/>
<polygon fill="#63b8ff" stroke="#63b8ff" points="228.44,-76.94 237.15,-70.9 226.58,-70.19 228.44,-76.94"/>
</a>
</g>
</g>
<!-- Node7 -->
<g id="Node000007" class="node">
<title>Node7</title>
<g id="a_Node000007"><a xlink:href="../../dd/d5f/classcom_1_1bank_1_1model_1_1users_1_1_customer.html#a5bf723beb2c45823230bf1db33e927ef" target="_top" xlink:title="Returns the VAT (ΑΦΜ) of the customer.">
<polygon fill="white" stroke="#666666" points="400.25,-20 208.75,-20 208.75,0 400.25,0 400.25,-20"/>
<text xml:space="preserve" text-anchor="middle" x="304.5" y="-6.5" font-family="Helvetica,sans-Serif" font-size="10.00">com.bank.model.users.Customer.getVat</text>
</a>
</g>
</g>
<!-- Node1&#45;&gt;Node7 -->
<g id="edge6_Node000001_Node000007" class="edge">
<title>Node1&#45;&gt;Node7</title>
<g id="a_edge6_Node000001_Node000007"><a xlink:title=" ">
<path fill="none" stroke="#63b8ff" d="M110.42,-97.67C133.43,-76.67 170.76,-45.99 208.75,-29 213.06,-27.07 217.56,-25.34 222.17,-23.78"/>
<polygon fill="#63b8ff" stroke="#63b8ff" points="223.07,-27.17 231.61,-20.9 221.02,-20.47 223.07,-27.17"/>
</a>
</g>
</g>
</g>
</svg>
