<?xml version="1.0" encoding="UTF-8" standalone="no"?>
<!DOCTYPE svg PUBLIC "-//W3C//DTD SVG 1.1//EN"
 "http://www.w3.org/Graphics/SVG/1.1/DTD/svg11.dtd">
<!-- Generated by graphviz version 14.0.1 (20251006.0113)
 -->
<!-- Title: model/transactions/Deposit.java Pages: 1 -->
<svg width="625pt" height="108pt"
 viewBox="0.00 0.00 625.00 108.00" xmlns="http://www.w3.org/2000/svg" xmlns:xlink="http://www.w3.org/1999/xlink">
<g id="graph0" class="graph" transform="scale(1 1) rotate(0) translate(4 104)">
<title>model/transactions/Deposit.java</title>
<!-- Node1 -->
<g id="Node000001" class="node">
<title>Node1</title>
<g id="a_Node000001"><a xlink:title=" ">
<polygon fill="#999999" stroke="#666666" points="358.75,-100 260.25,-100 260.25,-68 358.75,-68 358.75,-100"/>
<text xml:space="preserve" text-anchor="start" x="268.25" y="-86.5" font-family="Helvetica,sans-Serif" font-size="10.00">model/transactions</text>
<text xml:space="preserve" text-anchor="middle" x="309.5" y="-74.5" font-family="Helvetica,sans-Serif" font-size="10.00">/Deposit.java</text>
</a>
</g>
</g>
<!-- Node2 -->
<g id="Node000002" class="node">
<title>Node2</title>
<g id="a_Node000002"><a xlink:title=" ">
<polygon fill="#e0e0e0" stroke="#999999" points="139,-26 0,-26 0,-6 139,-6 139,-26"/>
<text xml:space="preserve" text-anchor="middle" x="69.5" y="-12.5" font-family="Helvetica,sans-Serif" font-size="10.00">com.bank.model.users.User</text>
</a>
</g>
</g>
<!-- Node1&#45;&gt;Node2 -->
<g id="edge1_Node000001_Node000002" class="edge">
<title>Node1&#45;&gt;Node2</title>
<g id="a_edge1_Node000001_Node000002"><a xlink:title=" ">
<path fill="none" stroke="#63b8ff" d="M259.77,-69.32C217.01,-57.57 155.87,-40.75 114.53,-29.38"/>
<polygon fill="#63b8ff" stroke="#63b8ff" points="115.72,-26.08 105.15,-26.8 113.86,-32.83 115.72,-26.08"/>
</a>
</g>
</g>
<!-- Node3 -->
<g id="Node000003" class="node">
<title>Node3</title>
<g id="a_Node000003"><a xlink:title=" ">
<polygon fill="#e0e0e0" stroke="#999999" points="304.12,-32 156.88,-32 156.88,0 304.12,0 304.12,-32"/>
<text xml:space="preserve" text-anchor="start" x="164.88" y="-18.5" font-family="Helvetica,sans-Serif" font-size="10.00">com.bank.manager.Statement</text>
<text xml:space="preserve" text-anchor="middle" x="230.5" y="-6.5" font-family="Helvetica,sans-Serif" font-size="10.00">Manager</text>
</a>
</g>
</g>
<!-- Node1&#45;&gt;Node3 -->
<g id="edge2_Node000001_Node000003" class="edge">
<title>Node1&#45;&gt;Node3</title>
<g id="a_edge2_Node000001_Node000003"><a xlink:title=" ">
<path fill="none" stroke="#63b8ff" d="M291.18,-67.69C281.18,-59.34 268.61,-48.84 257.51,-39.56"/>
<polygon fill="#63b8ff" stroke="#63b8ff" points="260.08,-37.15 250.16,-33.42 255.59,-42.52 260.08,-37.15"/>
</a>
</g>
</g>
<!-- Node4 -->
<g id="Node000004" class="node">
<title>Node4</title>
<g id="a_Node000004"><a xlink:title=" ">
<polygon fill="#e0e0e0" stroke="#999999" points="456.38,-32 322.62,-32 322.62,0 456.38,0 456.38,-32"/>
<text xml:space="preserve" text-anchor="start" x="330.62" y="-18.5" font-family="Helvetica,sans-Serif" font-size="10.00">com.bank.model.accounts.</text>
<text xml:space="preserve" text-anchor="middle" x="389.5" y="-6.5" font-family="Helvetica,sans-Serif" font-size="10.00">Account</text>
</a>
</g>
</g>
<!-- Node1&#45;&gt;Node4 -->
<g id="edge3_Node000001_Node000004" class="edge">
<title>Node1&#45;&gt;Node4</title>
<g id="a_edge3_Node000001_Node000004"><a xlink:title=" ">
<path fill="none" stroke="#63b8ff" d="M328.05,-67.69C338.18,-59.34 350.91,-48.84 362.15,-39.56"/>
<polygon fill="#63b8ff" stroke="#63b8ff" points="364.11,-42.48 369.6,-33.42 359.66,-37.08 364.11,-42.48"/>
</a>
</g>
</g>
<!-- Node5 -->
<g id="Node000005" class="node">
<title>Node5</title>
<g id="a_Node000005"><a xlink:title=" ">
<polygon fill="#e0e0e0" stroke="#999999" points="616.88,-32 474.12,-32 474.12,0 616.88,0 616.88,-32"/>
<text xml:space="preserve" text-anchor="start" x="482.12" y="-18.5" font-family="Helvetica,sans-Serif" font-size="10.00">com.bank.model.statements.</text>
<text xml:space="preserve" text-anchor="middle" x="545.5" y="-6.5" font-family="Helvetica,sans-Serif" font-size="10.00">StatementEntry</text>
</a>
</g>
</g>
<!-- Node1&#45;&gt;Node5 -->
<g id="edge4_Node000001_Node000005" class="edge">
<title>Node1&#45;&gt;Node5</title>
<g id="a_edge4_Node000001_Node000005"><a xlink:title=" ">
<path fill="none" stroke="#63b8ff" d="M358.97,-69.16C393.91,-59.39 441.11,-46.19 479.29,-35.52"/>
<polygon fill="#63b8ff" stroke="#63b8ff" points="480.17,-38.91 488.86,-32.84 478.28,-32.16 480.17,-38.91"/>
</a>
</g>
</g>
</g>
</svg>
