<?xml version="1.0" encoding="UTF-8" standalone="no"?>
<!DOCTYPE svg PUBLIC "-//W3C//DTD SVG 1.1//EN"
 "http://www.w3.org/Graphics/SVG/1.1/DTD/svg11.dtd">
<!-- Generated by graphviz version 14.0.1 (20251006.0113)
 -->
<!-- Title: com.bank.model.accounts.BusinessAccount Pages: 1 -->
<svg width="134pt" height="628pt"
 viewBox="0.00 0.00 134.00 628.00" xmlns="http://www.w3.org/2000/svg" xmlns:xlink="http://www.w3.org/1999/xlink">
<g id="graph0" class="graph" transform="scale(1 1) rotate(0) translate(4 624)">
<title>com.bank.model.accounts.BusinessAccount</title>
<!-- Node1 -->
<g id="Node000001" class="node">
<title>Node1</title>
<g id="a_Node000001"><a xlink:title="Represents a business (company) bank account with an additional monthly maintenance fee.">
<polygon fill="#999999" stroke="none" points="125.75,-128 0,-128 0,0 125.75,0 125.75,-128"/>
<text xml:space="preserve" text-anchor="start" x="4" y="-114.5" font-family="Helvetica,sans-Serif" font-size="10.00">com.bank.model.accounts.</text>
<text xml:space="preserve" text-anchor="start" x="24.62" y="-102.5" font-family="Helvetica,sans-Serif" font-size="10.00">BusinessAccount</text>
<text xml:space="preserve" text-anchor="start" x="61.38" y="-86.5" font-family="Helvetica,sans-Serif" font-size="10.00"> </text>
<text xml:space="preserve" text-anchor="start" x="6" y="-70.5" font-family="Helvetica,sans-Serif" font-size="10.00">+</text>
<text xml:space="preserve" text-anchor="start" x="18" y="-70.5" font-family="Helvetica,sans-Serif" font-size="10.00">BusinessAccount()</text>
<text xml:space="preserve" text-anchor="start" x="6" y="-54.5" font-family="Helvetica,sans-Serif" font-size="10.00">+</text>
<text xml:space="preserve" text-anchor="start" x="18" y="-54.5" font-family="Helvetica,sans-Serif" font-size="10.00">getMonthlyFee()</text>
<text xml:space="preserve" text-anchor="start" x="6" y="-38.5" font-family="Helvetica,sans-Serif" font-size="10.00">+</text>
<text xml:space="preserve" text-anchor="start" x="18" y="-38.5" font-family="Helvetica,sans-Serif" font-size="10.00">getAccountTypeCode()</text>
<text xml:space="preserve" text-anchor="start" x="6" y="-22.5" font-family="Helvetica,sans-Serif" font-size="10.00">+</text>
<text xml:space="preserve" text-anchor="start" x="18" y="-22.5" font-family="Helvetica,sans-Serif" font-size="10.00">marshal()</text>
<text xml:space="preserve" text-anchor="start" x="6" y="-6.5" font-family="Helvetica,sans-Serif" font-size="10.00">+</text>
<text xml:space="preserve" text-anchor="start" x="18" y="-6.5" font-family="Helvetica,sans-Serif" font-size="10.00">unmarshal()</text>
<polygon fill="#666666" stroke="#666666" points="0,-98 0,-98 125.75,-98 125.75,-98 0,-98"/>
<polygon fill="#666666" stroke="#666666" points="0,-82 0,-82 125.75,-82 125.75,-82 0,-82"/>
<polygon fill="none" stroke="#666666" points="0,0 0,-128 125.75,-128 125.75,0 0,0"/>
</a>
</g>
</g>
<!-- Node2 -->
<g id="Node000002" class="node">
<title>Node2</title>
<g id="a_Node000002"><a xlink:href="../../da/d83/classcom_1_1bank_1_1model_1_1accounts_1_1_account.html" target="_top" xlink:title="Abstract base class for bank accounts.">
<polygon fill="white" stroke="none" points="125.75,-516 0,-516 0,-164 125.75,-164 125.75,-516"/>
<text xml:space="preserve" text-anchor="start" x="4" y="-502.5" font-family="Helvetica,sans-Serif" font-size="10.00">com.bank.model.accounts.</text>
<text xml:space="preserve" text-anchor="start" x="44.88" y="-490.5" font-family="Helvetica,sans-Serif" font-size="10.00">Account</text>
<text xml:space="preserve" text-anchor="start" x="6.38" y="-474.5" font-family="Helvetica,sans-Serif" font-size="10.00">#</text>
<text xml:space="preserve" text-anchor="start" x="18" y="-474.5" font-family="Helvetica,sans-Serif" font-size="10.00">iban</text>
<text xml:space="preserve" text-anchor="start" x="6.38" y="-458.5" font-family="Helvetica,sans-Serif" font-size="10.00">#</text>
<text xml:space="preserve" text-anchor="start" x="18" y="-458.5" font-family="Helvetica,sans-Serif" font-size="10.00">owner</text>
<text xml:space="preserve" text-anchor="start" x="6.38" y="-442.5" font-family="Helvetica,sans-Serif" font-size="10.00">#</text>
<text xml:space="preserve" text-anchor="start" x="18" y="-442.5" font-family="Helvetica,sans-Serif" font-size="10.00">balance</text>
<text xml:space="preserve" text-anchor="start" x="6.38" y="-426.5" font-family="Helvetica,sans-Serif" font-size="10.00">#</text>
<text xml:space="preserve" text-anchor="start" x="18" y="-426.5" font-family="Helvetica,sans-Serif" font-size="10.00">interestRate</text>
<text xml:space="preserve" text-anchor="start" x="6.38" y="-410.5" font-family="Helvetica,sans-Serif" font-size="10.00">#</text>
<text xml:space="preserve" text-anchor="start" x="18" y="-410.5" font-family="Helvetica,sans-Serif" font-size="10.00">dateCreated</text>
<text xml:space="preserve" text-anchor="start" x="6" y="-394.5" font-family="Helvetica,sans-Serif" font-size="10.00">+</text>
<text xml:space="preserve" text-anchor="start" x="18" y="-394.5" font-family="Helvetica,sans-Serif" font-size="10.00">Account()</text>
<text xml:space="preserve" text-anchor="start" x="6" y="-378.5" font-family="Helvetica,sans-Serif" font-size="10.00">+</text>
<text xml:space="preserve" text-anchor="start" x="18" y="-378.5" font-family="Helvetica,sans-Serif" font-size="10.00">getIban()</text>
<text xml:space="preserve" text-anchor="start" x="6" y="-362.5" font-family="Helvetica,sans-Serif" font-size="10.00">+</text>
<text xml:space="preserve" text-anchor="start" x="18" y="-362.5" font-family="Helvetica,sans-Serif" font-size="10.00">setIban()</text>
<text xml:space="preserve" text-anchor="start" x="6" y="-346.5" font-family="Helvetica,sans-Serif" font-size="10.00">+</text>
<text xml:space="preserve" text-anchor="start" x="18" y="-346.5" font-family="Helvetica,sans-Serif" font-size="10.00">getOwner()</text>
<text xml:space="preserve" text-anchor="start" x="6" y="-330.5" font-family="Helvetica,sans-Serif" font-size="10.00">+</text>
<text xml:space="preserve" text-anchor="start" x="18" y="-330.5" font-family="Helvetica,sans-Serif" font-size="10.00">getBalance()</text>
<text xml:space="preserve" text-anchor="start" x="6" y="-314.5" font-family="Helvetica,sans-Serif" font-size="10.00">+</text>
<text xml:space="preserve" text-anchor="start" x="18" y="-314.5" font-family="Helvetica,sans-Serif" font-size="10.00">getInterestRate()</text>
<text xml:space="preserve" text-anchor="start" x="6" y="-298.5" font-family="Helvetica,sans-Serif" font-size="10.00">+</text>
<text xml:space="preserve" text-anchor="start" x="18" y="-298.5" font-family="Helvetica,sans-Serif" font-size="10.00">deposit()</text>
<text xml:space="preserve" text-anchor="start" x="6" y="-282.5" font-family="Helvetica,sans-Serif" font-size="10.00">+</text>
<text xml:space="preserve" text-anchor="start" x="18" y="-282.5" font-family="Helvetica,sans-Serif" font-size="10.00">withdraw()</text>
<text xml:space="preserve" text-anchor="start" x="6" y="-266.5" font-family="Helvetica,sans-Serif" font-size="10.00">+</text>
<text xml:space="preserve" text-anchor="start" x="18" y="-266.5" font-family="Helvetica,sans-Serif" font-size="10.00">setBalance()</text>
<text xml:space="preserve" text-anchor="start" x="6" y="-250.5" font-family="Helvetica,sans-Serif" font-size="10.00">+</text>
<text xml:space="preserve" text-anchor="start" x="18" y="-250.5" font-family="Helvetica,sans-Serif" font-size="10.00">getDateCreated()</text>
<text xml:space="preserve" text-anchor="start" x="6" y="-234.5" font-family="Helvetica,sans-Serif" font-size="10.00">+</text>
<text xml:space="preserve" text-anchor="start" x="18" y="-234.5" font-family="Helvetica,sans-Serif" font-size="10.00">setDateCreated()</text>
<text xml:space="preserve" text-anchor="start" x="6" y="-218.5" font-family="Helvetica,sans-Serif" font-size="10.00">+</text>
<text xml:space="preserve" text-anchor="start" x="18" y="-218.5" font-family="Helvetica,sans-Serif" font-size="10.00">getAccountTypeCode()</text>
<text xml:space="preserve" text-anchor="start" x="6" y="-202.5" font-family="Helvetica,sans-Serif" font-size="10.00">+</text>
<text xml:space="preserve" text-anchor="start" x="18" y="-202.5" font-family="Helvetica,sans-Serif" font-size="10.00">marshal()</text>
<text xml:space="preserve" text-anchor="start" x="6" y="-186.5" font-family="Helvetica,sans-Serif" font-size="10.00">+</text>
<text xml:space="preserve" text-anchor="start" x="18" y="-186.5" font-family="Helvetica,sans-Serif" font-size="10.00">unmarshal()</text>
<text xml:space="preserve" text-anchor="start" x="6" y="-170.5" font-family="Helvetica,sans-Serif" font-size="10.00">+</text>
<text xml:space="preserve" text-anchor="start" x="18" y="-170.5" font-family="Helvetica,sans-Serif" font-size="10.00">generateIBAN()</text>
<polygon fill="#666666" stroke="#666666" points="0,-486 0,-486 125.75,-486 125.75,-486 0,-486"/>
<polygon fill="#666666" stroke="#666666" points="0,-406 0,-406 16,-406 16,-406 0,-406"/>
<polygon fill="#666666" stroke="#666666" points="16,-406 16,-406 125.75,-406 125.75,-406 16,-406"/>
<polygon fill="none" stroke="#666666" points="0,-164 0,-516 125.75,-516 125.75,-164 0,-164"/>
</a>
</g>
</g>
<!-- Node2&#45;&gt;Node1 -->
<g id="edge1_Node000001_Node000002" class="edge">
<title>Node2&#45;&gt;Node1</title>
<g id="a_edge1_Node000001_Node000002"><a xlink:title=" ">
<path fill="none" stroke="#63b8ff" d="M62.88,-153.02C62.88,-144.22 62.88,-135.74 62.88,-127.74"/>
<polygon fill="none" stroke="#63b8ff" points="59.38,-152.79 62.88,-162.79 66.38,-152.79 59.38,-152.79"/>
</a>
</g>
</g>
<!-- Node3 -->
<g id="Node000003" class="node">
<title>Node3</title>
<g id="a_Node000003"><a xlink:href="../../dd/d8c/interfacecom_1_1bank_1_1storage_1_1_storable.html" target="_top" xlink:title="Defines the serialization and deserialization behavior for persistent objects.">
<polygon fill="white" stroke="none" points="125.38,-620 0.38,-620 0.38,-552 125.38,-552 125.38,-620"/>
<text xml:space="preserve" text-anchor="start" x="4.38" y="-606.5" font-family="Helvetica,sans-Serif" font-size="10.00">com.bank.storage.Storable</text>
<text xml:space="preserve" text-anchor="start" x="61.38" y="-590.5" font-family="Helvetica,sans-Serif" font-size="10.00"> </text>
<text xml:space="preserve" text-anchor="start" x="18.38" y="-574.5" font-family="Helvetica,sans-Serif" font-size="10.00">+</text>
<text xml:space="preserve" text-anchor="start" x="42.38" y="-574.5" font-family="Helvetica,sans-Serif" font-size="10.00">marshal()</text>
<text xml:space="preserve" text-anchor="start" x="18.38" y="-558.5" font-family="Helvetica,sans-Serif" font-size="10.00">+</text>
<text xml:space="preserve" text-anchor="start" x="42.38" y="-558.5" font-family="Helvetica,sans-Serif" font-size="10.00">unmarshal()</text>
<polygon fill="#666666" stroke="#666666" points="0.38,-602 0.38,-602 125.38,-602 125.38,-602 0.38,-602"/>
<polygon fill="#666666" stroke="#666666" points="0.38,-586 0.38,-586 125.38,-586 125.38,-586 0.38,-586"/>
<polygon fill="none" stroke="#666666" points="0.38,-552 0.38,-620 125.38,-620 125.38,-552 0.38,-552"/>
</a>
</g>
</g>
<!-- Node3&#45;&gt;Node2 -->
<g id="edge2_Node000002_Node000003" class="edge">
<title>Node3&#45;&gt;Node2</title>
<g id="a_edge2_Node000002_Node000003"><a xlink:title=" ">
<path fill="none" stroke="#63b8ff" d="M62.88,-540.65C62.88,-532.97 62.88,-524.6 62.88,-515.77"/>
<polygon fill="none" stroke="#63b8ff" points="59.38,-540.58 62.88,-550.58 66.38,-540.58 59.38,-540.58"/>
</a>
</g>
</g>
</g>
</svg>
