<?xml version="1.0" encoding="UTF-8" standalone="no"?>
<!DOCTYPE svg PUBLIC "-//W3C//DTD SVG 1.1//EN"
 "http://www.w3.org/Graphics/SVG/1.1/DTD/svg11.dtd">
<!-- Generated by graphviz version 14.0.1 (20251006.0113)
 -->
<!-- Title: gui/view/panel/AdminAccountListPanel.java Pages: 1 -->
<svg width="554pt" height="108pt"
 viewBox="0.00 0.00 554.00 108.00" xmlns="http://www.w3.org/2000/svg" xmlns:xlink="http://www.w3.org/1999/xlink">
<g id="graph0" class="graph" transform="scale(1 1) rotate(0) translate(4 104)">
<title>gui/view/panel/AdminAccountListPanel.java</title>
<!-- Node1 -->
<g id="Node000001" class="node">
<title>Node1</title>
<g id="a_Node000001"><a xlink:title=" ">
<polygon fill="#999999" stroke="#666666" points="417.62,-100 272.62,-100 272.62,-68 417.62,-68 417.62,-100"/>
<text xml:space="preserve" text-anchor="start" x="280.62" y="-86.5" font-family="Helvetica,sans-Serif" font-size="10.00">gui/view/panel/AdminAccount</text>
<text xml:space="preserve" text-anchor="middle" x="345.12" y="-74.5" font-family="Helvetica,sans-Serif" font-size="10.00">ListPanel.java</text>
</a>
</g>
</g>
<!-- Node2 -->
<g id="Node000002" class="node">
<title>Node2</title>
<g id="a_Node000002"><a xlink:title=" ">
<polygon fill="#e0e0e0" stroke="#999999" points="138.25,-32 0,-32 0,0 138.25,0 138.25,-32"/>
<text xml:space="preserve" text-anchor="start" x="8" y="-18.5" font-family="Helvetica,sans-Serif" font-size="10.00">com.bank.manager.Account</text>
<text xml:space="preserve" text-anchor="middle" x="69.12" y="-6.5" font-family="Helvetica,sans-Serif" font-size="10.00">Manager</text>
</a>
</g>
</g>
<!-- Node1&#45;&gt;Node2 -->
<g id="edge1_Node000001_Node000002" class="edge">
<title>Node1&#45;&gt;Node2</title>
<g id="a_edge1_Node000001_Node000002"><a xlink:title=" ">
<path fill="none" stroke="#63b8ff" d="M280.42,-67.53C239.9,-57.84 187.51,-45.31 145.04,-35.15"/>
<polygon fill="#63b8ff" stroke="#63b8ff" points="145.92,-31.77 135.38,-32.84 144.29,-38.57 145.92,-31.77"/>
</a>
</g>
</g>
<!-- Node3 -->
<g id="Node000003" class="node">
<title>Node3</title>
<g id="a_Node000003"><a xlink:title=" ">
<polygon fill="#e0e0e0" stroke="#999999" points="290,-32 156.25,-32 156.25,0 290,0 290,-32"/>
<text xml:space="preserve" text-anchor="start" x="164.25" y="-18.5" font-family="Helvetica,sans-Serif" font-size="10.00">com.bank.model.accounts.</text>
<text xml:space="preserve" text-anchor="middle" x="223.12" y="-6.5" font-family="Helvetica,sans-Serif" font-size="10.00">Account</text>
</a>
</g>
</g>
<!-- Node1&#45;&gt;Node3 -->
<g id="edge2_Node000001_Node000003" class="edge">
<title>Node1&#45;&gt;Node3</title>
<g id="a_edge2_Node000001_Node000003"><a xlink:title=" ">
<path fill="none" stroke="#63b8ff" d="M316.52,-67.53C300.15,-58.67 279.4,-47.45 261.62,-37.83"/>
<polygon fill="#63b8ff" stroke="#63b8ff" points="263.34,-34.78 252.88,-33.1 260.01,-40.93 263.34,-34.78"/>
</a>
</g>
</g>
<!-- Node4 -->
<g id="Node000004" class="node">
<title>Node4</title>
<g id="a_Node000004"><a xlink:title=" ">
<polygon fill="#e0e0e0" stroke="#999999" points="382.38,-26 307.88,-26 307.88,-6 382.38,-6 382.38,-26"/>
<text xml:space="preserve" text-anchor="middle" x="345.12" y="-12.5" font-family="Helvetica,sans-Serif" font-size="10.00">javax.swing.*</text>
</a>
</g>
</g>
<!-- Node1&#45;&gt;Node4 -->
<g id="edge3_Node000001_Node000004" class="edge">
<title>Node1&#45;&gt;Node4</title>
<g id="a_edge3_Node000001_Node000004"><a xlink:title=" ">
<path fill="none" stroke="#63b8ff" d="M345.12,-67.69C345.12,-58.8 345.12,-47.46 345.12,-37.77"/>
<polygon fill="#63b8ff" stroke="#63b8ff" points="348.63,-37.83 345.13,-27.83 341.63,-37.83 348.63,-37.83"/>
</a>
</g>
</g>
<!-- Node5 -->
<g id="Node000005" class="node">
<title>Node5</title>
<g id="a_Node000005"><a xlink:title=" ">
<polygon fill="#e0e0e0" stroke="#999999" points="459.88,-26 400.38,-26 400.38,-6 459.88,-6 459.88,-26"/>
<text xml:space="preserve" text-anchor="middle" x="430.12" y="-12.5" font-family="Helvetica,sans-Serif" font-size="10.00">java.awt.*</text>
</a>
</g>
</g>
<!-- Node1&#45;&gt;Node5 -->
<g id="edge4_Node000001_Node000005" class="edge">
<title>Node1&#45;&gt;Node5</title>
<g id="a_edge4_Node000001_Node000005"><a xlink:title=" ">
<path fill="none" stroke="#63b8ff" d="M364.84,-67.69C378.1,-57.4 395.56,-43.84 409.09,-33.33"/>
<polygon fill="#63b8ff" stroke="#63b8ff" points="411.18,-36.14 416.93,-27.24 406.89,-30.61 411.18,-36.14"/>
</a>
</g>
</g>
<!-- Node6 -->
<g id="Node000006" class="node">
<title>Node6</title>
<g id="a_Node000006"><a xlink:title=" ">
<polygon fill="#e0e0e0" stroke="#999999" points="546.38,-26 477.88,-26 477.88,-6 546.38,-6 546.38,-26"/>
<text xml:space="preserve" text-anchor="middle" x="512.12" y="-12.5" font-family="Helvetica,sans-Serif" font-size="10.00">java.util.List</text>
</a>
</g>
</g>
<!-- Node1&#45;&gt;Node6 -->
<g id="edge5_Node000001_Node000006" class="edge">
<title>Node1&#45;&gt;Node6</title>
<g id="a_edge5_Node000001_Node000006"><a xlink:title=" ">
<path fill="none" stroke="#63b8ff" d="M384.28,-67.53C412.58,-56.34 450.45,-41.37 477.62,-30.64"/>
<polygon fill="#63b8ff" stroke="#63b8ff" points="478.77,-33.95 486.78,-27.02 476.19,-27.44 478.77,-33.95"/>
</a>
</g>
</g>
</g>
</svg>
