<?xml version="1.0" encoding="UTF-8" standalone="no"?>
<!DOCTYPE svg PUBLIC "-//W3C//DTD SVG 1.1//EN"
 "http://www.w3.org/Graphics/SVG/1.1/DTD/svg11.dtd">
<!-- Generated by graphviz version 14.0.1 (20251006.0113)
 -->
<!-- Title: com.bank.model.accounts.Account.getIban Pages: 1 -->
<svg width="564pt" height="664pt"
 viewBox="0.00 0.00 564.00 664.00" xmlns="http://www.w3.org/2000/svg" xmlns:xlink="http://www.w3.org/1999/xlink">
<g id="graph0" class="graph" transform="scale(1 1) rotate(0) translate(4 660)">
<title>com.bank.model.accounts.Account.getIban</title>
<!-- Node1 -->
<g id="Node000001" class="node">
<title>Node1</title>
<g id="a_Node000001"><a xlink:title=" ">
<polygon fill="#999999" stroke="#666666" points="555.75,-326 422,-326 422,-294 555.75,-294 555.75,-326"/>
<text xml:space="preserve" text-anchor="start" x="430" y="-312.5" font-family="Helvetica,sans-Serif" font-size="10.00">com.bank.model.accounts.</text>
<text xml:space="preserve" text-anchor="middle" x="488.88" y="-300.5" font-family="Helvetica,sans-Serif" font-size="10.00">Account.getIban</text>
</a>
</g>
</g>
<!-- Node2 -->
<g id="Node000002" class="node">
<title>Node2</title>
<g id="a_Node000002"><a xlink:href="../../dd/d41/classcom_1_1bank_1_1gui_1_1view_1_1panel_1_1_admin_account_details_panel.html#a78d537f580f0dddc9983b57244f0532f" target="_top" xlink:title="Δημιουργεί το panel προβολής λεπτομερειών λογαριασμού.">
<polygon fill="white" stroke="#666666" points="175.75,-656 9.75,-656 9.75,-612 175.75,-612 175.75,-656"/>
<text xml:space="preserve" text-anchor="start" x="17.75" y="-642.5" font-family="Helvetica,sans-Serif" font-size="10.00">com.bank.gui.view.panel.</text>
<text xml:space="preserve" text-anchor="start" x="17.75" y="-630.5" font-family="Helvetica,sans-Serif" font-size="10.00">AdminAccountDetailsPanel.Admin</text>
<text xml:space="preserve" text-anchor="middle" x="92.75" y="-618.5" font-family="Helvetica,sans-Serif" font-size="10.00">AccountDetailsPanel</text>
</a>
</g>
</g>
<!-- Node1&#45;&gt;Node2 -->
<g id="edge1_Node000001_Node000002" class="edge">
<title>Node1&#45;&gt;Node2</title>
<g id="a_edge1_Node000001_Node000002"><a xlink:title=" ">
<path fill="none" stroke="#63b8ff" d="M483.03,-337.71C473.26,-385.43 446.71,-483.23 386,-538 327.81,-590.5 240.3,-614.35 176.2,-625.15"/>
<polygon fill="#63b8ff" stroke="#63b8ff" points="486.46,-338.42 484.93,-327.94 479.59,-337.09 486.46,-338.42"/>
</a>
</g>
</g>
<!-- Node3 -->
<g id="Node000003" class="node">
<title>Node3</title>
<g id="a_Node000003"><a xlink:href="../../dd/df4/classcom_1_1bank_1_1gui_1_1view_1_1panel_1_1_admin_create_account_panel.html#a8dc1fcbf6a9923b9e7c5cabf80fef53e" target="_top" xlink:title="Δημιουργεί το GUI panel για την εγγραφή νέου λογαριασμού.">
<polygon fill="white" stroke="#666666" points="386,-244 221.5,-244 221.5,-200 386,-200 386,-244"/>
<text xml:space="preserve" text-anchor="start" x="229.5" y="-230.5" font-family="Helvetica,sans-Serif" font-size="10.00">com.bank.gui.view.panel.</text>
<text xml:space="preserve" text-anchor="start" x="229.5" y="-218.5" font-family="Helvetica,sans-Serif" font-size="10.00">AdminCreateAccountPanel.Admin</text>
<text xml:space="preserve" text-anchor="middle" x="303.75" y="-206.5" font-family="Helvetica,sans-Serif" font-size="10.00">CreateAccountPanel</text>
</a>
</g>
</g>
<!-- Node1&#45;&gt;Node3 -->
<g id="edge2_Node000001_Node000003" class="edge">
<title>Node1&#45;&gt;Node3</title>
<g id="a_edge2_Node000001_Node000003"><a xlink:title=" ">
<path fill="none" stroke="#63b8ff" d="M446.76,-288.37C428.3,-278.82 406.18,-267.61 386,-258 376.53,-253.49 366.36,-248.83 356.52,-244.43"/>
<polygon fill="#63b8ff" stroke="#63b8ff" points="445.05,-291.42 455.54,-292.93 448.28,-285.21 445.05,-291.42"/>
</a>
</g>
</g>
<!-- Node4 -->
<g id="Node000004" class="node">
<title>Node4</title>
<g id="a_Node000004"><a xlink:href="../../d4/df3/classcom_1_1bank_1_1gui_1_1view_1_1panel_1_1_deposit_panel.html#a910b6db8aa423e0d595a89c256382be9" target="_top" xlink:title="Δημιουργεί panel για εκτέλεση κατάθεσης σε έναν από τους λογαριασμούς του χρήστη.">
<polygon fill="white" stroke="#666666" points="160.75,-594 24.75,-594 24.75,-562 160.75,-562 160.75,-594"/>
<text xml:space="preserve" text-anchor="start" x="32.75" y="-580.5" font-family="Helvetica,sans-Serif" font-size="10.00">com.bank.gui.view.panel.</text>
<text xml:space="preserve" text-anchor="middle" x="92.75" y="-568.5" font-family="Helvetica,sans-Serif" font-size="10.00">DepositPanel.DepositPanel</text>
</a>
</g>
</g>
<!-- Node1&#45;&gt;Node4 -->
<g id="edge3_Node000001_Node000004" class="edge">
<title>Node1&#45;&gt;Node4</title>
<g id="a_edge3_Node000001_Node000004"><a xlink:title=" ">
<path fill="none" stroke="#63b8ff" d="M479.47,-336.93C465.97,-375.84 435.8,-447.54 386,-488 321,-540.81 225.13,-562.71 161.12,-571.74"/>
<polygon fill="#63b8ff" stroke="#63b8ff" points="482.65,-338.45 482.5,-327.86 476.01,-336.23 482.65,-338.45"/>
</a>
</g>
</g>
<!-- Node5 -->
<g id="Node000005" class="node">
<title>Node5</title>
<g id="a_Node000005"><a xlink:href="../../d4/d34/classcom_1_1bank_1_1model_1_1orders_1_1_transfer_order.html#a043fd034f18ed31a9ad9fc95e2180dc6" target="_top" xlink:title="Executes the transfer if the date matches the schedule and funds are sufficient.">
<polygon fill="white" stroke="#666666" points="171.25,-544 14.25,-544 14.25,-512 171.25,-512 171.25,-544"/>
<text xml:space="preserve" text-anchor="start" x="22.25" y="-530.5" font-family="Helvetica,sans-Serif" font-size="10.00">com.bank.model.orders.Transfer</text>
<text xml:space="preserve" text-anchor="middle" x="92.75" y="-518.5" font-family="Helvetica,sans-Serif" font-size="10.00">Order.execute</text>
</a>
</g>
</g>
<!-- Node1&#45;&gt;Node5 -->
<g id="edge4_Node000001_Node000005" class="edge">
<title>Node1&#45;&gt;Node5</title>
<g id="a_edge4_Node000001_Node000005"><a xlink:title=" ">
<path fill="none" stroke="#63b8ff" d="M473.98,-336.34C457.04,-365.98 425.68,-413.57 386,-441 321.55,-485.55 233.94,-507.67 171.49,-518.4"/>
<polygon fill="#63b8ff" stroke="#63b8ff" points="477.03,-338.06 478.83,-327.62 470.91,-334.66 477.03,-338.06"/>
</a>
</g>
</g>
<!-- Node6 -->
<g id="Node000006" class="node">
<title>Node6</title>
<g id="a_Node000006"><a xlink:href="../../dd/db1/classcom_1_1bank_1_1manager_1_1_account_manager.html#a8a3ebf20f49b1718127736507683d480" target="_top" xlink:title="Finds an account by IBAN.">
<polygon fill="white" stroke="#666666" points="372.88,-432 234.62,-432 234.62,-400 372.88,-400 372.88,-432"/>
<text xml:space="preserve" text-anchor="start" x="242.62" y="-418.5" font-family="Helvetica,sans-Serif" font-size="10.00">com.bank.manager.Account</text>
<text xml:space="preserve" text-anchor="middle" x="303.75" y="-406.5" font-family="Helvetica,sans-Serif" font-size="10.00">Manager.findByIban</text>
</a>
</g>
</g>
<!-- Node1&#45;&gt;Node6 -->
<g id="edge5_Node000001_Node000006" class="edge">
<title>Node1&#45;&gt;Node6</title>
<g id="a_edge5_Node000001_Node000006"><a xlink:title=" ">
<path fill="none" stroke="#63b8ff" d="M456.79,-333.06C437.04,-347.19 410.65,-365.17 386,-379 372.75,-386.43 357.74,-393.6 344.26,-399.61"/>
<polygon fill="#63b8ff" stroke="#63b8ff" points="458.63,-336.05 464.68,-327.35 454.53,-330.38 458.63,-336.05"/>
</a>
</g>
</g>
<!-- Node11 -->
<g id="Node000011" class="node">
<title>Node11</title>
<g id="a_Node000011"><a xlink:href="../../dc/d10/classcom_1_1bank_1_1gui_1_1view_1_1panel_1_1_transfer_panel.html#a8a794a4df9795e83bd93ab1709e44676" target="_top" xlink:title="Δημιουργεί το panel μεταφοράς χρημάτων για τον τρέχοντα χρήστη.">
<polygon fill="white" stroke="#666666" points="163,-282 22.5,-282 22.5,-250 163,-250 163,-282"/>
<text xml:space="preserve" text-anchor="start" x="30.5" y="-268.5" font-family="Helvetica,sans-Serif" font-size="10.00">com.bank.gui.view.panel.</text>
<text xml:space="preserve" text-anchor="middle" x="92.75" y="-256.5" font-family="Helvetica,sans-Serif" font-size="10.00">TransferPanel.TransferPanel</text>
</a>
</g>
</g>
<!-- Node1&#45;&gt;Node11 -->
<g id="edge24_Node000001_Node000011" class="edge">
<title>Node1&#45;&gt;Node11</title>
<g id="a_edge24_Node000001_Node000011"><a xlink:title=" ">
<path fill="none" stroke="#63b8ff" d="M410.12,-304.34C356.92,-300.14 284.83,-293.8 221.5,-286 202.56,-283.67 182.12,-280.68 163.25,-277.73"/>
<polygon fill="#63b8ff" stroke="#63b8ff" points="409.77,-307.83 420.01,-305.12 410.31,-300.85 409.77,-307.83"/>
</a>
</g>
</g>
<!-- Node12 -->
<g id="Node000012" class="node">
<title>Node12</title>
<g id="a_Node000012"><a xlink:href="../../d3/da8/classcom_1_1bank_1_1gui_1_1view_1_1panel_1_1_withdraw_panel.html#abd3072a053a9ffdcb84c7828c6a49860" target="_top" xlink:title="Δημιουργεί το panel ανάληψης χρημάτων.">
<polygon fill="white" stroke="#666666" points="168.25,-232 17.25,-232 17.25,-200 168.25,-200 168.25,-232"/>
<text xml:space="preserve" text-anchor="start" x="25.25" y="-218.5" font-family="Helvetica,sans-Serif" font-size="10.00">com.bank.gui.view.panel.</text>
<text xml:space="preserve" text-anchor="middle" x="92.75" y="-206.5" font-family="Helvetica,sans-Serif" font-size="10.00">WithdrawPanel.WithdrawPanel</text>
</a>
</g>
</g>
<!-- Node1&#45;&gt;Node12 -->
<g id="edge25_Node000001_Node000012" class="edge">
<title>Node1&#45;&gt;Node12</title>
<g id="a_edge25_Node000001_Node000012"><a xlink:title=" ">
<path fill="none" stroke="#63b8ff" d="M410.45,-291.47C402.2,-289.59 393.93,-287.73 386,-286 313.14,-270.12 293.56,-272.16 221.5,-253 205.2,-248.67 201.64,-245.89 185.5,-241 176.02,-238.13 165.94,-235.23 156.07,-232.48"/>
<polygon fill="#63b8ff" stroke="#63b8ff" points="409.63,-294.88 420.16,-293.72 411.21,-288.06 409.63,-294.88"/>
</a>
</g>
</g>
<!-- Node13 -->
<g id="Node000013" class="node">
<title>Node13</title>
<g id="a_Node000013"><a xlink:href="../../d9/dd7/classcom_1_1bank_1_1manager_1_1_statement_manager.html#a26e1d7788e4c26ead0ce932e8e23ae27" target="_top" xlink:title="Loads all statement entries for a given account.">
<polygon fill="white" stroke="#666666" points="377.38,-370 230.12,-370 230.12,-338 377.38,-338 377.38,-370"/>
<text xml:space="preserve" text-anchor="start" x="238.12" y="-356.5" font-family="Helvetica,sans-Serif" font-size="10.00">com.bank.manager.Statement</text>
<text xml:space="preserve" text-anchor="middle" x="303.75" y="-344.5" font-family="Helvetica,sans-Serif" font-size="10.00">Manager.load</text>
</a>
</g>
</g>
<!-- Node1&#45;&gt;Node13 -->
<g id="edge15_Node000001_Node000013" class="edge">
<title>Node1&#45;&gt;Node13</title>
<g id="a_edge15_Node000001_Node000013"><a xlink:title=" ">
<path fill="none" stroke="#63b8ff" d="M410.34,-328.63C398.06,-331.58 385.42,-334.62 373.36,-337.52"/>
<polygon fill="#63b8ff" stroke="#63b8ff" points="411.13,-332.04 420.03,-326.3 409.49,-325.23 411.13,-332.04"/>
</a>
</g>
</g>
<!-- Node14 -->
<g id="Node000014" class="node">
<title>Node14</title>
<g id="a_Node000014"><a xlink:href="../../d3/d75/classcom_1_1bank_1_1model_1_1accounts_1_1_business_account.html#aa9ce2b5e047602cfdbbc836233fd567e" target="_top" xlink:title="Serializes this business account into a single&#45;line key&#45;value string.">
<polygon fill="white" stroke="#666666" points="370.62,-182 236.88,-182 236.88,-150 370.62,-150 370.62,-182"/>
<text xml:space="preserve" text-anchor="start" x="244.88" y="-168.5" font-family="Helvetica,sans-Serif" font-size="10.00">com.bank.model.accounts.</text>
<text xml:space="preserve" text-anchor="middle" x="303.75" y="-156.5" font-family="Helvetica,sans-Serif" font-size="10.00">BusinessAccount.marshal</text>
</a>
</g>
</g>
<!-- Node1&#45;&gt;Node14 -->
<g id="edge17_Node000001_Node000014" class="edge">
<title>Node1&#45;&gt;Node14</title>
<g id="a_edge17_Node000001_Node000014"><a xlink:title=" ">
<path fill="none" stroke="#63b8ff" d="M472.03,-284C454.29,-256.99 423.1,-215.34 386,-191 381.06,-187.76 375.69,-184.92 370.13,-182.44"/>
<polygon fill="#63b8ff" stroke="#63b8ff" points="469.01,-285.76 477.35,-292.3 474.9,-281.99 469.01,-285.76"/>
</a>
</g>
</g>
<!-- Node15 -->
<g id="Node000015" class="node">
<title>Node15</title>
<g id="a_Node000015"><a xlink:href="../../d9/dd7/classcom_1_1bank_1_1manager_1_1_statement_manager.html#ab672ee8fb1badf21d6218f0e5002b50f" target="_top" xlink:title="Appends a single statement entry to the account&#39;s statement file.">
<polygon fill="white" stroke="#666666" points="377.38,-132 230.12,-132 230.12,-100 377.38,-100 377.38,-132"/>
<text xml:space="preserve" text-anchor="start" x="238.12" y="-118.5" font-family="Helvetica,sans-Serif" font-size="10.00">com.bank.manager.Statement</text>
<text xml:space="preserve" text-anchor="middle" x="303.75" y="-106.5" font-family="Helvetica,sans-Serif" font-size="10.00">Manager.saveStatement</text>
</a>
</g>
</g>
<!-- Node1&#45;&gt;Node15 -->
<g id="edge18_Node000001_Node000015" class="edge">
<title>Node1&#45;&gt;Node15</title>
<g id="a_edge18_Node000001_Node000015"><a xlink:title=" ">
<path fill="none" stroke="#63b8ff" d="M478.67,-283C464.56,-245.65 434.07,-178.57 386,-141 381.81,-137.73 377.2,-134.88 372.36,-132.41"/>
<polygon fill="#63b8ff" stroke="#63b8ff" points="475.29,-283.96 482,-292.15 481.86,-281.56 475.29,-283.96"/>
</a>
</g>
</g>
<!-- Node20 -->
<g id="Node000020" class="node">
<title>Node20</title>
<g id="a_Node000020"><a xlink:href="../../d1/d7d/classcom_1_1bank_1_1gui_1_1view_1_1panel_1_1_statement_panel.html#a9f91b604bcc58e262357bc89794ae6e8" target="_top" xlink:title="Δημιουργεί panel για εμφάνιση statements λογαριασμού.">
<polygon fill="white" stroke="#666666" points="383,-82 224.5,-82 224.5,-50 383,-50 383,-82"/>
<text xml:space="preserve" text-anchor="start" x="232.5" y="-68.5" font-family="Helvetica,sans-Serif" font-size="10.00">com.bank.gui.view.panel.</text>
<text xml:space="preserve" text-anchor="middle" x="303.75" y="-56.5" font-family="Helvetica,sans-Serif" font-size="10.00">StatementPanel.StatementPanel</text>
</a>
</g>
</g>
<!-- Node1&#45;&gt;Node20 -->
<g id="edge23_Node000001_Node000020" class="edge">
<title>Node1&#45;&gt;Node20</title>
<g id="a_edge23_Node000001_Node000020"><a xlink:title=" ">
<path fill="none" stroke="#63b8ff" d="M482.59,-282.27C472.3,-235.9 445.19,-142.6 386,-91 382.22,-87.7 378.01,-84.84 373.55,-82.36"/>
<polygon fill="#63b8ff" stroke="#63b8ff" points="479.16,-282.97 484.64,-292.04 486.01,-281.53 479.16,-282.97"/>
</a>
</g>
</g>
<!-- Node6&#45;&gt;Node2 -->
<g id="edge6_Node000006_Node000002" class="edge">
<title>Node6&#45;&gt;Node2</title>
<g id="a_edge6_Node000006_Node000002"><a xlink:title=" ">
<path fill="none" stroke="#63b8ff" d="M292.73,-443.03C276.39,-483.53 240.23,-559.79 185.5,-603 181.41,-606.23 176.96,-609.13 172.31,-611.74"/>
<polygon fill="#63b8ff" stroke="#63b8ff" points="295.97,-444.38 296.35,-433.79 289.45,-441.83 295.97,-444.38"/>
</a>
</g>
</g>
<!-- Node6&#45;&gt;Node4 -->
<g id="edge9_Node000006_Node000004" class="edge">
<title>Node6&#45;&gt;Node4</title>
<g id="a_edge9_Node000006_Node000004"><a xlink:title=" ">
<path fill="none" stroke="#63b8ff" d="M287.41,-441.97C267.72,-473.03 230.65,-524.41 185.5,-553 177.97,-557.77 169.53,-561.64 160.91,-564.78"/>
<polygon fill="#63b8ff" stroke="#63b8ff" points="290.33,-443.91 292.61,-433.56 284.37,-440.23 290.33,-443.91"/>
</a>
</g>
</g>
<!-- Node6&#45;&gt;Node5 -->
<g id="edge11_Node000006_Node000005" class="edge">
<title>Node6&#45;&gt;Node5</title>
<g id="a_edge11_Node000006_Node000005"><a xlink:title=" ">
<path fill="none" stroke="#63b8ff" d="M274.15,-439.15C245.77,-461.76 203.91,-494.06 185.5,-503 178.82,-506.25 171.65,-509.12 164.37,-511.66"/>
<polygon fill="#63b8ff" stroke="#63b8ff" points="276.05,-442.12 281.67,-433.13 271.67,-436.65 276.05,-442.12"/>
</a>
</g>
</g>
<!-- Node7 -->
<g id="Node000007" class="node">
<title>Node7</title>
<g id="a_Node000007"><a xlink:href="../../d0/d7a/classcom_1_1bank_1_1gui_1_1view_1_1panel_1_1_admin_account_statements_panel.html#a71db6191ffbc00e50dfe72d28e127e26" target="_top" xlink:title="Δημιουργεί το panel προβολής κινήσεων λογαριασμού.">
<polygon fill="white" stroke="#666666" points="171.62,-344 13.88,-344 13.88,-300 171.62,-300 171.62,-344"/>
<text xml:space="preserve" text-anchor="start" x="21.88" y="-330.5" font-family="Helvetica,sans-Serif" font-size="10.00">com.bank.gui.view.panel.</text>
<text xml:space="preserve" text-anchor="start" x="21.88" y="-318.5" font-family="Helvetica,sans-Serif" font-size="10.00">AdminAccountStatementsPanel.</text>
<text xml:space="preserve" text-anchor="middle" x="92.75" y="-306.5" font-family="Helvetica,sans-Serif" font-size="10.00">AdminAccountStatementsPanel</text>
</a>
</g>
</g>
<!-- Node6&#45;&gt;Node7 -->
<g id="edge7_Node000006_Node000007" class="edge">
<title>Node6&#45;&gt;Node7</title>
<g id="a_edge7_Node000006_Node000007"><a xlink:title=" ">
<path fill="none" stroke="#63b8ff" d="M252.44,-394.97C242.02,-390.1 231.25,-384.67 221.5,-379 204.44,-369.08 203.05,-362.04 185.5,-353 179.52,-349.92 173.17,-347.05 166.71,-344.39"/>
<polygon fill="#63b8ff" stroke="#63b8ff" points="250.77,-398.06 261.32,-399.02 253.68,-391.69 250.77,-398.06"/>
</a>
</g>
</g>
<!-- Node8 -->
<g id="Node000008" class="node">
<title>Node8</title>
<g id="a_Node000008"><a xlink:href="../../dd/d30/classcom_1_1bank_1_1gui_1_1view_1_1panel_1_1_admin_pay_bill_panel.html#a973563a6943f3648632453279e518cb1" target="_top" xlink:title="Δημιουργεί το panel πληρωμής λογαριασμού από Admin.">
<polygon fill="white" stroke="#666666" points="185.5,-494 0,-494 0,-462 185.5,-462 185.5,-494"/>
<text xml:space="preserve" text-anchor="start" x="8" y="-480.5" font-family="Helvetica,sans-Serif" font-size="10.00">com.bank.gui.view.panel.</text>
<text xml:space="preserve" text-anchor="middle" x="92.75" y="-468.5" font-family="Helvetica,sans-Serif" font-size="10.00">AdminPayBillPanel.AdminPayBillPanel</text>
</a>
</g>
</g>
<!-- Node6&#45;&gt;Node8 -->
<g id="edge8_Node000006_Node000008" class="edge">
<title>Node6&#45;&gt;Node8</title>
<g id="a_edge8_Node000006_Node000008"><a xlink:title=" ">
<path fill="none" stroke="#63b8ff" d="M241.19,-435.93C223.28,-441.59 203.65,-447.67 185.5,-453 175.84,-455.84 165.57,-458.75 155.54,-461.52"/>
<polygon fill="#63b8ff" stroke="#63b8ff" points="242.18,-439.29 250.65,-432.93 240.06,-432.62 242.18,-439.29"/>
</a>
</g>
</g>
<!-- Node9 -->
<g id="Node000009" class="node">
<title>Node9</title>
<g id="a_Node000009"><a xlink:href="../../dc/d2a/classcom_1_1bank_1_1model_1_1orders_1_1_payment_order.html#a439eabdedf52f8c33708338984440c6e" target="_top" xlink:title="Executes the payment order on the specified payment day.">
<polygon fill="white" stroke="#666666" points="172.75,-444 12.75,-444 12.75,-412 172.75,-412 172.75,-444"/>
<text xml:space="preserve" text-anchor="start" x="20.75" y="-430.5" font-family="Helvetica,sans-Serif" font-size="10.00">com.bank.model.orders.Payment</text>
<text xml:space="preserve" text-anchor="middle" x="92.75" y="-418.5" font-family="Helvetica,sans-Serif" font-size="10.00">Order.execute</text>
</a>
</g>
</g>
<!-- Node6&#45;&gt;Node9 -->
<g id="edge10_Node000006_Node000009" class="edge">
<title>Node6&#45;&gt;Node9</title>
<g id="a_edge10_Node000006_Node000009"><a xlink:title=" ">
<path fill="none" stroke="#63b8ff" d="M223.15,-420.57C206.8,-421.51 189.58,-422.5 173.23,-423.44"/>
<polygon fill="#63b8ff" stroke="#63b8ff" points="223.02,-424.08 232.8,-420.02 222.62,-417.1 223.02,-424.08"/>
</a>
</g>
</g>
<!-- Node10 -->
<g id="Node000010" class="node">
<title>Node10</title>
<g id="a_Node000010"><a xlink:href="../../dc/dd6/classcom_1_1bank_1_1gui_1_1view_1_1panel_1_1_pay_bill_panel.html#a36e2af99e6d3c4df782013e94e77f6a4" target="_top" xlink:title="Δημιουργεί panel για πληρωμή λογαριασμού με RF code.">
<polygon fill="white" stroke="#666666" points="157.75,-394 27.75,-394 27.75,-362 157.75,-362 157.75,-394"/>
<text xml:space="preserve" text-anchor="start" x="35.75" y="-380.5" font-family="Helvetica,sans-Serif" font-size="10.00">com.bank.gui.view.panel.</text>
<text xml:space="preserve" text-anchor="middle" x="92.75" y="-368.5" font-family="Helvetica,sans-Serif" font-size="10.00">PayBillPanel.PayBillPanel</text>
</a>
</g>
</g>
<!-- Node6&#45;&gt;Node10 -->
<g id="edge12_Node000006_Node000010" class="edge">
<title>Node6&#45;&gt;Node10</title>
<g id="a_edge12_Node000006_Node000010"><a xlink:title=" ">
<path fill="none" stroke="#63b8ff" d="M223.22,-401.54C201.69,-397.63 178.66,-393.44 158.08,-389.7"/>
<polygon fill="#63b8ff" stroke="#63b8ff" points="222.36,-404.94 232.83,-403.29 223.61,-398.05 222.36,-404.94"/>
</a>
</g>
</g>
<!-- Node6&#45;&gt;Node11 -->
<g id="edge13_Node000006_Node000011" class="edge">
<title>Node6&#45;&gt;Node11</title>
<g id="a_edge13_Node000006_Node000011"><a xlink:title=" ">
<path fill="none" stroke="#63b8ff" d="M241.22,-394.26C234,-389.96 227.19,-384.91 221.5,-379 192.21,-348.54 217.15,-319 185.5,-291 179.07,-285.31 171.47,-280.9 163.43,-277.49"/>
<polygon fill="#63b8ff" stroke="#63b8ff" points="239.46,-397.28 249.93,-398.93 242.77,-391.12 239.46,-397.28"/>
</a>
</g>
</g>
<!-- Node6&#45;&gt;Node12 -->
<g id="edge14_Node000006_Node000012" class="edge">
<title>Node6&#45;&gt;Node12</title>
<g id="a_edge14_Node000006_Node000012"><a xlink:title=" ">
<path fill="none" stroke="#63b8ff" d="M238.9,-393.96C232.39,-389.76 226.39,-384.82 221.5,-379 180.7,-330.49 230.08,-286.06 185.5,-241 180.62,-236.07 174.88,-232.09 168.68,-228.87"/>
<polygon fill="#63b8ff" stroke="#63b8ff" points="236.99,-396.9 247.4,-398.83 240.47,-390.82 236.99,-396.9"/>
</a>
</g>
</g>
<!-- Node13&#45;&gt;Node7 -->
<g id="edge16_Node000013_Node000007" class="edge">
<title>Node13&#45;&gt;Node7</title>
<g id="a_edge16_Node000013_Node000007"><a xlink:title=" ">
<path fill="none" stroke="#63b8ff" d="M218.54,-341.11C203.09,-338.74 187.04,-336.28 171.78,-333.95"/>
<polygon fill="#63b8ff" stroke="#63b8ff" points="217.74,-344.53 228.16,-342.58 218.8,-337.61 217.74,-344.53"/>
</a>
</g>
</g>
<!-- Node16 -->
<g id="Node000016" class="node">
<title>Node16</title>
<g id="a_Node000016"><a xlink:href="../../da/dd0/classcom_1_1bank_1_1model_1_1transactions_1_1_deposit.html#acbf4306b548288d42b6994d163e8500e" target="_top" xlink:title="Executes the deposit transaction.">
<polygon fill="white" stroke="#666666" points="166.38,-32 19.12,-32 19.12,0 166.38,0 166.38,-32"/>
<text xml:space="preserve" text-anchor="start" x="27.12" y="-18.5" font-family="Helvetica,sans-Serif" font-size="10.00">com.bank.model.transactions.</text>
<text xml:space="preserve" text-anchor="middle" x="92.75" y="-6.5" font-family="Helvetica,sans-Serif" font-size="10.00">Deposit.execute</text>
</a>
</g>
</g>
<!-- Node15&#45;&gt;Node16 -->
<g id="edge19_Node000015_Node000016" class="edge">
<title>Node15&#45;&gt;Node16</title>
<g id="a_edge19_Node000015_Node000016"><a xlink:title=" ">
<path fill="none" stroke="#63b8ff" d="M226.34,-94.23C224.68,-93.2 223.07,-92.12 221.5,-91 199.26,-75.03 208,-56.61 185.5,-41 179.67,-36.95 173.2,-33.56 166.49,-30.72"/>
<polygon fill="#63b8ff" stroke="#63b8ff" points="224.46,-97.19 234.92,-98.88 227.8,-91.03 224.46,-97.19"/>
</a>
</g>
</g>
<!-- Node17 -->
<g id="Node000017" class="node">
<title>Node17</title>
<g id="a_Node000017"><a xlink:href="../../dd/d71/classcom_1_1bank_1_1model_1_1transactions_1_1_payment.html#a12390733378f0e1d8510782af7077dd4" target="_top" xlink:title="Executes the payment transaction.">
<polygon fill="white" stroke="#666666" points="166.38,-182 19.12,-182 19.12,-150 166.38,-150 166.38,-182"/>
<text xml:space="preserve" text-anchor="start" x="27.12" y="-168.5" font-family="Helvetica,sans-Serif" font-size="10.00">com.bank.model.transactions.</text>
<text xml:space="preserve" text-anchor="middle" x="92.75" y="-156.5" font-family="Helvetica,sans-Serif" font-size="10.00">Payment.execute</text>
</a>
</g>
</g>
<!-- Node15&#45;&gt;Node17 -->
<g id="edge20_Node000015_Node000017" class="edge">
<title>Node15&#45;&gt;Node17</title>
<g id="a_edge20_Node000015_Node000017"><a xlink:title=" ">
<path fill="none" stroke="#63b8ff" d="M223.09,-135.06C203.13,-139.83 181.89,-144.91 162.52,-149.55"/>
<polygon fill="#63b8ff" stroke="#63b8ff" points="223.64,-138.52 232.55,-132.79 222.01,-131.72 223.64,-138.52"/>
</a>
</g>
</g>
<!-- Node18 -->
<g id="Node000018" class="node">
<title>Node18</title>
<g id="a_Node000018"><a xlink:href="../../d1/d0c/classcom_1_1bank_1_1model_1_1transactions_1_1_transfer.html#a95ff280e61f4a497ceb1d8c2cbcd6d99" target="_top" xlink:title="Executes the transfer transaction.">
<polygon fill="white" stroke="#666666" points="166.38,-132 19.12,-132 19.12,-100 166.38,-100 166.38,-132"/>
<text xml:space="preserve" text-anchor="start" x="27.12" y="-118.5" font-family="Helvetica,sans-Serif" font-size="10.00">com.bank.model.transactions.</text>
<text xml:space="preserve" text-anchor="middle" x="92.75" y="-106.5" font-family="Helvetica,sans-Serif" font-size="10.00">Transfer.execute</text>
</a>
</g>
</g>
<!-- Node15&#45;&gt;Node18 -->
<g id="edge21_Node000015_Node000018" class="edge">
<title>Node15&#45;&gt;Node18</title>
<g id="a_edge21_Node000015_Node000018"><a xlink:title=" ">
<path fill="none" stroke="#63b8ff" d="M218.52,-116C201.4,-116 183.51,-116 166.81,-116"/>
<polygon fill="#63b8ff" stroke="#63b8ff" points="218.14,-119.5 228.14,-116 218.14,-112.5 218.14,-119.5"/>
</a>
</g>
</g>
<!-- Node19 -->
<g id="Node000019" class="node">
<title>Node19</title>
<g id="a_Node000019"><a xlink:href="../../dd/df3/classcom_1_1bank_1_1model_1_1transactions_1_1_withdrawal.html#a85d3d4f510f381761cc3597fe34bcc78" target="_top" xlink:title="Executes the withdrawal transaction.">
<polygon fill="white" stroke="#666666" points="166.38,-82 19.12,-82 19.12,-50 166.38,-50 166.38,-82"/>
<text xml:space="preserve" text-anchor="start" x="27.12" y="-68.5" font-family="Helvetica,sans-Serif" font-size="10.00">com.bank.model.transactions.</text>
<text xml:space="preserve" text-anchor="middle" x="92.75" y="-56.5" font-family="Helvetica,sans-Serif" font-size="10.00">Withdrawal.execute</text>
</a>
</g>
</g>
<!-- Node15&#45;&gt;Node19 -->
<g id="edge22_Node000015_Node000019" class="edge">
<title>Node15&#45;&gt;Node19</title>
<g id="a_edge22_Node000015_Node000019"><a xlink:title=" ">
<path fill="none" stroke="#63b8ff" d="M223.09,-96.94C203.13,-92.17 181.89,-87.09 162.52,-82.45"/>
<polygon fill="#63b8ff" stroke="#63b8ff" points="222.01,-100.28 232.55,-99.21 223.64,-93.48 222.01,-100.28"/>
</a>
</g>
</g>
</g>
</svg>
