<?xml version="1.0" encoding="UTF-8" standalone="no"?>
<!DOCTYPE svg PUBLIC "-//W3C//DTD SVG 1.1//EN"
 "http://www.w3.org/Graphics/SVG/1.1/DTD/svg11.dtd">
<!-- Generated by graphviz version 14.0.1 (20251006.0113)
 -->
<!-- Title: com.bank.model.accounts.Account.setDateCreated Pages: 1 -->
<svg width="490pt" height="40pt"
 viewBox="0.00 0.00 490.00 40.00" xmlns="http://www.w3.org/2000/svg" xmlns:xlink="http://www.w3.org/1999/xlink">
<g id="graph0" class="graph" transform="scale(1 1) rotate(0) translate(4 36)">
<title>com.bank.model.accounts.Account.setDateCreated</title>
<!-- Node1 -->
<g id="Node000001" class="node">
<title>Node1</title>
<g id="a_Node000001"><a xlink:title=" ">
<polygon fill="#999999" stroke="#666666" points="482.25,-32 348.5,-32 348.5,0 482.25,0 482.25,-32"/>
<text xml:space="preserve" text-anchor="start" x="356.5" y="-18.5" font-family="Helvetica,sans-Serif" font-size="10.00">com.bank.model.accounts.</text>
<text xml:space="preserve" text-anchor="middle" x="415.38" y="-6.5" font-family="Helvetica,sans-Serif" font-size="10.00">Account.setDateCreated</text>
</a>
</g>
</g>
<!-- Node2 -->
<g id="Node000002" class="node">
<title>Node2</title>
<g id="a_Node000002"><a xlink:href="../../dd/db1/classcom_1_1bank_1_1manager_1_1_account_manager.html#ae89787590be8e4cb9f2310aee2630b1a" target="_top" xlink:title="Loads accounts from CSV into memory.">
<polygon fill="white" stroke="#666666" points="312.5,-32 174.25,-32 174.25,0 312.5,0 312.5,-32"/>
<text xml:space="preserve" text-anchor="start" x="182.25" y="-18.5" font-family="Helvetica,sans-Serif" font-size="10.00">com.bank.manager.Account</text>
<text xml:space="preserve" text-anchor="middle" x="243.38" y="-6.5" font-family="Helvetica,sans-Serif" font-size="10.00">Manager.load</text>
</a>
</g>
</g>
<!-- Node1&#45;&gt;Node2 -->
<g id="edge1_Node000001_Node000002" class="edge">
<title>Node1&#45;&gt;Node2</title>
<g id="a_edge1_Node000001_Node000002"><a xlink:title=" ">
<path fill="none" stroke="#63b8ff" d="M336.66,-16C328.74,-16 320.74,-16 312.93,-16"/>
<polygon fill="#63b8ff" stroke="#63b8ff" points="336.65,-19.5 346.65,-16 336.65,-12.5 336.65,-19.5"/>
</a>
</g>
</g>
<!-- Node3 -->
<g id="Node000003" class="node">
<title>Node3</title>
<g id="a_Node000003"><a xlink:href="../../dc/dd6/classcom_1_1bank_1_1gui_1_1app_1_1_e_banking_app.html#af606e2bd044a63a8b202a0676581b02d" target="_top" xlink:title="Application entry point (Swing).">
<polygon fill="white" stroke="#666666" points="138.25,-32 0,-32 0,0 138.25,0 138.25,-32"/>
<text xml:space="preserve" text-anchor="start" x="8" y="-18.5" font-family="Helvetica,sans-Serif" font-size="10.00">com.bank.gui.app.EBanking</text>
<text xml:space="preserve" text-anchor="middle" x="69.12" y="-6.5" font-family="Helvetica,sans-Serif" font-size="10.00">App.main</text>
</a>
</g>
</g>
<!-- Node2&#45;&gt;Node3 -->
<g id="edge2_Node000002_Node000003" class="edge">
<title>Node2&#45;&gt;Node3</title>
<g id="a_edge2_Node000002_Node000003"><a xlink:title=" ">
<path fill="none" stroke="#63b8ff" d="M162.33,-16C154.45,-16 146.5,-16 138.74,-16"/>
<polygon fill="#63b8ff" stroke="#63b8ff" points="162.29,-19.5 172.29,-16 162.29,-12.5 162.29,-19.5"/>
</a>
</g>
</g>
</g>
</svg>
