<?xml version="1.0" encoding="UTF-8" standalone="no"?>
<!DOCTYPE svg PUBLIC "-//W3C//DTD SVG 1.1//EN"
 "http://www.w3.org/Graphics/SVG/1.1/DTD/svg11.dtd">
<!-- Generated by graphviz version 14.0.1 (20251006.0113)
 -->
<!-- Title: com.bank.gui.view.panel.DepositPanel.DepositPanel Pages: 1 -->
<!--zoomable 228 -->

<svg id="main" version="1.1" xmlns="http://www.w3.org/2000/svg" xmlns:xlink="http://www.w3.org/1999/xlink" xml:space="preserve" onload="init(evt)">

<style type="text/css"><![CDATA[
.node, .edge {opacity: 0.7;}
.node.selected, .edge.selected {opacity: 1;}
.edge:hover path { stroke: red; }
.edge:hover polygon { stroke: red; fill: red; }
]]></style>

<defs>
  <circle id="rim" cx="0" cy="0" r="7"/>
  <circle id="rim2" cx="0" cy="0" r="3.5"/>
  <g id="zoomPlus">
    <use xlink:href="#rim" fill="#404040"><set attributeName="fill" to="#808080" begin="zoomplus.mouseover" end="zoomplus.mouseout"/></use>
    <path d="M-4,0h8M0,-4v8" fill="none" stroke="white" stroke-width="1.5" pointer-events="none"/>
  </g>
  <g id="zoomMin">
    <use xlink:href="#rim" fill="#404040"><set attributeName="fill" to="#808080" begin="zoomminus.mouseover" end="zoomminus.mouseout"/></use>
    <path d="M-4,0h8" fill="none" stroke="white" stroke-width="1.5" pointer-events="none"/>
  </g>
  <g id="arrowUp" transform="translate(30 24)">
    <use xlink:href="#rim"/>
    <path pointer-events="none" fill="none" stroke="white" stroke-width="1.5" d="M0,-3.0v7 M-2.5,-0.5L0,-3.0L2.5,-0.5"/>
  </g>
  <g id="arrowRight" transform="rotate(90) translate(36 -43)">
    <use xlink:href="#rim"/>
    <path pointer-events="none" fill="none" stroke="white" stroke-width="1.5" d="M0,-3.0v7 M-2.5,-0.5L0,-3.0L2.5,-0.5"/>
  </g>
  <g id="arrowDown" transform="rotate(180) translate(-30 -48)">
    <use xlink:href="#rim"/>
    <path pointer-events="none" fill="none" stroke="white" stroke-width="1.5" d="M0,-3.0v7 M-2.5,-0.5L0,-3.0L2.5,-0.5"/>
  </g>
  <g id="arrowLeft" transform="rotate(270) translate(-36 17)">
    <use xlink:href="#rim"/>
    <path pointer-events="none" fill="none" stroke="white" stroke-width="1.5" d="M0,-3.0v7 M-2.5,-0.5L0,-3.0L2.5,-0.5"/>
  </g>
  <g id="resetDef">
    <use xlink:href="#rim2" fill="#404040"><set attributeName="fill" to="#808080" begin="reset.mouseover" end="reset.mouseout"/></use>
  </g>
</defs>
<script type="application/ecmascript">
var viewWidth = 517;
var viewHeight = 228;
var sectionId = 'dynsection-2';
</script>
<script type="application/ecmascript" xlink:href="../../svg.min.js"/>
<svg id="graph" class="graph">
<g id="viewport">
<title>com.bank.gui.view.panel.DepositPanel.DepositPanel</title>
<!-- Node1 -->
<g id="Node000001" class="node">
<title>Node1</title>
<g id="a_Node000001"><a xlink:title="Δημιουργεί panel για εκτέλεση κατάθεσης σε έναν από τους λογαριασμούς του χρήστη.">
<polygon fill="#999999" stroke="#666666" points="136,-126 0,-126 0,-94 136,-94 136,-126"/>
<text xml:space="preserve" text-anchor="start" x="8" y="-112.5" font-family="Helvetica,sans-Serif" font-size="10.00">com.bank.gui.view.panel.</text>
<text xml:space="preserve" text-anchor="middle" x="68" y="-100.5" font-family="Helvetica,sans-Serif" font-size="10.00">DepositPanel.DepositPanel</text>
</a>
</g>
</g>
<!-- Node2 -->
<g id="Node000002" class="node">
<title>Node2</title>
<g id="a_Node000002"><a xlink:href="../../d6/d0e/classcom_1_1bank_1_1manager_1_1_transaction_manager.html#a4ade645d8387a45e8026f0efd086c921" target="_top" xlink:title="Executes a transaction and records it in history.">
<polygon fill="white" stroke="#666666" points="325.25,-220 172,-220 172,-188 325.25,-188 325.25,-220"/>
<text xml:space="preserve" text-anchor="start" x="180" y="-206.5" font-family="Helvetica,sans-Serif" font-size="10.00">com.bank.manager.Transaction</text>
<text xml:space="preserve" text-anchor="middle" x="248.62" y="-194.5" font-family="Helvetica,sans-Serif" font-size="10.00">Manager.execute</text>
</a>
</g>
</g>
<!-- Node1&#45;&gt;Node2 -->
<g id="edge1_Node000001_Node000002" class="edge">
<title>Node1&#45;&gt;Node2</title>
<g id="a_edge1_Node000001_Node000002"><a xlink:title=" ">
<path fill="none" stroke="#63b8ff" d="M89.68,-126.32C109.78,-141.57 141.64,-164.16 172,-179 175.07,-180.5 178.25,-181.94 181.49,-183.33"/>
<polygon fill="#63b8ff" stroke="#63b8ff" points="180.01,-186.5 190.59,-186.98 182.61,-180.01 180.01,-186.5"/>
</a>
</g>
</g>
<!-- Node4 -->
<g id="Node000004" class="node">
<title>Node4</title>
<g id="a_Node000004"><a xlink:href="../../dd/db1/classcom_1_1bank_1_1manager_1_1_account_manager.html#a8a3ebf20f49b1718127736507683d480" target="_top" xlink:title="Finds an account by IBAN.">
<polygon fill="white" stroke="#666666" points="317.75,-170 179.5,-170 179.5,-138 317.75,-138 317.75,-170"/>
<text xml:space="preserve" text-anchor="start" x="187.5" y="-156.5" font-family="Helvetica,sans-Serif" font-size="10.00">com.bank.manager.Account</text>
<text xml:space="preserve" text-anchor="middle" x="248.62" y="-144.5" font-family="Helvetica,sans-Serif" font-size="10.00">Manager.findByIban</text>
</a>
</g>
</g>
<!-- Node1&#45;&gt;Node4 -->
<g id="edge3_Node000001_Node000004" class="edge">
<title>Node1&#45;&gt;Node4</title>
<g id="a_edge3_Node000001_Node000004"><a xlink:title=" ">
<path fill="none" stroke="#63b8ff" d="M135.77,-126.45C146.77,-129.16 158.25,-131.99 169.5,-134.76"/>
<polygon fill="#63b8ff" stroke="#63b8ff" points="168.62,-138.14 179.17,-137.14 170.3,-131.35 168.62,-138.14"/>
</a>
</g>
</g>
<!-- Node5 -->
<g id="Node000005" class="node">
<title>Node5</title>
<g id="a_Node000005"><a xlink:href="../../da/d83/classcom_1_1bank_1_1model_1_1accounts_1_1_account.html#a38981f8e6e13e82b7135c3b57bd2bba0" target="_top" xlink:title=" ">
<polygon fill="white" stroke="#666666" points="501.75,-148 368,-148 368,-116 501.75,-116 501.75,-148"/>
<text xml:space="preserve" text-anchor="start" x="376" y="-134.5" font-family="Helvetica,sans-Serif" font-size="10.00">com.bank.model.accounts.</text>
<text xml:space="preserve" text-anchor="middle" x="434.88" y="-122.5" font-family="Helvetica,sans-Serif" font-size="10.00">Account.getIban</text>
</a>
</g>
</g>
<!-- Node1&#45;&gt;Node5 -->
<g id="edge7_Node000001_Node000005" class="edge">
<title>Node1&#45;&gt;Node5</title>
<g id="a_edge7_Node000001_Node000005"><a xlink:title=" ">
<path fill="none" stroke="#63b8ff" d="M136.35,-114.06C198.51,-117.81 290.8,-123.37 356.08,-127.31"/>
<polygon fill="#63b8ff" stroke="#63b8ff" points="355.83,-130.8 366.02,-127.91 356.25,-123.81 355.83,-130.8"/>
</a>
</g>
</g>
<!-- Node6 -->
<g id="Node000006" class="node">
<title>Node6</title>
<g id="a_Node000006"><a xlink:href="../../dd/db1/classcom_1_1bank_1_1manager_1_1_account_manager.html#a9cfb69758fe6d4532cba2d754cca7af2" target="_top" xlink:title="Returns all loaded accounts.">
<polygon fill="white" stroke="#666666" points="317.75,-82 179.5,-82 179.5,-50 317.75,-50 317.75,-82"/>
<text xml:space="preserve" text-anchor="start" x="187.5" y="-68.5" font-family="Helvetica,sans-Serif" font-size="10.00">com.bank.manager.Account</text>
<text xml:space="preserve" text-anchor="middle" x="248.62" y="-56.5" font-family="Helvetica,sans-Serif" font-size="10.00">Manager.getAllAccounts</text>
</a>
</g>
</g>
<!-- Node1&#45;&gt;Node6 -->
<g id="edge5_Node000001_Node000006" class="edge">
<title>Node1&#45;&gt;Node6</title>
<g id="a_edge5_Node000001_Node000006"><a xlink:title=" ">
<path fill="none" stroke="#63b8ff" d="M135.77,-93.55C146.77,-90.84 158.25,-88.01 169.5,-85.24"/>
<polygon fill="#63b8ff" stroke="#63b8ff" points="170.3,-88.65 179.17,-82.86 168.62,-81.86 170.3,-88.65"/>
</a>
</g>
</g>
<!-- Node7 -->
<g id="Node000007" class="node">
<title>Node7</title>
<g id="a_Node000007"><a xlink:href="../../da/d83/classcom_1_1bank_1_1model_1_1accounts_1_1_account.html#a9fb33a39fa4b91e75fc66a93ff23ae8b" target="_top" xlink:title=" ">
<polygon fill="white" stroke="#666666" points="315.5,-32 181.75,-32 181.75,0 315.5,0 315.5,-32"/>
<text xml:space="preserve" text-anchor="start" x="189.75" y="-18.5" font-family="Helvetica,sans-Serif" font-size="10.00">com.bank.model.accounts.</text>
<text xml:space="preserve" text-anchor="middle" x="248.62" y="-6.5" font-family="Helvetica,sans-Serif" font-size="10.00">Account.getBalance</text>
</a>
</g>
</g>
<!-- Node1&#45;&gt;Node7 -->
<g id="edge6_Node000001_Node000007" class="edge">
<title>Node1&#45;&gt;Node7</title>
<g id="a_edge6_Node000001_Node000007"><a xlink:title=" ">
<path fill="none" stroke="#63b8ff" d="M89.68,-93.68C109.78,-78.43 141.64,-55.84 172,-41 175.07,-39.5 178.25,-38.06 181.49,-36.67"/>
<polygon fill="#63b8ff" stroke="#63b8ff" points="182.61,-39.99 190.59,-33.02 180.01,-33.5 182.61,-39.99"/>
</a>
</g>
</g>
<!-- Node3 -->
<g id="Node000003" class="node">
<title>Node3</title>
<g id="a_Node000003"><a xlink:href="../../d5/d94/classcom_1_1bank_1_1model_1_1transactions_1_1_transaction.html#a31513476c29864af24cc9a96185ceaa7" target="_top" xlink:title="Executes the transaction logic.">
<polygon fill="white" stroke="#666666" points="508.5,-220 361.25,-220 361.25,-188 508.5,-188 508.5,-220"/>
<text xml:space="preserve" text-anchor="start" x="369.25" y="-206.5" font-family="Helvetica,sans-Serif" font-size="10.00">com.bank.model.transactions.</text>
<text xml:space="preserve" text-anchor="middle" x="434.88" y="-194.5" font-family="Helvetica,sans-Serif" font-size="10.00">Transaction.execute</text>
</a>
</g>
</g>
<!-- Node2&#45;&gt;Node3 -->
<g id="edge2_Node000002_Node000003" class="edge">
<title>Node2&#45;&gt;Node3</title>
<g id="a_edge2_Node000002_Node000003"><a xlink:title=" ">
<path fill="none" stroke="#63b8ff" d="M325.63,-204C333.58,-204 341.7,-204 349.73,-204"/>
<polygon fill="#63b8ff" stroke="#63b8ff" points="349.5,-207.5 359.5,-204 349.5,-200.5 349.5,-207.5"/>
</a>
</g>
</g>
<!-- Node4&#45;&gt;Node5 -->
<g id="edge4_Node000004_Node000005" class="edge">
<title>Node4&#45;&gt;Node5</title>
<g id="a_edge4_Node000004_Node000005"><a xlink:title=" ">
<path fill="none" stroke="#63b8ff" d="M318.23,-145.81C330.74,-144.32 343.86,-142.75 356.59,-141.23"/>
<polygon fill="#63b8ff" stroke="#63b8ff" points="356.64,-144.75 366.15,-140.09 355.81,-137.8 356.64,-144.75"/>
</a>
</g>
</g>
</g>
</svg>

<g id="navigator" transform="translate(0 0)" fill="#404254">
  <rect fill="#f2f5e9" fill-opacity="0.5" stroke="#606060" stroke-width=".5" x="0" y="0" width="60" height="60"/>
  <use id="zoomplus" xlink:href="#zoomPlus" x="17" y="9" onmousedown="handleZoom(evt,'in')"/>
  <use id="zoomminus" xlink:href="#zoomMin" x="42" y="9" onmousedown="handleZoom(evt,'out')"/>
  <use id="reset" xlink:href="#resetDef" x="30" y="36" onmousedown="handleReset()"/>
   <use id="arrowup" xlink:href="#arrowUp" x="0" y="0" onmousedown="handlePan(0,-1)"/>
  <use id="arrowright" xlink:href="#arrowRight" x="0" y="0" onmousedown="handlePan(1,0)"/>
  <use id="arrowdown" xlink:href="#arrowDown" x="0" y="0" onmousedown="handlePan(0,1)"/>
  <use id="arrowleft" xlink:href="#arrowLeft" x="0" y="0" onmousedown="handlePan(-1,0)"/>
</g>
<svg viewBox="0 0 15 15" width="100%" height="30px" preserveAspectRatio="xMaxYMin meet">
 <g id="arrow_out" transform="scale(0.3 0.3)">
  <a xlink:href="classcom_1_1bank_1_1gui_1_1view_1_1panel_1_1_deposit_panel_a910b6db8aa423e0d595a89c256382be9_cgraph_org.svg" target="_base">
   <rect id="button" ry="5" rx="5" y="6" x="6" height="38" width="38"
        fill="#f2f5e9" fill-opacity="0.5" stroke="#606060" stroke-width="1.0"/>
   <path id="arrow"
     d="M 11.500037,31.436501 C 11.940474,20.09759 22.043105,11.32322 32.158766,21.979434 L 37.068811,17.246167 C 37.068811,17.246167 37.088388,32 37.088388,32 L 22.160133,31.978069 C 22.160133,31.978069 26.997745,27.140456 26.997745,27.140456 C 18.528582,18.264221 13.291696,25.230495 11.500037,31.436501 z"
     style="fill:#404040;"/>
  </a>
 </g>
</svg>

<style type='text/css'>
<![CDATA[
[data-mouse-over-selected='false'] { opacity: 0.7; }
[data-mouse-over-selected='true']  { opacity: 1.0; }
]]>
</style>
<script type="application/ecmascript"><![CDATA[
document.addEventListener('DOMContentLoaded', (event) => {
  highlightEdges();
  highlightAdjacentNodes();
});
]]></script>
</svg>
