<?xml version="1.0" encoding="UTF-8" standalone="no"?>
<!DOCTYPE svg PUBLIC "-//W3C//DTD SVG 1.1//EN"
 "http://www.w3.org/Graphics/SVG/1.1/DTD/svg11.dtd">
<!-- Generated by graphviz version 14.0.1 (20251006.0113)
 -->
<!-- Title: gui/view/panel/PayBillPanel.java Pages: 1 -->
<svg width="987pt" height="96pt"
 viewBox="0.00 0.00 987.00 96.00" xmlns="http://www.w3.org/2000/svg" xmlns:xlink="http://www.w3.org/1999/xlink">
<g id="graph0" class="graph" transform="scale(1 1) rotate(0) translate(4 92)">
<title>gui/view/panel/PayBillPanel.java</title>
<!-- Node1 -->
<g id="Node000001" class="node">
<title>Node1</title>
<g id="a_Node000001"><a xlink:title=" ">
<polygon fill="#999999" stroke="#666666" points="650.88,-88 493.12,-88 493.12,-68 650.88,-68 650.88,-88"/>
<text xml:space="preserve" text-anchor="middle" x="572" y="-74.5" font-family="Helvetica,sans-Serif" font-size="10.00">gui/view/panel/PayBillPanel.java</text>
</a>
</g>
</g>
<!-- Node2 -->
<g id="Node000002" class="node">
<title>Node2</title>
<g id="a_Node000002"><a xlink:title=" ">
<polygon fill="#e0e0e0" stroke="#999999" points="106,-26 0,-26 0,-6 106,-6 106,-26"/>
<text xml:space="preserve" text-anchor="middle" x="53" y="-12.5" font-family="Helvetica,sans-Serif" font-size="10.00">com.bank.manager.*</text>
</a>
</g>
</g>
<!-- Node1&#45;&gt;Node2 -->
<g id="edge1_Node000001_Node000002" class="edge">
<title>Node1&#45;&gt;Node2</title>
<g id="a_edge1_Node000001_Node000002"><a xlink:title=" ">
<path fill="none" stroke="#63b8ff" d="M492.71,-72.55C401.21,-66.64 246.47,-54.26 115,-32 109.81,-31.12 104.42,-30.05 99.07,-28.89"/>
<polygon fill="#63b8ff" stroke="#63b8ff" points="100.24,-25.57 89.71,-26.76 98.68,-32.4 100.24,-25.57"/>
</a>
</g>
</g>
<!-- Node3 -->
<g id="Node000003" class="node">
<title>Node3</title>
<g id="a_Node000003"><a xlink:title=" ">
<polygon fill="#e0e0e0" stroke="#999999" points="257.88,-32 124.12,-32 124.12,0 257.88,0 257.88,-32"/>
<text xml:space="preserve" text-anchor="start" x="132.12" y="-18.5" font-family="Helvetica,sans-Serif" font-size="10.00">com.bank.model.accounts.</text>
<text xml:space="preserve" text-anchor="middle" x="191" y="-6.5" font-family="Helvetica,sans-Serif" font-size="10.00">Account</text>
</a>
</g>
</g>
<!-- Node1&#45;&gt;Node3 -->
<g id="edge2_Node000001_Node000003" class="edge">
<title>Node1&#45;&gt;Node3</title>
<g id="a_edge2_Node000001_Node000003"><a xlink:title=" ">
<path fill="none" stroke="#63b8ff" d="M500.97,-67.51C441.66,-59.36 354.6,-46.88 269.31,-32.35"/>
<polygon fill="#63b8ff" stroke="#63b8ff" points="270.04,-28.92 259.6,-30.68 268.86,-35.82 270.04,-28.92"/>
</a>
</g>
</g>
<!-- Node4 -->
<g id="Node000004" class="node">
<title>Node4</title>
<g id="a_Node000004"><a xlink:title=" ">
<polygon fill="#e0e0e0" stroke="#999999" points="400.38,-26 275.62,-26 275.62,-6 400.38,-6 400.38,-26"/>
<text xml:space="preserve" text-anchor="middle" x="338" y="-12.5" font-family="Helvetica,sans-Serif" font-size="10.00">com.bank.model.bills.Bill</text>
</a>
</g>
</g>
<!-- Node1&#45;&gt;Node4 -->
<g id="edge3_Node000001_Node000004" class="edge">
<title>Node1&#45;&gt;Node4</title>
<g id="a_edge3_Node000001_Node000004"><a xlink:title=" ">
<path fill="none" stroke="#63b8ff" d="M535.18,-67.56C494.92,-57.24 430.27,-40.66 386.05,-29.32"/>
<polygon fill="#63b8ff" stroke="#63b8ff" points="387.01,-25.95 376.46,-26.86 385.27,-32.74 387.01,-25.95"/>
</a>
</g>
</g>
<!-- Node5 -->
<g id="Node000005" class="node">
<title>Node5</title>
<g id="a_Node000005"><a xlink:title=" ">
<polygon fill="#e0e0e0" stroke="#999999" points="565.62,-32 418.38,-32 418.38,0 565.62,0 565.62,-32"/>
<text xml:space="preserve" text-anchor="start" x="426.38" y="-18.5" font-family="Helvetica,sans-Serif" font-size="10.00">com.bank.model.transactions.</text>
<text xml:space="preserve" text-anchor="middle" x="492" y="-6.5" font-family="Helvetica,sans-Serif" font-size="10.00">Payment</text>
</a>
</g>
</g>
<!-- Node1&#45;&gt;Node5 -->
<g id="edge4_Node000001_Node000005" class="edge">
<title>Node1&#45;&gt;Node5</title>
<g id="a_edge4_Node000001_Node000005"><a xlink:title=" ">
<path fill="none" stroke="#63b8ff" d="M559.5,-67.62C549.39,-60.04 534.73,-49.05 521.65,-39.24"/>
<polygon fill="#63b8ff" stroke="#63b8ff" points="523.81,-36.48 513.71,-33.28 519.61,-42.08 523.81,-36.48"/>
</a>
</g>
</g>
<!-- Node6 -->
<g id="Node000006" class="node">
<title>Node6</title>
<g id="a_Node000006"><a xlink:title=" ">
<polygon fill="#e0e0e0" stroke="#999999" points="722.5,-26 583.5,-26 583.5,-6 722.5,-6 722.5,-26"/>
<text xml:space="preserve" text-anchor="middle" x="653" y="-12.5" font-family="Helvetica,sans-Serif" font-size="10.00">com.bank.model.users.User</text>
</a>
</g>
</g>
<!-- Node1&#45;&gt;Node6 -->
<g id="edge5_Node000001_Node000006" class="edge">
<title>Node1&#45;&gt;Node6</title>
<g id="a_edge5_Node000001_Node000006"><a xlink:title=" ">
<path fill="none" stroke="#63b8ff" d="M584.66,-67.62C597.14,-58.38 616.46,-44.07 631.38,-33.01"/>
<polygon fill="#63b8ff" stroke="#63b8ff" points="633.26,-35.97 639.22,-27.21 629.1,-30.35 633.26,-35.97"/>
</a>
</g>
</g>
<!-- Node7 -->
<g id="Node000007" class="node">
<title>Node7</title>
<g id="a_Node000007"><a xlink:title=" ">
<polygon fill="#e0e0e0" stroke="#999999" points="815.25,-26 740.75,-26 740.75,-6 815.25,-6 815.25,-26"/>
<text xml:space="preserve" text-anchor="middle" x="778" y="-12.5" font-family="Helvetica,sans-Serif" font-size="10.00">javax.swing.*</text>
</a>
</g>
</g>
<!-- Node1&#45;&gt;Node7 -->
<g id="edge6_Node000001_Node000007" class="edge">
<title>Node1&#45;&gt;Node7</title>
<g id="a_edge6_Node000001_Node000007"><a xlink:title=" ">
<path fill="none" stroke="#63b8ff" d="M607.08,-67.58C639.57,-58.75 689.2,-44.99 732,-32 734.26,-31.31 736.58,-30.6 738.92,-29.87"/>
<polygon fill="#63b8ff" stroke="#63b8ff" points="739.93,-33.22 748.4,-26.85 737.81,-26.55 739.93,-33.22"/>
</a>
</g>
</g>
<!-- Node8 -->
<g id="Node000008" class="node">
<title>Node8</title>
<g id="a_Node000008"><a xlink:title=" ">
<polygon fill="#e0e0e0" stroke="#999999" points="892.75,-26 833.25,-26 833.25,-6 892.75,-6 892.75,-26"/>
<text xml:space="preserve" text-anchor="middle" x="863" y="-12.5" font-family="Helvetica,sans-Serif" font-size="10.00">java.awt.*</text>
</a>
</g>
</g>
<!-- Node1&#45;&gt;Node8 -->
<g id="edge7_Node000001_Node000008" class="edge">
<title>Node1&#45;&gt;Node8</title>
<g id="a_edge7_Node000001_Node000008"><a xlink:title=" ">
<path fill="none" stroke="#63b8ff" d="M646.44,-67.51C697.06,-60.13 765.24,-48.38 824,-32 825.87,-31.48 827.78,-30.9 829.7,-30.28"/>
<polygon fill="#63b8ff" stroke="#63b8ff" points="830.86,-33.59 839.13,-26.97 828.54,-26.98 830.86,-33.59"/>
</a>
</g>
</g>
<!-- Node9 -->
<g id="Node000009" class="node">
<title>Node9</title>
<g id="a_Node000009"><a xlink:title=" ">
<polygon fill="#e0e0e0" stroke="#999999" points="979.25,-26 910.75,-26 910.75,-6 979.25,-6 979.25,-26"/>
<text xml:space="preserve" text-anchor="middle" x="945" y="-12.5" font-family="Helvetica,sans-Serif" font-size="10.00">java.util.List</text>
</a>
</g>
</g>
<!-- Node1&#45;&gt;Node9 -->
<g id="edge8_Node000001_Node000009" class="edge">
<title>Node1&#45;&gt;Node9</title>
<g id="a_edge8_Node000001_Node000009"><a xlink:title=" ">
<path fill="none" stroke="#63b8ff" d="M651.17,-70.69C718.53,-64.25 817.52,-52.28 902,-32 904.59,-31.38 907.25,-30.66 909.91,-29.88"/>
<polygon fill="#63b8ff" stroke="#63b8ff" points="910.8,-33.27 919.25,-26.89 908.66,-26.6 910.8,-33.27"/>
</a>
</g>
</g>
</g>
</svg>
