<?xml version="1.0" encoding="UTF-8" standalone="no"?>
<!DOCTYPE svg PUBLIC "-//W3C//DTD SVG 1.1//EN"
 "http://www.w3.org/Graphics/SVG/1.1/DTD/svg11.dtd">
<!-- Generated by graphviz version 14.0.1 (20251006.0113)
 -->
<!-- Title: gui/view/panel/StatementPanel.java Pages: 1 -->
<svg width="1186pt" height="108pt"
 viewBox="0.00 0.00 1186.00 108.00" xmlns="http://www.w3.org/2000/svg" xmlns:xlink="http://www.w3.org/1999/xlink">
<g id="graph0" class="graph" transform="scale(1 1) rotate(0) translate(4 104)">
<title>gui/view/panel/StatementPanel.java</title>
<!-- Node1 -->
<g id="Node000001" class="node">
<title>Node1</title>
<g id="a_Node000001"><a xlink:title=" ">
<polygon fill="#999999" stroke="#666666" points="767.25,-100 641,-100 641,-68 767.25,-68 767.25,-100"/>
<text xml:space="preserve" text-anchor="start" x="649" y="-86.5" font-family="Helvetica,sans-Serif" font-size="10.00">gui/view/panel/Statement</text>
<text xml:space="preserve" text-anchor="middle" x="704.12" y="-74.5" font-family="Helvetica,sans-Serif" font-size="10.00">Panel.java</text>
</a>
</g>
</g>
<!-- Node2 -->
<g id="Node000002" class="node">
<title>Node2</title>
<g id="a_Node000002"><a xlink:title=" ">
<polygon fill="#e0e0e0" stroke="#999999" points="138.25,-32 0,-32 0,0 138.25,0 138.25,-32"/>
<text xml:space="preserve" text-anchor="start" x="8" y="-18.5" font-family="Helvetica,sans-Serif" font-size="10.00">com.bank.manager.Account</text>
<text xml:space="preserve" text-anchor="middle" x="69.12" y="-6.5" font-family="Helvetica,sans-Serif" font-size="10.00">Manager</text>
</a>
</g>
</g>
<!-- Node1&#45;&gt;Node2 -->
<g id="edge1_Node000001_Node000002" class="edge">
<title>Node1&#45;&gt;Node2</title>
<g id="a_edge1_Node000001_Node000002"><a xlink:title=" ">
<path fill="none" stroke="#63b8ff" d="M640.82,-79.25C539.32,-72.78 333.68,-57.83 149.64,-32.27"/>
<polygon fill="#63b8ff" stroke="#63b8ff" points="150.28,-28.82 139.89,-30.9 149.3,-35.75 150.28,-28.82"/>
</a>
</g>
</g>
<!-- Node3 -->
<g id="Node000003" class="node">
<title>Node3</title>
<g id="a_Node000003"><a xlink:title=" ">
<polygon fill="#e0e0e0" stroke="#999999" points="303.75,-32 156.5,-32 156.5,0 303.75,0 303.75,-32"/>
<text xml:space="preserve" text-anchor="start" x="164.5" y="-18.5" font-family="Helvetica,sans-Serif" font-size="10.00">com.bank.manager.Statement</text>
<text xml:space="preserve" text-anchor="middle" x="230.12" y="-6.5" font-family="Helvetica,sans-Serif" font-size="10.00">Manager</text>
</a>
</g>
</g>
<!-- Node1&#45;&gt;Node3 -->
<g id="edge2_Node000001_Node000003" class="edge">
<title>Node1&#45;&gt;Node3</title>
<g id="a_edge2_Node000001_Node000003"><a xlink:title=" ">
<path fill="none" stroke="#63b8ff" d="M640.67,-75.69C565.55,-66.83 436.41,-50.91 315.19,-32.27"/>
<polygon fill="#63b8ff" stroke="#63b8ff" points="315.77,-28.82 305.36,-30.75 314.7,-35.74 315.77,-28.82"/>
</a>
</g>
</g>
<!-- Node4 -->
<g id="Node000004" class="node">
<title>Node4</title>
<g id="a_Node000004"><a xlink:title=" ">
<polygon fill="#e0e0e0" stroke="#999999" points="456,-32 322.25,-32 322.25,0 456,0 456,-32"/>
<text xml:space="preserve" text-anchor="start" x="330.25" y="-18.5" font-family="Helvetica,sans-Serif" font-size="10.00">com.bank.model.accounts.</text>
<text xml:space="preserve" text-anchor="middle" x="389.12" y="-6.5" font-family="Helvetica,sans-Serif" font-size="10.00">Account</text>
</a>
</g>
</g>
<!-- Node1&#45;&gt;Node4 -->
<g id="edge3_Node000001_Node000004" class="edge">
<title>Node1&#45;&gt;Node4</title>
<g id="a_edge3_Node000001_Node000004"><a xlink:title=" ">
<path fill="none" stroke="#63b8ff" d="M640.76,-69.72C590.86,-59.27 521.05,-44.64 467.61,-33.45"/>
<polygon fill="#63b8ff" stroke="#63b8ff" points="468.46,-30.05 457.95,-31.42 467.02,-36.9 468.46,-30.05"/>
</a>
</g>
</g>
<!-- Node5 -->
<g id="Node000005" class="node">
<title>Node5</title>
<g id="a_Node000005"><a xlink:title=" ">
<polygon fill="#e0e0e0" stroke="#999999" points="616.5,-32 473.75,-32 473.75,0 616.5,0 616.5,-32"/>
<text xml:space="preserve" text-anchor="start" x="481.75" y="-18.5" font-family="Helvetica,sans-Serif" font-size="10.00">com.bank.model.statements.</text>
<text xml:space="preserve" text-anchor="middle" x="545.12" y="-6.5" font-family="Helvetica,sans-Serif" font-size="10.00">StatementEntry</text>
</a>
</g>
</g>
<!-- Node1&#45;&gt;Node5 -->
<g id="edge4_Node000001_Node000005" class="edge">
<title>Node1&#45;&gt;Node5</title>
<g id="a_edge4_Node000001_Node000005"><a xlink:title=" ">
<path fill="none" stroke="#63b8ff" d="M666.85,-67.53C644.8,-58.37 616.65,-46.69 592.97,-36.86"/>
<polygon fill="#63b8ff" stroke="#63b8ff" points="594.42,-33.67 583.84,-33.07 591.74,-40.14 594.42,-33.67"/>
</a>
</g>
</g>
<!-- Node6 -->
<g id="Node000006" class="node">
<title>Node6</title>
<g id="a_Node000006"><a xlink:title=" ">
<polygon fill="#e0e0e0" stroke="#999999" points="773.62,-26 634.62,-26 634.62,-6 773.62,-6 773.62,-26"/>
<text xml:space="preserve" text-anchor="middle" x="704.12" y="-12.5" font-family="Helvetica,sans-Serif" font-size="10.00">com.bank.model.users.User</text>
</a>
</g>
</g>
<!-- Node1&#45;&gt;Node6 -->
<g id="edge5_Node000001_Node000006" class="edge">
<title>Node1&#45;&gt;Node6</title>
<g id="a_edge5_Node000001_Node000006"><a xlink:title=" ">
<path fill="none" stroke="#63b8ff" d="M704.12,-67.69C704.12,-58.8 704.12,-47.46 704.12,-37.77"/>
<polygon fill="#63b8ff" stroke="#63b8ff" points="707.63,-37.83 704.13,-27.83 700.63,-37.83 707.63,-37.83"/>
</a>
</g>
</g>
<!-- Node7 -->
<g id="Node000007" class="node">
<title>Node7</title>
<g id="a_Node000007"><a xlink:title=" ">
<polygon fill="#e0e0e0" stroke="#999999" points="866.38,-26 791.88,-26 791.88,-6 866.38,-6 866.38,-26"/>
<text xml:space="preserve" text-anchor="middle" x="829.12" y="-12.5" font-family="Helvetica,sans-Serif" font-size="10.00">javax.swing.*</text>
</a>
</g>
</g>
<!-- Node1&#45;&gt;Node7 -->
<g id="edge6_Node000001_Node000007" class="edge">
<title>Node1&#45;&gt;Node7</title>
<g id="a_edge6_Node000001_Node000007"><a xlink:title=" ">
<path fill="none" stroke="#63b8ff" d="M733.43,-67.53C753.86,-56.74 780.96,-42.43 801.1,-31.8"/>
<polygon fill="#63b8ff" stroke="#63b8ff" points="802.66,-34.93 809.87,-27.17 799.39,-28.74 802.66,-34.93"/>
</a>
</g>
</g>
<!-- Node8 -->
<g id="Node000008" class="node">
<title>Node8</title>
<g id="a_Node000008"><a xlink:title=" ">
<polygon fill="#e0e0e0" stroke="#999999" points="943.88,-26 884.38,-26 884.38,-6 943.88,-6 943.88,-26"/>
<text xml:space="preserve" text-anchor="middle" x="914.12" y="-12.5" font-family="Helvetica,sans-Serif" font-size="10.00">java.awt.*</text>
</a>
</g>
</g>
<!-- Node1&#45;&gt;Node8 -->
<g id="edge7_Node000001_Node000008" class="edge">
<title>Node1&#45;&gt;Node8</title>
<g id="a_edge7_Node000001_Node000008"><a xlink:title=" ">
<path fill="none" stroke="#63b8ff" d="M759.92,-67.54C793.5,-57.94 837.01,-44.99 875.12,-32 876.67,-31.47 878.24,-30.92 879.83,-30.36"/>
<polygon fill="#63b8ff" stroke="#63b8ff" points="880.71,-33.76 888.89,-27.02 878.29,-27.2 880.71,-33.76"/>
</a>
</g>
</g>
<!-- Node9 -->
<g id="Node000009" class="node">
<title>Node9</title>
<g id="a_Node000009"><a xlink:title=" ">
<polygon fill="#e0e0e0" stroke="#999999" points="1030.38,-26 961.88,-26 961.88,-6 1030.38,-6 1030.38,-26"/>
<text xml:space="preserve" text-anchor="middle" x="996.12" y="-12.5" font-family="Helvetica,sans-Serif" font-size="10.00">java.util.List</text>
</a>
</g>
</g>
<!-- Node1&#45;&gt;Node9 -->
<g id="edge8_Node000001_Node000009" class="edge">
<title>Node1&#45;&gt;Node9</title>
<g id="a_edge8_Node000001_Node000009"><a xlink:title=" ">
<path fill="none" stroke="#63b8ff" d="M767.61,-72.41C818.26,-63.39 890.8,-49.17 953.12,-32 955.39,-31.38 957.7,-30.7 960.03,-29.98"/>
<polygon fill="#63b8ff" stroke="#63b8ff" points="960.98,-33.35 969.4,-26.92 958.8,-26.7 960.98,-33.35"/>
</a>
</g>
</g>
<!-- Node10 -->
<g id="Node000010" class="node">
<title>Node10</title>
<g id="a_Node000010"><a xlink:title=" ">
<polygon fill="#e0e0e0" stroke="#999999" points="1178.12,-26 1048.12,-26 1048.12,-6 1178.12,-6 1178.12,-26"/>
<text xml:space="preserve" text-anchor="middle" x="1113.12" y="-12.5" font-family="Helvetica,sans-Serif" font-size="10.00">java.util.stream.Collectors</text>
</a>
</g>
</g>
<!-- Node1&#45;&gt;Node10 -->
<g id="edge9_Node000001_Node000010" class="edge">
<title>Node1&#45;&gt;Node10</title>
<g id="a_edge9_Node000001_Node000010"><a xlink:title=" ">
<path fill="none" stroke="#63b8ff" d="M767.56,-74.28C835.05,-64.79 944.85,-48.72 1039.12,-32 1045.01,-30.96 1051.15,-29.81 1057.27,-28.62"/>
<polygon fill="#63b8ff" stroke="#63b8ff" points="1057.57,-32.13 1066.7,-26.77 1056.22,-25.26 1057.57,-32.13"/>
</a>
</g>
</g>
</g>
</svg>
