<?xml version="1.0" encoding="UTF-8" standalone="no"?>
<!DOCTYPE svg PUBLIC "-//W3C//DTD SVG 1.1//EN"
 "http://www.w3.org/Graphics/SVG/1.1/DTD/svg11.dtd">
<!-- Generated by graphviz version 14.0.1 (20251006.0113)
 -->
<!-- Title: manager/TransactionManager.java Pages: 1 -->
<svg width="352pt" height="96pt"
 viewBox="0.00 0.00 352.00 96.00" xmlns="http://www.w3.org/2000/svg" xmlns:xlink="http://www.w3.org/1999/xlink">
<g id="graph0" class="graph" transform="scale(1 1) rotate(0) translate(4 92)">
<title>manager/TransactionManager.java</title>
<!-- Node1 -->
<g id="Node000001" class="node">
<title>Node1</title>
<g id="a_Node000001"><a xlink:title=" ">
<polygon fill="#999999" stroke="#666666" points="294.62,-88 128.62,-88 128.62,-68 294.62,-68 294.62,-88"/>
<text xml:space="preserve" text-anchor="middle" x="211.62" y="-74.5" font-family="Helvetica,sans-Serif" font-size="10.00">manager/TransactionManager.java</text>
</a>
</g>
</g>
<!-- Node2 -->
<g id="Node000002" class="node">
<title>Node2</title>
<g id="a_Node000002"><a xlink:title=" ">
<polygon fill="#e0e0e0" stroke="#999999" points="147.25,-32 0,-32 0,0 147.25,0 147.25,-32"/>
<text xml:space="preserve" text-anchor="start" x="8" y="-18.5" font-family="Helvetica,sans-Serif" font-size="10.00">com.bank.model.transactions.</text>
<text xml:space="preserve" text-anchor="middle" x="73.62" y="-6.5" font-family="Helvetica,sans-Serif" font-size="10.00">Transaction</text>
</a>
</g>
</g>
<!-- Node1&#45;&gt;Node2 -->
<g id="edge1_Node000001_Node000002" class="edge">
<title>Node1&#45;&gt;Node2</title>
<g id="a_edge1_Node000001_Node000002"><a xlink:title=" ">
<path fill="none" stroke="#63b8ff" d="M190.06,-67.62C171.24,-59.44 143.3,-47.29 119.5,-36.95"/>
<polygon fill="#63b8ff" stroke="#63b8ff" points="121.21,-33.87 110.64,-33.09 118.42,-40.29 121.21,-33.87"/>
</a>
</g>
</g>
<!-- Node3 -->
<g id="Node000003" class="node">
<title>Node3</title>
<g id="a_Node000003"><a xlink:title=" ">
<polygon fill="#e0e0e0" stroke="#999999" points="257.5,-26 165.75,-26 165.75,-6 257.5,-6 257.5,-26"/>
<text xml:space="preserve" text-anchor="middle" x="211.62" y="-12.5" font-family="Helvetica,sans-Serif" font-size="10.00">java.util.ArrayList</text>
</a>
</g>
</g>
<!-- Node1&#45;&gt;Node3 -->
<g id="edge2_Node000001_Node000003" class="edge">
<title>Node1&#45;&gt;Node3</title>
<g id="a_edge2_Node000001_Node000003"><a xlink:title=" ">
<path fill="none" stroke="#63b8ff" d="M211.62,-67.62C211.62,-59.56 211.62,-47.65 211.62,-37.41"/>
<polygon fill="#63b8ff" stroke="#63b8ff" points="215.13,-37.63 211.63,-27.63 208.13,-37.63 215.13,-37.63"/>
</a>
</g>
</g>
<!-- Node4 -->
<g id="Node000004" class="node">
<title>Node4</title>
<g id="a_Node000004"><a xlink:title=" ">
<polygon fill="#e0e0e0" stroke="#999999" points="343.88,-26 275.38,-26 275.38,-6 343.88,-6 343.88,-26"/>
<text xml:space="preserve" text-anchor="middle" x="309.62" y="-12.5" font-family="Helvetica,sans-Serif" font-size="10.00">java.util.List</text>
</a>
</g>
</g>
<!-- Node1&#45;&gt;Node4 -->
<g id="edge3_Node000001_Node000004" class="edge">
<title>Node1&#45;&gt;Node4</title>
<g id="a_edge3_Node000001_Node000004"><a xlink:title=" ">
<path fill="none" stroke="#63b8ff" d="M226.94,-67.62C242.4,-58.16 266.54,-43.38 284.75,-32.23"/>
<polygon fill="#63b8ff" stroke="#63b8ff" points="286.43,-35.31 293.13,-27.1 282.77,-29.34 286.43,-35.31"/>
</a>
</g>
</g>
</g>
</svg>
