<?xml version="1.0" encoding="UTF-8" standalone="no"?>
<!DOCTYPE svg PUBLIC "-//W3C//DTD SVG 1.1//EN"
 "http://www.w3.org/Graphics/SVG/1.1/DTD/svg11.dtd">
<!-- Generated by graphviz version 14.0.1 (20251006.0113)
 -->
<!-- Title: manager/StandingOrderManager.java Pages: 1 -->
<svg width="1302pt" height="96pt"
 viewBox="0.00 0.00 1302.00 96.00" xmlns="http://www.w3.org/2000/svg" xmlns:xlink="http://www.w3.org/1999/xlink">
<g id="graph0" class="graph" transform="scale(1 1) rotate(0) translate(4 92)">
<title>manager/StandingOrderManager.java</title>
<!-- Node1 -->
<g id="Node000001" class="node">
<title>Node1</title>
<g id="a_Node000001"><a xlink:title=" ">
<polygon fill="#999999" stroke="#666666" points="663.12,-88 485.88,-88 485.88,-68 663.12,-68 663.12,-88"/>
<text xml:space="preserve" text-anchor="middle" x="574.5" y="-74.5" font-family="Helvetica,sans-Serif" font-size="10.00">manager/StandingOrderManager.java</text>
</a>
</g>
</g>
<!-- Node2 -->
<g id="Node000002" class="node">
<title>Node2</title>
<g id="a_Node000002"><a xlink:title=" ">
<polygon fill="#e0e0e0" stroke="#999999" points="103,-26 0,-26 0,-6 103,-6 103,-26"/>
<text xml:space="preserve" text-anchor="middle" x="51.5" y="-12.5" font-family="Helvetica,sans-Serif" font-size="10.00">java.time.LocalDate</text>
</a>
</g>
</g>
<!-- Node1&#45;&gt;Node2 -->
<g id="edge1_Node000001_Node000002" class="edge">
<title>Node1&#45;&gt;Node2</title>
<g id="a_edge1_Node000001_Node000002"><a xlink:title=" ">
<path fill="none" stroke="#63b8ff" d="M485.65,-72.28C392.06,-66.4 240.62,-54.29 111.5,-32 106.61,-31.16 101.52,-30.13 96.48,-29.01"/>
<polygon fill="#63b8ff" stroke="#63b8ff" points="97.59,-25.67 87.05,-26.8 95.99,-32.49 97.59,-25.67"/>
</a>
</g>
</g>
<!-- Node3 -->
<g id="Node000003" class="node">
<title>Node3</title>
<g id="a_Node000003"><a xlink:title=" ">
<polygon fill="#e0e0e0" stroke="#999999" points="212.38,-26 120.62,-26 120.62,-6 212.38,-6 212.38,-26"/>
<text xml:space="preserve" text-anchor="middle" x="166.5" y="-12.5" font-family="Helvetica,sans-Serif" font-size="10.00">java.util.ArrayList</text>
</a>
</g>
</g>
<!-- Node1&#45;&gt;Node3 -->
<g id="edge2_Node000001_Node000003" class="edge">
<title>Node1&#45;&gt;Node3</title>
<g id="a_edge2_Node000001_Node000003"><a xlink:title=" ">
<path fill="none" stroke="#63b8ff" d="M485.45,-69.12C413.74,-61.94 310.57,-49.73 221.5,-32 217.48,-31.2 213.32,-30.26 209.17,-29.26"/>
<polygon fill="#63b8ff" stroke="#63b8ff" points="210.33,-25.95 199.78,-26.86 208.6,-32.73 210.33,-25.95"/>
</a>
</g>
</g>
<!-- Node4 -->
<g id="Node000004" class="node">
<title>Node4</title>
<g id="a_Node000004"><a xlink:title=" ">
<polygon fill="#e0e0e0" stroke="#999999" points="298.75,-26 230.25,-26 230.25,-6 298.75,-6 298.75,-26"/>
<text xml:space="preserve" text-anchor="middle" x="264.5" y="-12.5" font-family="Helvetica,sans-Serif" font-size="10.00">java.util.List</text>
</a>
</g>
</g>
<!-- Node1&#45;&gt;Node4 -->
<g id="edge3_Node000001_Node000004" class="edge">
<title>Node1&#45;&gt;Node4</title>
<g id="a_edge3_Node000001_Node000004"><a xlink:title=" ">
<path fill="none" stroke="#63b8ff" d="M497.54,-67.53C443.8,-60.08 370.67,-48.22 307.5,-32 305.07,-31.38 302.59,-30.68 300.1,-29.93"/>
<polygon fill="#63b8ff" stroke="#63b8ff" points="301.33,-26.65 290.73,-26.91 299.18,-33.31 301.33,-26.65"/>
</a>
</g>
</g>
<!-- Node5 -->
<g id="Node000005" class="node">
<title>Node5</title>
<g id="a_Node000005"><a xlink:title=" ">
<polygon fill="#e0e0e0" stroke="#999999" points="476.5,-32 316.5,-32 316.5,0 476.5,0 476.5,-32"/>
<text xml:space="preserve" text-anchor="start" x="324.5" y="-18.5" font-family="Helvetica,sans-Serif" font-size="10.00">com.bank.model.orders.Payment</text>
<text xml:space="preserve" text-anchor="middle" x="396.5" y="-6.5" font-family="Helvetica,sans-Serif" font-size="10.00">Order</text>
</a>
</g>
</g>
<!-- Node1&#45;&gt;Node5 -->
<g id="edge4_Node000001_Node000005" class="edge">
<title>Node1&#45;&gt;Node5</title>
<g id="a_edge4_Node000001_Node000005"><a xlink:title=" ">
<path fill="none" stroke="#63b8ff" d="M546.69,-67.62C521.76,-59.22 484.42,-46.64 453.21,-36.12"/>
<polygon fill="#63b8ff" stroke="#63b8ff" points="454.48,-32.85 443.89,-32.97 452.25,-39.48 454.48,-32.85"/>
</a>
</g>
</g>
<!-- Node6 -->
<g id="Node000006" class="node">
<title>Node6</title>
<g id="a_Node000006"><a xlink:title=" ">
<polygon fill="#e0e0e0" stroke="#999999" points="654.12,-32 494.88,-32 494.88,0 654.12,0 654.12,-32"/>
<text xml:space="preserve" text-anchor="start" x="502.88" y="-18.5" font-family="Helvetica,sans-Serif" font-size="10.00">com.bank.model.orders.Standing</text>
<text xml:space="preserve" text-anchor="middle" x="574.5" y="-6.5" font-family="Helvetica,sans-Serif" font-size="10.00">Order</text>
</a>
</g>
</g>
<!-- Node1&#45;&gt;Node6 -->
<g id="edge5_Node000001_Node000006" class="edge">
<title>Node1&#45;&gt;Node6</title>
<g id="a_edge5_Node000001_Node000006"><a xlink:title=" ">
<path fill="none" stroke="#63b8ff" d="M574.5,-67.62C574.5,-61.1 574.5,-52.05 574.5,-43.4"/>
<polygon fill="#63b8ff" stroke="#63b8ff" points="578,-43.65 574.5,-33.65 571,-43.65 578,-43.65"/>
</a>
</g>
</g>
<!-- Node7 -->
<g id="Node000007" class="node">
<title>Node7</title>
<g id="a_Node000007"><a xlink:title=" ">
<polygon fill="#e0e0e0" stroke="#999999" points="829,-32 672,-32 672,0 829,0 829,-32"/>
<text xml:space="preserve" text-anchor="start" x="680" y="-18.5" font-family="Helvetica,sans-Serif" font-size="10.00">com.bank.model.orders.Transfer</text>
<text xml:space="preserve" text-anchor="middle" x="750.5" y="-6.5" font-family="Helvetica,sans-Serif" font-size="10.00">Order</text>
</a>
</g>
</g>
<!-- Node1&#45;&gt;Node7 -->
<g id="edge6_Node000001_Node000007" class="edge">
<title>Node1&#45;&gt;Node7</title>
<g id="a_edge6_Node000001_Node000007"><a xlink:title=" ">
<path fill="none" stroke="#63b8ff" d="M602,-67.62C626.65,-59.22 663.57,-46.64 694.43,-36.12"/>
<polygon fill="#63b8ff" stroke="#63b8ff" points="695.29,-39.52 703.63,-32.98 693.03,-32.89 695.29,-39.52"/>
</a>
</g>
</g>
<!-- Node8 -->
<g id="Node000008" class="node">
<title>Node8</title>
<g id="a_Node000008"><a xlink:title=" ">
<polygon fill="#e0e0e0" stroke="#999999" points="986,-26 847,-26 847,-6 986,-6 986,-26"/>
<text xml:space="preserve" text-anchor="middle" x="916.5" y="-12.5" font-family="Helvetica,sans-Serif" font-size="10.00">com.bank.model.users.User</text>
</a>
</g>
</g>
<!-- Node1&#45;&gt;Node8 -->
<g id="edge7_Node000001_Node000008" class="edge">
<title>Node1&#45;&gt;Node8</title>
<g id="a_edge7_Node000001_Node000008"><a xlink:title=" ">
<path fill="none" stroke="#63b8ff" d="M632.24,-67.52C685.77,-58.64 767.59,-44.86 838.5,-32 844.52,-30.91 850.8,-29.74 857.06,-28.57"/>
<polygon fill="#63b8ff" stroke="#63b8ff" points="857.6,-32.03 866.78,-26.72 856.3,-25.15 857.6,-32.03"/>
</a>
</g>
</g>
<!-- Node9 -->
<g id="Node000009" class="node">
<title>Node9</title>
<g id="a_Node000009"><a xlink:title=" ">
<polygon fill="#e0e0e0" stroke="#999999" points="1152.88,-32 1004.12,-32 1004.12,0 1152.88,0 1152.88,-32"/>
<text xml:space="preserve" text-anchor="start" x="1012.12" y="-18.5" font-family="Helvetica,sans-Serif" font-size="10.00">com.bank.storage.CsvStorage</text>
<text xml:space="preserve" text-anchor="middle" x="1078.5" y="-6.5" font-family="Helvetica,sans-Serif" font-size="10.00">Manager</text>
</a>
</g>
</g>
<!-- Node1&#45;&gt;Node9 -->
<g id="edge8_Node000001_Node000009" class="edge">
<title>Node1&#45;&gt;Node9</title>
<g id="a_edge8_Node000001_Node000009"><a xlink:title=" ">
<path fill="none" stroke="#63b8ff" d="M663.44,-69.38C746.22,-61.85 873.29,-49.2 992.72,-32.34"/>
<polygon fill="#63b8ff" stroke="#63b8ff" points="992.98,-35.84 1002.39,-30.96 991.99,-28.91 992.98,-35.84"/>
</a>
</g>
</g>
<!-- Node10 -->
<g id="Node000010" class="node">
<title>Node10</title>
<g id="a_Node000010"><a xlink:title=" ">
<polygon fill="#e0e0e0" stroke="#999999" points="1294.12,-32 1170.88,-32 1170.88,0 1294.12,0 1294.12,-32"/>
<text xml:space="preserve" text-anchor="start" x="1178.88" y="-18.5" font-family="Helvetica,sans-Serif" font-size="10.00">com.bank.utilities.Global</text>
<text xml:space="preserve" text-anchor="middle" x="1232.5" y="-6.5" font-family="Helvetica,sans-Serif" font-size="10.00">Clock</text>
</a>
</g>
</g>
<!-- Node1&#45;&gt;Node10 -->
<g id="edge9_Node000001_Node000010" class="edge">
<title>Node1&#45;&gt;Node10</title>
<g id="a_edge9_Node000001_Node000010"><a xlink:title=" ">
<path fill="none" stroke="#63b8ff" d="M663.4,-73.83C776.37,-68.99 977.5,-57.64 1159.24,-32.19"/>
<polygon fill="#63b8ff" stroke="#63b8ff" points="1159.72,-35.66 1169.13,-30.79 1158.74,-28.73 1159.72,-35.66"/>
</a>
</g>
</g>
</g>
</svg>
