<?xml version="1.0" encoding="UTF-8" standalone="no"?>
<!DOCTYPE svg PUBLIC "-//W3C//DTD SVG 1.1//EN"
 "http://www.w3.org/Graphics/SVG/1.1/DTD/svg11.dtd">
<!-- Generated by graphviz version 14.0.1 (20251006.0113)
 -->
<!-- Title: com.bank.manager.AccountManager.load Pages: 1 -->
<svg width="350pt" height="290pt"
 viewBox="0.00 0.00 350.00 290.00" xmlns="http://www.w3.org/2000/svg" xmlns:xlink="http://www.w3.org/1999/xlink">

<svg id="main" version="1.1" xmlns="http://www.w3.org/2000/svg" xmlns:xlink="http://www.w3.org/1999/xlink" xml:space="preserve">

<style type="text/css"><![CDATA[
.node, .edge {opacity: 0.7;}
.node.selected, .edge.selected {opacity: 1;}
.edge:hover path { stroke: red; }
.edge:hover polygon { stroke: red; fill: red; }
]]></style>
<script type="application/ecmascript" xlink:href="../../svg.min.js"/>
<svg id="graph" class="graph">
<g id="graph0" class="graph" transform="scale(1 1) rotate(0) translate(4 286)">
<title>com.bank.manager.AccountManager.load</title>
<!-- Node1 -->
<g id="Node000001" class="node">
<title>Node1</title>
<g id="a_Node000001"><a xlink:title="Loads accounts from CSV into memory.">
<polygon fill="#999999" stroke="#666666" points="138.25,-157 0,-157 0,-125 138.25,-125 138.25,-157"/>
<text xml:space="preserve" text-anchor="start" x="8" y="-143.5" font-family="Helvetica,sans-Serif" font-size="10.00">com.bank.manager.Account</text>
<text xml:space="preserve" text-anchor="middle" x="69.12" y="-131.5" font-family="Helvetica,sans-Serif" font-size="10.00">Manager.load</text>
</a>
</g>
</g>
<!-- Node2 -->
<g id="Node000002" class="node">
<title>Node2</title>
<g id="a_Node000002"><a xlink:href="../../dc/df2/classcom_1_1bank_1_1model_1_1accounts_1_1_personal_account.html#ad82a2a028f6260d252a83cb525e81280" target="_top" xlink:title="Adds a co&#45;owner to this personal account.">
<polygon fill="white" stroke="#666666" points="333.12,-282 182.88,-282 182.88,-250 333.12,-250 333.12,-282"/>
<text xml:space="preserve" text-anchor="start" x="190.88" y="-268.5" font-family="Helvetica,sans-Serif" font-size="10.00">com.bank.model.accounts.</text>
<text xml:space="preserve" text-anchor="middle" x="258" y="-256.5" font-family="Helvetica,sans-Serif" font-size="10.00">PersonalAccount.addCoOwner</text>
</a>
</g>
</g>
<!-- Node1&#45;&gt;Node2 -->
<g id="edge1_Node000001_Node000002" class="edge">
<title>Node1&#45;&gt;Node2</title>
<g id="a_edge1_Node000001_Node000002"><a xlink:title=" ">
<path fill="none" stroke="#63b8ff" d="M82.81,-157.29C100.84,-179.37 135.96,-218.6 174.25,-241 176.69,-242.43 179.21,-243.78 181.8,-245.06"/>
<polygon fill="#63b8ff" stroke="#63b8ff" points="180.1,-248.13 190.66,-249.03 182.96,-241.74 180.1,-248.13"/>
</a>
</g>
</g>
<!-- Node3 -->
<g id="Node000003" class="node">
<title>Node3</title>
<g id="a_Node000003"><a xlink:href="../../dc/df2/classcom_1_1bank_1_1model_1_1accounts_1_1_personal_account.html#a00b8b9c6c4343b0c79612f5e240534ec" target="_top" xlink:title="Returns the VAT identifiers of co&#45;owners parsed during loading.">
<polygon fill="white" stroke="#666666" points="341.75,-232 174.25,-232 174.25,-200 341.75,-200 341.75,-232"/>
<text xml:space="preserve" text-anchor="start" x="182.25" y="-218.5" font-family="Helvetica,sans-Serif" font-size="10.00">com.bank.model.accounts.</text>
<text xml:space="preserve" text-anchor="middle" x="258" y="-206.5" font-family="Helvetica,sans-Serif" font-size="10.00">PersonalAccount.getCoOwnerVats</text>
</a>
</g>
</g>
<!-- Node1&#45;&gt;Node3 -->
<g id="edge2_Node000001_Node000003" class="edge">
<title>Node1&#45;&gt;Node3</title>
<g id="a_edge2_Node000001_Node000003"><a xlink:title=" ">
<path fill="none" stroke="#63b8ff" d="M101.01,-157.38C121.44,-167.83 149.02,-181.2 174.25,-191 178.66,-192.71 183.23,-194.38 187.87,-195.99"/>
<polygon fill="#63b8ff" stroke="#63b8ff" points="186.71,-199.3 197.31,-199.16 188.94,-192.66 186.71,-199.3"/>
</a>
</g>
</g>
<!-- Node4 -->
<g id="Node000004" class="node">
<title>Node4</title>
<g id="a_Node000004"><a xlink:href="../../da/d83/classcom_1_1bank_1_1model_1_1accounts_1_1_account.html#aa943c031213311a46e833a8e2b4b80b9" target="_top" xlink:title=" ">
<polygon fill="white" stroke="#666666" points="324.88,-182 191.12,-182 191.12,-150 324.88,-150 324.88,-182"/>
<text xml:space="preserve" text-anchor="start" x="199.12" y="-168.5" font-family="Helvetica,sans-Serif" font-size="10.00">com.bank.model.accounts.</text>
<text xml:space="preserve" text-anchor="middle" x="258" y="-156.5" font-family="Helvetica,sans-Serif" font-size="10.00">Account.setBalance</text>
</a>
</g>
</g>
<!-- Node1&#45;&gt;Node4 -->
<g id="edge3_Node000001_Node000004" class="edge">
<title>Node1&#45;&gt;Node4</title>
<g id="a_edge3_Node000001_Node000004"><a xlink:title=" ">
<path fill="none" stroke="#63b8ff" d="M138.65,-150.17C151.91,-151.94 165.9,-153.81 179.43,-155.62"/>
<polygon fill="#63b8ff" stroke="#63b8ff" points="178.79,-159.07 189.16,-156.93 179.72,-152.13 178.79,-159.07"/>
</a>
</g>
</g>
<!-- Node5 -->
<g id="Node000005" class="node">
<title>Node5</title>
<g id="a_Node000005"><a xlink:href="../../da/d83/classcom_1_1bank_1_1model_1_1accounts_1_1_account.html#a5c90e0c185175ac9b2efa3e2ca8e39df" target="_top" xlink:title=" ">
<polygon fill="white" stroke="#666666" points="324.88,-132 191.12,-132 191.12,-100 324.88,-100 324.88,-132"/>
<text xml:space="preserve" text-anchor="start" x="199.12" y="-118.5" font-family="Helvetica,sans-Serif" font-size="10.00">com.bank.model.accounts.</text>
<text xml:space="preserve" text-anchor="middle" x="258" y="-106.5" font-family="Helvetica,sans-Serif" font-size="10.00">Account.setDateCreated</text>
</a>
</g>
</g>
<!-- Node1&#45;&gt;Node5 -->
<g id="edge4_Node000001_Node000005" class="edge">
<title>Node1&#45;&gt;Node5</title>
<g id="a_edge4_Node000001_Node000005"><a xlink:title=" ">
<path fill="none" stroke="#63b8ff" d="M138.65,-131.83C151.91,-130.06 165.9,-128.19 179.43,-126.38"/>
<polygon fill="#63b8ff" stroke="#63b8ff" points="179.72,-129.87 189.16,-125.07 178.79,-122.93 179.72,-129.87"/>
</a>
</g>
</g>
<!-- Node6 -->
<g id="Node000006" class="node">
<title>Node6</title>
<g id="a_Node000006"><a xlink:href="../../da/d83/classcom_1_1bank_1_1model_1_1accounts_1_1_account.html#a612fa744909ae3c3e9ef01f040d4f9df" target="_top" xlink:title=" ">
<polygon fill="white" stroke="#666666" points="324.88,-82 191.12,-82 191.12,-50 324.88,-50 324.88,-82"/>
<text xml:space="preserve" text-anchor="start" x="199.12" y="-68.5" font-family="Helvetica,sans-Serif" font-size="10.00">com.bank.model.accounts.</text>
<text xml:space="preserve" text-anchor="middle" x="258" y="-56.5" font-family="Helvetica,sans-Serif" font-size="10.00">Account.setIban</text>
</a>
</g>
</g>
<!-- Node1&#45;&gt;Node6 -->
<g id="edge5_Node000001_Node000006" class="edge">
<title>Node1&#45;&gt;Node6</title>
<g id="a_edge5_Node000001_Node000006"><a xlink:title=" ">
<path fill="none" stroke="#63b8ff" d="M101.01,-124.62C121.44,-114.17 149.02,-100.8 174.25,-91 178.66,-89.29 183.23,-87.62 187.87,-86.01"/>
<polygon fill="#63b8ff" stroke="#63b8ff" points="188.94,-89.34 197.31,-82.84 186.71,-82.7 188.94,-89.34"/>
</a>
</g>
</g>
<!-- Node7 -->
<g id="Node000007" class="node">
<title>Node7</title>
<g id="a_Node000007"><a xlink:href="../../da/d83/classcom_1_1bank_1_1model_1_1accounts_1_1_account.html#a9310000b791eb785ef80e11540d04c46" target="_top" xlink:title="Deserializes fields from a key&#45;value string produced by marshal().">
<polygon fill="white" stroke="#666666" points="324.88,-32 191.12,-32 191.12,0 324.88,0 324.88,-32"/>
<text xml:space="preserve" text-anchor="start" x="199.12" y="-18.5" font-family="Helvetica,sans-Serif" font-size="10.00">com.bank.model.accounts.</text>
<text xml:space="preserve" text-anchor="middle" x="258" y="-6.5" font-family="Helvetica,sans-Serif" font-size="10.00">Account.unmarshal</text>
</a>
</g>
</g>
<!-- Node1&#45;&gt;Node7 -->
<g id="edge6_Node000001_Node000007" class="edge">
<title>Node1&#45;&gt;Node7</title>
<g id="a_edge6_Node000001_Node000007"><a xlink:title=" ">
<path fill="none" stroke="#63b8ff" d="M82.81,-124.71C100.84,-102.63 135.96,-63.4 174.25,-41 176.69,-39.57 179.21,-38.22 181.8,-36.94"/>
<polygon fill="#63b8ff" stroke="#63b8ff" points="182.96,-40.26 190.66,-32.97 180.1,-33.87 182.96,-40.26"/>
</a>
</g>
</g>
</g>
</svg>
</svg>

<style type='text/css'>
<![CDATA[
[data-mouse-over-selected='false'] { opacity: 0.7; }
[data-mouse-over-selected='true']  { opacity: 1.0; }
]]>
</style>
<script type="application/ecmascript"><![CDATA[
document.addEventListener('DOMContentLoaded', (event) => {
  highlightEdges();
  highlightAdjacentNodes();
});
]]></script>
</svg>
