<?xml version="1.0" encoding="UTF-8" standalone="no"?>
<!DOCTYPE svg PUBLIC "-//W3C//DTD SVG 1.1//EN"
 "http://www.w3.org/Graphics/SVG/1.1/DTD/svg11.dtd">
<!-- Generated by graphviz version 14.0.1 (20251006.0113)
 -->
<!-- Title: com.bank.manager.AccountManager.findByIban Pages: 1 -->
<svg width="368pt" height="464pt"
 viewBox="0.00 0.00 368.00 464.00" xmlns="http://www.w3.org/2000/svg" xmlns:xlink="http://www.w3.org/1999/xlink">
<g id="graph0" class="graph" transform="scale(1 1) rotate(0) translate(4 460)">
<title>com.bank.manager.AccountManager.findByIban</title>
<!-- Node1 -->
<g id="Node000001" class="node">
<title>Node1</title>
<g id="a_Node000001"><a xlink:title="Finds an account by IBAN.">
<polygon fill="#999999" stroke="#666666" points="359.75,-232 221.5,-232 221.5,-200 359.75,-200 359.75,-232"/>
<text xml:space="preserve" text-anchor="start" x="229.5" y="-218.5" font-family="Helvetica,sans-Serif" font-size="10.00">com.bank.manager.Account</text>
<text xml:space="preserve" text-anchor="middle" x="290.62" y="-206.5" font-family="Helvetica,sans-Serif" font-size="10.00">Manager.findByIban</text>
</a>
</g>
</g>
<!-- Node2 -->
<g id="Node000002" class="node">
<title>Node2</title>
<g id="a_Node000002"><a xlink:href="../../dd/d41/classcom_1_1bank_1_1gui_1_1view_1_1panel_1_1_admin_account_details_panel.html#a78d537f580f0dddc9983b57244f0532f" target="_top" xlink:title="Δημιουργεί το panel προβολής λεπτομερειών λογαριασμού.">
<polygon fill="white" stroke="#666666" points="175.75,-456 9.75,-456 9.75,-412 175.75,-412 175.75,-456"/>
<text xml:space="preserve" text-anchor="start" x="17.75" y="-442.5" font-family="Helvetica,sans-Serif" font-size="10.00">com.bank.gui.view.panel.</text>
<text xml:space="preserve" text-anchor="start" x="17.75" y="-430.5" font-family="Helvetica,sans-Serif" font-size="10.00">AdminAccountDetailsPanel.Admin</text>
<text xml:space="preserve" text-anchor="middle" x="92.75" y="-418.5" font-family="Helvetica,sans-Serif" font-size="10.00">AccountDetailsPanel</text>
</a>
</g>
</g>
<!-- Node1&#45;&gt;Node2 -->
<g id="edge1_Node000001_Node000002" class="edge">
<title>Node1&#45;&gt;Node2</title>
<g id="a_edge1_Node000001_Node000002"><a xlink:title=" ">
<path fill="none" stroke="#63b8ff" d="M281.49,-243.28C268.03,-283.82 237.35,-359.83 185.5,-403 181.62,-406.23 177.4,-409.12 172.95,-411.72"/>
<polygon fill="#63b8ff" stroke="#63b8ff" points="284.8,-244.41 284.51,-233.82 278.13,-242.28 284.8,-244.41"/>
</a>
</g>
</g>
<!-- Node3 -->
<g id="Node000003" class="node">
<title>Node3</title>
<g id="a_Node000003"><a xlink:href="../../d0/d7a/classcom_1_1bank_1_1gui_1_1view_1_1panel_1_1_admin_account_statements_panel.html#a71db6191ffbc00e50dfe72d28e127e26" target="_top" xlink:title="Δημιουργεί το panel προβολής κινήσεων λογαριασμού.">
<polygon fill="white" stroke="#666666" points="171.62,-394 13.88,-394 13.88,-350 171.62,-350 171.62,-394"/>
<text xml:space="preserve" text-anchor="start" x="21.88" y="-380.5" font-family="Helvetica,sans-Serif" font-size="10.00">com.bank.gui.view.panel.</text>
<text xml:space="preserve" text-anchor="start" x="21.88" y="-368.5" font-family="Helvetica,sans-Serif" font-size="10.00">AdminAccountStatementsPanel.</text>
<text xml:space="preserve" text-anchor="middle" x="92.75" y="-356.5" font-family="Helvetica,sans-Serif" font-size="10.00">AdminAccountStatementsPanel</text>
</a>
</g>
</g>
<!-- Node1&#45;&gt;Node3 -->
<g id="edge2_Node000001_Node000003" class="edge">
<title>Node1&#45;&gt;Node3</title>
<g id="a_edge2_Node000001_Node000003"><a xlink:title=" ">
<path fill="none" stroke="#63b8ff" d="M274.29,-241.83C256.34,-269.98 224.09,-314.54 185.5,-341 180.92,-344.14 176,-346.98 170.9,-349.56"/>
<polygon fill="#63b8ff" stroke="#63b8ff" points="277.13,-243.89 279.45,-233.55 271.19,-240.19 277.13,-243.89"/>
</a>
</g>
</g>
<!-- Node4 -->
<g id="Node000004" class="node">
<title>Node4</title>
<g id="a_Node000004"><a xlink:href="../../dd/d30/classcom_1_1bank_1_1gui_1_1view_1_1panel_1_1_admin_pay_bill_panel.html#a973563a6943f3648632453279e518cb1" target="_top" xlink:title="Δημιουργεί το panel πληρωμής λογαριασμού από Admin.">
<polygon fill="white" stroke="#666666" points="185.5,-332 0,-332 0,-300 185.5,-300 185.5,-332"/>
<text xml:space="preserve" text-anchor="start" x="8" y="-318.5" font-family="Helvetica,sans-Serif" font-size="10.00">com.bank.gui.view.panel.</text>
<text xml:space="preserve" text-anchor="middle" x="92.75" y="-306.5" font-family="Helvetica,sans-Serif" font-size="10.00">AdminPayBillPanel.AdminPayBillPanel</text>
</a>
</g>
</g>
<!-- Node1&#45;&gt;Node4 -->
<g id="edge3_Node000001_Node000004" class="edge">
<title>Node1&#45;&gt;Node4</title>
<g id="a_edge3_Node000001_Node000004"><a xlink:title=" ">
<path fill="none" stroke="#63b8ff" d="M262.78,-239.5C242.7,-255.99 213.92,-277.44 185.5,-291 178.79,-294.2 171.61,-297.05 164.33,-299.57"/>
<polygon fill="#63b8ff" stroke="#63b8ff" points="264.78,-242.39 270.2,-233.28 260.29,-237.02 264.78,-242.39"/>
</a>
</g>
</g>
<!-- Node5 -->
<g id="Node000005" class="node">
<title>Node5</title>
<g id="a_Node000005"><a xlink:href="../../d4/df3/classcom_1_1bank_1_1gui_1_1view_1_1panel_1_1_deposit_panel.html#a910b6db8aa423e0d595a89c256382be9" target="_top" xlink:title="Δημιουργεί panel για εκτέλεση κατάθεσης σε έναν από τους λογαριασμούς του χρήστη.">
<polygon fill="white" stroke="#666666" points="160.75,-282 24.75,-282 24.75,-250 160.75,-250 160.75,-282"/>
<text xml:space="preserve" text-anchor="start" x="32.75" y="-268.5" font-family="Helvetica,sans-Serif" font-size="10.00">com.bank.gui.view.panel.</text>
<text xml:space="preserve" text-anchor="middle" x="92.75" y="-256.5" font-family="Helvetica,sans-Serif" font-size="10.00">DepositPanel.DepositPanel</text>
</a>
</g>
</g>
<!-- Node1&#45;&gt;Node5 -->
<g id="edge4_Node000001_Node000005" class="edge">
<title>Node1&#45;&gt;Node5</title>
<g id="a_edge4_Node000001_Node000005"><a xlink:title=" ">
<path fill="none" stroke="#63b8ff" d="M214.19,-235.26C195.71,-239.97 176.1,-244.98 158.2,-249.55"/>
<polygon fill="#63b8ff" stroke="#63b8ff" points="214.93,-238.68 223.75,-232.82 213.2,-231.9 214.93,-238.68"/>
</a>
</g>
</g>
<!-- Node6 -->
<g id="Node000006" class="node">
<title>Node6</title>
<g id="a_Node000006"><a xlink:href="../../dc/d2a/classcom_1_1bank_1_1model_1_1orders_1_1_payment_order.html#a439eabdedf52f8c33708338984440c6e" target="_top" xlink:title="Executes the payment order on the specified payment day.">
<polygon fill="white" stroke="#666666" points="172.75,-232 12.75,-232 12.75,-200 172.75,-200 172.75,-232"/>
<text xml:space="preserve" text-anchor="start" x="20.75" y="-218.5" font-family="Helvetica,sans-Serif" font-size="10.00">com.bank.model.orders.Payment</text>
<text xml:space="preserve" text-anchor="middle" x="92.75" y="-206.5" font-family="Helvetica,sans-Serif" font-size="10.00">Order.execute</text>
</a>
</g>
</g>
<!-- Node1&#45;&gt;Node6 -->
<g id="edge5_Node000001_Node000006" class="edge">
<title>Node1&#45;&gt;Node6</title>
<g id="a_edge5_Node000001_Node000006"><a xlink:title=" ">
<path fill="none" stroke="#63b8ff" d="M209.65,-216C197.54,-216 185.05,-216 172.96,-216"/>
<polygon fill="#63b8ff" stroke="#63b8ff" points="209.6,-219.5 219.6,-216 209.6,-212.5 209.6,-219.5"/>
</a>
</g>
</g>
<!-- Node7 -->
<g id="Node000007" class="node">
<title>Node7</title>
<g id="a_Node000007"><a xlink:href="../../d4/d34/classcom_1_1bank_1_1model_1_1orders_1_1_transfer_order.html#a043fd034f18ed31a9ad9fc95e2180dc6" target="_top" xlink:title="Executes the transfer if the date matches the schedule and funds are sufficient.">
<polygon fill="white" stroke="#666666" points="171.25,-182 14.25,-182 14.25,-150 171.25,-150 171.25,-182"/>
<text xml:space="preserve" text-anchor="start" x="22.25" y="-168.5" font-family="Helvetica,sans-Serif" font-size="10.00">com.bank.model.orders.Transfer</text>
<text xml:space="preserve" text-anchor="middle" x="92.75" y="-156.5" font-family="Helvetica,sans-Serif" font-size="10.00">Order.execute</text>
</a>
</g>
</g>
<!-- Node1&#45;&gt;Node7 -->
<g id="edge6_Node000001_Node000007" class="edge">
<title>Node1&#45;&gt;Node7</title>
<g id="a_edge6_Node000001_Node000007"><a xlink:title=" ">
<path fill="none" stroke="#63b8ff" d="M214.19,-196.74C195.71,-192.03 176.1,-187.02 158.2,-182.45"/>
<polygon fill="#63b8ff" stroke="#63b8ff" points="213.2,-200.1 223.75,-199.18 214.93,-193.32 213.2,-200.1"/>
</a>
</g>
</g>
<!-- Node8 -->
<g id="Node000008" class="node">
<title>Node8</title>
<g id="a_Node000008"><a xlink:href="../../dc/dd6/classcom_1_1bank_1_1gui_1_1view_1_1panel_1_1_pay_bill_panel.html#a36e2af99e6d3c4df782013e94e77f6a4" target="_top" xlink:title="Δημιουργεί panel για πληρωμή λογαριασμού με RF code.">
<polygon fill="white" stroke="#666666" points="157.75,-132 27.75,-132 27.75,-100 157.75,-100 157.75,-132"/>
<text xml:space="preserve" text-anchor="start" x="35.75" y="-118.5" font-family="Helvetica,sans-Serif" font-size="10.00">com.bank.gui.view.panel.</text>
<text xml:space="preserve" text-anchor="middle" x="92.75" y="-106.5" font-family="Helvetica,sans-Serif" font-size="10.00">PayBillPanel.PayBillPanel</text>
</a>
</g>
</g>
<!-- Node1&#45;&gt;Node8 -->
<g id="edge7_Node000001_Node000008" class="edge">
<title>Node1&#45;&gt;Node8</title>
<g id="a_edge7_Node000001_Node000008"><a xlink:title=" ">
<path fill="none" stroke="#63b8ff" d="M262.78,-192.5C242.7,-176.01 213.92,-154.56 185.5,-141 176.86,-136.88 167.42,-133.34 158,-130.33"/>
<polygon fill="#63b8ff" stroke="#63b8ff" points="260.29,-194.98 270.2,-198.72 264.78,-189.61 260.29,-194.98"/>
</a>
</g>
</g>
<!-- Node9 -->
<g id="Node000009" class="node">
<title>Node9</title>
<g id="a_Node000009"><a xlink:href="../../dc/d10/classcom_1_1bank_1_1gui_1_1view_1_1panel_1_1_transfer_panel.html#a8a794a4df9795e83bd93ab1709e44676" target="_top" xlink:title="Δημιουργεί το panel μεταφοράς χρημάτων για τον τρέχοντα χρήστη.">
<polygon fill="white" stroke="#666666" points="163,-82 22.5,-82 22.5,-50 163,-50 163,-82"/>
<text xml:space="preserve" text-anchor="start" x="30.5" y="-68.5" font-family="Helvetica,sans-Serif" font-size="10.00">com.bank.gui.view.panel.</text>
<text xml:space="preserve" text-anchor="middle" x="92.75" y="-56.5" font-family="Helvetica,sans-Serif" font-size="10.00">TransferPanel.TransferPanel</text>
</a>
</g>
</g>
<!-- Node1&#45;&gt;Node9 -->
<g id="edge8_Node000001_Node000009" class="edge">
<title>Node1&#45;&gt;Node9</title>
<g id="a_edge8_Node000001_Node000009"><a xlink:title=" ">
<path fill="none" stroke="#63b8ff" d="M274.87,-190.19C257.23,-161.68 225.07,-116.43 185.5,-91 178.69,-86.63 171.13,-83.01 163.35,-80.02"/>
<polygon fill="#63b8ff" stroke="#63b8ff" points="271.76,-191.82 279.91,-198.58 277.75,-188.21 271.76,-191.82"/>
</a>
</g>
</g>
<!-- Node10 -->
<g id="Node000010" class="node">
<title>Node10</title>
<g id="a_Node000010"><a xlink:href="../../d3/da8/classcom_1_1bank_1_1gui_1_1view_1_1panel_1_1_withdraw_panel.html#abd3072a053a9ffdcb84c7828c6a49860" target="_top" xlink:title="Δημιουργεί το panel ανάληψης χρημάτων.">
<polygon fill="white" stroke="#666666" points="168.25,-32 17.25,-32 17.25,0 168.25,0 168.25,-32"/>
<text xml:space="preserve" text-anchor="start" x="25.25" y="-18.5" font-family="Helvetica,sans-Serif" font-size="10.00">com.bank.gui.view.panel.</text>
<text xml:space="preserve" text-anchor="middle" x="92.75" y="-6.5" font-family="Helvetica,sans-Serif" font-size="10.00">WithdrawPanel.WithdrawPanel</text>
</a>
</g>
</g>
<!-- Node1&#45;&gt;Node10 -->
<g id="edge9_Node000001_Node000010" class="edge">
<title>Node1&#45;&gt;Node10</title>
<g id="a_edge9_Node000001_Node000010"><a xlink:title=" ">
<path fill="none" stroke="#63b8ff" d="M280.99,-189.21C267.13,-150.55 236.22,-79.56 185.5,-41 180.37,-37.1 174.68,-33.81 168.71,-31.04"/>
<polygon fill="#63b8ff" stroke="#63b8ff" points="277.52,-189.91 284.1,-198.22 284.14,-187.62 277.52,-189.91"/>
</a>
</g>
</g>
</g>
</svg>
