<?xml version="1.0" encoding="UTF-8" standalone="no"?>
<!DOCTYPE svg PUBLIC "-//W3C//DTD SVG 1.1//EN"
 "http://www.w3.org/Graphics/SVG/1.1/DTD/svg11.dtd">
<!-- Generated by graphviz version 14.0.1 (20251006.0113)
 -->
<!-- Title: com.bank.manager.AccountManager.getAllAccounts Pages: 1 -->
<!--zoomable 538 -->

<svg id="main" version="1.1" xmlns="http://www.w3.org/2000/svg" xmlns:xlink="http://www.w3.org/1999/xlink" xml:space="preserve" onload="init(evt)">

<style type="text/css"><![CDATA[
.node, .edge {opacity: 0.7;}
.node.selected, .edge.selected {opacity: 1;}
.edge:hover path { stroke: red; }
.edge:hover polygon { stroke: red; fill: red; }
]]></style>

<defs>
  <circle id="rim" cx="0" cy="0" r="7"/>
  <circle id="rim2" cx="0" cy="0" r="3.5"/>
  <g id="zoomPlus">
    <use xlink:href="#rim" fill="#404040"><set attributeName="fill" to="#808080" begin="zoomplus.mouseover" end="zoomplus.mouseout"/></use>
    <path d="M-4,0h8M0,-4v8" fill="none" stroke="white" stroke-width="1.5" pointer-events="none"/>
  </g>
  <g id="zoomMin">
    <use xlink:href="#rim" fill="#404040"><set attributeName="fill" to="#808080" begin="zoomminus.mouseover" end="zoomminus.mouseout"/></use>
    <path d="M-4,0h8" fill="none" stroke="white" stroke-width="1.5" pointer-events="none"/>
  </g>
  <g id="arrowUp" transform="translate(30 24)">
    <use xlink:href="#rim"/>
    <path pointer-events="none" fill="none" stroke="white" stroke-width="1.5" d="M0,-3.0v7 M-2.5,-0.5L0,-3.0L2.5,-0.5"/>
  </g>
  <g id="arrowRight" transform="rotate(90) translate(36 -43)">
    <use xlink:href="#rim"/>
    <path pointer-events="none" fill="none" stroke="white" stroke-width="1.5" d="M0,-3.0v7 M-2.5,-0.5L0,-3.0L2.5,-0.5"/>
  </g>
  <g id="arrowDown" transform="rotate(180) translate(-30 -48)">
    <use xlink:href="#rim"/>
    <path pointer-events="none" fill="none" stroke="white" stroke-width="1.5" d="M0,-3.0v7 M-2.5,-0.5L0,-3.0L2.5,-0.5"/>
  </g>
  <g id="arrowLeft" transform="rotate(270) translate(-36 17)">
    <use xlink:href="#rim"/>
    <path pointer-events="none" fill="none" stroke="white" stroke-width="1.5" d="M0,-3.0v7 M-2.5,-0.5L0,-3.0L2.5,-0.5"/>
  </g>
  <g id="resetDef">
    <use xlink:href="#rim2" fill="#404040"><set attributeName="fill" to="#808080" begin="reset.mouseover" end="reset.mouseout"/></use>
  </g>
</defs>
<script type="application/ecmascript">
var viewWidth = 369;
var viewHeight = 538;
var sectionId = 'dynsection-4';
</script>
<script type="application/ecmascript" xlink:href="../../svg.min.js"/>
<svg id="graph" class="graph">
<g id="viewport">
<title>com.bank.manager.AccountManager.getAllAccounts</title>
<!-- Node1 -->
<g id="Node000001" class="node">
<title>Node1</title>
<g id="a_Node000001"><a xlink:title="Returns all loaded accounts.">
<polygon fill="#999999" stroke="#666666" points="361.25,-266 223,-266 223,-234 361.25,-234 361.25,-266"/>
<text xml:space="preserve" text-anchor="start" x="231" y="-252.5" font-family="Helvetica,sans-Serif" font-size="10.00">com.bank.manager.Account</text>
<text xml:space="preserve" text-anchor="middle" x="292.12" y="-240.5" font-family="Helvetica,sans-Serif" font-size="10.00">Manager.getAllAccounts</text>
</a>
</g>
</g>
<!-- Node2 -->
<g id="Node000002" class="node">
<title>Node2</title>
<g id="a_Node000002"><a xlink:href="../../df/d31/classcom_1_1bank_1_1gui_1_1view_1_1panel_1_1_accounts_panel.html#acf08212c71ce8389a521f7054c864436" target="_top" xlink:title="Δημιουργεί το panel εμφάνισης λογαριασμών του χρήστη.">
<polygon fill="white" stroke="#666666" points="169,-530 18,-530 18,-498 169,-498 169,-530"/>
<text xml:space="preserve" text-anchor="start" x="26" y="-516.5" font-family="Helvetica,sans-Serif" font-size="10.00">com.bank.gui.view.panel.</text>
<text xml:space="preserve" text-anchor="middle" x="93.5" y="-504.5" font-family="Helvetica,sans-Serif" font-size="10.00">AccountsPanel.AccountsPanel</text>
</a>
</g>
</g>
<!-- Node1&#45;&gt;Node2 -->
<g id="edge1_Node000001_Node000002" class="edge">
<title>Node1&#45;&gt;Node2</title>
<g id="a_edge1_Node000001_Node000002"><a xlink:title=" ">
<path fill="none" stroke="#63b8ff" d="M287.09,-277.3C278.26,-327.02 252.53,-432.46 187,-489 181.71,-493.56 175.67,-497.3 169.26,-500.37"/>
<polygon fill="#63b8ff" stroke="#63b8ff" points="290.5,-278.12 288.69,-267.68 283.59,-276.97 290.5,-278.12"/>
</a>
</g>
</g>
<!-- Node3 -->
<g id="Node000003" class="node">
<title>Node3</title>
<g id="a_Node000003"><a xlink:href="../../d3/d97/classcom_1_1bank_1_1gui_1_1view_1_1panel_1_1_admin_account_list_panel.html#ab1bde20ef6ce35efbeba32ada65e6e9c" target="_top" xlink:title="Δημιουργεί το panel που εμφανίζει όλους τους λογαριασμούς του συστήματος.">
<polygon fill="white" stroke="#666666" points="187,-480 0,-480 0,-436 187,-436 187,-480"/>
<text xml:space="preserve" text-anchor="start" x="8" y="-466.5" font-family="Helvetica,sans-Serif" font-size="10.00">com.bank.gui.view.panel.</text>
<text xml:space="preserve" text-anchor="start" x="8" y="-454.5" font-family="Helvetica,sans-Serif" font-size="10.00">AdminAccountListPanel.AdminAccount</text>
<text xml:space="preserve" text-anchor="middle" x="93.5" y="-442.5" font-family="Helvetica,sans-Serif" font-size="10.00">ListPanel</text>
</a>
</g>
</g>
<!-- Node1&#45;&gt;Node3 -->
<g id="edge2_Node000001_Node000003" class="edge">
<title>Node1&#45;&gt;Node3</title>
<g id="a_edge2_Node000001_Node000003"><a xlink:title=" ">
<path fill="none" stroke="#63b8ff" d="M282.27,-276.72C268.15,-315.33 236.91,-386.54 187,-427 183.05,-430.2 178.76,-433.08 174.26,-435.66"/>
<polygon fill="#63b8ff" stroke="#63b8ff" points="285.42,-278.32 285.45,-267.72 278.82,-275.98 285.42,-278.32"/>
</a>
</g>
</g>
<!-- Node4 -->
<g id="Node000004" class="node">
<title>Node4</title>
<g id="a_Node000004"><a xlink:href="../../d0/d7a/classcom_1_1bank_1_1gui_1_1view_1_1panel_1_1_admin_account_statements_panel.html#a71db6191ffbc00e50dfe72d28e127e26" target="_top" xlink:title="Δημιουργεί το panel προβολής κινήσεων λογαριασμού.">
<polygon fill="white" stroke="#666666" points="172.38,-418 14.62,-418 14.62,-374 172.38,-374 172.38,-418"/>
<text xml:space="preserve" text-anchor="start" x="22.62" y="-404.5" font-family="Helvetica,sans-Serif" font-size="10.00">com.bank.gui.view.panel.</text>
<text xml:space="preserve" text-anchor="start" x="22.62" y="-392.5" font-family="Helvetica,sans-Serif" font-size="10.00">AdminAccountStatementsPanel.</text>
<text xml:space="preserve" text-anchor="middle" x="93.5" y="-380.5" font-family="Helvetica,sans-Serif" font-size="10.00">AdminAccountStatementsPanel</text>
</a>
</g>
</g>
<!-- Node1&#45;&gt;Node4 -->
<g id="edge3_Node000001_Node000004" class="edge">
<title>Node1&#45;&gt;Node4</title>
<g id="a_edge3_Node000001_Node000004"><a xlink:title=" ">
<path fill="none" stroke="#63b8ff" d="M274.18,-275.34C255.62,-301.28 223.58,-341.08 187,-365 182.18,-368.15 177.01,-371.01 171.67,-373.61"/>
<polygon fill="#63b8ff" stroke="#63b8ff" points="276.88,-277.58 279.75,-267.38 271.15,-273.57 276.88,-277.58"/>
</a>
</g>
</g>
<!-- Node5 -->
<g id="Node000005" class="node">
<title>Node5</title>
<g id="a_Node000005"><a xlink:href="../../d0/dbd/classcom_1_1bank_1_1gui_1_1view_1_1panel_1_1_admin_customer_details_panel.html#a2f0001eb86c6d5194a96fe77289563a4" target="_top" xlink:title="Δημιουργεί το panel εμφάνισης στοιχείων πελάτη για τον Admin.">
<polygon fill="white" stroke="#666666" points="179.88,-356 7.12,-356 7.12,-312 179.88,-312 179.88,-356"/>
<text xml:space="preserve" text-anchor="start" x="15.12" y="-342.5" font-family="Helvetica,sans-Serif" font-size="10.00">com.bank.gui.view.panel.</text>
<text xml:space="preserve" text-anchor="start" x="15.12" y="-330.5" font-family="Helvetica,sans-Serif" font-size="10.00">AdminCustomerDetailsPanel.Admin</text>
<text xml:space="preserve" text-anchor="middle" x="93.5" y="-318.5" font-family="Helvetica,sans-Serif" font-size="10.00">CustomerDetailsPanel</text>
</a>
</g>
</g>
<!-- Node1&#45;&gt;Node5 -->
<g id="edge4_Node000001_Node000005" class="edge">
<title>Node1&#45;&gt;Node5</title>
<g id="a_edge4_Node000001_Node000005"><a xlink:title=" ">
<path fill="none" stroke="#63b8ff" d="M252.13,-271.58C232.85,-281.8 209.04,-293.76 187,-303 179.97,-305.95 172.56,-308.82 165.11,-311.54"/>
<polygon fill="#63b8ff" stroke="#63b8ff" points="253.55,-274.78 260.72,-266.97 250.25,-268.61 253.55,-274.78"/>
</a>
</g>
</g>
<!-- Node6 -->
<g id="Node000006" class="node">
<title>Node6</title>
<g id="a_Node000006"><a xlink:href="../../dd/d30/classcom_1_1bank_1_1gui_1_1view_1_1panel_1_1_admin_pay_bill_panel.html#a973563a6943f3648632453279e518cb1" target="_top" xlink:title="Δημιουργεί το panel πληρωμής λογαριασμού από Admin.">
<polygon fill="white" stroke="#666666" points="186.25,-294 0.75,-294 0.75,-262 186.25,-262 186.25,-294"/>
<text xml:space="preserve" text-anchor="start" x="8.75" y="-280.5" font-family="Helvetica,sans-Serif" font-size="10.00">com.bank.gui.view.panel.</text>
<text xml:space="preserve" text-anchor="middle" x="93.5" y="-268.5" font-family="Helvetica,sans-Serif" font-size="10.00">AdminPayBillPanel.AdminPayBillPanel</text>
</a>
</g>
</g>
<!-- Node1&#45;&gt;Node6 -->
<g id="edge5_Node000001_Node000006" class="edge">
<title>Node1&#45;&gt;Node6</title>
<g id="a_edge5_Node000001_Node000006"><a xlink:title=" ">
<path fill="none" stroke="#63b8ff" d="M211.28,-261.37C203.16,-262.53 194.86,-263.71 186.61,-264.88"/>
<polygon fill="#63b8ff" stroke="#63b8ff" points="211.73,-264.84 221.13,-259.97 210.74,-257.91 211.73,-264.84"/>
</a>
</g>
</g>
<!-- Node7 -->
<g id="Node000007" class="node">
<title>Node7</title>
<g id="a_Node000007"><a xlink:href="../../d1/d1f/classcom_1_1bank_1_1gui_1_1view_1_1panel_1_1_company_issue_bill_panel.html#a645fecb7696c87072389cb264b36bd77" target="_top" xlink:title="Δημιουργεί panel έκδοσης λογαριασμού για εταιρικό χρήστη.">
<polygon fill="white" stroke="#666666" points="176.12,-244 10.88,-244 10.88,-200 176.12,-200 176.12,-244"/>
<text xml:space="preserve" text-anchor="start" x="18.88" y="-230.5" font-family="Helvetica,sans-Serif" font-size="10.00">com.bank.gui.view.panel.</text>
<text xml:space="preserve" text-anchor="start" x="18.88" y="-218.5" font-family="Helvetica,sans-Serif" font-size="10.00">CompanyIssueBillPanel.Company</text>
<text xml:space="preserve" text-anchor="middle" x="93.5" y="-206.5" font-family="Helvetica,sans-Serif" font-size="10.00">IssueBillPanel</text>
</a>
</g>
</g>
<!-- Node1&#45;&gt;Node7 -->
<g id="edge6_Node000001_Node000007" class="edge">
<title>Node1&#45;&gt;Node7</title>
<g id="a_edge6_Node000001_Node000007"><a xlink:title=" ">
<path fill="none" stroke="#63b8ff" d="M211.33,-238.64C199.89,-237.01 188.1,-235.33 176.61,-233.69"/>
<polygon fill="#63b8ff" stroke="#63b8ff" points="210.74,-242.09 221.13,-240.03 211.73,-235.16 210.74,-242.09"/>
</a>
</g>
</g>
<!-- Node8 -->
<g id="Node000008" class="node">
<title>Node8</title>
<g id="a_Node000008"><a xlink:href="../../d4/df3/classcom_1_1bank_1_1gui_1_1view_1_1panel_1_1_deposit_panel.html#a910b6db8aa423e0d595a89c256382be9" target="_top" xlink:title="Δημιουργεί panel για εκτέλεση κατάθεσης σε έναν από τους λογαριασμούς του χρήστη.">
<polygon fill="white" stroke="#666666" points="161.5,-182 25.5,-182 25.5,-150 161.5,-150 161.5,-182"/>
<text xml:space="preserve" text-anchor="start" x="33.5" y="-168.5" font-family="Helvetica,sans-Serif" font-size="10.00">com.bank.gui.view.panel.</text>
<text xml:space="preserve" text-anchor="middle" x="93.5" y="-156.5" font-family="Helvetica,sans-Serif" font-size="10.00">DepositPanel.DepositPanel</text>
</a>
</g>
</g>
<!-- Node1&#45;&gt;Node8 -->
<g id="edge7_Node000001_Node000008" class="edge">
<title>Node1&#45;&gt;Node8</title>
<g id="a_edge7_Node000001_Node000008"><a xlink:title=" ">
<path fill="none" stroke="#63b8ff" d="M256.59,-227.51C236.83,-215.4 211.22,-200.95 187,-191 179,-187.71 170.43,-184.73 161.86,-182.06"/>
<polygon fill="#63b8ff" stroke="#63b8ff" points="254.73,-230.48 265.07,-232.8 258.43,-224.54 254.73,-230.48"/>
</a>
</g>
</g>
<!-- Node9 -->
<g id="Node000009" class="node">
<title>Node9</title>
<g id="a_Node000009"><a xlink:href="../../dc/dd6/classcom_1_1bank_1_1gui_1_1view_1_1panel_1_1_pay_bill_panel.html#a36e2af99e6d3c4df782013e94e77f6a4" target="_top" xlink:title="Δημιουργεί panel για πληρωμή λογαριασμού με RF code.">
<polygon fill="white" stroke="#666666" points="158.5,-132 28.5,-132 28.5,-100 158.5,-100 158.5,-132"/>
<text xml:space="preserve" text-anchor="start" x="36.5" y="-118.5" font-family="Helvetica,sans-Serif" font-size="10.00">com.bank.gui.view.panel.</text>
<text xml:space="preserve" text-anchor="middle" x="93.5" y="-106.5" font-family="Helvetica,sans-Serif" font-size="10.00">PayBillPanel.PayBillPanel</text>
</a>
</g>
</g>
<!-- Node1&#45;&gt;Node9 -->
<g id="edge8_Node000001_Node000009" class="edge">
<title>Node1&#45;&gt;Node9</title>
<g id="a_edge8_Node000001_Node000009"><a xlink:title=" ">
<path fill="none" stroke="#63b8ff" d="M273.29,-224.44C254.59,-199.52 222.95,-162.36 187,-141 178.28,-135.82 168.46,-131.68 158.56,-128.4"/>
<polygon fill="#63b8ff" stroke="#63b8ff" points="270.41,-226.42 279.14,-232.42 276.06,-222.29 270.41,-226.42"/>
</a>
</g>
</g>
<!-- Node10 -->
<g id="Node000010" class="node">
<title>Node10</title>
<g id="a_Node000010"><a xlink:href="../../dc/d10/classcom_1_1bank_1_1gui_1_1view_1_1panel_1_1_transfer_panel.html#a8a794a4df9795e83bd93ab1709e44676" target="_top" xlink:title="Δημιουργεί το panel μεταφοράς χρημάτων για τον τρέχοντα χρήστη.">
<polygon fill="white" stroke="#666666" points="163.75,-82 23.25,-82 23.25,-50 163.75,-50 163.75,-82"/>
<text xml:space="preserve" text-anchor="start" x="31.25" y="-68.5" font-family="Helvetica,sans-Serif" font-size="10.00">com.bank.gui.view.panel.</text>
<text xml:space="preserve" text-anchor="middle" x="93.5" y="-56.5" font-family="Helvetica,sans-Serif" font-size="10.00">TransferPanel.TransferPanel</text>
</a>
</g>
</g>
<!-- Node1&#45;&gt;Node10 -->
<g id="edge9_Node000001_Node000010" class="edge">
<title>Node1&#45;&gt;Node10</title>
<g id="a_edge9_Node000001_Node000010"><a xlink:title=" ">
<path fill="none" stroke="#63b8ff" d="M280.74,-223.09C265.58,-187.43 234,-125.09 187,-91 180.13,-86.02 172.33,-82.03 164.24,-78.84"/>
<polygon fill="#63b8ff" stroke="#63b8ff" points="277.47,-224.33 284.5,-232.25 283.94,-221.67 277.47,-224.33"/>
</a>
</g>
</g>
<!-- Node11 -->
<g id="Node000011" class="node">
<title>Node11</title>
<g id="a_Node000011"><a xlink:href="../../d3/da8/classcom_1_1bank_1_1gui_1_1view_1_1panel_1_1_withdraw_panel.html#abd3072a053a9ffdcb84c7828c6a49860" target="_top" xlink:title="Δημιουργεί το panel ανάληψης χρημάτων.">
<polygon fill="white" stroke="#666666" points="169,-32 18,-32 18,0 169,0 169,-32"/>
<text xml:space="preserve" text-anchor="start" x="26" y="-18.5" font-family="Helvetica,sans-Serif" font-size="10.00">com.bank.gui.view.panel.</text>
<text xml:space="preserve" text-anchor="middle" x="93.5" y="-6.5" font-family="Helvetica,sans-Serif" font-size="10.00">WithdrawPanel.WithdrawPanel</text>
</a>
</g>
</g>
<!-- Node1&#45;&gt;Node11 -->
<g id="edge10_Node000001_Node000011" class="edge">
<title>Node1&#45;&gt;Node11</title>
<g id="a_edge10_Node000001_Node000011"><a xlink:title=" ">
<path fill="none" stroke="#63b8ff" d="M285.1,-222.35C273.85,-177.41 245.32,-88.77 187,-41 181.72,-36.68 175.76,-33.1 169.48,-30.14"/>
<polygon fill="#63b8ff" stroke="#63b8ff" points="281.7,-223.15 287.42,-232.07 288.5,-221.53 281.7,-223.15"/>
</a>
</g>
</g>
</g>
</svg>

<g id="navigator" transform="translate(0 0)" fill="#404254">
  <rect fill="#f2f5e9" fill-opacity="0.5" stroke="#606060" stroke-width=".5" x="0" y="0" width="60" height="60"/>
  <use id="zoomplus" xlink:href="#zoomPlus" x="17" y="9" onmousedown="handleZoom(evt,'in')"/>
  <use id="zoomminus" xlink:href="#zoomMin" x="42" y="9" onmousedown="handleZoom(evt,'out')"/>
  <use id="reset" xlink:href="#resetDef" x="30" y="36" onmousedown="handleReset()"/>
   <use id="arrowup" xlink:href="#arrowUp" x="0" y="0" onmousedown="handlePan(0,-1)"/>
  <use id="arrowright" xlink:href="#arrowRight" x="0" y="0" onmousedown="handlePan(1,0)"/>
  <use id="arrowdown" xlink:href="#arrowDown" x="0" y="0" onmousedown="handlePan(0,1)"/>
  <use id="arrowleft" xlink:href="#arrowLeft" x="0" y="0" onmousedown="handlePan(-1,0)"/>
</g>
<svg viewBox="0 0 15 15" width="100%" height="30px" preserveAspectRatio="xMaxYMin meet">
 <g id="arrow_out" transform="scale(0.3 0.3)">
  <a xlink:href="classcom_1_1bank_1_1manager_1_1_account_manager_a9cfb69758fe6d4532cba2d754cca7af2_icgraph_org.svg" target="_base">
   <rect id="button" ry="5" rx="5" y="6" x="6" height="38" width="38"
        fill="#f2f5e9" fill-opacity="0.5" stroke="#606060" stroke-width="1.0"/>
   <path id="arrow"
     d="M 11.500037,31.436501 C 11.940474,20.09759 22.043105,11.32322 32.158766,21.979434 L 37.068811,17.246167 C 37.068811,17.246167 37.088388,32 37.088388,32 L 22.160133,31.978069 C 22.160133,31.978069 26.997745,27.140456 26.997745,27.140456 C 18.528582,18.264221 13.291696,25.230495 11.500037,31.436501 z"
     style="fill:#404040;"/>
  </a>
 </g>
</svg>

<style type='text/css'>
<![CDATA[
[data-mouse-over-selected='false'] { opacity: 0.7; }
[data-mouse-over-selected='true']  { opacity: 1.0; }
]]>
</style>
<script type="application/ecmascript"><![CDATA[
document.addEventListener('DOMContentLoaded', (event) => {
  highlightEdges();
  highlightAdjacentNodes();
});
]]></script>
</svg>
