<?xml version="1.0" encoding="UTF-8" standalone="no"?>
<!DOCTYPE svg PUBLIC "-//W3C//DTD SVG 1.1//EN"
 "http://www.w3.org/Graphics/SVG/1.1/DTD/svg11.dtd">
<!-- Generated by graphviz version 14.0.1 (20251006.0113)
 -->
<!-- Title: manager/UserManager.java Pages: 1 -->
<svg width="643pt" height="96pt"
 viewBox="0.00 0.00 643.00 96.00" xmlns="http://www.w3.org/2000/svg" xmlns:xlink="http://www.w3.org/1999/xlink">
<g id="graph0" class="graph" transform="scale(1 1) rotate(0) translate(4 92)">
<title>manager/UserManager.java</title>
<!-- Node1 -->
<g id="Node000001" class="node">
<title>Node1</title>
<g id="a_Node000001"><a xlink:title=" ">
<polygon fill="#999999" stroke="#666666" points="440.88,-88 304.88,-88 304.88,-68 440.88,-68 440.88,-88"/>
<text xml:space="preserve" text-anchor="middle" x="372.88" y="-74.5" font-family="Helvetica,sans-Serif" font-size="10.00">manager/UserManager.java</text>
</a>
</g>
</g>
<!-- Node2 -->
<g id="Node000002" class="node">
<title>Node2</title>
<g id="a_Node000002"><a xlink:title=" ">
<polygon fill="#e0e0e0" stroke="#999999" points="121.75,-26 0,-26 0,-6 121.75,-6 121.75,-26"/>
<text xml:space="preserve" text-anchor="middle" x="60.88" y="-12.5" font-family="Helvetica,sans-Serif" font-size="10.00">com.bank.model.users.*</text>
</a>
</g>
</g>
<!-- Node1&#45;&gt;Node2 -->
<g id="edge1_Node000001_Node000002" class="edge">
<title>Node1&#45;&gt;Node2</title>
<g id="a_edge1_Node000001_Node000002"><a xlink:title=" ">
<path fill="none" stroke="#63b8ff" d="M319.92,-67.58C270.84,-58.75 195.83,-45 130.88,-32 125.74,-30.97 120.39,-29.88 115.05,-28.76"/>
<polygon fill="#63b8ff" stroke="#63b8ff" points="116.14,-25.41 105.63,-26.78 114.7,-32.26 116.14,-25.41"/>
</a>
</g>
</g>
<!-- Node3 -->
<g id="Node000003" class="node">
<title>Node3</title>
<g id="a_Node000003"><a xlink:title=" ">
<polygon fill="#e0e0e0" stroke="#999999" points="288.25,-32 139.5,-32 139.5,0 288.25,0 288.25,-32"/>
<text xml:space="preserve" text-anchor="start" x="147.5" y="-18.5" font-family="Helvetica,sans-Serif" font-size="10.00">com.bank.storage.CsvStorage</text>
<text xml:space="preserve" text-anchor="middle" x="213.88" y="-6.5" font-family="Helvetica,sans-Serif" font-size="10.00">Manager</text>
</a>
</g>
</g>
<!-- Node1&#45;&gt;Node3 -->
<g id="edge2_Node000001_Node000003" class="edge">
<title>Node1&#45;&gt;Node3</title>
<g id="a_edge2_Node000001_Node000003"><a xlink:title=" ">
<path fill="none" stroke="#63b8ff" d="M348.03,-67.62C326.06,-59.33 293.28,-46.96 265.63,-36.53"/>
<polygon fill="#63b8ff" stroke="#63b8ff" points="266.93,-33.28 256.34,-33.02 264.46,-39.83 266.93,-33.28"/>
</a>
</g>
</g>
<!-- Node4 -->
<g id="Node000004" class="node">
<title>Node4</title>
<g id="a_Node000004"><a xlink:title=" ">
<polygon fill="#e0e0e0" stroke="#999999" points="439.38,-26 306.38,-26 306.38,-6 439.38,-6 439.38,-26"/>
<text xml:space="preserve" text-anchor="middle" x="372.88" y="-12.5" font-family="Helvetica,sans-Serif" font-size="10.00">com.bank.storage.Storable</text>
</a>
</g>
</g>
<!-- Node1&#45;&gt;Node4 -->
<g id="edge3_Node000001_Node000004" class="edge">
<title>Node1&#45;&gt;Node4</title>
<g id="a_edge3_Node000001_Node000004"><a xlink:title=" ">
<path fill="none" stroke="#63b8ff" d="M372.88,-67.62C372.88,-59.56 372.88,-47.65 372.88,-37.41"/>
<polygon fill="#63b8ff" stroke="#63b8ff" points="376.38,-37.63 372.88,-27.63 369.38,-37.63 376.38,-37.63"/>
</a>
</g>
</g>
<!-- Node5 -->
<g id="Node000005" class="node">
<title>Node5</title>
<g id="a_Node000005"><a xlink:title=" ">
<polygon fill="#e0e0e0" stroke="#999999" points="548.75,-26 457,-26 457,-6 548.75,-6 548.75,-26"/>
<text xml:space="preserve" text-anchor="middle" x="502.88" y="-12.5" font-family="Helvetica,sans-Serif" font-size="10.00">java.util.ArrayList</text>
</a>
</g>
</g>
<!-- Node1&#45;&gt;Node5 -->
<g id="edge4_Node000001_Node000005" class="edge">
<title>Node1&#45;&gt;Node5</title>
<g id="a_edge4_Node000001_Node000005"><a xlink:title=" ">
<path fill="none" stroke="#63b8ff" d="M393.19,-67.62C414.46,-57.81 448.12,-42.27 472.54,-31"/>
<polygon fill="#63b8ff" stroke="#63b8ff" points="473.72,-34.31 481.33,-26.94 470.78,-27.96 473.72,-34.31"/>
</a>
</g>
</g>
<!-- Node6 -->
<g id="Node000006" class="node">
<title>Node6</title>
<g id="a_Node000006"><a xlink:title=" ">
<polygon fill="#e0e0e0" stroke="#999999" points="635.12,-26 566.62,-26 566.62,-6 635.12,-6 635.12,-26"/>
<text xml:space="preserve" text-anchor="middle" x="600.88" y="-12.5" font-family="Helvetica,sans-Serif" font-size="10.00">java.util.List</text>
</a>
</g>
</g>
<!-- Node1&#45;&gt;Node6 -->
<g id="edge5_Node000001_Node000006" class="edge">
<title>Node1&#45;&gt;Node6</title>
<g id="a_edge5_Node000001_Node000006"><a xlink:title=" ">
<path fill="none" stroke="#63b8ff" d="M416.93,-67.55C454.61,-59.16 510.16,-46.09 557.88,-32 559.98,-31.38 562.13,-30.72 564.3,-30.03"/>
<polygon fill="#63b8ff" stroke="#63b8ff" points="565.26,-33.4 573.65,-26.93 563.05,-26.75 565.26,-33.4"/>
</a>
</g>
</g>
</g>
</svg>
