<?xml version="1.0" encoding="UTF-8" standalone="no"?>
<!DOCTYPE svg PUBLIC "-//W3C//DTD SVG 1.1//EN"
 "http://www.w3.org/Graphics/SVG/1.1/DTD/svg11.dtd">
<!-- Generated by graphviz version 14.0.1 (20251006.0113)
 -->
<!-- Title: com.bank.storage.CsvStorageManager Pages: 1 -->
<svg width="149pt" height="252pt"
 viewBox="0.00 0.00 149.00 252.00" xmlns="http://www.w3.org/2000/svg" xmlns:xlink="http://www.w3.org/1999/xlink">

<svg id="main" version="1.1" xmlns="http://www.w3.org/2000/svg" xmlns:xlink="http://www.w3.org/1999/xlink" xml:space="preserve">

<style type="text/css"><![CDATA[
.node, .edge {opacity: 0.7;}
.node.selected, .edge.selected {opacity: 1;}
.edge:hover path { stroke: red; }
.edge:hover polygon { stroke: red; fill: red; }
]]></style>
<script type="application/ecmascript" xlink:href="../../svg.min.js"/>
<svg id="graph" class="graph">
<g id="graph0" class="graph" transform="scale(1 1) rotate(0) translate(4 248)">
<title>com.bank.storage.CsvStorageManager</title>
<!-- Node1 -->
<g id="Node000001" class="node">
<title>Node1</title>
<g id="a_Node000001"><a xlink:title="Provides CSV&#45;based persistence for Storable objects.">
<polygon fill="#999999" stroke="none" points="140.75,-128 0,-128 0,0 140.75,0 140.75,-128"/>
<text xml:space="preserve" text-anchor="start" x="4" y="-114.5" font-family="Helvetica,sans-Serif" font-size="10.00">com.bank.storage.CsvStorage</text>
<text xml:space="preserve" text-anchor="start" x="51.62" y="-102.5" font-family="Helvetica,sans-Serif" font-size="10.00">Manager</text>
<text xml:space="preserve" text-anchor="start" x="68.88" y="-86.5" font-family="Helvetica,sans-Serif" font-size="10.00"> </text>
<text xml:space="preserve" text-anchor="start" x="22.12" y="-70.5" font-family="Helvetica,sans-Serif" font-size="10.00">+</text>
<text xml:space="preserve" text-anchor="start" x="50.25" y="-70.5" font-family="Helvetica,sans-Serif" font-size="10.00">load()</text>
<text xml:space="preserve" text-anchor="start" x="22.12" y="-54.5" font-family="Helvetica,sans-Serif" font-size="10.00">+</text>
<text xml:space="preserve" text-anchor="start" x="50.25" y="-54.5" font-family="Helvetica,sans-Serif" font-size="10.00">save()</text>
<text xml:space="preserve" text-anchor="start" x="22.12" y="-38.5" font-family="Helvetica,sans-Serif" font-size="10.00">+</text>
<text xml:space="preserve" text-anchor="start" x="50.25" y="-38.5" font-family="Helvetica,sans-Serif" font-size="10.00">saveAll()</text>
<text xml:space="preserve" text-anchor="start" x="22.12" y="-22.5" font-family="Helvetica,sans-Serif" font-size="10.00">+</text>
<text xml:space="preserve" text-anchor="start" x="50.25" y="-22.5" font-family="Helvetica,sans-Serif" font-size="10.00">saveLines()</text>
<text xml:space="preserve" text-anchor="start" x="22.12" y="-6.5" font-family="Helvetica,sans-Serif" font-size="10.00">+</text>
<text xml:space="preserve" text-anchor="start" x="50.25" y="-6.5" font-family="Helvetica,sans-Serif" font-size="10.00">loadLines()</text>
<polygon fill="#666666" stroke="#666666" points="0,-98 0,-98 140.75,-98 140.75,-98 0,-98"/>
<polygon fill="#666666" stroke="#666666" points="0,-82 0,-82 140.75,-82 140.75,-82 0,-82"/>
<polygon fill="none" stroke="#666666" points="0,0 0,-128 140.75,-128 140.75,0 0,0"/>
</a>
</g>
</g>
<!-- Node2 -->
<g id="Node000002" class="node">
<title>Node2</title>
<g id="a_Node000002"><a xlink:href="../../de/d12/interfacecom_1_1bank_1_1storage_1_1_storage_manager.html" target="_top" xlink:title="Defines a contract for managing persistent storage of Storable objects.">
<polygon fill="white" stroke="none" points="131.75,-244 9,-244 9,-164 131.75,-164 131.75,-244"/>
<text xml:space="preserve" text-anchor="start" x="13" y="-230.5" font-family="Helvetica,sans-Serif" font-size="10.00">com.bank.storage.Storage</text>
<text xml:space="preserve" text-anchor="start" x="51.62" y="-218.5" font-family="Helvetica,sans-Serif" font-size="10.00">Manager</text>
<text xml:space="preserve" text-anchor="start" x="68.88" y="-202.5" font-family="Helvetica,sans-Serif" font-size="10.00"> </text>
<text xml:space="preserve" text-anchor="start" x="32.44" y="-186.5" font-family="Helvetica,sans-Serif" font-size="10.00">+</text>
<text xml:space="preserve" text-anchor="start" x="61.88" y="-186.5" font-family="Helvetica,sans-Serif" font-size="10.00">load()</text>
<text xml:space="preserve" text-anchor="start" x="32.44" y="-170.5" font-family="Helvetica,sans-Serif" font-size="10.00">+</text>
<text xml:space="preserve" text-anchor="start" x="61.88" y="-170.5" font-family="Helvetica,sans-Serif" font-size="10.00">save()</text>
<polygon fill="#666666" stroke="#666666" points="9,-214 9,-214 131.75,-214 131.75,-214 9,-214"/>
<polygon fill="#666666" stroke="#666666" points="9,-198 9,-198 131.75,-198 131.75,-198 9,-198"/>
<polygon fill="none" stroke="#666666" points="9,-164 9,-244 131.75,-244 131.75,-164 9,-164"/>
</a>
</g>
</g>
<!-- Node2&#45;&gt;Node1 -->
<g id="edge1_Node000001_Node000002" class="edge">
<title>Node2&#45;&gt;Node1</title>
<g id="a_edge1_Node000001_Node000002"><a xlink:title=" ">
<path fill="none" stroke="#63b8ff" d="M70.38,-152.95C70.38,-144.78 70.38,-136.23 70.38,-127.8"/>
<polygon fill="none" stroke="#63b8ff" points="66.88,-152.68 70.38,-162.68 73.88,-152.68 66.88,-152.68"/>
</a>
</g>
</g>
</g>
</svg>
</svg>

<style type='text/css'>
<![CDATA[
[data-mouse-over-selected='false'] { opacity: 0.7; }
[data-mouse-over-selected='true']  { opacity: 1.0; }
]]>
</style>
<script type="application/ecmascript"><![CDATA[
document.addEventListener('DOMContentLoaded', (event) => {
  highlightEdges();
  highlightAdjacentNodes();
});
]]></script>
</svg>
