<?xml version="1.0" encoding="UTF-8" standalone="no"?>
<!DOCTYPE svg PUBLIC "-//W3C//DTD SVG 1.1//EN"
 "http://www.w3.org/Graphics/SVG/1.1/DTD/svg11.dtd">
<!-- Generated by graphviz version 14.0.1 (20251006.0113)
 -->
<!-- Title: com.bank.gui.view.panel.AdminCreateCustomerPanel.AdminCreateCustomerPanel Pages: 1 -->
<!--zoomable 110 -->

<svg id="main" version="1.1" xmlns="http://www.w3.org/2000/svg" xmlns:xlink="http://www.w3.org/1999/xlink" xml:space="preserve" onload="init(evt)">

<style type="text/css"><![CDATA[
.node, .edge {opacity: 0.7;}
.node.selected, .edge.selected {opacity: 1;}
.edge:hover path { stroke: red; }
.edge:hover polygon { stroke: red; fill: red; }
]]></style>

<defs>
  <circle id="rim" cx="0" cy="0" r="7"/>
  <circle id="rim2" cx="0" cy="0" r="3.5"/>
  <g id="zoomPlus">
    <use xlink:href="#rim" fill="#404040"><set attributeName="fill" to="#808080" begin="zoomplus.mouseover" end="zoomplus.mouseout"/></use>
    <path d="M-4,0h8M0,-4v8" fill="none" stroke="white" stroke-width="1.5" pointer-events="none"/>
  </g>
  <g id="zoomMin">
    <use xlink:href="#rim" fill="#404040"><set attributeName="fill" to="#808080" begin="zoomminus.mouseover" end="zoomminus.mouseout"/></use>
    <path d="M-4,0h8" fill="none" stroke="white" stroke-width="1.5" pointer-events="none"/>
  </g>
  <g id="arrowUp" transform="translate(30 24)">
    <use xlink:href="#rim"/>
    <path pointer-events="none" fill="none" stroke="white" stroke-width="1.5" d="M0,-3.0v7 M-2.5,-0.5L0,-3.0L2.5,-0.5"/>
  </g>
  <g id="arrowRight" transform="rotate(90) translate(36 -43)">
    <use xlink:href="#rim"/>
    <path pointer-events="none" fill="none" stroke="white" stroke-width="1.5" d="M0,-3.0v7 M-2.5,-0.5L0,-3.0L2.5,-0.5"/>
  </g>
  <g id="arrowDown" transform="rotate(180) translate(-30 -48)">
    <use xlink:href="#rim"/>
    <path pointer-events="none" fill="none" stroke="white" stroke-width="1.5" d="M0,-3.0v7 M-2.5,-0.5L0,-3.0L2.5,-0.5"/>
  </g>
  <g id="arrowLeft" transform="rotate(270) translate(-36 17)">
    <use xlink:href="#rim"/>
    <path pointer-events="none" fill="none" stroke="white" stroke-width="1.5" d="M0,-3.0v7 M-2.5,-0.5L0,-3.0L2.5,-0.5"/>
  </g>
  <g id="resetDef">
    <use xlink:href="#rim2" fill="#404040"><set attributeName="fill" to="#808080" begin="reset.mouseover" end="reset.mouseout"/></use>
  </g>
</defs>
<script type="application/ecmascript">
var viewWidth = 631;
var viewHeight = 110;
var sectionId = 'dynsection-2';
</script>
<script type="application/ecmascript" xlink:href="../../svg.min.js"/>
<svg id="graph" class="graph">
<g id="viewport">
<title>com.bank.gui.view.panel.AdminCreateCustomerPanel.AdminCreateCustomerPanel</title>
<!-- Node1 -->
<g id="Node000001" class="node">
<title>Node1</title>
<g id="a_Node000001"><a xlink:title="Δημιουργεί το panel δημιουργίας νέου χρήστη.">
<polygon fill="#999999" stroke="#666666" points="171.25,-70 0,-70 0,-26 171.25,-26 171.25,-70"/>
<text xml:space="preserve" text-anchor="start" x="8" y="-56.5" font-family="Helvetica,sans-Serif" font-size="10.00">com.bank.gui.view.panel.</text>
<text xml:space="preserve" text-anchor="start" x="8" y="-44.5" font-family="Helvetica,sans-Serif" font-size="10.00">AdminCreateCustomerPanel.Admin</text>
<text xml:space="preserve" text-anchor="middle" x="85.62" y="-32.5" font-family="Helvetica,sans-Serif" font-size="10.00">CreateCustomerPanel</text>
</a>
</g>
</g>
<!-- Node2 -->
<g id="Node000002" class="node">
<title>Node2</title>
<g id="a_Node000002"><a xlink:href="../../db/d15/classcom_1_1bank_1_1manager_1_1_user_manager.html#a59edcfd672dadf24efd36175b985ef48" target="_top" xlink:title="Adds a new user to the system.">
<polygon fill="white" stroke="#666666" points="407.75,-58 207.25,-58 207.25,-38 407.75,-38 407.75,-58"/>
<text xml:space="preserve" text-anchor="middle" x="307.5" y="-44.5" font-family="Helvetica,sans-Serif" font-size="10.00">com.bank.manager.UserManager.addUser</text>
</a>
</g>
</g>
<!-- Node1&#45;&gt;Node2 -->
<g id="edge1_Node000001_Node000002" class="edge">
<title>Node1&#45;&gt;Node2</title>
<g id="a_edge1_Node000001_Node000002"><a xlink:title=" ">
<path fill="none" stroke="#63b8ff" d="M171.63,-48C179.52,-48 187.59,-48 195.66,-48"/>
<polygon fill="#63b8ff" stroke="#63b8ff" points="195.54,-51.5 205.54,-48 195.54,-44.5 195.54,-51.5"/>
</a>
</g>
</g>
<!-- Node3 -->
<g id="Node000003" class="node">
<title>Node3</title>
<g id="a_Node000003"><a xlink:href="../../db/d15/classcom_1_1bank_1_1manager_1_1_user_manager.html#abe528b6a139540f0901887adcdb2d0a2" target="_top" xlink:title="Finds a user by username.">
<polygon fill="white" stroke="#666666" points="623.25,-102 443.75,-102 443.75,-70 623.25,-70 623.25,-102"/>
<text xml:space="preserve" text-anchor="start" x="451.75" y="-88.5" font-family="Helvetica,sans-Serif" font-size="10.00">com.bank.manager.UserManager.find</text>
<text xml:space="preserve" text-anchor="middle" x="533.5" y="-76.5" font-family="Helvetica,sans-Serif" font-size="10.00">ByUsername</text>
</a>
</g>
</g>
<!-- Node1&#45;&gt;Node3 -->
<g id="edge4_Node000001_Node000003" class="edge">
<title>Node1&#45;&gt;Node3</title>
<g id="a_edge4_Node000001_Node000003"><a xlink:title=" ">
<path fill="none" stroke="#63b8ff" d="M171.5,-62.44C183.48,-64.16 195.66,-65.75 207.25,-67 282.32,-75.09 367.53,-79.9 431.9,-82.67"/>
<polygon fill="#63b8ff" stroke="#63b8ff" points="431.61,-86.16 441.75,-83.08 431.91,-79.16 431.61,-86.16"/>
</a>
</g>
</g>
<!-- Node5 -->
<g id="Node000005" class="node">
<title>Node5</title>
<g id="a_Node000005"><a xlink:href="../../db/d15/classcom_1_1bank_1_1manager_1_1_user_manager.html#ae3cc87574e5ccb6e13bd69770ed8a0c1" target="_top" xlink:title="Saves all users to the CSV file.">
<polygon fill="white" stroke="#666666" points="405.5,-20 209.5,-20 209.5,0 405.5,0 405.5,-20"/>
<text xml:space="preserve" text-anchor="middle" x="307.5" y="-6.5" font-family="Helvetica,sans-Serif" font-size="10.00">com.bank.manager.UserManager.saveAll</text>
</a>
</g>
</g>
<!-- Node1&#45;&gt;Node5 -->
<g id="edge5_Node000001_Node000005" class="edge">
<title>Node1&#45;&gt;Node5</title>
<g id="a_edge5_Node000001_Node000005"><a xlink:title=" ">
<path fill="none" stroke="#63b8ff" d="M171.63,-33.31C192.44,-29.71 214.5,-25.9 234.63,-22.42"/>
<polygon fill="#63b8ff" stroke="#63b8ff" points="235.15,-25.88 244.41,-20.73 233.96,-18.98 235.15,-25.88"/>
</a>
</g>
</g>
<!-- Node2&#45;&gt;Node3 -->
<g id="edge2_Node000002_Node000003" class="edge">
<title>Node2&#45;&gt;Node3</title>
<g id="a_edge2_Node000002_Node000003"><a xlink:title=" ">
<path fill="none" stroke="#63b8ff" d="M370.3,-58.48C389.51,-61.74 411.21,-65.42 432.33,-69.01"/>
<polygon fill="#63b8ff" stroke="#63b8ff" points="431.71,-72.45 442.16,-70.67 432.88,-65.55 431.71,-72.45"/>
</a>
</g>
</g>
<!-- Node4 -->
<g id="Node000004" class="node">
<title>Node4</title>
<g id="a_Node000004"><a xlink:href="../../dd/dee/classcom_1_1bank_1_1model_1_1users_1_1_user.html#a4347326cfb6910b50c691e19ec805c1c" target="_top" xlink:title=" ">
<polygon fill="white" stroke="#666666" points="611.25,-52 455.75,-52 455.75,-20 611.25,-20 611.25,-52"/>
<text xml:space="preserve" text-anchor="start" x="463.75" y="-38.5" font-family="Helvetica,sans-Serif" font-size="10.00">com.bank.model.users.User.get</text>
<text xml:space="preserve" text-anchor="middle" x="533.5" y="-26.5" font-family="Helvetica,sans-Serif" font-size="10.00">Username</text>
</a>
</g>
</g>
<!-- Node2&#45;&gt;Node4 -->
<g id="edge3_Node000002_Node000004" class="edge">
<title>Node2&#45;&gt;Node4</title>
<g id="a_edge3_Node000002_Node000004"><a xlink:title=" ">
<path fill="none" stroke="#63b8ff" d="M408.05,-42.67C420.1,-42.02 432.33,-41.37 444.2,-40.73"/>
<polygon fill="#63b8ff" stroke="#63b8ff" points="444.13,-44.24 453.93,-40.21 443.76,-37.25 444.13,-44.24"/>
</a>
</g>
</g>
</g>
</svg>

<g id="navigator" transform="translate(0 0)" fill="#404254">
  <rect fill="#f2f5e9" fill-opacity="0.5" stroke="#606060" stroke-width=".5" x="0" y="0" width="60" height="60"/>
  <use id="zoomplus" xlink:href="#zoomPlus" x="17" y="9" onmousedown="handleZoom(evt,'in')"/>
  <use id="zoomminus" xlink:href="#zoomMin" x="42" y="9" onmousedown="handleZoom(evt,'out')"/>
  <use id="reset" xlink:href="#resetDef" x="30" y="36" onmousedown="handleReset()"/>
   <use id="arrowup" xlink:href="#arrowUp" x="0" y="0" onmousedown="handlePan(0,-1)"/>
  <use id="arrowright" xlink:href="#arrowRight" x="0" y="0" onmousedown="handlePan(1,0)"/>
  <use id="arrowdown" xlink:href="#arrowDown" x="0" y="0" onmousedown="handlePan(0,1)"/>
  <use id="arrowleft" xlink:href="#arrowLeft" x="0" y="0" onmousedown="handlePan(-1,0)"/>
</g>
<svg viewBox="0 0 15 15" width="100%" height="30px" preserveAspectRatio="xMaxYMin meet">
 <g id="arrow_out" transform="scale(0.3 0.3)">
  <a xlink:href="classcom_1_1bank_1_1gui_1_1view_1_1panel_1_1_admin_create_customer_panel_a67f0a462826b49456c7017475c139c1b_cgraph_org.svg" target="_base">
   <rect id="button" ry="5" rx="5" y="6" x="6" height="38" width="38"
        fill="#f2f5e9" fill-opacity="0.5" stroke="#606060" stroke-width="1.0"/>
   <path id="arrow"
     d="M 11.500037,31.436501 C 11.940474,20.09759 22.043105,11.32322 32.158766,21.979434 L 37.068811,17.246167 C 37.068811,17.246167 37.088388,32 37.088388,32 L 22.160133,31.978069 C 22.160133,31.978069 26.997745,27.140456 26.997745,27.140456 C 18.528582,18.264221 13.291696,25.230495 11.500037,31.436501 z"
     style="fill:#404040;"/>
  </a>
 </g>
</svg>

<style type='text/css'>
<![CDATA[
[data-mouse-over-selected='false'] { opacity: 0.7; }
[data-mouse-over-selected='true']  { opacity: 1.0; }
]]>
</style>
<script type="application/ecmascript"><![CDATA[
document.addEventListener('DOMContentLoaded', (event) => {
  highlightEdges();
  highlightAdjacentNodes();
});
]]></script>
</svg>
