<?xml version="1.0" encoding="UTF-8" standalone="no"?>
<!DOCTYPE svg PUBLIC "-//W3C//DTD SVG 1.1//EN"
 "http://www.w3.org/Graphics/SVG/1.1/DTD/svg11.dtd">
<!-- Generated by graphviz version 14.0.1 (20251006.0113)
 -->
<!-- Title: com.bank.gui.view.panel.AdminCreateCustomerPanel.AdminCreateCustomerPanel Pages: 1 -->
<svg width="631pt" height="110pt"
 viewBox="0.00 0.00 631.00 110.00" xmlns="http://www.w3.org/2000/svg" xmlns:xlink="http://www.w3.org/1999/xlink">
<g id="graph0" class="graph" transform="scale(1 1) rotate(0) translate(4 106)">
<title>com.bank.gui.view.panel.AdminCreateCustomerPanel.AdminCreateCustomerPanel</title>
<!-- Node1 -->
<g id="Node000001" class="node">
<title>Node1</title>
<g id="a_Node000001"><a xlink:title="Δημιουργεί το panel δημιουργίας νέου χρήστη.">
<polygon fill="#999999" stroke="#666666" points="171.25,-70 0,-70 0,-26 171.25,-26 171.25,-70"/>
<text xml:space="preserve" text-anchor="start" x="8" y="-56.5" font-family="Helvetica,sans-Serif" font-size="10.00">com.bank.gui.view.panel.</text>
<text xml:space="preserve" text-anchor="start" x="8" y="-44.5" font-family="Helvetica,sans-Serif" font-size="10.00">AdminCreateCustomerPanel.Admin</text>
<text xml:space="preserve" text-anchor="middle" x="85.62" y="-32.5" font-family="Helvetica,sans-Serif" font-size="10.00">CreateCustomerPanel</text>
</a>
</g>
</g>
<!-- Node2 -->
<g id="Node000002" class="node">
<title>Node2</title>
<g id="a_Node000002"><a xlink:href="../../db/d15/classcom_1_1bank_1_1manager_1_1_user_manager.html#a59edcfd672dadf24efd36175b985ef48" target="_top" xlink:title="Adds a new user to the system.">
<polygon fill="white" stroke="#666666" points="407.75,-58 207.25,-58 207.25,-38 407.75,-38 407.75,-58"/>
<text xml:space="preserve" text-anchor="middle" x="307.5" y="-44.5" font-family="Helvetica,sans-Serif" font-size="10.00">com.bank.manager.UserManager.addUser</text>
</a>
</g>
</g>
<!-- Node1&#45;&gt;Node2 -->
<g id="edge1_Node000001_Node000002" class="edge">
<title>Node1&#45;&gt;Node2</title>
<g id="a_edge1_Node000001_Node000002"><a xlink:title=" ">
<path fill="none" stroke="#63b8ff" d="M171.63,-48C179.52,-48 187.59,-48 195.66,-48"/>
<polygon fill="#63b8ff" stroke="#63b8ff" points="195.54,-51.5 205.54,-48 195.54,-44.5 195.54,-51.5"/>
</a>
</g>
</g>
<!-- Node3 -->
<g id="Node000003" class="node">
<title>Node3</title>
<g id="a_Node000003"><a xlink:href="../../db/d15/classcom_1_1bank_1_1manager_1_1_user_manager.html#abe528b6a139540f0901887adcdb2d0a2" target="_top" xlink:title="Finds a user by username.">
<polygon fill="white" stroke="#666666" points="623.25,-102 443.75,-102 443.75,-70 623.25,-70 623.25,-102"/>
<text xml:space="preserve" text-anchor="start" x="451.75" y="-88.5" font-family="Helvetica,sans-Serif" font-size="10.00">com.bank.manager.UserManager.find</text>
<text xml:space="preserve" text-anchor="middle" x="533.5" y="-76.5" font-family="Helvetica,sans-Serif" font-size="10.00">ByUsername</text>
</a>
</g>
</g>
<!-- Node1&#45;&gt;Node3 -->
<g id="edge4_Node000001_Node000003" class="edge">
<title>Node1&#45;&gt;Node3</title>
<g id="a_edge4_Node000001_Node000003"><a xlink:title=" ">
<path fill="none" stroke="#63b8ff" d="M171.5,-62.44C183.48,-64.16 195.66,-65.75 207.25,-67 282.32,-75.09 367.53,-79.9 431.9,-82.67"/>
<polygon fill="#63b8ff" stroke="#63b8ff" points="431.61,-86.16 441.75,-83.08 431.91,-79.16 431.61,-86.16"/>
</a>
</g>
</g>
<!-- Node5 -->
<g id="Node000005" class="node">
<title>Node5</title>
<g id="a_Node000005"><a xlink:href="../../db/d15/classcom_1_1bank_1_1manager_1_1_user_manager.html#ae3cc87574e5ccb6e13bd69770ed8a0c1" target="_top" xlink:title="Saves all users to the CSV file.">
<polygon fill="white" stroke="#666666" points="405.5,-20 209.5,-20 209.5,0 405.5,0 405.5,-20"/>
<text xml:space="preserve" text-anchor="middle" x="307.5" y="-6.5" font-family="Helvetica,sans-Serif" font-size="10.00">com.bank.manager.UserManager.saveAll</text>
</a>
</g>
</g>
<!-- Node1&#45;&gt;Node5 -->
<g id="edge5_Node000001_Node000005" class="edge">
<title>Node1&#45;&gt;Node5</title>
<g id="a_edge5_Node000001_Node000005"><a xlink:title=" ">
<path fill="none" stroke="#63b8ff" d="M171.63,-33.31C192.44,-29.71 214.5,-25.9 234.63,-22.42"/>
<polygon fill="#63b8ff" stroke="#63b8ff" points="235.15,-25.88 244.41,-20.73 233.96,-18.98 235.15,-25.88"/>
</a>
</g>
</g>
<!-- Node2&#45;&gt;Node3 -->
<g id="edge2_Node000002_Node000003" class="edge">
<title>Node2&#45;&gt;Node3</title>
<g id="a_edge2_Node000002_Node000003"><a xlink:title=" ">
<path fill="none" stroke="#63b8ff" d="M370.3,-58.48C389.51,-61.74 411.21,-65.42 432.33,-69.01"/>
<polygon fill="#63b8ff" stroke="#63b8ff" points="431.71,-72.45 442.16,-70.67 432.88,-65.55 431.71,-72.45"/>
</a>
</g>
</g>
<!-- Node4 -->
<g id="Node000004" class="node">
<title>Node4</title>
<g id="a_Node000004"><a xlink:href="../../dd/dee/classcom_1_1bank_1_1model_1_1users_1_1_user.html#a4347326cfb6910b50c691e19ec805c1c" target="_top" xlink:title=" ">
<polygon fill="white" stroke="#666666" points="611.25,-52 455.75,-52 455.75,-20 611.25,-20 611.25,-52"/>
<text xml:space="preserve" text-anchor="start" x="463.75" y="-38.5" font-family="Helvetica,sans-Serif" font-size="10.00">com.bank.model.users.User.get</text>
<text xml:space="preserve" text-anchor="middle" x="533.5" y="-26.5" font-family="Helvetica,sans-Serif" font-size="10.00">Username</text>
</a>
</g>
</g>
<!-- Node2&#45;&gt;Node4 -->
<g id="edge3_Node000002_Node000004" class="edge">
<title>Node2&#45;&gt;Node4</title>
<g id="a_edge3_Node000002_Node000004"><a xlink:title=" ">
<path fill="none" stroke="#63b8ff" d="M408.05,-42.67C420.1,-42.02 432.33,-41.37 444.2,-40.73"/>
<polygon fill="#63b8ff" stroke="#63b8ff" points="444.13,-44.24 453.93,-40.21 443.76,-37.25 444.13,-44.24"/>
</a>
</g>
</g>
</g>
</svg>
