<?xml version="1.0" encoding="UTF-8" standalone="no"?>
<!DOCTYPE svg PUBLIC "-//W3C//DTD SVG 1.1//EN"
 "http://www.w3.org/Graphics/SVG/1.1/DTD/svg11.dtd">
<!-- Generated by graphviz version 14.0.1 (20251006.0113)
 -->
<!-- Title: gui/view/panel/TransferPanel.java Pages: 1 -->
<svg width="1049pt" height="96pt"
 viewBox="0.00 0.00 1049.00 96.00" xmlns="http://www.w3.org/2000/svg" xmlns:xlink="http://www.w3.org/1999/xlink">
<g id="graph0" class="graph" transform="scale(1 1) rotate(0) translate(4 92)">
<title>gui/view/panel/TransferPanel.java</title>
<!-- Node1 -->
<g id="Node000001" class="node">
<title>Node1</title>
<g id="a_Node000001"><a xlink:title=" ">
<polygon fill="#999999" stroke="#666666" points="715.62,-88 552.62,-88 552.62,-68 715.62,-68 715.62,-88"/>
<text xml:space="preserve" text-anchor="middle" x="634.12" y="-74.5" font-family="Helvetica,sans-Serif" font-size="10.00">gui/view/panel/TransferPanel.java</text>
</a>
</g>
</g>
<!-- Node2 -->
<g id="Node000002" class="node">
<title>Node2</title>
<g id="a_Node000002"><a xlink:title=" ">
<polygon fill="#e0e0e0" stroke="#999999" points="138.25,-32 0,-32 0,0 138.25,0 138.25,-32"/>
<text xml:space="preserve" text-anchor="start" x="8" y="-18.5" font-family="Helvetica,sans-Serif" font-size="10.00">com.bank.manager.Account</text>
<text xml:space="preserve" text-anchor="middle" x="69.12" y="-6.5" font-family="Helvetica,sans-Serif" font-size="10.00">Manager</text>
</a>
</g>
</g>
<!-- Node1&#45;&gt;Node2 -->
<g id="edge1_Node000001_Node000002" class="edge">
<title>Node1&#45;&gt;Node2</title>
<g id="a_edge1_Node000001_Node000002"><a xlink:title=" ">
<path fill="none" stroke="#63b8ff" d="M552.41,-71.9C457.8,-65.45 297.07,-52.78 149.45,-32.24"/>
<polygon fill="#63b8ff" stroke="#63b8ff" points="150.28,-28.82 139.89,-30.9 149.3,-35.76 150.28,-28.82"/>
</a>
</g>
</g>
<!-- Node3 -->
<g id="Node000003" class="node">
<title>Node3</title>
<g id="a_Node000003"><a xlink:title=" ">
<polygon fill="#e0e0e0" stroke="#999999" points="309.75,-32 156.5,-32 156.5,0 309.75,0 309.75,-32"/>
<text xml:space="preserve" text-anchor="start" x="164.5" y="-18.5" font-family="Helvetica,sans-Serif" font-size="10.00">com.bank.manager.Transaction</text>
<text xml:space="preserve" text-anchor="middle" x="233.12" y="-6.5" font-family="Helvetica,sans-Serif" font-size="10.00">Manager</text>
</a>
</g>
</g>
<!-- Node1&#45;&gt;Node3 -->
<g id="edge2_Node000001_Node000003" class="edge">
<title>Node1&#45;&gt;Node3</title>
<g id="a_edge2_Node000001_Node000003"><a xlink:title=" ">
<path fill="none" stroke="#63b8ff" d="M563.35,-67.52C502,-59.16 410.56,-46.36 321.17,-32.3"/>
<polygon fill="#63b8ff" stroke="#63b8ff" points="321.92,-28.87 311.49,-30.77 320.83,-35.78 321.92,-28.87"/>
</a>
</g>
</g>
<!-- Node4 -->
<g id="Node000004" class="node">
<title>Node4</title>
<g id="a_Node000004"><a xlink:title=" ">
<polygon fill="#e0e0e0" stroke="#999999" points="462,-32 328.25,-32 328.25,0 462,0 462,-32"/>
<text xml:space="preserve" text-anchor="start" x="336.25" y="-18.5" font-family="Helvetica,sans-Serif" font-size="10.00">com.bank.model.accounts.</text>
<text xml:space="preserve" text-anchor="middle" x="395.12" y="-6.5" font-family="Helvetica,sans-Serif" font-size="10.00">Account</text>
</a>
</g>
</g>
<!-- Node1&#45;&gt;Node4 -->
<g id="edge3_Node000001_Node000004" class="edge">
<title>Node1&#45;&gt;Node4</title>
<g id="a_edge3_Node000001_Node000004"><a xlink:title=" ">
<path fill="none" stroke="#63b8ff" d="M596.52,-67.56C562.13,-58.93 510.3,-45.91 467.83,-35.25"/>
<polygon fill="#63b8ff" stroke="#63b8ff" points="468.71,-31.86 458.16,-32.82 467.01,-38.65 468.71,-31.86"/>
</a>
</g>
</g>
<!-- Node5 -->
<g id="Node000005" class="node">
<title>Node5</title>
<g id="a_Node000005"><a xlink:title=" ">
<polygon fill="#e0e0e0" stroke="#999999" points="627.75,-32 480.5,-32 480.5,0 627.75,0 627.75,-32"/>
<text xml:space="preserve" text-anchor="start" x="488.5" y="-18.5" font-family="Helvetica,sans-Serif" font-size="10.00">com.bank.model.transactions.</text>
<text xml:space="preserve" text-anchor="middle" x="554.12" y="-6.5" font-family="Helvetica,sans-Serif" font-size="10.00">Transfer</text>
</a>
</g>
</g>
<!-- Node1&#45;&gt;Node5 -->
<g id="edge4_Node000001_Node000005" class="edge">
<title>Node1&#45;&gt;Node5</title>
<g id="a_edge4_Node000001_Node000005"><a xlink:title=" ">
<path fill="none" stroke="#63b8ff" d="M621.62,-67.62C611.51,-60.04 596.85,-49.05 583.78,-39.24"/>
<polygon fill="#63b8ff" stroke="#63b8ff" points="585.93,-36.48 575.83,-33.28 581.73,-42.08 585.93,-36.48"/>
</a>
</g>
</g>
<!-- Node6 -->
<g id="Node000006" class="node">
<title>Node6</title>
<g id="a_Node000006"><a xlink:title=" ">
<polygon fill="#e0e0e0" stroke="#999999" points="784.62,-26 645.62,-26 645.62,-6 784.62,-6 784.62,-26"/>
<text xml:space="preserve" text-anchor="middle" x="715.12" y="-12.5" font-family="Helvetica,sans-Serif" font-size="10.00">com.bank.model.users.User</text>
</a>
</g>
</g>
<!-- Node1&#45;&gt;Node6 -->
<g id="edge5_Node000001_Node000006" class="edge">
<title>Node1&#45;&gt;Node6</title>
<g id="a_edge5_Node000001_Node000006"><a xlink:title=" ">
<path fill="none" stroke="#63b8ff" d="M646.78,-67.62C659.26,-58.38 678.59,-44.07 693.51,-33.01"/>
<polygon fill="#63b8ff" stroke="#63b8ff" points="695.39,-35.97 701.34,-27.21 691.22,-30.35 695.39,-35.97"/>
</a>
</g>
</g>
<!-- Node7 -->
<g id="Node000007" class="node">
<title>Node7</title>
<g id="a_Node000007"><a xlink:title=" ">
<polygon fill="#e0e0e0" stroke="#999999" points="877.38,-26 802.88,-26 802.88,-6 877.38,-6 877.38,-26"/>
<text xml:space="preserve" text-anchor="middle" x="840.12" y="-12.5" font-family="Helvetica,sans-Serif" font-size="10.00">javax.swing.*</text>
</a>
</g>
</g>
<!-- Node1&#45;&gt;Node7 -->
<g id="edge6_Node000001_Node000007" class="edge">
<title>Node1&#45;&gt;Node7</title>
<g id="a_edge6_Node000001_Node000007"><a xlink:title=" ">
<path fill="none" stroke="#63b8ff" d="M669.2,-67.58C701.7,-58.75 751.33,-44.99 794.12,-32 796.39,-31.31 798.7,-30.6 801.04,-29.87"/>
<polygon fill="#63b8ff" stroke="#63b8ff" points="802.06,-33.22 810.52,-26.85 799.93,-26.55 802.06,-33.22"/>
</a>
</g>
</g>
<!-- Node8 -->
<g id="Node000008" class="node">
<title>Node8</title>
<g id="a_Node000008"><a xlink:title=" ">
<polygon fill="#e0e0e0" stroke="#999999" points="954.88,-26 895.38,-26 895.38,-6 954.88,-6 954.88,-26"/>
<text xml:space="preserve" text-anchor="middle" x="925.12" y="-12.5" font-family="Helvetica,sans-Serif" font-size="10.00">java.awt.*</text>
</a>
</g>
</g>
<!-- Node1&#45;&gt;Node8 -->
<g id="edge7_Node000001_Node000008" class="edge">
<title>Node1&#45;&gt;Node8</title>
<g id="a_edge7_Node000001_Node000008"><a xlink:title=" ">
<path fill="none" stroke="#63b8ff" d="M708.56,-67.51C759.18,-60.13 827.37,-48.38 886.12,-32 888,-31.48 889.91,-30.9 891.82,-30.28"/>
<polygon fill="#63b8ff" stroke="#63b8ff" points="892.98,-33.59 901.26,-26.97 890.66,-26.98 892.98,-33.59"/>
</a>
</g>
</g>
<!-- Node9 -->
<g id="Node000009" class="node">
<title>Node9</title>
<g id="a_Node000009"><a xlink:title=" ">
<polygon fill="#e0e0e0" stroke="#999999" points="1041.38,-26 972.88,-26 972.88,-6 1041.38,-6 1041.38,-26"/>
<text xml:space="preserve" text-anchor="middle" x="1007.12" y="-12.5" font-family="Helvetica,sans-Serif" font-size="10.00">java.util.List</text>
</a>
</g>
</g>
<!-- Node1&#45;&gt;Node9 -->
<g id="edge8_Node000001_Node000009" class="edge">
<title>Node1&#45;&gt;Node9</title>
<g id="a_edge8_Node000001_Node000009"><a xlink:title=" ">
<path fill="none" stroke="#63b8ff" d="M716,-70.43C783.29,-63.93 880.77,-52.01 964.12,-32 966.72,-31.38 969.38,-30.66 972.04,-29.88"/>
<polygon fill="#63b8ff" stroke="#63b8ff" points="972.92,-33.27 981.38,-26.89 970.79,-26.6 972.92,-33.27"/>
</a>
</g>
</g>
</g>
</svg>
