<?xml version="1.0" encoding="UTF-8" standalone="no"?>
<!DOCTYPE svg PUBLIC "-//W3C//DTD SVG 1.1//EN"
 "http://www.w3.org/Graphics/SVG/1.1/DTD/svg11.dtd">
<!-- Generated by graphviz version 14.0.1 (20251006.0113)
 -->
<!-- Title: gui/view/panel/AdminCustomerListPanel.java Pages: 1 -->
<svg width="762pt" height="96pt"
 viewBox="0.00 0.00 762.00 96.00" xmlns="http://www.w3.org/2000/svg" xmlns:xlink="http://www.w3.org/1999/xlink">
<g id="graph0" class="graph" transform="scale(1 1) rotate(0) translate(4 92)">
<title>gui/view/panel/AdminCustomerListPanel.java</title>
<!-- Node1 -->
<g id="Node000001" class="node">
<title>Node1</title>
<g id="a_Node000001"><a xlink:title=" ">
<polygon fill="#999999" stroke="#666666" points="565.25,-88 413.5,-88 413.5,-56 565.25,-56 565.25,-88"/>
<text xml:space="preserve" text-anchor="start" x="421.5" y="-74.5" font-family="Helvetica,sans-Serif" font-size="10.00">gui/view/panel/AdminCustomer</text>
<text xml:space="preserve" text-anchor="middle" x="489.38" y="-62.5" font-family="Helvetica,sans-Serif" font-size="10.00">ListPanel.java</text>
</a>
</g>
</g>
<!-- Node2 -->
<g id="Node000002" class="node">
<title>Node2</title>
<g id="a_Node000002"><a xlink:title=" ">
<polygon fill="#e0e0e0" stroke="#999999" points="160.75,-20 0,-20 0,0 160.75,0 160.75,-20"/>
<text xml:space="preserve" text-anchor="middle" x="80.38" y="-6.5" font-family="Helvetica,sans-Serif" font-size="10.00">com.bank.manager.UserManager</text>
</a>
</g>
</g>
<!-- Node1&#45;&gt;Node2 -->
<g id="edge1_Node000001_Node000002" class="edge">
<title>Node1&#45;&gt;Node2</title>
<g id="a_edge1_Node000001_Node000002"><a xlink:title=" ">
<path fill="none" stroke="#63b8ff" d="M413.4,-59.86C339.9,-49.07 229.15,-32.82 155.82,-22.07"/>
<polygon fill="#63b8ff" stroke="#63b8ff" points="156.74,-18.66 146.34,-20.68 155.72,-25.59 156.74,-18.66"/>
</a>
</g>
</g>
<!-- Node3 -->
<g id="Node000003" class="node">
<title>Node3</title>
<g id="a_Node000003"><a xlink:title=" ">
<polygon fill="#e0e0e0" stroke="#999999" points="339.75,-20 179,-20 179,0 339.75,0 339.75,-20"/>
<text xml:space="preserve" text-anchor="middle" x="259.38" y="-6.5" font-family="Helvetica,sans-Serif" font-size="10.00">com.bank.model.users.Customer</text>
</a>
</g>
</g>
<!-- Node1&#45;&gt;Node3 -->
<g id="edge2_Node000001_Node000003" class="edge">
<title>Node1&#45;&gt;Node3</title>
<g id="a_edge2_Node000001_Node000003"><a xlink:title=" ">
<path fill="none" stroke="#63b8ff" d="M430.14,-55.55C391.83,-45.55 342.62,-32.72 306.88,-23.39"/>
<polygon fill="#63b8ff" stroke="#63b8ff" points="307.8,-20.02 297.24,-20.88 306.03,-26.79 307.8,-20.02"/>
</a>
</g>
</g>
<!-- Node4 -->
<g id="Node000004" class="node">
<title>Node4</title>
<g id="a_Node000004"><a xlink:title=" ">
<polygon fill="#e0e0e0" stroke="#999999" points="496.88,-20 357.88,-20 357.88,0 496.88,0 496.88,-20"/>
<text xml:space="preserve" text-anchor="middle" x="427.38" y="-6.5" font-family="Helvetica,sans-Serif" font-size="10.00">com.bank.model.users.User</text>
</a>
</g>
</g>
<!-- Node1&#45;&gt;Node4 -->
<g id="edge3_Node000001_Node000004" class="edge">
<title>Node1&#45;&gt;Node4</title>
<g id="a_edge3_Node000001_Node000004"><a xlink:title=" ">
<path fill="none" stroke="#63b8ff" d="M473.41,-55.55C464.8,-47.22 454.14,-36.91 445.26,-28.3"/>
<polygon fill="#63b8ff" stroke="#63b8ff" points="447.8,-25.9 438.18,-21.46 442.94,-30.93 447.8,-25.9"/>
</a>
</g>
</g>
<!-- Node5 -->
<g id="Node000005" class="node">
<title>Node5</title>
<g id="a_Node000005"><a xlink:title=" ">
<polygon fill="#e0e0e0" stroke="#999999" points="589.62,-20 515.12,-20 515.12,0 589.62,0 589.62,-20"/>
<text xml:space="preserve" text-anchor="middle" x="552.38" y="-6.5" font-family="Helvetica,sans-Serif" font-size="10.00">javax.swing.*</text>
</a>
</g>
</g>
<!-- Node1&#45;&gt;Node5 -->
<g id="edge4_Node000001_Node000005" class="edge">
<title>Node1&#45;&gt;Node5</title>
<g id="a_edge4_Node000001_Node000005"><a xlink:title=" ">
<path fill="none" stroke="#63b8ff" d="M505.6,-55.55C514.35,-47.22 525.17,-36.91 534.21,-28.3"/>
<polygon fill="#63b8ff" stroke="#63b8ff" points="536.57,-30.88 541.4,-21.45 531.75,-25.81 536.57,-30.88"/>
</a>
</g>
</g>
<!-- Node6 -->
<g id="Node000006" class="node">
<title>Node6</title>
<g id="a_Node000006"><a xlink:title=" ">
<polygon fill="#e0e0e0" stroke="#999999" points="667.12,-20 607.62,-20 607.62,0 667.12,0 667.12,-20"/>
<text xml:space="preserve" text-anchor="middle" x="637.38" y="-6.5" font-family="Helvetica,sans-Serif" font-size="10.00">java.awt.*</text>
</a>
</g>
</g>
<!-- Node1&#45;&gt;Node6 -->
<g id="edge5_Node000001_Node000006" class="edge">
<title>Node1&#45;&gt;Node6</title>
<g id="a_edge5_Node000001_Node000006"><a xlink:title=" ">
<path fill="none" stroke="#63b8ff" d="M527.49,-55.55C551.04,-46 580.99,-33.86 603.68,-24.66"/>
<polygon fill="#63b8ff" stroke="#63b8ff" points="604.81,-27.98 612.77,-20.98 602.18,-21.49 604.81,-27.98"/>
</a>
</g>
</g>
<!-- Node7 -->
<g id="Node000007" class="node">
<title>Node7</title>
<g id="a_Node000007"><a xlink:title=" ">
<polygon fill="#e0e0e0" stroke="#999999" points="753.62,-20 685.12,-20 685.12,0 753.62,0 753.62,-20"/>
<text xml:space="preserve" text-anchor="middle" x="719.38" y="-6.5" font-family="Helvetica,sans-Serif" font-size="10.00">java.util.List</text>
</a>
</g>
</g>
<!-- Node1&#45;&gt;Node7 -->
<g id="edge6_Node000001_Node000007" class="edge">
<title>Node1&#45;&gt;Node7</title>
<g id="a_edge6_Node000001_Node000007"><a xlink:title=" ">
<path fill="none" stroke="#63b8ff" d="M548.61,-55.55C587.52,-45.4 637.67,-32.31 673.54,-22.96"/>
<polygon fill="#63b8ff" stroke="#63b8ff" points="674.4,-26.35 683.19,-20.44 672.63,-19.58 674.4,-26.35"/>
</a>
</g>
</g>
</g>
</svg>
