<?xml version="1.0" encoding="UTF-8" standalone="no"?>
<!DOCTYPE svg PUBLIC "-//W3C//DTD SVG 1.1//EN"
 "http://www.w3.org/Graphics/SVG/1.1/DTD/svg11.dtd">
<!-- Generated by graphviz version 14.0.1 (20251006.0113)
 -->
<!-- Title: com.bank.model.orders.PaymentOrder.execute Pages: 1 -->
<!--zoomable 466 -->

<svg id="main" version="1.1" xmlns="http://www.w3.org/2000/svg" xmlns:xlink="http://www.w3.org/1999/xlink" xml:space="preserve" onload="init(evt)">

<style type="text/css"><![CDATA[
.node, .edge {opacity: 0.7;}
.node.selected, .edge.selected {opacity: 1;}
.edge:hover path { stroke: red; }
.edge:hover polygon { stroke: red; fill: red; }
]]></style>

<defs>
  <circle id="rim" cx="0" cy="0" r="7"/>
  <circle id="rim2" cx="0" cy="0" r="3.5"/>
  <g id="zoomPlus">
    <use xlink:href="#rim" fill="#404040"><set attributeName="fill" to="#808080" begin="zoomplus.mouseover" end="zoomplus.mouseout"/></use>
    <path d="M-4,0h8M0,-4v8" fill="none" stroke="white" stroke-width="1.5" pointer-events="none"/>
  </g>
  <g id="zoomMin">
    <use xlink:href="#rim" fill="#404040"><set attributeName="fill" to="#808080" begin="zoomminus.mouseover" end="zoomminus.mouseout"/></use>
    <path d="M-4,0h8" fill="none" stroke="white" stroke-width="1.5" pointer-events="none"/>
  </g>
  <g id="arrowUp" transform="translate(30 24)">
    <use xlink:href="#rim"/>
    <path pointer-events="none" fill="none" stroke="white" stroke-width="1.5" d="M0,-3.0v7 M-2.5,-0.5L0,-3.0L2.5,-0.5"/>
  </g>
  <g id="arrowRight" transform="rotate(90) translate(36 -43)">
    <use xlink:href="#rim"/>
    <path pointer-events="none" fill="none" stroke="white" stroke-width="1.5" d="M0,-3.0v7 M-2.5,-0.5L0,-3.0L2.5,-0.5"/>
  </g>
  <g id="arrowDown" transform="rotate(180) translate(-30 -48)">
    <use xlink:href="#rim"/>
    <path pointer-events="none" fill="none" stroke="white" stroke-width="1.5" d="M0,-3.0v7 M-2.5,-0.5L0,-3.0L2.5,-0.5"/>
  </g>
  <g id="arrowLeft" transform="rotate(270) translate(-36 17)">
    <use xlink:href="#rim"/>
    <path pointer-events="none" fill="none" stroke="white" stroke-width="1.5" d="M0,-3.0v7 M-2.5,-0.5L0,-3.0L2.5,-0.5"/>
  </g>
  <g id="resetDef">
    <use xlink:href="#rim2" fill="#404040"><set attributeName="fill" to="#808080" begin="reset.mouseover" end="reset.mouseout"/></use>
  </g>
</defs>
<script type="application/ecmascript">
var viewWidth = 580;
var viewHeight = 466;
var sectionId = 'dynsection-2';
</script>
<script type="application/ecmascript" xlink:href="../../svg.min.js"/>
<svg id="graph" class="graph">
<g id="viewport">
<title>com.bank.model.orders.PaymentOrder.execute</title>
<!-- Node1 -->
<g id="Node000001" class="node">
<title>Node1</title>
<g id="a_Node000001"><a xlink:title="Executes the payment order on the specified payment day.">
<polygon fill="#999999" stroke="#666666" points="160,-236 0,-236 0,-204 160,-204 160,-236"/>
<text xml:space="preserve" text-anchor="start" x="8" y="-222.5" font-family="Helvetica,sans-Serif" font-size="10.00">com.bank.model.orders.Payment</text>
<text xml:space="preserve" text-anchor="middle" x="80" y="-210.5" font-family="Helvetica,sans-Serif" font-size="10.00">Order.execute</text>
</a>
</g>
</g>
<!-- Node2 -->
<g id="Node000002" class="node">
<title>Node2</title>
<g id="a_Node000002"><a xlink:href="../../d6/d0e/classcom_1_1bank_1_1manager_1_1_transaction_manager.html#a4ade645d8387a45e8026f0efd086c921" target="_top" xlink:title="Executes a transaction and records it in history.">
<polygon fill="white" stroke="#666666" points="357.5,-458 204.25,-458 204.25,-426 357.5,-426 357.5,-458"/>
<text xml:space="preserve" text-anchor="start" x="212.25" y="-444.5" font-family="Helvetica,sans-Serif" font-size="10.00">com.bank.manager.Transaction</text>
<text xml:space="preserve" text-anchor="middle" x="280.88" y="-432.5" font-family="Helvetica,sans-Serif" font-size="10.00">Manager.execute</text>
</a>
</g>
</g>
<!-- Node1&#45;&gt;Node2 -->
<g id="edge1_Node000001_Node000002" class="edge">
<title>Node1&#45;&gt;Node2</title>
<g id="a_edge1_Node000001_Node000002"><a xlink:title=" ">
<path fill="none" stroke="#63b8ff" d="M85.89,-236.28C98.04,-273.96 133.26,-367.69 196,-417 197.31,-418.03 198.65,-419.01 200.04,-419.96"/>
<polygon fill="#63b8ff" stroke="#63b8ff" points="197.93,-422.78 208.32,-424.85 201.49,-416.75 197.93,-422.78"/>
</a>
</g>
</g>
<!-- Node4 -->
<g id="Node000004" class="node">
<title>Node4</title>
<g id="a_Node000004"><a xlink:href="../../dd/db1/classcom_1_1bank_1_1manager_1_1_account_manager.html#a8a3ebf20f49b1718127736507683d480" target="_top" xlink:title="Finds an account by IBAN.">
<polygon fill="white" stroke="#666666" points="350,-408 211.75,-408 211.75,-376 350,-376 350,-408"/>
<text xml:space="preserve" text-anchor="start" x="219.75" y="-394.5" font-family="Helvetica,sans-Serif" font-size="10.00">com.bank.manager.Account</text>
<text xml:space="preserve" text-anchor="middle" x="280.88" y="-382.5" font-family="Helvetica,sans-Serif" font-size="10.00">Manager.findByIban</text>
</a>
</g>
</g>
<!-- Node1&#45;&gt;Node4 -->
<g id="edge3_Node000001_Node000004" class="edge">
<title>Node1&#45;&gt;Node4</title>
<g id="a_edge3_Node000001_Node000004"><a xlink:title=" ">
<path fill="none" stroke="#63b8ff" d="M89.33,-236.4C105.61,-266.79 144.59,-331.96 196,-367 197.79,-368.22 199.64,-369.38 201.54,-370.49"/>
<polygon fill="#63b8ff" stroke="#63b8ff" points="199.54,-373.39 210.03,-374.87 202.75,-367.17 199.54,-373.39"/>
</a>
</g>
</g>
<!-- Node6 -->
<g id="Node000006" class="node">
<title>Node6</title>
<g id="a_Node000006"><a xlink:href="../../d3/dd4/classcom_1_1bank_1_1model_1_1bills_1_1_bill.html#aad5240cceb00c7c382167c877fd2f09e" target="_top" xlink:title=" ">
<polygon fill="white" stroke="#666666" points="351.5,-358 210.25,-358 210.25,-326 351.5,-326 351.5,-358"/>
<text xml:space="preserve" text-anchor="start" x="218.25" y="-344.5" font-family="Helvetica,sans-Serif" font-size="10.00">com.bank.model.bills.Bill.get</text>
<text xml:space="preserve" text-anchor="middle" x="280.88" y="-332.5" font-family="Helvetica,sans-Serif" font-size="10.00">Amount</text>
</a>
</g>
</g>
<!-- Node1&#45;&gt;Node6 -->
<g id="edge5_Node000001_Node000006" class="edge">
<title>Node1&#45;&gt;Node6</title>
<g id="a_edge5_Node000001_Node000006"><a xlink:title=" ">
<path fill="none" stroke="#63b8ff" d="M96.17,-236.46C116.81,-257.93 155.78,-295.28 196,-317 198.82,-318.52 201.74,-319.96 204.74,-321.33"/>
<polygon fill="#63b8ff" stroke="#63b8ff" points="203.15,-324.46 213.73,-325.08 205.85,-318 203.15,-324.46"/>
</a>
</g>
</g>
<!-- Node7 -->
<g id="Node000007" class="node">
<title>Node7</title>
<g id="a_Node000007"><a xlink:href="../../da/d83/classcom_1_1bank_1_1model_1_1accounts_1_1_account.html#a9fb33a39fa4b91e75fc66a93ff23ae8b" target="_top" xlink:title=" ">
<polygon fill="white" stroke="#666666" points="347.75,-308 214,-308 214,-276 347.75,-276 347.75,-308"/>
<text xml:space="preserve" text-anchor="start" x="222" y="-294.5" font-family="Helvetica,sans-Serif" font-size="10.00">com.bank.model.accounts.</text>
<text xml:space="preserve" text-anchor="middle" x="280.88" y="-282.5" font-family="Helvetica,sans-Serif" font-size="10.00">Account.getBalance</text>
</a>
</g>
</g>
<!-- Node1&#45;&gt;Node7 -->
<g id="edge6_Node000001_Node000007" class="edge">
<title>Node1&#45;&gt;Node7</title>
<g id="a_edge6_Node000001_Node000007"><a xlink:title=" ">
<path fill="none" stroke="#63b8ff" d="M118.45,-236.4C140.76,-245.89 169.76,-257.75 196,-267 200.94,-268.74 206.06,-270.46 211.24,-272.14"/>
<polygon fill="#63b8ff" stroke="#63b8ff" points="209.85,-275.38 220.44,-275.07 211.97,-268.7 209.85,-275.38"/>
</a>
</g>
</g>
<!-- Node8 -->
<g id="Node000008" class="node">
<title>Node8</title>
<g id="a_Node000008"><a xlink:href="../../dc/d48/classcom_1_1bank_1_1manager_1_1_bill_manager.html#a9e1ae7cd2460652d88fd043dca6d4dc5" target="_top" xlink:title="Finds a bill by its RF/paymentCode among all bills.">
<polygon fill="white" stroke="#666666" points="365.75,-258 196,-258 196,-226 365.75,-226 365.75,-258"/>
<text xml:space="preserve" text-anchor="start" x="204" y="-244.5" font-family="Helvetica,sans-Serif" font-size="10.00">com.bank.manager.BillManager.get</text>
<text xml:space="preserve" text-anchor="middle" x="280.88" y="-232.5" font-family="Helvetica,sans-Serif" font-size="10.00">BillByRF</text>
</a>
</g>
</g>
<!-- Node1&#45;&gt;Node8 -->
<g id="edge7_Node000001_Node000008" class="edge">
<title>Node1&#45;&gt;Node8</title>
<g id="a_edge7_Node000001_Node000008"><a xlink:title=" ">
<path fill="none" stroke="#63b8ff" d="M160.46,-228.79C168.33,-229.66 176.37,-230.55 184.38,-231.44"/>
<polygon fill="#63b8ff" stroke="#63b8ff" points="183.83,-234.9 194.15,-232.52 184.6,-227.94 183.83,-234.9"/>
</a>
</g>
</g>
<!-- Node10 -->
<g id="Node000010" class="node">
<title>Node10</title>
<g id="a_Node000010"><a xlink:href="../../d3/dd4/classcom_1_1bank_1_1model_1_1bills_1_1_bill.html#a73882163a2347d97e6d532096d4c2312" target="_top" xlink:title=" ">
<polygon fill="white" stroke="#666666" points="557.25,-214 416,-214 416,-182 557.25,-182 557.25,-214"/>
<text xml:space="preserve" text-anchor="start" x="424" y="-200.5" font-family="Helvetica,sans-Serif" font-size="10.00">com.bank.model.bills.Bill.get</text>
<text xml:space="preserve" text-anchor="middle" x="486.62" y="-188.5" font-family="Helvetica,sans-Serif" font-size="10.00">PaymentCode</text>
</a>
</g>
</g>
<!-- Node1&#45;&gt;Node10 -->
<g id="edge12_Node000001_Node000010" class="edge">
<title>Node1&#45;&gt;Node10</title>
<g id="a_edge12_Node000001_Node000010"><a xlink:title=" ">
<path fill="none" stroke="#63b8ff" d="M160.46,-215.68C231.02,-211.84 333.68,-206.26 404.69,-202.4"/>
<polygon fill="#63b8ff" stroke="#63b8ff" points="404.49,-205.92 414.29,-201.88 404.11,-198.93 404.49,-205.92"/>
</a>
</g>
</g>
<!-- Node11 -->
<g id="Node000011" class="node">
<title>Node11</title>
<g id="a_Node000011"><a xlink:href="../../d3/dd4/classcom_1_1bank_1_1model_1_1bills_1_1_bill.html#ab725ab0eeefad74edf61a04c58df8be6" target="_top" xlink:title=" ">
<polygon fill="white" stroke="#666666" points="351.5,-170 210.25,-170 210.25,-138 351.5,-138 351.5,-170"/>
<text xml:space="preserve" text-anchor="start" x="218.25" y="-156.5" font-family="Helvetica,sans-Serif" font-size="10.00">com.bank.model.bills.Bill.get</text>
<text xml:space="preserve" text-anchor="middle" x="280.88" y="-144.5" font-family="Helvetica,sans-Serif" font-size="10.00">DueDate</text>
</a>
</g>
</g>
<!-- Node1&#45;&gt;Node11 -->
<g id="edge10_Node000001_Node000011" class="edge">
<title>Node1&#45;&gt;Node11</title>
<g id="a_edge10_Node000001_Node000011"><a xlink:title=" ">
<path fill="none" stroke="#63b8ff" d="M130.67,-203.52C157.71,-194.54 191.35,-183.38 219.85,-173.92"/>
<polygon fill="#63b8ff" stroke="#63b8ff" points="220.67,-177.34 229.06,-170.87 218.46,-170.69 220.67,-177.34"/>
</a>
</g>
</g>
<!-- Node12 -->
<g id="Node000012" class="node">
<title>Node12</title>
<g id="a_Node000012"><a xlink:href="../../d3/dd4/classcom_1_1bank_1_1model_1_1bills_1_1_bill.html#a51246f53268ef90f6c26803fd1121e5c" target="_top" xlink:title=" ">
<polygon fill="white" stroke="#666666" points="351.5,-120 210.25,-120 210.25,-88 351.5,-88 351.5,-120"/>
<text xml:space="preserve" text-anchor="start" x="218.25" y="-106.5" font-family="Helvetica,sans-Serif" font-size="10.00">com.bank.model.bills.Bill.get</text>
<text xml:space="preserve" text-anchor="middle" x="280.88" y="-94.5" font-family="Helvetica,sans-Serif" font-size="10.00">Issuer</text>
</a>
</g>
</g>
<!-- Node1&#45;&gt;Node12 -->
<g id="edge11_Node000001_Node000012" class="edge">
<title>Node1&#45;&gt;Node12</title>
<g id="a_edge11_Node000001_Node000012"><a xlink:title=" ">
<path fill="none" stroke="#63b8ff" d="M97.47,-203.56C118.59,-183.34 157.15,-149.2 196,-129 199,-127.44 202.12,-125.96 205.31,-124.56"/>
<polygon fill="#63b8ff" stroke="#63b8ff" points="206.31,-127.93 214.27,-120.93 203.68,-121.44 206.31,-127.93"/>
</a>
</g>
</g>
<!-- Node13 -->
<g id="Node000013" class="node">
<title>Node13</title>
<g id="a_Node000013"><a xlink:href="../../d7/d26/classcom_1_1bank_1_1model_1_1orders_1_1_standing_order.html#a87b39ed2397892d0db4c4b8bf69abf13" target="_top" xlink:title=" ">
<polygon fill="white" stroke="#666666" points="360.5,-70 201.25,-70 201.25,-38 360.5,-38 360.5,-70"/>
<text xml:space="preserve" text-anchor="start" x="209.25" y="-56.5" font-family="Helvetica,sans-Serif" font-size="10.00">com.bank.model.orders.Standing</text>
<text xml:space="preserve" text-anchor="middle" x="280.88" y="-44.5" font-family="Helvetica,sans-Serif" font-size="10.00">Order.setIsActive</text>
</a>
</g>
</g>
<!-- Node1&#45;&gt;Node13 -->
<g id="edge13_Node000001_Node000013" class="edge">
<title>Node1&#45;&gt;Node13</title>
<g id="a_edge13_Node000001_Node000013"><a xlink:title=" ">
<path fill="none" stroke="#63b8ff" d="M89.77,-203.82C106.49,-174.49 145.8,-112.47 196,-79 197.85,-77.77 199.76,-76.59 201.72,-75.48"/>
<polygon fill="#63b8ff" stroke="#63b8ff" points="203.17,-78.66 210.52,-71.03 200.02,-72.41 203.17,-78.66"/>
</a>
</g>
</g>
<!-- Node14 -->
<g id="Node000014" class="node">
<title>Node14</title>
<g id="a_Node000014"><a xlink:href="../../d3/dd4/classcom_1_1bank_1_1model_1_1bills_1_1_bill.html#a0d03ed4f25d34f88efec757d7f88a348" target="_top" xlink:title=" ">
<polygon fill="white" stroke="#666666" points="361.25,-20 200.5,-20 200.5,0 361.25,0 361.25,-20"/>
<text xml:space="preserve" text-anchor="middle" x="280.88" y="-6.5" font-family="Helvetica,sans-Serif" font-size="10.00">com.bank.model.bills.Bill.setPaid</text>
</a>
</g>
</g>
<!-- Node1&#45;&gt;Node14 -->
<g id="edge14_Node000001_Node000014" class="edge">
<title>Node1&#45;&gt;Node14</title>
<g id="a_edge14_Node000001_Node000014"><a xlink:title=" ">
<path fill="none" stroke="#63b8ff" d="M85.91,-203.65C98.01,-166.33 132.94,-74.57 196,-29 197.77,-27.72 199.61,-26.53 201.51,-25.41"/>
<polygon fill="#63b8ff" stroke="#63b8ff" points="202.68,-28.74 210.07,-21.14 199.56,-22.47 202.68,-28.74"/>
</a>
</g>
</g>
<!-- Node3 -->
<g id="Node000003" class="node">
<title>Node3</title>
<g id="a_Node000003"><a xlink:href="../../d5/d94/classcom_1_1bank_1_1model_1_1transactions_1_1_transaction.html#a31513476c29864af24cc9a96185ceaa7" target="_top" xlink:title="Executes the transaction logic.">
<polygon fill="white" stroke="#666666" points="560.25,-458 413,-458 413,-426 560.25,-426 560.25,-458"/>
<text xml:space="preserve" text-anchor="start" x="421" y="-444.5" font-family="Helvetica,sans-Serif" font-size="10.00">com.bank.model.transactions.</text>
<text xml:space="preserve" text-anchor="middle" x="486.62" y="-432.5" font-family="Helvetica,sans-Serif" font-size="10.00">Transaction.execute</text>
</a>
</g>
</g>
<!-- Node2&#45;&gt;Node3 -->
<g id="edge2_Node000002_Node000003" class="edge">
<title>Node2&#45;&gt;Node3</title>
<g id="a_edge2_Node000002_Node000003"><a xlink:title=" ">
<path fill="none" stroke="#63b8ff" d="M357.74,-442C371.94,-442 386.86,-442 401.29,-442"/>
<polygon fill="#63b8ff" stroke="#63b8ff" points="401.22,-445.5 411.22,-442 401.22,-438.5 401.22,-445.5"/>
</a>
</g>
</g>
<!-- Node5 -->
<g id="Node000005" class="node">
<title>Node5</title>
<g id="a_Node000005"><a xlink:href="../../da/d83/classcom_1_1bank_1_1model_1_1accounts_1_1_account.html#a38981f8e6e13e82b7135c3b57bd2bba0" target="_top" xlink:title=" ">
<polygon fill="white" stroke="#666666" points="553.5,-408 419.75,-408 419.75,-376 553.5,-376 553.5,-408"/>
<text xml:space="preserve" text-anchor="start" x="427.75" y="-394.5" font-family="Helvetica,sans-Serif" font-size="10.00">com.bank.model.accounts.</text>
<text xml:space="preserve" text-anchor="middle" x="486.62" y="-382.5" font-family="Helvetica,sans-Serif" font-size="10.00">Account.getIban</text>
</a>
</g>
</g>
<!-- Node4&#45;&gt;Node5 -->
<g id="edge4_Node000004_Node000005" class="edge">
<title>Node4&#45;&gt;Node5</title>
<g id="a_edge4_Node000004_Node000005"><a xlink:title=" ">
<path fill="none" stroke="#63b8ff" d="M350.29,-392C368.85,-392 389.08,-392 408.11,-392"/>
<polygon fill="#63b8ff" stroke="#63b8ff" points="407.95,-395.5 417.95,-392 407.95,-388.5 407.95,-395.5"/>
</a>
</g>
</g>
<!-- Node9 -->
<g id="Node000009" class="node">
<title>Node9</title>
<g id="a_Node000009"><a xlink:href="../../dc/d48/classcom_1_1bank_1_1manager_1_1_bill_manager.html#ac7ca72058f0f60e72fb7a0d88742fc3c" target="_top" xlink:title="Returns all bills (issued + paid).">
<polygon fill="white" stroke="#666666" points="571.5,-264 401.75,-264 401.75,-232 571.5,-232 571.5,-264"/>
<text xml:space="preserve" text-anchor="start" x="409.75" y="-250.5" font-family="Helvetica,sans-Serif" font-size="10.00">com.bank.manager.BillManager.get</text>
<text xml:space="preserve" text-anchor="middle" x="486.62" y="-238.5" font-family="Helvetica,sans-Serif" font-size="10.00">AllBills</text>
</a>
</g>
</g>
<!-- Node8&#45;&gt;Node9 -->
<g id="edge8_Node000008_Node000009" class="edge">
<title>Node8&#45;&gt;Node9</title>
<g id="a_edge8_Node000008_Node000009"><a xlink:title=" ">
<path fill="none" stroke="#63b8ff" d="M366.22,-244.48C374.02,-244.71 381.95,-244.95 389.84,-245.18"/>
<polygon fill="#63b8ff" stroke="#63b8ff" points="389.73,-248.68 399.83,-245.47 389.94,-241.68 389.73,-248.68"/>
</a>
</g>
</g>
<!-- Node8&#45;&gt;Node10 -->
<g id="edge9_Node000008_Node000010" class="edge">
<title>Node8&#45;&gt;Node10</title>
<g id="a_edge9_Node000008_Node000010"><a xlink:title=" ">
<path fill="none" stroke="#63b8ff" d="M358.03,-225.55C373.22,-222.27 389.23,-218.82 404.58,-215.5"/>
<polygon fill="#63b8ff" stroke="#63b8ff" points="405.1,-218.97 414.13,-213.44 403.62,-212.13 405.1,-218.97"/>
</a>
</g>
</g>
</g>
</svg>

<g id="navigator" transform="translate(0 0)" fill="#404254">
  <rect fill="#f2f5e9" fill-opacity="0.5" stroke="#606060" stroke-width=".5" x="0" y="0" width="60" height="60"/>
  <use id="zoomplus" xlink:href="#zoomPlus" x="17" y="9" onmousedown="handleZoom(evt,'in')"/>
  <use id="zoomminus" xlink:href="#zoomMin" x="42" y="9" onmousedown="handleZoom(evt,'out')"/>
  <use id="reset" xlink:href="#resetDef" x="30" y="36" onmousedown="handleReset()"/>
   <use id="arrowup" xlink:href="#arrowUp" x="0" y="0" onmousedown="handlePan(0,-1)"/>
  <use id="arrowright" xlink:href="#arrowRight" x="0" y="0" onmousedown="handlePan(1,0)"/>
  <use id="arrowdown" xlink:href="#arrowDown" x="0" y="0" onmousedown="handlePan(0,1)"/>
  <use id="arrowleft" xlink:href="#arrowLeft" x="0" y="0" onmousedown="handlePan(-1,0)"/>
</g>
<svg viewBox="0 0 15 15" width="100%" height="30px" preserveAspectRatio="xMaxYMin meet">
 <g id="arrow_out" transform="scale(0.3 0.3)">
  <a xlink:href="classcom_1_1bank_1_1model_1_1orders_1_1_payment_order_a439eabdedf52f8c33708338984440c6e_cgraph_org.svg" target="_base">
   <rect id="button" ry="5" rx="5" y="6" x="6" height="38" width="38"
        fill="#f2f5e9" fill-opacity="0.5" stroke="#606060" stroke-width="1.0"/>
   <path id="arrow"
     d="M 11.500037,31.436501 C 11.940474,20.09759 22.043105,11.32322 32.158766,21.979434 L 37.068811,17.246167 C 37.068811,17.246167 37.088388,32 37.088388,32 L 22.160133,31.978069 C 22.160133,31.978069 26.997745,27.140456 26.997745,27.140456 C 18.528582,18.264221 13.291696,25.230495 11.500037,31.436501 z"
     style="fill:#404040;"/>
  </a>
 </g>
</svg>

<style type='text/css'>
<![CDATA[
[data-mouse-over-selected='false'] { opacity: 0.7; }
[data-mouse-over-selected='true']  { opacity: 1.0; }
]]>
</style>
<script type="application/ecmascript"><![CDATA[
document.addEventListener('DOMContentLoaded', (event) => {
  highlightEdges();
  highlightAdjacentNodes();
});
]]></script>
</svg>
