<?xml version="1.0" encoding="UTF-8" standalone="no"?>
<!DOCTYPE svg PUBLIC "-//W3C//DTD SVG 1.1//EN"
 "http://www.w3.org/Graphics/SVG/1.1/DTD/svg11.dtd">
<!-- Generated by graphviz version 14.0.1 (20251006.0113)
 -->
<!-- Title: com.bank.model.transactions.Transfer Pages: 1 -->
<!--zoomable 780 -->

<svg id="main" version="1.1" xmlns="http://www.w3.org/2000/svg" xmlns:xlink="http://www.w3.org/1999/xlink" xml:space="preserve" onload="init(evt)">

<style type="text/css"><![CDATA[
.node, .edge {opacity: 0.7;}
.node.selected, .edge.selected {opacity: 1;}
.edge:hover path { stroke: red; }
.edge:hover polygon { stroke: red; fill: red; }
]]></style>

<defs>
  <circle id="rim" cx="0" cy="0" r="7"/>
  <circle id="rim2" cx="0" cy="0" r="3.5"/>
  <g id="zoomPlus">
    <use xlink:href="#rim" fill="#404040"><set attributeName="fill" to="#808080" begin="zoomplus.mouseover" end="zoomplus.mouseout"/></use>
    <path d="M-4,0h8M0,-4v8" fill="none" stroke="white" stroke-width="1.5" pointer-events="none"/>
  </g>
  <g id="zoomMin">
    <use xlink:href="#rim" fill="#404040"><set attributeName="fill" to="#808080" begin="zoomminus.mouseover" end="zoomminus.mouseout"/></use>
    <path d="M-4,0h8" fill="none" stroke="white" stroke-width="1.5" pointer-events="none"/>
  </g>
  <g id="arrowUp" transform="translate(30 24)">
    <use xlink:href="#rim"/>
    <path pointer-events="none" fill="none" stroke="white" stroke-width="1.5" d="M0,-3.0v7 M-2.5,-0.5L0,-3.0L2.5,-0.5"/>
  </g>
  <g id="arrowRight" transform="rotate(90) translate(36 -43)">
    <use xlink:href="#rim"/>
    <path pointer-events="none" fill="none" stroke="white" stroke-width="1.5" d="M0,-3.0v7 M-2.5,-0.5L0,-3.0L2.5,-0.5"/>
  </g>
  <g id="arrowDown" transform="rotate(180) translate(-30 -48)">
    <use xlink:href="#rim"/>
    <path pointer-events="none" fill="none" stroke="white" stroke-width="1.5" d="M0,-3.0v7 M-2.5,-0.5L0,-3.0L2.5,-0.5"/>
  </g>
  <g id="arrowLeft" transform="rotate(270) translate(-36 17)">
    <use xlink:href="#rim"/>
    <path pointer-events="none" fill="none" stroke="white" stroke-width="1.5" d="M0,-3.0v7 M-2.5,-0.5L0,-3.0L2.5,-0.5"/>
  </g>
  <g id="resetDef">
    <use xlink:href="#rim2" fill="#404040"><set attributeName="fill" to="#808080" begin="reset.mouseover" end="reset.mouseout"/></use>
  </g>
</defs>
<script type="application/ecmascript">
var viewWidth = 292;
var viewHeight = 780;
var sectionId = 'dynsection-1';
</script>
<script type="application/ecmascript" xlink:href="../../svg.min.js"/>
<svg id="graph" class="graph">
<g id="viewport">
<title>com.bank.model.transactions.Transfer</title>
<!-- Node1 -->
<g id="Node000001" class="node">
<title>Node1</title>
<g id="a_Node000001"><a xlink:title="Represents a money transfer between two bank accounts.">
<polygon fill="#999999" stroke="none" points="212,-128 72.75,-128 72.75,0 212,0 212,-128"/>
<text xml:space="preserve" text-anchor="start" x="76.75" y="-114.5" font-family="Helvetica,sans-Serif" font-size="10.00">com.bank.model.transactions.</text>
<text xml:space="preserve" text-anchor="start" x="124.38" y="-102.5" font-family="Helvetica,sans-Serif" font-size="10.00">Transfer</text>
<text xml:space="preserve" text-anchor="start" x="140.88" y="-86.5" font-family="Helvetica,sans-Serif" font-size="10.00"> </text>
<text xml:space="preserve" text-anchor="start" x="93.75" y="-70.5" font-family="Helvetica,sans-Serif" font-size="10.00">+</text>
<text xml:space="preserve" text-anchor="start" x="120.75" y="-70.5" font-family="Helvetica,sans-Serif" font-size="10.00">Transfer()</text>
<text xml:space="preserve" text-anchor="start" x="93.75" y="-54.5" font-family="Helvetica,sans-Serif" font-size="10.00">+</text>
<text xml:space="preserve" text-anchor="start" x="120.75" y="-54.5" font-family="Helvetica,sans-Serif" font-size="10.00">execute()</text>
<text xml:space="preserve" text-anchor="start" x="93.75" y="-38.5" font-family="Helvetica,sans-Serif" font-size="10.00">+</text>
<text xml:space="preserve" text-anchor="start" x="120.75" y="-38.5" font-family="Helvetica,sans-Serif" font-size="10.00">getFrom()</text>
<text xml:space="preserve" text-anchor="start" x="93.75" y="-22.5" font-family="Helvetica,sans-Serif" font-size="10.00">+</text>
<text xml:space="preserve" text-anchor="start" x="120.75" y="-22.5" font-family="Helvetica,sans-Serif" font-size="10.00">getTo()</text>
<text xml:space="preserve" text-anchor="start" x="93.75" y="-6.5" font-family="Helvetica,sans-Serif" font-size="10.00">+</text>
<text xml:space="preserve" text-anchor="start" x="120.75" y="-6.5" font-family="Helvetica,sans-Serif" font-size="10.00">getAmount()</text>
<polygon fill="#666666" stroke="#666666" points="72.75,-98 72.75,-98 212,-98 212,-98 72.75,-98"/>
<polygon fill="#666666" stroke="#666666" points="72.75,-82 72.75,-82 212,-82 212,-82 72.75,-82"/>
<polygon fill="none" stroke="#666666" points="72.75,0 72.75,-128 212,-128 212,0 72.75,0"/>
</a>
</g>
</g>
<!-- Node2 -->
<g id="Node000002" class="node">
<title>Node2</title>
<g id="a_Node000002"><a xlink:href="../../d5/d94/classcom_1_1bank_1_1model_1_1transactions_1_1_transaction.html" target="_top" xlink:title="Abstract base class representing a financial transaction.">
<polygon fill="white" stroke="none" points="212,-357 72.75,-357 72.75,-165 212,-165 212,-357"/>
<text xml:space="preserve" text-anchor="start" x="76.75" y="-343.5" font-family="Helvetica,sans-Serif" font-size="10.00">com.bank.model.transactions.</text>
<text xml:space="preserve" text-anchor="start" x="116.88" y="-331.5" font-family="Helvetica,sans-Serif" font-size="10.00">Transaction</text>
<text xml:space="preserve" text-anchor="start" x="85.5" y="-315.5" font-family="Helvetica,sans-Serif" font-size="10.00">#</text>
<text xml:space="preserve" text-anchor="start" x="103.5" y="-315.5" font-family="Helvetica,sans-Serif" font-size="10.00">transactionId</text>
<text xml:space="preserve" text-anchor="start" x="85.5" y="-299.5" font-family="Helvetica,sans-Serif" font-size="10.00">#</text>
<text xml:space="preserve" text-anchor="start" x="103.5" y="-299.5" font-family="Helvetica,sans-Serif" font-size="10.00">timestamp</text>
<text xml:space="preserve" text-anchor="start" x="85.5" y="-283.5" font-family="Helvetica,sans-Serif" font-size="10.00">#</text>
<text xml:space="preserve" text-anchor="start" x="103.5" y="-283.5" font-family="Helvetica,sans-Serif" font-size="10.00">reason</text>
<text xml:space="preserve" text-anchor="start" x="85.12" y="-267.5" font-family="Helvetica,sans-Serif" font-size="10.00">+</text>
<text xml:space="preserve" text-anchor="start" x="103.5" y="-267.5" font-family="Helvetica,sans-Serif" font-size="10.00">Transaction()</text>
<text xml:space="preserve" text-anchor="start" x="85.12" y="-251.5" font-family="Helvetica,sans-Serif" font-size="10.00">+</text>
<text xml:space="preserve" text-anchor="start" x="103.5" y="-251.5" font-family="Helvetica,sans-Serif" font-size="10.00">getStatementEntry()</text>
<text xml:space="preserve" text-anchor="start" x="85.12" y="-235.5" font-family="Helvetica,sans-Serif" font-size="10.00">+</text>
<text xml:space="preserve" text-anchor="start" x="103.5" y="-235.5" font-family="Helvetica,sans-Serif" font-size="10.00">getTransactionId()</text>
<text xml:space="preserve" text-anchor="start" x="85.12" y="-219.5" font-family="Helvetica,sans-Serif" font-size="10.00">+</text>
<text xml:space="preserve" text-anchor="start" x="103.5" y="-219.5" font-family="Helvetica,sans-Serif" font-size="10.00">getTimestamp()</text>
<text xml:space="preserve" text-anchor="start" x="85.12" y="-203.5" font-family="Helvetica,sans-Serif" font-size="10.00">+</text>
<text xml:space="preserve" text-anchor="start" x="103.5" y="-203.5" font-family="Helvetica,sans-Serif" font-size="10.00">getTransactor()</text>
<text xml:space="preserve" text-anchor="start" x="85.12" y="-187.5" font-family="Helvetica,sans-Serif" font-size="10.00">+</text>
<text xml:space="preserve" text-anchor="start" x="103.5" y="-187.5" font-family="Helvetica,sans-Serif" font-size="10.00">getReason()</text>
<text xml:space="preserve" text-anchor="start" x="85.12" y="-171.5" font-family="Helvetica,sans-Serif" font-size="10.00">+</text>
<text xml:space="preserve" text-anchor="start" x="103.5" y="-171.5" font-family="Helvetica,sans-Serif" font-size="10.00">execute()</text>
<polygon fill="#666666" stroke="#666666" points="72.75,-327 72.75,-327 212,-327 212,-327 72.75,-327"/>
<polygon fill="#666666" stroke="#666666" points="72.75,-279 72.75,-279 101.5,-279 101.5,-279 72.75,-279"/>
<polygon fill="#666666" stroke="#666666" points="101.5,-279 101.5,-279 212,-279 212,-279 101.5,-279"/>
<polygon fill="none" stroke="#666666" points="72.75,-165 72.75,-357 212,-357 212,-165 72.75,-165"/>
</a>
</g>
</g>
<!-- Node2&#45;&gt;Node1 -->
<g id="edge1_Node000001_Node000002" class="edge">
<title>Node2&#45;&gt;Node1</title>
<g id="a_edge1_Node000001_Node000002"><a xlink:title=" ">
<path fill="none" stroke="#63b8ff" d="M142.38,-153.57C142.38,-144.84 142.38,-136.21 142.38,-127.96"/>
<polygon fill="none" stroke="#63b8ff" points="138.88,-153.56 142.38,-163.56 145.88,-153.56 138.88,-153.56"/>
</a>
</g>
</g>
<!-- Node3 -->
<g id="Node000003" class="node">
<title>Node3</title>
<g id="a_Node000003"><a xlink:href="../../d2/d71/classcom_1_1bank_1_1model_1_1statements_1_1_statement_entry.html" target="_top" xlink:title="Represents a single transaction record in an account statement.">
<polygon fill="white" stroke="none" points="134.75,-667 0,-667 0,-411 134.75,-411 134.75,-667"/>
<text xml:space="preserve" text-anchor="start" x="4" y="-653.5" font-family="Helvetica,sans-Serif" font-size="10.00">com.bank.model.statements.</text>
<text xml:space="preserve" text-anchor="start" x="33.25" y="-641.5" font-family="Helvetica,sans-Serif" font-size="10.00">StatementEntry</text>
<text xml:space="preserve" text-anchor="start" x="65.88" y="-625.5" font-family="Helvetica,sans-Serif" font-size="10.00"> </text>
<text xml:space="preserve" text-anchor="start" x="14.62" y="-609.5" font-family="Helvetica,sans-Serif" font-size="10.00">+</text>
<text xml:space="preserve" text-anchor="start" x="35.25" y="-609.5" font-family="Helvetica,sans-Serif" font-size="10.00">StatementEntry()</text>
<text xml:space="preserve" text-anchor="start" x="14.62" y="-593.5" font-family="Helvetica,sans-Serif" font-size="10.00">+</text>
<text xml:space="preserve" text-anchor="start" x="35.25" y="-593.5" font-family="Helvetica,sans-Serif" font-size="10.00">StatementEntry()</text>
<text xml:space="preserve" text-anchor="start" x="14.62" y="-577.5" font-family="Helvetica,sans-Serif" font-size="10.00">+</text>
<text xml:space="preserve" text-anchor="start" x="35.25" y="-577.5" font-family="Helvetica,sans-Serif" font-size="10.00">getTransactor()</text>
<text xml:space="preserve" text-anchor="start" x="14.62" y="-561.5" font-family="Helvetica,sans-Serif" font-size="10.00">+</text>
<text xml:space="preserve" text-anchor="start" x="35.25" y="-561.5" font-family="Helvetica,sans-Serif" font-size="10.00">getReason()</text>
<text xml:space="preserve" text-anchor="start" x="14.62" y="-545.5" font-family="Helvetica,sans-Serif" font-size="10.00">+</text>
<text xml:space="preserve" text-anchor="start" x="35.25" y="-545.5" font-family="Helvetica,sans-Serif" font-size="10.00">getType()</text>
<text xml:space="preserve" text-anchor="start" x="14.62" y="-529.5" font-family="Helvetica,sans-Serif" font-size="10.00">+</text>
<text xml:space="preserve" text-anchor="start" x="35.25" y="-529.5" font-family="Helvetica,sans-Serif" font-size="10.00">getAmount()</text>
<text xml:space="preserve" text-anchor="start" x="14.62" y="-513.5" font-family="Helvetica,sans-Serif" font-size="10.00">+</text>
<text xml:space="preserve" text-anchor="start" x="35.25" y="-513.5" font-family="Helvetica,sans-Serif" font-size="10.00">getBalance()</text>
<text xml:space="preserve" text-anchor="start" x="14.62" y="-497.5" font-family="Helvetica,sans-Serif" font-size="10.00">+</text>
<text xml:space="preserve" text-anchor="start" x="35.25" y="-497.5" font-family="Helvetica,sans-Serif" font-size="10.00">getTimestamp()</text>
<text xml:space="preserve" text-anchor="start" x="14.62" y="-481.5" font-family="Helvetica,sans-Serif" font-size="10.00">+</text>
<text xml:space="preserve" text-anchor="start" x="35.25" y="-481.5" font-family="Helvetica,sans-Serif" font-size="10.00">getFromIban()</text>
<text xml:space="preserve" text-anchor="start" x="14.62" y="-465.5" font-family="Helvetica,sans-Serif" font-size="10.00">+</text>
<text xml:space="preserve" text-anchor="start" x="35.25" y="-465.5" font-family="Helvetica,sans-Serif" font-size="10.00">getToIban()</text>
<text xml:space="preserve" text-anchor="start" x="14.62" y="-449.5" font-family="Helvetica,sans-Serif" font-size="10.00">+</text>
<text xml:space="preserve" text-anchor="start" x="35.25" y="-449.5" font-family="Helvetica,sans-Serif" font-size="10.00">marshal()</text>
<text xml:space="preserve" text-anchor="start" x="14.62" y="-433.5" font-family="Helvetica,sans-Serif" font-size="10.00">+</text>
<text xml:space="preserve" text-anchor="start" x="35.25" y="-433.5" font-family="Helvetica,sans-Serif" font-size="10.00">unmarshal()</text>
<text xml:space="preserve" text-anchor="start" x="14.62" y="-417.5" font-family="Helvetica,sans-Serif" font-size="10.00">+</text>
<text xml:space="preserve" text-anchor="start" x="35.25" y="-417.5" font-family="Helvetica,sans-Serif" font-size="10.00">toString()</text>
<polygon fill="#666666" stroke="#666666" points="0,-637 0,-637 134.75,-637 134.75,-637 0,-637"/>
<polygon fill="#666666" stroke="#666666" points="0,-621 0,-621 134.75,-621 134.75,-621 0,-621"/>
<polygon fill="none" stroke="#666666" points="0,-411 0,-667 134.75,-667 134.75,-411 0,-411"/>
</a>
</g>
</g>
<!-- Node3&#45;&gt;Node2 -->
<g id="edge2_Node000002_Node000003" class="edge">
<title>Node3&#45;&gt;Node2</title>
<g id="a_edge2_Node000002_Node000003"><a xlink:title=" ">
<path fill="none" stroke="#63b8ff" d="M95.75,-411.36C98.86,-399.04 102.09,-386.75 105.38,-375 105.92,-373.04 106.48,-371.07 107.05,-369.08"/>
<polygon fill="none" stroke="#63b8ff" points="107.04,-369.14 104.89,-362.25 110.43,-357.63 112.57,-364.51 107.04,-369.14"/>
</a>
</g>
<text xml:space="preserve" text-anchor="start" x="108.38" y="-380.5" font-family="Helvetica,sans-Serif" font-size="10.00" fill="grey">#statementEntry</text>
</g>
<!-- Node4 -->
<g id="Node000004" class="node">
<title>Node4</title>
<g id="a_Node000004"><a xlink:href="../../dd/d8c/interfacecom_1_1bank_1_1storage_1_1_storable.html" target="_top" xlink:title="Defines the serialization and deserialization behavior for persistent objects.">
<polygon fill="white" stroke="none" points="204.88,-772 79.88,-772 79.88,-704 204.88,-704 204.88,-772"/>
<text xml:space="preserve" text-anchor="start" x="83.88" y="-758.5" font-family="Helvetica,sans-Serif" font-size="10.00">com.bank.storage.Storable</text>
<text xml:space="preserve" text-anchor="start" x="140.88" y="-742.5" font-family="Helvetica,sans-Serif" font-size="10.00"> </text>
<text xml:space="preserve" text-anchor="start" x="97.88" y="-726.5" font-family="Helvetica,sans-Serif" font-size="10.00">+</text>
<text xml:space="preserve" text-anchor="start" x="121.88" y="-726.5" font-family="Helvetica,sans-Serif" font-size="10.00">marshal()</text>
<text xml:space="preserve" text-anchor="start" x="97.88" y="-710.5" font-family="Helvetica,sans-Serif" font-size="10.00">+</text>
<text xml:space="preserve" text-anchor="start" x="121.88" y="-710.5" font-family="Helvetica,sans-Serif" font-size="10.00">unmarshal()</text>
<polygon fill="#666666" stroke="#666666" points="79.88,-754 79.88,-754 204.88,-754 204.88,-754 79.88,-754"/>
<polygon fill="#666666" stroke="#666666" points="79.88,-738 79.88,-738 204.88,-738 204.88,-738 79.88,-738"/>
<polygon fill="none" stroke="#666666" points="79.88,-704 79.88,-772 204.88,-772 204.88,-704 79.88,-704"/>
</a>
</g>
</g>
<!-- Node4&#45;&gt;Node3 -->
<g id="edge3_Node000003_Node000004" class="edge">
<title>Node4&#45;&gt;Node3</title>
<g id="a_edge3_Node000003_Node000004"><a xlink:title=" ">
<path fill="none" stroke="#63b8ff" d="M125.75,-693.33C122.62,-685.12 119.21,-676.16 115.66,-666.83"/>
<polygon fill="none" stroke="#63b8ff" points="122.45,-694.51 129.28,-702.61 129,-692.02 122.45,-694.51"/>
</a>
</g>
</g>
<!-- Node5 -->
<g id="Node000005" class="node">
<title>Node5</title>
<g id="a_Node000005"><a xlink:href="../../dd/dee/classcom_1_1bank_1_1model_1_1users_1_1_user.html" target="_top" xlink:title="Abstract base class for all user types in the banking system.">
<polygon fill="white" stroke="none" points="283.88,-621 152.88,-621 152.88,-457 283.88,-457 283.88,-621"/>
<text xml:space="preserve" text-anchor="start" x="156.88" y="-607.5" font-family="Helvetica,sans-Serif" font-size="10.00">com.bank.model.users.User</text>
<text xml:space="preserve" text-anchor="start" x="166.56" y="-591.5" font-family="Helvetica,sans-Serif" font-size="10.00">#</text>
<text xml:space="preserve" text-anchor="start" x="185.5" y="-591.5" font-family="Helvetica,sans-Serif" font-size="10.00">username</text>
<text xml:space="preserve" text-anchor="start" x="166.56" y="-575.5" font-family="Helvetica,sans-Serif" font-size="10.00">#</text>
<text xml:space="preserve" text-anchor="start" x="185.5" y="-575.5" font-family="Helvetica,sans-Serif" font-size="10.00">password</text>
<text xml:space="preserve" text-anchor="start" x="166.56" y="-559.5" font-family="Helvetica,sans-Serif" font-size="10.00">#</text>
<text xml:space="preserve" text-anchor="start" x="185.5" y="-559.5" font-family="Helvetica,sans-Serif" font-size="10.00">fullName</text>
<text xml:space="preserve" text-anchor="start" x="166.19" y="-543.5" font-family="Helvetica,sans-Serif" font-size="10.00">+</text>
<text xml:space="preserve" text-anchor="start" x="185.5" y="-543.5" font-family="Helvetica,sans-Serif" font-size="10.00">User()</text>
<text xml:space="preserve" text-anchor="start" x="166.19" y="-527.5" font-family="Helvetica,sans-Serif" font-size="10.00">+</text>
<text xml:space="preserve" text-anchor="start" x="185.5" y="-527.5" font-family="Helvetica,sans-Serif" font-size="10.00">getRole()</text>
<text xml:space="preserve" text-anchor="start" x="166.19" y="-511.5" font-family="Helvetica,sans-Serif" font-size="10.00">+</text>
<text xml:space="preserve" text-anchor="start" x="185.5" y="-511.5" font-family="Helvetica,sans-Serif" font-size="10.00">getUsername()</text>
<text xml:space="preserve" text-anchor="start" x="166.19" y="-495.5" font-family="Helvetica,sans-Serif" font-size="10.00">+</text>
<text xml:space="preserve" text-anchor="start" x="185.5" y="-495.5" font-family="Helvetica,sans-Serif" font-size="10.00">getPassword()</text>
<text xml:space="preserve" text-anchor="start" x="166.19" y="-479.5" font-family="Helvetica,sans-Serif" font-size="10.00">+</text>
<text xml:space="preserve" text-anchor="start" x="185.5" y="-479.5" font-family="Helvetica,sans-Serif" font-size="10.00">getFullName()</text>
<text xml:space="preserve" text-anchor="start" x="166.19" y="-463.5" font-family="Helvetica,sans-Serif" font-size="10.00">+</text>
<text xml:space="preserve" text-anchor="start" x="185.5" y="-463.5" font-family="Helvetica,sans-Serif" font-size="10.00">checkPassword()</text>
<polygon fill="#666666" stroke="#666666" points="152.88,-603 152.88,-603 283.88,-603 283.88,-603 152.88,-603"/>
<polygon fill="#666666" stroke="#666666" points="152.88,-555 152.88,-555 183.5,-555 183.5,-555 152.88,-555"/>
<polygon fill="#666666" stroke="#666666" points="183.5,-555 183.5,-555 283.88,-555 283.88,-555 183.5,-555"/>
<polygon fill="none" stroke="#666666" points="152.88,-457 152.88,-621 283.88,-621 283.88,-457 152.88,-457"/>
</a>
</g>
</g>
<!-- Node4&#45;&gt;Node5 -->
<g id="edge5_Node000005_Node000004" class="edge">
<title>Node4&#45;&gt;Node5</title>
<g id="a_edge5_Node000005_Node000004"><a xlink:title=" ">
<path fill="none" stroke="#63b8ff" d="M159.21,-693.35C167.46,-671.99 177.65,-645.57 187.24,-620.71"/>
<polygon fill="none" stroke="#63b8ff" points="155.97,-692.02 155.64,-702.61 162.51,-694.54 155.97,-692.02"/>
</a>
</g>
</g>
<!-- Node5&#45;&gt;Node2 -->
<g id="edge4_Node000002_Node000005" class="edge">
<title>Node5&#45;&gt;Node2</title>
<g id="a_edge4_Node000002_Node000005"><a xlink:title=" ">
<path fill="none" stroke="#63b8ff" d="M203.27,-457.04C197.75,-430.69 190.97,-401.43 183.38,-375 182.84,-373.15 182.3,-371.29 181.74,-369.42"/>
<polygon fill="none" stroke="#63b8ff" points="181.69,-369.27 176.1,-364.72 178.14,-357.81 183.74,-362.36 181.69,-369.27"/>
</a>
</g>
<text xml:space="preserve" text-anchor="start" x="191.17" y="-380.5" font-family="Helvetica,sans-Serif" font-size="10.00" fill="grey">#transactor</text>
</g>
</g>
</svg>

<g id="navigator" transform="translate(0 0)" fill="#404254">
  <rect fill="#f2f5e9" fill-opacity="0.5" stroke="#606060" stroke-width=".5" x="0" y="0" width="60" height="60"/>
  <use id="zoomplus" xlink:href="#zoomPlus" x="17" y="9" onmousedown="handleZoom(evt,'in')"/>
  <use id="zoomminus" xlink:href="#zoomMin" x="42" y="9" onmousedown="handleZoom(evt,'out')"/>
  <use id="reset" xlink:href="#resetDef" x="30" y="36" onmousedown="handleReset()"/>
   <use id="arrowup" xlink:href="#arrowUp" x="0" y="0" onmousedown="handlePan(0,-1)"/>
  <use id="arrowright" xlink:href="#arrowRight" x="0" y="0" onmousedown="handlePan(1,0)"/>
  <use id="arrowdown" xlink:href="#arrowDown" x="0" y="0" onmousedown="handlePan(0,1)"/>
  <use id="arrowleft" xlink:href="#arrowLeft" x="0" y="0" onmousedown="handlePan(-1,0)"/>
</g>
<svg viewBox="0 0 15 15" width="100%" height="30px" preserveAspectRatio="xMaxYMin meet">
 <g id="arrow_out" transform="scale(0.3 0.3)">
  <a xlink:href="classcom_1_1bank_1_1model_1_1transactions_1_1_transfer__coll__graph_org.svg" target="_base">
   <rect id="button" ry="5" rx="5" y="6" x="6" height="38" width="38"
        fill="#f2f5e9" fill-opacity="0.5" stroke="#606060" stroke-width="1.0"/>
   <path id="arrow"
     d="M 11.500037,31.436501 C 11.940474,20.09759 22.043105,11.32322 32.158766,21.979434 L 37.068811,17.246167 C 37.068811,17.246167 37.088388,32 37.088388,32 L 22.160133,31.978069 C 22.160133,31.978069 26.997745,27.140456 26.997745,27.140456 C 18.528582,18.264221 13.291696,25.230495 11.500037,31.436501 z"
     style="fill:#404040;"/>
  </a>
 </g>
</svg>

<style type='text/css'>
<![CDATA[
[data-mouse-over-selected='false'] { opacity: 0.7; }
[data-mouse-over-selected='true']  { opacity: 1.0; }
]]>
</style>
<script type="application/ecmascript"><![CDATA[
document.addEventListener('DOMContentLoaded', (event) => {
  highlightEdges();
  highlightAdjacentNodes();
});
]]></script>
</svg>
