<?xml version="1.0" encoding="UTF-8" standalone="no"?>
<!DOCTYPE svg PUBLIC "-//W3C//DTD SVG 1.1//EN"
 "http://www.w3.org/Graphics/SVG/1.1/DTD/svg11.dtd">
<!-- Generated by graphviz version 14.0.1 (20251006.0113)
 -->
<!-- Title: com.bank.model.users.Customer Pages: 1 -->
<svg width="330pt" height="532pt"
 viewBox="0.00 0.00 330.00 532.00" xmlns="http://www.w3.org/2000/svg" xmlns:xlink="http://www.w3.org/1999/xlink">
<g id="graph0" class="graph" transform="scale(1 1) rotate(0) translate(4 528)">
<title>com.bank.model.users.Customer</title>
<!-- Node1 -->
<g id="Node000001" class="node">
<title>Node1</title>
<g id="a_Node000001"><a xlink:title="Abstract base class representing a general bank customer.">
<polygon fill="#999999" stroke="none" points="237.38,-220 84.62,-220 84.62,-152 237.38,-152 237.38,-220"/>
<text xml:space="preserve" text-anchor="start" x="88.62" y="-206.5" font-family="Helvetica,sans-Serif" font-size="10.00">com.bank.model.users.Customer</text>
<text xml:space="preserve" text-anchor="start" x="110.5" y="-190.5" font-family="Helvetica,sans-Serif" font-size="10.00">#</text>
<text xml:space="preserve" text-anchor="start" x="141.62" y="-190.5" font-family="Helvetica,sans-Serif" font-size="10.00">vat</text>
<text xml:space="preserve" text-anchor="start" x="110.12" y="-174.5" font-family="Helvetica,sans-Serif" font-size="10.00">+</text>
<text xml:space="preserve" text-anchor="start" x="141.62" y="-174.5" font-family="Helvetica,sans-Serif" font-size="10.00">Customer()</text>
<text xml:space="preserve" text-anchor="start" x="110.12" y="-158.5" font-family="Helvetica,sans-Serif" font-size="10.00">+</text>
<text xml:space="preserve" text-anchor="start" x="141.62" y="-158.5" font-family="Helvetica,sans-Serif" font-size="10.00">getVat()</text>
<polygon fill="#666666" stroke="#666666" points="84.62,-202 84.62,-202 237.38,-202 237.38,-202 84.62,-202"/>
<polygon fill="#666666" stroke="#666666" points="84.62,-186 84.62,-186 139.62,-186 139.62,-186 84.62,-186"/>
<polygon fill="#666666" stroke="#666666" points="139.62,-186 139.62,-186 237.38,-186 237.38,-186 139.62,-186"/>
<polygon fill="none" stroke="#666666" points="84.62,-152 84.62,-220 237.38,-220 237.38,-152 84.62,-152"/>
</a>
</g>
</g>
<!-- Node4 -->
<g id="Node000004" class="node">
<title>Node4</title>
<g id="a_Node000004"><a xlink:href="../../de/db1/classcom_1_1bank_1_1model_1_1users_1_1_company.html" target="_top" xlink:title="Represents a business customer of the banking system.">
<polygon fill="white" stroke="none" points="152,-116 0,-116 0,0 152,0 152,-116"/>
<text xml:space="preserve" text-anchor="start" x="4" y="-102.5" font-family="Helvetica,sans-Serif" font-size="10.00">com.bank.model.users.Company</text>
<text xml:space="preserve" text-anchor="start" x="74.5" y="-86.5" font-family="Helvetica,sans-Serif" font-size="10.00"> </text>
<text xml:space="preserve" text-anchor="start" x="24.75" y="-70.5" font-family="Helvetica,sans-Serif" font-size="10.00">+</text>
<text xml:space="preserve" text-anchor="start" x="55.5" y="-70.5" font-family="Helvetica,sans-Serif" font-size="10.00">Company()</text>
<text xml:space="preserve" text-anchor="start" x="24.75" y="-54.5" font-family="Helvetica,sans-Serif" font-size="10.00">+</text>
<text xml:space="preserve" text-anchor="start" x="55.5" y="-54.5" font-family="Helvetica,sans-Serif" font-size="10.00">Company()</text>
<text xml:space="preserve" text-anchor="start" x="24.75" y="-38.5" font-family="Helvetica,sans-Serif" font-size="10.00">+</text>
<text xml:space="preserve" text-anchor="start" x="55.5" y="-38.5" font-family="Helvetica,sans-Serif" font-size="10.00">getRole()</text>
<text xml:space="preserve" text-anchor="start" x="24.75" y="-22.5" font-family="Helvetica,sans-Serif" font-size="10.00">+</text>
<text xml:space="preserve" text-anchor="start" x="55.5" y="-22.5" font-family="Helvetica,sans-Serif" font-size="10.00">marshal()</text>
<text xml:space="preserve" text-anchor="start" x="24.75" y="-6.5" font-family="Helvetica,sans-Serif" font-size="10.00">+</text>
<text xml:space="preserve" text-anchor="start" x="55.5" y="-6.5" font-family="Helvetica,sans-Serif" font-size="10.00">unmarshal()</text>
<polygon fill="#666666" stroke="#666666" points="0,-98 0,-98 152,-98 152,-98 0,-98"/>
<polygon fill="#666666" stroke="#666666" points="0,-82 0,-82 152,-82 152,-82 0,-82"/>
<polygon fill="none" stroke="#666666" points="0,0 0,-116 152,-116 152,0 0,0"/>
</a>
</g>
</g>
<!-- Node1&#45;&gt;Node4 -->
<g id="edge3_Node000001_Node000004" class="edge">
<title>Node1&#45;&gt;Node4</title>
<g id="a_edge3_Node000001_Node000004"><a xlink:title=" ">
<path fill="none" stroke="#63b8ff" d="M132.64,-142.96C126.7,-134.16 120.36,-124.75 114.13,-115.53"/>
<polygon fill="none" stroke="#63b8ff" points="129.55,-144.64 138.04,-150.97 135.35,-140.72 129.55,-144.64"/>
</a>
</g>
</g>
<!-- Node5 -->
<g id="Node000005" class="node">
<title>Node5</title>
<g id="a_Node000005"><a xlink:href="../../dd/d7b/classcom_1_1bank_1_1model_1_1users_1_1_individual.html" target="_top" xlink:title="Represents an individual (personal) customer in the banking system.">
<polygon fill="white" stroke="none" points="321.62,-116 170.38,-116 170.38,0 321.62,0 321.62,-116"/>
<text xml:space="preserve" text-anchor="start" x="174.38" y="-102.5" font-family="Helvetica,sans-Serif" font-size="10.00">com.bank.model.users.Individual</text>
<text xml:space="preserve" text-anchor="start" x="244.5" y="-86.5" font-family="Helvetica,sans-Serif" font-size="10.00"> </text>
<text xml:space="preserve" text-anchor="start" x="194.94" y="-70.5" font-family="Helvetica,sans-Serif" font-size="10.00">+</text>
<text xml:space="preserve" text-anchor="start" x="225.5" y="-70.5" font-family="Helvetica,sans-Serif" font-size="10.00">Individual()</text>
<text xml:space="preserve" text-anchor="start" x="194.94" y="-54.5" font-family="Helvetica,sans-Serif" font-size="10.00">+</text>
<text xml:space="preserve" text-anchor="start" x="225.5" y="-54.5" font-family="Helvetica,sans-Serif" font-size="10.00">Individual()</text>
<text xml:space="preserve" text-anchor="start" x="194.94" y="-38.5" font-family="Helvetica,sans-Serif" font-size="10.00">+</text>
<text xml:space="preserve" text-anchor="start" x="225.5" y="-38.5" font-family="Helvetica,sans-Serif" font-size="10.00">getRole()</text>
<text xml:space="preserve" text-anchor="start" x="194.94" y="-22.5" font-family="Helvetica,sans-Serif" font-size="10.00">+</text>
<text xml:space="preserve" text-anchor="start" x="225.5" y="-22.5" font-family="Helvetica,sans-Serif" font-size="10.00">marshal()</text>
<text xml:space="preserve" text-anchor="start" x="194.94" y="-6.5" font-family="Helvetica,sans-Serif" font-size="10.00">+</text>
<text xml:space="preserve" text-anchor="start" x="225.5" y="-6.5" font-family="Helvetica,sans-Serif" font-size="10.00">unmarshal()</text>
<polygon fill="#666666" stroke="#666666" points="170.38,-98 170.38,-98 321.62,-98 321.62,-98 170.38,-98"/>
<polygon fill="#666666" stroke="#666666" points="170.38,-82 170.38,-82 321.62,-82 321.62,-82 170.38,-82"/>
<polygon fill="none" stroke="#666666" points="170.38,0 170.38,-116 321.62,-116 321.62,0 170.38,0"/>
</a>
</g>
</g>
<!-- Node1&#45;&gt;Node5 -->
<g id="edge4_Node000001_Node000005" class="edge">
<title>Node1&#45;&gt;Node5</title>
<g id="a_edge4_Node000001_Node000005"><a xlink:title=" ">
<path fill="none" stroke="#63b8ff" d="M189.36,-142.96C195.3,-134.16 201.64,-124.75 207.87,-115.53"/>
<polygon fill="none" stroke="#63b8ff" points="186.65,-140.72 183.96,-150.97 192.45,-144.64 186.65,-140.72"/>
</a>
</g>
</g>
<!-- Node2 -->
<g id="Node000002" class="node">
<title>Node2</title>
<g id="a_Node000002"><a xlink:href="../../dd/dee/classcom_1_1bank_1_1model_1_1users_1_1_user.html" target="_top" xlink:title="Abstract base class for all user types in the banking system.">
<polygon fill="white" stroke="none" points="226.5,-420 95.5,-420 95.5,-256 226.5,-256 226.5,-420"/>
<text xml:space="preserve" text-anchor="start" x="99.5" y="-406.5" font-family="Helvetica,sans-Serif" font-size="10.00">com.bank.model.users.User</text>
<text xml:space="preserve" text-anchor="start" x="109.19" y="-390.5" font-family="Helvetica,sans-Serif" font-size="10.00">#</text>
<text xml:space="preserve" text-anchor="start" x="128.12" y="-390.5" font-family="Helvetica,sans-Serif" font-size="10.00">username</text>
<text xml:space="preserve" text-anchor="start" x="109.19" y="-374.5" font-family="Helvetica,sans-Serif" font-size="10.00">#</text>
<text xml:space="preserve" text-anchor="start" x="128.12" y="-374.5" font-family="Helvetica,sans-Serif" font-size="10.00">password</text>
<text xml:space="preserve" text-anchor="start" x="109.19" y="-358.5" font-family="Helvetica,sans-Serif" font-size="10.00">#</text>
<text xml:space="preserve" text-anchor="start" x="128.12" y="-358.5" font-family="Helvetica,sans-Serif" font-size="10.00">fullName</text>
<text xml:space="preserve" text-anchor="start" x="108.81" y="-342.5" font-family="Helvetica,sans-Serif" font-size="10.00">+</text>
<text xml:space="preserve" text-anchor="start" x="128.12" y="-342.5" font-family="Helvetica,sans-Serif" font-size="10.00">User()</text>
<text xml:space="preserve" text-anchor="start" x="108.81" y="-326.5" font-family="Helvetica,sans-Serif" font-size="10.00">+</text>
<text xml:space="preserve" text-anchor="start" x="128.12" y="-326.5" font-family="Helvetica,sans-Serif" font-size="10.00">getRole()</text>
<text xml:space="preserve" text-anchor="start" x="108.81" y="-310.5" font-family="Helvetica,sans-Serif" font-size="10.00">+</text>
<text xml:space="preserve" text-anchor="start" x="128.12" y="-310.5" font-family="Helvetica,sans-Serif" font-size="10.00">getUsername()</text>
<text xml:space="preserve" text-anchor="start" x="108.81" y="-294.5" font-family="Helvetica,sans-Serif" font-size="10.00">+</text>
<text xml:space="preserve" text-anchor="start" x="128.12" y="-294.5" font-family="Helvetica,sans-Serif" font-size="10.00">getPassword()</text>
<text xml:space="preserve" text-anchor="start" x="108.81" y="-278.5" font-family="Helvetica,sans-Serif" font-size="10.00">+</text>
<text xml:space="preserve" text-anchor="start" x="128.12" y="-278.5" font-family="Helvetica,sans-Serif" font-size="10.00">getFullName()</text>
<text xml:space="preserve" text-anchor="start" x="108.81" y="-262.5" font-family="Helvetica,sans-Serif" font-size="10.00">+</text>
<text xml:space="preserve" text-anchor="start" x="128.12" y="-262.5" font-family="Helvetica,sans-Serif" font-size="10.00">checkPassword()</text>
<polygon fill="#666666" stroke="#666666" points="95.5,-402 95.5,-402 226.5,-402 226.5,-402 95.5,-402"/>
<polygon fill="#666666" stroke="#666666" points="95.5,-354 95.5,-354 126.12,-354 126.12,-354 95.5,-354"/>
<polygon fill="#666666" stroke="#666666" points="126.12,-354 126.12,-354 226.5,-354 226.5,-354 126.12,-354"/>
<polygon fill="none" stroke="#666666" points="95.5,-256 95.5,-420 226.5,-420 226.5,-256 95.5,-256"/>
</a>
</g>
</g>
<!-- Node2&#45;&gt;Node1 -->
<g id="edge1_Node000001_Node000002" class="edge">
<title>Node2&#45;&gt;Node1</title>
<g id="a_edge1_Node000001_Node000002"><a xlink:title=" ">
<path fill="none" stroke="#63b8ff" d="M161,-244.9C161,-236.03 161,-227.48 161,-219.82"/>
<polygon fill="none" stroke="#63b8ff" points="157.5,-244.78 161,-254.78 164.5,-244.78 157.5,-244.78"/>
</a>
</g>
</g>
<!-- Node3 -->
<g id="Node000003" class="node">
<title>Node3</title>
<g id="a_Node000003"><a xlink:href="../../dd/d8c/interfacecom_1_1bank_1_1storage_1_1_storable.html" target="_top" xlink:title="Defines the serialization and deserialization behavior for persistent objects.">
<polygon fill="white" stroke="none" points="223.5,-524 98.5,-524 98.5,-456 223.5,-456 223.5,-524"/>
<text xml:space="preserve" text-anchor="start" x="102.5" y="-510.5" font-family="Helvetica,sans-Serif" font-size="10.00">com.bank.storage.Storable</text>
<text xml:space="preserve" text-anchor="start" x="159.5" y="-494.5" font-family="Helvetica,sans-Serif" font-size="10.00"> </text>
<text xml:space="preserve" text-anchor="start" x="116.5" y="-478.5" font-family="Helvetica,sans-Serif" font-size="10.00">+</text>
<text xml:space="preserve" text-anchor="start" x="140.5" y="-478.5" font-family="Helvetica,sans-Serif" font-size="10.00">marshal()</text>
<text xml:space="preserve" text-anchor="start" x="116.5" y="-462.5" font-family="Helvetica,sans-Serif" font-size="10.00">+</text>
<text xml:space="preserve" text-anchor="start" x="140.5" y="-462.5" font-family="Helvetica,sans-Serif" font-size="10.00">unmarshal()</text>
<polygon fill="#666666" stroke="#666666" points="98.5,-506 98.5,-506 223.5,-506 223.5,-506 98.5,-506"/>
<polygon fill="#666666" stroke="#666666" points="98.5,-490 98.5,-490 223.5,-490 223.5,-490 98.5,-490"/>
<polygon fill="none" stroke="#666666" points="98.5,-456 98.5,-524 223.5,-524 223.5,-456 98.5,-456"/>
</a>
</g>
</g>
<!-- Node3&#45;&gt;Node2 -->
<g id="edge2_Node000002_Node000003" class="edge">
<title>Node3&#45;&gt;Node2</title>
<g id="a_edge2_Node000002_Node000003"><a xlink:title=" ">
<path fill="none" stroke="#63b8ff" d="M161,-444.6C161,-436.72 161,-428.29 161,-419.77"/>
<polygon fill="none" stroke="#63b8ff" points="157.5,-444.57 161,-454.57 164.5,-444.57 157.5,-444.57"/>
</a>
</g>
</g>
</g>
</svg>
