<?xml version="1.0" encoding="UTF-8" standalone="no"?>
<!DOCTYPE svg PUBLIC "-//W3C//DTD SVG 1.1//EN"
 "http://www.w3.org/Graphics/SVG/1.1/DTD/svg11.dtd">
<!-- Generated by graphviz version 14.0.1 (20251006.0113)
 -->
<!-- Title: gui/view/panel/AdminAccountDetailsPanel.java Pages: 1 -->
<svg width="735pt" height="108pt"
 viewBox="0.00 0.00 735.00 108.00" xmlns="http://www.w3.org/2000/svg" xmlns:xlink="http://www.w3.org/1999/xlink">
<g id="graph0" class="graph" transform="scale(1 1) rotate(0) translate(4 104)">
<title>gui/view/panel/AdminAccountDetailsPanel.java</title>
<!-- Node1 -->
<g id="Node000001" class="node">
<title>Node1</title>
<g id="a_Node000001"><a xlink:title=" ">
<polygon fill="#999999" stroke="#666666" points="530.62,-100 385.62,-100 385.62,-68 530.62,-68 530.62,-100"/>
<text xml:space="preserve" text-anchor="start" x="393.62" y="-86.5" font-family="Helvetica,sans-Serif" font-size="10.00">gui/view/panel/AdminAccount</text>
<text xml:space="preserve" text-anchor="middle" x="458.12" y="-74.5" font-family="Helvetica,sans-Serif" font-size="10.00">DetailsPanel.java</text>
</a>
</g>
</g>
<!-- Node2 -->
<g id="Node000002" class="node">
<title>Node2</title>
<g id="a_Node000002"><a xlink:title=" ">
<polygon fill="#e0e0e0" stroke="#999999" points="138.25,-32 0,-32 0,0 138.25,0 138.25,-32"/>
<text xml:space="preserve" text-anchor="start" x="8" y="-18.5" font-family="Helvetica,sans-Serif" font-size="10.00">com.bank.manager.Account</text>
<text xml:space="preserve" text-anchor="middle" x="69.12" y="-6.5" font-family="Helvetica,sans-Serif" font-size="10.00">Manager</text>
</a>
</g>
</g>
<!-- Node1&#45;&gt;Node2 -->
<g id="edge1_Node000001_Node000002" class="edge">
<title>Node1&#45;&gt;Node2</title>
<g id="a_edge1_Node000001_Node000002"><a xlink:title=" ">
<path fill="none" stroke="#63b8ff" d="M385.14,-71.61C324.64,-62.04 236.09,-47.72 149.52,-32.4"/>
<polygon fill="#63b8ff" stroke="#63b8ff" points="150.38,-29 139.92,-30.69 149.15,-35.89 150.38,-29"/>
</a>
</g>
</g>
<!-- Node3 -->
<g id="Node000003" class="node">
<title>Node3</title>
<g id="a_Node000003"><a xlink:title=" ">
<polygon fill="#e0e0e0" stroke="#999999" points="293.88,-26 156.38,-26 156.38,-6 293.88,-6 293.88,-26"/>
<text xml:space="preserve" text-anchor="middle" x="225.12" y="-12.5" font-family="Helvetica,sans-Serif" font-size="10.00">com.bank.model.accounts.*</text>
</a>
</g>
</g>
<!-- Node1&#45;&gt;Node3 -->
<g id="edge2_Node000001_Node000003" class="edge">
<title>Node1&#45;&gt;Node3</title>
<g id="a_edge2_Node000001_Node000003"><a xlink:title=" ">
<path fill="none" stroke="#63b8ff" d="M403.5,-67.53C362.61,-55.94 307.39,-40.3 269.28,-29.51"/>
<polygon fill="#63b8ff" stroke="#63b8ff" points="270.55,-26.23 259.98,-26.87 268.65,-32.97 270.55,-26.23"/>
</a>
</g>
</g>
<!-- Node4 -->
<g id="Node000004" class="node">
<title>Node4</title>
<g id="a_Node000004"><a xlink:title=" ">
<polygon fill="#e0e0e0" stroke="#999999" points="470.75,-26 311.5,-26 311.5,-6 470.75,-6 470.75,-26"/>
<text xml:space="preserve" text-anchor="middle" x="391.12" y="-12.5" font-family="Helvetica,sans-Serif" font-size="10.00">com.bank.model.users.Individual</text>
</a>
</g>
</g>
<!-- Node1&#45;&gt;Node4 -->
<g id="edge3_Node000001_Node000004" class="edge">
<title>Node1&#45;&gt;Node4</title>
<g id="a_edge3_Node000001_Node000004"><a xlink:title=" ">
<path fill="none" stroke="#63b8ff" d="M442.59,-67.69C432.44,-57.7 419.17,-44.63 408.65,-34.26"/>
<polygon fill="#63b8ff" stroke="#63b8ff" points="411.24,-31.9 401.66,-27.38 406.33,-36.89 411.24,-31.9"/>
</a>
</g>
</g>
<!-- Node5 -->
<g id="Node000005" class="node">
<title>Node5</title>
<g id="a_Node000005"><a xlink:title=" ">
<polygon fill="#e0e0e0" stroke="#999999" points="563.38,-26 488.88,-26 488.88,-6 563.38,-6 563.38,-26"/>
<text xml:space="preserve" text-anchor="middle" x="526.12" y="-12.5" font-family="Helvetica,sans-Serif" font-size="10.00">javax.swing.*</text>
</a>
</g>
</g>
<!-- Node1&#45;&gt;Node5 -->
<g id="edge4_Node000001_Node000005" class="edge">
<title>Node1&#45;&gt;Node5</title>
<g id="a_edge4_Node000001_Node000005"><a xlink:title=" ">
<path fill="none" stroke="#63b8ff" d="M473.9,-67.69C484.2,-57.7 497.66,-44.63 508.34,-34.26"/>
<polygon fill="#63b8ff" stroke="#63b8ff" points="510.7,-36.85 515.44,-27.37 505.83,-31.82 510.7,-36.85"/>
</a>
</g>
</g>
<!-- Node6 -->
<g id="Node000006" class="node">
<title>Node6</title>
<g id="a_Node000006"><a xlink:title=" ">
<polygon fill="#e0e0e0" stroke="#999999" points="640.88,-26 581.38,-26 581.38,-6 640.88,-6 640.88,-26"/>
<text xml:space="preserve" text-anchor="middle" x="611.12" y="-12.5" font-family="Helvetica,sans-Serif" font-size="10.00">java.awt.*</text>
</a>
</g>
</g>
<!-- Node1&#45;&gt;Node6 -->
<g id="edge5_Node000001_Node000006" class="edge">
<title>Node1&#45;&gt;Node6</title>
<g id="a_edge5_Node000001_Node000006"><a xlink:title=" ">
<path fill="none" stroke="#63b8ff" d="M494,-67.53C519.69,-56.44 554.01,-41.64 578.85,-30.92"/>
<polygon fill="#63b8ff" stroke="#63b8ff" points="580.01,-34.23 587.81,-27.06 577.24,-27.81 580.01,-34.23"/>
</a>
</g>
</g>
<!-- Node7 -->
<g id="Node000007" class="node">
<title>Node7</title>
<g id="a_Node000007"><a xlink:title=" ">
<polygon fill="#e0e0e0" stroke="#999999" points="727.38,-26 658.88,-26 658.88,-6 727.38,-6 727.38,-26"/>
<text xml:space="preserve" text-anchor="middle" x="693.12" y="-12.5" font-family="Helvetica,sans-Serif" font-size="10.00">java.util.List</text>
</a>
</g>
</g>
<!-- Node1&#45;&gt;Node7 -->
<g id="edge6_Node000001_Node000007" class="edge">
<title>Node1&#45;&gt;Node7</title>
<g id="a_edge6_Node000001_Node000007"><a xlink:title=" ">
<path fill="none" stroke="#63b8ff" d="M521.16,-67.54C558.79,-58 607.43,-45.1 650.12,-32 652.22,-31.36 654.37,-30.68 656.53,-29.97"/>
<polygon fill="#63b8ff" stroke="#63b8ff" points="657.5,-33.34 665.87,-26.84 655.28,-26.7 657.5,-33.34"/>
</a>
</g>
</g>
</g>
</svg>
