<?xml version="1.0" encoding="UTF-8" standalone="no"?>
<!DOCTYPE svg PUBLIC "-//W3C//DTD SVG 1.1//EN"
 "http://www.w3.org/Graphics/SVG/1.1/DTD/svg11.dtd">
<!-- Generated by graphviz version 14.0.1 (20251006.0113)
 -->
<!-- Title: gui/view/panel/AdminPayBillPanel.java Pages: 1 -->
<svg width="1157pt" height="108pt"
 viewBox="0.00 0.00 1157.00 108.00" xmlns="http://www.w3.org/2000/svg" xmlns:xlink="http://www.w3.org/1999/xlink">
<g id="graph0" class="graph" transform="scale(1 1) rotate(0) translate(4 104)">
<title>gui/view/panel/AdminPayBillPanel.java</title>
<!-- Node1 -->
<g id="Node000001" class="node">
<title>Node1</title>
<g id="a_Node000001"><a xlink:title=" ">
<polygon fill="#999999" stroke="#666666" points="733.88,-100 594.12,-100 594.12,-68 733.88,-68 733.88,-100"/>
<text xml:space="preserve" text-anchor="start" x="602.12" y="-86.5" font-family="Helvetica,sans-Serif" font-size="10.00">gui/view/panel/AdminPayBill</text>
<text xml:space="preserve" text-anchor="middle" x="664" y="-74.5" font-family="Helvetica,sans-Serif" font-size="10.00">Panel.java</text>
</a>
</g>
</g>
<!-- Node2 -->
<g id="Node000002" class="node">
<title>Node2</title>
<g id="a_Node000002"><a xlink:title=" ">
<polygon fill="#e0e0e0" stroke="#999999" points="106,-26 0,-26 0,-6 106,-6 106,-26"/>
<text xml:space="preserve" text-anchor="middle" x="53" y="-12.5" font-family="Helvetica,sans-Serif" font-size="10.00">com.bank.manager.*</text>
</a>
</g>
</g>
<!-- Node1&#45;&gt;Node2 -->
<g id="edge1_Node000001_Node000002" class="edge">
<title>Node1&#45;&gt;Node2</title>
<g id="a_edge1_Node000001_Node000002"><a xlink:title=" ">
<path fill="none" stroke="#63b8ff" d="M593.82,-79.74C489.02,-74.13 285.67,-60.42 115,-32 109.81,-31.14 104.41,-30.08 99.06,-28.92"/>
<polygon fill="#63b8ff" stroke="#63b8ff" points="100.23,-25.6 89.7,-26.79 98.68,-32.43 100.23,-25.6"/>
</a>
</g>
</g>
<!-- Node3 -->
<g id="Node000003" class="node">
<title>Node3</title>
<g id="a_Node000003"><a xlink:title=" ">
<polygon fill="#e0e0e0" stroke="#999999" points="257.88,-32 124.12,-32 124.12,0 257.88,0 257.88,-32"/>
<text xml:space="preserve" text-anchor="start" x="132.12" y="-18.5" font-family="Helvetica,sans-Serif" font-size="10.00">com.bank.model.accounts.</text>
<text xml:space="preserve" text-anchor="middle" x="191" y="-6.5" font-family="Helvetica,sans-Serif" font-size="10.00">Account</text>
</a>
</g>
</g>
<!-- Node1&#45;&gt;Node3 -->
<g id="edge2_Node000001_Node000003" class="edge">
<title>Node1&#45;&gt;Node3</title>
<g id="a_edge2_Node000001_Node000003"><a xlink:title=" ">
<path fill="none" stroke="#63b8ff" d="M593.87,-75.43C516.79,-66.79 389.05,-51.52 269.28,-32.31"/>
<polygon fill="#63b8ff" stroke="#63b8ff" points="270.02,-28.88 259.59,-30.74 268.9,-35.79 270.02,-28.88"/>
</a>
</g>
</g>
<!-- Node4 -->
<g id="Node000004" class="node">
<title>Node4</title>
<g id="a_Node000004"><a xlink:title=" ">
<polygon fill="#e0e0e0" stroke="#999999" points="400.38,-26 275.62,-26 275.62,-6 400.38,-6 400.38,-26"/>
<text xml:space="preserve" text-anchor="middle" x="338" y="-12.5" font-family="Helvetica,sans-Serif" font-size="10.00">com.bank.model.bills.Bill</text>
</a>
</g>
</g>
<!-- Node1&#45;&gt;Node4 -->
<g id="edge3_Node000001_Node000004" class="edge">
<title>Node1&#45;&gt;Node4</title>
<g id="a_edge3_Node000001_Node000004"><a xlink:title=" ">
<path fill="none" stroke="#63b8ff" d="M593.88,-69.19C542.63,-59.04 471.46,-44.84 409,-32 403.87,-30.95 398.54,-29.84 393.2,-28.72"/>
<polygon fill="#63b8ff" stroke="#63b8ff" points="394.28,-25.37 383.78,-26.75 392.85,-32.23 394.28,-25.37"/>
</a>
</g>
</g>
<!-- Node5 -->
<g id="Node000005" class="node">
<title>Node5</title>
<g id="a_Node000005"><a xlink:title=" ">
<polygon fill="#e0e0e0" stroke="#999999" points="565.62,-32 418.38,-32 418.38,0 565.62,0 565.62,-32"/>
<text xml:space="preserve" text-anchor="start" x="426.38" y="-18.5" font-family="Helvetica,sans-Serif" font-size="10.00">com.bank.model.transactions.</text>
<text xml:space="preserve" text-anchor="middle" x="492" y="-6.5" font-family="Helvetica,sans-Serif" font-size="10.00">Payment</text>
</a>
</g>
</g>
<!-- Node1&#45;&gt;Node5 -->
<g id="edge4_Node000001_Node000005" class="edge">
<title>Node1&#45;&gt;Node5</title>
<g id="a_edge4_Node000001_Node000005"><a xlink:title=" ">
<path fill="none" stroke="#63b8ff" d="M623.67,-67.53C599.61,-58.29 568.82,-46.48 543.07,-36.6"/>
<polygon fill="#63b8ff" stroke="#63b8ff" points="544.37,-33.35 533.78,-33.03 541.87,-39.88 544.37,-33.35"/>
</a>
</g>
</g>
<!-- Node6 -->
<g id="Node000006" class="node">
<title>Node6</title>
<g id="a_Node000006"><a xlink:title=" ">
<polygon fill="#e0e0e0" stroke="#999999" points="744.38,-26 583.62,-26 583.62,-6 744.38,-6 744.38,-26"/>
<text xml:space="preserve" text-anchor="middle" x="664" y="-12.5" font-family="Helvetica,sans-Serif" font-size="10.00">com.bank.model.users.Customer</text>
</a>
</g>
</g>
<!-- Node1&#45;&gt;Node6 -->
<g id="edge5_Node000001_Node000006" class="edge">
<title>Node1&#45;&gt;Node6</title>
<g id="a_edge5_Node000001_Node000006"><a xlink:title=" ">
<path fill="none" stroke="#63b8ff" d="M664,-67.69C664,-58.8 664,-47.46 664,-37.77"/>
<polygon fill="#63b8ff" stroke="#63b8ff" points="667.5,-37.83 664,-27.83 660.5,-37.83 667.5,-37.83"/>
</a>
</g>
</g>
<!-- Node7 -->
<g id="Node000007" class="node">
<title>Node7</title>
<g id="a_Node000007"><a xlink:title=" ">
<polygon fill="#e0e0e0" stroke="#999999" points="837.25,-26 762.75,-26 762.75,-6 837.25,-6 837.25,-26"/>
<text xml:space="preserve" text-anchor="middle" x="800" y="-12.5" font-family="Helvetica,sans-Serif" font-size="10.00">javax.swing.*</text>
</a>
</g>
</g>
<!-- Node1&#45;&gt;Node7 -->
<g id="edge6_Node000001_Node000007" class="edge">
<title>Node1&#45;&gt;Node7</title>
<g id="a_edge6_Node000001_Node000007"><a xlink:title=" ">
<path fill="none" stroke="#63b8ff" d="M695.89,-67.53C718.42,-56.59 748.41,-42.04 770.41,-31.36"/>
<polygon fill="#63b8ff" stroke="#63b8ff" points="771.68,-34.64 779.14,-27.12 768.62,-28.34 771.68,-34.64"/>
</a>
</g>
</g>
<!-- Node8 -->
<g id="Node000008" class="node">
<title>Node8</title>
<g id="a_Node000008"><a xlink:title=" ">
<polygon fill="#e0e0e0" stroke="#999999" points="914.75,-26 855.25,-26 855.25,-6 914.75,-6 914.75,-26"/>
<text xml:space="preserve" text-anchor="middle" x="885" y="-12.5" font-family="Helvetica,sans-Serif" font-size="10.00">java.awt.*</text>
</a>
</g>
</g>
<!-- Node1&#45;&gt;Node8 -->
<g id="edge7_Node000001_Node000008" class="edge">
<title>Node1&#45;&gt;Node8</title>
<g id="a_edge7_Node000001_Node000008"><a xlink:title=" ">
<path fill="none" stroke="#63b8ff" d="M724.68,-67.53C760.28,-58.07 805.98,-45.27 846,-32 847.59,-31.47 849.22,-30.92 850.85,-30.34"/>
<polygon fill="#63b8ff" stroke="#63b8ff" points="852.01,-33.65 860.2,-26.92 849.6,-27.07 852.01,-33.65"/>
</a>
</g>
</g>
<!-- Node9 -->
<g id="Node000009" class="node">
<title>Node9</title>
<g id="a_Node000009"><a xlink:title=" ">
<polygon fill="#e0e0e0" stroke="#999999" points="1001.25,-26 932.75,-26 932.75,-6 1001.25,-6 1001.25,-26"/>
<text xml:space="preserve" text-anchor="middle" x="967" y="-12.5" font-family="Helvetica,sans-Serif" font-size="10.00">java.util.List</text>
</a>
</g>
</g>
<!-- Node1&#45;&gt;Node9 -->
<g id="edge8_Node000001_Node000009" class="edge">
<title>Node1&#45;&gt;Node9</title>
<g id="a_edge8_Node000001_Node000009"><a xlink:title=" ">
<path fill="none" stroke="#63b8ff" d="M734.14,-72.02C786.82,-63.1 860.51,-49.21 924,-32 926.27,-31.39 928.58,-30.71 930.91,-30"/>
<polygon fill="#63b8ff" stroke="#63b8ff" points="931.85,-33.38 940.28,-26.96 929.69,-26.72 931.85,-33.38"/>
</a>
</g>
</g>
<!-- Node10 -->
<g id="Node000010" class="node">
<title>Node10</title>
<g id="a_Node000010"><a xlink:title=" ">
<polygon fill="#e0e0e0" stroke="#999999" points="1149,-26 1019,-26 1019,-6 1149,-6 1149,-26"/>
<text xml:space="preserve" text-anchor="middle" x="1084" y="-12.5" font-family="Helvetica,sans-Serif" font-size="10.00">java.util.stream.Collectors</text>
</a>
</g>
</g>
<!-- Node1&#45;&gt;Node10 -->
<g id="edge9_Node000001_Node000010" class="edge">
<title>Node1&#45;&gt;Node10</title>
<g id="a_edge9_Node000001_Node000010"><a xlink:title=" ">
<path fill="none" stroke="#63b8ff" d="M734.09,-73.79C804.11,-64.33 914.75,-48.66 1010,-32 1015.97,-30.96 1022.2,-29.8 1028.4,-28.6"/>
<polygon fill="#63b8ff" stroke="#63b8ff" points="1028.84,-32.08 1037.98,-26.72 1027.49,-25.22 1028.84,-32.08"/>
</a>
</g>
</g>
</g>
</svg>
