<?xml version="1.0" encoding="UTF-8" standalone="no"?>
<!DOCTYPE svg PUBLIC "-//W3C//DTD SVG 1.1//EN"
 "http://www.w3.org/Graphics/SVG/1.1/DTD/svg11.dtd">
<!-- Generated by graphviz version 14.0.1 (20251006.0113)
 -->
<!-- Title: com.bank.gui.view.panel.PayBillPanel.PayBillPanel Pages: 1 -->
<svg width="550pt" height="340pt"
 viewBox="0.00 0.00 550.00 340.00" xmlns="http://www.w3.org/2000/svg" xmlns:xlink="http://www.w3.org/1999/xlink">
<g id="graph0" class="graph" transform="scale(1 1) rotate(0) translate(4 336)">
<title>com.bank.gui.view.panel.PayBillPanel.PayBillPanel</title>
<!-- Node1 -->
<g id="Node000001" class="node">
<title>Node1</title>
<g id="a_Node000001"><a xlink:title="Δημιουργεί panel για πληρωμή λογαριασμού με RF code.">
<polygon fill="#999999" stroke="#666666" points="130,-182 0,-182 0,-150 130,-150 130,-182"/>
<text xml:space="preserve" text-anchor="start" x="8" y="-168.5" font-family="Helvetica,sans-Serif" font-size="10.00">com.bank.gui.view.panel.</text>
<text xml:space="preserve" text-anchor="middle" x="65" y="-156.5" font-family="Helvetica,sans-Serif" font-size="10.00">PayBillPanel.PayBillPanel</text>
</a>
</g>
</g>
<!-- Node2 -->
<g id="Node000002" class="node">
<title>Node2</title>
<g id="a_Node000002"><a xlink:href="../../d6/d0e/classcom_1_1bank_1_1manager_1_1_transaction_manager.html#a4ade645d8387a45e8026f0efd086c921" target="_top" xlink:title="Executes a transaction and records it in history.">
<polygon fill="white" stroke="#666666" points="327.5,-332 174.25,-332 174.25,-300 327.5,-300 327.5,-332"/>
<text xml:space="preserve" text-anchor="start" x="182.25" y="-318.5" font-family="Helvetica,sans-Serif" font-size="10.00">com.bank.manager.Transaction</text>
<text xml:space="preserve" text-anchor="middle" x="250.88" y="-306.5" font-family="Helvetica,sans-Serif" font-size="10.00">Manager.execute</text>
</a>
</g>
</g>
<!-- Node1&#45;&gt;Node2 -->
<g id="edge1_Node000001_Node000002" class="edge">
<title>Node1&#45;&gt;Node2</title>
<g id="a_edge1_Node000001_Node000002"><a xlink:title=" ">
<path fill="none" stroke="#63b8ff" d="M74.73,-182.45C89.77,-209.22 123.13,-262.12 166,-291 167.8,-292.21 169.65,-293.36 171.55,-294.46"/>
<polygon fill="#63b8ff" stroke="#63b8ff" points="169.57,-297.38 180.07,-298.82 172.76,-291.15 169.57,-297.38"/>
</a>
</g>
</g>
<!-- Node4 -->
<g id="Node000004" class="node">
<title>Node4</title>
<g id="a_Node000004"><a xlink:href="../../dd/db1/classcom_1_1bank_1_1manager_1_1_account_manager.html#a8a3ebf20f49b1718127736507683d480" target="_top" xlink:title="Finds an account by IBAN.">
<polygon fill="white" stroke="#666666" points="320,-282 181.75,-282 181.75,-250 320,-250 320,-282"/>
<text xml:space="preserve" text-anchor="start" x="189.75" y="-268.5" font-family="Helvetica,sans-Serif" font-size="10.00">com.bank.manager.Account</text>
<text xml:space="preserve" text-anchor="middle" x="250.88" y="-256.5" font-family="Helvetica,sans-Serif" font-size="10.00">Manager.findByIban</text>
</a>
</g>
</g>
<!-- Node1&#45;&gt;Node4 -->
<g id="edge3_Node000001_Node000004" class="edge">
<title>Node1&#45;&gt;Node4</title>
<g id="a_edge3_Node000001_Node000004"><a xlink:title=" ">
<path fill="none" stroke="#63b8ff" d="M83.5,-182.2C102.51,-199.03 134.41,-225.09 166,-241 169.09,-242.56 172.29,-244.03 175.57,-245.43"/>
<polygon fill="#63b8ff" stroke="#63b8ff" points="174.2,-248.66 184.79,-249.09 176.78,-242.15 174.2,-248.66"/>
</a>
</g>
</g>
<!-- Node6 -->
<g id="Node000006" class="node">
<title>Node6</title>
<g id="a_Node000006"><a xlink:href="../../dd/db1/classcom_1_1bank_1_1manager_1_1_account_manager.html#a9cfb69758fe6d4532cba2d754cca7af2" target="_top" xlink:title="Returns all loaded accounts.">
<polygon fill="white" stroke="#666666" points="320,-232 181.75,-232 181.75,-200 320,-200 320,-232"/>
<text xml:space="preserve" text-anchor="start" x="189.75" y="-218.5" font-family="Helvetica,sans-Serif" font-size="10.00">com.bank.manager.Account</text>
<text xml:space="preserve" text-anchor="middle" x="250.88" y="-206.5" font-family="Helvetica,sans-Serif" font-size="10.00">Manager.getAllAccounts</text>
</a>
</g>
</g>
<!-- Node1&#45;&gt;Node6 -->
<g id="edge5_Node000001_Node000006" class="edge">
<title>Node1&#45;&gt;Node6</title>
<g id="a_edge5_Node000001_Node000006"><a xlink:title=" ">
<path fill="none" stroke="#63b8ff" d="M126.46,-182.44C143.03,-186.95 161.16,-191.88 178.29,-196.53"/>
<polygon fill="#63b8ff" stroke="#63b8ff" points="177.35,-199.91 187.92,-199.15 179.18,-193.15 177.35,-199.91"/>
</a>
</g>
</g>
<!-- Node7 -->
<g id="Node000007" class="node">
<title>Node7</title>
<g id="a_Node000007"><a xlink:href="../../d3/dd4/classcom_1_1bank_1_1model_1_1bills_1_1_bill.html#aad5240cceb00c7c382167c877fd2f09e" target="_top" xlink:title=" ">
<polygon fill="white" stroke="#666666" points="321.5,-182 180.25,-182 180.25,-150 321.5,-150 321.5,-182"/>
<text xml:space="preserve" text-anchor="start" x="188.25" y="-168.5" font-family="Helvetica,sans-Serif" font-size="10.00">com.bank.model.bills.Bill.get</text>
<text xml:space="preserve" text-anchor="middle" x="250.88" y="-156.5" font-family="Helvetica,sans-Serif" font-size="10.00">Amount</text>
</a>
</g>
</g>
<!-- Node1&#45;&gt;Node7 -->
<g id="edge6_Node000001_Node000007" class="edge">
<title>Node1&#45;&gt;Node7</title>
<g id="a_edge6_Node000001_Node000007"><a xlink:title=" ">
<path fill="none" stroke="#63b8ff" d="M130.31,-166C142.73,-166 155.88,-166 168.75,-166"/>
<polygon fill="#63b8ff" stroke="#63b8ff" points="168.45,-169.5 178.45,-166 168.45,-162.5 168.45,-169.5"/>
</a>
</g>
</g>
<!-- Node8 -->
<g id="Node000008" class="node">
<title>Node8</title>
<g id="a_Node000008"><a xlink:href="../../da/d83/classcom_1_1bank_1_1model_1_1accounts_1_1_account.html#a9fb33a39fa4b91e75fc66a93ff23ae8b" target="_top" xlink:title=" ">
<polygon fill="white" stroke="#666666" points="317.75,-132 184,-132 184,-100 317.75,-100 317.75,-132"/>
<text xml:space="preserve" text-anchor="start" x="192" y="-118.5" font-family="Helvetica,sans-Serif" font-size="10.00">com.bank.model.accounts.</text>
<text xml:space="preserve" text-anchor="middle" x="250.88" y="-106.5" font-family="Helvetica,sans-Serif" font-size="10.00">Account.getBalance</text>
</a>
</g>
</g>
<!-- Node1&#45;&gt;Node8 -->
<g id="edge7_Node000001_Node000008" class="edge">
<title>Node1&#45;&gt;Node8</title>
<g id="a_edge7_Node000001_Node000008"><a xlink:title=" ">
<path fill="none" stroke="#63b8ff" d="M126.46,-149.56C143.03,-145.05 161.16,-140.12 178.29,-135.47"/>
<polygon fill="#63b8ff" stroke="#63b8ff" points="179.18,-138.85 187.92,-132.85 177.35,-132.09 179.18,-138.85"/>
</a>
</g>
</g>
<!-- Node9 -->
<g id="Node000009" class="node">
<title>Node9</title>
<g id="a_Node000009"><a xlink:href="../../dc/d48/classcom_1_1bank_1_1manager_1_1_bill_manager.html#a9e1ae7cd2460652d88fd043dca6d4dc5" target="_top" xlink:title="Finds a bill by its RF/paymentCode among all bills.">
<polygon fill="white" stroke="#666666" points="335.75,-82 166,-82 166,-50 335.75,-50 335.75,-82"/>
<text xml:space="preserve" text-anchor="start" x="174" y="-68.5" font-family="Helvetica,sans-Serif" font-size="10.00">com.bank.manager.BillManager.get</text>
<text xml:space="preserve" text-anchor="middle" x="250.88" y="-56.5" font-family="Helvetica,sans-Serif" font-size="10.00">BillByRF</text>
</a>
</g>
</g>
<!-- Node1&#45;&gt;Node9 -->
<g id="edge8_Node000001_Node000009" class="edge">
<title>Node1&#45;&gt;Node9</title>
<g id="a_edge8_Node000001_Node000009"><a xlink:title=" ">
<path fill="none" stroke="#63b8ff" d="M83.5,-149.8C102.51,-132.97 134.41,-106.91 166,-91 169.09,-89.44 172.29,-87.97 175.57,-86.57"/>
<polygon fill="#63b8ff" stroke="#63b8ff" points="176.78,-89.85 184.79,-82.91 174.2,-83.34 176.78,-89.85"/>
</a>
</g>
</g>
<!-- Node12 -->
<g id="Node000012" class="node">
<title>Node12</title>
<g id="a_Node000012"><a xlink:href="../../d3/dd4/classcom_1_1bank_1_1model_1_1bills_1_1_bill.html#a51246f53268ef90f6c26803fd1121e5c" target="_top" xlink:title=" ">
<polygon fill="white" stroke="#666666" points="321.5,-32 180.25,-32 180.25,0 321.5,0 321.5,-32"/>
<text xml:space="preserve" text-anchor="start" x="188.25" y="-18.5" font-family="Helvetica,sans-Serif" font-size="10.00">com.bank.model.bills.Bill.get</text>
<text xml:space="preserve" text-anchor="middle" x="250.88" y="-6.5" font-family="Helvetica,sans-Serif" font-size="10.00">Issuer</text>
</a>
</g>
</g>
<!-- Node1&#45;&gt;Node12 -->
<g id="edge11_Node000001_Node000012" class="edge">
<title>Node1&#45;&gt;Node12</title>
<g id="a_edge11_Node000001_Node000012"><a xlink:title=" ">
<path fill="none" stroke="#63b8ff" d="M74.73,-149.55C89.77,-122.78 123.13,-69.88 166,-41 167.8,-39.79 169.65,-38.64 171.55,-37.54"/>
<polygon fill="#63b8ff" stroke="#63b8ff" points="172.76,-40.85 180.07,-33.18 169.57,-34.62 172.76,-40.85"/>
</a>
</g>
</g>
<!-- Node3 -->
<g id="Node000003" class="node">
<title>Node3</title>
<g id="a_Node000003"><a xlink:href="../../d5/d94/classcom_1_1bank_1_1model_1_1transactions_1_1_transaction.html#a31513476c29864af24cc9a96185ceaa7" target="_top" xlink:title="Executes the transaction logic.">
<polygon fill="white" stroke="#666666" points="530.25,-332 383,-332 383,-300 530.25,-300 530.25,-332"/>
<text xml:space="preserve" text-anchor="start" x="391" y="-318.5" font-family="Helvetica,sans-Serif" font-size="10.00">com.bank.model.transactions.</text>
<text xml:space="preserve" text-anchor="middle" x="456.62" y="-306.5" font-family="Helvetica,sans-Serif" font-size="10.00">Transaction.execute</text>
</a>
</g>
</g>
<!-- Node2&#45;&gt;Node3 -->
<g id="edge2_Node000002_Node000003" class="edge">
<title>Node2&#45;&gt;Node3</title>
<g id="a_edge2_Node000002_Node000003"><a xlink:title=" ">
<path fill="none" stroke="#63b8ff" d="M327.74,-316C341.94,-316 356.86,-316 371.29,-316"/>
<polygon fill="#63b8ff" stroke="#63b8ff" points="371.22,-319.5 381.22,-316 371.22,-312.5 371.22,-319.5"/>
</a>
</g>
</g>
<!-- Node5 -->
<g id="Node000005" class="node">
<title>Node5</title>
<g id="a_Node000005"><a xlink:href="../../da/d83/classcom_1_1bank_1_1model_1_1accounts_1_1_account.html#a38981f8e6e13e82b7135c3b57bd2bba0" target="_top" xlink:title=" ">
<polygon fill="white" stroke="#666666" points="523.5,-282 389.75,-282 389.75,-250 523.5,-250 523.5,-282"/>
<text xml:space="preserve" text-anchor="start" x="397.75" y="-268.5" font-family="Helvetica,sans-Serif" font-size="10.00">com.bank.model.accounts.</text>
<text xml:space="preserve" text-anchor="middle" x="456.62" y="-256.5" font-family="Helvetica,sans-Serif" font-size="10.00">Account.getIban</text>
</a>
</g>
</g>
<!-- Node4&#45;&gt;Node5 -->
<g id="edge4_Node000004_Node000005" class="edge">
<title>Node4&#45;&gt;Node5</title>
<g id="a_edge4_Node000004_Node000005"><a xlink:title=" ">
<path fill="none" stroke="#63b8ff" d="M320.29,-266C338.85,-266 359.08,-266 378.11,-266"/>
<polygon fill="#63b8ff" stroke="#63b8ff" points="377.95,-269.5 387.95,-266 377.95,-262.5 377.95,-269.5"/>
</a>
</g>
</g>
<!-- Node10 -->
<g id="Node000010" class="node">
<title>Node10</title>
<g id="a_Node000010"><a xlink:href="../../dc/d48/classcom_1_1bank_1_1manager_1_1_bill_manager.html#ac7ca72058f0f60e72fb7a0d88742fc3c" target="_top" xlink:title="Returns all bills (issued + paid).">
<polygon fill="white" stroke="#666666" points="541.5,-107 371.75,-107 371.75,-75 541.5,-75 541.5,-107"/>
<text xml:space="preserve" text-anchor="start" x="379.75" y="-93.5" font-family="Helvetica,sans-Serif" font-size="10.00">com.bank.manager.BillManager.get</text>
<text xml:space="preserve" text-anchor="middle" x="456.62" y="-81.5" font-family="Helvetica,sans-Serif" font-size="10.00">AllBills</text>
</a>
</g>
</g>
<!-- Node9&#45;&gt;Node10 -->
<g id="edge9_Node000009_Node000010" class="edge">
<title>Node9&#45;&gt;Node10</title>
<g id="a_edge9_Node000009_Node000010"><a xlink:title=" ">
<path fill="none" stroke="#63b8ff" d="M336.22,-76.35C344.11,-77.32 352.14,-78.3 360.12,-79.28"/>
<polygon fill="#63b8ff" stroke="#63b8ff" points="359.49,-82.73 369.84,-80.47 360.34,-75.78 359.49,-82.73"/>
</a>
</g>
</g>
<!-- Node11 -->
<g id="Node000011" class="node">
<title>Node11</title>
<g id="a_Node000011"><a xlink:href="../../d3/dd4/classcom_1_1bank_1_1model_1_1bills_1_1_bill.html#a73882163a2347d97e6d532096d4c2312" target="_top" xlink:title=" ">
<polygon fill="white" stroke="#666666" points="527.25,-57 386,-57 386,-25 527.25,-25 527.25,-57"/>
<text xml:space="preserve" text-anchor="start" x="394" y="-43.5" font-family="Helvetica,sans-Serif" font-size="10.00">com.bank.model.bills.Bill.get</text>
<text xml:space="preserve" text-anchor="middle" x="456.62" y="-31.5" font-family="Helvetica,sans-Serif" font-size="10.00">PaymentCode</text>
</a>
</g>
</g>
<!-- Node9&#45;&gt;Node11 -->
<g id="edge10_Node000009_Node000011" class="edge">
<title>Node9&#45;&gt;Node11</title>
<g id="a_edge10_Node000009_Node000011"><a xlink:title=" ">
<path fill="none" stroke="#63b8ff" d="M336.22,-55.65C348.79,-54.11 361.73,-52.52 374.24,-50.99"/>
<polygon fill="#63b8ff" stroke="#63b8ff" points="374.59,-54.47 384.08,-49.78 373.73,-47.52 374.59,-54.47"/>
</a>
</g>
</g>
</g>
</svg>
