<?xml version="1.0" encoding="UTF-8" standalone="no"?>
<!DOCTYPE svg PUBLIC "-//W3C//DTD SVG 1.1//EN"
 "http://www.w3.org/Graphics/SVG/1.1/DTD/svg11.dtd">
<!-- Generated by graphviz version 14.0.1 (20251006.0113)
 -->
<!-- Title: com.bank.gui.app.EBankingApp.main Pages: 1 -->
<!--zoomable 378 -->

<svg id="main" version="1.1" xmlns="http://www.w3.org/2000/svg" xmlns:xlink="http://www.w3.org/1999/xlink" xml:space="preserve" onload="init(evt)">

<style type="text/css"><![CDATA[
.node, .edge {opacity: 0.7;}
.node.selected, .edge.selected {opacity: 1;}
.edge:hover path { stroke: red; }
.edge:hover polygon { stroke: red; fill: red; }
]]></style>

<defs>
  <circle id="rim" cx="0" cy="0" r="7"/>
  <circle id="rim2" cx="0" cy="0" r="3.5"/>
  <g id="zoomPlus">
    <use xlink:href="#rim" fill="#404040"><set attributeName="fill" to="#808080" begin="zoomplus.mouseover" end="zoomplus.mouseout"/></use>
    <path d="M-4,0h8M0,-4v8" fill="none" stroke="white" stroke-width="1.5" pointer-events="none"/>
  </g>
  <g id="zoomMin">
    <use xlink:href="#rim" fill="#404040"><set attributeName="fill" to="#808080" begin="zoomminus.mouseover" end="zoomminus.mouseout"/></use>
    <path d="M-4,0h8" fill="none" stroke="white" stroke-width="1.5" pointer-events="none"/>
  </g>
  <g id="arrowUp" transform="translate(30 24)">
    <use xlink:href="#rim"/>
    <path pointer-events="none" fill="none" stroke="white" stroke-width="1.5" d="M0,-3.0v7 M-2.5,-0.5L0,-3.0L2.5,-0.5"/>
  </g>
  <g id="arrowRight" transform="rotate(90) translate(36 -43)">
    <use xlink:href="#rim"/>
    <path pointer-events="none" fill="none" stroke="white" stroke-width="1.5" d="M0,-3.0v7 M-2.5,-0.5L0,-3.0L2.5,-0.5"/>
  </g>
  <g id="arrowDown" transform="rotate(180) translate(-30 -48)">
    <use xlink:href="#rim"/>
    <path pointer-events="none" fill="none" stroke="white" stroke-width="1.5" d="M0,-3.0v7 M-2.5,-0.5L0,-3.0L2.5,-0.5"/>
  </g>
  <g id="arrowLeft" transform="rotate(270) translate(-36 17)">
    <use xlink:href="#rim"/>
    <path pointer-events="none" fill="none" stroke="white" stroke-width="1.5" d="M0,-3.0v7 M-2.5,-0.5L0,-3.0L2.5,-0.5"/>
  </g>
  <g id="resetDef">
    <use xlink:href="#rim2" fill="#404040"><set attributeName="fill" to="#808080" begin="reset.mouseover" end="reset.mouseout"/></use>
  </g>
</defs>
<script type="application/ecmascript">
var viewWidth = 568;
var viewHeight = 378;
var sectionId = 'dynsection-1';
</script>
<script type="application/ecmascript" xlink:href="../../svg.min.js"/>
<svg id="graph" class="graph">
<g id="viewport">
<title>com.bank.gui.app.EBankingApp.main</title>
<!-- Node1 -->
<g id="Node000001" class="node">
<title>Node1</title>
<g id="a_Node000001"><a xlink:title="Application entry point (Swing).">
<polygon fill="#999999" stroke="#666666" points="138.25,-145 0,-145 0,-113 138.25,-113 138.25,-145"/>
<text xml:space="preserve" text-anchor="start" x="8" y="-131.5" font-family="Helvetica,sans-Serif" font-size="10.00">com.bank.gui.app.EBanking</text>
<text xml:space="preserve" text-anchor="middle" x="69.12" y="-119.5" font-family="Helvetica,sans-Serif" font-size="10.00">App.main</text>
</a>
</g>
</g>
<!-- Node2 -->
<g id="Node000002" class="node">
<title>Node2</title>
<g id="a_Node000002"><a xlink:href="../../dd/db1/classcom_1_1bank_1_1manager_1_1_account_manager.html#ae89787590be8e4cb9f2310aee2630b1a" target="_top" xlink:title="Loads accounts from CSV into memory.">
<polygon fill="white" stroke="#666666" points="334.25,-220 196,-220 196,-188 334.25,-188 334.25,-220"/>
<text xml:space="preserve" text-anchor="start" x="204" y="-206.5" font-family="Helvetica,sans-Serif" font-size="10.00">com.bank.manager.Account</text>
<text xml:space="preserve" text-anchor="middle" x="265.12" y="-194.5" font-family="Helvetica,sans-Serif" font-size="10.00">Manager.load</text>
</a>
</g>
</g>
<!-- Node1&#45;&gt;Node2 -->
<g id="edge1_Node000001_Node000002" class="edge">
<title>Node1&#45;&gt;Node2</title>
<g id="a_edge1_Node000001_Node000002"><a xlink:title=" ">
<path fill="none" stroke="#63b8ff" d="M112.7,-145.46C141.63,-156.65 180.12,-171.52 211.05,-183.48"/>
<polygon fill="#63b8ff" stroke="#63b8ff" points="209.65,-186.69 220.24,-187.03 212.17,-180.16 209.65,-186.69"/>
</a>
</g>
</g>
<!-- Node9 -->
<g id="Node000009" class="node">
<title>Node9</title>
<g id="a_Node000009"><a xlink:href="../../db/d15/classcom_1_1bank_1_1manager_1_1_user_manager.html#ae439809371121e161e8201d9d0ef4938" target="_top" xlink:title="Loads all users from the CSV file.">
<polygon fill="white" stroke="#666666" points="356,-139 174.25,-139 174.25,-119 356,-119 356,-139"/>
<text xml:space="preserve" text-anchor="middle" x="265.12" y="-125.5" font-family="Helvetica,sans-Serif" font-size="10.00">com.bank.manager.UserManager.load</text>
</a>
</g>
</g>
<!-- Node1&#45;&gt;Node9 -->
<g id="edge8_Node000001_Node000009" class="edge">
<title>Node1&#45;&gt;Node9</title>
<g id="a_edge8_Node000001_Node000009"><a xlink:title=" ">
<path fill="none" stroke="#63b8ff" d="M138.52,-129C146.31,-129 154.36,-129 162.46,-129"/>
<polygon fill="#63b8ff" stroke="#63b8ff" points="162.4,-132.5 172.4,-129 162.4,-125.5 162.4,-132.5"/>
</a>
</g>
</g>
<!-- Node10 -->
<g id="Node000010" class="node">
<title>Node10</title>
<g id="a_Node000010"><a xlink:href="../../dc/d48/classcom_1_1bank_1_1manager_1_1_bill_manager.html#a0a16b9f5e89eb52128535fa13f8e558f" target="_top" xlink:title="Loads bills from global ledgers and daily files; rebuilds in&#45;memory state.">
<polygon fill="white" stroke="#666666" points="352.25,-70 178,-70 178,-38 352.25,-38 352.25,-70"/>
<text xml:space="preserve" text-anchor="start" x="186" y="-56.5" font-family="Helvetica,sans-Serif" font-size="10.00">com.bank.manager.BillManager.load</text>
<text xml:space="preserve" text-anchor="middle" x="265.12" y="-44.5" font-family="Helvetica,sans-Serif" font-size="10.00">Bills</text>
</a>
</g>
</g>
<!-- Node1&#45;&gt;Node10 -->
<g id="edge9_Node000001_Node000010" class="edge">
<title>Node1&#45;&gt;Node10</title>
<g id="a_edge9_Node000001_Node000010"><a xlink:title=" ">
<path fill="none" stroke="#63b8ff" d="M112.7,-112.54C141.63,-101.35 180.12,-86.48 211.05,-74.52"/>
<polygon fill="#63b8ff" stroke="#63b8ff" points="212.17,-77.84 220.24,-70.97 209.65,-71.31 212.17,-77.84"/>
</a>
</g>
</g>
<!-- Node3 -->
<g id="Node000003" class="node">
<title>Node3</title>
<g id="a_Node000003"><a xlink:href="../../dc/df2/classcom_1_1bank_1_1model_1_1accounts_1_1_personal_account.html#ad82a2a028f6260d252a83cb525e81280" target="_top" xlink:title="Adds a co&#45;owner to this personal account.">
<polygon fill="white" stroke="#666666" points="550.88,-370 400.62,-370 400.62,-338 550.88,-338 550.88,-370"/>
<text xml:space="preserve" text-anchor="start" x="408.62" y="-356.5" font-family="Helvetica,sans-Serif" font-size="10.00">com.bank.model.accounts.</text>
<text xml:space="preserve" text-anchor="middle" x="475.75" y="-344.5" font-family="Helvetica,sans-Serif" font-size="10.00">PersonalAccount.addCoOwner</text>
</a>
</g>
</g>
<!-- Node2&#45;&gt;Node3 -->
<g id="edge2_Node000002_Node000003" class="edge">
<title>Node2&#45;&gt;Node3</title>
<g id="a_edge2_Node000002_Node000003"><a xlink:title=" ">
<path fill="none" stroke="#63b8ff" d="M278.18,-220.35C298.64,-246.97 342.8,-299.66 392,-329 394.28,-330.36 396.65,-331.65 399.07,-332.88"/>
<polygon fill="#63b8ff" stroke="#63b8ff" points="397.38,-335.96 407.92,-336.94 400.29,-329.59 397.38,-335.96"/>
</a>
</g>
</g>
<!-- Node4 -->
<g id="Node000004" class="node">
<title>Node4</title>
<g id="a_Node000004"><a xlink:href="../../dc/df2/classcom_1_1bank_1_1model_1_1accounts_1_1_personal_account.html#a00b8b9c6c4343b0c79612f5e240534ec" target="_top" xlink:title="Returns the VAT identifiers of co&#45;owners parsed during loading.">
<polygon fill="white" stroke="#666666" points="559.5,-320 392,-320 392,-288 559.5,-288 559.5,-320"/>
<text xml:space="preserve" text-anchor="start" x="400" y="-306.5" font-family="Helvetica,sans-Serif" font-size="10.00">com.bank.model.accounts.</text>
<text xml:space="preserve" text-anchor="middle" x="475.75" y="-294.5" font-family="Helvetica,sans-Serif" font-size="10.00">PersonalAccount.getCoOwnerVats</text>
</a>
</g>
</g>
<!-- Node2&#45;&gt;Node4 -->
<g id="edge3_Node000002_Node000004" class="edge">
<title>Node2&#45;&gt;Node4</title>
<g id="a_edge3_Node000002_Node000004"><a xlink:title=" ">
<path fill="none" stroke="#63b8ff" d="M289.78,-220.49C314.4,-237.07 354.53,-262.47 392,-279 395.72,-280.64 399.58,-282.21 403.51,-283.72"/>
<polygon fill="#63b8ff" stroke="#63b8ff" points="402,-286.89 412.59,-287.01 404.38,-280.31 402,-286.89"/>
</a>
</g>
</g>
<!-- Node5 -->
<g id="Node000005" class="node">
<title>Node5</title>
<g id="a_Node000005"><a xlink:href="../../da/d83/classcom_1_1bank_1_1model_1_1accounts_1_1_account.html#aa943c031213311a46e833a8e2b4b80b9" target="_top" xlink:title=" ">
<polygon fill="white" stroke="#666666" points="542.62,-270 408.88,-270 408.88,-238 542.62,-238 542.62,-270"/>
<text xml:space="preserve" text-anchor="start" x="416.88" y="-256.5" font-family="Helvetica,sans-Serif" font-size="10.00">com.bank.model.accounts.</text>
<text xml:space="preserve" text-anchor="middle" x="475.75" y="-244.5" font-family="Helvetica,sans-Serif" font-size="10.00">Account.setBalance</text>
</a>
</g>
</g>
<!-- Node2&#45;&gt;Node5 -->
<g id="edge4_Node000002_Node000005" class="edge">
<title>Node2&#45;&gt;Node5</title>
<g id="a_edge4_Node000002_Node000005"><a xlink:title=" ">
<path fill="none" stroke="#63b8ff" d="M334.73,-220.44C354.86,-225.27 377.01,-230.58 397.64,-235.52"/>
<polygon fill="#63b8ff" stroke="#63b8ff" points="396.58,-238.86 407.12,-237.79 398.21,-232.06 396.58,-238.86"/>
</a>
</g>
</g>
<!-- Node6 -->
<g id="Node000006" class="node">
<title>Node6</title>
<g id="a_Node000006"><a xlink:href="../../da/d83/classcom_1_1bank_1_1model_1_1accounts_1_1_account.html#a5c90e0c185175ac9b2efa3e2ca8e39df" target="_top" xlink:title=" ">
<polygon fill="white" stroke="#666666" points="542.62,-220 408.88,-220 408.88,-188 542.62,-188 542.62,-220"/>
<text xml:space="preserve" text-anchor="start" x="416.88" y="-206.5" font-family="Helvetica,sans-Serif" font-size="10.00">com.bank.model.accounts.</text>
<text xml:space="preserve" text-anchor="middle" x="475.75" y="-194.5" font-family="Helvetica,sans-Serif" font-size="10.00">Account.setDateCreated</text>
</a>
</g>
</g>
<!-- Node2&#45;&gt;Node6 -->
<g id="edge5_Node000002_Node000006" class="edge">
<title>Node2&#45;&gt;Node6</title>
<g id="a_edge5_Node000002_Node000006"><a xlink:title=" ">
<path fill="none" stroke="#63b8ff" d="M334.73,-204C354.77,-204 376.81,-204 397.35,-204"/>
<polygon fill="#63b8ff" stroke="#63b8ff" points="397.08,-207.5 407.08,-204 397.08,-200.5 397.08,-207.5"/>
</a>
</g>
</g>
<!-- Node7 -->
<g id="Node000007" class="node">
<title>Node7</title>
<g id="a_Node000007"><a xlink:href="../../da/d83/classcom_1_1bank_1_1model_1_1accounts_1_1_account.html#a612fa744909ae3c3e9ef01f040d4f9df" target="_top" xlink:title=" ">
<polygon fill="white" stroke="#666666" points="542.62,-170 408.88,-170 408.88,-138 542.62,-138 542.62,-170"/>
<text xml:space="preserve" text-anchor="start" x="416.88" y="-156.5" font-family="Helvetica,sans-Serif" font-size="10.00">com.bank.model.accounts.</text>
<text xml:space="preserve" text-anchor="middle" x="475.75" y="-144.5" font-family="Helvetica,sans-Serif" font-size="10.00">Account.setIban</text>
</a>
</g>
</g>
<!-- Node2&#45;&gt;Node7 -->
<g id="edge6_Node000002_Node000007" class="edge">
<title>Node2&#45;&gt;Node7</title>
<g id="a_edge6_Node000002_Node000007"><a xlink:title=" ">
<path fill="none" stroke="#63b8ff" d="M334.73,-187.56C354.86,-182.73 377.01,-177.42 397.64,-172.48"/>
<polygon fill="#63b8ff" stroke="#63b8ff" points="398.21,-175.94 407.12,-170.21 396.58,-169.14 398.21,-175.94"/>
</a>
</g>
</g>
<!-- Node8 -->
<g id="Node000008" class="node">
<title>Node8</title>
<g id="a_Node000008"><a xlink:href="../../da/d83/classcom_1_1bank_1_1model_1_1accounts_1_1_account.html#a9310000b791eb785ef80e11540d04c46" target="_top" xlink:title="Deserializes fields from a key&#45;value string produced by marshal().">
<polygon fill="white" stroke="#666666" points="542.62,-120 408.88,-120 408.88,-88 542.62,-88 542.62,-120"/>
<text xml:space="preserve" text-anchor="start" x="416.88" y="-106.5" font-family="Helvetica,sans-Serif" font-size="10.00">com.bank.model.accounts.</text>
<text xml:space="preserve" text-anchor="middle" x="475.75" y="-94.5" font-family="Helvetica,sans-Serif" font-size="10.00">Account.unmarshal</text>
</a>
</g>
</g>
<!-- Node2&#45;&gt;Node8 -->
<g id="edge7_Node000002_Node000008" class="edge">
<title>Node2&#45;&gt;Node8</title>
<g id="a_edge7_Node000002_Node000008"><a xlink:title=" ">
<path fill="none" stroke="#63b8ff" d="M291.96,-187.59C322.62,-168.29 372.1,-137.78 392,-129 395.72,-127.36 399.58,-125.79 403.51,-124.28"/>
<polygon fill="#63b8ff" stroke="#63b8ff" points="404.38,-127.69 412.59,-120.99 402,-121.11 404.38,-127.69"/>
</a>
</g>
</g>
<!-- Node11 -->
<g id="Node000011" class="node">
<title>Node11</title>
<g id="a_Node000011"><a xlink:href="../../d3/dd4/classcom_1_1bank_1_1model_1_1bills_1_1_bill.html#a73882163a2347d97e6d532096d4c2312" target="_top" xlink:title=" ">
<polygon fill="white" stroke="#666666" points="546.38,-70 405.12,-70 405.12,-38 546.38,-38 546.38,-70"/>
<text xml:space="preserve" text-anchor="start" x="413.12" y="-56.5" font-family="Helvetica,sans-Serif" font-size="10.00">com.bank.model.bills.Bill.get</text>
<text xml:space="preserve" text-anchor="middle" x="475.75" y="-44.5" font-family="Helvetica,sans-Serif" font-size="10.00">PaymentCode</text>
</a>
</g>
</g>
<!-- Node10&#45;&gt;Node11 -->
<g id="edge10_Node000010_Node000011" class="edge">
<title>Node10&#45;&gt;Node11</title>
<g id="a_edge10_Node000010_Node000011"><a xlink:title=" ">
<path fill="none" stroke="#63b8ff" d="M352.49,-54C366.06,-54 380.05,-54 393.51,-54"/>
<polygon fill="#63b8ff" stroke="#63b8ff" points="393.15,-57.5 403.15,-54 393.15,-50.5 393.15,-57.5"/>
</a>
</g>
</g>
<!-- Node12 -->
<g id="Node000012" class="node">
<title>Node12</title>
<g id="a_Node000012"><a xlink:href="../../d3/dd4/classcom_1_1bank_1_1model_1_1bills_1_1_bill.html#a0d03ed4f25d34f88efec757d7f88a348" target="_top" xlink:title=" ">
<polygon fill="white" stroke="#666666" points="556.12,-20 395.38,-20 395.38,0 556.12,0 556.12,-20"/>
<text xml:space="preserve" text-anchor="middle" x="475.75" y="-6.5" font-family="Helvetica,sans-Serif" font-size="10.00">com.bank.model.bills.Bill.setPaid</text>
</a>
</g>
</g>
<!-- Node10&#45;&gt;Node12 -->
<g id="edge11_Node000010_Node000012" class="edge">
<title>Node10&#45;&gt;Node12</title>
<g id="a_edge11_Node000010_Node000012"><a xlink:title=" ">
<path fill="none" stroke="#63b8ff" d="M344.11,-37.55C367.17,-32.69 392.07,-27.44 413.88,-22.84"/>
<polygon fill="#63b8ff" stroke="#63b8ff" points="414.44,-26.3 423.5,-20.81 412.99,-19.45 414.44,-26.3"/>
</a>
</g>
</g>
</g>
</svg>

<g id="navigator" transform="translate(0 0)" fill="#404254">
  <rect fill="#f2f5e9" fill-opacity="0.5" stroke="#606060" stroke-width=".5" x="0" y="0" width="60" height="60"/>
  <use id="zoomplus" xlink:href="#zoomPlus" x="17" y="9" onmousedown="handleZoom(evt,'in')"/>
  <use id="zoomminus" xlink:href="#zoomMin" x="42" y="9" onmousedown="handleZoom(evt,'out')"/>
  <use id="reset" xlink:href="#resetDef" x="30" y="36" onmousedown="handleReset()"/>
   <use id="arrowup" xlink:href="#arrowUp" x="0" y="0" onmousedown="handlePan(0,-1)"/>
  <use id="arrowright" xlink:href="#arrowRight" x="0" y="0" onmousedown="handlePan(1,0)"/>
  <use id="arrowdown" xlink:href="#arrowDown" x="0" y="0" onmousedown="handlePan(0,1)"/>
  <use id="arrowleft" xlink:href="#arrowLeft" x="0" y="0" onmousedown="handlePan(-1,0)"/>
</g>
<svg viewBox="0 0 15 15" width="100%" height="30px" preserveAspectRatio="xMaxYMin meet">
 <g id="arrow_out" transform="scale(0.3 0.3)">
  <a xlink:href="classcom_1_1bank_1_1gui_1_1app_1_1_e_banking_app_af606e2bd044a63a8b202a0676581b02d_cgraph_org.svg" target="_base">
   <rect id="button" ry="5" rx="5" y="6" x="6" height="38" width="38"
        fill="#f2f5e9" fill-opacity="0.5" stroke="#606060" stroke-width="1.0"/>
   <path id="arrow"
     d="M 11.500037,31.436501 C 11.940474,20.09759 22.043105,11.32322 32.158766,21.979434 L 37.068811,17.246167 C 37.068811,17.246167 37.088388,32 37.088388,32 L 22.160133,31.978069 C 22.160133,31.978069 26.997745,27.140456 26.997745,27.140456 C 18.528582,18.264221 13.291696,25.230495 11.500037,31.436501 z"
     style="fill:#404040;"/>
  </a>
 </g>
</svg>

<style type='text/css'>
<![CDATA[
[data-mouse-over-selected='false'] { opacity: 0.7; }
[data-mouse-over-selected='true']  { opacity: 1.0; }
]]>
</style>
<script type="application/ecmascript"><![CDATA[
document.addEventListener('DOMContentLoaded', (event) => {
  highlightEdges();
  highlightAdjacentNodes();
});
]]></script>
</svg>
