<?xml version="1.0" encoding="UTF-8" standalone="no"?>
<!DOCTYPE svg PUBLIC "-//W3C//DTD SVG 1.1//EN"
 "http://www.w3.org/Graphics/SVG/1.1/DTD/svg11.dtd">
<!-- Generated by graphviz version 14.0.1 (20251006.0113)
 -->
<!-- Title: gui/view/panel/AdminAccountStatementsPanel.java Pages: 1 -->
<svg width="881pt" height="108pt"
 viewBox="0.00 0.00 881.00 108.00" xmlns="http://www.w3.org/2000/svg" xmlns:xlink="http://www.w3.org/1999/xlink">
<g id="graph0" class="graph" transform="scale(1 1) rotate(0) translate(4 104)">
<title>gui/view/panel/AdminAccountStatementsPanel.java</title>
<!-- Node1 -->
<g id="Node000001" class="node">
<title>Node1</title>
<g id="a_Node000001"><a xlink:title=" ">
<polygon fill="#999999" stroke="#666666" points="617.62,-100 472.62,-100 472.62,-68 617.62,-68 617.62,-100"/>
<text xml:space="preserve" text-anchor="start" x="480.62" y="-86.5" font-family="Helvetica,sans-Serif" font-size="10.00">gui/view/panel/AdminAccount</text>
<text xml:space="preserve" text-anchor="middle" x="545.12" y="-74.5" font-family="Helvetica,sans-Serif" font-size="10.00">StatementsPanel.java</text>
</a>
</g>
</g>
<!-- Node2 -->
<g id="Node000002" class="node">
<title>Node2</title>
<g id="a_Node000002"><a xlink:title=" ">
<polygon fill="#e0e0e0" stroke="#999999" points="138.25,-32 0,-32 0,0 138.25,0 138.25,-32"/>
<text xml:space="preserve" text-anchor="start" x="8" y="-18.5" font-family="Helvetica,sans-Serif" font-size="10.00">com.bank.manager.Account</text>
<text xml:space="preserve" text-anchor="middle" x="69.12" y="-6.5" font-family="Helvetica,sans-Serif" font-size="10.00">Manager</text>
</a>
</g>
</g>
<!-- Node1&#45;&gt;Node2 -->
<g id="edge1_Node000001_Node000002" class="edge">
<title>Node1&#45;&gt;Node2</title>
<g id="a_edge1_Node000001_Node000002"><a xlink:title=" ">
<path fill="none" stroke="#63b8ff" d="M472.3,-75.05C394.77,-66.28 268.23,-51.07 149.5,-32.32"/>
<polygon fill="#63b8ff" stroke="#63b8ff" points="150.33,-28.91 139.9,-30.79 149.23,-35.82 150.33,-28.91"/>
</a>
</g>
</g>
<!-- Node3 -->
<g id="Node000003" class="node">
<title>Node3</title>
<g id="a_Node000003"><a xlink:title=" ">
<polygon fill="#e0e0e0" stroke="#999999" points="303.75,-32 156.5,-32 156.5,0 303.75,0 303.75,-32"/>
<text xml:space="preserve" text-anchor="start" x="164.5" y="-18.5" font-family="Helvetica,sans-Serif" font-size="10.00">com.bank.manager.Statement</text>
<text xml:space="preserve" text-anchor="middle" x="230.12" y="-6.5" font-family="Helvetica,sans-Serif" font-size="10.00">Manager</text>
</a>
</g>
</g>
<!-- Node1&#45;&gt;Node3 -->
<g id="edge2_Node000001_Node000003" class="edge">
<title>Node1&#45;&gt;Node3</title>
<g id="a_edge2_Node000001_Node000003"><a xlink:title=" ">
<path fill="none" stroke="#63b8ff" d="M472.46,-67.78C425.6,-57.96 364.46,-45.15 315.31,-34.85"/>
<polygon fill="#63b8ff" stroke="#63b8ff" points="316.05,-31.43 305.54,-32.8 314.61,-38.28 316.05,-31.43"/>
</a>
</g>
</g>
<!-- Node4 -->
<g id="Node000004" class="node">
<title>Node4</title>
<g id="a_Node000004"><a xlink:title=" ">
<polygon fill="#e0e0e0" stroke="#999999" points="456,-32 322.25,-32 322.25,0 456,0 456,-32"/>
<text xml:space="preserve" text-anchor="start" x="330.25" y="-18.5" font-family="Helvetica,sans-Serif" font-size="10.00">com.bank.model.accounts.</text>
<text xml:space="preserve" text-anchor="middle" x="389.12" y="-6.5" font-family="Helvetica,sans-Serif" font-size="10.00">Account</text>
</a>
</g>
</g>
<!-- Node1&#45;&gt;Node4 -->
<g id="edge3_Node000001_Node000004" class="edge">
<title>Node1&#45;&gt;Node4</title>
<g id="a_edge3_Node000001_Node000004"><a xlink:title=" ">
<path fill="none" stroke="#63b8ff" d="M508.55,-67.53C486.92,-58.37 459.3,-46.69 436.07,-36.86"/>
<polygon fill="#63b8ff" stroke="#63b8ff" points="437.71,-33.75 427.13,-33.08 434.98,-40.2 437.71,-33.75"/>
</a>
</g>
</g>
<!-- Node5 -->
<g id="Node000005" class="node">
<title>Node5</title>
<g id="a_Node000005"><a xlink:title=" ">
<polygon fill="#e0e0e0" stroke="#999999" points="616.5,-32 473.75,-32 473.75,0 616.5,0 616.5,-32"/>
<text xml:space="preserve" text-anchor="start" x="481.75" y="-18.5" font-family="Helvetica,sans-Serif" font-size="10.00">com.bank.model.statements.</text>
<text xml:space="preserve" text-anchor="middle" x="545.12" y="-6.5" font-family="Helvetica,sans-Serif" font-size="10.00">StatementEntry</text>
</a>
</g>
</g>
<!-- Node1&#45;&gt;Node5 -->
<g id="edge4_Node000001_Node000005" class="edge">
<title>Node1&#45;&gt;Node5</title>
<g id="a_edge4_Node000001_Node000005"><a xlink:title=" ">
<path fill="none" stroke="#63b8ff" d="M545.12,-67.69C545.12,-60.53 545.12,-51.79 545.12,-43.59"/>
<polygon fill="#63b8ff" stroke="#63b8ff" points="548.63,-43.74 545.13,-33.74 541.63,-43.74 548.63,-43.74"/>
</a>
</g>
</g>
<!-- Node6 -->
<g id="Node000006" class="node">
<title>Node6</title>
<g id="a_Node000006"><a xlink:title=" ">
<polygon fill="#e0e0e0" stroke="#999999" points="709.38,-26 634.88,-26 634.88,-6 709.38,-6 709.38,-26"/>
<text xml:space="preserve" text-anchor="middle" x="672.12" y="-12.5" font-family="Helvetica,sans-Serif" font-size="10.00">javax.swing.*</text>
</a>
</g>
</g>
<!-- Node1&#45;&gt;Node6 -->
<g id="edge5_Node000001_Node000006" class="edge">
<title>Node1&#45;&gt;Node6</title>
<g id="a_edge5_Node000001_Node000006"><a xlink:title=" ">
<path fill="none" stroke="#63b8ff" d="M574.9,-67.53C595.75,-56.69 623.44,-42.3 643.93,-31.65"/>
<polygon fill="#63b8ff" stroke="#63b8ff" points="645.32,-34.88 652.58,-27.16 642.09,-28.66 645.32,-34.88"/>
</a>
</g>
</g>
<!-- Node7 -->
<g id="Node000007" class="node">
<title>Node7</title>
<g id="a_Node000007"><a xlink:title=" ">
<polygon fill="#e0e0e0" stroke="#999999" points="786.88,-26 727.38,-26 727.38,-6 786.88,-6 786.88,-26"/>
<text xml:space="preserve" text-anchor="middle" x="757.12" y="-12.5" font-family="Helvetica,sans-Serif" font-size="10.00">java.awt.*</text>
</a>
</g>
</g>
<!-- Node1&#45;&gt;Node7 -->
<g id="edge6_Node000001_Node000007" class="edge">
<title>Node1&#45;&gt;Node7</title>
<g id="a_edge6_Node000001_Node000007"><a xlink:title=" ">
<path fill="none" stroke="#63b8ff" d="M601.58,-67.6C635.56,-58.02 679.57,-45.07 718.12,-32 719.71,-31.46 721.33,-30.9 722.97,-30.32"/>
<polygon fill="#63b8ff" stroke="#63b8ff" points="724.13,-33.62 732.31,-26.87 721.71,-27.05 724.13,-33.62"/>
</a>
</g>
</g>
<!-- Node8 -->
<g id="Node000008" class="node">
<title>Node8</title>
<g id="a_Node000008"><a xlink:title=" ">
<polygon fill="#e0e0e0" stroke="#999999" points="873.38,-26 804.88,-26 804.88,-6 873.38,-6 873.38,-26"/>
<text xml:space="preserve" text-anchor="middle" x="839.12" y="-12.5" font-family="Helvetica,sans-Serif" font-size="10.00">java.util.List</text>
</a>
</g>
</g>
<!-- Node1&#45;&gt;Node8 -->
<g id="edge7_Node000001_Node000008" class="edge">
<title>Node1&#45;&gt;Node8</title>
<g id="a_edge7_Node000001_Node000008"><a xlink:title=" ">
<path fill="none" stroke="#63b8ff" d="M617.96,-70.89C668.39,-61.85 736.84,-48.28 796.12,-32 798.39,-31.38 800.71,-30.7 803.03,-29.98"/>
<polygon fill="#63b8ff" stroke="#63b8ff" points="803.98,-33.36 812.4,-26.93 801.81,-26.7 803.98,-33.36"/>
</a>
</g>
</g>
</g>
</svg>
