<?xml version="1.0" encoding="UTF-8" standalone="no"?>
<!DOCTYPE svg PUBLIC "-//W3C//DTD SVG 1.1//EN"
 "http://www.w3.org/Graphics/SVG/1.1/DTD/svg11.dtd">
<!-- Generated by graphviz version 14.0.1 (20251006.0113)
 -->
<!-- Title: com.bank.model.orders.PaymentOrder Pages: 1 -->
<!--zoomable 628 -->

<svg id="main" version="1.1" xmlns="http://www.w3.org/2000/svg" xmlns:xlink="http://www.w3.org/1999/xlink" xml:space="preserve" onload="init(evt)">

<style type="text/css"><![CDATA[
.node, .edge {opacity: 0.7;}
.node.selected, .edge.selected {opacity: 1;}
.edge:hover path { stroke: red; }
.edge:hover polygon { stroke: red; fill: red; }
]]></style>

<defs>
  <circle id="rim" cx="0" cy="0" r="7"/>
  <circle id="rim2" cx="0" cy="0" r="3.5"/>
  <g id="zoomPlus">
    <use xlink:href="#rim" fill="#404040"><set attributeName="fill" to="#808080" begin="zoomplus.mouseover" end="zoomplus.mouseout"/></use>
    <path d="M-4,0h8M0,-4v8" fill="none" stroke="white" stroke-width="1.5" pointer-events="none"/>
  </g>
  <g id="zoomMin">
    <use xlink:href="#rim" fill="#404040"><set attributeName="fill" to="#808080" begin="zoomminus.mouseover" end="zoomminus.mouseout"/></use>
    <path d="M-4,0h8" fill="none" stroke="white" stroke-width="1.5" pointer-events="none"/>
  </g>
  <g id="arrowUp" transform="translate(30 24)">
    <use xlink:href="#rim"/>
    <path pointer-events="none" fill="none" stroke="white" stroke-width="1.5" d="M0,-3.0v7 M-2.5,-0.5L0,-3.0L2.5,-0.5"/>
  </g>
  <g id="arrowRight" transform="rotate(90) translate(36 -43)">
    <use xlink:href="#rim"/>
    <path pointer-events="none" fill="none" stroke="white" stroke-width="1.5" d="M0,-3.0v7 M-2.5,-0.5L0,-3.0L2.5,-0.5"/>
  </g>
  <g id="arrowDown" transform="rotate(180) translate(-30 -48)">
    <use xlink:href="#rim"/>
    <path pointer-events="none" fill="none" stroke="white" stroke-width="1.5" d="M0,-3.0v7 M-2.5,-0.5L0,-3.0L2.5,-0.5"/>
  </g>
  <g id="arrowLeft" transform="rotate(270) translate(-36 17)">
    <use xlink:href="#rim"/>
    <path pointer-events="none" fill="none" stroke="white" stroke-width="1.5" d="M0,-3.0v7 M-2.5,-0.5L0,-3.0L2.5,-0.5"/>
  </g>
  <g id="resetDef">
    <use xlink:href="#rim2" fill="#404040"><set attributeName="fill" to="#808080" begin="reset.mouseover" end="reset.mouseout"/></use>
  </g>
</defs>
<script type="application/ecmascript">
var viewWidth = 160;
var viewHeight = 628;
var sectionId = 'dynsection-0';
</script>
<script type="application/ecmascript" xlink:href="../../svg.min.js"/>
<svg id="graph" class="graph">
<g id="viewport">
<title>com.bank.model.orders.PaymentOrder</title>
<!-- Node1 -->
<g id="Node000001" class="node">
<title>Node1</title>
<g id="a_Node000001"><a xlink:title="Standing order that pays a bill (by payment code) on its due date within a max amount limit.">
<polygon fill="#999999" stroke="none" points="152,-128 0,-128 0,0 152,0 152,-128"/>
<text xml:space="preserve" text-anchor="start" x="4" y="-114.5" font-family="Helvetica,sans-Serif" font-size="10.00">com.bank.model.orders.Payment</text>
<text xml:space="preserve" text-anchor="start" x="64" y="-102.5" font-family="Helvetica,sans-Serif" font-size="10.00">Order</text>
<text xml:space="preserve" text-anchor="start" x="74.5" y="-86.5" font-family="Helvetica,sans-Serif" font-size="10.00"> </text>
<text xml:space="preserve" text-anchor="start" x="20.25" y="-70.5" font-family="Helvetica,sans-Serif" font-size="10.00">+</text>
<text xml:space="preserve" text-anchor="start" x="46.5" y="-70.5" font-family="Helvetica,sans-Serif" font-size="10.00">PaymentOrder()</text>
<text xml:space="preserve" text-anchor="start" x="20.25" y="-54.5" font-family="Helvetica,sans-Serif" font-size="10.00">+</text>
<text xml:space="preserve" text-anchor="start" x="46.5" y="-54.5" font-family="Helvetica,sans-Serif" font-size="10.00">execute()</text>
<text xml:space="preserve" text-anchor="start" x="20.25" y="-38.5" font-family="Helvetica,sans-Serif" font-size="10.00">+</text>
<text xml:space="preserve" text-anchor="start" x="46.5" y="-38.5" font-family="Helvetica,sans-Serif" font-size="10.00">isFailed()</text>
<text xml:space="preserve" text-anchor="start" x="20.25" y="-22.5" font-family="Helvetica,sans-Serif" font-size="10.00">+</text>
<text xml:space="preserve" text-anchor="start" x="46.5" y="-22.5" font-family="Helvetica,sans-Serif" font-size="10.00">marshal()</text>
<text xml:space="preserve" text-anchor="start" x="20.25" y="-6.5" font-family="Helvetica,sans-Serif" font-size="10.00">+</text>
<text xml:space="preserve" text-anchor="start" x="46.5" y="-6.5" font-family="Helvetica,sans-Serif" font-size="10.00">unmarshal()</text>
<polygon fill="#666666" stroke="#666666" points="0,-98 0,-98 152,-98 152,-98 0,-98"/>
<polygon fill="#666666" stroke="#666666" points="0,-82 0,-82 152,-82 152,-82 0,-82"/>
<polygon fill="none" stroke="#666666" points="0,0 0,-128 152,-128 152,0 0,0"/>
</a>
</g>
</g>
<!-- Node2 -->
<g id="Node000002" class="node">
<title>Node2</title>
<g id="a_Node000002"><a xlink:href="../../d7/d26/classcom_1_1bank_1_1model_1_1orders_1_1_standing_order.html" target="_top" xlink:title="Abstract base class for automated scheduled banking orders.">
<polygon fill="white" stroke="none" points="151.62,-516 0.38,-516 0.38,-164 151.62,-164 151.62,-516"/>
<text xml:space="preserve" text-anchor="start" x="4.38" y="-502.5" font-family="Helvetica,sans-Serif" font-size="10.00">com.bank.model.orders.Standing</text>
<text xml:space="preserve" text-anchor="start" x="64" y="-490.5" font-family="Helvetica,sans-Serif" font-size="10.00">Order</text>
<text xml:space="preserve" text-anchor="start" x="19.12" y="-474.5" font-family="Helvetica,sans-Serif" font-size="10.00">+</text>
<text xml:space="preserve" text-anchor="start" x="43.88" y="-474.5" font-family="Helvetica,sans-Serif" font-size="10.00">description</text>
<text xml:space="preserve" text-anchor="start" x="19.12" y="-458.5" font-family="Helvetica,sans-Serif" font-size="10.00">+</text>
<text xml:space="preserve" text-anchor="start" x="43.88" y="-458.5" font-family="Helvetica,sans-Serif" font-size="10.00">isActive</text>
<text xml:space="preserve" text-anchor="start" x="19.5" y="-442.5" font-family="Helvetica,sans-Serif" font-size="10.00">#</text>
<text xml:space="preserve" text-anchor="start" x="43.88" y="-442.5" font-family="Helvetica,sans-Serif" font-size="10.00">orderId</text>
<text xml:space="preserve" text-anchor="start" x="19.5" y="-426.5" font-family="Helvetica,sans-Serif" font-size="10.00">#</text>
<text xml:space="preserve" text-anchor="start" x="43.88" y="-426.5" font-family="Helvetica,sans-Serif" font-size="10.00">title</text>
<text xml:space="preserve" text-anchor="start" x="19.5" y="-410.5" font-family="Helvetica,sans-Serif" font-size="10.00">#</text>
<text xml:space="preserve" text-anchor="start" x="43.88" y="-410.5" font-family="Helvetica,sans-Serif" font-size="10.00">startingDate</text>
<text xml:space="preserve" text-anchor="start" x="19.5" y="-394.5" font-family="Helvetica,sans-Serif" font-size="10.00">#</text>
<text xml:space="preserve" text-anchor="start" x="43.88" y="-394.5" font-family="Helvetica,sans-Serif" font-size="10.00">endingDate</text>
<text xml:space="preserve" text-anchor="start" x="19.5" y="-378.5" font-family="Helvetica,sans-Serif" font-size="10.00">#</text>
<text xml:space="preserve" text-anchor="start" x="43.88" y="-378.5" font-family="Helvetica,sans-Serif" font-size="10.00">formatter</text>
<text xml:space="preserve" text-anchor="start" x="19.12" y="-362.5" font-family="Helvetica,sans-Serif" font-size="10.00">+</text>
<text xml:space="preserve" text-anchor="start" x="43.88" y="-362.5" font-family="Helvetica,sans-Serif" font-size="10.00">StandingOrder()</text>
<text xml:space="preserve" text-anchor="start" x="19.12" y="-346.5" font-family="Helvetica,sans-Serif" font-size="10.00">+</text>
<text xml:space="preserve" text-anchor="start" x="43.88" y="-346.5" font-family="Helvetica,sans-Serif" font-size="10.00">getOrderId()</text>
<text xml:space="preserve" text-anchor="start" x="19.12" y="-330.5" font-family="Helvetica,sans-Serif" font-size="10.00">+</text>
<text xml:space="preserve" text-anchor="start" x="43.88" y="-330.5" font-family="Helvetica,sans-Serif" font-size="10.00">getTitle()</text>
<text xml:space="preserve" text-anchor="start" x="19.12" y="-314.5" font-family="Helvetica,sans-Serif" font-size="10.00">+</text>
<text xml:space="preserve" text-anchor="start" x="43.88" y="-314.5" font-family="Helvetica,sans-Serif" font-size="10.00">getDescription()</text>
<text xml:space="preserve" text-anchor="start" x="19.12" y="-298.5" font-family="Helvetica,sans-Serif" font-size="10.00">+</text>
<text xml:space="preserve" text-anchor="start" x="43.88" y="-298.5" font-family="Helvetica,sans-Serif" font-size="10.00">getIsActive()</text>
<text xml:space="preserve" text-anchor="start" x="19.12" y="-282.5" font-family="Helvetica,sans-Serif" font-size="10.00">+</text>
<text xml:space="preserve" text-anchor="start" x="43.88" y="-282.5" font-family="Helvetica,sans-Serif" font-size="10.00">setIsActive()</text>
<text xml:space="preserve" text-anchor="start" x="19.12" y="-266.5" font-family="Helvetica,sans-Serif" font-size="10.00">+</text>
<text xml:space="preserve" text-anchor="start" x="43.88" y="-266.5" font-family="Helvetica,sans-Serif" font-size="10.00">getStartingDate()</text>
<text xml:space="preserve" text-anchor="start" x="19.12" y="-250.5" font-family="Helvetica,sans-Serif" font-size="10.00">+</text>
<text xml:space="preserve" text-anchor="start" x="43.88" y="-250.5" font-family="Helvetica,sans-Serif" font-size="10.00">getEndingDate()</text>
<text xml:space="preserve" text-anchor="start" x="19.12" y="-234.5" font-family="Helvetica,sans-Serif" font-size="10.00">+</text>
<text xml:space="preserve" text-anchor="start" x="43.88" y="-234.5" font-family="Helvetica,sans-Serif" font-size="10.00">execute()</text>
<text xml:space="preserve" text-anchor="start" x="19.12" y="-218.5" font-family="Helvetica,sans-Serif" font-size="10.00">+</text>
<text xml:space="preserve" text-anchor="start" x="43.88" y="-218.5" font-family="Helvetica,sans-Serif" font-size="10.00">marshal()</text>
<text xml:space="preserve" text-anchor="start" x="19.12" y="-202.5" font-family="Helvetica,sans-Serif" font-size="10.00">+</text>
<text xml:space="preserve" text-anchor="start" x="43.88" y="-202.5" font-family="Helvetica,sans-Serif" font-size="10.00">unmarshal()</text>
<text xml:space="preserve" text-anchor="start" x="19.12" y="-186.5" font-family="Helvetica,sans-Serif" font-size="10.00">+</text>
<text xml:space="preserve" text-anchor="start" x="43.88" y="-186.5" font-family="Helvetica,sans-Serif" font-size="10.00">isExpired()</text>
<text xml:space="preserve" text-anchor="start" x="19.12" y="-170.5" font-family="Helvetica,sans-Serif" font-size="10.00">+</text>
<text xml:space="preserve" text-anchor="start" x="43.88" y="-170.5" font-family="Helvetica,sans-Serif" font-size="10.00">isFailed()</text>
<polygon fill="#666666" stroke="#666666" points="0.38,-486 0.38,-486 151.62,-486 151.62,-486 0.38,-486"/>
<polygon fill="#666666" stroke="#666666" points="0.38,-374 0.38,-374 41.88,-374 41.88,-374 0.38,-374"/>
<polygon fill="#666666" stroke="#666666" points="41.88,-374 41.88,-374 151.62,-374 151.62,-374 41.88,-374"/>
<polygon fill="none" stroke="#666666" points="0.38,-164 0.38,-516 151.62,-516 151.62,-164 0.38,-164"/>
</a>
</g>
</g>
<!-- Node2&#45;&gt;Node1 -->
<g id="edge1_Node000001_Node000002" class="edge">
<title>Node2&#45;&gt;Node1</title>
<g id="a_edge1_Node000001_Node000002"><a xlink:title=" ">
<path fill="none" stroke="#63b8ff" d="M76,-153.02C76,-144.22 76,-135.74 76,-127.74"/>
<polygon fill="none" stroke="#63b8ff" points="72.5,-152.79 76,-162.79 79.5,-152.79 72.5,-152.79"/>
</a>
</g>
</g>
<!-- Node3 -->
<g id="Node000003" class="node">
<title>Node3</title>
<g id="a_Node000003"><a xlink:href="../../dd/d8c/interfacecom_1_1bank_1_1storage_1_1_storable.html" target="_top" xlink:title="Defines the serialization and deserialization behavior for persistent objects.">
<polygon fill="white" stroke="none" points="138.5,-620 13.5,-620 13.5,-552 138.5,-552 138.5,-620"/>
<text xml:space="preserve" text-anchor="start" x="17.5" y="-606.5" font-family="Helvetica,sans-Serif" font-size="10.00">com.bank.storage.Storable</text>
<text xml:space="preserve" text-anchor="start" x="74.5" y="-590.5" font-family="Helvetica,sans-Serif" font-size="10.00"> </text>
<text xml:space="preserve" text-anchor="start" x="31.5" y="-574.5" font-family="Helvetica,sans-Serif" font-size="10.00">+</text>
<text xml:space="preserve" text-anchor="start" x="55.5" y="-574.5" font-family="Helvetica,sans-Serif" font-size="10.00">marshal()</text>
<text xml:space="preserve" text-anchor="start" x="31.5" y="-558.5" font-family="Helvetica,sans-Serif" font-size="10.00">+</text>
<text xml:space="preserve" text-anchor="start" x="55.5" y="-558.5" font-family="Helvetica,sans-Serif" font-size="10.00">unmarshal()</text>
<polygon fill="#666666" stroke="#666666" points="13.5,-602 13.5,-602 138.5,-602 138.5,-602 13.5,-602"/>
<polygon fill="#666666" stroke="#666666" points="13.5,-586 13.5,-586 138.5,-586 138.5,-586 13.5,-586"/>
<polygon fill="none" stroke="#666666" points="13.5,-552 13.5,-620 138.5,-620 138.5,-552 13.5,-552"/>
</a>
</g>
</g>
<!-- Node3&#45;&gt;Node2 -->
<g id="edge2_Node000002_Node000003" class="edge">
<title>Node3&#45;&gt;Node2</title>
<g id="a_edge2_Node000002_Node000003"><a xlink:title=" ">
<path fill="none" stroke="#63b8ff" d="M76,-540.65C76,-532.97 76,-524.6 76,-515.77"/>
<polygon fill="none" stroke="#63b8ff" points="72.5,-540.58 76,-550.58 79.5,-540.58 72.5,-540.58"/>
</a>
</g>
</g>
</g>
</svg>

<g id="navigator" transform="translate(0 0)" fill="#404254">
  <rect fill="#f2f5e9" fill-opacity="0.5" stroke="#606060" stroke-width=".5" x="0" y="0" width="60" height="60"/>
  <use id="zoomplus" xlink:href="#zoomPlus" x="17" y="9" onmousedown="handleZoom(evt,'in')"/>
  <use id="zoomminus" xlink:href="#zoomMin" x="42" y="9" onmousedown="handleZoom(evt,'out')"/>
  <use id="reset" xlink:href="#resetDef" x="30" y="36" onmousedown="handleReset()"/>
   <use id="arrowup" xlink:href="#arrowUp" x="0" y="0" onmousedown="handlePan(0,-1)"/>
  <use id="arrowright" xlink:href="#arrowRight" x="0" y="0" onmousedown="handlePan(1,0)"/>
  <use id="arrowdown" xlink:href="#arrowDown" x="0" y="0" onmousedown="handlePan(0,1)"/>
  <use id="arrowleft" xlink:href="#arrowLeft" x="0" y="0" onmousedown="handlePan(-1,0)"/>
</g>
<svg viewBox="0 0 15 15" width="100%" height="30px" preserveAspectRatio="xMaxYMin meet">
 <g id="arrow_out" transform="scale(0.3 0.3)">
  <a xlink:href="classcom_1_1bank_1_1model_1_1orders_1_1_payment_order__inherit__graph_org.svg" target="_base">
   <rect id="button" ry="5" rx="5" y="6" x="6" height="38" width="38"
        fill="#f2f5e9" fill-opacity="0.5" stroke="#606060" stroke-width="1.0"/>
   <path id="arrow"
     d="M 11.500037,31.436501 C 11.940474,20.09759 22.043105,11.32322 32.158766,21.979434 L 37.068811,17.246167 C 37.068811,17.246167 37.088388,32 37.088388,32 L 22.160133,31.978069 C 22.160133,31.978069 26.997745,27.140456 26.997745,27.140456 C 18.528582,18.264221 13.291696,25.230495 11.500037,31.436501 z"
     style="fill:#404040;"/>
  </a>
 </g>
</svg>

<style type='text/css'>
<![CDATA[
[data-mouse-over-selected='false'] { opacity: 0.7; }
[data-mouse-over-selected='true']  { opacity: 1.0; }
]]>
</style>
<script type="application/ecmascript"><![CDATA[
document.addEventListener('DOMContentLoaded', (event) => {
  highlightEdges();
  highlightAdjacentNodes();
});
]]></script>
</svg>
