<?xml version="1.0" encoding="UTF-8" standalone="no"?>
<!DOCTYPE svg PUBLIC "-//W3C//DTD SVG 1.1//EN"
 "http://www.w3.org/Graphics/SVG/1.1/DTD/svg11.dtd">
<!-- Generated by graphviz version 14.0.1 (20251006.0113)
 -->
<!-- Title: com.bank.manager.BillManager.payBill Pages: 1 -->
<svg width="418pt" height="116pt"
 viewBox="0.00 0.00 418.00 116.00" xmlns="http://www.w3.org/2000/svg" xmlns:xlink="http://www.w3.org/1999/xlink">
<g id="graph0" class="graph" transform="scale(1 1) rotate(0) translate(4 112)">
<title>com.bank.manager.BillManager.payBill</title>
<!-- Node1 -->
<g id="Node000001" class="node">
<title>Node1</title>
<g id="a_Node000001"><a xlink:title="Marks a bill as paid and persists updates.">
<polygon fill="#999999" stroke="#666666" points="185.5,-58 0,-58 0,-38 185.5,-38 185.5,-58"/>
<text xml:space="preserve" text-anchor="middle" x="92.75" y="-44.5" font-family="Helvetica,sans-Serif" font-size="10.00">com.bank.manager.BillManager.payBill</text>
</a>
</g>
</g>
<!-- Node2 -->
<g id="Node000002" class="node">
<title>Node2</title>
<g id="a_Node000002"><a xlink:href="../../d3/dd4/classcom_1_1bank_1_1model_1_1bills_1_1_bill.html#a73882163a2347d97e6d532096d4c2312" target="_top" xlink:title=" ">
<polygon fill="white" stroke="#666666" points="386.38,-108 245.12,-108 245.12,-76 386.38,-76 386.38,-108"/>
<text xml:space="preserve" text-anchor="start" x="253.12" y="-94.5" font-family="Helvetica,sans-Serif" font-size="10.00">com.bank.model.bills.Bill.get</text>
<text xml:space="preserve" text-anchor="middle" x="315.75" y="-82.5" font-family="Helvetica,sans-Serif" font-size="10.00">PaymentCode</text>
</a>
</g>
</g>
<!-- Node1&#45;&gt;Node2 -->
<g id="edge1_Node000001_Node000002" class="edge">
<title>Node1&#45;&gt;Node2</title>
<g id="a_edge1_Node000001_Node000002"><a xlink:title=" ">
<path fill="none" stroke="#63b8ff" d="M146.4,-58.48C172.56,-63.69 204.73,-70.09 233.91,-75.91"/>
<polygon fill="#63b8ff" stroke="#63b8ff" points="232.96,-79.28 243.45,-77.8 234.33,-72.42 232.96,-79.28"/>
</a>
</g>
</g>
<!-- Node3 -->
<g id="Node000003" class="node">
<title>Node3</title>
<g id="a_Node000003"><a xlink:href="../../dc/d48/classcom_1_1bank_1_1manager_1_1_bill_manager.html#ae8eda57edbba75f404b5053d0f1a240f" target="_top" xlink:title="Persists in&#45;memory issued &amp; paid lists to global ledgers.">
<polygon fill="white" stroke="#666666" points="410,-58 221.5,-58 221.5,-38 410,-38 410,-58"/>
<text xml:space="preserve" text-anchor="middle" x="315.75" y="-44.5" font-family="Helvetica,sans-Serif" font-size="10.00">com.bank.manager.BillManager.saveAll</text>
</a>
</g>
</g>
<!-- Node1&#45;&gt;Node3 -->
<g id="edge2_Node000001_Node000003" class="edge">
<title>Node1&#45;&gt;Node3</title>
<g id="a_edge2_Node000001_Node000003"><a xlink:title=" ">
<path fill="none" stroke="#63b8ff" d="M185.87,-48C193.84,-48 201.94,-48 210,-48"/>
<polygon fill="#63b8ff" stroke="#63b8ff" points="209.84,-51.5 219.84,-48 209.84,-44.5 209.84,-51.5"/>
</a>
</g>
</g>
<!-- Node4 -->
<g id="Node000004" class="node">
<title>Node4</title>
<g id="a_Node000004"><a xlink:href="../../d3/dd4/classcom_1_1bank_1_1model_1_1bills_1_1_bill.html#a0d03ed4f25d34f88efec757d7f88a348" target="_top" xlink:title=" ">
<polygon fill="white" stroke="#666666" points="396.12,-20 235.38,-20 235.38,0 396.12,0 396.12,-20"/>
<text xml:space="preserve" text-anchor="middle" x="315.75" y="-6.5" font-family="Helvetica,sans-Serif" font-size="10.00">com.bank.model.bills.Bill.setPaid</text>
</a>
</g>
</g>
<!-- Node1&#45;&gt;Node4 -->
<g id="edge3_Node000001_Node000004" class="edge">
<title>Node1&#45;&gt;Node4</title>
<g id="a_edge3_Node000001_Node000004"><a xlink:title=" ">
<path fill="none" stroke="#63b8ff" d="M154.72,-37.52C182.02,-32.82 214.4,-27.26 242.87,-22.36"/>
<polygon fill="#63b8ff" stroke="#63b8ff" points="243.22,-25.85 252.48,-20.71 242.03,-18.95 243.22,-25.85"/>
</a>
</g>
</g>
</g>
</svg>
