<?xml version="1.0" encoding="UTF-8" standalone="no"?>
<!DOCTYPE svg PUBLIC "-//W3C//DTD SVG 1.1//EN"
 "http://www.w3.org/Graphics/SVG/1.1/DTD/svg11.dtd">
<!-- Generated by graphviz version 14.0.1 (20251006.0113)
 -->
<!-- Title: com.bank.manager.BillManager.saveAll Pages: 1 -->
<svg width="631pt" height="154pt"
 viewBox="0.00 0.00 631.00 154.00" xmlns="http://www.w3.org/2000/svg" xmlns:xlink="http://www.w3.org/1999/xlink">
<g id="graph0" class="graph" transform="scale(1 1) rotate(0) translate(4 150)">
<title>com.bank.manager.BillManager.saveAll</title>
<!-- Node1 -->
<g id="Node000001" class="node">
<title>Node1</title>
<g id="a_Node000001"><a xlink:title="Persists in&#45;memory issued &amp; paid lists to global ledgers.">
<polygon fill="#999999" stroke="#666666" points="622.5,-77 434,-77 434,-57 622.5,-57 622.5,-77"/>
<text xml:space="preserve" text-anchor="middle" x="528.25" y="-63.5" font-family="Helvetica,sans-Serif" font-size="10.00">com.bank.manager.BillManager.saveAll</text>
</a>
</g>
</g>
<!-- Node2 -->
<g id="Node000002" class="node">
<title>Node2</title>
<g id="a_Node000002"><a xlink:href="../../dd/d30/classcom_1_1bank_1_1gui_1_1view_1_1panel_1_1_admin_pay_bill_panel.html#a973563a6943f3648632453279e518cb1" target="_top" xlink:title="Δημιουργεί το panel πληρωμής λογαριασμού από Admin.">
<polygon fill="white" stroke="#666666" points="392.38,-146 206.88,-146 206.88,-114 392.38,-114 392.38,-146"/>
<text xml:space="preserve" text-anchor="start" x="214.88" y="-132.5" font-family="Helvetica,sans-Serif" font-size="10.00">com.bank.gui.view.panel.</text>
<text xml:space="preserve" text-anchor="middle" x="299.62" y="-120.5" font-family="Helvetica,sans-Serif" font-size="10.00">AdminPayBillPanel.AdminPayBillPanel</text>
</a>
</g>
</g>
<!-- Node1&#45;&gt;Node2 -->
<g id="edge1_Node000001_Node000002" class="edge">
<title>Node1&#45;&gt;Node2</title>
<g id="a_edge1_Node000001_Node000002"><a xlink:title=" ">
<path fill="none" stroke="#63b8ff" d="M478.72,-80.49C443.88,-90.18 396.74,-103.28 359.71,-113.58"/>
<polygon fill="#63b8ff" stroke="#63b8ff" points="479.42,-83.93 488.11,-77.88 477.54,-77.19 479.42,-83.93"/>
</a>
</g>
</g>
<!-- Node3 -->
<g id="Node000003" class="node">
<title>Node3</title>
<g id="a_Node000003"><a xlink:href="../../d1/d1f/classcom_1_1bank_1_1gui_1_1view_1_1panel_1_1_company_issue_bill_panel.html#a645fecb7696c87072389cb264b36bd77" target="_top" xlink:title="Δημιουργεί panel έκδοσης λογαριασμού για εταιρικό χρήστη.">
<polygon fill="white" stroke="#666666" points="165.25,-89 0,-89 0,-45 165.25,-45 165.25,-89"/>
<text xml:space="preserve" text-anchor="start" x="8" y="-75.5" font-family="Helvetica,sans-Serif" font-size="10.00">com.bank.gui.view.panel.</text>
<text xml:space="preserve" text-anchor="start" x="8" y="-63.5" font-family="Helvetica,sans-Serif" font-size="10.00">CompanyIssueBillPanel.Company</text>
<text xml:space="preserve" text-anchor="middle" x="82.62" y="-51.5" font-family="Helvetica,sans-Serif" font-size="10.00">IssueBillPanel</text>
</a>
</g>
</g>
<!-- Node1&#45;&gt;Node3 -->
<g id="edge2_Node000001_Node000003" class="edge">
<title>Node1&#45;&gt;Node3</title>
<g id="a_edge2_Node000001_Node000003"><a xlink:title=" ">
<path fill="none" stroke="#63b8ff" d="M422.33,-67C343.77,-67 237.83,-67 165.48,-67"/>
<polygon fill="#63b8ff" stroke="#63b8ff" points="422.2,-70.5 432.2,-67 422.2,-63.5 422.2,-70.5"/>
</a>
</g>
</g>
<!-- Node4 -->
<g id="Node000004" class="node">
<title>Node4</title>
<g id="a_Node000004"><a xlink:href="../../dc/d48/classcom_1_1bank_1_1manager_1_1_bill_manager.html#abff1fcc6244988c55e92bb56be27ecae" target="_top" xlink:title="Issues (creates or replaces) a bill and persists it.">
<polygon fill="white" stroke="#666666" points="398,-58 201.25,-58 201.25,-38 398,-38 398,-58"/>
<text xml:space="preserve" text-anchor="middle" x="299.62" y="-44.5" font-family="Helvetica,sans-Serif" font-size="10.00">com.bank.manager.BillManager.createBill</text>
</a>
</g>
</g>
<!-- Node1&#45;&gt;Node4 -->
<g id="edge3_Node000001_Node000004" class="edge">
<title>Node1&#45;&gt;Node4</title>
<g id="a_edge3_Node000001_Node000004"><a xlink:title=" ">
<path fill="none" stroke="#63b8ff" d="M422.44,-58.21C414.4,-57.54 406.29,-56.86 398.3,-56.19"/>
<polygon fill="#63b8ff" stroke="#63b8ff" points="422,-61.69 432.26,-59.04 422.58,-54.71 422,-61.69"/>
</a>
</g>
</g>
<!-- Node5 -->
<g id="Node000005" class="node">
<title>Node5</title>
<g id="a_Node000005"><a xlink:href="../../dc/d48/classcom_1_1bank_1_1manager_1_1_bill_manager.html#abe21beb814dcc20d159493f761fff0f7" target="_top" xlink:title="Marks a bill as paid and persists updates.">
<polygon fill="white" stroke="#666666" points="392.38,-20 206.88,-20 206.88,0 392.38,0 392.38,-20"/>
<text xml:space="preserve" text-anchor="middle" x="299.62" y="-6.5" font-family="Helvetica,sans-Serif" font-size="10.00">com.bank.manager.BillManager.payBill</text>
</a>
</g>
</g>
<!-- Node1&#45;&gt;Node5 -->
<g id="edge5_Node000001_Node000005" class="edge">
<title>Node1&#45;&gt;Node5</title>
<g id="a_edge5_Node000001_Node000005"><a xlink:title=" ">
<path fill="none" stroke="#63b8ff" d="M483.88,-53.15C458.91,-45.45 426.87,-36.04 398,-29 385.45,-25.94 371.9,-23.04 359,-20.47"/>
<polygon fill="#63b8ff" stroke="#63b8ff" points="482.78,-56.47 493.36,-56.1 484.85,-49.79 482.78,-56.47"/>
</a>
</g>
</g>
<!-- Node4&#45;&gt;Node3 -->
<g id="edge4_Node000004_Node000003" class="edge">
<title>Node4&#45;&gt;Node3</title>
<g id="a_edge4_Node000004_Node000003"><a xlink:title=" ">
<path fill="none" stroke="#63b8ff" d="M189.55,-57.64C181.53,-58.35 173.52,-59.06 165.7,-59.75"/>
<polygon fill="#63b8ff" stroke="#63b8ff" points="189.72,-61.14 199.37,-56.77 189.1,-54.17 189.72,-61.14"/>
</a>
</g>
</g>
</g>
</svg>
