<?xml version="1.0" encoding="UTF-8" standalone="no"?>
<!DOCTYPE svg PUBLIC "-//W3C//DTD SVG 1.1//EN"
 "http://www.w3.org/Graphics/SVG/1.1/DTD/svg11.dtd">
<!-- Generated by graphviz version 14.0.1 (20251006.0113)
 -->
<!-- Title: com.bank.manager.BillManager.getAllBills Pages: 1 -->
<svg width="611pt" height="214pt"
 viewBox="0.00 0.00 611.00 214.00" xmlns="http://www.w3.org/2000/svg" xmlns:xlink="http://www.w3.org/1999/xlink">
<g id="graph0" class="graph" transform="scale(1 1) rotate(0) translate(4 210)">
<title>com.bank.manager.BillManager.getAllBills</title>
<!-- Node1 -->
<g id="Node000001" class="node">
<title>Node1</title>
<g id="a_Node000001"><a xlink:title="Returns all bills (issued + paid).">
<polygon fill="#999999" stroke="#666666" points="603,-138 433.25,-138 433.25,-106 603,-106 603,-138"/>
<text xml:space="preserve" text-anchor="start" x="441.25" y="-124.5" font-family="Helvetica,sans-Serif" font-size="10.00">com.bank.manager.BillManager.get</text>
<text xml:space="preserve" text-anchor="middle" x="518.12" y="-112.5" font-family="Helvetica,sans-Serif" font-size="10.00">AllBills</text>
</a>
</g>
</g>
<!-- Node2 -->
<g id="Node000002" class="node">
<title>Node2</title>
<g id="a_Node000002"><a xlink:href="../../d3/db4/classcom_1_1bank_1_1gui_1_1view_1_1panel_1_1_company_issued_bills_panel.html#ade98d2b70624a38a7da8d9724c6a2dd3" target="_top" xlink:title="Δημιουργεί panel για εμφάνιση εκδομένων λογαριασμών μιας εταιρείας.">
<polygon fill="white" stroke="#666666" points="397.25,-206 221.5,-206 221.5,-162 397.25,-162 397.25,-206"/>
<text xml:space="preserve" text-anchor="start" x="229.5" y="-192.5" font-family="Helvetica,sans-Serif" font-size="10.00">com.bank.gui.view.panel.</text>
<text xml:space="preserve" text-anchor="start" x="229.5" y="-180.5" font-family="Helvetica,sans-Serif" font-size="10.00">CompanyIssuedBillsPanel.Company</text>
<text xml:space="preserve" text-anchor="middle" x="309.38" y="-168.5" font-family="Helvetica,sans-Serif" font-size="10.00">IssuedBillsPanel</text>
</a>
</g>
</g>
<!-- Node1&#45;&gt;Node2 -->
<g id="edge1_Node000001_Node000002" class="edge">
<title>Node1&#45;&gt;Node2</title>
<g id="a_edge1_Node000001_Node000002"><a xlink:title=" ">
<path fill="none" stroke="#63b8ff" d="M451.5,-141.68C430.46,-147.99 407,-155.02 385.35,-161.52"/>
<polygon fill="#63b8ff" stroke="#63b8ff" points="452.24,-145.11 460.81,-138.89 450.23,-138.41 452.24,-145.11"/>
</a>
</g>
</g>
<!-- Node3 -->
<g id="Node000003" class="node">
<title>Node3</title>
<g id="a_Node000003"><a xlink:href="../../d0/d3c/classcom_1_1bank_1_1gui_1_1view_1_1panel_1_1_company_paid_bills_panel.html#a61f72b187b801db000f5cadfa7ecf30f" target="_top" xlink:title="Δημιουργεί panel εμφάνισης εξοφλημένων λογαριασμών εταιρείας.">
<polygon fill="white" stroke="#666666" points="392.38,-144 226.38,-144 226.38,-100 392.38,-100 392.38,-144"/>
<text xml:space="preserve" text-anchor="start" x="234.38" y="-130.5" font-family="Helvetica,sans-Serif" font-size="10.00">com.bank.gui.view.panel.</text>
<text xml:space="preserve" text-anchor="start" x="234.38" y="-118.5" font-family="Helvetica,sans-Serif" font-size="10.00">CompanyPaidBillsPanel.Company</text>
<text xml:space="preserve" text-anchor="middle" x="309.38" y="-106.5" font-family="Helvetica,sans-Serif" font-size="10.00">PaidBillsPanel</text>
</a>
</g>
</g>
<!-- Node1&#45;&gt;Node3 -->
<g id="edge2_Node000001_Node000003" class="edge">
<title>Node1&#45;&gt;Node3</title>
<g id="a_edge2_Node000001_Node000003"><a xlink:title=" ">
<path fill="none" stroke="#63b8ff" d="M421.72,-122C412.03,-122 402.25,-122 392.72,-122"/>
<polygon fill="#63b8ff" stroke="#63b8ff" points="421.52,-125.5 431.52,-122 421.52,-118.5 421.52,-125.5"/>
</a>
</g>
</g>
<!-- Node4 -->
<g id="Node000004" class="node">
<title>Node4</title>
<g id="a_Node000004"><a xlink:href="../../dc/d48/classcom_1_1bank_1_1manager_1_1_bill_manager.html#a9e1ae7cd2460652d88fd043dca6d4dc5" target="_top" xlink:title="Finds a bill by its RF/paymentCode among all bills.">
<polygon fill="white" stroke="#666666" points="394.25,-82 224.5,-82 224.5,-50 394.25,-50 394.25,-82"/>
<text xml:space="preserve" text-anchor="start" x="232.5" y="-68.5" font-family="Helvetica,sans-Serif" font-size="10.00">com.bank.manager.BillManager.get</text>
<text xml:space="preserve" text-anchor="middle" x="309.38" y="-56.5" font-family="Helvetica,sans-Serif" font-size="10.00">BillByRF</text>
</a>
</g>
</g>
<!-- Node1&#45;&gt;Node4 -->
<g id="edge3_Node000001_Node000004" class="edge">
<title>Node1&#45;&gt;Node4</title>
<g id="a_edge3_Node000001_Node000004"><a xlink:title=" ">
<path fill="none" stroke="#63b8ff" d="M445.31,-102.55C421.15,-96 394.44,-88.77 371.21,-82.48"/>
<polygon fill="#63b8ff" stroke="#63b8ff" points="444.18,-105.87 454.75,-105.11 446.01,-99.11 444.18,-105.87"/>
</a>
</g>
</g>
<!-- Node5 -->
<g id="Node000005" class="node">
<title>Node5</title>
<g id="a_Node000005"><a xlink:href="../../dd/d30/classcom_1_1bank_1_1gui_1_1view_1_1panel_1_1_admin_pay_bill_panel.html#a973563a6943f3648632453279e518cb1" target="_top" xlink:title="Δημιουργεί το panel πληρωμής λογαριασμού από Admin.">
<polygon fill="white" stroke="#666666" points="185.5,-132 0,-132 0,-100 185.5,-100 185.5,-132"/>
<text xml:space="preserve" text-anchor="start" x="8" y="-118.5" font-family="Helvetica,sans-Serif" font-size="10.00">com.bank.gui.view.panel.</text>
<text xml:space="preserve" text-anchor="middle" x="92.75" y="-106.5" font-family="Helvetica,sans-Serif" font-size="10.00">AdminPayBillPanel.AdminPayBillPanel</text>
</a>
</g>
</g>
<!-- Node4&#45;&gt;Node5 -->
<g id="edge4_Node000004_Node000005" class="edge">
<title>Node4&#45;&gt;Node5</title>
<g id="a_edge4_Node000004_Node000005"><a xlink:title=" ">
<path fill="none" stroke="#63b8ff" d="M226.86,-84.99C206.28,-89.78 184.36,-94.89 164.37,-99.55"/>
<polygon fill="#63b8ff" stroke="#63b8ff" points="227.38,-88.46 236.33,-82.78 225.79,-81.64 227.38,-88.46"/>
</a>
</g>
</g>
<!-- Node6 -->
<g id="Node000006" class="node">
<title>Node6</title>
<g id="a_Node000006"><a xlink:href="../../dc/d2a/classcom_1_1bank_1_1model_1_1orders_1_1_payment_order.html#a439eabdedf52f8c33708338984440c6e" target="_top" xlink:title="Executes the payment order on the specified payment day.">
<polygon fill="white" stroke="#666666" points="172.75,-82 12.75,-82 12.75,-50 172.75,-50 172.75,-82"/>
<text xml:space="preserve" text-anchor="start" x="20.75" y="-68.5" font-family="Helvetica,sans-Serif" font-size="10.00">com.bank.model.orders.Payment</text>
<text xml:space="preserve" text-anchor="middle" x="92.75" y="-56.5" font-family="Helvetica,sans-Serif" font-size="10.00">Order.execute</text>
</a>
</g>
</g>
<!-- Node4&#45;&gt;Node6 -->
<g id="edge5_Node000004_Node000006" class="edge">
<title>Node4&#45;&gt;Node6</title>
<g id="a_edge5_Node000004_Node000006"><a xlink:title=" ">
<path fill="none" stroke="#63b8ff" d="M213.05,-66C199.72,-66 186.15,-66 173.16,-66"/>
<polygon fill="#63b8ff" stroke="#63b8ff" points="212.65,-69.5 222.65,-66 212.65,-62.5 212.65,-69.5"/>
</a>
</g>
</g>
<!-- Node7 -->
<g id="Node000007" class="node">
<title>Node7</title>
<g id="a_Node000007"><a xlink:href="../../dc/dd6/classcom_1_1bank_1_1gui_1_1view_1_1panel_1_1_pay_bill_panel.html#a36e2af99e6d3c4df782013e94e77f6a4" target="_top" xlink:title="Δημιουργεί panel για πληρωμή λογαριασμού με RF code.">
<polygon fill="white" stroke="#666666" points="157.75,-32 27.75,-32 27.75,0 157.75,0 157.75,-32"/>
<text xml:space="preserve" text-anchor="start" x="35.75" y="-18.5" font-family="Helvetica,sans-Serif" font-size="10.00">com.bank.gui.view.panel.</text>
<text xml:space="preserve" text-anchor="middle" x="92.75" y="-6.5" font-family="Helvetica,sans-Serif" font-size="10.00">PayBillPanel.PayBillPanel</text>
</a>
</g>
</g>
<!-- Node4&#45;&gt;Node7 -->
<g id="edge6_Node000004_Node000007" class="edge">
<title>Node4&#45;&gt;Node7</title>
<g id="a_edge6_Node000004_Node000007"><a xlink:title=" ">
<path fill="none" stroke="#63b8ff" d="M226.81,-47C204.11,-41.71 179.77,-36.04 158.2,-31.01"/>
<polygon fill="#63b8ff" stroke="#63b8ff" points="225.79,-50.36 236.33,-49.22 227.38,-43.54 225.79,-50.36"/>
</a>
</g>
</g>
</g>
</svg>
