<?xml version="1.0" encoding="UTF-8" standalone="no"?>
<!DOCTYPE svg PUBLIC "-//W3C//DTD SVG 1.1//EN"
 "http://www.w3.org/Graphics/SVG/1.1/DTD/svg11.dtd">
<!-- Generated by graphviz version 14.0.1 (20251006.0113)
 -->
<!-- Title: com.bank.manager.BillManager.BillManager Pages: 1 -->
<svg width="571pt" height="78pt"
 viewBox="0.00 0.00 571.00 78.00" xmlns="http://www.w3.org/2000/svg" xmlns:xlink="http://www.w3.org/1999/xlink">
<g id="graph0" class="graph" transform="scale(1 1) rotate(0) translate(4 74)">
<title>com.bank.manager.BillManager.BillManager</title>
<!-- Node1 -->
<g id="Node000001" class="node">
<title>Node1</title>
<g id="a_Node000001"><a xlink:title="Constructs the manager and loads persisted state.">
<polygon fill="#999999" stroke="#666666" points="156.25,-48 0,-48 0,-16 156.25,-16 156.25,-48"/>
<text xml:space="preserve" text-anchor="start" x="8" y="-34.5" font-family="Helvetica,sans-Serif" font-size="10.00">com.bank.manager.BillManager.</text>
<text xml:space="preserve" text-anchor="middle" x="78.12" y="-22.5" font-family="Helvetica,sans-Serif" font-size="10.00">BillManager</text>
</a>
</g>
</g>
<!-- Node2 -->
<g id="Node000002" class="node">
<title>Node2</title>
<g id="a_Node000002"><a xlink:href="../../dc/d48/classcom_1_1bank_1_1manager_1_1_bill_manager.html#a0a16b9f5e89eb52128535fa13f8e558f" target="_top" xlink:title="Loads bills from global ledgers and daily files; rebuilds in&#45;memory state.">
<polygon fill="white" stroke="#666666" points="366.5,-48 192.25,-48 192.25,-16 366.5,-16 366.5,-48"/>
<text xml:space="preserve" text-anchor="start" x="200.25" y="-34.5" font-family="Helvetica,sans-Serif" font-size="10.00">com.bank.manager.BillManager.load</text>
<text xml:space="preserve" text-anchor="middle" x="279.38" y="-22.5" font-family="Helvetica,sans-Serif" font-size="10.00">Bills</text>
</a>
</g>
</g>
<!-- Node1&#45;&gt;Node2 -->
<g id="edge1_Node000001_Node000002" class="edge">
<title>Node1&#45;&gt;Node2</title>
<g id="a_edge1_Node000001_Node000002"><a xlink:title=" ">
<path fill="none" stroke="#63b8ff" d="M156.73,-32C164.6,-32 172.67,-32 180.72,-32"/>
<polygon fill="#63b8ff" stroke="#63b8ff" points="180.55,-35.5 190.55,-32 180.55,-28.5 180.55,-35.5"/>
</a>
</g>
</g>
<!-- Node3 -->
<g id="Node000003" class="node">
<title>Node3</title>
<g id="a_Node000003"><a xlink:href="../../d3/dd4/classcom_1_1bank_1_1model_1_1bills_1_1_bill.html#a73882163a2347d97e6d532096d4c2312" target="_top" xlink:title=" ">
<polygon fill="white" stroke="#666666" points="553.5,-70 412.25,-70 412.25,-38 553.5,-38 553.5,-70"/>
<text xml:space="preserve" text-anchor="start" x="420.25" y="-56.5" font-family="Helvetica,sans-Serif" font-size="10.00">com.bank.model.bills.Bill.get</text>
<text xml:space="preserve" text-anchor="middle" x="482.88" y="-44.5" font-family="Helvetica,sans-Serif" font-size="10.00">PaymentCode</text>
</a>
</g>
</g>
<!-- Node2&#45;&gt;Node3 -->
<g id="edge2_Node000002_Node000003" class="edge">
<title>Node2&#45;&gt;Node3</title>
<g id="a_edge2_Node000002_Node000003"><a xlink:title=" ">
<path fill="none" stroke="#63b8ff" d="M367,-41.46C378.16,-42.68 389.56,-43.92 400.63,-45.13"/>
<polygon fill="#63b8ff" stroke="#63b8ff" points="400.2,-48.6 410.52,-46.21 400.96,-41.64 400.2,-48.6"/>
</a>
</g>
</g>
<!-- Node4 -->
<g id="Node000004" class="node">
<title>Node4</title>
<g id="a_Node000004"><a xlink:href="../../d3/dd4/classcom_1_1bank_1_1model_1_1bills_1_1_bill.html#a0d03ed4f25d34f88efec757d7f88a348" target="_top" xlink:title=" ">
<polygon fill="white" stroke="#666666" points="563.25,-20 402.5,-20 402.5,0 563.25,0 563.25,-20"/>
<text xml:space="preserve" text-anchor="middle" x="482.88" y="-6.5" font-family="Helvetica,sans-Serif" font-size="10.00">com.bank.model.bills.Bill.setPaid</text>
</a>
</g>
</g>
<!-- Node2&#45;&gt;Node4 -->
<g id="edge3_Node000002_Node000004" class="edge">
<title>Node2&#45;&gt;Node4</title>
<g id="a_edge3_Node000002_Node000004"><a xlink:title=" ">
<path fill="none" stroke="#63b8ff" d="M367,-22.54C374.81,-21.69 382.74,-20.82 390.59,-19.97"/>
<polygon fill="#63b8ff" stroke="#63b8ff" points="390.95,-23.45 400.51,-18.88 390.19,-16.49 390.95,-23.45"/>
</a>
</g>
</g>
</g>
</svg>
