<?xml version="1.0" encoding="UTF-8" standalone="no"?>
<!DOCTYPE svg PUBLIC "-//W3C//DTD SVG 1.1//EN"
 "http://www.w3.org/Graphics/SVG/1.1/DTD/svg11.dtd">
<!-- Generated by graphviz version 14.0.1 (20251006.0113)
 -->
<!-- Title: com.bank.manager.BillManager.createBill Pages: 1 -->
<svg width="429pt" height="166pt"
 viewBox="0.00 0.00 429.00 166.00" xmlns="http://www.w3.org/2000/svg" xmlns:xlink="http://www.w3.org/1999/xlink">
<g id="graph0" class="graph" transform="scale(1 1) rotate(0) translate(4 162)">
<title>com.bank.manager.BillManager.createBill</title>
<!-- Node1 -->
<g id="Node000001" class="node">
<title>Node1</title>
<g id="a_Node000001"><a xlink:title="Issues (creates or replaces) a bill and persists it.">
<polygon fill="#999999" stroke="#666666" points="196.75,-80 0,-80 0,-60 196.75,-60 196.75,-80"/>
<text xml:space="preserve" text-anchor="middle" x="98.38" y="-66.5" font-family="Helvetica,sans-Serif" font-size="10.00">com.bank.manager.BillManager.createBill</text>
</a>
</g>
</g>
<!-- Node2 -->
<g id="Node000002" class="node">
<title>Node2</title>
<g id="a_Node000002"><a xlink:href="../../d3/dd4/classcom_1_1bank_1_1model_1_1bills_1_1_bill.html#a85e3655af649e76472f6b1f19b522ccf" target="_top" xlink:title=" ">
<polygon fill="white" stroke="#666666" points="397.62,-158 256.38,-158 256.38,-126 397.62,-126 397.62,-158"/>
<text xml:space="preserve" text-anchor="start" x="264.38" y="-144.5" font-family="Helvetica,sans-Serif" font-size="10.00">com.bank.model.bills.Bill.get</text>
<text xml:space="preserve" text-anchor="middle" x="327" y="-132.5" font-family="Helvetica,sans-Serif" font-size="10.00">IssueDate</text>
</a>
</g>
</g>
<!-- Node1&#45;&gt;Node2 -->
<g id="edge1_Node000001_Node000002" class="edge">
<title>Node1&#45;&gt;Node2</title>
<g id="a_edge1_Node000001_Node000002"><a xlink:title=" ">
<path fill="none" stroke="#63b8ff" d="M127.01,-80.44C153.84,-90.41 195.81,-105.56 232.75,-117 238.8,-118.87 245.1,-120.74 251.44,-122.56"/>
<polygon fill="#63b8ff" stroke="#63b8ff" points="250.08,-125.81 260.65,-125.16 251.98,-119.07 250.08,-125.81"/>
</a>
</g>
</g>
<!-- Node3 -->
<g id="Node000003" class="node">
<title>Node3</title>
<g id="a_Node000003"><a xlink:href="../../d3/dd4/classcom_1_1bank_1_1model_1_1bills_1_1_bill.html#a73882163a2347d97e6d532096d4c2312" target="_top" xlink:title=" ">
<polygon fill="white" stroke="#666666" points="397.62,-108 256.38,-108 256.38,-76 397.62,-76 397.62,-108"/>
<text xml:space="preserve" text-anchor="start" x="264.38" y="-94.5" font-family="Helvetica,sans-Serif" font-size="10.00">com.bank.model.bills.Bill.get</text>
<text xml:space="preserve" text-anchor="middle" x="327" y="-82.5" font-family="Helvetica,sans-Serif" font-size="10.00">PaymentCode</text>
</a>
</g>
</g>
<!-- Node1&#45;&gt;Node3 -->
<g id="edge2_Node000001_Node000003" class="edge">
<title>Node1&#45;&gt;Node3</title>
<g id="a_edge2_Node000001_Node000003"><a xlink:title=" ">
<path fill="none" stroke="#63b8ff" d="M197.13,-79.49C213.03,-81.03 229.36,-82.62 244.81,-84.12"/>
<polygon fill="#63b8ff" stroke="#63b8ff" points="244.09,-87.57 254.39,-85.05 244.77,-80.6 244.09,-87.57"/>
</a>
</g>
</g>
<!-- Node4 -->
<g id="Node000004" class="node">
<title>Node4</title>
<g id="a_Node000004"><a xlink:href="../../d3/dd4/classcom_1_1bank_1_1model_1_1bills_1_1_bill.html#a5cfd451c2f0ce7ccd05bad2dd2c1e1f0" target="_top" xlink:title="Serializes the bill to a single&#45;line key&#45;value representation.">
<polygon fill="white" stroke="#666666" points="408.12,-58 245.88,-58 245.88,-38 408.12,-38 408.12,-58"/>
<text xml:space="preserve" text-anchor="middle" x="327" y="-44.5" font-family="Helvetica,sans-Serif" font-size="10.00">com.bank.model.bills.Bill.marshal</text>
</a>
</g>
</g>
<!-- Node1&#45;&gt;Node4 -->
<g id="edge3_Node000001_Node000004" class="edge">
<title>Node1&#45;&gt;Node4</title>
<g id="a_edge3_Node000001_Node000004"><a xlink:title=" ">
<path fill="none" stroke="#63b8ff" d="M197.13,-60.51C209.51,-59.31 222.15,-58.08 234.43,-56.89"/>
<polygon fill="#63b8ff" stroke="#63b8ff" points="234.47,-60.4 244.08,-55.95 233.79,-53.44 234.47,-60.4"/>
</a>
</g>
</g>
<!-- Node5 -->
<g id="Node000005" class="node">
<title>Node5</title>
<g id="a_Node000005"><a xlink:href="../../dc/d48/classcom_1_1bank_1_1manager_1_1_bill_manager.html#ae8eda57edbba75f404b5053d0f1a240f" target="_top" xlink:title="Persists in&#45;memory issued &amp; paid lists to global ledgers.">
<polygon fill="white" stroke="#666666" points="421.25,-20 232.75,-20 232.75,0 421.25,0 421.25,-20"/>
<text xml:space="preserve" text-anchor="middle" x="327" y="-6.5" font-family="Helvetica,sans-Serif" font-size="10.00">com.bank.manager.BillManager.saveAll</text>
</a>
</g>
</g>
<!-- Node1&#45;&gt;Node5 -->
<g id="edge4_Node000001_Node000005" class="edge">
<title>Node1&#45;&gt;Node5</title>
<g id="a_edge4_Node000001_Node000005"><a xlink:title=" ">
<path fill="none" stroke="#63b8ff" d="M130.39,-59.53C157.27,-50.68 197.3,-38.04 232.75,-29 241.19,-26.85 250.11,-24.78 258.96,-22.84"/>
<polygon fill="#63b8ff" stroke="#63b8ff" points="259.55,-26.3 268.6,-20.79 258.09,-19.45 259.55,-26.3"/>
</a>
</g>
</g>
</g>
</svg>
