<?xml version="1.0" encoding="UTF-8" standalone="no"?>
<!DOCTYPE svg PUBLIC "-//W3C//DTD SVG 1.1//EN"
 "http://www.w3.org/Graphics/SVG/1.1/DTD/svg11.dtd">
<!-- Generated by graphviz version 14.0.1 (20251006.0113)
 -->
<!-- Title: gui/view/panel/CompanyIssueBillPanel.java Pages: 1 -->
<svg width="1001pt" height="108pt"
 viewBox="0.00 0.00 1001.00 108.00" xmlns="http://www.w3.org/2000/svg" xmlns:xlink="http://www.w3.org/1999/xlink">
<g id="graph0" class="graph" transform="scale(1 1) rotate(0) translate(4 104)">
<title>gui/view/panel/CompanyIssueBillPanel.java</title>
<!-- Node1 -->
<g id="Node000001" class="node">
<title>Node1</title>
<g id="a_Node000001"><a xlink:title=" ">
<polygon fill="#999999" stroke="#666666" points="656.62,-100 509.38,-100 509.38,-68 656.62,-68 656.62,-100"/>
<text xml:space="preserve" text-anchor="start" x="517.38" y="-86.5" font-family="Helvetica,sans-Serif" font-size="10.00">gui/view/panel/CompanyIssue</text>
<text xml:space="preserve" text-anchor="middle" x="583" y="-74.5" font-family="Helvetica,sans-Serif" font-size="10.00">BillPanel.java</text>
</a>
</g>
</g>
<!-- Node2 -->
<g id="Node000002" class="node">
<title>Node2</title>
<g id="a_Node000002"><a xlink:title=" ">
<polygon fill="#e0e0e0" stroke="#999999" points="106,-26 0,-26 0,-6 106,-6 106,-26"/>
<text xml:space="preserve" text-anchor="middle" x="53" y="-12.5" font-family="Helvetica,sans-Serif" font-size="10.00">com.bank.manager.*</text>
</a>
</g>
</g>
<!-- Node1&#45;&gt;Node2 -->
<g id="edge1_Node000001_Node000002" class="edge">
<title>Node1&#45;&gt;Node2</title>
<g id="a_edge1_Node000001_Node000002"><a xlink:title=" ">
<path fill="none" stroke="#63b8ff" d="M509.23,-77.91C416.66,-70.86 253.28,-56.16 115,-32 110.02,-31.13 104.84,-30.09 99.69,-28.98"/>
<polygon fill="#63b8ff" stroke="#63b8ff" points="100.58,-25.59 90.05,-26.77 99.02,-32.41 100.58,-25.59"/>
</a>
</g>
</g>
<!-- Node3 -->
<g id="Node000003" class="node">
<title>Node3</title>
<g id="a_Node000003"><a xlink:title=" ">
<polygon fill="#e0e0e0" stroke="#999999" points="257.88,-32 124.12,-32 124.12,0 257.88,0 257.88,-32"/>
<text xml:space="preserve" text-anchor="start" x="132.12" y="-18.5" font-family="Helvetica,sans-Serif" font-size="10.00">com.bank.model.accounts.</text>
<text xml:space="preserve" text-anchor="middle" x="191" y="-6.5" font-family="Helvetica,sans-Serif" font-size="10.00">Account</text>
</a>
</g>
</g>
<!-- Node1&#45;&gt;Node3 -->
<g id="edge2_Node000001_Node000003" class="edge">
<title>Node1&#45;&gt;Node3</title>
<g id="a_edge2_Node000001_Node000003"><a xlink:title=" ">
<path fill="none" stroke="#63b8ff" d="M509.13,-71.82C447.64,-62.35 357.49,-48.07 269.4,-32.4"/>
<polygon fill="#63b8ff" stroke="#63b8ff" points="270.06,-28.96 259.6,-30.64 268.83,-35.85 270.06,-28.96"/>
</a>
</g>
</g>
<!-- Node4 -->
<g id="Node000004" class="node">
<title>Node4</title>
<g id="a_Node000004"><a xlink:title=" ">
<polygon fill="#e0e0e0" stroke="#999999" points="400.38,-26 275.62,-26 275.62,-6 400.38,-6 400.38,-26"/>
<text xml:space="preserve" text-anchor="middle" x="338" y="-12.5" font-family="Helvetica,sans-Serif" font-size="10.00">com.bank.model.bills.Bill</text>
</a>
</g>
</g>
<!-- Node1&#45;&gt;Node4 -->
<g id="edge3_Node000001_Node000004" class="edge">
<title>Node1&#45;&gt;Node4</title>
<g id="a_edge3_Node000001_Node000004"><a xlink:title=" ">
<path fill="none" stroke="#63b8ff" d="M525.56,-67.53C482.47,-55.92 424.26,-40.24 384.17,-29.44"/>
<polygon fill="#63b8ff" stroke="#63b8ff" points="385.14,-26.08 374.58,-26.85 383.32,-32.83 385.14,-26.08"/>
</a>
</g>
</g>
<!-- Node5 -->
<g id="Node000005" class="node">
<title>Node5</title>
<g id="a_Node000005"><a xlink:title=" ">
<polygon fill="#e0e0e0" stroke="#999999" points="579.38,-26 418.62,-26 418.62,-6 579.38,-6 579.38,-26"/>
<text xml:space="preserve" text-anchor="middle" x="499" y="-12.5" font-family="Helvetica,sans-Serif" font-size="10.00">com.bank.model.users.Customer</text>
</a>
</g>
</g>
<!-- Node1&#45;&gt;Node5 -->
<g id="edge4_Node000001_Node000005" class="edge">
<title>Node1&#45;&gt;Node5</title>
<g id="a_edge4_Node000001_Node000005"><a xlink:title=" ">
<path fill="none" stroke="#63b8ff" d="M563.52,-67.69C550.41,-57.4 533.16,-43.84 519.79,-33.33"/>
<polygon fill="#63b8ff" stroke="#63b8ff" points="522.07,-30.68 512.05,-27.25 517.75,-36.18 522.07,-30.68"/>
</a>
</g>
</g>
<!-- Node6 -->
<g id="Node000006" class="node">
<title>Node6</title>
<g id="a_Node000006"><a xlink:title=" ">
<polygon fill="#e0e0e0" stroke="#999999" points="736.5,-26 597.5,-26 597.5,-6 736.5,-6 736.5,-26"/>
<text xml:space="preserve" text-anchor="middle" x="667" y="-12.5" font-family="Helvetica,sans-Serif" font-size="10.00">com.bank.model.users.User</text>
</a>
</g>
</g>
<!-- Node1&#45;&gt;Node6 -->
<g id="edge5_Node000001_Node000006" class="edge">
<title>Node1&#45;&gt;Node6</title>
<g id="a_edge5_Node000001_Node000006"><a xlink:title=" ">
<path fill="none" stroke="#63b8ff" d="M602.48,-67.69C615.59,-57.4 632.84,-43.84 646.21,-33.33"/>
<polygon fill="#63b8ff" stroke="#63b8ff" points="648.25,-36.18 653.95,-27.25 643.93,-30.68 648.25,-36.18"/>
</a>
</g>
</g>
<!-- Node7 -->
<g id="Node000007" class="node">
<title>Node7</title>
<g id="a_Node000007"><a xlink:title=" ">
<polygon fill="#e0e0e0" stroke="#999999" points="829.25,-26 754.75,-26 754.75,-6 829.25,-6 829.25,-26"/>
<text xml:space="preserve" text-anchor="middle" x="792" y="-12.5" font-family="Helvetica,sans-Serif" font-size="10.00">javax.swing.*</text>
</a>
</g>
</g>
<!-- Node1&#45;&gt;Node7 -->
<g id="edge6_Node000001_Node000007" class="edge">
<title>Node1&#45;&gt;Node7</title>
<g id="a_edge6_Node000001_Node000007"><a xlink:title=" ">
<path fill="none" stroke="#63b8ff" d="M632.99,-67.53C665.27,-57.5 708.15,-44.09 746,-32 748.1,-31.33 750.25,-30.64 752.43,-29.94"/>
<polygon fill="#63b8ff" stroke="#63b8ff" points="753.43,-33.29 761.87,-26.88 751.28,-26.63 753.43,-33.29"/>
</a>
</g>
</g>
<!-- Node8 -->
<g id="Node000008" class="node">
<title>Node8</title>
<g id="a_Node000008"><a xlink:title=" ">
<polygon fill="#e0e0e0" stroke="#999999" points="906.75,-26 847.25,-26 847.25,-6 906.75,-6 906.75,-26"/>
<text xml:space="preserve" text-anchor="middle" x="877" y="-12.5" font-family="Helvetica,sans-Serif" font-size="10.00">java.awt.*</text>
</a>
</g>
</g>
<!-- Node1&#45;&gt;Node8 -->
<g id="edge7_Node000001_Node000008" class="edge">
<title>Node1&#45;&gt;Node8</title>
<g id="a_edge7_Node000001_Node000008"><a xlink:title=" ">
<path fill="none" stroke="#63b8ff" d="M656.89,-71.64C708.23,-62.92 777.95,-49.42 838,-32 839.95,-31.43 841.95,-30.81 843.95,-30.15"/>
<polygon fill="#63b8ff" stroke="#63b8ff" points="844.86,-33.54 853.11,-26.89 842.52,-26.95 844.86,-33.54"/>
</a>
</g>
</g>
<!-- Node9 -->
<g id="Node000009" class="node">
<title>Node9</title>
<g id="a_Node000009"><a xlink:title=" ">
<polygon fill="#e0e0e0" stroke="#999999" points="993.25,-26 924.75,-26 924.75,-6 993.25,-6 993.25,-26"/>
<text xml:space="preserve" text-anchor="middle" x="959" y="-12.5" font-family="Helvetica,sans-Serif" font-size="10.00">java.util.List</text>
</a>
</g>
</g>
<!-- Node1&#45;&gt;Node9 -->
<g id="edge8_Node000001_Node000009" class="edge">
<title>Node1&#45;&gt;Node9</title>
<g id="a_edge8_Node000001_Node000009"><a xlink:title=" ">
<path fill="none" stroke="#63b8ff" d="M656.85,-75.63C724.84,-67.92 828.17,-53.85 916,-32 918.59,-31.36 921.24,-30.62 923.9,-29.83"/>
<polygon fill="#63b8ff" stroke="#63b8ff" points="924.79,-33.22 933.24,-26.82 922.64,-26.56 924.79,-33.22"/>
</a>
</g>
</g>
</g>
</svg>
