<?xml version="1.0" encoding="UTF-8" standalone="no"?>
<!DOCTYPE svg PUBLIC "-//W3C//DTD SVG 1.1//EN"
 "http://www.w3.org/Graphics/SVG/1.1/DTD/svg11.dtd">
<!-- Generated by graphviz version 14.0.1 (20251006.0113)
 -->
<!-- Title: model/transactions/Transfer.java Pages: 1 -->
<svg width="625pt" height="108pt"
 viewBox="0.00 0.00 625.00 108.00" xmlns="http://www.w3.org/2000/svg" xmlns:xlink="http://www.w3.org/1999/xlink">
<g id="graph0" class="graph" transform="scale(1 1) rotate(0) translate(4 104)">
<title>model/transactions/Transfer.java</title>
<!-- Node1 -->
<g id="Node000001" class="node">
<title>Node1</title>
<g id="a_Node000001"><a xlink:title=" ">
<polygon fill="#999999" stroke="#666666" points="359.88,-100 261.38,-100 261.38,-68 359.88,-68 359.88,-100"/>
<text xml:space="preserve" text-anchor="start" x="269.38" y="-86.5" font-family="Helvetica,sans-Serif" font-size="10.00">model/transactions</text>
<text xml:space="preserve" text-anchor="middle" x="310.62" y="-74.5" font-family="Helvetica,sans-Serif" font-size="10.00">/Transfer.java</text>
</a>
</g>
</g>
<!-- Node2 -->
<g id="Node000002" class="node">
<title>Node2</title>
<g id="a_Node000002"><a xlink:title=" ">
<polygon fill="#e0e0e0" stroke="#999999" points="147.25,-32 0,-32 0,0 147.25,0 147.25,-32"/>
<text xml:space="preserve" text-anchor="start" x="8" y="-18.5" font-family="Helvetica,sans-Serif" font-size="10.00">com.bank.manager.Statement</text>
<text xml:space="preserve" text-anchor="middle" x="73.62" y="-6.5" font-family="Helvetica,sans-Serif" font-size="10.00">Manager</text>
</a>
</g>
</g>
<!-- Node1&#45;&gt;Node2 -->
<g id="edge1_Node000001_Node000002" class="edge">
<title>Node1&#45;&gt;Node2</title>
<g id="a_edge1_Node000001_Node000002"><a xlink:title=" ">
<path fill="none" stroke="#63b8ff" d="M260.94,-69.16C225.86,-59.39 178.45,-46.19 140.11,-35.52"/>
<polygon fill="#63b8ff" stroke="#63b8ff" points="141.08,-32.15 130.5,-32.84 139.2,-38.89 141.08,-32.15"/>
</a>
</g>
</g>
<!-- Node3 -->
<g id="Node000003" class="node">
<title>Node3</title>
<g id="a_Node000003"><a xlink:title=" ">
<polygon fill="#e0e0e0" stroke="#999999" points="299.5,-32 165.75,-32 165.75,0 299.5,0 299.5,-32"/>
<text xml:space="preserve" text-anchor="start" x="173.75" y="-18.5" font-family="Helvetica,sans-Serif" font-size="10.00">com.bank.model.accounts.</text>
<text xml:space="preserve" text-anchor="middle" x="232.62" y="-6.5" font-family="Helvetica,sans-Serif" font-size="10.00">Account</text>
</a>
</g>
</g>
<!-- Node1&#45;&gt;Node3 -->
<g id="edge2_Node000001_Node000003" class="edge">
<title>Node1&#45;&gt;Node3</title>
<g id="a_edge2_Node000001_Node000003"><a xlink:title=" ">
<path fill="none" stroke="#63b8ff" d="M292.53,-67.69C282.76,-59.42 270.5,-49.05 259.62,-39.84"/>
<polygon fill="#63b8ff" stroke="#63b8ff" points="261.94,-37.22 252.04,-33.43 257.42,-42.56 261.94,-37.22"/>
</a>
</g>
</g>
<!-- Node4 -->
<g id="Node000004" class="node">
<title>Node4</title>
<g id="a_Node000004"><a xlink:title=" ">
<polygon fill="#e0e0e0" stroke="#999999" points="460,-32 317.25,-32 317.25,0 460,0 460,-32"/>
<text xml:space="preserve" text-anchor="start" x="325.25" y="-18.5" font-family="Helvetica,sans-Serif" font-size="10.00">com.bank.model.statements.</text>
<text xml:space="preserve" text-anchor="middle" x="388.62" y="-6.5" font-family="Helvetica,sans-Serif" font-size="10.00">StatementEntry</text>
</a>
</g>
</g>
<!-- Node1&#45;&gt;Node4 -->
<g id="edge3_Node000001_Node000004" class="edge">
<title>Node1&#45;&gt;Node4</title>
<g id="a_edge3_Node000001_Node000004"><a xlink:title=" ">
<path fill="none" stroke="#63b8ff" d="M328.72,-67.69C338.49,-59.42 350.75,-49.05 361.63,-39.84"/>
<polygon fill="#63b8ff" stroke="#63b8ff" points="363.83,-42.56 369.21,-33.43 359.31,-37.22 363.83,-42.56"/>
</a>
</g>
</g>
<!-- Node5 -->
<g id="Node000005" class="node">
<title>Node5</title>
<g id="a_Node000005"><a xlink:title=" ">
<polygon fill="#e0e0e0" stroke="#999999" points="617.12,-26 478.12,-26 478.12,-6 617.12,-6 617.12,-26"/>
<text xml:space="preserve" text-anchor="middle" x="547.62" y="-12.5" font-family="Helvetica,sans-Serif" font-size="10.00">com.bank.model.users.User</text>
</a>
</g>
</g>
<!-- Node1&#45;&gt;Node5 -->
<g id="edge4_Node000001_Node000005" class="edge">
<title>Node1&#45;&gt;Node5</title>
<g id="a_edge4_Node000001_Node000005"><a xlink:title=" ">
<path fill="none" stroke="#63b8ff" d="M360.31,-69.16C402.37,-57.45 462.13,-40.81 502.76,-29.49"/>
<polygon fill="#63b8ff" stroke="#63b8ff" points="503.53,-32.91 512.22,-26.86 501.65,-26.17 503.53,-32.91"/>
</a>
</g>
</g>
</g>
</svg>
