<?xml version="1.0" encoding="UTF-8" standalone="no"?>
<!DOCTYPE svg PUBLIC "-//W3C//DTD SVG 1.1//EN"
 "http://www.w3.org/Graphics/SVG/1.1/DTD/svg11.dtd">
<!-- Generated by graphviz version 14.0.1 (20251006.0113)
 -->
<!-- Title: com.bank.model.accounts.Account Pages: 1 -->
<!--zoomable 660 -->

<svg id="main" version="1.1" xmlns="http://www.w3.org/2000/svg" xmlns:xlink="http://www.w3.org/1999/xlink" xml:space="preserve" onload="init(evt)">

<style type="text/css"><![CDATA[
.node, .edge {opacity: 0.7;}
.node.selected, .edge.selected {opacity: 1;}
.edge:hover path { stroke: red; }
.edge:hover polygon { stroke: red; fill: red; }
]]></style>

<defs>
  <circle id="rim" cx="0" cy="0" r="7"/>
  <circle id="rim2" cx="0" cy="0" r="3.5"/>
  <g id="zoomPlus">
    <use xlink:href="#rim" fill="#404040"><set attributeName="fill" to="#808080" begin="zoomplus.mouseover" end="zoomplus.mouseout"/></use>
    <path d="M-4,0h8M0,-4v8" fill="none" stroke="white" stroke-width="1.5" pointer-events="none"/>
  </g>
  <g id="zoomMin">
    <use xlink:href="#rim" fill="#404040"><set attributeName="fill" to="#808080" begin="zoomminus.mouseover" end="zoomminus.mouseout"/></use>
    <path d="M-4,0h8" fill="none" stroke="white" stroke-width="1.5" pointer-events="none"/>
  </g>
  <g id="arrowUp" transform="translate(30 24)">
    <use xlink:href="#rim"/>
    <path pointer-events="none" fill="none" stroke="white" stroke-width="1.5" d="M0,-3.0v7 M-2.5,-0.5L0,-3.0L2.5,-0.5"/>
  </g>
  <g id="arrowRight" transform="rotate(90) translate(36 -43)">
    <use xlink:href="#rim"/>
    <path pointer-events="none" fill="none" stroke="white" stroke-width="1.5" d="M0,-3.0v7 M-2.5,-0.5L0,-3.0L2.5,-0.5"/>
  </g>
  <g id="arrowDown" transform="rotate(180) translate(-30 -48)">
    <use xlink:href="#rim"/>
    <path pointer-events="none" fill="none" stroke="white" stroke-width="1.5" d="M0,-3.0v7 M-2.5,-0.5L0,-3.0L2.5,-0.5"/>
  </g>
  <g id="arrowLeft" transform="rotate(270) translate(-36 17)">
    <use xlink:href="#rim"/>
    <path pointer-events="none" fill="none" stroke="white" stroke-width="1.5" d="M0,-3.0v7 M-2.5,-0.5L0,-3.0L2.5,-0.5"/>
  </g>
  <g id="resetDef">
    <use xlink:href="#rim2" fill="#404040"><set attributeName="fill" to="#808080" begin="reset.mouseover" end="reset.mouseout"/></use>
  </g>
</defs>
<script type="application/ecmascript">
var viewWidth = 278;
var viewHeight = 660;
var sectionId = 'dynsection-0';
</script>
<script type="application/ecmascript" xlink:href="../../svg.min.js"/>
<svg id="graph" class="graph">
<g id="viewport">
<title>com.bank.model.accounts.Account</title>
<!-- Node1 -->
<g id="Node000001" class="node">
<title>Node1</title>
<g id="a_Node000001"><a xlink:title="Abstract base class for bank accounts.">
<polygon fill="#999999" stroke="none" points="197.75,-548 72,-548 72,-196 197.75,-196 197.75,-548"/>
<text xml:space="preserve" text-anchor="start" x="76" y="-534.5" font-family="Helvetica,sans-Serif" font-size="10.00">com.bank.model.accounts.</text>
<text xml:space="preserve" text-anchor="start" x="116.88" y="-522.5" font-family="Helvetica,sans-Serif" font-size="10.00">Account</text>
<text xml:space="preserve" text-anchor="start" x="78.38" y="-506.5" font-family="Helvetica,sans-Serif" font-size="10.00">#</text>
<text xml:space="preserve" text-anchor="start" x="90" y="-506.5" font-family="Helvetica,sans-Serif" font-size="10.00">iban</text>
<text xml:space="preserve" text-anchor="start" x="78.38" y="-490.5" font-family="Helvetica,sans-Serif" font-size="10.00">#</text>
<text xml:space="preserve" text-anchor="start" x="90" y="-490.5" font-family="Helvetica,sans-Serif" font-size="10.00">owner</text>
<text xml:space="preserve" text-anchor="start" x="78.38" y="-474.5" font-family="Helvetica,sans-Serif" font-size="10.00">#</text>
<text xml:space="preserve" text-anchor="start" x="90" y="-474.5" font-family="Helvetica,sans-Serif" font-size="10.00">balance</text>
<text xml:space="preserve" text-anchor="start" x="78.38" y="-458.5" font-family="Helvetica,sans-Serif" font-size="10.00">#</text>
<text xml:space="preserve" text-anchor="start" x="90" y="-458.5" font-family="Helvetica,sans-Serif" font-size="10.00">interestRate</text>
<text xml:space="preserve" text-anchor="start" x="78.38" y="-442.5" font-family="Helvetica,sans-Serif" font-size="10.00">#</text>
<text xml:space="preserve" text-anchor="start" x="90" y="-442.5" font-family="Helvetica,sans-Serif" font-size="10.00">dateCreated</text>
<text xml:space="preserve" text-anchor="start" x="78" y="-426.5" font-family="Helvetica,sans-Serif" font-size="10.00">+</text>
<text xml:space="preserve" text-anchor="start" x="90" y="-426.5" font-family="Helvetica,sans-Serif" font-size="10.00">Account()</text>
<text xml:space="preserve" text-anchor="start" x="78" y="-410.5" font-family="Helvetica,sans-Serif" font-size="10.00">+</text>
<text xml:space="preserve" text-anchor="start" x="90" y="-410.5" font-family="Helvetica,sans-Serif" font-size="10.00">getIban()</text>
<text xml:space="preserve" text-anchor="start" x="78" y="-394.5" font-family="Helvetica,sans-Serif" font-size="10.00">+</text>
<text xml:space="preserve" text-anchor="start" x="90" y="-394.5" font-family="Helvetica,sans-Serif" font-size="10.00">setIban()</text>
<text xml:space="preserve" text-anchor="start" x="78" y="-378.5" font-family="Helvetica,sans-Serif" font-size="10.00">+</text>
<text xml:space="preserve" text-anchor="start" x="90" y="-378.5" font-family="Helvetica,sans-Serif" font-size="10.00">getOwner()</text>
<text xml:space="preserve" text-anchor="start" x="78" y="-362.5" font-family="Helvetica,sans-Serif" font-size="10.00">+</text>
<text xml:space="preserve" text-anchor="start" x="90" y="-362.5" font-family="Helvetica,sans-Serif" font-size="10.00">getBalance()</text>
<text xml:space="preserve" text-anchor="start" x="78" y="-346.5" font-family="Helvetica,sans-Serif" font-size="10.00">+</text>
<text xml:space="preserve" text-anchor="start" x="90" y="-346.5" font-family="Helvetica,sans-Serif" font-size="10.00">getInterestRate()</text>
<text xml:space="preserve" text-anchor="start" x="78" y="-330.5" font-family="Helvetica,sans-Serif" font-size="10.00">+</text>
<text xml:space="preserve" text-anchor="start" x="90" y="-330.5" font-family="Helvetica,sans-Serif" font-size="10.00">deposit()</text>
<text xml:space="preserve" text-anchor="start" x="78" y="-314.5" font-family="Helvetica,sans-Serif" font-size="10.00">+</text>
<text xml:space="preserve" text-anchor="start" x="90" y="-314.5" font-family="Helvetica,sans-Serif" font-size="10.00">withdraw()</text>
<text xml:space="preserve" text-anchor="start" x="78" y="-298.5" font-family="Helvetica,sans-Serif" font-size="10.00">+</text>
<text xml:space="preserve" text-anchor="start" x="90" y="-298.5" font-family="Helvetica,sans-Serif" font-size="10.00">setBalance()</text>
<text xml:space="preserve" text-anchor="start" x="78" y="-282.5" font-family="Helvetica,sans-Serif" font-size="10.00">+</text>
<text xml:space="preserve" text-anchor="start" x="90" y="-282.5" font-family="Helvetica,sans-Serif" font-size="10.00">getDateCreated()</text>
<text xml:space="preserve" text-anchor="start" x="78" y="-266.5" font-family="Helvetica,sans-Serif" font-size="10.00">+</text>
<text xml:space="preserve" text-anchor="start" x="90" y="-266.5" font-family="Helvetica,sans-Serif" font-size="10.00">setDateCreated()</text>
<text xml:space="preserve" text-anchor="start" x="78" y="-250.5" font-family="Helvetica,sans-Serif" font-size="10.00">+</text>
<text xml:space="preserve" text-anchor="start" x="90" y="-250.5" font-family="Helvetica,sans-Serif" font-size="10.00">getAccountTypeCode()</text>
<text xml:space="preserve" text-anchor="start" x="78" y="-234.5" font-family="Helvetica,sans-Serif" font-size="10.00">+</text>
<text xml:space="preserve" text-anchor="start" x="90" y="-234.5" font-family="Helvetica,sans-Serif" font-size="10.00">marshal()</text>
<text xml:space="preserve" text-anchor="start" x="78" y="-218.5" font-family="Helvetica,sans-Serif" font-size="10.00">+</text>
<text xml:space="preserve" text-anchor="start" x="90" y="-218.5" font-family="Helvetica,sans-Serif" font-size="10.00">unmarshal()</text>
<text xml:space="preserve" text-anchor="start" x="78" y="-202.5" font-family="Helvetica,sans-Serif" font-size="10.00">+</text>
<text xml:space="preserve" text-anchor="start" x="90" y="-202.5" font-family="Helvetica,sans-Serif" font-size="10.00">generateIBAN()</text>
<polygon fill="#666666" stroke="#666666" points="72,-518 72,-518 197.75,-518 197.75,-518 72,-518"/>
<polygon fill="#666666" stroke="#666666" points="72,-438 72,-438 88,-438 88,-438 72,-438"/>
<polygon fill="#666666" stroke="#666666" points="88,-438 88,-438 197.75,-438 197.75,-438 88,-438"/>
<polygon fill="none" stroke="#666666" points="72,-196 72,-548 197.75,-548 197.75,-196 72,-196"/>
</a>
</g>
</g>
<!-- Node3 -->
<g id="Node000003" class="node">
<title>Node3</title>
<g id="a_Node000003"><a xlink:href="../../d3/d75/classcom_1_1bank_1_1model_1_1accounts_1_1_business_account.html" target="_top" xlink:title="Represents a business (company) bank account with an additional monthly maintenance fee.">
<polygon fill="white" stroke="none" points="125.75,-144 0,-144 0,-16 125.75,-16 125.75,-144"/>
<text xml:space="preserve" text-anchor="start" x="4" y="-130.5" font-family="Helvetica,sans-Serif" font-size="10.00">com.bank.model.accounts.</text>
<text xml:space="preserve" text-anchor="start" x="24.62" y="-118.5" font-family="Helvetica,sans-Serif" font-size="10.00">BusinessAccount</text>
<text xml:space="preserve" text-anchor="start" x="61.38" y="-102.5" font-family="Helvetica,sans-Serif" font-size="10.00"> </text>
<text xml:space="preserve" text-anchor="start" x="6" y="-86.5" font-family="Helvetica,sans-Serif" font-size="10.00">+</text>
<text xml:space="preserve" text-anchor="start" x="18" y="-86.5" font-family="Helvetica,sans-Serif" font-size="10.00">BusinessAccount()</text>
<text xml:space="preserve" text-anchor="start" x="6" y="-70.5" font-family="Helvetica,sans-Serif" font-size="10.00">+</text>
<text xml:space="preserve" text-anchor="start" x="18" y="-70.5" font-family="Helvetica,sans-Serif" font-size="10.00">getMonthlyFee()</text>
<text xml:space="preserve" text-anchor="start" x="6" y="-54.5" font-family="Helvetica,sans-Serif" font-size="10.00">+</text>
<text xml:space="preserve" text-anchor="start" x="18" y="-54.5" font-family="Helvetica,sans-Serif" font-size="10.00">getAccountTypeCode()</text>
<text xml:space="preserve" text-anchor="start" x="6" y="-38.5" font-family="Helvetica,sans-Serif" font-size="10.00">+</text>
<text xml:space="preserve" text-anchor="start" x="18" y="-38.5" font-family="Helvetica,sans-Serif" font-size="10.00">marshal()</text>
<text xml:space="preserve" text-anchor="start" x="6" y="-22.5" font-family="Helvetica,sans-Serif" font-size="10.00">+</text>
<text xml:space="preserve" text-anchor="start" x="18" y="-22.5" font-family="Helvetica,sans-Serif" font-size="10.00">unmarshal()</text>
<polygon fill="#666666" stroke="#666666" points="0,-114 0,-114 125.75,-114 125.75,-114 0,-114"/>
<polygon fill="#666666" stroke="#666666" points="0,-98 0,-98 125.75,-98 125.75,-98 0,-98"/>
<polygon fill="none" stroke="#666666" points="0,-16 0,-144 125.75,-144 125.75,-16 0,-16"/>
</a>
</g>
</g>
<!-- Node1&#45;&gt;Node3 -->
<g id="edge2_Node000001_Node000003" class="edge">
<title>Node1&#45;&gt;Node3</title>
<g id="a_edge2_Node000001_Node000003"><a xlink:title=" ">
<path fill="none" stroke="#63b8ff" d="M88.76,-185.26C85.12,-170.59 81.63,-156.53 78.45,-143.74"/>
<polygon fill="none" stroke="#63b8ff" points="85.26,-185.7 91.07,-194.56 92.06,-184.01 85.26,-185.7"/>
</a>
</g>
</g>
<!-- Node4 -->
<g id="Node000004" class="node">
<title>Node4</title>
<g id="a_Node000004"><a xlink:href="../../dc/df2/classcom_1_1bank_1_1model_1_1accounts_1_1_personal_account.html" target="_top" xlink:title="Represents a personal bank account that can have multiple co&#45;owners.">
<polygon fill="white" stroke="none" points="269.75,-160 144,-160 144,0 269.75,0 269.75,-160"/>
<text xml:space="preserve" text-anchor="start" x="148" y="-146.5" font-family="Helvetica,sans-Serif" font-size="10.00">com.bank.model.accounts.</text>
<text xml:space="preserve" text-anchor="start" x="169.75" y="-134.5" font-family="Helvetica,sans-Serif" font-size="10.00">PersonalAccount</text>
<text xml:space="preserve" text-anchor="start" x="205.38" y="-118.5" font-family="Helvetica,sans-Serif" font-size="10.00"> </text>
<text xml:space="preserve" text-anchor="start" x="150" y="-102.5" font-family="Helvetica,sans-Serif" font-size="10.00">+</text>
<text xml:space="preserve" text-anchor="start" x="162" y="-102.5" font-family="Helvetica,sans-Serif" font-size="10.00">PersonalAccount()</text>
<text xml:space="preserve" text-anchor="start" x="150" y="-86.5" font-family="Helvetica,sans-Serif" font-size="10.00">+</text>
<text xml:space="preserve" text-anchor="start" x="162" y="-86.5" font-family="Helvetica,sans-Serif" font-size="10.00">addCoOwner()</text>
<text xml:space="preserve" text-anchor="start" x="150" y="-70.5" font-family="Helvetica,sans-Serif" font-size="10.00">+</text>
<text xml:space="preserve" text-anchor="start" x="162" y="-70.5" font-family="Helvetica,sans-Serif" font-size="10.00">getCoOwners()</text>
<text xml:space="preserve" text-anchor="start" x="150" y="-54.5" font-family="Helvetica,sans-Serif" font-size="10.00">+</text>
<text xml:space="preserve" text-anchor="start" x="162" y="-54.5" font-family="Helvetica,sans-Serif" font-size="10.00">getCoOwnerVats()</text>
<text xml:space="preserve" text-anchor="start" x="150" y="-38.5" font-family="Helvetica,sans-Serif" font-size="10.00">+</text>
<text xml:space="preserve" text-anchor="start" x="162" y="-38.5" font-family="Helvetica,sans-Serif" font-size="10.00">getAccountTypeCode()</text>
<text xml:space="preserve" text-anchor="start" x="150" y="-22.5" font-family="Helvetica,sans-Serif" font-size="10.00">+</text>
<text xml:space="preserve" text-anchor="start" x="162" y="-22.5" font-family="Helvetica,sans-Serif" font-size="10.00">marshal()</text>
<text xml:space="preserve" text-anchor="start" x="150" y="-6.5" font-family="Helvetica,sans-Serif" font-size="10.00">+</text>
<text xml:space="preserve" text-anchor="start" x="162" y="-6.5" font-family="Helvetica,sans-Serif" font-size="10.00">unmarshal()</text>
<polygon fill="#666666" stroke="#666666" points="144,-130 144,-130 269.75,-130 269.75,-130 144,-130"/>
<polygon fill="#666666" stroke="#666666" points="144,-114 144,-114 269.75,-114 269.75,-114 144,-114"/>
<polygon fill="none" stroke="#666666" points="144,0 144,-160 269.75,-160 269.75,0 144,0"/>
</a>
</g>
</g>
<!-- Node1&#45;&gt;Node4 -->
<g id="edge3_Node000001_Node000004" class="edge">
<title>Node1&#45;&gt;Node4</title>
<g id="a_edge3_Node000001_Node000004"><a xlink:title=" ">
<path fill="none" stroke="#63b8ff" d="M181.07,-184.94C183.22,-176.26 185.32,-167.8 187.34,-159.69"/>
<polygon fill="none" stroke="#63b8ff" points="177.69,-184.01 178.68,-194.56 184.49,-185.7 177.69,-184.01"/>
</a>
</g>
</g>
<!-- Node2 -->
<g id="Node000002" class="node">
<title>Node2</title>
<g id="a_Node000002"><a xlink:href="../../dd/d8c/interfacecom_1_1bank_1_1storage_1_1_storable.html" target="_top" xlink:title="Defines the serialization and deserialization behavior for persistent objects.">
<polygon fill="white" stroke="none" points="197.38,-652 72.38,-652 72.38,-584 197.38,-584 197.38,-652"/>
<text xml:space="preserve" text-anchor="start" x="76.38" y="-638.5" font-family="Helvetica,sans-Serif" font-size="10.00">com.bank.storage.Storable</text>
<text xml:space="preserve" text-anchor="start" x="133.38" y="-622.5" font-family="Helvetica,sans-Serif" font-size="10.00"> </text>
<text xml:space="preserve" text-anchor="start" x="90.38" y="-606.5" font-family="Helvetica,sans-Serif" font-size="10.00">+</text>
<text xml:space="preserve" text-anchor="start" x="114.38" y="-606.5" font-family="Helvetica,sans-Serif" font-size="10.00">marshal()</text>
<text xml:space="preserve" text-anchor="start" x="90.38" y="-590.5" font-family="Helvetica,sans-Serif" font-size="10.00">+</text>
<text xml:space="preserve" text-anchor="start" x="114.38" y="-590.5" font-family="Helvetica,sans-Serif" font-size="10.00">unmarshal()</text>
<polygon fill="#666666" stroke="#666666" points="72.38,-634 72.38,-634 197.38,-634 197.38,-634 72.38,-634"/>
<polygon fill="#666666" stroke="#666666" points="72.38,-618 72.38,-618 197.38,-618 197.38,-618 72.38,-618"/>
<polygon fill="none" stroke="#666666" points="72.38,-584 72.38,-652 197.38,-652 197.38,-584 72.38,-584"/>
</a>
</g>
</g>
<!-- Node2&#45;&gt;Node1 -->
<g id="edge1_Node000001_Node000002" class="edge">
<title>Node2&#45;&gt;Node1</title>
<g id="a_edge1_Node000001_Node000002"><a xlink:title=" ">
<path fill="none" stroke="#63b8ff" d="M134.88,-572.65C134.88,-564.97 134.88,-556.6 134.88,-547.77"/>
<polygon fill="none" stroke="#63b8ff" points="131.38,-572.58 134.88,-582.58 138.38,-572.58 131.38,-572.58"/>
</a>
</g>
</g>
</g>
</svg>

<g id="navigator" transform="translate(0 0)" fill="#404254">
  <rect fill="#f2f5e9" fill-opacity="0.5" stroke="#606060" stroke-width=".5" x="0" y="0" width="60" height="60"/>
  <use id="zoomplus" xlink:href="#zoomPlus" x="17" y="9" onmousedown="handleZoom(evt,'in')"/>
  <use id="zoomminus" xlink:href="#zoomMin" x="42" y="9" onmousedown="handleZoom(evt,'out')"/>
  <use id="reset" xlink:href="#resetDef" x="30" y="36" onmousedown="handleReset()"/>
   <use id="arrowup" xlink:href="#arrowUp" x="0" y="0" onmousedown="handlePan(0,-1)"/>
  <use id="arrowright" xlink:href="#arrowRight" x="0" y="0" onmousedown="handlePan(1,0)"/>
  <use id="arrowdown" xlink:href="#arrowDown" x="0" y="0" onmousedown="handlePan(0,1)"/>
  <use id="arrowleft" xlink:href="#arrowLeft" x="0" y="0" onmousedown="handlePan(-1,0)"/>
</g>
<svg viewBox="0 0 15 15" width="100%" height="30px" preserveAspectRatio="xMaxYMin meet">
 <g id="arrow_out" transform="scale(0.3 0.3)">
  <a xlink:href="classcom_1_1bank_1_1model_1_1accounts_1_1_account__inherit__graph_org.svg" target="_base">
   <rect id="button" ry="5" rx="5" y="6" x="6" height="38" width="38"
        fill="#f2f5e9" fill-opacity="0.5" stroke="#606060" stroke-width="1.0"/>
   <path id="arrow"
     d="M 11.500037,31.436501 C 11.940474,20.09759 22.043105,11.32322 32.158766,21.979434 L 37.068811,17.246167 C 37.068811,17.246167 37.088388,32 37.088388,32 L 22.160133,31.978069 C 22.160133,31.978069 26.997745,27.140456 26.997745,27.140456 C 18.528582,18.264221 13.291696,25.230495 11.500037,31.436501 z"
     style="fill:#404040;"/>
  </a>
 </g>
</svg>

<style type='text/css'>
<![CDATA[
[data-mouse-over-selected='false'] { opacity: 0.7; }
[data-mouse-over-selected='true']  { opacity: 1.0; }
]]>
</style>
<script type="application/ecmascript"><![CDATA[
document.addEventListener('DOMContentLoaded', (event) => {
  highlightEdges();
  highlightAdjacentNodes();
});
]]></script>
</svg>
