<?xml version="1.0" encoding="UTF-8" standalone="no"?>
<!DOCTYPE svg PUBLIC "-//W3C//DTD SVG 1.1//EN"
 "http://www.w3.org/Graphics/SVG/1.1/DTD/svg11.dtd">
<!-- Generated by graphviz version 14.0.1 (20251006.0113)
 -->
<!-- Title: gui/view/panel/AdminStandingOrdersPanel.java Pages: 1 -->
<svg width="583pt" height="108pt"
 viewBox="0.00 0.00 583.00 108.00" xmlns="http://www.w3.org/2000/svg" xmlns:xlink="http://www.w3.org/1999/xlink">
<g id="graph0" class="graph" transform="scale(1 1) rotate(0) translate(4 104)">
<title>gui/view/panel/AdminStandingOrdersPanel.java</title>
<!-- Node1 -->
<g id="Node000001" class="node">
<title>Node1</title>
<g id="a_Node000001"><a xlink:title=" ">
<polygon fill="#999999" stroke="#666666" points="446.88,-100 299.62,-100 299.62,-68 446.88,-68 446.88,-100"/>
<text xml:space="preserve" text-anchor="start" x="307.62" y="-86.5" font-family="Helvetica,sans-Serif" font-size="10.00">gui/view/panel/AdminStanding</text>
<text xml:space="preserve" text-anchor="middle" x="373.25" y="-74.5" font-family="Helvetica,sans-Serif" font-size="10.00">OrdersPanel.java</text>
</a>
</g>
</g>
<!-- Node2 -->
<g id="Node000002" class="node">
<title>Node2</title>
<g id="a_Node000002"><a xlink:title=" ">
<polygon fill="#e0e0e0" stroke="#999999" points="140.5,-32 0,-32 0,0 140.5,0 140.5,-32"/>
<text xml:space="preserve" text-anchor="start" x="8" y="-18.5" font-family="Helvetica,sans-Serif" font-size="10.00">com.bank.manager.Standing</text>
<text xml:space="preserve" text-anchor="middle" x="70.25" y="-6.5" font-family="Helvetica,sans-Serif" font-size="10.00">OrderManager</text>
</a>
</g>
</g>
<!-- Node1&#45;&gt;Node2 -->
<g id="edge1_Node000001_Node000002" class="edge">
<title>Node1&#45;&gt;Node2</title>
<g id="a_edge1_Node000001_Node000002"><a xlink:title=" ">
<path fill="none" stroke="#63b8ff" d="M302.21,-67.53C257.19,-57.72 198.82,-45.01 151.9,-34.78"/>
<polygon fill="#63b8ff" stroke="#63b8ff" points="152.84,-31.41 142.32,-32.7 151.35,-38.25 152.84,-31.41"/>
</a>
</g>
</g>
<!-- Node3 -->
<g id="Node000003" class="node">
<title>Node3</title>
<g id="a_Node000003"><a xlink:title=" ">
<polygon fill="#e0e0e0" stroke="#999999" points="317.88,-32 158.62,-32 158.62,0 317.88,0 317.88,-32"/>
<text xml:space="preserve" text-anchor="start" x="166.62" y="-18.5" font-family="Helvetica,sans-Serif" font-size="10.00">com.bank.model.orders.Standing</text>
<text xml:space="preserve" text-anchor="middle" x="238.25" y="-6.5" font-family="Helvetica,sans-Serif" font-size="10.00">Order</text>
</a>
</g>
</g>
<!-- Node1&#45;&gt;Node3 -->
<g id="edge2_Node000001_Node000003" class="edge">
<title>Node1&#45;&gt;Node3</title>
<g id="a_edge2_Node000001_Node000003"><a xlink:title=" ">
<path fill="none" stroke="#63b8ff" d="M341.6,-67.53C323.23,-58.55 299.88,-47.13 280.02,-37.42"/>
<polygon fill="#63b8ff" stroke="#63b8ff" points="281.58,-34.29 271.06,-33.04 278.51,-40.58 281.58,-34.29"/>
</a>
</g>
</g>
<!-- Node4 -->
<g id="Node000004" class="node">
<title>Node4</title>
<g id="a_Node000004"><a xlink:title=" ">
<polygon fill="#e0e0e0" stroke="#999999" points="410.5,-26 336,-26 336,-6 410.5,-6 410.5,-26"/>
<text xml:space="preserve" text-anchor="middle" x="373.25" y="-12.5" font-family="Helvetica,sans-Serif" font-size="10.00">javax.swing.*</text>
</a>
</g>
</g>
<!-- Node1&#45;&gt;Node4 -->
<g id="edge3_Node000001_Node000004" class="edge">
<title>Node1&#45;&gt;Node4</title>
<g id="a_edge3_Node000001_Node000004"><a xlink:title=" ">
<path fill="none" stroke="#63b8ff" d="M373.25,-67.69C373.25,-58.8 373.25,-47.46 373.25,-37.77"/>
<polygon fill="#63b8ff" stroke="#63b8ff" points="376.75,-37.83 373.25,-27.83 369.75,-37.83 376.75,-37.83"/>
</a>
</g>
</g>
<!-- Node5 -->
<g id="Node000005" class="node">
<title>Node5</title>
<g id="a_Node000005"><a xlink:title=" ">
<polygon fill="#e0e0e0" stroke="#999999" points="488,-26 428.5,-26 428.5,-6 488,-6 488,-26"/>
<text xml:space="preserve" text-anchor="middle" x="458.25" y="-12.5" font-family="Helvetica,sans-Serif" font-size="10.00">java.awt.*</text>
</a>
</g>
</g>
<!-- Node1&#45;&gt;Node5 -->
<g id="edge4_Node000001_Node000005" class="edge">
<title>Node1&#45;&gt;Node5</title>
<g id="a_edge4_Node000001_Node000005"><a xlink:title=" ">
<path fill="none" stroke="#63b8ff" d="M392.96,-67.69C406.22,-57.4 423.69,-43.84 437.21,-33.33"/>
<polygon fill="#63b8ff" stroke="#63b8ff" points="439.3,-36.14 445.06,-27.24 435.01,-30.61 439.3,-36.14"/>
</a>
</g>
</g>
<!-- Node6 -->
<g id="Node000006" class="node">
<title>Node6</title>
<g id="a_Node000006"><a xlink:title=" ">
<polygon fill="#e0e0e0" stroke="#999999" points="574.5,-26 506,-26 506,-6 574.5,-6 574.5,-26"/>
<text xml:space="preserve" text-anchor="middle" x="540.25" y="-12.5" font-family="Helvetica,sans-Serif" font-size="10.00">java.util.List</text>
</a>
</g>
</g>
<!-- Node1&#45;&gt;Node6 -->
<g id="edge5_Node000001_Node000006" class="edge">
<title>Node1&#45;&gt;Node6</title>
<g id="a_edge5_Node000001_Node000006"><a xlink:title=" ">
<path fill="none" stroke="#63b8ff" d="M412.4,-67.53C440.7,-56.34 478.58,-41.37 505.75,-30.64"/>
<polygon fill="#63b8ff" stroke="#63b8ff" points="506.89,-33.95 514.91,-27.02 504.32,-27.44 506.89,-33.95"/>
</a>
</g>
</g>
</g>
</svg>
