<?xml version="1.0" encoding="UTF-8" standalone="no"?>
<!DOCTYPE svg PUBLIC "-//W3C//DTD SVG 1.1//EN"
 "http://www.w3.org/Graphics/SVG/1.1/DTD/svg11.dtd">
<!-- Generated by graphviz version 14.0.1 (20251006.0113)
 -->
<!-- Title: com.bank.model.bills.Bill.getIssuer Pages: 1 -->
<svg width="371pt" height="140pt"
 viewBox="0.00 0.00 371.00 140.00" xmlns="http://www.w3.org/2000/svg" xmlns:xlink="http://www.w3.org/1999/xlink">
<g id="graph0" class="graph" transform="scale(1 1) rotate(0) translate(4 136)">
<title>com.bank.model.bills.Bill.getIssuer</title>
<!-- Node1 -->
<g id="Node000001" class="node">
<title>Node1</title>
<g id="a_Node000001"><a xlink:title=" ">
<polygon fill="#999999" stroke="#666666" points="362.75,-82 221.5,-82 221.5,-50 362.75,-50 362.75,-82"/>
<text xml:space="preserve" text-anchor="start" x="229.5" y="-68.5" font-family="Helvetica,sans-Serif" font-size="10.00">com.bank.model.bills.Bill.get</text>
<text xml:space="preserve" text-anchor="middle" x="292.12" y="-56.5" font-family="Helvetica,sans-Serif" font-size="10.00">Issuer</text>
</a>
</g>
</g>
<!-- Node2 -->
<g id="Node000002" class="node">
<title>Node2</title>
<g id="a_Node000002"><a xlink:href="../../dd/d30/classcom_1_1bank_1_1gui_1_1view_1_1panel_1_1_admin_pay_bill_panel.html#a973563a6943f3648632453279e518cb1" target="_top" xlink:title="Δημιουργεί το panel πληρωμής λογαριασμού από Admin.">
<polygon fill="white" stroke="#666666" points="185.5,-132 0,-132 0,-100 185.5,-100 185.5,-132"/>
<text xml:space="preserve" text-anchor="start" x="8" y="-118.5" font-family="Helvetica,sans-Serif" font-size="10.00">com.bank.gui.view.panel.</text>
<text xml:space="preserve" text-anchor="middle" x="92.75" y="-106.5" font-family="Helvetica,sans-Serif" font-size="10.00">AdminPayBillPanel.AdminPayBillPanel</text>
</a>
</g>
</g>
<!-- Node1&#45;&gt;Node2 -->
<g id="edge1_Node000001_Node000002" class="edge">
<title>Node1&#45;&gt;Node2</title>
<g id="a_edge1_Node000001_Node000002"><a xlink:title=" ">
<path fill="none" stroke="#63b8ff" d="M215.11,-85.26C196.49,-89.97 176.74,-94.98 158.69,-99.55"/>
<polygon fill="#63b8ff" stroke="#63b8ff" points="215.92,-88.66 224.76,-82.81 214.2,-81.88 215.92,-88.66"/>
</a>
</g>
</g>
<!-- Node3 -->
<g id="Node000003" class="node">
<title>Node3</title>
<g id="a_Node000003"><a xlink:href="../../dc/d2a/classcom_1_1bank_1_1model_1_1orders_1_1_payment_order.html#a439eabdedf52f8c33708338984440c6e" target="_top" xlink:title="Executes the payment order on the specified payment day.">
<polygon fill="white" stroke="#666666" points="172.75,-82 12.75,-82 12.75,-50 172.75,-50 172.75,-82"/>
<text xml:space="preserve" text-anchor="start" x="20.75" y="-68.5" font-family="Helvetica,sans-Serif" font-size="10.00">com.bank.model.orders.Payment</text>
<text xml:space="preserve" text-anchor="middle" x="92.75" y="-56.5" font-family="Helvetica,sans-Serif" font-size="10.00">Order.execute</text>
</a>
</g>
</g>
<!-- Node1&#45;&gt;Node3 -->
<g id="edge2_Node000001_Node000003" class="edge">
<title>Node1&#45;&gt;Node3</title>
<g id="a_edge2_Node000001_Node000003"><a xlink:title=" ">
<path fill="none" stroke="#63b8ff" d="M210.11,-66C197.84,-66 185.18,-66 172.95,-66"/>
<polygon fill="#63b8ff" stroke="#63b8ff" points="209.75,-69.5 219.75,-66 209.75,-62.5 209.75,-69.5"/>
</a>
</g>
</g>
<!-- Node4 -->
<g id="Node000004" class="node">
<title>Node4</title>
<g id="a_Node000004"><a xlink:href="../../dc/dd6/classcom_1_1bank_1_1gui_1_1view_1_1panel_1_1_pay_bill_panel.html#a36e2af99e6d3c4df782013e94e77f6a4" target="_top" xlink:title="Δημιουργεί panel για πληρωμή λογαριασμού με RF code.">
<polygon fill="white" stroke="#666666" points="157.75,-32 27.75,-32 27.75,0 157.75,0 157.75,-32"/>
<text xml:space="preserve" text-anchor="start" x="35.75" y="-18.5" font-family="Helvetica,sans-Serif" font-size="10.00">com.bank.gui.view.panel.</text>
<text xml:space="preserve" text-anchor="middle" x="92.75" y="-6.5" font-family="Helvetica,sans-Serif" font-size="10.00">PayBillPanel.PayBillPanel</text>
</a>
</g>
</g>
<!-- Node1&#45;&gt;Node4 -->
<g id="edge3_Node000001_Node000004" class="edge">
<title>Node1&#45;&gt;Node4</title>
<g id="a_edge3_Node000001_Node000004"><a xlink:title=" ">
<path fill="none" stroke="#63b8ff" d="M215.26,-46.78C196.36,-41.99 176.29,-36.91 158.02,-32.28"/>
<polygon fill="#63b8ff" stroke="#63b8ff" points="214.2,-50.12 224.76,-49.19 215.92,-43.34 214.2,-50.12"/>
</a>
</g>
</g>
</g>
</svg>
