<?xml version="1.0" encoding="UTF-8" standalone="no"?>
<!DOCTYPE svg PUBLIC "-//W3C//DTD SVG 1.1//EN"
 "http://www.w3.org/Graphics/SVG/1.1/DTD/svg11.dtd">
<!-- Generated by graphviz version 14.0.1 (20251006.0113)
 -->
<!-- Title: com.bank.model.bills.Bill.setPaid Pages: 1 -->
<svg width="612pt" height="162pt"
 viewBox="0.00 0.00 612.00 162.00" xmlns="http://www.w3.org/2000/svg" xmlns:xlink="http://www.w3.org/1999/xlink">
<g id="graph0" class="graph" transform="scale(1 1) rotate(0) translate(4 158)">
<title>com.bank.model.bills.Bill.setPaid</title>
<!-- Node1 -->
<g id="Node000001" class="node">
<title>Node1</title>
<g id="a_Node000001"><a xlink:title=" ">
<polygon fill="#999999" stroke="#666666" points="603.75,-90 443,-90 443,-70 603.75,-70 603.75,-90"/>
<text xml:space="preserve" text-anchor="middle" x="523.38" y="-76.5" font-family="Helvetica,sans-Serif" font-size="10.00">com.bank.model.bills.Bill.setPaid</text>
</a>
</g>
</g>
<!-- Node2 -->
<g id="Node000002" class="node">
<title>Node2</title>
<g id="a_Node000002"><a xlink:href="../../dd/d30/classcom_1_1bank_1_1gui_1_1view_1_1panel_1_1_admin_pay_bill_panel.html#a973563a6943f3648632453279e518cb1" target="_top" xlink:title="Δημιουργεί το panel πληρωμής λογαριασμού από Admin.">
<polygon fill="white" stroke="#666666" points="185.5,-154 0,-154 0,-122 185.5,-122 185.5,-154"/>
<text xml:space="preserve" text-anchor="start" x="8" y="-140.5" font-family="Helvetica,sans-Serif" font-size="10.00">com.bank.gui.view.panel.</text>
<text xml:space="preserve" text-anchor="middle" x="92.75" y="-128.5" font-family="Helvetica,sans-Serif" font-size="10.00">AdminPayBillPanel.AdminPayBillPanel</text>
</a>
</g>
</g>
<!-- Node1&#45;&gt;Node2 -->
<g id="edge1_Node000001_Node000002" class="edge">
<title>Node1&#45;&gt;Node2</title>
<g id="a_edge1_Node000001_Node000002"><a xlink:title=" ">
<path fill="none" stroke="#63b8ff" d="M494.37,-95.77C471.62,-107.67 438.28,-123.09 407,-130 333.82,-146.15 248.7,-147.24 185.67,-144.79"/>
<polygon fill="#63b8ff" stroke="#63b8ff" points="495.84,-98.95 503,-91.14 492.53,-92.79 495.84,-98.95"/>
</a>
</g>
</g>
<!-- Node3 -->
<g id="Node000003" class="node">
<title>Node3</title>
<g id="a_Node000003"><a xlink:href="../../dc/d2a/classcom_1_1bank_1_1model_1_1orders_1_1_payment_order.html#a439eabdedf52f8c33708338984440c6e" target="_top" xlink:title="Executes the payment order on the specified payment day.">
<polygon fill="white" stroke="#666666" points="394.25,-121 234.25,-121 234.25,-89 394.25,-89 394.25,-121"/>
<text xml:space="preserve" text-anchor="start" x="242.25" y="-107.5" font-family="Helvetica,sans-Serif" font-size="10.00">com.bank.model.orders.Payment</text>
<text xml:space="preserve" text-anchor="middle" x="314.25" y="-95.5" font-family="Helvetica,sans-Serif" font-size="10.00">Order.execute</text>
</a>
</g>
</g>
<!-- Node1&#45;&gt;Node3 -->
<g id="edge2_Node000001_Node000003" class="edge">
<title>Node1&#45;&gt;Node3</title>
<g id="a_edge2_Node000001_Node000003"><a xlink:title=" ">
<path fill="none" stroke="#63b8ff" d="M431.43,-90.98C419.17,-92.46 406.68,-93.96 394.65,-95.42"/>
<polygon fill="#63b8ff" stroke="#63b8ff" points="431.58,-94.48 441.09,-89.81 430.74,-87.53 431.58,-94.48"/>
</a>
</g>
</g>
<!-- Node4 -->
<g id="Node000004" class="node">
<title>Node4</title>
<g id="a_Node000004"><a xlink:href="../../dc/d48/classcom_1_1bank_1_1manager_1_1_bill_manager.html#a0a16b9f5e89eb52128535fa13f8e558f" target="_top" xlink:title="Loads bills from global ledgers and daily files; rebuilds in&#45;memory state.">
<polygon fill="white" stroke="#666666" points="401.38,-71 227.12,-71 227.12,-39 401.38,-39 401.38,-71"/>
<text xml:space="preserve" text-anchor="start" x="235.12" y="-57.5" font-family="Helvetica,sans-Serif" font-size="10.00">com.bank.manager.BillManager.load</text>
<text xml:space="preserve" text-anchor="middle" x="314.25" y="-45.5" font-family="Helvetica,sans-Serif" font-size="10.00">Bills</text>
</a>
</g>
</g>
<!-- Node1&#45;&gt;Node4 -->
<g id="edge3_Node000001_Node000004" class="edge">
<title>Node1&#45;&gt;Node4</title>
<g id="a_edge3_Node000001_Node000004"><a xlink:title=" ">
<path fill="none" stroke="#63b8ff" d="M431.23,-69C421.48,-67.82 411.57,-66.63 401.87,-65.46"/>
<polygon fill="#63b8ff" stroke="#63b8ff" points="430.74,-72.47 441.09,-70.19 431.58,-65.52 430.74,-72.47"/>
</a>
</g>
</g>
<!-- Node7 -->
<g id="Node000007" class="node">
<title>Node7</title>
<g id="a_Node000007"><a xlink:href="../../dc/d48/classcom_1_1bank_1_1manager_1_1_bill_manager.html#abe21beb814dcc20d159493f761fff0f7" target="_top" xlink:title="Marks a bill as paid and persists updates.">
<polygon fill="white" stroke="#666666" points="407,-21 221.5,-21 221.5,-1 407,-1 407,-21"/>
<text xml:space="preserve" text-anchor="middle" x="314.25" y="-7.5" font-family="Helvetica,sans-Serif" font-size="10.00">com.bank.manager.BillManager.payBill</text>
</a>
</g>
</g>
<!-- Node1&#45;&gt;Node7 -->
<g id="edge7_Node000001_Node000007" class="edge">
<title>Node1&#45;&gt;Node7</title>
<g id="a_edge7_Node000001_Node000007"><a xlink:title=" ">
<path fill="none" stroke="#63b8ff" d="M491.91,-64.75C469.02,-53.81 436.65,-39.38 407,-30 396.61,-26.71 385.37,-23.84 374.45,-21.4"/>
<polygon fill="#63b8ff" stroke="#63b8ff" points="490.13,-67.78 500.66,-69 493.19,-61.48 490.13,-67.78"/>
</a>
</g>
</g>
<!-- Node4&#45;&gt;Node2 -->
<g id="edge4_Node000004_Node000002" class="edge">
<title>Node4&#45;&gt;Node2</title>
<g id="a_edge4_Node000004_Node000002"><a xlink:title=" ">
<path fill="none" stroke="#63b8ff" d="M236.89,-74.8C231.65,-76.47 226.48,-78.2 221.5,-80 188.28,-91.98 151.7,-109 126.24,-121.5"/>
<polygon fill="#63b8ff" stroke="#63b8ff" points="237.71,-78.21 246.24,-71.93 235.66,-71.52 237.71,-78.21"/>
</a>
</g>
</g>
<!-- Node5 -->
<g id="Node000005" class="node">
<title>Node5</title>
<g id="a_Node000005"><a xlink:href="../../dc/d48/classcom_1_1bank_1_1manager_1_1_bill_manager.html#ac5b29442abb03e824dea42ee7b7d0ab0" target="_top" xlink:title="Constructs the manager and loads persisted state.">
<polygon fill="white" stroke="#666666" points="170.88,-82 14.62,-82 14.62,-50 170.88,-50 170.88,-82"/>
<text xml:space="preserve" text-anchor="start" x="22.62" y="-68.5" font-family="Helvetica,sans-Serif" font-size="10.00">com.bank.manager.BillManager.</text>
<text xml:space="preserve" text-anchor="middle" x="92.75" y="-56.5" font-family="Helvetica,sans-Serif" font-size="10.00">BillManager</text>
</a>
</g>
</g>
<!-- Node4&#45;&gt;Node5 -->
<g id="edge5_Node000004_Node000005" class="edge">
<title>Node4&#45;&gt;Node5</title>
<g id="a_edge5_Node000004_Node000005"><a xlink:title=" ">
<path fill="none" stroke="#63b8ff" d="M215.53,-59.9C200.68,-60.64 185.53,-61.4 171.19,-62.12"/>
<polygon fill="#63b8ff" stroke="#63b8ff" points="215.49,-63.4 225.3,-59.41 215.14,-56.41 215.49,-63.4"/>
</a>
</g>
</g>
<!-- Node6 -->
<g id="Node000006" class="node">
<title>Node6</title>
<g id="a_Node000006"><a xlink:href="../../dc/dd6/classcom_1_1bank_1_1gui_1_1app_1_1_e_banking_app.html#af606e2bd044a63a8b202a0676581b02d" target="_top" xlink:title="Application entry point (Swing).">
<polygon fill="white" stroke="#666666" points="161.88,-32 23.62,-32 23.62,0 161.88,0 161.88,-32"/>
<text xml:space="preserve" text-anchor="start" x="31.62" y="-18.5" font-family="Helvetica,sans-Serif" font-size="10.00">com.bank.gui.app.EBanking</text>
<text xml:space="preserve" text-anchor="middle" x="92.75" y="-6.5" font-family="Helvetica,sans-Serif" font-size="10.00">App.main</text>
</a>
</g>
</g>
<!-- Node4&#45;&gt;Node6 -->
<g id="edge6_Node000004_Node000006" class="edge">
<title>Node4&#45;&gt;Node6</title>
<g id="a_edge6_Node000004_Node000006"><a xlink:title=" ">
<path fill="none" stroke="#63b8ff" d="M215.65,-37.66C197.59,-34.45 179.1,-31.16 162.14,-28.15"/>
<polygon fill="#63b8ff" stroke="#63b8ff" points="214.86,-41.07 225.32,-39.38 216.09,-34.18 214.86,-41.07"/>
</a>
</g>
</g>
</g>
</svg>
