<?xml version="1.0" encoding="UTF-8" standalone="no"?>
<!DOCTYPE svg PUBLIC "-//W3C//DTD SVG 1.1//EN"
 "http://www.w3.org/Graphics/SVG/1.1/DTD/svg11.dtd">
<!-- Generated by graphviz version 14.0.1 (20251006.0113)
 -->
<!-- Title: com.bank.model.bills.Bill.getPaymentCode Pages: 1 -->
<svg width="604pt" height="302pt"
 viewBox="0.00 0.00 604.00 302.00" xmlns="http://www.w3.org/2000/svg" xmlns:xlink="http://www.w3.org/1999/xlink">
<g id="graph0" class="graph" transform="scale(1 1) rotate(0) translate(4 298)">
<title>com.bank.model.bills.Bill.getPaymentCode</title>
<!-- Node1 -->
<g id="Node000001" class="node">
<title>Node1</title>
<g id="a_Node000001"><a xlink:title=" ">
<polygon fill="#999999" stroke="#666666" points="595.5,-182 454.25,-182 454.25,-150 595.5,-150 595.5,-182"/>
<text xml:space="preserve" text-anchor="start" x="462.25" y="-168.5" font-family="Helvetica,sans-Serif" font-size="10.00">com.bank.model.bills.Bill.get</text>
<text xml:space="preserve" text-anchor="middle" x="524.88" y="-156.5" font-family="Helvetica,sans-Serif" font-size="10.00">PaymentCode</text>
</a>
</g>
</g>
<!-- Node2 -->
<g id="Node000002" class="node">
<title>Node2</title>
<g id="a_Node000002"><a xlink:href="../../dc/d48/classcom_1_1bank_1_1manager_1_1_bill_manager.html#abff1fcc6244988c55e92bb56be27ecae" target="_top" xlink:title="Issues (creates or replaces) a bill and persists it.">
<polygon fill="white" stroke="#666666" points="418.25,-271 221.5,-271 221.5,-251 418.25,-251 418.25,-271"/>
<text xml:space="preserve" text-anchor="middle" x="319.88" y="-257.5" font-family="Helvetica,sans-Serif" font-size="10.00">com.bank.manager.BillManager.createBill</text>
</a>
</g>
</g>
<!-- Node1&#45;&gt;Node2 -->
<g id="edge1_Node000001_Node000002" class="edge">
<title>Node1&#45;&gt;Node2</title>
<g id="a_edge1_Node000001_Node000002"><a xlink:title=" ">
<path fill="none" stroke="#63b8ff" d="M488.88,-188.43C468.72,-200.79 442.62,-215.83 418.25,-227 398.07,-236.25 374.59,-244.52 355.75,-250.58"/>
<polygon fill="#63b8ff" stroke="#63b8ff" points="490.61,-191.48 497.27,-183.23 486.92,-185.53 490.61,-191.48"/>
</a>
</g>
</g>
<!-- Node4 -->
<g id="Node000004" class="node">
<title>Node4</title>
<g id="a_Node000004"><a xlink:href="../../dc/d2a/classcom_1_1bank_1_1model_1_1orders_1_1_payment_order.html#a439eabdedf52f8c33708338984440c6e" target="_top" xlink:title="Executes the payment order on the specified payment day.">
<polygon fill="white" stroke="#666666" points="172.75,-232 12.75,-232 12.75,-200 172.75,-200 172.75,-232"/>
<text xml:space="preserve" text-anchor="start" x="20.75" y="-218.5" font-family="Helvetica,sans-Serif" font-size="10.00">com.bank.model.orders.Payment</text>
<text xml:space="preserve" text-anchor="middle" x="92.75" y="-206.5" font-family="Helvetica,sans-Serif" font-size="10.00">Order.execute</text>
</a>
</g>
</g>
<!-- Node1&#45;&gt;Node4 -->
<g id="edge3_Node000001_Node000004" class="edge">
<title>Node1&#45;&gt;Node4</title>
<g id="a_edge3_Node000001_Node000004"><a xlink:title=" ">
<path fill="none" stroke="#63b8ff" d="M450.31,-184.95C439.61,-187.26 428.68,-189.37 418.25,-191 335.2,-203.95 239.11,-210.29 173.16,-213.33"/>
<polygon fill="#63b8ff" stroke="#63b8ff" points="450.88,-188.41 459.88,-182.82 449.36,-181.58 450.88,-188.41"/>
</a>
</g>
</g>
<!-- Node5 -->
<g id="Node000005" class="node">
<title>Node5</title>
<g id="a_Node000005"><a xlink:href="../../dc/d48/classcom_1_1bank_1_1manager_1_1_bill_manager.html#a9e1ae7cd2460652d88fd043dca6d4dc5" target="_top" xlink:title="Finds a bill by its RF/paymentCode among all bills.">
<polygon fill="white" stroke="#666666" points="404.75,-182 235,-182 235,-150 404.75,-150 404.75,-182"/>
<text xml:space="preserve" text-anchor="start" x="243" y="-168.5" font-family="Helvetica,sans-Serif" font-size="10.00">com.bank.manager.BillManager.get</text>
<text xml:space="preserve" text-anchor="middle" x="319.88" y="-156.5" font-family="Helvetica,sans-Serif" font-size="10.00">BillByRF</text>
</a>
</g>
</g>
<!-- Node1&#45;&gt;Node5 -->
<g id="edge4_Node000001_Node000005" class="edge">
<title>Node1&#45;&gt;Node5</title>
<g id="a_edge4_Node000001_Node000005"><a xlink:title=" ">
<path fill="none" stroke="#63b8ff" d="M442.8,-166C430.44,-166 417.66,-166 405.23,-166"/>
<polygon fill="#63b8ff" stroke="#63b8ff" points="442.5,-169.5 452.5,-166 442.5,-162.5 442.5,-169.5"/>
</a>
</g>
</g>
<!-- Node8 -->
<g id="Node000008" class="node">
<title>Node8</title>
<g id="a_Node000008"><a xlink:href="../../dc/d48/classcom_1_1bank_1_1manager_1_1_bill_manager.html#a0a16b9f5e89eb52128535fa13f8e558f" target="_top" xlink:title="Loads bills from global ledgers and daily files; rebuilds in&#45;memory state.">
<polygon fill="white" stroke="#666666" points="407,-132 232.75,-132 232.75,-100 407,-100 407,-132"/>
<text xml:space="preserve" text-anchor="start" x="240.75" y="-118.5" font-family="Helvetica,sans-Serif" font-size="10.00">com.bank.manager.BillManager.load</text>
<text xml:space="preserve" text-anchor="middle" x="319.88" y="-106.5" font-family="Helvetica,sans-Serif" font-size="10.00">Bills</text>
</a>
</g>
</g>
<!-- Node1&#45;&gt;Node8 -->
<g id="edge8_Node000001_Node000008" class="edge">
<title>Node1&#45;&gt;Node8</title>
<g id="a_edge8_Node000001_Node000008"><a xlink:title=" ">
<path fill="none" stroke="#63b8ff" d="M445.96,-146.81C426.74,-142.07 406.31,-137.04 387.67,-132.45"/>
<polygon fill="#63b8ff" stroke="#63b8ff" points="445.11,-150.2 455.65,-149.2 446.78,-143.41 445.11,-150.2"/>
</a>
</g>
</g>
<!-- Node11 -->
<g id="Node000011" class="node">
<title>Node11</title>
<g id="a_Node000011"><a xlink:href="../../dc/d48/classcom_1_1bank_1_1manager_1_1_bill_manager.html#abe21beb814dcc20d159493f761fff0f7" target="_top" xlink:title="Marks a bill as paid and persists updates.">
<polygon fill="white" stroke="#666666" points="412.62,-82 227.12,-82 227.12,-62 412.62,-62 412.62,-82"/>
<text xml:space="preserve" text-anchor="middle" x="319.88" y="-68.5" font-family="Helvetica,sans-Serif" font-size="10.00">com.bank.manager.BillManager.payBill</text>
</a>
</g>
</g>
<!-- Node1&#45;&gt;Node11 -->
<g id="edge12_Node000001_Node000011" class="edge">
<title>Node1&#45;&gt;Node11</title>
<g id="a_edge12_Node000001_Node000011"><a xlink:title=" ">
<path fill="none" stroke="#63b8ff" d="M497.25,-142.19C476.98,-125.35 447.65,-103.6 418.25,-91 410.26,-87.57 401.63,-84.76 392.92,-82.45"/>
<polygon fill="#63b8ff" stroke="#63b8ff" points="494.85,-144.75 504.74,-148.55 499.38,-139.41 494.85,-144.75"/>
</a>
</g>
</g>
<!-- Node3 -->
<g id="Node000003" class="node">
<title>Node3</title>
<g id="a_Node000003"><a xlink:href="../../d1/d1f/classcom_1_1bank_1_1gui_1_1view_1_1panel_1_1_company_issue_bill_panel.html#a645fecb7696c87072389cb264b36bd77" target="_top" xlink:title="Δημιουργεί panel έκδοσης λογαριασμού για εταιρικό χρήστη.">
<polygon fill="white" stroke="#666666" points="175.38,-294 10.12,-294 10.12,-250 175.38,-250 175.38,-294"/>
<text xml:space="preserve" text-anchor="start" x="18.12" y="-280.5" font-family="Helvetica,sans-Serif" font-size="10.00">com.bank.gui.view.panel.</text>
<text xml:space="preserve" text-anchor="start" x="18.12" y="-268.5" font-family="Helvetica,sans-Serif" font-size="10.00">CompanyIssueBillPanel.Company</text>
<text xml:space="preserve" text-anchor="middle" x="92.75" y="-256.5" font-family="Helvetica,sans-Serif" font-size="10.00">IssueBillPanel</text>
</a>
</g>
</g>
<!-- Node2&#45;&gt;Node3 -->
<g id="edge2_Node000002_Node000003" class="edge">
<title>Node2&#45;&gt;Node3</title>
<g id="a_edge2_Node000002_Node000003"><a xlink:title=" ">
<path fill="none" stroke="#63b8ff" d="M209.67,-266.34C198.2,-266.9 186.67,-267.46 175.58,-268"/>
<polygon fill="#63b8ff" stroke="#63b8ff" points="209.79,-269.83 219.6,-265.85 209.44,-262.84 209.79,-269.83"/>
</a>
</g>
</g>
<!-- Node5&#45;&gt;Node4 -->
<g id="edge6_Node000005_Node000004" class="edge">
<title>Node5&#45;&gt;Node4</title>
<g id="a_edge6_Node000005_Node000004"><a xlink:title=" ">
<path fill="none" stroke="#63b8ff" d="M233.67,-184.92C212,-189.74 188.89,-194.87 167.82,-199.55"/>
<polygon fill="#63b8ff" stroke="#63b8ff" points="234.37,-188.35 243.37,-182.77 232.85,-181.52 234.37,-188.35"/>
</a>
</g>
</g>
<!-- Node6 -->
<g id="Node000006" class="node">
<title>Node6</title>
<g id="a_Node000006"><a xlink:href="../../dd/d30/classcom_1_1bank_1_1gui_1_1view_1_1panel_1_1_admin_pay_bill_panel.html#a973563a6943f3648632453279e518cb1" target="_top" xlink:title="Δημιουργεί το panel πληρωμής λογαριασμού από Admin.">
<polygon fill="white" stroke="#666666" points="185.5,-132 0,-132 0,-100 185.5,-100 185.5,-132"/>
<text xml:space="preserve" text-anchor="start" x="8" y="-118.5" font-family="Helvetica,sans-Serif" font-size="10.00">com.bank.gui.view.panel.</text>
<text xml:space="preserve" text-anchor="middle" x="92.75" y="-106.5" font-family="Helvetica,sans-Serif" font-size="10.00">AdminPayBillPanel.AdminPayBillPanel</text>
</a>
</g>
</g>
<!-- Node5&#45;&gt;Node6 -->
<g id="edge5_Node000005_Node000006" class="edge">
<title>Node5&#45;&gt;Node6</title>
<g id="a_edge5_Node000005_Node000006"><a xlink:title=" ">
<path fill="none" stroke="#63b8ff" d="M233.67,-147.08C212,-142.26 188.89,-137.13 167.82,-132.45"/>
<polygon fill="#63b8ff" stroke="#63b8ff" points="232.85,-150.48 243.37,-149.23 234.37,-143.65 232.85,-150.48"/>
</a>
</g>
</g>
<!-- Node7 -->
<g id="Node000007" class="node">
<title>Node7</title>
<g id="a_Node000007"><a xlink:href="../../dc/dd6/classcom_1_1bank_1_1gui_1_1view_1_1panel_1_1_pay_bill_panel.html#a36e2af99e6d3c4df782013e94e77f6a4" target="_top" xlink:title="Δημιουργεί panel για πληρωμή λογαριασμού με RF code.">
<polygon fill="white" stroke="#666666" points="157.75,-182 27.75,-182 27.75,-150 157.75,-150 157.75,-182"/>
<text xml:space="preserve" text-anchor="start" x="35.75" y="-168.5" font-family="Helvetica,sans-Serif" font-size="10.00">com.bank.gui.view.panel.</text>
<text xml:space="preserve" text-anchor="middle" x="92.75" y="-156.5" font-family="Helvetica,sans-Serif" font-size="10.00">PayBillPanel.PayBillPanel</text>
</a>
</g>
</g>
<!-- Node5&#45;&gt;Node7 -->
<g id="edge7_Node000005_Node000007" class="edge">
<title>Node5&#45;&gt;Node7</title>
<g id="a_edge7_Node000005_Node000007"><a xlink:title=" ">
<path fill="none" stroke="#63b8ff" d="M223.32,-166C201.32,-166 178.42,-166 158.11,-166"/>
<polygon fill="#63b8ff" stroke="#63b8ff" points="223.21,-169.5 233.21,-166 223.21,-162.5 223.21,-169.5"/>
</a>
</g>
</g>
<!-- Node8&#45;&gt;Node6 -->
<g id="edge9_Node000008_Node000006" class="edge">
<title>Node8&#45;&gt;Node6</title>
<g id="a_edge9_Node000008_Node000006"><a xlink:title=" ">
<path fill="none" stroke="#63b8ff" d="M221.3,-116C209.54,-116 197.57,-116 185.9,-116"/>
<polygon fill="#63b8ff" stroke="#63b8ff" points="220.97,-119.5 230.97,-116 220.97,-112.5 220.97,-119.5"/>
</a>
</g>
</g>
<!-- Node9 -->
<g id="Node000009" class="node">
<title>Node9</title>
<g id="a_Node000009"><a xlink:href="../../dc/d48/classcom_1_1bank_1_1manager_1_1_bill_manager.html#ac5b29442abb03e824dea42ee7b7d0ab0" target="_top" xlink:title="Constructs the manager and loads persisted state.">
<polygon fill="white" stroke="#666666" points="170.88,-82 14.62,-82 14.62,-50 170.88,-50 170.88,-82"/>
<text xml:space="preserve" text-anchor="start" x="22.62" y="-68.5" font-family="Helvetica,sans-Serif" font-size="10.00">com.bank.manager.BillManager.</text>
<text xml:space="preserve" text-anchor="middle" x="92.75" y="-56.5" font-family="Helvetica,sans-Serif" font-size="10.00">BillManager</text>
</a>
</g>
</g>
<!-- Node8&#45;&gt;Node9 -->
<g id="edge10_Node000008_Node000009" class="edge">
<title>Node8&#45;&gt;Node9</title>
<g id="a_edge10_Node000008_Node000009"><a xlink:title=" ">
<path fill="none" stroke="#63b8ff" d="M233.67,-97.08C212,-92.26 188.89,-87.13 167.82,-82.45"/>
<polygon fill="#63b8ff" stroke="#63b8ff" points="232.85,-100.48 243.37,-99.23 234.37,-93.65 232.85,-100.48"/>
</a>
</g>
</g>
<!-- Node10 -->
<g id="Node000010" class="node">
<title>Node10</title>
<g id="a_Node000010"><a xlink:href="../../dc/dd6/classcom_1_1bank_1_1gui_1_1app_1_1_e_banking_app.html#af606e2bd044a63a8b202a0676581b02d" target="_top" xlink:title="Application entry point (Swing).">
<polygon fill="white" stroke="#666666" points="161.88,-32 23.62,-32 23.62,0 161.88,0 161.88,-32"/>
<text xml:space="preserve" text-anchor="start" x="31.62" y="-18.5" font-family="Helvetica,sans-Serif" font-size="10.00">com.bank.gui.app.EBanking</text>
<text xml:space="preserve" text-anchor="middle" x="92.75" y="-6.5" font-family="Helvetica,sans-Serif" font-size="10.00">App.main</text>
</a>
</g>
</g>
<!-- Node8&#45;&gt;Node10 -->
<g id="edge11_Node000008_Node000010" class="edge">
<title>Node8&#45;&gt;Node10</title>
<g id="a_edge11_Node000008_Node000010"><a xlink:title=" ">
<path fill="none" stroke="#63b8ff" d="M227.01,-94.48C225.12,-93.38 223.28,-92.22 221.5,-91 198.89,-75.56 208,-56.61 185.5,-41 178.45,-36.11 170.47,-32.17 162.24,-29"/>
<polygon fill="#63b8ff" stroke="#63b8ff" points="224.93,-97.35 235.42,-98.84 228.15,-91.13 224.93,-97.35"/>
</a>
</g>
</g>
</g>
</svg>
