<?xml version="1.0" encoding="UTF-8" standalone="no"?>
<!DOCTYPE svg PUBLIC "-//W3C//DTD SVG 1.1//EN"
 "http://www.w3.org/Graphics/SVG/1.1/DTD/svg11.dtd">
<!-- Generated by graphviz version 14.0.1 (20251006.0113)
 -->
<!-- Title: gui/view/panel/AdminCreateAccountPanel.java Pages: 1 -->
<svg width="791pt" height="108pt"
 viewBox="0.00 0.00 791.00 108.00" xmlns="http://www.w3.org/2000/svg" xmlns:xlink="http://www.w3.org/1999/xlink">
<g id="graph0" class="graph" transform="scale(1 1) rotate(0) translate(4 104)">
<title>gui/view/panel/AdminCreateAccountPanel.java</title>
<!-- Node1 -->
<g id="Node000001" class="node">
<title>Node1</title>
<g id="a_Node000001"><a xlink:title=" ">
<polygon fill="#999999" stroke="#666666" points="547.25,-100 409,-100 409,-68 547.25,-68 547.25,-100"/>
<text xml:space="preserve" text-anchor="start" x="417" y="-86.5" font-family="Helvetica,sans-Serif" font-size="10.00">gui/view/panel/AdminCreate</text>
<text xml:space="preserve" text-anchor="middle" x="478.12" y="-74.5" font-family="Helvetica,sans-Serif" font-size="10.00">AccountPanel.java</text>
</a>
</g>
</g>
<!-- Node2 -->
<g id="Node000002" class="node">
<title>Node2</title>
<g id="a_Node000002"><a xlink:title=" ">
<polygon fill="#e0e0e0" stroke="#999999" points="138.25,-32 0,-32 0,0 138.25,0 138.25,-32"/>
<text xml:space="preserve" text-anchor="start" x="8" y="-18.5" font-family="Helvetica,sans-Serif" font-size="10.00">com.bank.manager.Account</text>
<text xml:space="preserve" text-anchor="middle" x="69.12" y="-6.5" font-family="Helvetica,sans-Serif" font-size="10.00">Manager</text>
</a>
</g>
</g>
<!-- Node1&#45;&gt;Node2 -->
<g id="edge1_Node000001_Node000002" class="edge">
<title>Node1&#45;&gt;Node2</title>
<g id="a_edge1_Node000001_Node000002"><a xlink:title=" ">
<path fill="none" stroke="#63b8ff" d="M408.8,-72.99C344.43,-63.54 245.63,-48.62 149.56,-32.21"/>
<polygon fill="#63b8ff" stroke="#63b8ff" points="150.4,-28.8 139.95,-30.56 149.22,-35.7 150.4,-28.8"/>
</a>
</g>
</g>
<!-- Node3 -->
<g id="Node000003" class="node">
<title>Node3</title>
<g id="a_Node000003"><a xlink:title=" ">
<polygon fill="#e0e0e0" stroke="#999999" points="317.5,-26 156.75,-26 156.75,-6 317.5,-6 317.5,-26"/>
<text xml:space="preserve" text-anchor="middle" x="237.12" y="-12.5" font-family="Helvetica,sans-Serif" font-size="10.00">com.bank.manager.UserManager</text>
</a>
</g>
</g>
<!-- Node1&#45;&gt;Node3 -->
<g id="edge2_Node000001_Node000003" class="edge">
<title>Node1&#45;&gt;Node3</title>
<g id="a_edge2_Node000001_Node000003"><a xlink:title=" ">
<path fill="none" stroke="#63b8ff" d="M421.62,-67.53C379.24,-55.92 321.97,-40.24 282.54,-29.44"/>
<polygon fill="#63b8ff" stroke="#63b8ff" points="283.7,-26.13 273.13,-26.86 281.85,-32.88 283.7,-26.13"/>
</a>
</g>
</g>
<!-- Node4 -->
<g id="Node000004" class="node">
<title>Node4</title>
<g id="a_Node000004"><a xlink:title=" ">
<polygon fill="#e0e0e0" stroke="#999999" points="472.88,-26 335.38,-26 335.38,-6 472.88,-6 472.88,-26"/>
<text xml:space="preserve" text-anchor="middle" x="404.12" y="-12.5" font-family="Helvetica,sans-Serif" font-size="10.00">com.bank.model.accounts.*</text>
</a>
</g>
</g>
<!-- Node1&#45;&gt;Node4 -->
<g id="edge3_Node000001_Node000004" class="edge">
<title>Node1&#45;&gt;Node4</title>
<g id="a_edge3_Node000001_Node000004"><a xlink:title=" ">
<path fill="none" stroke="#63b8ff" d="M460.96,-67.69C449.64,-57.6 434.81,-44.36 423.13,-33.95"/>
<polygon fill="#63b8ff" stroke="#63b8ff" points="425.49,-31.37 415.7,-27.32 420.83,-36.59 425.49,-31.37"/>
</a>
</g>
</g>
<!-- Node5 -->
<g id="Node000005" class="node">
<title>Node5</title>
<g id="a_Node000005"><a xlink:title=" ">
<polygon fill="#e0e0e0" stroke="#999999" points="613,-26 491.25,-26 491.25,-6 613,-6 613,-26"/>
<text xml:space="preserve" text-anchor="middle" x="552.12" y="-12.5" font-family="Helvetica,sans-Serif" font-size="10.00">com.bank.model.users.*</text>
</a>
</g>
</g>
<!-- Node1&#45;&gt;Node5 -->
<g id="edge4_Node000001_Node000005" class="edge">
<title>Node1&#45;&gt;Node5</title>
<g id="a_edge4_Node000001_Node000005"><a xlink:title=" ">
<path fill="none" stroke="#63b8ff" d="M495.29,-67.69C506.61,-57.6 521.44,-44.36 533.12,-33.95"/>
<polygon fill="#63b8ff" stroke="#63b8ff" points="535.42,-36.59 540.55,-27.32 530.76,-31.37 535.42,-36.59"/>
</a>
</g>
</g>
<!-- Node6 -->
<g id="Node000006" class="node">
<title>Node6</title>
<g id="a_Node000006"><a xlink:title=" ">
<polygon fill="#e0e0e0" stroke="#999999" points="705.38,-26 630.88,-26 630.88,-6 705.38,-6 705.38,-26"/>
<text xml:space="preserve" text-anchor="middle" x="668.12" y="-12.5" font-family="Helvetica,sans-Serif" font-size="10.00">javax.swing.*</text>
</a>
</g>
</g>
<!-- Node1&#45;&gt;Node6 -->
<g id="edge5_Node000001_Node000006" class="edge">
<title>Node1&#45;&gt;Node6</title>
<g id="a_edge5_Node000001_Node000006"><a xlink:title=" ">
<path fill="none" stroke="#63b8ff" d="M522.67,-67.53C555.3,-56.19 599.11,-40.97 630.1,-30.21"/>
<polygon fill="#63b8ff" stroke="#63b8ff" points="631.16,-33.54 639.46,-26.96 628.87,-26.93 631.16,-33.54"/>
</a>
</g>
</g>
<!-- Node7 -->
<g id="Node000007" class="node">
<title>Node7</title>
<g id="a_Node000007"><a xlink:title=" ">
<polygon fill="#e0e0e0" stroke="#999999" points="782.88,-26 723.38,-26 723.38,-6 782.88,-6 782.88,-26"/>
<text xml:space="preserve" text-anchor="middle" x="753.12" y="-12.5" font-family="Helvetica,sans-Serif" font-size="10.00">java.awt.*</text>
</a>
</g>
</g>
<!-- Node1&#45;&gt;Node7 -->
<g id="edge6_Node000001_Node000007" class="edge">
<title>Node1&#45;&gt;Node7</title>
<g id="a_edge6_Node000001_Node000007"><a xlink:title=" ">
<path fill="none" stroke="#63b8ff" d="M547.51,-70.93C594.91,-61.97 658.89,-48.48 714.12,-32 715.86,-31.48 717.62,-30.92 719.4,-30.34"/>
<polygon fill="#63b8ff" stroke="#63b8ff" points="720.56,-33.64 728.81,-26.99 718.21,-27.04 720.56,-33.64"/>
</a>
</g>
</g>
</g>
</svg>
