<?xml version="1.0" encoding="UTF-8" standalone="no"?>
<!DOCTYPE svg PUBLIC "-//W3C//DTD SVG 1.1//EN"
 "http://www.w3.org/Graphics/SVG/1.1/DTD/svg11.dtd">
<!-- Generated by graphviz version 14.0.1 (20251006.0113)
 -->
<!-- Title: cli/AdminMenu.java Pages: 1 -->
<svg width="1067pt" height="96pt"
 viewBox="0.00 0.00 1067.00 96.00" xmlns="http://www.w3.org/2000/svg" xmlns:xlink="http://www.w3.org/1999/xlink">
<g id="graph0" class="graph" transform="scale(1 1) rotate(0) translate(4 92)">
<title>cli/AdminMenu.java</title>
<!-- Node1 -->
<g id="Node000001" class="node">
<title>Node1</title>
<g id="a_Node000001"><a xlink:title=" ">
<polygon fill="#999999" stroke="#666666" points="638.75,-88 537.25,-88 537.25,-68 638.75,-68 638.75,-88"/>
<text xml:space="preserve" text-anchor="middle" x="588" y="-74.5" font-family="Helvetica,sans-Serif" font-size="10.00">cli/AdminMenu.java</text>
</a>
</g>
</g>
<!-- Node2 -->
<g id="Node000002" class="node">
<title>Node2</title>
<g id="a_Node000002"><a xlink:title=" ">
<polygon fill="#e0e0e0" stroke="#999999" points="106,-26 0,-26 0,-6 106,-6 106,-26"/>
<text xml:space="preserve" text-anchor="middle" x="53" y="-12.5" font-family="Helvetica,sans-Serif" font-size="10.00">com.bank.manager.*</text>
</a>
</g>
</g>
<!-- Node1&#45;&gt;Node2 -->
<g id="edge1_Node000001_Node000002" class="edge">
<title>Node1&#45;&gt;Node2</title>
<g id="a_edge1_Node000001_Node000002"><a xlink:title=" ">
<path fill="none" stroke="#63b8ff" d="M536.94,-74.53C449.88,-69.79 267.33,-57.54 115,-32 109.81,-31.13 104.41,-30.07 99.06,-28.91"/>
<polygon fill="#63b8ff" stroke="#63b8ff" points="100.23,-25.59 89.71,-26.78 98.68,-32.41 100.23,-25.59"/>
</a>
</g>
</g>
<!-- Node3 -->
<g id="Node000003" class="node">
<title>Node3</title>
<g id="a_Node000003"><a xlink:title=" ">
<polygon fill="#e0e0e0" stroke="#999999" points="261.75,-26 124.25,-26 124.25,-6 261.75,-6 261.75,-26"/>
<text xml:space="preserve" text-anchor="middle" x="193" y="-12.5" font-family="Helvetica,sans-Serif" font-size="10.00">com.bank.model.accounts.*</text>
</a>
</g>
</g>
<!-- Node1&#45;&gt;Node3 -->
<g id="edge2_Node000001_Node000003" class="edge">
<title>Node1&#45;&gt;Node3</title>
<g id="a_edge2_Node000001_Node000003"><a xlink:title=" ">
<path fill="none" stroke="#63b8ff" d="M536.93,-70.6C474,-62.53 363.89,-47.78 270,-32 263.63,-30.93 256.98,-29.74 250.37,-28.52"/>
<polygon fill="#63b8ff" stroke="#63b8ff" points="251.31,-25.13 240.83,-26.71 250.01,-32.01 251.31,-25.13"/>
</a>
</g>
</g>
<!-- Node4 -->
<g id="Node000004" class="node">
<title>Node4</title>
<g id="a_Node000004"><a xlink:title=" ">
<polygon fill="#e0e0e0" stroke="#999999" points="438.62,-32 279.38,-32 279.38,0 438.62,0 438.62,-32"/>
<text xml:space="preserve" text-anchor="start" x="287.38" y="-18.5" font-family="Helvetica,sans-Serif" font-size="10.00">com.bank.model.orders.Standing</text>
<text xml:space="preserve" text-anchor="middle" x="359" y="-6.5" font-family="Helvetica,sans-Serif" font-size="10.00">Order</text>
</a>
</g>
</g>
<!-- Node1&#45;&gt;Node4 -->
<g id="edge3_Node000001_Node000004" class="edge">
<title>Node1&#45;&gt;Node4</title>
<g id="a_edge3_Node000001_Node000004"><a xlink:title=" ">
<path fill="none" stroke="#63b8ff" d="M551.97,-67.56C519.08,-58.94 469.57,-45.97 428.92,-35.32"/>
<polygon fill="#63b8ff" stroke="#63b8ff" points="430.01,-31.99 419.45,-32.84 428.24,-38.76 430.01,-31.99"/>
</a>
</g>
</g>
<!-- Node5 -->
<g id="Node000005" class="node">
<title>Node5</title>
<g id="a_Node000005"><a xlink:title=" ">
<polygon fill="#e0e0e0" stroke="#999999" points="578.88,-26 457.12,-26 457.12,-6 578.88,-6 578.88,-26"/>
<text xml:space="preserve" text-anchor="middle" x="518" y="-12.5" font-family="Helvetica,sans-Serif" font-size="10.00">com.bank.model.users.*</text>
</a>
</g>
</g>
<!-- Node1&#45;&gt;Node5 -->
<g id="edge4_Node000001_Node000005" class="edge">
<title>Node1&#45;&gt;Node5</title>
<g id="a_edge4_Node000001_Node000005"><a xlink:title=" ">
<path fill="none" stroke="#63b8ff" d="M577.06,-67.62C566.42,-58.5 550.02,-44.45 537.2,-33.46"/>
<polygon fill="#63b8ff" stroke="#63b8ff" points="539.65,-30.95 529.78,-27.1 535.1,-36.26 539.65,-30.95"/>
</a>
</g>
</g>
<!-- Node6 -->
<g id="Node000006" class="node">
<title>Node6</title>
<g id="a_Node000006"><a xlink:title=" ">
<polygon fill="#e0e0e0" stroke="#999999" points="720.62,-32 597.38,-32 597.38,0 720.62,0 720.62,-32"/>
<text xml:space="preserve" text-anchor="start" x="605.38" y="-18.5" font-family="Helvetica,sans-Serif" font-size="10.00">com.bank.utilities.Global</text>
<text xml:space="preserve" text-anchor="middle" x="659" y="-6.5" font-family="Helvetica,sans-Serif" font-size="10.00">Clock</text>
</a>
</g>
</g>
<!-- Node1&#45;&gt;Node6 -->
<g id="edge5_Node000001_Node000006" class="edge">
<title>Node1&#45;&gt;Node6</title>
<g id="a_edge5_Node000001_Node000006"><a xlink:title=" ">
<path fill="none" stroke="#63b8ff" d="M599.09,-67.62C607.98,-60.11 620.83,-49.26 632.35,-39.52"/>
<polygon fill="#63b8ff" stroke="#63b8ff" points="634.27,-42.48 639.65,-33.35 629.75,-37.13 634.27,-42.48"/>
</a>
</g>
</g>
<!-- Node7 -->
<g id="Node000007" class="node">
<title>Node7</title>
<g id="a_Node000007"><a xlink:title=" ">
<polygon fill="#e0e0e0" stroke="#999999" points="863.38,-26 738.62,-26 738.62,-6 863.38,-6 863.38,-26"/>
<text xml:space="preserve" text-anchor="middle" x="801" y="-12.5" font-family="Helvetica,sans-Serif" font-size="10.00">com.bank.model.bills.Bill</text>
</a>
</g>
</g>
<!-- Node1&#45;&gt;Node7 -->
<g id="edge6_Node000001_Node000007" class="edge">
<title>Node1&#45;&gt;Node7</title>
<g id="a_edge6_Node000001_Node000007"><a xlink:title=" ">
<path fill="none" stroke="#63b8ff" d="M621.28,-67.62C657.75,-57.35 716.42,-40.82 756.75,-29.47"/>
<polygon fill="#63b8ff" stroke="#63b8ff" points="757.47,-32.9 766.14,-26.82 755.57,-26.16 757.47,-32.9"/>
</a>
</g>
</g>
<!-- Node8 -->
<g id="Node000008" class="node">
<title>Node8</title>
<g id="a_Node000008"><a xlink:title=" ">
<polygon fill="#e0e0e0" stroke="#999999" points="984.5,-26 881.5,-26 881.5,-6 984.5,-6 984.5,-26"/>
<text xml:space="preserve" text-anchor="middle" x="933" y="-12.5" font-family="Helvetica,sans-Serif" font-size="10.00">java.time.LocalDate</text>
</a>
</g>
</g>
<!-- Node1&#45;&gt;Node8 -->
<g id="edge7_Node000001_Node000008" class="edge">
<title>Node1&#45;&gt;Node8</title>
<g id="a_edge7_Node000001_Node000008"><a xlink:title=" ">
<path fill="none" stroke="#63b8ff" d="M639.02,-70.23C696.04,-62.36 791.01,-48.34 872,-32 876.38,-31.12 880.93,-30.13 885.47,-29.1"/>
<polygon fill="#63b8ff" stroke="#63b8ff" points="886.26,-32.51 895.19,-26.81 884.65,-25.69 886.26,-32.51"/>
</a>
</g>
</g>
<!-- Node9 -->
<g id="Node000009" class="node">
<title>Node9</title>
<g id="a_Node000009"><a xlink:title=" ">
<polygon fill="#e0e0e0" stroke="#999999" points="1059.25,-26 1002.75,-26 1002.75,-6 1059.25,-6 1059.25,-26"/>
<text xml:space="preserve" text-anchor="middle" x="1031" y="-12.5" font-family="Helvetica,sans-Serif" font-size="10.00">java.util.*</text>
</a>
</g>
</g>
<!-- Node1&#45;&gt;Node9 -->
<g id="edge8_Node000001_Node000009" class="edge">
<title>Node1&#45;&gt;Node9</title>
<g id="a_edge8_Node000001_Node000009"><a xlink:title=" ">
<path fill="none" stroke="#63b8ff" d="M639.11,-75.82C716.87,-73.02 869.04,-63.61 994,-32 995.98,-31.5 997.99,-30.91 1000.01,-30.27"/>
<polygon fill="#63b8ff" stroke="#63b8ff" points="1000.96,-33.65 1009.17,-26.95 998.58,-27.07 1000.96,-33.65"/>
</a>
</g>
</g>
</g>
</svg>
