<?xml version="1.0" encoding="UTF-8" standalone="no"?>
<!DOCTYPE svg PUBLIC "-//W3C//DTD SVG 1.1//EN"
 "http://www.w3.org/Graphics/SVG/1.1/DTD/svg11.dtd">
<!-- Generated by graphviz version 14.0.1 (20251006.0113)
 -->
<!-- Title: com.bank.gui.view.panel.AdminPayBillPanel.AdminPayBillPanel Pages: 1 -->
<svg width="624pt" height="516pt"
 viewBox="0.00 0.00 624.00 516.00" xmlns="http://www.w3.org/2000/svg" xmlns:xlink="http://www.w3.org/1999/xlink">
<g id="graph0" class="graph" transform="scale(1 1) rotate(0) translate(4 512)">
<title>com.bank.gui.view.panel.AdminPayBillPanel.AdminPayBillPanel</title>
<!-- Node1 -->
<g id="Node000001" class="node">
<title>Node1</title>
<g id="a_Node000001"><a xlink:title="Δημιουργεί το panel πληρωμής λογαριασμού από Admin.">
<polygon fill="#999999" stroke="#666666" points="185.5,-258 0,-258 0,-226 185.5,-226 185.5,-258"/>
<text xml:space="preserve" text-anchor="start" x="8" y="-244.5" font-family="Helvetica,sans-Serif" font-size="10.00">com.bank.gui.view.panel.</text>
<text xml:space="preserve" text-anchor="middle" x="92.75" y="-232.5" font-family="Helvetica,sans-Serif" font-size="10.00">AdminPayBillPanel.AdminPayBillPanel</text>
</a>
</g>
</g>
<!-- Node2 -->
<g id="Node000002" class="node">
<title>Node2</title>
<g id="a_Node000002"><a xlink:href="../../d6/d0e/classcom_1_1bank_1_1manager_1_1_transaction_manager.html#a4ade645d8387a45e8026f0efd086c921" target="_top" xlink:title="Executes a transaction and records it in history.">
<polygon fill="white" stroke="#666666" points="392.38,-508 239.12,-508 239.12,-476 392.38,-476 392.38,-508"/>
<text xml:space="preserve" text-anchor="start" x="247.12" y="-494.5" font-family="Helvetica,sans-Serif" font-size="10.00">com.bank.manager.Transaction</text>
<text xml:space="preserve" text-anchor="middle" x="315.75" y="-482.5" font-family="Helvetica,sans-Serif" font-size="10.00">Manager.execute</text>
</a>
</g>
</g>
<!-- Node1&#45;&gt;Node2 -->
<g id="edge1_Node000001_Node000002" class="edge">
<title>Node1&#45;&gt;Node2</title>
<g id="a_edge1_Node000001_Node000002"><a xlink:title=" ">
<path fill="none" stroke="#63b8ff" d="M98.18,-258.22C110.37,-299.74 148.47,-410.54 221.5,-467 223.82,-468.79 226.26,-470.46 228.79,-472.01"/>
<polygon fill="#63b8ff" stroke="#63b8ff" points="227.14,-475.09 237.61,-476.69 230.42,-468.91 227.14,-475.09"/>
</a>
</g>
</g>
<!-- Node4 -->
<g id="Node000004" class="node">
<title>Node4</title>
<g id="a_Node000004"><a xlink:href="../../dd/db1/classcom_1_1bank_1_1manager_1_1_account_manager.html#a8a3ebf20f49b1718127736507683d480" target="_top" xlink:title="Finds an account by IBAN.">
<polygon fill="white" stroke="#666666" points="384.88,-458 246.62,-458 246.62,-426 384.88,-426 384.88,-458"/>
<text xml:space="preserve" text-anchor="start" x="254.62" y="-444.5" font-family="Helvetica,sans-Serif" font-size="10.00">com.bank.manager.Account</text>
<text xml:space="preserve" text-anchor="middle" x="315.75" y="-432.5" font-family="Helvetica,sans-Serif" font-size="10.00">Manager.findByIban</text>
</a>
</g>
</g>
<!-- Node1&#45;&gt;Node4 -->
<g id="edge3_Node000001_Node000004" class="edge">
<title>Node1&#45;&gt;Node4</title>
<g id="a_edge3_Node000001_Node000004"><a xlink:title=" ">
<path fill="none" stroke="#63b8ff" d="M100.99,-258.39C117.25,-293.23 160.07,-374.88 221.5,-417 225.93,-420.04 230.72,-422.71 235.7,-425.05"/>
<polygon fill="#63b8ff" stroke="#63b8ff" points="234.17,-428.21 244.74,-428.84 236.87,-421.75 234.17,-428.21"/>
</a>
</g>
</g>
<!-- Node6 -->
<g id="Node000006" class="node">
<title>Node6</title>
<g id="a_Node000006"><a xlink:href="../../db/d15/classcom_1_1bank_1_1manager_1_1_user_manager.html#afbdaa6e3428ae4884bb804b28b9c5535" target="_top" xlink:title="Finds a customer by VAT number.">
<polygon fill="white" stroke="#666666" points="405.5,-408 226,-408 226,-376 405.5,-376 405.5,-408"/>
<text xml:space="preserve" text-anchor="start" x="234" y="-394.5" font-family="Helvetica,sans-Serif" font-size="10.00">com.bank.manager.UserManager.find</text>
<text xml:space="preserve" text-anchor="middle" x="315.75" y="-382.5" font-family="Helvetica,sans-Serif" font-size="10.00">ByVat</text>
</a>
</g>
</g>
<!-- Node1&#45;&gt;Node6 -->
<g id="edge5_Node000001_Node000006" class="edge">
<title>Node1&#45;&gt;Node6</title>
<g id="a_edge5_Node000001_Node000006"><a xlink:title=" ">
<path fill="none" stroke="#63b8ff" d="M105.6,-258.08C126.16,-284.81 171.09,-338.26 221.5,-367 223.98,-368.42 226.55,-369.76 229.18,-371.02"/>
<polygon fill="#63b8ff" stroke="#63b8ff" points="227.62,-374.16 238.19,-374.94 230.41,-367.74 227.62,-374.16"/>
</a>
</g>
</g>
<!-- Node7 -->
<g id="Node000007" class="node">
<title>Node7</title>
<g id="a_Node000007"><a xlink:href="../../dd/db1/classcom_1_1bank_1_1manager_1_1_account_manager.html#a9cfb69758fe6d4532cba2d754cca7af2" target="_top" xlink:title="Returns all loaded accounts.">
<polygon fill="white" stroke="#666666" points="384.88,-358 246.62,-358 246.62,-326 384.88,-326 384.88,-358"/>
<text xml:space="preserve" text-anchor="start" x="254.62" y="-344.5" font-family="Helvetica,sans-Serif" font-size="10.00">com.bank.manager.Account</text>
<text xml:space="preserve" text-anchor="middle" x="315.75" y="-332.5" font-family="Helvetica,sans-Serif" font-size="10.00">Manager.getAllAccounts</text>
</a>
</g>
</g>
<!-- Node1&#45;&gt;Node7 -->
<g id="edge6_Node000001_Node000007" class="edge">
<title>Node1&#45;&gt;Node7</title>
<g id="a_edge6_Node000001_Node000007"><a xlink:title=" ">
<path fill="none" stroke="#63b8ff" d="M117.23,-258.4C142.12,-275.15 183.07,-300.91 221.5,-317 226.06,-318.91 230.8,-320.71 235.63,-322.4"/>
<polygon fill="#63b8ff" stroke="#63b8ff" points="234.27,-325.63 244.86,-325.45 236.47,-318.99 234.27,-325.63"/>
</a>
</g>
</g>
<!-- Node8 -->
<g id="Node000008" class="node">
<title>Node8</title>
<g id="a_Node000008"><a xlink:href="../../d3/dd4/classcom_1_1bank_1_1model_1_1bills_1_1_bill.html#aad5240cceb00c7c382167c877fd2f09e" target="_top" xlink:title=" ">
<polygon fill="white" stroke="#666666" points="386.38,-308 245.12,-308 245.12,-276 386.38,-276 386.38,-308"/>
<text xml:space="preserve" text-anchor="start" x="253.12" y="-294.5" font-family="Helvetica,sans-Serif" font-size="10.00">com.bank.model.bills.Bill.get</text>
<text xml:space="preserve" text-anchor="middle" x="315.75" y="-282.5" font-family="Helvetica,sans-Serif" font-size="10.00">Amount</text>
</a>
</g>
</g>
<!-- Node1&#45;&gt;Node8 -->
<g id="edge7_Node000001_Node000008" class="edge">
<title>Node1&#45;&gt;Node8</title>
<g id="a_edge7_Node000001_Node000008"><a xlink:title=" ">
<path fill="none" stroke="#63b8ff" d="M166.42,-258.44C187.94,-263.31 211.65,-268.67 233.67,-273.66"/>
<polygon fill="#63b8ff" stroke="#63b8ff" points="232.67,-277.02 243.19,-275.81 234.21,-270.19 232.67,-277.02"/>
</a>
</g>
</g>
<!-- Node9 -->
<g id="Node000009" class="node">
<title>Node9</title>
<g id="a_Node000009"><a xlink:href="../../da/d83/classcom_1_1bank_1_1model_1_1accounts_1_1_account.html#a9fb33a39fa4b91e75fc66a93ff23ae8b" target="_top" xlink:title=" ">
<polygon fill="white" stroke="#666666" points="382.62,-258 248.88,-258 248.88,-226 382.62,-226 382.62,-258"/>
<text xml:space="preserve" text-anchor="start" x="256.88" y="-244.5" font-family="Helvetica,sans-Serif" font-size="10.00">com.bank.model.accounts.</text>
<text xml:space="preserve" text-anchor="middle" x="315.75" y="-232.5" font-family="Helvetica,sans-Serif" font-size="10.00">Account.getBalance</text>
</a>
</g>
</g>
<!-- Node1&#45;&gt;Node9 -->
<g id="edge8_Node000001_Node000009" class="edge">
<title>Node1&#45;&gt;Node9</title>
<g id="a_edge8_Node000001_Node000009"><a xlink:title=" ">
<path fill="none" stroke="#63b8ff" d="M185.87,-242C203,-242 220.74,-242 237.37,-242"/>
<polygon fill="#63b8ff" stroke="#63b8ff" points="237.17,-245.5 247.17,-242 237.17,-238.5 237.17,-245.5"/>
</a>
</g>
</g>
<!-- Node10 -->
<g id="Node000010" class="node">
<title>Node10</title>
<g id="a_Node000010"><a xlink:href="../../dc/d48/classcom_1_1bank_1_1manager_1_1_bill_manager.html#a9e1ae7cd2460652d88fd043dca6d4dc5" target="_top" xlink:title="Finds a bill by its RF/paymentCode among all bills.">
<polygon fill="white" stroke="#666666" points="400.62,-208 230.88,-208 230.88,-176 400.62,-176 400.62,-208"/>
<text xml:space="preserve" text-anchor="start" x="238.88" y="-194.5" font-family="Helvetica,sans-Serif" font-size="10.00">com.bank.manager.BillManager.get</text>
<text xml:space="preserve" text-anchor="middle" x="315.75" y="-182.5" font-family="Helvetica,sans-Serif" font-size="10.00">BillByRF</text>
</a>
</g>
</g>
<!-- Node1&#45;&gt;Node10 -->
<g id="edge9_Node000001_Node000010" class="edge">
<title>Node1&#45;&gt;Node10</title>
<g id="a_edge9_Node000001_Node000010"><a xlink:title=" ">
<path fill="none" stroke="#63b8ff" d="M166.42,-225.56C187.1,-220.88 209.78,-215.75 231.06,-210.93"/>
<polygon fill="#63b8ff" stroke="#63b8ff" points="231.58,-214.41 240.56,-208.79 230.03,-207.58 231.58,-214.41"/>
</a>
</g>
</g>
<!-- Node13 -->
<g id="Node000013" class="node">
<title>Node13</title>
<g id="a_Node000013"><a xlink:href="../../d3/dd4/classcom_1_1bank_1_1model_1_1bills_1_1_bill.html#a51246f53268ef90f6c26803fd1121e5c" target="_top" xlink:title=" ">
<polygon fill="white" stroke="#666666" points="386.38,-158 245.12,-158 245.12,-126 386.38,-126 386.38,-158"/>
<text xml:space="preserve" text-anchor="start" x="253.12" y="-144.5" font-family="Helvetica,sans-Serif" font-size="10.00">com.bank.model.bills.Bill.get</text>
<text xml:space="preserve" text-anchor="middle" x="315.75" y="-132.5" font-family="Helvetica,sans-Serif" font-size="10.00">Issuer</text>
</a>
</g>
</g>
<!-- Node1&#45;&gt;Node13 -->
<g id="edge12_Node000001_Node000013" class="edge">
<title>Node1&#45;&gt;Node13</title>
<g id="a_edge12_Node000001_Node000013"><a xlink:title=" ">
<path fill="none" stroke="#63b8ff" d="M117.23,-225.6C142.12,-208.85 183.07,-183.09 221.5,-167 225.76,-165.22 230.19,-163.53 234.69,-161.93"/>
<polygon fill="#63b8ff" stroke="#63b8ff" points="235.49,-165.35 243.87,-158.86 233.27,-158.72 235.49,-165.35"/>
</a>
</g>
</g>
<!-- Node14 -->
<g id="Node000014" class="node">
<title>Node14</title>
<g id="a_Node000014"><a xlink:href="../../dc/d48/classcom_1_1bank_1_1manager_1_1_bill_manager.html#a0a16b9f5e89eb52128535fa13f8e558f" target="_top" xlink:title="Loads bills from global ledgers and daily files; rebuilds in&#45;memory state.">
<polygon fill="white" stroke="#666666" points="402.88,-108 228.62,-108 228.62,-76 402.88,-76 402.88,-108"/>
<text xml:space="preserve" text-anchor="start" x="236.62" y="-94.5" font-family="Helvetica,sans-Serif" font-size="10.00">com.bank.manager.BillManager.load</text>
<text xml:space="preserve" text-anchor="middle" x="315.75" y="-82.5" font-family="Helvetica,sans-Serif" font-size="10.00">Bills</text>
</a>
</g>
</g>
<!-- Node1&#45;&gt;Node14 -->
<g id="edge13_Node000001_Node000014" class="edge">
<title>Node1&#45;&gt;Node14</title>
<g id="a_edge13_Node000001_Node000014"><a xlink:title=" ">
<path fill="none" stroke="#63b8ff" d="M105.6,-225.92C126.16,-199.19 171.09,-145.74 221.5,-117 223.98,-115.58 226.55,-114.24 229.18,-112.98"/>
<polygon fill="#63b8ff" stroke="#63b8ff" points="230.41,-116.26 238.19,-109.06 227.62,-109.84 230.41,-116.26"/>
</a>
</g>
</g>
<!-- Node15 -->
<g id="Node000015" class="node">
<title>Node15</title>
<g id="a_Node000015"><a xlink:href="../../d3/dd4/classcom_1_1bank_1_1model_1_1bills_1_1_bill.html#a0d03ed4f25d34f88efec757d7f88a348" target="_top" xlink:title=" ">
<polygon fill="white" stroke="#666666" points="611.25,-80 450.5,-80 450.5,-60 611.25,-60 611.25,-80"/>
<text xml:space="preserve" text-anchor="middle" x="530.88" y="-66.5" font-family="Helvetica,sans-Serif" font-size="10.00">com.bank.model.bills.Bill.setPaid</text>
</a>
</g>
</g>
<!-- Node1&#45;&gt;Node15 -->
<g id="edge17_Node000001_Node000015" class="edge">
<title>Node1&#45;&gt;Node15</title>
<g id="a_edge17_Node000001_Node000015"><a xlink:title=" ">
<path fill="none" stroke="#63b8ff" d="M99.68,-225.71C113.98,-189.16 154.26,-101.16 221.5,-67 305.7,-24.22 420.29,-41.82 483.4,-56.9"/>
<polygon fill="#63b8ff" stroke="#63b8ff" points="482.18,-60.21 492.73,-59.22 483.86,-53.41 482.18,-60.21"/>
</a>
</g>
</g>
<!-- Node16 -->
<g id="Node000016" class="node">
<title>Node16</title>
<g id="a_Node000016"><a xlink:href="../../dc/d48/classcom_1_1bank_1_1manager_1_1_bill_manager.html#ae8eda57edbba75f404b5053d0f1a240f" target="_top" xlink:title="Persists in&#45;memory issued &amp; paid lists to global ledgers.">
<polygon fill="white" stroke="#666666" points="410,-20 221.5,-20 221.5,0 410,0 410,-20"/>
<text xml:space="preserve" text-anchor="middle" x="315.75" y="-6.5" font-family="Helvetica,sans-Serif" font-size="10.00">com.bank.manager.BillManager.saveAll</text>
</a>
</g>
</g>
<!-- Node1&#45;&gt;Node16 -->
<g id="edge16_Node000001_Node000016" class="edge">
<title>Node1&#45;&gt;Node16</title>
<g id="a_edge16_Node000001_Node000016"><a xlink:title=" ">
<path fill="none" stroke="#63b8ff" d="M99.01,-225.52C112.51,-185.95 152.29,-85.1 221.5,-34 226.46,-30.34 231.92,-27.23 237.65,-24.6"/>
<polygon fill="#63b8ff" stroke="#63b8ff" points="238.8,-27.91 246.77,-20.92 236.19,-21.42 238.8,-27.91"/>
</a>
</g>
</g>
<!-- Node3 -->
<g id="Node000003" class="node">
<title>Node3</title>
<g id="a_Node000003"><a xlink:href="../../d5/d94/classcom_1_1bank_1_1model_1_1transactions_1_1_transaction.html#a31513476c29864af24cc9a96185ceaa7" target="_top" xlink:title="Executes the transaction logic.">
<polygon fill="white" stroke="#666666" points="604.5,-508 457.25,-508 457.25,-476 604.5,-476 604.5,-508"/>
<text xml:space="preserve" text-anchor="start" x="465.25" y="-494.5" font-family="Helvetica,sans-Serif" font-size="10.00">com.bank.model.transactions.</text>
<text xml:space="preserve" text-anchor="middle" x="530.88" y="-482.5" font-family="Helvetica,sans-Serif" font-size="10.00">Transaction.execute</text>
</a>
</g>
</g>
<!-- Node2&#45;&gt;Node3 -->
<g id="edge2_Node000002_Node000003" class="edge">
<title>Node2&#45;&gt;Node3</title>
<g id="a_edge2_Node000002_Node000003"><a xlink:title=" ">
<path fill="none" stroke="#63b8ff" d="M392.79,-492C409.95,-492 428.27,-492 445.74,-492"/>
<polygon fill="#63b8ff" stroke="#63b8ff" points="445.56,-495.5 455.56,-492 445.56,-488.5 445.56,-495.5"/>
</a>
</g>
</g>
<!-- Node5 -->
<g id="Node000005" class="node">
<title>Node5</title>
<g id="a_Node000005"><a xlink:href="../../da/d83/classcom_1_1bank_1_1model_1_1accounts_1_1_account.html#a38981f8e6e13e82b7135c3b57bd2bba0" target="_top" xlink:title=" ">
<polygon fill="white" stroke="#666666" points="597.75,-458 464,-458 464,-426 597.75,-426 597.75,-458"/>
<text xml:space="preserve" text-anchor="start" x="472" y="-444.5" font-family="Helvetica,sans-Serif" font-size="10.00">com.bank.model.accounts.</text>
<text xml:space="preserve" text-anchor="middle" x="530.88" y="-432.5" font-family="Helvetica,sans-Serif" font-size="10.00">Account.getIban</text>
</a>
</g>
</g>
<!-- Node4&#45;&gt;Node5 -->
<g id="edge4_Node000004_Node000005" class="edge">
<title>Node4&#45;&gt;Node5</title>
<g id="a_edge4_Node000004_Node000005"><a xlink:title=" ">
<path fill="none" stroke="#63b8ff" d="M385.36,-442C406.7,-442 430.39,-442 452.3,-442"/>
<polygon fill="#63b8ff" stroke="#63b8ff" points="452.06,-445.5 462.06,-442 452.06,-438.5 452.06,-445.5"/>
</a>
</g>
</g>
<!-- Node11 -->
<g id="Node000011" class="node">
<title>Node11</title>
<g id="a_Node000011"><a xlink:href="../../dc/d48/classcom_1_1bank_1_1manager_1_1_bill_manager.html#ac7ca72058f0f60e72fb7a0d88742fc3c" target="_top" xlink:title="Returns all bills (issued + paid).">
<polygon fill="white" stroke="#666666" points="615.75,-208 446,-208 446,-176 615.75,-176 615.75,-208"/>
<text xml:space="preserve" text-anchor="start" x="454" y="-194.5" font-family="Helvetica,sans-Serif" font-size="10.00">com.bank.manager.BillManager.get</text>
<text xml:space="preserve" text-anchor="middle" x="530.88" y="-182.5" font-family="Helvetica,sans-Serif" font-size="10.00">AllBills</text>
</a>
</g>
</g>
<!-- Node10&#45;&gt;Node11 -->
<g id="edge10_Node000010_Node000011" class="edge">
<title>Node10&#45;&gt;Node11</title>
<g id="a_edge10_Node000010_Node000011"><a xlink:title=" ">
<path fill="none" stroke="#63b8ff" d="M400.98,-192C411.86,-192 423.07,-192 434.12,-192"/>
<polygon fill="#63b8ff" stroke="#63b8ff" points="434.04,-195.5 444.04,-192 434.04,-188.5 434.04,-195.5"/>
</a>
</g>
</g>
<!-- Node12 -->
<g id="Node000012" class="node">
<title>Node12</title>
<g id="a_Node000012"><a xlink:href="../../d3/dd4/classcom_1_1bank_1_1model_1_1bills_1_1_bill.html#a73882163a2347d97e6d532096d4c2312" target="_top" xlink:title=" ">
<polygon fill="white" stroke="#666666" points="601.5,-144 460.25,-144 460.25,-112 601.5,-112 601.5,-144"/>
<text xml:space="preserve" text-anchor="start" x="468.25" y="-130.5" font-family="Helvetica,sans-Serif" font-size="10.00">com.bank.model.bills.Bill.get</text>
<text xml:space="preserve" text-anchor="middle" x="530.88" y="-118.5" font-family="Helvetica,sans-Serif" font-size="10.00">PaymentCode</text>
</a>
</g>
</g>
<!-- Node10&#45;&gt;Node12 -->
<g id="edge11_Node000010_Node000012" class="edge">
<title>Node10&#45;&gt;Node12</title>
<g id="a_edge11_Node000010_Node000012"><a xlink:title=" ">
<path fill="none" stroke="#63b8ff" d="M380.08,-175.5C390.11,-172.75 400.36,-169.86 410,-167 429.82,-161.12 451.34,-154.27 470.61,-147.96"/>
<polygon fill="#63b8ff" stroke="#63b8ff" points="471.51,-151.35 479.92,-144.9 469.32,-144.7 471.51,-151.35"/>
</a>
</g>
</g>
<!-- Node14&#45;&gt;Node12 -->
<g id="edge14_Node000014_Node000012" class="edge">
<title>Node14&#45;&gt;Node12</title>
<g id="a_edge14_Node000014_Node000012"><a xlink:title=" ">
<path fill="none" stroke="#63b8ff" d="M403.13,-106.59C418.21,-109.14 433.85,-111.78 448.78,-114.3"/>
<polygon fill="#63b8ff" stroke="#63b8ff" points="448.1,-117.74 458.54,-115.95 449.27,-110.83 448.1,-117.74"/>
</a>
</g>
</g>
<!-- Node14&#45;&gt;Node15 -->
<g id="edge15_Node000014_Node000015" class="edge">
<title>Node14&#45;&gt;Node15</title>
<g id="a_edge15_Node000014_Node000015"><a xlink:title=" ">
<path fill="none" stroke="#63b8ff" d="M403.13,-83.08C414.93,-81.86 427.08,-80.61 438.96,-79.38"/>
<polygon fill="#63b8ff" stroke="#63b8ff" points="439.16,-82.88 448.75,-78.37 438.44,-75.92 439.16,-82.88"/>
</a>
</g>
</g>
</g>
</svg>
