<?xml version="1.0" encoding="UTF-8" standalone="no"?>
<!DOCTYPE svg PUBLIC "-//W3C//DTD SVG 1.1//EN"
 "http://www.w3.org/Graphics/SVG/1.1/DTD/svg11.dtd">
<!-- Generated by graphviz version 14.0.1 (20251006.0113)
 -->
<!-- Title: gui/view/panel/WithdrawPanel.java Pages: 1 -->
<svg width="1048pt" height="96pt"
 viewBox="0.00 0.00 1048.00 96.00" xmlns="http://www.w3.org/2000/svg" xmlns:xlink="http://www.w3.org/1999/xlink">
<g id="graph0" class="graph" transform="scale(1 1) rotate(0) translate(4 92)">
<title>gui/view/panel/WithdrawPanel.java</title>
<!-- Node1 -->
<g id="Node000001" class="node">
<title>Node1</title>
<g id="a_Node000001"><a xlink:title=" ">
<polygon fill="#999999" stroke="#666666" points="484.38,-88 316.12,-88 316.12,-68 484.38,-68 484.38,-88"/>
<text xml:space="preserve" text-anchor="middle" x="400.25" y="-74.5" font-family="Helvetica,sans-Serif" font-size="10.00">gui/view/panel/WithdrawPanel.java</text>
</a>
</g>
</g>
<!-- Node2 -->
<g id="Node000002" class="node">
<title>Node2</title>
<g id="a_Node000002"><a xlink:title=" ">
<polygon fill="#e0e0e0" stroke="#999999" points="74.5,-26 0,-26 0,-6 74.5,-6 74.5,-26"/>
<text xml:space="preserve" text-anchor="middle" x="37.25" y="-12.5" font-family="Helvetica,sans-Serif" font-size="10.00">javax.swing.*</text>
</a>
</g>
</g>
<!-- Node1&#45;&gt;Node2 -->
<g id="edge1_Node000001_Node000002" class="edge">
<title>Node1&#45;&gt;Node2</title>
<g id="a_edge1_Node000001_Node000002"><a xlink:title=" ">
<path fill="none" stroke="#63b8ff" d="M315.75,-69.05C251.46,-62.04 161.09,-50.07 83.25,-32 80.28,-31.31 77.24,-30.52 74.19,-29.66"/>
<polygon fill="#63b8ff" stroke="#63b8ff" points="75.33,-26.35 64.75,-26.8 73.31,-33.05 75.33,-26.35"/>
</a>
</g>
</g>
<!-- Node3 -->
<g id="Node000003" class="node">
<title>Node3</title>
<g id="a_Node000003"><a xlink:title=" ">
<polygon fill="#e0e0e0" stroke="#999999" points="152,-26 92.5,-26 92.5,-6 152,-6 152,-26"/>
<text xml:space="preserve" text-anchor="middle" x="122.25" y="-12.5" font-family="Helvetica,sans-Serif" font-size="10.00">java.awt.*</text>
</a>
</g>
</g>
<!-- Node1&#45;&gt;Node3 -->
<g id="edge2_Node000001_Node000003" class="edge">
<title>Node1&#45;&gt;Node3</title>
<g id="a_edge2_Node000001_Node000003"><a xlink:title=" ">
<path fill="none" stroke="#63b8ff" d="M332.01,-67.52C283.79,-60 217.91,-48.09 161.25,-32 159.29,-31.44 157.3,-30.83 155.3,-30.18"/>
<polygon fill="#63b8ff" stroke="#63b8ff" points="156.72,-26.97 146.13,-26.93 154.39,-33.57 156.72,-26.97"/>
</a>
</g>
</g>
<!-- Node4 -->
<g id="Node000004" class="node">
<title>Node4</title>
<g id="a_Node000004"><a xlink:title=" ">
<polygon fill="#e0e0e0" stroke="#999999" points="238.5,-26 170,-26 170,-6 238.5,-6 238.5,-26"/>
<text xml:space="preserve" text-anchor="middle" x="204.25" y="-12.5" font-family="Helvetica,sans-Serif" font-size="10.00">java.util.List</text>
</a>
</g>
</g>
<!-- Node1&#45;&gt;Node4 -->
<g id="edge3_Node000001_Node000004" class="edge">
<title>Node1&#45;&gt;Node4</title>
<g id="a_edge3_Node000001_Node000004"><a xlink:title=" ">
<path fill="none" stroke="#63b8ff" d="M366.37,-67.56C335.27,-58.77 287.98,-45.08 247.25,-32 245.3,-31.37 243.31,-30.72 241.3,-30.05"/>
<polygon fill="#63b8ff" stroke="#63b8ff" points="242.59,-26.8 231.99,-26.9 240.34,-33.42 242.59,-26.8"/>
</a>
</g>
</g>
<!-- Node5 -->
<g id="Node000005" class="node">
<title>Node5</title>
<g id="a_Node000005"><a xlink:title=" ">
<polygon fill="#e0e0e0" stroke="#999999" points="390.12,-32 256.38,-32 256.38,0 390.12,0 390.12,-32"/>
<text xml:space="preserve" text-anchor="start" x="264.38" y="-18.5" font-family="Helvetica,sans-Serif" font-size="10.00">com.bank.model.accounts.</text>
<text xml:space="preserve" text-anchor="middle" x="323.25" y="-6.5" font-family="Helvetica,sans-Serif" font-size="10.00">Account</text>
</a>
</g>
</g>
<!-- Node1&#45;&gt;Node5 -->
<g id="edge4_Node000001_Node000005" class="edge">
<title>Node1&#45;&gt;Node5</title>
<g id="a_edge4_Node000001_Node000005"><a xlink:title=" ">
<path fill="none" stroke="#63b8ff" d="M388.22,-67.62C378.48,-60.04 364.37,-49.05 351.79,-39.24"/>
<polygon fill="#63b8ff" stroke="#63b8ff" points="354.21,-36.69 344.17,-33.3 349.91,-42.21 354.21,-36.69"/>
</a>
</g>
</g>
<!-- Node6 -->
<g id="Node000006" class="node">
<title>Node6</title>
<g id="a_Node000006"><a xlink:title=" ">
<polygon fill="#e0e0e0" stroke="#999999" points="546.75,-26 407.75,-26 407.75,-6 546.75,-6 546.75,-26"/>
<text xml:space="preserve" text-anchor="middle" x="477.25" y="-12.5" font-family="Helvetica,sans-Serif" font-size="10.00">com.bank.model.users.User</text>
</a>
</g>
</g>
<!-- Node1&#45;&gt;Node6 -->
<g id="edge5_Node000001_Node000006" class="edge">
<title>Node1&#45;&gt;Node6</title>
<g id="a_edge5_Node000001_Node000006"><a xlink:title=" ">
<path fill="none" stroke="#63b8ff" d="M412.28,-67.62C424.03,-58.47 442.17,-44.34 456.29,-33.33"/>
<polygon fill="#63b8ff" stroke="#63b8ff" points="458.37,-36.15 464.11,-27.24 454.07,-30.63 458.37,-36.15"/>
</a>
</g>
</g>
<!-- Node7 -->
<g id="Node000007" class="node">
<title>Node7</title>
<g id="a_Node000007"><a xlink:title=" ">
<polygon fill="#e0e0e0" stroke="#999999" points="703.38,-32 565.12,-32 565.12,0 703.38,0 703.38,-32"/>
<text xml:space="preserve" text-anchor="start" x="573.12" y="-18.5" font-family="Helvetica,sans-Serif" font-size="10.00">com.bank.manager.Account</text>
<text xml:space="preserve" text-anchor="middle" x="634.25" y="-6.5" font-family="Helvetica,sans-Serif" font-size="10.00">Manager</text>
</a>
</g>
</g>
<!-- Node1&#45;&gt;Node7 -->
<g id="edge6_Node000001_Node000007" class="edge">
<title>Node1&#45;&gt;Node7</title>
<g id="a_edge6_Node000001_Node000007"><a xlink:title=" ">
<path fill="none" stroke="#63b8ff" d="M437.07,-67.56C470.74,-58.93 521.49,-45.91 563.06,-35.25"/>
<polygon fill="#63b8ff" stroke="#63b8ff" points="563.69,-38.71 572.51,-32.83 561.95,-31.93 563.69,-38.71"/>
</a>
</g>
</g>
<!-- Node8 -->
<g id="Node000008" class="node">
<title>Node8</title>
<g id="a_Node000008"><a xlink:title=" ">
<polygon fill="#e0e0e0" stroke="#999999" points="874.88,-32 721.62,-32 721.62,0 874.88,0 874.88,-32"/>
<text xml:space="preserve" text-anchor="start" x="729.62" y="-18.5" font-family="Helvetica,sans-Serif" font-size="10.00">com.bank.manager.Transaction</text>
<text xml:space="preserve" text-anchor="middle" x="798.25" y="-6.5" font-family="Helvetica,sans-Serif" font-size="10.00">Manager</text>
</a>
</g>
</g>
<!-- Node1&#45;&gt;Node8 -->
<g id="edge7_Node000001_Node000008" class="edge">
<title>Node1&#45;&gt;Node8</title>
<g id="a_edge7_Node000001_Node000008"><a xlink:title=" ">
<path fill="none" stroke="#63b8ff" d="M470.04,-67.53C530.74,-59.16 621.35,-46.34 710.01,-32.33"/>
<polygon fill="#63b8ff" stroke="#63b8ff" points="710.55,-35.79 719.88,-30.76 709.45,-28.87 710.55,-35.79"/>
</a>
</g>
</g>
<!-- Node9 -->
<g id="Node000009" class="node">
<title>Node9</title>
<g id="a_Node000009"><a xlink:title=" ">
<polygon fill="#e0e0e0" stroke="#999999" points="1039.88,-32 892.62,-32 892.62,0 1039.88,0 1039.88,-32"/>
<text xml:space="preserve" text-anchor="start" x="900.62" y="-18.5" font-family="Helvetica,sans-Serif" font-size="10.00">com.bank.model.transactions.</text>
<text xml:space="preserve" text-anchor="middle" x="966.25" y="-6.5" font-family="Helvetica,sans-Serif" font-size="10.00">Withdrawal</text>
</a>
</g>
</g>
<!-- Node1&#45;&gt;Node9 -->
<g id="edge8_Node000001_Node000009" class="edge">
<title>Node1&#45;&gt;Node9</title>
<g id="a_edge8_Node000001_Node000009"><a xlink:title=" ">
<path fill="none" stroke="#63b8ff" d="M484.45,-71.43C578.75,-64.69 736.38,-51.89 881.25,-32.34"/>
<polygon fill="#63b8ff" stroke="#63b8ff" points="881.61,-35.83 891.04,-31 880.66,-28.89 881.61,-35.83"/>
</a>
</g>
</g>
</g>
</svg>
