<?xml version="1.0" encoding="UTF-8" standalone="no"?>
<!DOCTYPE svg PUBLIC "-//W3C//DTD SVG 1.1//EN"
 "http://www.w3.org/Graphics/SVG/1.1/DTD/svg11.dtd">
<!-- Generated by graphviz version 14.0.1 (20251006.0113)
 -->
<!-- Title: com.bank.model.users.User Pages: 1 -->
<!--zoomable 580 -->

<svg id="main" version="1.1" xmlns="http://www.w3.org/2000/svg" xmlns:xlink="http://www.w3.org/1999/xlink" xml:space="preserve" onload="init(evt)">

<style type="text/css"><![CDATA[
.node, .edge {opacity: 0.7;}
.node.selected, .edge.selected {opacity: 1;}
.edge:hover path { stroke: red; }
.edge:hover polygon { stroke: red; fill: red; }
]]></style>

<defs>
  <circle id="rim" cx="0" cy="0" r="7"/>
  <circle id="rim2" cx="0" cy="0" r="3.5"/>
  <g id="zoomPlus">
    <use xlink:href="#rim" fill="#404040"><set attributeName="fill" to="#808080" begin="zoomplus.mouseover" end="zoomplus.mouseout"/></use>
    <path d="M-4,0h8M0,-4v8" fill="none" stroke="white" stroke-width="1.5" pointer-events="none"/>
  </g>
  <g id="zoomMin">
    <use xlink:href="#rim" fill="#404040"><set attributeName="fill" to="#808080" begin="zoomminus.mouseover" end="zoomminus.mouseout"/></use>
    <path d="M-4,0h8" fill="none" stroke="white" stroke-width="1.5" pointer-events="none"/>
  </g>
  <g id="arrowUp" transform="translate(30 24)">
    <use xlink:href="#rim"/>
    <path pointer-events="none" fill="none" stroke="white" stroke-width="1.5" d="M0,-3.0v7 M-2.5,-0.5L0,-3.0L2.5,-0.5"/>
  </g>
  <g id="arrowRight" transform="rotate(90) translate(36 -43)">
    <use xlink:href="#rim"/>
    <path pointer-events="none" fill="none" stroke="white" stroke-width="1.5" d="M0,-3.0v7 M-2.5,-0.5L0,-3.0L2.5,-0.5"/>
  </g>
  <g id="arrowDown" transform="rotate(180) translate(-30 -48)">
    <use xlink:href="#rim"/>
    <path pointer-events="none" fill="none" stroke="white" stroke-width="1.5" d="M0,-3.0v7 M-2.5,-0.5L0,-3.0L2.5,-0.5"/>
  </g>
  <g id="arrowLeft" transform="rotate(270) translate(-36 17)">
    <use xlink:href="#rim"/>
    <path pointer-events="none" fill="none" stroke="white" stroke-width="1.5" d="M0,-3.0v7 M-2.5,-0.5L0,-3.0L2.5,-0.5"/>
  </g>
  <g id="resetDef">
    <use xlink:href="#rim2" fill="#404040"><set attributeName="fill" to="#808080" begin="reset.mouseover" end="reset.mouseout"/></use>
  </g>
</defs>
<script type="application/ecmascript">
var viewWidth = 401;
var viewHeight = 580;
var sectionId = 'dynsection-0';
</script>
<script type="application/ecmascript" xlink:href="../../svg.min.js"/>
<svg id="graph" class="graph">
<g id="viewport">
<title>com.bank.model.users.User</title>
<!-- Node1 -->
<g id="Node000001" class="node">
<title>Node1</title>
<g id="a_Node000001"><a xlink:title="Abstract base class for all user types in the banking system.">
<polygon fill="#999999" stroke="none" points="215.38,-468 84.38,-468 84.38,-304 215.38,-304 215.38,-468"/>
<text xml:space="preserve" text-anchor="start" x="88.38" y="-454.5" font-family="Helvetica,sans-Serif" font-size="10.00">com.bank.model.users.User</text>
<text xml:space="preserve" text-anchor="start" x="98.06" y="-438.5" font-family="Helvetica,sans-Serif" font-size="10.00">#</text>
<text xml:space="preserve" text-anchor="start" x="117" y="-438.5" font-family="Helvetica,sans-Serif" font-size="10.00">username</text>
<text xml:space="preserve" text-anchor="start" x="98.06" y="-422.5" font-family="Helvetica,sans-Serif" font-size="10.00">#</text>
<text xml:space="preserve" text-anchor="start" x="117" y="-422.5" font-family="Helvetica,sans-Serif" font-size="10.00">password</text>
<text xml:space="preserve" text-anchor="start" x="98.06" y="-406.5" font-family="Helvetica,sans-Serif" font-size="10.00">#</text>
<text xml:space="preserve" text-anchor="start" x="117" y="-406.5" font-family="Helvetica,sans-Serif" font-size="10.00">fullName</text>
<text xml:space="preserve" text-anchor="start" x="97.69" y="-390.5" font-family="Helvetica,sans-Serif" font-size="10.00">+</text>
<text xml:space="preserve" text-anchor="start" x="117" y="-390.5" font-family="Helvetica,sans-Serif" font-size="10.00">User()</text>
<text xml:space="preserve" text-anchor="start" x="97.69" y="-374.5" font-family="Helvetica,sans-Serif" font-size="10.00">+</text>
<text xml:space="preserve" text-anchor="start" x="117" y="-374.5" font-family="Helvetica,sans-Serif" font-size="10.00">getRole()</text>
<text xml:space="preserve" text-anchor="start" x="97.69" y="-358.5" font-family="Helvetica,sans-Serif" font-size="10.00">+</text>
<text xml:space="preserve" text-anchor="start" x="117" y="-358.5" font-family="Helvetica,sans-Serif" font-size="10.00">getUsername()</text>
<text xml:space="preserve" text-anchor="start" x="97.69" y="-342.5" font-family="Helvetica,sans-Serif" font-size="10.00">+</text>
<text xml:space="preserve" text-anchor="start" x="117" y="-342.5" font-family="Helvetica,sans-Serif" font-size="10.00">getPassword()</text>
<text xml:space="preserve" text-anchor="start" x="97.69" y="-326.5" font-family="Helvetica,sans-Serif" font-size="10.00">+</text>
<text xml:space="preserve" text-anchor="start" x="117" y="-326.5" font-family="Helvetica,sans-Serif" font-size="10.00">getFullName()</text>
<text xml:space="preserve" text-anchor="start" x="97.69" y="-310.5" font-family="Helvetica,sans-Serif" font-size="10.00">+</text>
<text xml:space="preserve" text-anchor="start" x="117" y="-310.5" font-family="Helvetica,sans-Serif" font-size="10.00">checkPassword()</text>
<polygon fill="#666666" stroke="#666666" points="84.38,-450 84.38,-450 215.38,-450 215.38,-450 84.38,-450"/>
<polygon fill="#666666" stroke="#666666" points="84.38,-402 84.38,-402 115,-402 115,-402 84.38,-402"/>
<polygon fill="#666666" stroke="#666666" points="115,-402 115,-402 215.38,-402 215.38,-402 115,-402"/>
<polygon fill="none" stroke="#666666" points="84.38,-304 84.38,-468 215.38,-468 215.38,-304 84.38,-304"/>
</a>
</g>
</g>
<!-- Node3 -->
<g id="Node000003" class="node">
<title>Node3</title>
<g id="a_Node000003"><a xlink:href="../../d3/dd3/classcom_1_1bank_1_1model_1_1users_1_1_admin.html" target="_top" xlink:title="Represents an administrative user in the banking system.">
<polygon fill="white" stroke="none" points="137.75,-268 0,-268 0,-152 137.75,-152 137.75,-268"/>
<text xml:space="preserve" text-anchor="start" x="4" y="-254.5" font-family="Helvetica,sans-Serif" font-size="10.00">com.bank.model.users.Admin</text>
<text xml:space="preserve" text-anchor="start" x="67.38" y="-238.5" font-family="Helvetica,sans-Serif" font-size="10.00"> </text>
<text xml:space="preserve" text-anchor="start" x="21.19" y="-222.5" font-family="Helvetica,sans-Serif" font-size="10.00">+</text>
<text xml:space="preserve" text-anchor="start" x="48.38" y="-222.5" font-family="Helvetica,sans-Serif" font-size="10.00">Admin()</text>
<text xml:space="preserve" text-anchor="start" x="21.19" y="-206.5" font-family="Helvetica,sans-Serif" font-size="10.00">+</text>
<text xml:space="preserve" text-anchor="start" x="48.38" y="-206.5" font-family="Helvetica,sans-Serif" font-size="10.00">Admin()</text>
<text xml:space="preserve" text-anchor="start" x="21.19" y="-190.5" font-family="Helvetica,sans-Serif" font-size="10.00">+</text>
<text xml:space="preserve" text-anchor="start" x="48.38" y="-190.5" font-family="Helvetica,sans-Serif" font-size="10.00">getRole()</text>
<text xml:space="preserve" text-anchor="start" x="21.19" y="-174.5" font-family="Helvetica,sans-Serif" font-size="10.00">+</text>
<text xml:space="preserve" text-anchor="start" x="48.38" y="-174.5" font-family="Helvetica,sans-Serif" font-size="10.00">marshal()</text>
<text xml:space="preserve" text-anchor="start" x="21.19" y="-158.5" font-family="Helvetica,sans-Serif" font-size="10.00">+</text>
<text xml:space="preserve" text-anchor="start" x="48.38" y="-158.5" font-family="Helvetica,sans-Serif" font-size="10.00">unmarshal()</text>
<polygon fill="#666666" stroke="#666666" points="0,-250 0,-250 137.75,-250 137.75,-250 0,-250"/>
<polygon fill="#666666" stroke="#666666" points="0,-234 0,-234 137.75,-234 137.75,-234 0,-234"/>
<polygon fill="none" stroke="#666666" points="0,-152 0,-268 137.75,-268 137.75,-152 0,-152"/>
</a>
</g>
</g>
<!-- Node1&#45;&gt;Node3 -->
<g id="edge2_Node000001_Node000003" class="edge">
<title>Node1&#45;&gt;Node3</title>
<g id="a_edge2_Node000001_Node000003"><a xlink:title=" ">
<path fill="none" stroke="#63b8ff" d="M107.4,-293.76C103.3,-284.95 99.22,-276.19 95.34,-267.86"/>
<polygon fill="none" stroke="#63b8ff" points="104.19,-295.15 111.58,-302.74 110.53,-292.2 104.19,-295.15"/>
</a>
</g>
</g>
<!-- Node4 -->
<g id="Node000004" class="node">
<title>Node4</title>
<g id="a_Node000004"><a xlink:href="../../dd/d5f/classcom_1_1bank_1_1model_1_1users_1_1_customer.html" target="_top" xlink:title="Abstract base class representing a general bank customer.">
<polygon fill="white" stroke="none" points="308.25,-244 155.5,-244 155.5,-176 308.25,-176 308.25,-244"/>
<text xml:space="preserve" text-anchor="start" x="159.5" y="-230.5" font-family="Helvetica,sans-Serif" font-size="10.00">com.bank.model.users.Customer</text>
<text xml:space="preserve" text-anchor="start" x="181.38" y="-214.5" font-family="Helvetica,sans-Serif" font-size="10.00">#</text>
<text xml:space="preserve" text-anchor="start" x="212.5" y="-214.5" font-family="Helvetica,sans-Serif" font-size="10.00">vat</text>
<text xml:space="preserve" text-anchor="start" x="181" y="-198.5" font-family="Helvetica,sans-Serif" font-size="10.00">+</text>
<text xml:space="preserve" text-anchor="start" x="212.5" y="-198.5" font-family="Helvetica,sans-Serif" font-size="10.00">Customer()</text>
<text xml:space="preserve" text-anchor="start" x="181" y="-182.5" font-family="Helvetica,sans-Serif" font-size="10.00">+</text>
<text xml:space="preserve" text-anchor="start" x="212.5" y="-182.5" font-family="Helvetica,sans-Serif" font-size="10.00">getVat()</text>
<polygon fill="#666666" stroke="#666666" points="155.5,-226 155.5,-226 308.25,-226 308.25,-226 155.5,-226"/>
<polygon fill="#666666" stroke="#666666" points="155.5,-210 155.5,-210 210.5,-210 210.5,-210 155.5,-210"/>
<polygon fill="#666666" stroke="#666666" points="210.5,-210 210.5,-210 308.25,-210 308.25,-210 210.5,-210"/>
<polygon fill="none" stroke="#666666" points="155.5,-176 155.5,-244 308.25,-244 308.25,-176 155.5,-176"/>
</a>
</g>
</g>
<!-- Node1&#45;&gt;Node4 -->
<g id="edge3_Node000001_Node000004" class="edge">
<title>Node1&#45;&gt;Node4</title>
<g id="a_edge3_Node000001_Node000004"><a xlink:title=" ">
<path fill="none" stroke="#63b8ff" d="M192.71,-294.11C201.19,-276.12 209.56,-258.34 216.38,-243.88"/>
<polygon fill="none" stroke="#63b8ff" points="189.74,-292.21 188.64,-302.74 196.07,-295.19 189.74,-292.21"/>
</a>
</g>
</g>
<!-- Node2 -->
<g id="Node000002" class="node">
<title>Node2</title>
<g id="a_Node000002"><a xlink:href="../../dd/d8c/interfacecom_1_1bank_1_1storage_1_1_storable.html" target="_top" xlink:title="Defines the serialization and deserialization behavior for persistent objects.">
<polygon fill="white" stroke="none" points="212.38,-572 87.38,-572 87.38,-504 212.38,-504 212.38,-572"/>
<text xml:space="preserve" text-anchor="start" x="91.38" y="-558.5" font-family="Helvetica,sans-Serif" font-size="10.00">com.bank.storage.Storable</text>
<text xml:space="preserve" text-anchor="start" x="148.38" y="-542.5" font-family="Helvetica,sans-Serif" font-size="10.00"> </text>
<text xml:space="preserve" text-anchor="start" x="105.38" y="-526.5" font-family="Helvetica,sans-Serif" font-size="10.00">+</text>
<text xml:space="preserve" text-anchor="start" x="129.38" y="-526.5" font-family="Helvetica,sans-Serif" font-size="10.00">marshal()</text>
<text xml:space="preserve" text-anchor="start" x="105.38" y="-510.5" font-family="Helvetica,sans-Serif" font-size="10.00">+</text>
<text xml:space="preserve" text-anchor="start" x="129.38" y="-510.5" font-family="Helvetica,sans-Serif" font-size="10.00">unmarshal()</text>
<polygon fill="#666666" stroke="#666666" points="87.38,-554 87.38,-554 212.38,-554 212.38,-554 87.38,-554"/>
<polygon fill="#666666" stroke="#666666" points="87.38,-538 87.38,-538 212.38,-538 212.38,-538 87.38,-538"/>
<polygon fill="none" stroke="#666666" points="87.38,-504 87.38,-572 212.38,-572 212.38,-504 87.38,-504"/>
</a>
</g>
</g>
<!-- Node2&#45;&gt;Node1 -->
<g id="edge1_Node000001_Node000002" class="edge">
<title>Node2&#45;&gt;Node1</title>
<g id="a_edge1_Node000001_Node000002"><a xlink:title=" ">
<path fill="none" stroke="#63b8ff" d="M149.88,-492.6C149.88,-484.72 149.88,-476.29 149.88,-467.77"/>
<polygon fill="none" stroke="#63b8ff" points="146.38,-492.57 149.88,-502.57 153.38,-492.57 146.38,-492.57"/>
</a>
</g>
</g>
<!-- Node5 -->
<g id="Node000005" class="node">
<title>Node5</title>
<g id="a_Node000005"><a xlink:href="../../de/db1/classcom_1_1bank_1_1model_1_1users_1_1_company.html" target="_top" xlink:title="Represents a business customer of the banking system.">
<polygon fill="white" stroke="none" points="222.88,-116 70.88,-116 70.88,0 222.88,0 222.88,-116"/>
<text xml:space="preserve" text-anchor="start" x="74.88" y="-102.5" font-family="Helvetica,sans-Serif" font-size="10.00">com.bank.model.users.Company</text>
<text xml:space="preserve" text-anchor="start" x="145.38" y="-86.5" font-family="Helvetica,sans-Serif" font-size="10.00"> </text>
<text xml:space="preserve" text-anchor="start" x="95.62" y="-70.5" font-family="Helvetica,sans-Serif" font-size="10.00">+</text>
<text xml:space="preserve" text-anchor="start" x="126.38" y="-70.5" font-family="Helvetica,sans-Serif" font-size="10.00">Company()</text>
<text xml:space="preserve" text-anchor="start" x="95.62" y="-54.5" font-family="Helvetica,sans-Serif" font-size="10.00">+</text>
<text xml:space="preserve" text-anchor="start" x="126.38" y="-54.5" font-family="Helvetica,sans-Serif" font-size="10.00">Company()</text>
<text xml:space="preserve" text-anchor="start" x="95.62" y="-38.5" font-family="Helvetica,sans-Serif" font-size="10.00">+</text>
<text xml:space="preserve" text-anchor="start" x="126.38" y="-38.5" font-family="Helvetica,sans-Serif" font-size="10.00">getRole()</text>
<text xml:space="preserve" text-anchor="start" x="95.62" y="-22.5" font-family="Helvetica,sans-Serif" font-size="10.00">+</text>
<text xml:space="preserve" text-anchor="start" x="126.38" y="-22.5" font-family="Helvetica,sans-Serif" font-size="10.00">marshal()</text>
<text xml:space="preserve" text-anchor="start" x="95.62" y="-6.5" font-family="Helvetica,sans-Serif" font-size="10.00">+</text>
<text xml:space="preserve" text-anchor="start" x="126.38" y="-6.5" font-family="Helvetica,sans-Serif" font-size="10.00">unmarshal()</text>
<polygon fill="#666666" stroke="#666666" points="70.88,-98 70.88,-98 222.88,-98 222.88,-98 70.88,-98"/>
<polygon fill="#666666" stroke="#666666" points="70.88,-82 70.88,-82 222.88,-82 222.88,-82 70.88,-82"/>
<polygon fill="none" stroke="#666666" points="70.88,0 70.88,-116 222.88,-116 222.88,0 70.88,0"/>
</a>
</g>
</g>
<!-- Node4&#45;&gt;Node5 -->
<g id="edge4_Node000004_Node000005" class="edge">
<title>Node4&#45;&gt;Node5</title>
<g id="a_edge4_Node000004_Node000005"><a xlink:title=" ">
<path fill="none" stroke="#63b8ff" d="M207.59,-166.14C198.7,-150.45 188.5,-132.45 179.02,-115.73"/>
<polygon fill="none" stroke="#63b8ff" points="204.5,-167.79 212.48,-174.77 210.59,-164.34 204.5,-167.79"/>
</a>
</g>
</g>
<!-- Node6 -->
<g id="Node000006" class="node">
<title>Node6</title>
<g id="a_Node000006"><a xlink:href="../../dd/d7b/classcom_1_1bank_1_1model_1_1users_1_1_individual.html" target="_top" xlink:title="Represents an individual (personal) customer in the banking system.">
<polygon fill="white" stroke="none" points="392.5,-116 241.25,-116 241.25,0 392.5,0 392.5,-116"/>
<text xml:space="preserve" text-anchor="start" x="245.25" y="-102.5" font-family="Helvetica,sans-Serif" font-size="10.00">com.bank.model.users.Individual</text>
<text xml:space="preserve" text-anchor="start" x="315.38" y="-86.5" font-family="Helvetica,sans-Serif" font-size="10.00"> </text>
<text xml:space="preserve" text-anchor="start" x="265.81" y="-70.5" font-family="Helvetica,sans-Serif" font-size="10.00">+</text>
<text xml:space="preserve" text-anchor="start" x="296.38" y="-70.5" font-family="Helvetica,sans-Serif" font-size="10.00">Individual()</text>
<text xml:space="preserve" text-anchor="start" x="265.81" y="-54.5" font-family="Helvetica,sans-Serif" font-size="10.00">+</text>
<text xml:space="preserve" text-anchor="start" x="296.38" y="-54.5" font-family="Helvetica,sans-Serif" font-size="10.00">Individual()</text>
<text xml:space="preserve" text-anchor="start" x="265.81" y="-38.5" font-family="Helvetica,sans-Serif" font-size="10.00">+</text>
<text xml:space="preserve" text-anchor="start" x="296.38" y="-38.5" font-family="Helvetica,sans-Serif" font-size="10.00">getRole()</text>
<text xml:space="preserve" text-anchor="start" x="265.81" y="-22.5" font-family="Helvetica,sans-Serif" font-size="10.00">+</text>
<text xml:space="preserve" text-anchor="start" x="296.38" y="-22.5" font-family="Helvetica,sans-Serif" font-size="10.00">marshal()</text>
<text xml:space="preserve" text-anchor="start" x="265.81" y="-6.5" font-family="Helvetica,sans-Serif" font-size="10.00">+</text>
<text xml:space="preserve" text-anchor="start" x="296.38" y="-6.5" font-family="Helvetica,sans-Serif" font-size="10.00">unmarshal()</text>
<polygon fill="#666666" stroke="#666666" points="241.25,-98 241.25,-98 392.5,-98 392.5,-98 241.25,-98"/>
<polygon fill="#666666" stroke="#666666" points="241.25,-82 241.25,-82 392.5,-82 392.5,-82 241.25,-82"/>
<polygon fill="none" stroke="#666666" points="241.25,0 241.25,-116 392.5,-116 392.5,0 241.25,0"/>
</a>
</g>
</g>
<!-- Node4&#45;&gt;Node6 -->
<g id="edge5_Node000004_Node000006" class="edge">
<title>Node4&#45;&gt;Node6</title>
<g id="a_edge5_Node000004_Node000006"><a xlink:title=" ">
<path fill="none" stroke="#63b8ff" d="M256.16,-166.14C265.05,-150.45 275.25,-132.45 284.73,-115.73"/>
<polygon fill="none" stroke="#63b8ff" points="253.16,-164.34 251.27,-174.77 259.25,-167.79 253.16,-164.34"/>
</a>
</g>
</g>
</g>
</svg>

<g id="navigator" transform="translate(0 0)" fill="#404254">
  <rect fill="#f2f5e9" fill-opacity="0.5" stroke="#606060" stroke-width=".5" x="0" y="0" width="60" height="60"/>
  <use id="zoomplus" xlink:href="#zoomPlus" x="17" y="9" onmousedown="handleZoom(evt,'in')"/>
  <use id="zoomminus" xlink:href="#zoomMin" x="42" y="9" onmousedown="handleZoom(evt,'out')"/>
  <use id="reset" xlink:href="#resetDef" x="30" y="36" onmousedown="handleReset()"/>
   <use id="arrowup" xlink:href="#arrowUp" x="0" y="0" onmousedown="handlePan(0,-1)"/>
  <use id="arrowright" xlink:href="#arrowRight" x="0" y="0" onmousedown="handlePan(1,0)"/>
  <use id="arrowdown" xlink:href="#arrowDown" x="0" y="0" onmousedown="handlePan(0,1)"/>
  <use id="arrowleft" xlink:href="#arrowLeft" x="0" y="0" onmousedown="handlePan(-1,0)"/>
</g>
<svg viewBox="0 0 15 15" width="100%" height="30px" preserveAspectRatio="xMaxYMin meet">
 <g id="arrow_out" transform="scale(0.3 0.3)">
  <a xlink:href="classcom_1_1bank_1_1model_1_1users_1_1_user__inherit__graph_org.svg" target="_base">
   <rect id="button" ry="5" rx="5" y="6" x="6" height="38" width="38"
        fill="#f2f5e9" fill-opacity="0.5" stroke="#606060" stroke-width="1.0"/>
   <path id="arrow"
     d="M 11.500037,31.436501 C 11.940474,20.09759 22.043105,11.32322 32.158766,21.979434 L 37.068811,17.246167 C 37.068811,17.246167 37.088388,32 37.088388,32 L 22.160133,31.978069 C 22.160133,31.978069 26.997745,27.140456 26.997745,27.140456 C 18.528582,18.264221 13.291696,25.230495 11.500037,31.436501 z"
     style="fill:#404040;"/>
  </a>
 </g>
</svg>

<style type='text/css'>
<![CDATA[
[data-mouse-over-selected='false'] { opacity: 0.7; }
[data-mouse-over-selected='true']  { opacity: 1.0; }
]]>
</style>
<script type="application/ecmascript"><![CDATA[
document.addEventListener('DOMContentLoaded', (event) => {
  highlightEdges();
  highlightAdjacentNodes();
});
]]></script>
</svg>
