<?xml version="1.0" encoding="UTF-8" standalone="no"?>
<!DOCTYPE svg PUBLIC "-//W3C//DTD SVG 1.1//EN"
 "http://www.w3.org/Graphics/SVG/1.1/DTD/svg11.dtd">
<!-- Generated by graphviz version 14.0.1 (20251006.0113)
 -->
<!-- Title: com.bank.model.accounts.Account Pages: 1 -->
<svg width="239pt" height="772pt"
 viewBox="0.00 0.00 239.00 772.00" xmlns="http://www.w3.org/2000/svg" xmlns:xlink="http://www.w3.org/1999/xlink">
<g id="graph0" class="graph" transform="scale(1 1) rotate(0) translate(4 768)">
<title>com.bank.model.accounts.Account</title>
<!-- Node1 -->
<g id="Node000001" class="node">
<title>Node1</title>
<g id="a_Node000001"><a xlink:title="Abstract base class for bank accounts.">
<polygon fill="#999999" stroke="none" points="129.38,-336 3.62,-336 3.62,0 129.38,0 129.38,-336"/>
<text xml:space="preserve" text-anchor="start" x="7.62" y="-322.5" font-family="Helvetica,sans-Serif" font-size="10.00">com.bank.model.accounts.</text>
<text xml:space="preserve" text-anchor="start" x="48.5" y="-310.5" font-family="Helvetica,sans-Serif" font-size="10.00">Account</text>
<text xml:space="preserve" text-anchor="start" x="10" y="-294.5" font-family="Helvetica,sans-Serif" font-size="10.00">#</text>
<text xml:space="preserve" text-anchor="start" x="21.62" y="-294.5" font-family="Helvetica,sans-Serif" font-size="10.00">iban</text>
<text xml:space="preserve" text-anchor="start" x="10" y="-278.5" font-family="Helvetica,sans-Serif" font-size="10.00">#</text>
<text xml:space="preserve" text-anchor="start" x="21.62" y="-278.5" font-family="Helvetica,sans-Serif" font-size="10.00">balance</text>
<text xml:space="preserve" text-anchor="start" x="10" y="-262.5" font-family="Helvetica,sans-Serif" font-size="10.00">#</text>
<text xml:space="preserve" text-anchor="start" x="21.62" y="-262.5" font-family="Helvetica,sans-Serif" font-size="10.00">interestRate</text>
<text xml:space="preserve" text-anchor="start" x="10" y="-246.5" font-family="Helvetica,sans-Serif" font-size="10.00">#</text>
<text xml:space="preserve" text-anchor="start" x="21.62" y="-246.5" font-family="Helvetica,sans-Serif" font-size="10.00">dateCreated</text>
<text xml:space="preserve" text-anchor="start" x="9.62" y="-230.5" font-family="Helvetica,sans-Serif" font-size="10.00">+</text>
<text xml:space="preserve" text-anchor="start" x="21.62" y="-230.5" font-family="Helvetica,sans-Serif" font-size="10.00">Account()</text>
<text xml:space="preserve" text-anchor="start" x="9.62" y="-214.5" font-family="Helvetica,sans-Serif" font-size="10.00">+</text>
<text xml:space="preserve" text-anchor="start" x="21.62" y="-214.5" font-family="Helvetica,sans-Serif" font-size="10.00">getIban()</text>
<text xml:space="preserve" text-anchor="start" x="9.62" y="-198.5" font-family="Helvetica,sans-Serif" font-size="10.00">+</text>
<text xml:space="preserve" text-anchor="start" x="21.62" y="-198.5" font-family="Helvetica,sans-Serif" font-size="10.00">setIban()</text>
<text xml:space="preserve" text-anchor="start" x="9.62" y="-182.5" font-family="Helvetica,sans-Serif" font-size="10.00">+</text>
<text xml:space="preserve" text-anchor="start" x="21.62" y="-182.5" font-family="Helvetica,sans-Serif" font-size="10.00">getOwner()</text>
<text xml:space="preserve" text-anchor="start" x="9.62" y="-166.5" font-family="Helvetica,sans-Serif" font-size="10.00">+</text>
<text xml:space="preserve" text-anchor="start" x="21.62" y="-166.5" font-family="Helvetica,sans-Serif" font-size="10.00">getBalance()</text>
<text xml:space="preserve" text-anchor="start" x="9.62" y="-150.5" font-family="Helvetica,sans-Serif" font-size="10.00">+</text>
<text xml:space="preserve" text-anchor="start" x="21.62" y="-150.5" font-family="Helvetica,sans-Serif" font-size="10.00">getInterestRate()</text>
<text xml:space="preserve" text-anchor="start" x="9.62" y="-134.5" font-family="Helvetica,sans-Serif" font-size="10.00">+</text>
<text xml:space="preserve" text-anchor="start" x="21.62" y="-134.5" font-family="Helvetica,sans-Serif" font-size="10.00">deposit()</text>
<text xml:space="preserve" text-anchor="start" x="9.62" y="-118.5" font-family="Helvetica,sans-Serif" font-size="10.00">+</text>
<text xml:space="preserve" text-anchor="start" x="21.62" y="-118.5" font-family="Helvetica,sans-Serif" font-size="10.00">withdraw()</text>
<text xml:space="preserve" text-anchor="start" x="9.62" y="-102.5" font-family="Helvetica,sans-Serif" font-size="10.00">+</text>
<text xml:space="preserve" text-anchor="start" x="21.62" y="-102.5" font-family="Helvetica,sans-Serif" font-size="10.00">setBalance()</text>
<text xml:space="preserve" text-anchor="start" x="9.62" y="-86.5" font-family="Helvetica,sans-Serif" font-size="10.00">+</text>
<text xml:space="preserve" text-anchor="start" x="21.62" y="-86.5" font-family="Helvetica,sans-Serif" font-size="10.00">getDateCreated()</text>
<text xml:space="preserve" text-anchor="start" x="9.62" y="-70.5" font-family="Helvetica,sans-Serif" font-size="10.00">+</text>
<text xml:space="preserve" text-anchor="start" x="21.62" y="-70.5" font-family="Helvetica,sans-Serif" font-size="10.00">setDateCreated()</text>
<text xml:space="preserve" text-anchor="start" x="9.62" y="-54.5" font-family="Helvetica,sans-Serif" font-size="10.00">+</text>
<text xml:space="preserve" text-anchor="start" x="21.62" y="-54.5" font-family="Helvetica,sans-Serif" font-size="10.00">getAccountTypeCode()</text>
<text xml:space="preserve" text-anchor="start" x="9.62" y="-38.5" font-family="Helvetica,sans-Serif" font-size="10.00">+</text>
<text xml:space="preserve" text-anchor="start" x="21.62" y="-38.5" font-family="Helvetica,sans-Serif" font-size="10.00">marshal()</text>
<text xml:space="preserve" text-anchor="start" x="9.62" y="-22.5" font-family="Helvetica,sans-Serif" font-size="10.00">+</text>
<text xml:space="preserve" text-anchor="start" x="21.62" y="-22.5" font-family="Helvetica,sans-Serif" font-size="10.00">unmarshal()</text>
<text xml:space="preserve" text-anchor="start" x="9.62" y="-6.5" font-family="Helvetica,sans-Serif" font-size="10.00">+</text>
<text xml:space="preserve" text-anchor="start" x="21.62" y="-6.5" font-family="Helvetica,sans-Serif" font-size="10.00">generateIBAN()</text>
<polygon fill="#666666" stroke="#666666" points="3.62,-306 3.62,-306 129.38,-306 129.38,-306 3.62,-306"/>
<polygon fill="#666666" stroke="#666666" points="3.62,-242 3.62,-242 19.62,-242 19.62,-242 3.62,-242"/>
<polygon fill="#666666" stroke="#666666" points="19.62,-242 19.62,-242 129.38,-242 129.38,-242 19.62,-242"/>
<polygon fill="none" stroke="#666666" points="3.62,0 3.62,-336 129.38,-336 129.38,0 3.62,0"/>
</a>
</g>
</g>
<!-- Node2 -->
<g id="Node000002" class="node">
<title>Node2</title>
<g id="a_Node000002"><a xlink:href="../../dd/d8c/interfacecom_1_1bank_1_1storage_1_1_storable.html" target="_top" xlink:title="Defines the serialization and deserialization behavior for persistent objects.">
<polygon fill="white" stroke="none" points="125,-764 0,-764 0,-696 125,-696 125,-764"/>
<text xml:space="preserve" text-anchor="start" x="4" y="-750.5" font-family="Helvetica,sans-Serif" font-size="10.00">com.bank.storage.Storable</text>
<text xml:space="preserve" text-anchor="start" x="61" y="-734.5" font-family="Helvetica,sans-Serif" font-size="10.00"> </text>
<text xml:space="preserve" text-anchor="start" x="18" y="-718.5" font-family="Helvetica,sans-Serif" font-size="10.00">+</text>
<text xml:space="preserve" text-anchor="start" x="42" y="-718.5" font-family="Helvetica,sans-Serif" font-size="10.00">marshal()</text>
<text xml:space="preserve" text-anchor="start" x="18" y="-702.5" font-family="Helvetica,sans-Serif" font-size="10.00">+</text>
<text xml:space="preserve" text-anchor="start" x="42" y="-702.5" font-family="Helvetica,sans-Serif" font-size="10.00">unmarshal()</text>
<polygon fill="#666666" stroke="#666666" points="0,-746 0,-746 125,-746 125,-746 0,-746"/>
<polygon fill="#666666" stroke="#666666" points="0,-730 0,-730 125,-730 125,-730 0,-730"/>
<polygon fill="none" stroke="#666666" points="0,-696 0,-764 125,-764 125,-696 0,-696"/>
</a>
</g>
</g>
<!-- Node2&#45;&gt;Node1 -->
<g id="edge1_Node000001_Node000002" class="edge">
<title>Node2&#45;&gt;Node1</title>
<g id="a_edge1_Node000001_Node000002"><a xlink:title=" ">
<path fill="none" stroke="#63b8ff" d="M62.82,-684.81C63.35,-610.37 64.45,-456.3 65.31,-335.83"/>
<polygon fill="none" stroke="#63b8ff" points="59.32,-684.52 62.75,-694.55 66.32,-684.57 59.32,-684.52"/>
</a>
</g>
</g>
<!-- Node4 -->
<g id="Node000004" class="node">
<title>Node4</title>
<g id="a_Node000004"><a xlink:href="../../dd/dee/classcom_1_1bank_1_1model_1_1users_1_1_user.html" target="_top" xlink:title="Abstract base class for all user types in the banking system.">
<polygon fill="white" stroke="none" points="215,-659 84,-659 84,-495 215,-495 215,-659"/>
<text xml:space="preserve" text-anchor="start" x="88" y="-645.5" font-family="Helvetica,sans-Serif" font-size="10.00">com.bank.model.users.User</text>
<text xml:space="preserve" text-anchor="start" x="97.69" y="-629.5" font-family="Helvetica,sans-Serif" font-size="10.00">#</text>
<text xml:space="preserve" text-anchor="start" x="116.62" y="-629.5" font-family="Helvetica,sans-Serif" font-size="10.00">username</text>
<text xml:space="preserve" text-anchor="start" x="97.69" y="-613.5" font-family="Helvetica,sans-Serif" font-size="10.00">#</text>
<text xml:space="preserve" text-anchor="start" x="116.62" y="-613.5" font-family="Helvetica,sans-Serif" font-size="10.00">password</text>
<text xml:space="preserve" text-anchor="start" x="97.69" y="-597.5" font-family="Helvetica,sans-Serif" font-size="10.00">#</text>
<text xml:space="preserve" text-anchor="start" x="116.62" y="-597.5" font-family="Helvetica,sans-Serif" font-size="10.00">fullName</text>
<text xml:space="preserve" text-anchor="start" x="97.31" y="-581.5" font-family="Helvetica,sans-Serif" font-size="10.00">+</text>
<text xml:space="preserve" text-anchor="start" x="116.62" y="-581.5" font-family="Helvetica,sans-Serif" font-size="10.00">User()</text>
<text xml:space="preserve" text-anchor="start" x="97.31" y="-565.5" font-family="Helvetica,sans-Serif" font-size="10.00">+</text>
<text xml:space="preserve" text-anchor="start" x="116.62" y="-565.5" font-family="Helvetica,sans-Serif" font-size="10.00">getRole()</text>
<text xml:space="preserve" text-anchor="start" x="97.31" y="-549.5" font-family="Helvetica,sans-Serif" font-size="10.00">+</text>
<text xml:space="preserve" text-anchor="start" x="116.62" y="-549.5" font-family="Helvetica,sans-Serif" font-size="10.00">getUsername()</text>
<text xml:space="preserve" text-anchor="start" x="97.31" y="-533.5" font-family="Helvetica,sans-Serif" font-size="10.00">+</text>
<text xml:space="preserve" text-anchor="start" x="116.62" y="-533.5" font-family="Helvetica,sans-Serif" font-size="10.00">getPassword()</text>
<text xml:space="preserve" text-anchor="start" x="97.31" y="-517.5" font-family="Helvetica,sans-Serif" font-size="10.00">+</text>
<text xml:space="preserve" text-anchor="start" x="116.62" y="-517.5" font-family="Helvetica,sans-Serif" font-size="10.00">getFullName()</text>
<text xml:space="preserve" text-anchor="start" x="97.31" y="-501.5" font-family="Helvetica,sans-Serif" font-size="10.00">+</text>
<text xml:space="preserve" text-anchor="start" x="116.62" y="-501.5" font-family="Helvetica,sans-Serif" font-size="10.00">checkPassword()</text>
<polygon fill="#666666" stroke="#666666" points="84,-641 84,-641 215,-641 215,-641 84,-641"/>
<polygon fill="#666666" stroke="#666666" points="84,-593 84,-593 114.62,-593 114.62,-593 84,-593"/>
<polygon fill="#666666" stroke="#666666" points="114.62,-593 114.62,-593 215,-593 215,-593 114.62,-593"/>
<polygon fill="none" stroke="#666666" points="84,-495 84,-659 215,-659 215,-495 84,-495"/>
</a>
</g>
</g>
<!-- Node2&#45;&gt;Node4 -->
<g id="edge4_Node000004_Node000002" class="edge">
<title>Node2&#45;&gt;Node4</title>
<g id="a_edge4_Node000004_Node000002"><a xlink:title=" ">
<path fill="none" stroke="#63b8ff" d="M87.05,-686.39C92.07,-677.68 97.5,-668.26 102.99,-658.72"/>
<polygon fill="none" stroke="#63b8ff" points="84.09,-684.51 82.13,-694.92 90.16,-688.01 84.09,-684.51"/>
</a>
</g>
</g>
<!-- Node3 -->
<g id="Node000003" class="node">
<title>Node3</title>
<g id="a_Node000003"><a xlink:href="../../dd/d5f/classcom_1_1bank_1_1model_1_1users_1_1_customer.html" target="_top" xlink:title="Abstract base class representing a general bank customer.">
<polygon fill="white" stroke="none" points="230.88,-458 78.12,-458 78.12,-390 230.88,-390 230.88,-458"/>
<text xml:space="preserve" text-anchor="start" x="82.12" y="-444.5" font-family="Helvetica,sans-Serif" font-size="10.00">com.bank.model.users.Customer</text>
<text xml:space="preserve" text-anchor="start" x="104" y="-428.5" font-family="Helvetica,sans-Serif" font-size="10.00">#</text>
<text xml:space="preserve" text-anchor="start" x="135.12" y="-428.5" font-family="Helvetica,sans-Serif" font-size="10.00">vat</text>
<text xml:space="preserve" text-anchor="start" x="103.62" y="-412.5" font-family="Helvetica,sans-Serif" font-size="10.00">+</text>
<text xml:space="preserve" text-anchor="start" x="135.12" y="-412.5" font-family="Helvetica,sans-Serif" font-size="10.00">Customer()</text>
<text xml:space="preserve" text-anchor="start" x="103.62" y="-396.5" font-family="Helvetica,sans-Serif" font-size="10.00">+</text>
<text xml:space="preserve" text-anchor="start" x="135.12" y="-396.5" font-family="Helvetica,sans-Serif" font-size="10.00">getVat()</text>
<polygon fill="#666666" stroke="#666666" points="78.12,-440 78.12,-440 230.88,-440 230.88,-440 78.12,-440"/>
<polygon fill="#666666" stroke="#666666" points="78.12,-424 78.12,-424 133.12,-424 133.12,-424 78.12,-424"/>
<polygon fill="#666666" stroke="#666666" points="133.12,-424 133.12,-424 230.88,-424 230.88,-424 133.12,-424"/>
<polygon fill="none" stroke="#666666" points="78.12,-390 78.12,-458 230.88,-458 230.88,-390 78.12,-390"/>
</a>
</g>
</g>
<!-- Node3&#45;&gt;Node1 -->
<g id="edge2_Node000001_Node000003" class="edge">
<title>Node3&#45;&gt;Node1</title>
<g id="a_edge2_Node000001_Node000003"><a xlink:title=" ">
<path fill="none" stroke="#63b8ff" d="M143.09,-390.05C138.97,-378.18 133.99,-363.81 128.57,-348.17"/>
<polygon fill="none" stroke="#63b8ff" points="128.57,-348.16 122.83,-343.8 124.64,-336.82 130.39,-341.18 128.57,-348.16"/>
</a>
</g>
<text xml:space="preserve" text-anchor="start" x="138.49" y="-359.5" font-family="Helvetica,sans-Serif" font-size="10.00" fill="grey">#owner</text>
</g>
<!-- Node4&#45;&gt;Node3 -->
<g id="edge3_Node000003_Node000004" class="edge">
<title>Node4&#45;&gt;Node3</title>
<g id="a_edge3_Node000003_Node000004"><a xlink:title=" ">
<path fill="none" stroke="#63b8ff" d="M152.55,-483.86C152.86,-474.67 153.15,-465.83 153.41,-457.92"/>
<polygon fill="none" stroke="#63b8ff" points="149.06,-483.57 152.23,-493.68 156.05,-483.8 149.06,-483.57"/>
</a>
</g>
</g>
</g>
</svg>
