<?xml version="1.0" encoding="UTF-8" standalone="no"?>
<!DOCTYPE svg PUBLIC "-//W3C//DTD SVG 1.1//EN"
 "http://www.w3.org/Graphics/SVG/1.1/DTD/svg11.dtd">
<!-- Generated by graphviz version 14.0.1 (20251006.0113)
 -->
<!-- Title: gui/view/panel/CompanyIssuedBillsPanel.java Pages: 1 -->
<svg width="870pt" height="108pt"
 viewBox="0.00 0.00 870.00 108.00" xmlns="http://www.w3.org/2000/svg" xmlns:xlink="http://www.w3.org/1999/xlink">
<g id="graph0" class="graph" transform="scale(1 1) rotate(0) translate(4 104)">
<title>gui/view/panel/CompanyIssuedBillsPanel.java</title>
<!-- Node1 -->
<g id="Node000001" class="node">
<title>Node1</title>
<g id="a_Node000001"><a xlink:title=" ">
<polygon fill="#999999" stroke="#666666" points="611.88,-100 459.38,-100 459.38,-68 611.88,-68 611.88,-100"/>
<text xml:space="preserve" text-anchor="start" x="467.38" y="-86.5" font-family="Helvetica,sans-Serif" font-size="10.00">gui/view/panel/CompanyIssued</text>
<text xml:space="preserve" text-anchor="middle" x="535.62" y="-74.5" font-family="Helvetica,sans-Serif" font-size="10.00">BillsPanel.java</text>
</a>
</g>
</g>
<!-- Node2 -->
<g id="Node000002" class="node">
<title>Node2</title>
<g id="a_Node000002"><a xlink:title=" ">
<polygon fill="#e0e0e0" stroke="#999999" points="153.25,-26 0,-26 0,-6 153.25,-6 153.25,-26"/>
<text xml:space="preserve" text-anchor="middle" x="76.62" y="-12.5" font-family="Helvetica,sans-Serif" font-size="10.00">com.bank.manager.BillManager</text>
</a>
</g>
</g>
<!-- Node1&#45;&gt;Node2 -->
<g id="edge1_Node000001_Node000002" class="edge">
<title>Node1&#45;&gt;Node2</title>
<g id="a_edge1_Node000001_Node000002"><a xlink:title=" ">
<path fill="none" stroke="#63b8ff" d="M459.07,-73.37C383.58,-63.68 264.99,-47.92 162.62,-32 155.28,-30.86 147.59,-29.6 139.96,-28.32"/>
<polygon fill="#63b8ff" stroke="#63b8ff" points="140.81,-24.91 130.37,-26.68 139.64,-31.81 140.81,-24.91"/>
</a>
</g>
</g>
<!-- Node3 -->
<g id="Node000003" class="node">
<title>Node3</title>
<g id="a_Node000003"><a xlink:title=" ">
<polygon fill="#e0e0e0" stroke="#999999" points="305.5,-32 171.75,-32 171.75,0 305.5,0 305.5,-32"/>
<text xml:space="preserve" text-anchor="start" x="179.75" y="-18.5" font-family="Helvetica,sans-Serif" font-size="10.00">com.bank.model.accounts.</text>
<text xml:space="preserve" text-anchor="middle" x="238.62" y="-6.5" font-family="Helvetica,sans-Serif" font-size="10.00">Account</text>
</a>
</g>
</g>
<!-- Node1&#45;&gt;Node3 -->
<g id="edge2_Node000001_Node000003" class="edge">
<title>Node1&#45;&gt;Node3</title>
<g id="a_edge2_Node000001_Node000003"><a xlink:title=" ">
<path fill="none" stroke="#63b8ff" d="M465.99,-67.53C421.32,-57.6 363.25,-44.69 316.97,-34.41"/>
<polygon fill="#63b8ff" stroke="#63b8ff" points="317.78,-31 307.26,-32.25 316.26,-37.84 317.78,-31"/>
</a>
</g>
</g>
<!-- Node4 -->
<g id="Node000004" class="node">
<title>Node4</title>
<g id="a_Node000004"><a xlink:title=" ">
<polygon fill="#e0e0e0" stroke="#999999" points="448,-26 323.25,-26 323.25,-6 448,-6 448,-26"/>
<text xml:space="preserve" text-anchor="middle" x="385.62" y="-12.5" font-family="Helvetica,sans-Serif" font-size="10.00">com.bank.model.bills.Bill</text>
</a>
</g>
</g>
<!-- Node1&#45;&gt;Node4 -->
<g id="edge3_Node000001_Node000004" class="edge">
<title>Node1&#45;&gt;Node4</title>
<g id="a_edge3_Node000001_Node000004"><a xlink:title=" ">
<path fill="none" stroke="#63b8ff" d="M500.46,-67.53C475.38,-56.49 441.92,-41.77 417.6,-31.07"/>
<polygon fill="#63b8ff" stroke="#63b8ff" points="419.07,-27.89 408.51,-27.07 416.25,-34.3 419.07,-27.89"/>
</a>
</g>
</g>
<!-- Node5 -->
<g id="Node000005" class="node">
<title>Node5</title>
<g id="a_Node000005"><a xlink:title=" ">
<polygon fill="#e0e0e0" stroke="#999999" points="605.12,-26 466.12,-26 466.12,-6 605.12,-6 605.12,-26"/>
<text xml:space="preserve" text-anchor="middle" x="535.62" y="-12.5" font-family="Helvetica,sans-Serif" font-size="10.00">com.bank.model.users.User</text>
</a>
</g>
</g>
<!-- Node1&#45;&gt;Node5 -->
<g id="edge4_Node000001_Node000005" class="edge">
<title>Node1&#45;&gt;Node5</title>
<g id="a_edge4_Node000001_Node000005"><a xlink:title=" ">
<path fill="none" stroke="#63b8ff" d="M535.62,-67.69C535.62,-58.8 535.62,-47.46 535.62,-37.77"/>
<polygon fill="#63b8ff" stroke="#63b8ff" points="539.13,-37.83 535.63,-27.83 532.13,-37.83 539.13,-37.83"/>
</a>
</g>
</g>
<!-- Node6 -->
<g id="Node000006" class="node">
<title>Node6</title>
<g id="a_Node000006"><a xlink:title=" ">
<polygon fill="#e0e0e0" stroke="#999999" points="697.88,-26 623.38,-26 623.38,-6 697.88,-6 697.88,-26"/>
<text xml:space="preserve" text-anchor="middle" x="660.62" y="-12.5" font-family="Helvetica,sans-Serif" font-size="10.00">javax.swing.*</text>
</a>
</g>
</g>
<!-- Node1&#45;&gt;Node6 -->
<g id="edge5_Node000001_Node000006" class="edge">
<title>Node1&#45;&gt;Node6</title>
<g id="a_edge5_Node000001_Node000006"><a xlink:title=" ">
<path fill="none" stroke="#63b8ff" d="M564.93,-67.53C585.36,-56.74 612.46,-42.43 632.6,-31.8"/>
<polygon fill="#63b8ff" stroke="#63b8ff" points="634.16,-34.93 641.37,-27.17 630.89,-28.74 634.16,-34.93"/>
</a>
</g>
</g>
<!-- Node7 -->
<g id="Node000007" class="node">
<title>Node7</title>
<g id="a_Node000007"><a xlink:title=" ">
<polygon fill="#e0e0e0" stroke="#999999" points="775.38,-26 715.88,-26 715.88,-6 775.38,-6 775.38,-26"/>
<text xml:space="preserve" text-anchor="middle" x="745.62" y="-12.5" font-family="Helvetica,sans-Serif" font-size="10.00">java.awt.*</text>
</a>
</g>
</g>
<!-- Node1&#45;&gt;Node7 -->
<g id="edge6_Node000001_Node000007" class="edge">
<title>Node1&#45;&gt;Node7</title>
<g id="a_edge6_Node000001_Node000007"><a xlink:title=" ">
<path fill="none" stroke="#63b8ff" d="M591.42,-67.54C625,-57.94 668.51,-44.99 706.62,-32 708.17,-31.47 709.74,-30.92 711.33,-30.36"/>
<polygon fill="#63b8ff" stroke="#63b8ff" points="712.21,-33.76 720.39,-27.02 709.79,-27.2 712.21,-33.76"/>
</a>
</g>
</g>
<!-- Node8 -->
<g id="Node000008" class="node">
<title>Node8</title>
<g id="a_Node000008"><a xlink:title=" ">
<polygon fill="#e0e0e0" stroke="#999999" points="861.88,-26 793.38,-26 793.38,-6 861.88,-6 861.88,-26"/>
<text xml:space="preserve" text-anchor="middle" x="827.62" y="-12.5" font-family="Helvetica,sans-Serif" font-size="10.00">java.util.List</text>
</a>
</g>
</g>
<!-- Node1&#45;&gt;Node8 -->
<g id="edge7_Node000001_Node000008" class="edge">
<title>Node1&#45;&gt;Node8</title>
<g id="a_edge7_Node000001_Node000008"><a xlink:title=" ">
<path fill="none" stroke="#63b8ff" d="M612.26,-70.04C661.82,-60.99 727.51,-47.73 784.62,-32 786.89,-31.38 789.2,-30.7 791.53,-29.98"/>
<polygon fill="#63b8ff" stroke="#63b8ff" points="792.48,-33.35 800.9,-26.92 790.3,-26.7 792.48,-33.35"/>
</a>
</g>
</g>
</g>
</svg>
