<?xml version="1.0" encoding="UTF-8" standalone="no"?>
<!DOCTYPE svg PUBLIC "-//W3C//DTD SVG 1.1//EN"
 "http://www.w3.org/Graphics/SVG/1.1/DTD/svg11.dtd">
<!-- Generated by graphviz version 14.0.1 (20251006.0113)
 -->
<!-- Title: gui/view/panel/AdminCustomerDetailsPanel.java Pages: 1 -->
<svg width="912pt" height="108pt"
 viewBox="0.00 0.00 912.00 108.00" xmlns="http://www.w3.org/2000/svg" xmlns:xlink="http://www.w3.org/1999/xlink">
<g id="graph0" class="graph" transform="scale(1 1) rotate(0) translate(4 104)">
<title>gui/view/panel/AdminCustomerDetailsPanel.java</title>
<!-- Node1 -->
<g id="Node000001" class="node">
<title>Node1</title>
<g id="a_Node000001"><a xlink:title=" ">
<polygon fill="#999999" stroke="#666666" points="643,-100 491.25,-100 491.25,-68 643,-68 643,-100"/>
<text xml:space="preserve" text-anchor="start" x="499.25" y="-86.5" font-family="Helvetica,sans-Serif" font-size="10.00">gui/view/panel/AdminCustomer</text>
<text xml:space="preserve" text-anchor="middle" x="567.12" y="-74.5" font-family="Helvetica,sans-Serif" font-size="10.00">DetailsPanel.java</text>
</a>
</g>
</g>
<!-- Node2 -->
<g id="Node000002" class="node">
<title>Node2</title>
<g id="a_Node000002"><a xlink:title=" ">
<polygon fill="#e0e0e0" stroke="#999999" points="138.25,-32 0,-32 0,0 138.25,0 138.25,-32"/>
<text xml:space="preserve" text-anchor="start" x="8" y="-18.5" font-family="Helvetica,sans-Serif" font-size="10.00">com.bank.manager.Account</text>
<text xml:space="preserve" text-anchor="middle" x="69.12" y="-6.5" font-family="Helvetica,sans-Serif" font-size="10.00">Manager</text>
</a>
</g>
</g>
<!-- Node1&#45;&gt;Node2 -->
<g id="edge1_Node000001_Node000002" class="edge">
<title>Node1&#45;&gt;Node2</title>
<g id="a_edge1_Node000001_Node000002"><a xlink:title=" ">
<path fill="none" stroke="#63b8ff" d="M490.84,-75.26C409.17,-66.62 275.53,-51.48 149.8,-32.19"/>
<polygon fill="#63b8ff" stroke="#63b8ff" points="150.36,-28.73 139.94,-30.66 149.28,-35.65 150.36,-28.73"/>
</a>
</g>
</g>
<!-- Node3 -->
<g id="Node000003" class="node">
<title>Node3</title>
<g id="a_Node000003"><a xlink:title=" ">
<polygon fill="#e0e0e0" stroke="#999999" points="317.5,-26 156.75,-26 156.75,-6 317.5,-6 317.5,-26"/>
<text xml:space="preserve" text-anchor="middle" x="237.12" y="-12.5" font-family="Helvetica,sans-Serif" font-size="10.00">com.bank.manager.UserManager</text>
</a>
</g>
</g>
<!-- Node1&#45;&gt;Node3 -->
<g id="edge2_Node000001_Node000003" class="edge">
<title>Node1&#45;&gt;Node3</title>
<g id="a_edge2_Node000001_Node000003"><a xlink:title=" ">
<path fill="none" stroke="#63b8ff" d="M491,-67.78C431.47,-55.87 349.94,-39.56 295.5,-28.67"/>
<polygon fill="#63b8ff" stroke="#63b8ff" points="296.28,-25.26 285.79,-26.73 294.91,-32.13 296.28,-25.26"/>
</a>
</g>
</g>
<!-- Node4 -->
<g id="Node000004" class="node">
<title>Node4</title>
<g id="a_Node000004"><a xlink:title=" ">
<polygon fill="#e0e0e0" stroke="#999999" points="469,-32 335.25,-32 335.25,0 469,0 469,-32"/>
<text xml:space="preserve" text-anchor="start" x="343.25" y="-18.5" font-family="Helvetica,sans-Serif" font-size="10.00">com.bank.model.accounts.</text>
<text xml:space="preserve" text-anchor="middle" x="402.12" y="-6.5" font-family="Helvetica,sans-Serif" font-size="10.00">Account</text>
</a>
</g>
</g>
<!-- Node1&#45;&gt;Node4 -->
<g id="edge3_Node000001_Node000004" class="edge">
<title>Node1&#45;&gt;Node4</title>
<g id="a_edge3_Node000001_Node000004"><a xlink:title=" ">
<path fill="none" stroke="#63b8ff" d="M528.44,-67.53C505.46,-58.33 476.08,-46.58 451.44,-36.73"/>
<polygon fill="#63b8ff" stroke="#63b8ff" points="452.84,-33.52 442.26,-33.05 450.24,-40.02 452.84,-33.52"/>
</a>
</g>
</g>
<!-- Node5 -->
<g id="Node000005" class="node">
<title>Node5</title>
<g id="a_Node000005"><a xlink:title=" ">
<polygon fill="#e0e0e0" stroke="#999999" points="647.5,-26 486.75,-26 486.75,-6 647.5,-6 647.5,-26"/>
<text xml:space="preserve" text-anchor="middle" x="567.12" y="-12.5" font-family="Helvetica,sans-Serif" font-size="10.00">com.bank.model.users.Customer</text>
</a>
</g>
</g>
<!-- Node1&#45;&gt;Node5 -->
<g id="edge4_Node000001_Node000005" class="edge">
<title>Node1&#45;&gt;Node5</title>
<g id="a_edge4_Node000001_Node000005"><a xlink:title=" ">
<path fill="none" stroke="#63b8ff" d="M567.12,-67.69C567.12,-58.8 567.12,-47.46 567.12,-37.77"/>
<polygon fill="#63b8ff" stroke="#63b8ff" points="570.63,-37.83 567.13,-27.83 563.63,-37.83 570.63,-37.83"/>
</a>
</g>
</g>
<!-- Node6 -->
<g id="Node000006" class="node">
<title>Node6</title>
<g id="a_Node000006"><a xlink:title=" ">
<polygon fill="#e0e0e0" stroke="#999999" points="740.38,-26 665.88,-26 665.88,-6 740.38,-6 740.38,-26"/>
<text xml:space="preserve" text-anchor="middle" x="703.12" y="-12.5" font-family="Helvetica,sans-Serif" font-size="10.00">javax.swing.*</text>
</a>
</g>
</g>
<!-- Node1&#45;&gt;Node6 -->
<g id="edge5_Node000001_Node000006" class="edge">
<title>Node1&#45;&gt;Node6</title>
<g id="a_edge5_Node000001_Node000006"><a xlink:title=" ">
<path fill="none" stroke="#63b8ff" d="M599.01,-67.53C621.55,-56.59 651.54,-42.04 673.54,-31.36"/>
<polygon fill="#63b8ff" stroke="#63b8ff" points="674.8,-34.64 682.27,-27.12 671.75,-28.34 674.8,-34.64"/>
</a>
</g>
</g>
<!-- Node7 -->
<g id="Node000007" class="node">
<title>Node7</title>
<g id="a_Node000007"><a xlink:title=" ">
<polygon fill="#e0e0e0" stroke="#999999" points="817.88,-26 758.38,-26 758.38,-6 817.88,-6 817.88,-26"/>
<text xml:space="preserve" text-anchor="middle" x="788.12" y="-12.5" font-family="Helvetica,sans-Serif" font-size="10.00">java.awt.*</text>
</a>
</g>
</g>
<!-- Node1&#45;&gt;Node7 -->
<g id="edge6_Node000001_Node000007" class="edge">
<title>Node1&#45;&gt;Node7</title>
<g id="a_edge6_Node000001_Node000007"><a xlink:title=" ">
<path fill="none" stroke="#63b8ff" d="M627.81,-67.53C663.4,-58.07 709.1,-45.27 749.12,-32 750.72,-31.47 752.34,-30.92 753.98,-30.34"/>
<polygon fill="#63b8ff" stroke="#63b8ff" points="755.13,-33.65 763.32,-26.92 752.73,-27.07 755.13,-33.65"/>
</a>
</g>
</g>
<!-- Node8 -->
<g id="Node000008" class="node">
<title>Node8</title>
<g id="a_Node000008"><a xlink:title=" ">
<polygon fill="#e0e0e0" stroke="#999999" points="904.38,-26 835.88,-26 835.88,-6 904.38,-6 904.38,-26"/>
<text xml:space="preserve" text-anchor="middle" x="870.12" y="-12.5" font-family="Helvetica,sans-Serif" font-size="10.00">java.util.List</text>
</a>
</g>
</g>
<!-- Node1&#45;&gt;Node8 -->
<g id="edge7_Node000001_Node000008" class="edge">
<title>Node1&#45;&gt;Node8</title>
<g id="a_edge7_Node000001_Node000008"><a xlink:title=" ">
<path fill="none" stroke="#63b8ff" d="M643.44,-70.97C695.6,-62.03 766.08,-48.55 827.12,-32 829.39,-31.39 831.71,-30.71 834.04,-30"/>
<polygon fill="#63b8ff" stroke="#63b8ff" points="834.98,-33.38 843.41,-26.96 832.81,-26.72 834.98,-33.38"/>
</a>
</g>
</g>
</g>
</svg>
