<?xml version="1.0" encoding="UTF-8" standalone="no"?>
<!DOCTYPE svg PUBLIC "-//W3C//DTD SVG 1.1//EN"
 "http://www.w3.org/Graphics/SVG/1.1/DTD/svg11.dtd">
<!-- Generated by graphviz version 14.0.1 (20251006.0113)
 -->
<!-- Title: manager/BillManager.java Pages: 1 -->
<svg width="873pt" height="96pt"
 viewBox="0.00 0.00 873.00 96.00" xmlns="http://www.w3.org/2000/svg" xmlns:xlink="http://www.w3.org/1999/xlink">
<g id="graph0" class="graph" transform="scale(1 1) rotate(0) translate(4 92)">
<title>manager/BillManager.java</title>
<!-- Node1 -->
<g id="Node000001" class="node">
<title>Node1</title>
<g id="a_Node000001"><a xlink:title=" ">
<polygon fill="#999999" stroke="#666666" points="410.88,-88 282.38,-88 282.38,-68 410.88,-68 410.88,-88"/>
<text xml:space="preserve" text-anchor="middle" x="346.62" y="-74.5" font-family="Helvetica,sans-Serif" font-size="10.00">manager/BillManager.java</text>
</a>
</g>
</g>
<!-- Node2 -->
<g id="Node000002" class="node">
<title>Node2</title>
<g id="a_Node000002"><a xlink:title=" ">
<polygon fill="#e0e0e0" stroke="#999999" points="63.25,-26 0,-26 0,-6 63.25,-6 63.25,-26"/>
<text xml:space="preserve" text-anchor="middle" x="31.62" y="-12.5" font-family="Helvetica,sans-Serif" font-size="10.00">java.io.File</text>
</a>
</g>
</g>
<!-- Node1&#45;&gt;Node2 -->
<g id="edge1_Node000001_Node000002" class="edge">
<title>Node1&#45;&gt;Node2</title>
<g id="a_edge1_Node000001_Node000002"><a xlink:title=" ">
<path fill="none" stroke="#63b8ff" d="M281.96,-69.86C225.98,-62.86 143.15,-50.52 72.62,-32 70.48,-31.44 68.29,-30.81 66.09,-30.13"/>
<polygon fill="#63b8ff" stroke="#63b8ff" points="67.26,-26.83 56.67,-26.97 65.04,-33.47 67.26,-26.83"/>
</a>
</g>
</g>
<!-- Node3 -->
<g id="Node000003" class="node">
<title>Node3</title>
<g id="a_Node000003"><a xlink:title=" ">
<polygon fill="#e0e0e0" stroke="#999999" points="173.5,-26 81.75,-26 81.75,-6 173.5,-6 173.5,-26"/>
<text xml:space="preserve" text-anchor="middle" x="127.62" y="-12.5" font-family="Helvetica,sans-Serif" font-size="10.00">java.util.ArrayList</text>
</a>
</g>
</g>
<!-- Node1&#45;&gt;Node3 -->
<g id="edge2_Node000001_Node000003" class="edge">
<title>Node1&#45;&gt;Node3</title>
<g id="a_edge2_Node000001_Node000003"><a xlink:title=" ">
<path fill="none" stroke="#63b8ff" d="M312.41,-67.62C274.83,-57.33 214.33,-40.75 172.86,-29.39"/>
<polygon fill="#63b8ff" stroke="#63b8ff" points="173.99,-26.07 163.42,-26.81 172.14,-32.83 173.99,-26.07"/>
</a>
</g>
</g>
<!-- Node4 -->
<g id="Node000004" class="node">
<title>Node4</title>
<g id="a_Node000004"><a xlink:title=" ">
<polygon fill="#e0e0e0" stroke="#999999" points="259.88,-26 191.38,-26 191.38,-6 259.88,-6 259.88,-26"/>
<text xml:space="preserve" text-anchor="middle" x="225.62" y="-12.5" font-family="Helvetica,sans-Serif" font-size="10.00">java.util.List</text>
</a>
</g>
</g>
<!-- Node1&#45;&gt;Node4 -->
<g id="edge3_Node000001_Node000004" class="edge">
<title>Node1&#45;&gt;Node4</title>
<g id="a_edge3_Node000001_Node000004"><a xlink:title=" ">
<path fill="none" stroke="#63b8ff" d="M327.72,-67.62C308.09,-57.89 277.15,-42.55 254.47,-31.31"/>
<polygon fill="#63b8ff" stroke="#63b8ff" points="256.27,-28.29 245.75,-26.98 253.16,-34.56 256.27,-28.29"/>
</a>
</g>
</g>
<!-- Node5 -->
<g id="Node000005" class="node">
<title>Node5</title>
<g id="a_Node000005"><a xlink:title=" ">
<polygon fill="#e0e0e0" stroke="#999999" points="415.38,-26 277.88,-26 277.88,-6 415.38,-6 415.38,-26"/>
<text xml:space="preserve" text-anchor="middle" x="346.62" y="-12.5" font-family="Helvetica,sans-Serif" font-size="10.00">com.bank.model.accounts.*</text>
</a>
</g>
</g>
<!-- Node1&#45;&gt;Node5 -->
<g id="edge4_Node000001_Node000005" class="edge">
<title>Node1&#45;&gt;Node5</title>
<g id="a_edge4_Node000001_Node000005"><a xlink:title=" ">
<path fill="none" stroke="#63b8ff" d="M346.62,-67.62C346.62,-59.56 346.62,-47.65 346.62,-37.41"/>
<polygon fill="#63b8ff" stroke="#63b8ff" points="350.13,-37.63 346.63,-27.63 343.13,-37.63 350.13,-37.63"/>
</a>
</g>
</g>
<!-- Node6 -->
<g id="Node000006" class="node">
<title>Node6</title>
<g id="a_Node000006"><a xlink:title=" ">
<polygon fill="#e0e0e0" stroke="#999999" points="555.5,-26 433.75,-26 433.75,-6 555.5,-6 555.5,-26"/>
<text xml:space="preserve" text-anchor="middle" x="494.62" y="-12.5" font-family="Helvetica,sans-Serif" font-size="10.00">com.bank.model.users.*</text>
</a>
</g>
</g>
<!-- Node1&#45;&gt;Node6 -->
<g id="edge5_Node000001_Node000006" class="edge">
<title>Node1&#45;&gt;Node6</title>
<g id="a_edge5_Node000001_Node000006"><a xlink:title=" ">
<path fill="none" stroke="#63b8ff" d="M369.75,-67.62C394.3,-57.67 433.32,-41.85 461.2,-30.55"/>
<polygon fill="#63b8ff" stroke="#63b8ff" points="462.31,-33.88 470.26,-26.88 459.68,-27.39 462.31,-33.88"/>
</a>
</g>
</g>
<!-- Node7 -->
<g id="Node000007" class="node">
<title>Node7</title>
<g id="a_Node000007"><a xlink:title=" ">
<polygon fill="#e0e0e0" stroke="#999999" points="698,-26 573.25,-26 573.25,-6 698,-6 698,-26"/>
<text xml:space="preserve" text-anchor="middle" x="635.62" y="-12.5" font-family="Helvetica,sans-Serif" font-size="10.00">com.bank.model.bills.Bill</text>
</a>
</g>
</g>
<!-- Node1&#45;&gt;Node7 -->
<g id="edge6_Node000001_Node000007" class="edge">
<title>Node1&#45;&gt;Node7</title>
<g id="a_edge6_Node000001_Node000007"><a xlink:title=" ">
<path fill="none" stroke="#63b8ff" d="M392.57,-67.58C436.7,-58.52 505.23,-44.4 564.62,-32 569.54,-30.97 574.65,-29.9 579.78,-28.82"/>
<polygon fill="#63b8ff" stroke="#63b8ff" points="580.39,-32.27 589.46,-26.79 578.95,-25.42 580.39,-32.27"/>
</a>
</g>
</g>
<!-- Node8 -->
<g id="Node000008" class="node">
<title>Node8</title>
<g id="a_Node000008"><a xlink:title=" ">
<polygon fill="#e0e0e0" stroke="#999999" points="865,-32 716.25,-32 716.25,0 865,0 865,-32"/>
<text xml:space="preserve" text-anchor="start" x="724.25" y="-18.5" font-family="Helvetica,sans-Serif" font-size="10.00">com.bank.storage.CsvStorage</text>
<text xml:space="preserve" text-anchor="middle" x="790.62" y="-6.5" font-family="Helvetica,sans-Serif" font-size="10.00">Manager</text>
</a>
</g>
</g>
<!-- Node1&#45;&gt;Node8 -->
<g id="edge7_Node000001_Node000008" class="edge">
<title>Node1&#45;&gt;Node8</title>
<g id="a_edge7_Node000001_Node000008"><a xlink:title=" ">
<path fill="none" stroke="#63b8ff" d="M411.15,-69.97C480.9,-62.13 595.63,-48.57 704.78,-32.23"/>
<polygon fill="#63b8ff" stroke="#63b8ff" points="705.14,-35.71 714.51,-30.76 704.1,-28.79 705.14,-35.71"/>
</a>
</g>
</g>
</g>
</svg>
