<?xml version="1.0" encoding="UTF-8" standalone="no"?>
<!DOCTYPE svg PUBLIC "-//W3C//DTD SVG 1.1//EN"
 "http://www.w3.org/Graphics/SVG/1.1/DTD/svg11.dtd">
<!-- Generated by graphviz version 14.0.1 (20251006.0113)
 -->
<!-- Title: com.bank.model.transactions.Transaction Pages: 1 -->
<svg width="618pt" height="396pt"
 viewBox="0.00 0.00 618.00 396.00" xmlns="http://www.w3.org/2000/svg" xmlns:xlink="http://www.w3.org/1999/xlink">
<g id="graph0" class="graph" transform="scale(1 1) rotate(0) translate(4 392)">
<title>com.bank.model.transactions.Transaction</title>
<!-- Node1 -->
<g id="Node000001" class="node">
<title>Node1</title>
<g id="a_Node000001"><a xlink:title="Abstract base class representing a financial transaction.">
<polygon fill="#999999" stroke="none" points="374.25,-388 235,-388 235,-164 374.25,-164 374.25,-388"/>
<text xml:space="preserve" text-anchor="start" x="239" y="-374.5" font-family="Helvetica,sans-Serif" font-size="10.00">com.bank.model.transactions.</text>
<text xml:space="preserve" text-anchor="start" x="279.12" y="-362.5" font-family="Helvetica,sans-Serif" font-size="10.00">Transaction</text>
<text xml:space="preserve" text-anchor="start" x="247.75" y="-346.5" font-family="Helvetica,sans-Serif" font-size="10.00">#</text>
<text xml:space="preserve" text-anchor="start" x="265.75" y="-346.5" font-family="Helvetica,sans-Serif" font-size="10.00">statementEntry</text>
<text xml:space="preserve" text-anchor="start" x="247.75" y="-330.5" font-family="Helvetica,sans-Serif" font-size="10.00">#</text>
<text xml:space="preserve" text-anchor="start" x="265.75" y="-330.5" font-family="Helvetica,sans-Serif" font-size="10.00">transactionId</text>
<text xml:space="preserve" text-anchor="start" x="247.75" y="-314.5" font-family="Helvetica,sans-Serif" font-size="10.00">#</text>
<text xml:space="preserve" text-anchor="start" x="265.75" y="-314.5" font-family="Helvetica,sans-Serif" font-size="10.00">timestamp</text>
<text xml:space="preserve" text-anchor="start" x="247.75" y="-298.5" font-family="Helvetica,sans-Serif" font-size="10.00">#</text>
<text xml:space="preserve" text-anchor="start" x="265.75" y="-298.5" font-family="Helvetica,sans-Serif" font-size="10.00">transactor</text>
<text xml:space="preserve" text-anchor="start" x="247.75" y="-282.5" font-family="Helvetica,sans-Serif" font-size="10.00">#</text>
<text xml:space="preserve" text-anchor="start" x="265.75" y="-282.5" font-family="Helvetica,sans-Serif" font-size="10.00">reason</text>
<text xml:space="preserve" text-anchor="start" x="247.38" y="-266.5" font-family="Helvetica,sans-Serif" font-size="10.00">+</text>
<text xml:space="preserve" text-anchor="start" x="265.75" y="-266.5" font-family="Helvetica,sans-Serif" font-size="10.00">Transaction()</text>
<text xml:space="preserve" text-anchor="start" x="247.38" y="-250.5" font-family="Helvetica,sans-Serif" font-size="10.00">+</text>
<text xml:space="preserve" text-anchor="start" x="265.75" y="-250.5" font-family="Helvetica,sans-Serif" font-size="10.00">getStatementEntry()</text>
<text xml:space="preserve" text-anchor="start" x="247.38" y="-234.5" font-family="Helvetica,sans-Serif" font-size="10.00">+</text>
<text xml:space="preserve" text-anchor="start" x="265.75" y="-234.5" font-family="Helvetica,sans-Serif" font-size="10.00">getTransactionId()</text>
<text xml:space="preserve" text-anchor="start" x="247.38" y="-218.5" font-family="Helvetica,sans-Serif" font-size="10.00">+</text>
<text xml:space="preserve" text-anchor="start" x="265.75" y="-218.5" font-family="Helvetica,sans-Serif" font-size="10.00">getTimestamp()</text>
<text xml:space="preserve" text-anchor="start" x="247.38" y="-202.5" font-family="Helvetica,sans-Serif" font-size="10.00">+</text>
<text xml:space="preserve" text-anchor="start" x="265.75" y="-202.5" font-family="Helvetica,sans-Serif" font-size="10.00">getTransactor()</text>
<text xml:space="preserve" text-anchor="start" x="247.38" y="-186.5" font-family="Helvetica,sans-Serif" font-size="10.00">+</text>
<text xml:space="preserve" text-anchor="start" x="265.75" y="-186.5" font-family="Helvetica,sans-Serif" font-size="10.00">getReason()</text>
<text xml:space="preserve" text-anchor="start" x="247.38" y="-170.5" font-family="Helvetica,sans-Serif" font-size="10.00">+</text>
<text xml:space="preserve" text-anchor="start" x="265.75" y="-170.5" font-family="Helvetica,sans-Serif" font-size="10.00">execute()</text>
<polygon fill="#666666" stroke="#666666" points="235,-358 235,-358 374.25,-358 374.25,-358 235,-358"/>
<polygon fill="#666666" stroke="#666666" points="235,-278 235,-278 263.75,-278 263.75,-278 235,-278"/>
<polygon fill="#666666" stroke="#666666" points="263.75,-278 263.75,-278 374.25,-278 374.25,-278 263.75,-278"/>
<polygon fill="none" stroke="#666666" points="235,-164 235,-388 374.25,-388 374.25,-164 235,-164"/>
</a>
</g>
</g>
<!-- Node2 -->
<g id="Node000002" class="node">
<title>Node2</title>
<g id="a_Node000002"><a xlink:href="../../da/dd0/classcom_1_1bank_1_1model_1_1transactions_1_1_deposit.html" target="_top" xlink:title="Represents a deposit transaction to a single bank account.">
<polygon fill="white" stroke="none" points="139.25,-120 0,-120 0,-8 139.25,-8 139.25,-120"/>
<text xml:space="preserve" text-anchor="start" x="4" y="-106.5" font-family="Helvetica,sans-Serif" font-size="10.00">com.bank.model.transactions.</text>
<text xml:space="preserve" text-anchor="start" x="52.75" y="-94.5" font-family="Helvetica,sans-Serif" font-size="10.00">Deposit</text>
<text xml:space="preserve" text-anchor="start" x="68.12" y="-78.5" font-family="Helvetica,sans-Serif" font-size="10.00"> </text>
<text xml:space="preserve" text-anchor="start" x="20.44" y="-62.5" font-family="Helvetica,sans-Serif" font-size="10.00">+</text>
<text xml:space="preserve" text-anchor="start" x="46.88" y="-62.5" font-family="Helvetica,sans-Serif" font-size="10.00">Deposit()</text>
<text xml:space="preserve" text-anchor="start" x="20.44" y="-46.5" font-family="Helvetica,sans-Serif" font-size="10.00">+</text>
<text xml:space="preserve" text-anchor="start" x="46.88" y="-46.5" font-family="Helvetica,sans-Serif" font-size="10.00">execute()</text>
<text xml:space="preserve" text-anchor="start" x="20.44" y="-30.5" font-family="Helvetica,sans-Serif" font-size="10.00">+</text>
<text xml:space="preserve" text-anchor="start" x="46.88" y="-30.5" font-family="Helvetica,sans-Serif" font-size="10.00">getAccount()</text>
<text xml:space="preserve" text-anchor="start" x="20.44" y="-14.5" font-family="Helvetica,sans-Serif" font-size="10.00">+</text>
<text xml:space="preserve" text-anchor="start" x="46.88" y="-14.5" font-family="Helvetica,sans-Serif" font-size="10.00">getAmount()</text>
<polygon fill="#666666" stroke="#666666" points="0,-90 0,-90 139.25,-90 139.25,-90 0,-90"/>
<polygon fill="#666666" stroke="#666666" points="0,-74 0,-74 139.25,-74 139.25,-74 0,-74"/>
<polygon fill="none" stroke="#666666" points="0,-8 0,-120 139.25,-120 139.25,-8 0,-8"/>
</a>
</g>
</g>
<!-- Node1&#45;&gt;Node2 -->
<g id="edge1_Node000001_Node000002" class="edge">
<title>Node1&#45;&gt;Node2</title>
<g id="a_edge1_Node000001_Node000002"><a xlink:title=" ">
<path fill="none" stroke="#63b8ff" d="M226.83,-205.48C195.68,-177.64 160.31,-146.04 131.02,-119.86"/>
<polygon fill="none" stroke="#63b8ff" points="224.15,-207.78 233.94,-211.84 228.82,-202.56 224.15,-207.78"/>
</a>
</g>
</g>
<!-- Node3 -->
<g id="Node000003" class="node">
<title>Node3</title>
<g id="a_Node000003"><a xlink:href="../../dd/d71/classcom_1_1bank_1_1model_1_1transactions_1_1_payment.html" target="_top" xlink:title="Represents a bill payment transaction between a customer and a business account.">
<polygon fill="white" stroke="none" points="296.25,-128 157,-128 157,0 296.25,0 296.25,-128"/>
<text xml:space="preserve" text-anchor="start" x="161" y="-114.5" font-family="Helvetica,sans-Serif" font-size="10.00">com.bank.model.transactions.</text>
<text xml:space="preserve" text-anchor="start" x="207.12" y="-102.5" font-family="Helvetica,sans-Serif" font-size="10.00">Payment</text>
<text xml:space="preserve" text-anchor="start" x="225.12" y="-86.5" font-family="Helvetica,sans-Serif" font-size="10.00"> </text>
<text xml:space="preserve" text-anchor="start" x="176.31" y="-70.5" font-family="Helvetica,sans-Serif" font-size="10.00">+</text>
<text xml:space="preserve" text-anchor="start" x="201.62" y="-70.5" font-family="Helvetica,sans-Serif" font-size="10.00">Payment()</text>
<text xml:space="preserve" text-anchor="start" x="176.31" y="-54.5" font-family="Helvetica,sans-Serif" font-size="10.00">+</text>
<text xml:space="preserve" text-anchor="start" x="201.62" y="-54.5" font-family="Helvetica,sans-Serif" font-size="10.00">getBill()</text>
<text xml:space="preserve" text-anchor="start" x="176.31" y="-38.5" font-family="Helvetica,sans-Serif" font-size="10.00">+</text>
<text xml:space="preserve" text-anchor="start" x="201.62" y="-38.5" font-family="Helvetica,sans-Serif" font-size="10.00">getFrom()</text>
<text xml:space="preserve" text-anchor="start" x="176.31" y="-22.5" font-family="Helvetica,sans-Serif" font-size="10.00">+</text>
<text xml:space="preserve" text-anchor="start" x="201.62" y="-22.5" font-family="Helvetica,sans-Serif" font-size="10.00">getBusiness()</text>
<text xml:space="preserve" text-anchor="start" x="176.31" y="-6.5" font-family="Helvetica,sans-Serif" font-size="10.00">+</text>
<text xml:space="preserve" text-anchor="start" x="201.62" y="-6.5" font-family="Helvetica,sans-Serif" font-size="10.00">execute()</text>
<polygon fill="#666666" stroke="#666666" points="157,-98 157,-98 296.25,-98 296.25,-98 157,-98"/>
<polygon fill="#666666" stroke="#666666" points="157,-82 157,-82 296.25,-82 296.25,-82 157,-82"/>
<polygon fill="none" stroke="#666666" points="157,0 157,-128 296.25,-128 296.25,0 157,0"/>
</a>
</g>
</g>
<!-- Node1&#45;&gt;Node3 -->
<g id="edge2_Node000001_Node000003" class="edge">
<title>Node1&#45;&gt;Node3</title>
<g id="a_edge2_Node000001_Node000003"><a xlink:title=" ">
<path fill="none" stroke="#63b8ff" d="M259.47,-153.43C256.22,-144.68 253.03,-136.09 249.99,-127.91"/>
<polygon fill="none" stroke="#63b8ff" points="256.17,-154.58 262.93,-162.74 262.73,-152.15 256.17,-154.58"/>
</a>
</g>
</g>
<!-- Node4 -->
<g id="Node000004" class="node">
<title>Node4</title>
<g id="a_Node000004"><a xlink:href="../../d1/d0c/classcom_1_1bank_1_1model_1_1transactions_1_1_transfer.html" target="_top" xlink:title="Represents a money transfer between two bank accounts.">
<polygon fill="white" stroke="none" points="453.25,-128 314,-128 314,0 453.25,0 453.25,-128"/>
<text xml:space="preserve" text-anchor="start" x="318" y="-114.5" font-family="Helvetica,sans-Serif" font-size="10.00">com.bank.model.transactions.</text>
<text xml:space="preserve" text-anchor="start" x="365.62" y="-102.5" font-family="Helvetica,sans-Serif" font-size="10.00">Transfer</text>
<text xml:space="preserve" text-anchor="start" x="382.12" y="-86.5" font-family="Helvetica,sans-Serif" font-size="10.00"> </text>
<text xml:space="preserve" text-anchor="start" x="335" y="-70.5" font-family="Helvetica,sans-Serif" font-size="10.00">+</text>
<text xml:space="preserve" text-anchor="start" x="362" y="-70.5" font-family="Helvetica,sans-Serif" font-size="10.00">Transfer()</text>
<text xml:space="preserve" text-anchor="start" x="335" y="-54.5" font-family="Helvetica,sans-Serif" font-size="10.00">+</text>
<text xml:space="preserve" text-anchor="start" x="362" y="-54.5" font-family="Helvetica,sans-Serif" font-size="10.00">execute()</text>
<text xml:space="preserve" text-anchor="start" x="335" y="-38.5" font-family="Helvetica,sans-Serif" font-size="10.00">+</text>
<text xml:space="preserve" text-anchor="start" x="362" y="-38.5" font-family="Helvetica,sans-Serif" font-size="10.00">getFrom()</text>
<text xml:space="preserve" text-anchor="start" x="335" y="-22.5" font-family="Helvetica,sans-Serif" font-size="10.00">+</text>
<text xml:space="preserve" text-anchor="start" x="362" y="-22.5" font-family="Helvetica,sans-Serif" font-size="10.00">getTo()</text>
<text xml:space="preserve" text-anchor="start" x="335" y="-6.5" font-family="Helvetica,sans-Serif" font-size="10.00">+</text>
<text xml:space="preserve" text-anchor="start" x="362" y="-6.5" font-family="Helvetica,sans-Serif" font-size="10.00">getAmount()</text>
<polygon fill="#666666" stroke="#666666" points="314,-98 314,-98 453.25,-98 453.25,-98 314,-98"/>
<polygon fill="#666666" stroke="#666666" points="314,-82 314,-82 453.25,-82 453.25,-82 314,-82"/>
<polygon fill="none" stroke="#666666" points="314,0 314,-128 453.25,-128 453.25,0 314,0"/>
</a>
</g>
</g>
<!-- Node1&#45;&gt;Node4 -->
<g id="edge3_Node000001_Node000004" class="edge">
<title>Node1&#45;&gt;Node4</title>
<g id="a_edge3_Node000001_Node000004"><a xlink:title=" ">
<path fill="none" stroke="#63b8ff" d="M350.36,-153.43C353.65,-144.68 356.88,-136.09 359.96,-127.91"/>
<polygon fill="none" stroke="#63b8ff" points="347.1,-152.15 346.86,-162.74 353.65,-154.61 347.1,-152.15"/>
</a>
</g>
</g>
<!-- Node5 -->
<g id="Node000005" class="node">
<title>Node5</title>
<g id="a_Node000005"><a xlink:href="../../dd/df3/classcom_1_1bank_1_1model_1_1transactions_1_1_withdrawal.html" target="_top" xlink:title="Represents a withdrawal transaction from a bank account.">
<polygon fill="white" stroke="none" points="610.25,-128 471,-128 471,0 610.25,0 610.25,-128"/>
<text xml:space="preserve" text-anchor="start" x="475" y="-114.5" font-family="Helvetica,sans-Serif" font-size="10.00">com.bank.model.transactions.</text>
<text xml:space="preserve" text-anchor="start" x="516.25" y="-102.5" font-family="Helvetica,sans-Serif" font-size="10.00">Withdrawal</text>
<text xml:space="preserve" text-anchor="start" x="539.12" y="-86.5" font-family="Helvetica,sans-Serif" font-size="10.00"> </text>
<text xml:space="preserve" text-anchor="start" x="491.44" y="-70.5" font-family="Helvetica,sans-Serif" font-size="10.00">+</text>
<text xml:space="preserve" text-anchor="start" x="517.88" y="-70.5" font-family="Helvetica,sans-Serif" font-size="10.00">Withdrawal()</text>
<text xml:space="preserve" text-anchor="start" x="491.44" y="-54.5" font-family="Helvetica,sans-Serif" font-size="10.00">+</text>
<text xml:space="preserve" text-anchor="start" x="517.88" y="-54.5" font-family="Helvetica,sans-Serif" font-size="10.00">getAmount()</text>
<text xml:space="preserve" text-anchor="start" x="491.44" y="-38.5" font-family="Helvetica,sans-Serif" font-size="10.00">+</text>
<text xml:space="preserve" text-anchor="start" x="517.88" y="-38.5" font-family="Helvetica,sans-Serif" font-size="10.00">setAmount()</text>
<text xml:space="preserve" text-anchor="start" x="491.44" y="-22.5" font-family="Helvetica,sans-Serif" font-size="10.00">+</text>
<text xml:space="preserve" text-anchor="start" x="517.88" y="-22.5" font-family="Helvetica,sans-Serif" font-size="10.00">getAccount()</text>
<text xml:space="preserve" text-anchor="start" x="491.44" y="-6.5" font-family="Helvetica,sans-Serif" font-size="10.00">+</text>
<text xml:space="preserve" text-anchor="start" x="517.88" y="-6.5" font-family="Helvetica,sans-Serif" font-size="10.00">execute()</text>
<polygon fill="#666666" stroke="#666666" points="471,-98 471,-98 610.25,-98 610.25,-98 471,-98"/>
<polygon fill="#666666" stroke="#666666" points="471,-82 471,-82 610.25,-82 610.25,-82 471,-82"/>
<polygon fill="none" stroke="#666666" points="471,0 471,-128 610.25,-128 610.25,0 471,0"/>
</a>
</g>
</g>
<!-- Node1&#45;&gt;Node5 -->
<g id="edge4_Node000001_Node000005" class="edge">
<title>Node1&#45;&gt;Node5</title>
<g id="a_edge4_Node000001_Node000005"><a xlink:title=" ">
<path fill="none" stroke="#63b8ff" d="M382.52,-205.69C411.15,-180.21 443.35,-151.56 471.18,-126.79"/>
<polygon fill="none" stroke="#63b8ff" points="380.43,-202.86 375.29,-212.12 385.08,-208.09 380.43,-202.86"/>
</a>
</g>
</g>
</g>
</svg>
