<?xml version="1.0" encoding="UTF-8" standalone="no"?>
<!DOCTYPE svg PUBLIC "-//W3C//DTD SVG 1.1//EN"
 "http://www.w3.org/Graphics/SVG/1.1/DTD/svg11.dtd">
<!-- Generated by graphviz version 14.0.1 (20251006.0113)
 -->
<!-- Title: gui/view/MainDashboard.java Pages: 1 -->
<svg width="572pt" height="84pt"
 viewBox="0.00 0.00 572.00 84.00" xmlns="http://www.w3.org/2000/svg" xmlns:xlink="http://www.w3.org/1999/xlink">
<g id="graph0" class="graph" transform="scale(1 1) rotate(0) translate(4 80)">
<title>gui/view/MainDashboard.java</title>
<!-- Node1 -->
<g id="Node000001" class="node">
<title>Node1</title>
<g id="a_Node000001"><a xlink:title=" ">
<polygon fill="#999999" stroke="#666666" points="307.38,-76 163.12,-76 163.12,-56 307.38,-56 307.38,-76"/>
<text xml:space="preserve" text-anchor="middle" x="235.25" y="-62.5" font-family="Helvetica,sans-Serif" font-size="10.00">gui/view/MainDashboard.java</text>
</a>
</g>
</g>
<!-- Node2 -->
<g id="Node000002" class="node">
<title>Node2</title>
<g id="a_Node000002"><a xlink:title=" ">
<polygon fill="#e0e0e0" stroke="#999999" points="74.5,-20 0,-20 0,0 74.5,0 74.5,-20"/>
<text xml:space="preserve" text-anchor="middle" x="37.25" y="-6.5" font-family="Helvetica,sans-Serif" font-size="10.00">javax.swing.*</text>
</a>
</g>
</g>
<!-- Node1&#45;&gt;Node2 -->
<g id="edge1_Node000001_Node000002" class="edge">
<title>Node1&#45;&gt;Node2</title>
<g id="a_edge1_Node000001_Node000002"><a xlink:title=" ">
<path fill="none" stroke="#63b8ff" d="M200.76,-55.59C168.03,-46.67 118.63,-33.19 82.69,-23.39"/>
<polygon fill="#63b8ff" stroke="#63b8ff" points="84.04,-20.13 73.47,-20.88 82.2,-26.89 84.04,-20.13"/>
</a>
</g>
</g>
<!-- Node3 -->
<g id="Node000003" class="node">
<title>Node3</title>
<g id="a_Node000003"><a xlink:title=" ">
<polygon fill="#e0e0e0" stroke="#999999" points="152,-20 92.5,-20 92.5,0 152,0 152,-20"/>
<text xml:space="preserve" text-anchor="middle" x="122.25" y="-6.5" font-family="Helvetica,sans-Serif" font-size="10.00">java.awt.*</text>
</a>
</g>
</g>
<!-- Node1&#45;&gt;Node3 -->
<g id="edge2_Node000001_Node000003" class="edge">
<title>Node1&#45;&gt;Node3</title>
<g id="a_edge2_Node000001_Node000003"><a xlink:title=" ">
<path fill="none" stroke="#63b8ff" d="M215.57,-55.59C198.09,-47.24 172.3,-34.92 152.25,-25.34"/>
<polygon fill="#63b8ff" stroke="#63b8ff" points="153.98,-22.29 143.45,-21.13 150.97,-28.6 153.98,-22.29"/>
</a>
</g>
</g>
<!-- Node4 -->
<g id="Node000004" class="node">
<title>Node4</title>
<g id="a_Node000004"><a xlink:title=" ">
<polygon fill="#e0e0e0" stroke="#999999" points="300.25,-20 170.25,-20 170.25,0 300.25,0 300.25,-20"/>
<text xml:space="preserve" text-anchor="middle" x="235.25" y="-6.5" font-family="Helvetica,sans-Serif" font-size="10.00">com.bank.gui.view.panel.*</text>
</a>
</g>
</g>
<!-- Node1&#45;&gt;Node4 -->
<g id="edge3_Node000001_Node000004" class="edge">
<title>Node1&#45;&gt;Node4</title>
<g id="a_edge3_Node000001_Node000004"><a xlink:title=" ">
<path fill="none" stroke="#63b8ff" d="M235.25,-55.59C235.25,-49.01 235.25,-39.96 235.25,-31.73"/>
<polygon fill="#63b8ff" stroke="#63b8ff" points="238.75,-31.81 235.25,-21.81 231.75,-31.81 238.75,-31.81"/>
</a>
</g>
</g>
<!-- Node5 -->
<g id="Node000005" class="node">
<title>Node5</title>
<g id="a_Node000005"><a xlink:title=" ">
<polygon fill="#e0e0e0" stroke="#999999" points="424.25,-20 318.25,-20 318.25,0 424.25,0 424.25,-20"/>
<text xml:space="preserve" text-anchor="middle" x="371.25" y="-6.5" font-family="Helvetica,sans-Serif" font-size="10.00">com.bank.manager.*</text>
</a>
</g>
</g>
<!-- Node1&#45;&gt;Node5 -->
<g id="edge4_Node000001_Node000005" class="edge">
<title>Node1&#45;&gt;Node5</title>
<g id="a_edge4_Node000001_Node000005"><a xlink:title=" ">
<path fill="none" stroke="#63b8ff" d="M258.94,-55.59C280.45,-47.05 312.45,-34.35 336.79,-24.68"/>
<polygon fill="#63b8ff" stroke="#63b8ff" points="337.97,-27.98 345.97,-21.04 335.38,-21.48 337.97,-27.98"/>
</a>
</g>
</g>
<!-- Node6 -->
<g id="Node000006" class="node">
<title>Node6</title>
<g id="a_Node000006"><a xlink:title=" ">
<polygon fill="#e0e0e0" stroke="#999999" points="564.12,-20 442.38,-20 442.38,0 564.12,0 564.12,-20"/>
<text xml:space="preserve" text-anchor="middle" x="503.25" y="-6.5" font-family="Helvetica,sans-Serif" font-size="10.00">com.bank.model.users.*</text>
</a>
</g>
</g>
<!-- Node1&#45;&gt;Node6 -->
<g id="edge5_Node000001_Node000006" class="edge">
<title>Node1&#45;&gt;Node6</title>
<g id="a_edge5_Node000001_Node000006"><a xlink:title=" ">
<path fill="none" stroke="#63b8ff" d="M282.24,-55.53C327.64,-46.38 396.52,-32.5 445.3,-22.68"/>
<polygon fill="#63b8ff" stroke="#63b8ff" points="445.72,-26.16 454.83,-20.76 444.34,-19.3 445.72,-26.16"/>
</a>
</g>
</g>
</g>
</svg>
