<?xml version="1.0" encoding="UTF-8" standalone="no"?>
<!DOCTYPE svg PUBLIC "-//W3C//DTD SVG 1.1//EN"
 "http://www.w3.org/Graphics/SVG/1.1/DTD/svg11.dtd">
<!-- Generated by graphviz version 14.0.1 (20251006.0113)
 -->
<!-- Title: model/transactions/Transaction.java Pages: 1 -->
<svg width="689pt" height="108pt"
 viewBox="0.00 0.00 689.00 108.00" xmlns="http://www.w3.org/2000/svg" xmlns:xlink="http://www.w3.org/1999/xlink">
<g id="graph0" class="graph" transform="scale(1 1) rotate(0) translate(4 104)">
<title>model/transactions/Transaction.java</title>
<!-- Node1 -->
<g id="Node000001" class="node">
<title>Node1</title>
<g id="a_Node000001"><a xlink:title=" ">
<polygon fill="#999999" stroke="#666666" points="428.62,-100 330.12,-100 330.12,-68 428.62,-68 428.62,-100"/>
<text xml:space="preserve" text-anchor="start" x="338.12" y="-86.5" font-family="Helvetica,sans-Serif" font-size="10.00">model/transactions</text>
<text xml:space="preserve" text-anchor="middle" x="379.38" y="-74.5" font-family="Helvetica,sans-Serif" font-size="10.00">/Transaction.java</text>
</a>
</g>
</g>
<!-- Node2 -->
<g id="Node000002" class="node">
<title>Node2</title>
<g id="a_Node000002"><a xlink:title=" ">
<polygon fill="#e0e0e0" stroke="#999999" points="142.75,-32 0,-32 0,0 142.75,0 142.75,-32"/>
<text xml:space="preserve" text-anchor="start" x="8" y="-18.5" font-family="Helvetica,sans-Serif" font-size="10.00">com.bank.model.statements.</text>
<text xml:space="preserve" text-anchor="middle" x="71.38" y="-6.5" font-family="Helvetica,sans-Serif" font-size="10.00">StatementEntry</text>
</a>
</g>
</g>
<!-- Node1&#45;&gt;Node2 -->
<g id="edge1_Node000001_Node000002" class="edge">
<title>Node1&#45;&gt;Node2</title>
<g id="a_edge1_Node000001_Node000002"><a xlink:title=" ">
<path fill="none" stroke="#63b8ff" d="M329.89,-72.4C282.54,-62.25 210.24,-46.76 154.12,-34.73"/>
<polygon fill="#63b8ff" stroke="#63b8ff" points="155.12,-31.37 144.61,-32.69 153.65,-38.21 155.12,-31.37"/>
</a>
</g>
</g>
<!-- Node3 -->
<g id="Node000003" class="node">
<title>Node3</title>
<g id="a_Node000003"><a xlink:title=" ">
<polygon fill="#e0e0e0" stroke="#999999" points="299.88,-26 160.88,-26 160.88,-6 299.88,-6 299.88,-26"/>
<text xml:space="preserve" text-anchor="middle" x="230.38" y="-12.5" font-family="Helvetica,sans-Serif" font-size="10.00">com.bank.model.users.User</text>
</a>
</g>
</g>
<!-- Node1&#45;&gt;Node3 -->
<g id="edge2_Node000001_Node000003" class="edge">
<title>Node1&#45;&gt;Node3</title>
<g id="a_edge2_Node000001_Node000003"><a xlink:title=" ">
<path fill="none" stroke="#63b8ff" d="M344.44,-67.53C319.53,-56.49 286.3,-41.77 262.13,-31.07"/>
<polygon fill="#63b8ff" stroke="#63b8ff" points="263.68,-27.92 253.12,-27.07 260.84,-34.32 263.68,-27.92"/>
</a>
</g>
</g>
<!-- Node4 -->
<g id="Node000004" class="node">
<title>Node4</title>
<g id="a_Node000004"><a xlink:title=" ">
<polygon fill="#e0e0e0" stroke="#999999" points="441,-32 317.75,-32 317.75,0 441,0 441,-32"/>
<text xml:space="preserve" text-anchor="start" x="325.75" y="-18.5" font-family="Helvetica,sans-Serif" font-size="10.00">com.bank.utilities.Global</text>
<text xml:space="preserve" text-anchor="middle" x="379.38" y="-6.5" font-family="Helvetica,sans-Serif" font-size="10.00">Clock</text>
</a>
</g>
</g>
<!-- Node1&#45;&gt;Node4 -->
<g id="edge3_Node000001_Node000004" class="edge">
<title>Node1&#45;&gt;Node4</title>
<g id="a_edge3_Node000001_Node000004"><a xlink:title=" ">
<path fill="none" stroke="#63b8ff" d="M379.38,-67.69C379.38,-60.53 379.38,-51.79 379.38,-43.59"/>
<polygon fill="#63b8ff" stroke="#63b8ff" points="382.88,-43.74 379.38,-33.74 375.88,-43.74 382.88,-43.74"/>
</a>
</g>
</g>
<!-- Node5 -->
<g id="Node000005" class="node">
<title>Node5</title>
<g id="a_Node000005"><a xlink:title=" ">
<polygon fill="#e0e0e0" stroke="#999999" points="583.75,-26 459,-26 459,-6 583.75,-6 583.75,-26"/>
<text xml:space="preserve" text-anchor="middle" x="521.38" y="-12.5" font-family="Helvetica,sans-Serif" font-size="10.00">java.time.LocalDateTime</text>
</a>
</g>
</g>
<!-- Node1&#45;&gt;Node5 -->
<g id="edge4_Node000001_Node000005" class="edge">
<title>Node1&#45;&gt;Node5</title>
<g id="a_edge4_Node000001_Node000005"><a xlink:title=" ">
<path fill="none" stroke="#63b8ff" d="M412.67,-67.53C436.3,-56.54 467.79,-41.9 490.8,-31.21"/>
<polygon fill="#63b8ff" stroke="#63b8ff" points="492.06,-34.49 499.65,-27.1 489.11,-28.14 492.06,-34.49"/>
</a>
</g>
</g>
<!-- Node6 -->
<g id="Node000006" class="node">
<title>Node6</title>
<g id="a_Node000006"><a xlink:title=" ">
<polygon fill="#e0e0e0" stroke="#999999" points="680.5,-26 602.25,-26 602.25,-6 680.5,-6 680.5,-26"/>
<text xml:space="preserve" text-anchor="middle" x="641.38" y="-12.5" font-family="Helvetica,sans-Serif" font-size="10.00">java.util.UUID</text>
</a>
</g>
</g>
<!-- Node1&#45;&gt;Node6 -->
<g id="edge5_Node000001_Node000006" class="edge">
<title>Node1&#45;&gt;Node6</title>
<g id="a_edge5_Node000001_Node000006"><a xlink:title=" ">
<path fill="none" stroke="#63b8ff" d="M429.09,-72.01C472.4,-62.23 536.79,-47.15 592.38,-32 595.08,-31.26 597.86,-30.48 600.66,-29.67"/>
<polygon fill="#63b8ff" stroke="#63b8ff" points="601.35,-33.12 609.95,-26.93 599.37,-26.41 601.35,-33.12"/>
</a>
</g>
</g>
</g>
</svg>
