<?xml version="1.0" encoding="UTF-8" standalone="no"?>
<!DOCTYPE svg PUBLIC "-//W3C//DTD SVG 1.1//EN"
 "http://www.w3.org/Graphics/SVG/1.1/DTD/svg11.dtd">
<!-- Generated by graphviz version 14.0.1 (20251006.0113)
 -->
<!-- Title: model/orders/TransferOrder.java Pages: 1 -->
<!--zoomable 96 -->

<svg id="main" version="1.1" xmlns="http://www.w3.org/2000/svg" xmlns:xlink="http://www.w3.org/1999/xlink" xml:space="preserve" onload="init(evt)">

<style type="text/css"><![CDATA[
.node, .edge {opacity: 0.7;}
.node.selected, .edge.selected {opacity: 1;}
.edge:hover path { stroke: red; }
.edge:hover polygon { stroke: red; fill: red; }
]]></style>

<defs>
  <circle id="rim" cx="0" cy="0" r="7"/>
  <circle id="rim2" cx="0" cy="0" r="3.5"/>
  <g id="zoomPlus">
    <use xlink:href="#rim" fill="#404040"><set attributeName="fill" to="#808080" begin="zoomplus.mouseover" end="zoomplus.mouseout"/></use>
    <path d="M-4,0h8M0,-4v8" fill="none" stroke="white" stroke-width="1.5" pointer-events="none"/>
  </g>
  <g id="zoomMin">
    <use xlink:href="#rim" fill="#404040"><set attributeName="fill" to="#808080" begin="zoomminus.mouseover" end="zoomminus.mouseout"/></use>
    <path d="M-4,0h8" fill="none" stroke="white" stroke-width="1.5" pointer-events="none"/>
  </g>
  <g id="arrowUp" transform="translate(30 24)">
    <use xlink:href="#rim"/>
    <path pointer-events="none" fill="none" stroke="white" stroke-width="1.5" d="M0,-3.0v7 M-2.5,-0.5L0,-3.0L2.5,-0.5"/>
  </g>
  <g id="arrowRight" transform="rotate(90) translate(36 -43)">
    <use xlink:href="#rim"/>
    <path pointer-events="none" fill="none" stroke="white" stroke-width="1.5" d="M0,-3.0v7 M-2.5,-0.5L0,-3.0L2.5,-0.5"/>
  </g>
  <g id="arrowDown" transform="rotate(180) translate(-30 -48)">
    <use xlink:href="#rim"/>
    <path pointer-events="none" fill="none" stroke="white" stroke-width="1.5" d="M0,-3.0v7 M-2.5,-0.5L0,-3.0L2.5,-0.5"/>
  </g>
  <g id="arrowLeft" transform="rotate(270) translate(-36 17)">
    <use xlink:href="#rim"/>
    <path pointer-events="none" fill="none" stroke="white" stroke-width="1.5" d="M0,-3.0v7 M-2.5,-0.5L0,-3.0L2.5,-0.5"/>
  </g>
  <g id="resetDef">
    <use xlink:href="#rim2" fill="#404040"><set attributeName="fill" to="#808080" begin="reset.mouseover" end="reset.mouseout"/></use>
  </g>
</defs>
<script type="application/ecmascript">
var viewWidth = 1250;
var viewHeight = 96;
var sectionId = 'dynsection-0';
</script>
<script type="application/ecmascript" xlink:href="../../svg.min.js"/>
<svg id="graph" class="graph">
<g id="viewport">
<title>model/orders/TransferOrder.java</title>
<!-- Node1 -->
<g id="Node000001" class="node">
<title>Node1</title>
<g id="a_Node000001"><a xlink:title=" ">
<polygon fill="#999999" stroke="#666666" points="684.62,-88 528.38,-88 528.38,-68 684.62,-68 684.62,-88"/>
<text xml:space="preserve" text-anchor="middle" x="606.5" y="-74.5" font-family="Helvetica,sans-Serif" font-size="10.00">model/orders/TransferOrder.java</text>
</a>
</g>
</g>
<!-- Node2 -->
<g id="Node000002" class="node">
<title>Node2</title>
<g id="a_Node000002"><a xlink:title=" ">
<polygon fill="#e0e0e0" stroke="#999999" points="103,-26 0,-26 0,-6 103,-6 103,-26"/>
<text xml:space="preserve" text-anchor="middle" x="51.5" y="-12.5" font-family="Helvetica,sans-Serif" font-size="10.00">java.time.LocalDate</text>
</a>
</g>
</g>
<!-- Node1&#45;&gt;Node2 -->
<g id="edge1_Node000001_Node000002" class="edge">
<title>Node1&#45;&gt;Node2</title>
<g id="a_edge1_Node000001_Node000002"><a xlink:title=" ">
<path fill="none" stroke="#63b8ff" d="M528.18,-73.5C430.37,-68.3 258.16,-56.4 112.5,-32 107.53,-31.17 102.36,-30.14 97.23,-29.03"/>
<polygon fill="#63b8ff" stroke="#63b8ff" points="98.16,-25.65 87.63,-26.82 96.58,-32.47 98.16,-25.65"/>
</a>
</g>
</g>
<!-- Node3 -->
<g id="Node000003" class="node">
<title>Node3</title>
<g id="a_Node000003"><a xlink:title=" ">
<polygon fill="#e0e0e0" stroke="#999999" points="259.62,-32 121.38,-32 121.38,0 259.62,0 259.62,-32"/>
<text xml:space="preserve" text-anchor="start" x="129.38" y="-18.5" font-family="Helvetica,sans-Serif" font-size="10.00">com.bank.manager.Account</text>
<text xml:space="preserve" text-anchor="middle" x="190.5" y="-6.5" font-family="Helvetica,sans-Serif" font-size="10.00">Manager</text>
</a>
</g>
</g>
<!-- Node1&#45;&gt;Node3 -->
<g id="edge2_Node000001_Node000003" class="edge">
<title>Node1&#45;&gt;Node3</title>
<g id="a_edge2_Node000001_Node000003"><a xlink:title=" ">
<path fill="none" stroke="#63b8ff" d="M528.11,-67.86C462.1,-59.87 364.91,-47.41 270.93,-32.34"/>
<polygon fill="#63b8ff" stroke="#63b8ff" points="271.71,-28.92 261.28,-30.78 270.59,-35.83 271.71,-28.92"/>
</a>
</g>
</g>
<!-- Node4 -->
<g id="Node000004" class="node">
<title>Node4</title>
<g id="a_Node000004"><a xlink:title=" ">
<polygon fill="#e0e0e0" stroke="#999999" points="431.12,-26 277.88,-26 277.88,-6 431.12,-6 431.12,-26"/>
<text xml:space="preserve" text-anchor="middle" x="354.5" y="-12.5" font-family="Helvetica,sans-Serif" font-size="10.00">com.bank.manager.BillManager</text>
</a>
</g>
</g>
<!-- Node1&#45;&gt;Node4 -->
<g id="edge3_Node000001_Node000004" class="edge">
<title>Node1&#45;&gt;Node4</title>
<g id="a_edge3_Node000001_Node000004"><a xlink:title=" ">
<path fill="none" stroke="#63b8ff" d="M566.85,-67.56C523.22,-57.17 452.98,-40.45 405.33,-29.1"/>
<polygon fill="#63b8ff" stroke="#63b8ff" points="406.35,-25.75 395.81,-26.84 404.73,-32.56 406.35,-25.75"/>
</a>
</g>
</g>
<!-- Node5 -->
<g id="Node000005" class="node">
<title>Node5</title>
<g id="a_Node000005"><a xlink:title=" ">
<polygon fill="#e0e0e0" stroke="#999999" points="602.12,-32 448.88,-32 448.88,0 602.12,0 602.12,-32"/>
<text xml:space="preserve" text-anchor="start" x="456.88" y="-18.5" font-family="Helvetica,sans-Serif" font-size="10.00">com.bank.manager.Transaction</text>
<text xml:space="preserve" text-anchor="middle" x="525.5" y="-6.5" font-family="Helvetica,sans-Serif" font-size="10.00">Manager</text>
</a>
</g>
</g>
<!-- Node1&#45;&gt;Node5 -->
<g id="edge4_Node000001_Node000005" class="edge">
<title>Node1&#45;&gt;Node5</title>
<g id="a_edge4_Node000001_Node000005"><a xlink:title=" ">
<path fill="none" stroke="#63b8ff" d="M593.84,-67.62C583.5,-59.97 568.47,-48.83 555.14,-38.95"/>
<polygon fill="#63b8ff" stroke="#63b8ff" points="557.59,-36.41 547.47,-33.27 553.42,-42.04 557.59,-36.41"/>
</a>
</g>
</g>
<!-- Node6 -->
<g id="Node000006" class="node">
<title>Node6</title>
<g id="a_Node000006"><a xlink:title=" ">
<polygon fill="#e0e0e0" stroke="#999999" points="754.38,-32 620.62,-32 620.62,0 754.38,0 754.38,-32"/>
<text xml:space="preserve" text-anchor="start" x="628.62" y="-18.5" font-family="Helvetica,sans-Serif" font-size="10.00">com.bank.model.accounts.</text>
<text xml:space="preserve" text-anchor="middle" x="687.5" y="-6.5" font-family="Helvetica,sans-Serif" font-size="10.00">Account</text>
</a>
</g>
</g>
<!-- Node1&#45;&gt;Node6 -->
<g id="edge5_Node000001_Node000006" class="edge">
<title>Node1&#45;&gt;Node6</title>
<g id="a_edge5_Node000001_Node000006"><a xlink:title=" ">
<path fill="none" stroke="#63b8ff" d="M619.16,-67.62C629.5,-59.97 644.53,-48.83 657.86,-38.95"/>
<polygon fill="#63b8ff" stroke="#63b8ff" points="659.58,-42.04 665.53,-33.27 655.41,-36.41 659.58,-42.04"/>
</a>
</g>
</g>
<!-- Node7 -->
<g id="Node000007" class="node">
<title>Node7</title>
<g id="a_Node000007"><a xlink:title=" ">
<polygon fill="#e0e0e0" stroke="#999999" points="920.12,-32 772.88,-32 772.88,0 920.12,0 920.12,-32"/>
<text xml:space="preserve" text-anchor="start" x="780.88" y="-18.5" font-family="Helvetica,sans-Serif" font-size="10.00">com.bank.model.transactions.</text>
<text xml:space="preserve" text-anchor="middle" x="846.5" y="-6.5" font-family="Helvetica,sans-Serif" font-size="10.00">Transaction</text>
</a>
</g>
</g>
<!-- Node1&#45;&gt;Node7 -->
<g id="edge6_Node000001_Node000007" class="edge">
<title>Node1&#45;&gt;Node7</title>
<g id="a_edge6_Node000001_Node000007"><a xlink:title=" ">
<path fill="none" stroke="#63b8ff" d="M644.26,-67.56C678.87,-58.91 731.07,-45.86 773.76,-35.18"/>
<polygon fill="#63b8ff" stroke="#63b8ff" points="774.36,-38.64 783.21,-32.82 772.66,-31.85 774.36,-38.64"/>
</a>
</g>
</g>
<!-- Node8 -->
<g id="Node000008" class="node">
<title>Node8</title>
<g id="a_Node000008"><a xlink:title=" ">
<polygon fill="#e0e0e0" stroke="#999999" points="1085.12,-32 937.88,-32 937.88,0 1085.12,0 1085.12,-32"/>
<text xml:space="preserve" text-anchor="start" x="945.88" y="-18.5" font-family="Helvetica,sans-Serif" font-size="10.00">com.bank.model.transactions.</text>
<text xml:space="preserve" text-anchor="middle" x="1011.5" y="-6.5" font-family="Helvetica,sans-Serif" font-size="10.00">Transfer</text>
</a>
</g>
</g>
<!-- Node1&#45;&gt;Node8 -->
<g id="edge7_Node000001_Node000008" class="edge">
<title>Node1&#45;&gt;Node8</title>
<g id="a_edge7_Node000001_Node000008"><a xlink:title=" ">
<path fill="none" stroke="#63b8ff" d="M681.04,-67.53C743.97,-59.32 836.74,-46.74 926.55,-32.44"/>
<polygon fill="#63b8ff" stroke="#63b8ff" points="926.95,-35.92 936.27,-30.88 925.85,-29.01 926.95,-35.92"/>
</a>
</g>
</g>
<!-- Node9 -->
<g id="Node000009" class="node">
<title>Node9</title>
<g id="a_Node000009"><a xlink:title=" ">
<polygon fill="#e0e0e0" stroke="#999999" points="1242,-26 1103,-26 1103,-6 1242,-6 1242,-26"/>
<text xml:space="preserve" text-anchor="middle" x="1172.5" y="-12.5" font-family="Helvetica,sans-Serif" font-size="10.00">com.bank.model.users.User</text>
</a>
</g>
</g>
<!-- Node1&#45;&gt;Node9 -->
<g id="edge8_Node000001_Node000009" class="edge">
<title>Node1&#45;&gt;Node9</title>
<g id="a_edge8_Node000001_Node000009"><a xlink:title=" ">
<path fill="none" stroke="#63b8ff" d="M684.96,-72.14C781.6,-65.61 950.66,-52.41 1094.5,-32 1101.49,-31.01 1108.8,-29.81 1116.03,-28.54"/>
<polygon fill="#63b8ff" stroke="#63b8ff" points="1116.56,-32 1125.77,-26.75 1115.3,-25.11 1116.56,-32"/>
</a>
</g>
</g>
</g>
</svg>

<g id="navigator" transform="translate(0 0)" fill="#404254">
  <rect fill="#f2f5e9" fill-opacity="0.5" stroke="#606060" stroke-width=".5" x="0" y="0" width="60" height="60"/>
  <use id="zoomplus" xlink:href="#zoomPlus" x="17" y="9" onmousedown="handleZoom(evt,'in')"/>
  <use id="zoomminus" xlink:href="#zoomMin" x="42" y="9" onmousedown="handleZoom(evt,'out')"/>
  <use id="reset" xlink:href="#resetDef" x="30" y="36" onmousedown="handleReset()"/>
   <use id="arrowup" xlink:href="#arrowUp" x="0" y="0" onmousedown="handlePan(0,-1)"/>
  <use id="arrowright" xlink:href="#arrowRight" x="0" y="0" onmousedown="handlePan(1,0)"/>
  <use id="arrowdown" xlink:href="#arrowDown" x="0" y="0" onmousedown="handlePan(0,1)"/>
  <use id="arrowleft" xlink:href="#arrowLeft" x="0" y="0" onmousedown="handlePan(-1,0)"/>
</g>
<svg viewBox="0 0 15 15" width="100%" height="30px" preserveAspectRatio="xMaxYMin meet">
 <g id="arrow_out" transform="scale(0.3 0.3)">
  <a xlink:href="_transfer_order_8java__incl_org.svg" target="_base">
   <rect id="button" ry="5" rx="5" y="6" x="6" height="38" width="38"
        fill="#f2f5e9" fill-opacity="0.5" stroke="#606060" stroke-width="1.0"/>
   <path id="arrow"
     d="M 11.500037,31.436501 C 11.940474,20.09759 22.043105,11.32322 32.158766,21.979434 L 37.068811,17.246167 C 37.068811,17.246167 37.088388,32 37.088388,32 L 22.160133,31.978069 C 22.160133,31.978069 26.997745,27.140456 26.997745,27.140456 C 18.528582,18.264221 13.291696,25.230495 11.500037,31.436501 z"
     style="fill:#404040;"/>
  </a>
 </g>
</svg>

<style type='text/css'>
<![CDATA[
[data-mouse-over-selected='false'] { opacity: 0.7; }
[data-mouse-over-selected='true']  { opacity: 1.0; }
]]>
</style>
<script type="application/ecmascript"><![CDATA[
document.addEventListener('DOMContentLoaded', (event) => {
  highlightEdges();
  highlightAdjacentNodes();
});
]]></script>
</svg>
