<?xml version="1.0" encoding="UTF-8" standalone="no"?>
<!DOCTYPE svg PUBLIC "-//W3C//DTD SVG 1.1//EN"
 "http://www.w3.org/Graphics/SVG/1.1/DTD/svg11.dtd">
<!-- Generated by graphviz version 14.0.1 (20251006.0113)
 -->
<!-- Title: model/orders/TransferOrder.java Pages: 1 -->
<svg width="1250pt" height="96pt"
 viewBox="0.00 0.00 1250.00 96.00" xmlns="http://www.w3.org/2000/svg" xmlns:xlink="http://www.w3.org/1999/xlink">
<g id="graph0" class="graph" transform="scale(1 1) rotate(0) translate(4 92)">
<title>model/orders/TransferOrder.java</title>
<!-- Node1 -->
<g id="Node000001" class="node">
<title>Node1</title>
<g id="a_Node000001"><a xlink:title=" ">
<polygon fill="#999999" stroke="#666666" points="684.62,-88 528.38,-88 528.38,-68 684.62,-68 684.62,-88"/>
<text xml:space="preserve" text-anchor="middle" x="606.5" y="-74.5" font-family="Helvetica,sans-Serif" font-size="10.00">model/orders/TransferOrder.java</text>
</a>
</g>
</g>
<!-- Node2 -->
<g id="Node000002" class="node">
<title>Node2</title>
<g id="a_Node000002"><a xlink:title=" ">
<polygon fill="#e0e0e0" stroke="#999999" points="103,-26 0,-26 0,-6 103,-6 103,-26"/>
<text xml:space="preserve" text-anchor="middle" x="51.5" y="-12.5" font-family="Helvetica,sans-Serif" font-size="10.00">java.time.LocalDate</text>
</a>
</g>
</g>
<!-- Node1&#45;&gt;Node2 -->
<g id="edge1_Node000001_Node000002" class="edge">
<title>Node1&#45;&gt;Node2</title>
<g id="a_edge1_Node000001_Node000002"><a xlink:title=" ">
<path fill="none" stroke="#63b8ff" d="M528.18,-73.5C430.37,-68.3 258.16,-56.4 112.5,-32 107.53,-31.17 102.36,-30.14 97.23,-29.03"/>
<polygon fill="#63b8ff" stroke="#63b8ff" points="98.16,-25.65 87.63,-26.82 96.58,-32.47 98.16,-25.65"/>
</a>
</g>
</g>
<!-- Node3 -->
<g id="Node000003" class="node">
<title>Node3</title>
<g id="a_Node000003"><a xlink:title=" ">
<polygon fill="#e0e0e0" stroke="#999999" points="259.62,-32 121.38,-32 121.38,0 259.62,0 259.62,-32"/>
<text xml:space="preserve" text-anchor="start" x="129.38" y="-18.5" font-family="Helvetica,sans-Serif" font-size="10.00">com.bank.manager.Account</text>
<text xml:space="preserve" text-anchor="middle" x="190.5" y="-6.5" font-family="Helvetica,sans-Serif" font-size="10.00">Manager</text>
</a>
</g>
</g>
<!-- Node1&#45;&gt;Node3 -->
<g id="edge2_Node000001_Node000003" class="edge">
<title>Node1&#45;&gt;Node3</title>
<g id="a_edge2_Node000001_Node000003"><a xlink:title=" ">
<path fill="none" stroke="#63b8ff" d="M528.11,-67.86C462.1,-59.87 364.91,-47.41 270.93,-32.34"/>
<polygon fill="#63b8ff" stroke="#63b8ff" points="271.71,-28.92 261.28,-30.78 270.59,-35.83 271.71,-28.92"/>
</a>
</g>
</g>
<!-- Node4 -->
<g id="Node000004" class="node">
<title>Node4</title>
<g id="a_Node000004"><a xlink:title=" ">
<polygon fill="#e0e0e0" stroke="#999999" points="431.12,-26 277.88,-26 277.88,-6 431.12,-6 431.12,-26"/>
<text xml:space="preserve" text-anchor="middle" x="354.5" y="-12.5" font-family="Helvetica,sans-Serif" font-size="10.00">com.bank.manager.BillManager</text>
</a>
</g>
</g>
<!-- Node1&#45;&gt;Node4 -->
<g id="edge3_Node000001_Node000004" class="edge">
<title>Node1&#45;&gt;Node4</title>
<g id="a_edge3_Node000001_Node000004"><a xlink:title=" ">
<path fill="none" stroke="#63b8ff" d="M566.85,-67.56C523.22,-57.17 452.98,-40.45 405.33,-29.1"/>
<polygon fill="#63b8ff" stroke="#63b8ff" points="406.35,-25.75 395.81,-26.84 404.73,-32.56 406.35,-25.75"/>
</a>
</g>
</g>
<!-- Node5 -->
<g id="Node000005" class="node">
<title>Node5</title>
<g id="a_Node000005"><a xlink:title=" ">
<polygon fill="#e0e0e0" stroke="#999999" points="602.12,-32 448.88,-32 448.88,0 602.12,0 602.12,-32"/>
<text xml:space="preserve" text-anchor="start" x="456.88" y="-18.5" font-family="Helvetica,sans-Serif" font-size="10.00">com.bank.manager.Transaction</text>
<text xml:space="preserve" text-anchor="middle" x="525.5" y="-6.5" font-family="Helvetica,sans-Serif" font-size="10.00">Manager</text>
</a>
</g>
</g>
<!-- Node1&#45;&gt;Node5 -->
<g id="edge4_Node000001_Node000005" class="edge">
<title>Node1&#45;&gt;Node5</title>
<g id="a_edge4_Node000001_Node000005"><a xlink:title=" ">
<path fill="none" stroke="#63b8ff" d="M593.84,-67.62C583.5,-59.97 568.47,-48.83 555.14,-38.95"/>
<polygon fill="#63b8ff" stroke="#63b8ff" points="557.59,-36.41 547.47,-33.27 553.42,-42.04 557.59,-36.41"/>
</a>
</g>
</g>
<!-- Node6 -->
<g id="Node000006" class="node">
<title>Node6</title>
<g id="a_Node000006"><a xlink:title=" ">
<polygon fill="#e0e0e0" stroke="#999999" points="754.38,-32 620.62,-32 620.62,0 754.38,0 754.38,-32"/>
<text xml:space="preserve" text-anchor="start" x="628.62" y="-18.5" font-family="Helvetica,sans-Serif" font-size="10.00">com.bank.model.accounts.</text>
<text xml:space="preserve" text-anchor="middle" x="687.5" y="-6.5" font-family="Helvetica,sans-Serif" font-size="10.00">Account</text>
</a>
</g>
</g>
<!-- Node1&#45;&gt;Node6 -->
<g id="edge5_Node000001_Node000006" class="edge">
<title>Node1&#45;&gt;Node6</title>
<g id="a_edge5_Node000001_Node000006"><a xlink:title=" ">
<path fill="none" stroke="#63b8ff" d="M619.16,-67.62C629.5,-59.97 644.53,-48.83 657.86,-38.95"/>
<polygon fill="#63b8ff" stroke="#63b8ff" points="659.58,-42.04 665.53,-33.27 655.41,-36.41 659.58,-42.04"/>
</a>
</g>
</g>
<!-- Node7 -->
<g id="Node000007" class="node">
<title>Node7</title>
<g id="a_Node000007"><a xlink:title=" ">
<polygon fill="#e0e0e0" stroke="#999999" points="920.12,-32 772.88,-32 772.88,0 920.12,0 920.12,-32"/>
<text xml:space="preserve" text-anchor="start" x="780.88" y="-18.5" font-family="Helvetica,sans-Serif" font-size="10.00">com.bank.model.transactions.</text>
<text xml:space="preserve" text-anchor="middle" x="846.5" y="-6.5" font-family="Helvetica,sans-Serif" font-size="10.00">Transaction</text>
</a>
</g>
</g>
<!-- Node1&#45;&gt;Node7 -->
<g id="edge6_Node000001_Node000007" class="edge">
<title>Node1&#45;&gt;Node7</title>
<g id="a_edge6_Node000001_Node000007"><a xlink:title=" ">
<path fill="none" stroke="#63b8ff" d="M644.26,-67.56C678.87,-58.91 731.07,-45.86 773.76,-35.18"/>
<polygon fill="#63b8ff" stroke="#63b8ff" points="774.36,-38.64 783.21,-32.82 772.66,-31.85 774.36,-38.64"/>
</a>
</g>
</g>
<!-- Node8 -->
<g id="Node000008" class="node">
<title>Node8</title>
<g id="a_Node000008"><a xlink:title=" ">
<polygon fill="#e0e0e0" stroke="#999999" points="1085.12,-32 937.88,-32 937.88,0 1085.12,0 1085.12,-32"/>
<text xml:space="preserve" text-anchor="start" x="945.88" y="-18.5" font-family="Helvetica,sans-Serif" font-size="10.00">com.bank.model.transactions.</text>
<text xml:space="preserve" text-anchor="middle" x="1011.5" y="-6.5" font-family="Helvetica,sans-Serif" font-size="10.00">Transfer</text>
</a>
</g>
</g>
<!-- Node1&#45;&gt;Node8 -->
<g id="edge7_Node000001_Node000008" class="edge">
<title>Node1&#45;&gt;Node8</title>
<g id="a_edge7_Node000001_Node000008"><a xlink:title=" ">
<path fill="none" stroke="#63b8ff" d="M681.04,-67.53C743.97,-59.32 836.74,-46.74 926.55,-32.44"/>
<polygon fill="#63b8ff" stroke="#63b8ff" points="926.95,-35.92 936.27,-30.88 925.85,-29.01 926.95,-35.92"/>
</a>
</g>
</g>
<!-- Node9 -->
<g id="Node000009" class="node">
<title>Node9</title>
<g id="a_Node000009"><a xlink:title=" ">
<polygon fill="#e0e0e0" stroke="#999999" points="1242,-26 1103,-26 1103,-6 1242,-6 1242,-26"/>
<text xml:space="preserve" text-anchor="middle" x="1172.5" y="-12.5" font-family="Helvetica,sans-Serif" font-size="10.00">com.bank.model.users.User</text>
</a>
</g>
</g>
<!-- Node1&#45;&gt;Node9 -->
<g id="edge8_Node000001_Node000009" class="edge">
<title>Node1&#45;&gt;Node9</title>
<g id="a_edge8_Node000001_Node000009"><a xlink:title=" ">
<path fill="none" stroke="#63b8ff" d="M684.96,-72.14C781.6,-65.61 950.66,-52.41 1094.5,-32 1101.49,-31.01 1108.8,-29.81 1116.03,-28.54"/>
<polygon fill="#63b8ff" stroke="#63b8ff" points="1116.56,-32 1125.77,-26.75 1115.3,-25.11 1116.56,-32"/>
</a>
</g>
</g>
</g>
</svg>
