<?xml version="1.0" encoding="UTF-8" standalone="no"?>
<!DOCTYPE svg PUBLIC "-//W3C//DTD SVG 1.1//EN"
 "http://www.w3.org/Graphics/SVG/1.1/DTD/svg11.dtd">
<!-- Generated by graphviz version 14.0.1 (20251006.0113)
 -->
<!-- Title: com.bank.gui.view.panel.AdminCreateAccountPanel Pages: 1 -->
<svg width="150pt" height="160pt"
 viewBox="0.00 0.00 150.00 160.00" xmlns="http://www.w3.org/2000/svg" xmlns:xlink="http://www.w3.org/1999/xlink">
<g id="graph0" class="graph" transform="scale(1 1) rotate(0) translate(4 156)">
<title>com.bank.gui.view.panel.AdminCreateAccountPanel</title>
<!-- Node1 -->
<g id="Node000001" class="node">
<title>Node1</title>
<g id="a_Node000001"><a xlink:title="Παράθυρο δημιουργίας νέου λογαριασμού από τον διαχειριστή.">
<polygon fill="#999999" stroke="none" points="141.75,-64 0,-64 0,0 141.75,0 141.75,-64"/>
<text xml:space="preserve" text-anchor="start" x="12" y="-50.5" font-family="Helvetica,sans-Serif" font-size="10.00">com.bank.gui.view.panel.</text>
<text xml:space="preserve" text-anchor="start" x="12" y="-38.5" font-family="Helvetica,sans-Serif" font-size="10.00">AdminCreateAccountPanel</text>
<text xml:space="preserve" text-anchor="start" x="69.38" y="-22.5" font-family="Helvetica,sans-Serif" font-size="10.00"> </text>
<text xml:space="preserve" text-anchor="start" x="4" y="-6.5" font-family="Helvetica,sans-Serif" font-size="10.00">+</text>
<text xml:space="preserve" text-anchor="start" x="14" y="-6.5" font-family="Helvetica,sans-Serif" font-size="10.00">AdminCreateAccountPanel()</text>
<polygon fill="#666666" stroke="#666666" points="0,-34 0,-34 141.75,-34 141.75,-34 0,-34"/>
<polygon fill="#666666" stroke="#666666" points="0,-18 0,-18 141.75,-18 141.75,-18 0,-18"/>
<polygon fill="none" stroke="#666666" points="0,0 0,-64 141.75,-64 141.75,0 0,0"/>
</a>
</g>
</g>
<!-- Node2 -->
<g id="Node000002" class="node">
<title>Node2</title>
<g id="a_Node000002"><a xlink:title=" ">
<polygon fill="white" stroke="none" points="89.88,-152 51.88,-152 51.88,-100 89.88,-100 89.88,-152"/>
<text xml:space="preserve" text-anchor="start" x="55.88" y="-138.5" font-family="Helvetica,sans-Serif" font-size="10.00">JPanel</text>
<text xml:space="preserve" text-anchor="start" x="69.38" y="-122.5" font-family="Helvetica,sans-Serif" font-size="10.00"> </text>
<text xml:space="preserve" text-anchor="start" x="69.38" y="-106.5" font-family="Helvetica,sans-Serif" font-size="10.00"> </text>
<polygon fill="#666666" stroke="#666666" points="51.88,-134 51.88,-134 89.88,-134 89.88,-134 51.88,-134"/>
<polygon fill="#666666" stroke="#666666" points="51.88,-118 51.88,-118 89.88,-118 89.88,-118 51.88,-118"/>
<polygon fill="none" stroke="#666666" points="51.88,-100 51.88,-152 89.88,-152 89.88,-100 51.88,-100"/>
</a>
</g>
</g>
<!-- Node2&#45;&gt;Node1 -->
<g id="edge1_Node000001_Node000002" class="edge">
<title>Node2&#45;&gt;Node1</title>
<g id="a_edge1_Node000001_Node000002"><a xlink:title=" ">
<path fill="none" stroke="#63b8ff" d="M70.88,-89.06C70.88,-80.78 70.88,-72.04 70.88,-63.98"/>
<polygon fill="none" stroke="#63b8ff" points="67.38,-88.83 70.88,-98.83 74.38,-88.83 67.38,-88.83"/>
</a>
</g>
</g>
</g>
</svg>
