<?xml version="1.0" encoding="UTF-8" standalone="no"?>
<!DOCTYPE svg PUBLIC "-//W3C//DTD SVG 1.1//EN"
 "http://www.w3.org/Graphics/SVG/1.1/DTD/svg11.dtd">
<!-- Generated by graphviz version 14.0.1 (20251006.0113)
 -->
<!-- Title: com.bank.model.transactions.Transaction.execute Pages: 1 -->
<!--zoomable 340 -->

<svg id="main" version="1.1" xmlns="http://www.w3.org/2000/svg" xmlns:xlink="http://www.w3.org/1999/xlink" xml:space="preserve" onload="init(evt)">

<style type="text/css"><![CDATA[
.node, .edge {opacity: 0.7;}
.node.selected, .edge.selected {opacity: 1;}
.edge:hover path { stroke: red; }
.edge:hover polygon { stroke: red; fill: red; }
]]></style>

<defs>
  <circle id="rim" cx="0" cy="0" r="7"/>
  <circle id="rim2" cx="0" cy="0" r="3.5"/>
  <g id="zoomPlus">
    <use xlink:href="#rim" fill="#404040"><set attributeName="fill" to="#808080" begin="zoomplus.mouseover" end="zoomplus.mouseout"/></use>
    <path d="M-4,0h8M0,-4v8" fill="none" stroke="white" stroke-width="1.5" pointer-events="none"/>
  </g>
  <g id="zoomMin">
    <use xlink:href="#rim" fill="#404040"><set attributeName="fill" to="#808080" begin="zoomminus.mouseover" end="zoomminus.mouseout"/></use>
    <path d="M-4,0h8" fill="none" stroke="white" stroke-width="1.5" pointer-events="none"/>
  </g>
  <g id="arrowUp" transform="translate(30 24)">
    <use xlink:href="#rim"/>
    <path pointer-events="none" fill="none" stroke="white" stroke-width="1.5" d="M0,-3.0v7 M-2.5,-0.5L0,-3.0L2.5,-0.5"/>
  </g>
  <g id="arrowRight" transform="rotate(90) translate(36 -43)">
    <use xlink:href="#rim"/>
    <path pointer-events="none" fill="none" stroke="white" stroke-width="1.5" d="M0,-3.0v7 M-2.5,-0.5L0,-3.0L2.5,-0.5"/>
  </g>
  <g id="arrowDown" transform="rotate(180) translate(-30 -48)">
    <use xlink:href="#rim"/>
    <path pointer-events="none" fill="none" stroke="white" stroke-width="1.5" d="M0,-3.0v7 M-2.5,-0.5L0,-3.0L2.5,-0.5"/>
  </g>
  <g id="arrowLeft" transform="rotate(270) translate(-36 17)">
    <use xlink:href="#rim"/>
    <path pointer-events="none" fill="none" stroke="white" stroke-width="1.5" d="M0,-3.0v7 M-2.5,-0.5L0,-3.0L2.5,-0.5"/>
  </g>
  <g id="resetDef">
    <use xlink:href="#rim2" fill="#404040"><set attributeName="fill" to="#808080" begin="reset.mouseover" end="reset.mouseout"/></use>
  </g>
</defs>
<script type="application/ecmascript">
var viewWidth = 566;
var viewHeight = 340;
var sectionId = 'dynsection-3';
</script>
<script type="application/ecmascript" xlink:href="../../svg.min.js"/>
<svg id="graph" class="graph">
<g id="viewport">
<title>com.bank.model.transactions.Transaction.execute</title>
<!-- Node1 -->
<g id="Node000001" class="node">
<title>Node1</title>
<g id="a_Node000001"><a xlink:title="Executes the transaction logic.">
<polygon fill="#999999" stroke="#666666" points="558,-182 410.75,-182 410.75,-150 558,-150 558,-182"/>
<text xml:space="preserve" text-anchor="start" x="418.75" y="-168.5" font-family="Helvetica,sans-Serif" font-size="10.00">com.bank.model.transactions.</text>
<text xml:space="preserve" text-anchor="middle" x="484.38" y="-156.5" font-family="Helvetica,sans-Serif" font-size="10.00">Transaction.execute</text>
</a>
</g>
</g>
<!-- Node2 -->
<g id="Node000002" class="node">
<title>Node2</title>
<g id="a_Node000002"><a xlink:href="../../d6/d0e/classcom_1_1bank_1_1manager_1_1_transaction_manager.html#a4ade645d8387a45e8026f0efd086c921" target="_top" xlink:title="Executes a transaction and records it in history.">
<polygon fill="white" stroke="#666666" points="374.75,-182 221.5,-182 221.5,-150 374.75,-150 374.75,-182"/>
<text xml:space="preserve" text-anchor="start" x="229.5" y="-168.5" font-family="Helvetica,sans-Serif" font-size="10.00">com.bank.manager.Transaction</text>
<text xml:space="preserve" text-anchor="middle" x="298.12" y="-156.5" font-family="Helvetica,sans-Serif" font-size="10.00">Manager.execute</text>
</a>
</g>
</g>
<!-- Node1&#45;&gt;Node2 -->
<g id="edge1_Node000001_Node000002" class="edge">
<title>Node1&#45;&gt;Node2</title>
<g id="a_edge1_Node000001_Node000002"><a xlink:title=" ">
<path fill="none" stroke="#63b8ff" d="M398.81,-166C390.92,-166 382.95,-166 375.14,-166"/>
<polygon fill="#63b8ff" stroke="#63b8ff" points="398.78,-169.5 408.78,-166 398.78,-162.5 398.78,-169.5"/>
</a>
</g>
</g>
<!-- Node3 -->
<g id="Node000003" class="node">
<title>Node3</title>
<g id="a_Node000003"><a xlink:href="../../dd/d30/classcom_1_1bank_1_1gui_1_1view_1_1panel_1_1_admin_pay_bill_panel.html#a973563a6943f3648632453279e518cb1" target="_top" xlink:title="Δημιουργεί το panel πληρωμής λογαριασμού από Admin.">
<polygon fill="white" stroke="#666666" points="185.5,-332 0,-332 0,-300 185.5,-300 185.5,-332"/>
<text xml:space="preserve" text-anchor="start" x="8" y="-318.5" font-family="Helvetica,sans-Serif" font-size="10.00">com.bank.gui.view.panel.</text>
<text xml:space="preserve" text-anchor="middle" x="92.75" y="-306.5" font-family="Helvetica,sans-Serif" font-size="10.00">AdminPayBillPanel.AdminPayBillPanel</text>
</a>
</g>
</g>
<!-- Node2&#45;&gt;Node3 -->
<g id="edge2_Node000002_Node000003" class="edge">
<title>Node2&#45;&gt;Node3</title>
<g id="a_edge2_Node000002_Node000003"><a xlink:title=" ">
<path fill="none" stroke="#63b8ff" d="M281.11,-191.41C261.85,-219.88 226.89,-265.4 185.5,-291 180.16,-294.3 174.39,-297.17 168.43,-299.67"/>
<polygon fill="#63b8ff" stroke="#63b8ff" points="283.83,-193.65 286.42,-183.37 277.99,-189.79 283.83,-193.65"/>
</a>
</g>
</g>
<!-- Node4 -->
<g id="Node000004" class="node">
<title>Node4</title>
<g id="a_Node000004"><a xlink:href="../../d4/df3/classcom_1_1bank_1_1gui_1_1view_1_1panel_1_1_deposit_panel.html#a910b6db8aa423e0d595a89c256382be9" target="_top" xlink:title="Δημιουργεί panel για εκτέλεση κατάθεσης σε έναν από τους λογαριασμούς του χρήστη.">
<polygon fill="white" stroke="#666666" points="160.75,-282 24.75,-282 24.75,-250 160.75,-250 160.75,-282"/>
<text xml:space="preserve" text-anchor="start" x="32.75" y="-268.5" font-family="Helvetica,sans-Serif" font-size="10.00">com.bank.gui.view.panel.</text>
<text xml:space="preserve" text-anchor="middle" x="92.75" y="-256.5" font-family="Helvetica,sans-Serif" font-size="10.00">DepositPanel.DepositPanel</text>
</a>
</g>
</g>
<!-- Node2&#45;&gt;Node4 -->
<g id="edge3_Node000002_Node000004" class="edge">
<title>Node2&#45;&gt;Node4</title>
<g id="a_edge3_Node000002_Node000004"><a xlink:title=" ">
<path fill="none" stroke="#63b8ff" d="M268.36,-189.18C246.69,-205.65 215.65,-227.22 185.5,-241 177.69,-244.57 169.27,-247.72 160.81,-250.48"/>
<polygon fill="#63b8ff" stroke="#63b8ff" points="270.37,-192.05 276.14,-183.16 266.09,-186.51 270.37,-192.05"/>
</a>
</g>
</g>
<!-- Node5 -->
<g id="Node000005" class="node">
<title>Node5</title>
<g id="a_Node000005"><a xlink:href="../../dc/d2a/classcom_1_1bank_1_1model_1_1orders_1_1_payment_order.html#a439eabdedf52f8c33708338984440c6e" target="_top" xlink:title="Executes the payment order on the specified payment day.">
<polygon fill="white" stroke="#666666" points="172.75,-232 12.75,-232 12.75,-200 172.75,-200 172.75,-232"/>
<text xml:space="preserve" text-anchor="start" x="20.75" y="-218.5" font-family="Helvetica,sans-Serif" font-size="10.00">com.bank.model.orders.Payment</text>
<text xml:space="preserve" text-anchor="middle" x="92.75" y="-206.5" font-family="Helvetica,sans-Serif" font-size="10.00">Order.execute</text>
</a>
</g>
</g>
<!-- Node2&#45;&gt;Node5 -->
<g id="edge4_Node000002_Node000005" class="edge">
<title>Node2&#45;&gt;Node5</title>
<g id="a_edge4_Node000002_Node000005"><a xlink:title=" ">
<path fill="none" stroke="#63b8ff" d="M219.34,-185.12C200,-189.88 179.43,-194.93 160.66,-199.55"/>
<polygon fill="#63b8ff" stroke="#63b8ff" points="219.91,-188.59 228.78,-182.8 218.23,-181.79 219.91,-188.59"/>
</a>
</g>
</g>
<!-- Node6 -->
<g id="Node000006" class="node">
<title>Node6</title>
<g id="a_Node000006"><a xlink:href="../../d4/d34/classcom_1_1bank_1_1model_1_1orders_1_1_transfer_order.html#a043fd034f18ed31a9ad9fc95e2180dc6" target="_top" xlink:title="Executes the transfer if the date matches the schedule and funds are sufficient.">
<polygon fill="white" stroke="#666666" points="171.25,-182 14.25,-182 14.25,-150 171.25,-150 171.25,-182"/>
<text xml:space="preserve" text-anchor="start" x="22.25" y="-168.5" font-family="Helvetica,sans-Serif" font-size="10.00">com.bank.model.orders.Transfer</text>
<text xml:space="preserve" text-anchor="middle" x="92.75" y="-156.5" font-family="Helvetica,sans-Serif" font-size="10.00">Order.execute</text>
</a>
</g>
</g>
<!-- Node2&#45;&gt;Node6 -->
<g id="edge5_Node000002_Node000006" class="edge">
<title>Node2&#45;&gt;Node6</title>
<g id="a_edge5_Node000002_Node000006"><a xlink:title=" ">
<path fill="none" stroke="#63b8ff" d="M209.63,-166C197.02,-166 184.12,-166 171.71,-166"/>
<polygon fill="#63b8ff" stroke="#63b8ff" points="209.59,-169.5 219.59,-166 209.59,-162.5 209.59,-169.5"/>
</a>
</g>
</g>
<!-- Node7 -->
<g id="Node000007" class="node">
<title>Node7</title>
<g id="a_Node000007"><a xlink:href="../../dc/dd6/classcom_1_1bank_1_1gui_1_1view_1_1panel_1_1_pay_bill_panel.html#a36e2af99e6d3c4df782013e94e77f6a4" target="_top" xlink:title="Δημιουργεί panel για πληρωμή λογαριασμού με RF code.">
<polygon fill="white" stroke="#666666" points="157.75,-132 27.75,-132 27.75,-100 157.75,-100 157.75,-132"/>
<text xml:space="preserve" text-anchor="start" x="35.75" y="-118.5" font-family="Helvetica,sans-Serif" font-size="10.00">com.bank.gui.view.panel.</text>
<text xml:space="preserve" text-anchor="middle" x="92.75" y="-106.5" font-family="Helvetica,sans-Serif" font-size="10.00">PayBillPanel.PayBillPanel</text>
</a>
</g>
</g>
<!-- Node2&#45;&gt;Node7 -->
<g id="edge6_Node000002_Node000007" class="edge">
<title>Node2&#45;&gt;Node7</title>
<g id="a_edge6_Node000002_Node000007"><a xlink:title=" ">
<path fill="none" stroke="#63b8ff" d="M219.22,-146.85C199.08,-141.89 177.62,-136.62 158.24,-131.86"/>
<polygon fill="#63b8ff" stroke="#63b8ff" points="218.23,-150.21 228.78,-149.2 219.91,-143.41 218.23,-150.21"/>
</a>
</g>
</g>
<!-- Node8 -->
<g id="Node000008" class="node">
<title>Node8</title>
<g id="a_Node000008"><a xlink:href="../../dc/d10/classcom_1_1bank_1_1gui_1_1view_1_1panel_1_1_transfer_panel.html#a8a794a4df9795e83bd93ab1709e44676" target="_top" xlink:title="Δημιουργεί το panel μεταφοράς χρημάτων για τον τρέχοντα χρήστη.">
<polygon fill="white" stroke="#666666" points="163,-82 22.5,-82 22.5,-50 163,-50 163,-82"/>
<text xml:space="preserve" text-anchor="start" x="30.5" y="-68.5" font-family="Helvetica,sans-Serif" font-size="10.00">com.bank.gui.view.panel.</text>
<text xml:space="preserve" text-anchor="middle" x="92.75" y="-56.5" font-family="Helvetica,sans-Serif" font-size="10.00">TransferPanel.TransferPanel</text>
</a>
</g>
</g>
<!-- Node2&#45;&gt;Node8 -->
<g id="edge7_Node000002_Node000008" class="edge">
<title>Node2&#45;&gt;Node8</title>
<g id="a_edge7_Node000002_Node000008"><a xlink:title=" ">
<path fill="none" stroke="#63b8ff" d="M268.36,-142.82C246.69,-126.35 215.65,-104.78 185.5,-91 178.44,-87.77 170.88,-84.89 163.25,-82.33"/>
<polygon fill="#63b8ff" stroke="#63b8ff" points="266.09,-145.49 276.14,-148.84 270.37,-139.95 266.09,-145.49"/>
</a>
</g>
</g>
<!-- Node9 -->
<g id="Node000009" class="node">
<title>Node9</title>
<g id="a_Node000009"><a xlink:href="../../d3/da8/classcom_1_1bank_1_1gui_1_1view_1_1panel_1_1_withdraw_panel.html#abd3072a053a9ffdcb84c7828c6a49860" target="_top" xlink:title="Δημιουργεί το panel ανάληψης χρημάτων.">
<polygon fill="white" stroke="#666666" points="168.25,-32 17.25,-32 17.25,0 168.25,0 168.25,-32"/>
<text xml:space="preserve" text-anchor="start" x="25.25" y="-18.5" font-family="Helvetica,sans-Serif" font-size="10.00">com.bank.gui.view.panel.</text>
<text xml:space="preserve" text-anchor="middle" x="92.75" y="-6.5" font-family="Helvetica,sans-Serif" font-size="10.00">WithdrawPanel.WithdrawPanel</text>
</a>
</g>
</g>
<!-- Node2&#45;&gt;Node9 -->
<g id="edge8_Node000002_Node000009" class="edge">
<title>Node2&#45;&gt;Node9</title>
<g id="a_edge8_Node000002_Node000009"><a xlink:title=" ">
<path fill="none" stroke="#63b8ff" d="M281.11,-140.59C261.85,-112.12 226.89,-66.6 185.5,-41 180.16,-37.7 174.39,-34.83 168.43,-32.33"/>
<polygon fill="#63b8ff" stroke="#63b8ff" points="277.99,-142.21 286.42,-148.63 283.83,-138.35 277.99,-142.21"/>
</a>
</g>
</g>
</g>
</svg>

<g id="navigator" transform="translate(0 0)" fill="#404254">
  <rect fill="#f2f5e9" fill-opacity="0.5" stroke="#606060" stroke-width=".5" x="0" y="0" width="60" height="60"/>
  <use id="zoomplus" xlink:href="#zoomPlus" x="17" y="9" onmousedown="handleZoom(evt,'in')"/>
  <use id="zoomminus" xlink:href="#zoomMin" x="42" y="9" onmousedown="handleZoom(evt,'out')"/>
  <use id="reset" xlink:href="#resetDef" x="30" y="36" onmousedown="handleReset()"/>
   <use id="arrowup" xlink:href="#arrowUp" x="0" y="0" onmousedown="handlePan(0,-1)"/>
  <use id="arrowright" xlink:href="#arrowRight" x="0" y="0" onmousedown="handlePan(1,0)"/>
  <use id="arrowdown" xlink:href="#arrowDown" x="0" y="0" onmousedown="handlePan(0,1)"/>
  <use id="arrowleft" xlink:href="#arrowLeft" x="0" y="0" onmousedown="handlePan(-1,0)"/>
</g>
<svg viewBox="0 0 15 15" width="100%" height="30px" preserveAspectRatio="xMaxYMin meet">
 <g id="arrow_out" transform="scale(0.3 0.3)">
  <a xlink:href="classcom_1_1bank_1_1model_1_1transactions_1_1_transaction_a31513476c29864af24cc9a96185ceaa7_icgraph_org.svg" target="_base">
   <rect id="button" ry="5" rx="5" y="6" x="6" height="38" width="38"
        fill="#f2f5e9" fill-opacity="0.5" stroke="#606060" stroke-width="1.0"/>
   <path id="arrow"
     d="M 11.500037,31.436501 C 11.940474,20.09759 22.043105,11.32322 32.158766,21.979434 L 37.068811,17.246167 C 37.068811,17.246167 37.088388,32 37.088388,32 L 22.160133,31.978069 C 22.160133,31.978069 26.997745,27.140456 26.997745,27.140456 C 18.528582,18.264221 13.291696,25.230495 11.500037,31.436501 z"
     style="fill:#404040;"/>
  </a>
 </g>
</svg>

<style type='text/css'>
<![CDATA[
[data-mouse-over-selected='false'] { opacity: 0.7; }
[data-mouse-over-selected='true']  { opacity: 1.0; }
]]>
</style>
<script type="application/ecmascript"><![CDATA[
document.addEventListener('DOMContentLoaded', (event) => {
  highlightEdges();
  highlightAdjacentNodes();
});
]]></script>
</svg>
