<?xml version="1.0" encoding="UTF-8" standalone="no"?>
<!DOCTYPE svg PUBLIC "-//W3C//DTD SVG 1.1//EN"
 "http://www.w3.org/Graphics/SVG/1.1/DTD/svg11.dtd">
<!-- Generated by graphviz version 14.0.1 (20251006.0113)
 -->
<!-- Title: com.bank.gui.view.panel.AdminAccountDetailsPanel.AdminAccountDetailsPanel Pages: 1 -->
<!--zoomable 366 -->

<svg id="main" version="1.1" xmlns="http://www.w3.org/2000/svg" xmlns:xlink="http://www.w3.org/1999/xlink" xml:space="preserve" onload="init(evt)">

<style type="text/css"><![CDATA[
.node, .edge {opacity: 0.7;}
.node.selected, .edge.selected {opacity: 1;}
.edge:hover path { stroke: red; }
.edge:hover polygon { stroke: red; fill: red; }
]]></style>

<defs>
  <circle id="rim" cx="0" cy="0" r="7"/>
  <circle id="rim2" cx="0" cy="0" r="3.5"/>
  <g id="zoomPlus">
    <use xlink:href="#rim" fill="#404040"><set attributeName="fill" to="#808080" begin="zoomplus.mouseover" end="zoomplus.mouseout"/></use>
    <path d="M-4,0h8M0,-4v8" fill="none" stroke="white" stroke-width="1.5" pointer-events="none"/>
  </g>
  <g id="zoomMin">
    <use xlink:href="#rim" fill="#404040"><set attributeName="fill" to="#808080" begin="zoomminus.mouseover" end="zoomminus.mouseout"/></use>
    <path d="M-4,0h8" fill="none" stroke="white" stroke-width="1.5" pointer-events="none"/>
  </g>
  <g id="arrowUp" transform="translate(30 24)">
    <use xlink:href="#rim"/>
    <path pointer-events="none" fill="none" stroke="white" stroke-width="1.5" d="M0,-3.0v7 M-2.5,-0.5L0,-3.0L2.5,-0.5"/>
  </g>
  <g id="arrowRight" transform="rotate(90) translate(36 -43)">
    <use xlink:href="#rim"/>
    <path pointer-events="none" fill="none" stroke="white" stroke-width="1.5" d="M0,-3.0v7 M-2.5,-0.5L0,-3.0L2.5,-0.5"/>
  </g>
  <g id="arrowDown" transform="rotate(180) translate(-30 -48)">
    <use xlink:href="#rim"/>
    <path pointer-events="none" fill="none" stroke="white" stroke-width="1.5" d="M0,-3.0v7 M-2.5,-0.5L0,-3.0L2.5,-0.5"/>
  </g>
  <g id="arrowLeft" transform="rotate(270) translate(-36 17)">
    <use xlink:href="#rim"/>
    <path pointer-events="none" fill="none" stroke="white" stroke-width="1.5" d="M0,-3.0v7 M-2.5,-0.5L0,-3.0L2.5,-0.5"/>
  </g>
  <g id="resetDef">
    <use xlink:href="#rim2" fill="#404040"><set attributeName="fill" to="#808080" begin="reset.mouseover" end="reset.mouseout"/></use>
  </g>
</defs>
<script type="application/ecmascript">
var viewWidth = 571;
var viewHeight = 366;
var sectionId = 'dynsection-2';
</script>
<script type="application/ecmascript" xlink:href="../../svg.min.js"/>
<svg id="graph" class="graph">
<g id="viewport">
<title>com.bank.gui.view.panel.AdminAccountDetailsPanel.AdminAccountDetailsPanel</title>
<!-- Node1 -->
<g id="Node000001" class="node">
<title>Node1</title>
<g id="a_Node000001"><a xlink:title="Δημιουργεί το panel προβολής λεπτομερειών λογαριασμού.">
<polygon fill="#999999" stroke="#666666" points="166,-201 0,-201 0,-157 166,-157 166,-201"/>
<text xml:space="preserve" text-anchor="start" x="8" y="-187.5" font-family="Helvetica,sans-Serif" font-size="10.00">com.bank.gui.view.panel.</text>
<text xml:space="preserve" text-anchor="start" x="8" y="-175.5" font-family="Helvetica,sans-Serif" font-size="10.00">AdminAccountDetailsPanel.Admin</text>
<text xml:space="preserve" text-anchor="middle" x="83" y="-163.5" font-family="Helvetica,sans-Serif" font-size="10.00">AccountDetailsPanel</text>
</a>
</g>
</g>
<!-- Node2 -->
<g id="Node000002" class="node">
<title>Node2</title>
<g id="a_Node000002"><a xlink:href="../../dd/db1/classcom_1_1bank_1_1manager_1_1_account_manager.html#a8a3ebf20f49b1718127736507683d480" target="_top" xlink:title="Finds an account by IBAN.">
<polygon fill="white" stroke="#666666" points="366.88,-358 228.62,-358 228.62,-326 366.88,-326 366.88,-358"/>
<text xml:space="preserve" text-anchor="start" x="236.62" y="-344.5" font-family="Helvetica,sans-Serif" font-size="10.00">com.bank.manager.Account</text>
<text xml:space="preserve" text-anchor="middle" x="297.75" y="-332.5" font-family="Helvetica,sans-Serif" font-size="10.00">Manager.findByIban</text>
</a>
</g>
</g>
<!-- Node1&#45;&gt;Node2 -->
<g id="edge1_Node000001_Node000002" class="edge">
<title>Node1&#45;&gt;Node2</title>
<g id="a_edge1_Node000001_Node000002"><a xlink:title=" ">
<path fill="none" stroke="#63b8ff" d="M98.19,-201.43C117.97,-230.94 156.56,-282.5 202,-312 207.16,-315.35 212.71,-318.34 218.46,-321.02"/>
<polygon fill="#63b8ff" stroke="#63b8ff" points="216.99,-324.2 227.56,-324.91 219.74,-317.77 216.99,-324.2"/>
</a>
</g>
</g>
<!-- Node3 -->
<g id="Node000003" class="node">
<title>Node3</title>
<g id="a_Node000003"><a xlink:href="../../da/d83/classcom_1_1bank_1_1model_1_1accounts_1_1_account.html#a38981f8e6e13e82b7135c3b57bd2bba0" target="_top" xlink:title=" ">
<polygon fill="white" stroke="#666666" points="563.25,-336 429.5,-336 429.5,-304 563.25,-304 563.25,-336"/>
<text xml:space="preserve" text-anchor="start" x="437.5" y="-322.5" font-family="Helvetica,sans-Serif" font-size="10.00">com.bank.model.accounts.</text>
<text xml:space="preserve" text-anchor="middle" x="496.38" y="-310.5" font-family="Helvetica,sans-Serif" font-size="10.00">Account.getIban</text>
</a>
</g>
</g>
<!-- Node1&#45;&gt;Node3 -->
<g id="edge6_Node000001_Node000003" class="edge">
<title>Node1&#45;&gt;Node3</title>
<g id="a_edge6_Node000001_Node000003"><a xlink:title=" ">
<path fill="none" stroke="#63b8ff" d="M103.19,-201.49C124.68,-225.03 161.81,-261.01 202,-279 239.5,-295.79 344.5,-307.59 418.11,-314.09"/>
<polygon fill="#63b8ff" stroke="#63b8ff" points="417.41,-317.55 427.68,-314.92 418.02,-310.57 417.41,-317.55"/>
</a>
</g>
</g>
<!-- Node4 -->
<g id="Node000004" class="node">
<title>Node4</title>
<g id="a_Node000004"><a xlink:href="../../da/d83/classcom_1_1bank_1_1model_1_1accounts_1_1_account.html#a9fb33a39fa4b91e75fc66a93ff23ae8b" target="_top" xlink:title=" ">
<polygon fill="white" stroke="#666666" points="364.62,-270 230.88,-270 230.88,-238 364.62,-238 364.62,-270"/>
<text xml:space="preserve" text-anchor="start" x="238.88" y="-256.5" font-family="Helvetica,sans-Serif" font-size="10.00">com.bank.model.accounts.</text>
<text xml:space="preserve" text-anchor="middle" x="297.75" y="-244.5" font-family="Helvetica,sans-Serif" font-size="10.00">Account.getBalance</text>
</a>
</g>
</g>
<!-- Node1&#45;&gt;Node4 -->
<g id="edge3_Node000001_Node000004" class="edge">
<title>Node1&#45;&gt;Node4</title>
<g id="a_edge3_Node000001_Node000004"><a xlink:title=" ">
<path fill="none" stroke="#63b8ff" d="M132.48,-201.39C153.57,-210.64 178.74,-221.05 202,-229 207.68,-230.94 213.6,-232.83 219.58,-234.63"/>
<polygon fill="#63b8ff" stroke="#63b8ff" points="218.35,-237.91 228.93,-237.36 220.31,-231.19 218.35,-237.91"/>
</a>
</g>
</g>
<!-- Node5 -->
<g id="Node000005" class="node">
<title>Node5</title>
<g id="a_Node000005"><a xlink:href="../../da/d83/classcom_1_1bank_1_1model_1_1accounts_1_1_account.html#a646120eab2b4147a1d8d5984c2c661a4" target="_top" xlink:title=" ">
<polygon fill="white" stroke="#666666" points="364.62,-220 230.88,-220 230.88,-188 364.62,-188 364.62,-220"/>
<text xml:space="preserve" text-anchor="start" x="238.88" y="-206.5" font-family="Helvetica,sans-Serif" font-size="10.00">com.bank.model.accounts.</text>
<text xml:space="preserve" text-anchor="middle" x="297.75" y="-194.5" font-family="Helvetica,sans-Serif" font-size="10.00">Account.getDateCreated</text>
</a>
</g>
</g>
<!-- Node1&#45;&gt;Node5 -->
<g id="edge4_Node000001_Node000005" class="edge">
<title>Node1&#45;&gt;Node5</title>
<g id="a_edge4_Node000001_Node000005"><a xlink:title=" ">
<path fill="none" stroke="#63b8ff" d="M166.25,-188.67C183.71,-190.72 202.08,-192.88 219.35,-194.91"/>
<polygon fill="#63b8ff" stroke="#63b8ff" points="218.68,-198.35 229.02,-196.04 219.49,-191.4 218.68,-198.35"/>
</a>
</g>
</g>
<!-- Node6 -->
<g id="Node000006" class="node">
<title>Node6</title>
<g id="a_Node000006"><a xlink:href="../../dd/dee/classcom_1_1bank_1_1model_1_1users_1_1_user.html#a5391325a7c7123854a0ea11946fe7a85" target="_top" xlink:title=" ">
<polygon fill="white" stroke="#666666" points="375.5,-170 220,-170 220,-138 375.5,-138 375.5,-170"/>
<text xml:space="preserve" text-anchor="start" x="228" y="-156.5" font-family="Helvetica,sans-Serif" font-size="10.00">com.bank.model.users.User.get</text>
<text xml:space="preserve" text-anchor="middle" x="297.75" y="-144.5" font-family="Helvetica,sans-Serif" font-size="10.00">FullName</text>
</a>
</g>
</g>
<!-- Node1&#45;&gt;Node6 -->
<g id="edge5_Node000001_Node000006" class="edge">
<title>Node1&#45;&gt;Node6</title>
<g id="a_edge5_Node000001_Node000006"><a xlink:title=" ">
<path fill="none" stroke="#63b8ff" d="M166.25,-169.33C180.09,-167.71 194.51,-166.01 208.49,-164.37"/>
<polygon fill="#63b8ff" stroke="#63b8ff" points="208.57,-167.89 218.09,-163.24 207.75,-160.93 208.57,-167.89"/>
</a>
</g>
</g>
<!-- Node7 -->
<g id="Node000007" class="node">
<title>Node7</title>
<g id="a_Node000007"><a xlink:href="../../da/d83/classcom_1_1bank_1_1model_1_1accounts_1_1_account.html#abd3a8790eb24586225bf658df9304f05" target="_top" xlink:title=" ">
<polygon fill="white" stroke="#666666" points="364.62,-120 230.88,-120 230.88,-88 364.62,-88 364.62,-120"/>
<text xml:space="preserve" text-anchor="start" x="238.88" y="-106.5" font-family="Helvetica,sans-Serif" font-size="10.00">com.bank.model.accounts.</text>
<text xml:space="preserve" text-anchor="middle" x="297.75" y="-94.5" font-family="Helvetica,sans-Serif" font-size="10.00">Account.getInterestRate</text>
</a>
</g>
</g>
<!-- Node1&#45;&gt;Node7 -->
<g id="edge7_Node000001_Node000007" class="edge">
<title>Node1&#45;&gt;Node7</title>
<g id="a_edge7_Node000001_Node000007"><a xlink:title=" ">
<path fill="none" stroke="#63b8ff" d="M132.48,-156.61C153.57,-147.36 178.74,-136.95 202,-129 207.68,-127.06 213.6,-125.17 219.58,-123.37"/>
<polygon fill="#63b8ff" stroke="#63b8ff" points="220.31,-126.81 228.93,-120.64 218.35,-120.09 220.31,-126.81"/>
</a>
</g>
</g>
<!-- Node8 -->
<g id="Node000008" class="node">
<title>Node8</title>
<g id="a_Node000008"><a xlink:href="../../da/d83/classcom_1_1bank_1_1model_1_1accounts_1_1_account.html#a2fa464e8efa1047ae0452e57c2bbfc57" target="_top" xlink:title=" ">
<polygon fill="white" stroke="#666666" points="364.62,-70 230.88,-70 230.88,-38 364.62,-38 364.62,-70"/>
<text xml:space="preserve" text-anchor="start" x="238.88" y="-56.5" font-family="Helvetica,sans-Serif" font-size="10.00">com.bank.model.accounts.</text>
<text xml:space="preserve" text-anchor="middle" x="297.75" y="-44.5" font-family="Helvetica,sans-Serif" font-size="10.00">Account.getOwner</text>
</a>
</g>
</g>
<!-- Node1&#45;&gt;Node8 -->
<g id="edge8_Node000001_Node000008" class="edge">
<title>Node1&#45;&gt;Node8</title>
<g id="a_edge8_Node000001_Node000008"><a xlink:title=" ">
<path fill="none" stroke="#63b8ff" d="M104.44,-156.59C126.42,-133.81 163.42,-99.11 202,-79 207.7,-76.03 213.79,-73.39 220.01,-71.05"/>
<polygon fill="#63b8ff" stroke="#63b8ff" points="220.86,-74.46 229.16,-67.88 218.57,-67.85 220.86,-74.46"/>
</a>
</g>
</g>
<!-- Node9 -->
<g id="Node000009" class="node">
<title>Node9</title>
<g id="a_Node000009"><a xlink:href="../../dd/d5f/classcom_1_1bank_1_1model_1_1users_1_1_customer.html#a5bf723beb2c45823230bf1db33e927ef" target="_top" xlink:title="Returns the VAT (ΑΦΜ) of the customer.">
<polygon fill="white" stroke="#666666" points="393.5,-20 202,-20 202,0 393.5,0 393.5,-20"/>
<text xml:space="preserve" text-anchor="middle" x="297.75" y="-6.5" font-family="Helvetica,sans-Serif" font-size="10.00">com.bank.model.users.Customer.getVat</text>
</a>
</g>
</g>
<!-- Node1&#45;&gt;Node9 -->
<g id="edge9_Node000001_Node000009" class="edge">
<title>Node1&#45;&gt;Node9</title>
<g id="a_edge9_Node000001_Node000009"><a xlink:title=" ">
<path fill="none" stroke="#63b8ff" d="M95,-156.56C112.66,-123.07 150.62,-60.57 202,-29 204.44,-27.5 206.97,-26.12 209.58,-24.84"/>
<polygon fill="#63b8ff" stroke="#63b8ff" points="210.72,-28.16 218.55,-21.02 207.98,-21.72 210.72,-28.16"/>
</a>
</g>
</g>
<!-- Node2&#45;&gt;Node3 -->
<g id="edge2_Node000002_Node000003" class="edge">
<title>Node2&#45;&gt;Node3</title>
<g id="a_edge2_Node000002_Node000003"><a xlink:title=" ">
<path fill="none" stroke="#63b8ff" d="M367.24,-334.34C383.54,-332.51 401.05,-330.55 417.73,-328.69"/>
<polygon fill="#63b8ff" stroke="#63b8ff" points="418.06,-332.17 427.61,-327.58 417.28,-325.22 418.06,-332.17"/>
</a>
</g>
</g>
</g>
</svg>

<g id="navigator" transform="translate(0 0)" fill="#404254">
  <rect fill="#f2f5e9" fill-opacity="0.5" stroke="#606060" stroke-width=".5" x="0" y="0" width="60" height="60"/>
  <use id="zoomplus" xlink:href="#zoomPlus" x="17" y="9" onmousedown="handleZoom(evt,'in')"/>
  <use id="zoomminus" xlink:href="#zoomMin" x="42" y="9" onmousedown="handleZoom(evt,'out')"/>
  <use id="reset" xlink:href="#resetDef" x="30" y="36" onmousedown="handleReset()"/>
   <use id="arrowup" xlink:href="#arrowUp" x="0" y="0" onmousedown="handlePan(0,-1)"/>
  <use id="arrowright" xlink:href="#arrowRight" x="0" y="0" onmousedown="handlePan(1,0)"/>
  <use id="arrowdown" xlink:href="#arrowDown" x="0" y="0" onmousedown="handlePan(0,1)"/>
  <use id="arrowleft" xlink:href="#arrowLeft" x="0" y="0" onmousedown="handlePan(-1,0)"/>
</g>
<svg viewBox="0 0 15 15" width="100%" height="30px" preserveAspectRatio="xMaxYMin meet">
 <g id="arrow_out" transform="scale(0.3 0.3)">
  <a xlink:href="classcom_1_1bank_1_1gui_1_1view_1_1panel_1_1_admin_account_details_panel_a78d537f580f0dddc9983b57244f0532f_cgraph_org.svg" target="_base">
   <rect id="button" ry="5" rx="5" y="6" x="6" height="38" width="38"
        fill="#f2f5e9" fill-opacity="0.5" stroke="#606060" stroke-width="1.0"/>
   <path id="arrow"
     d="M 11.500037,31.436501 C 11.940474,20.09759 22.043105,11.32322 32.158766,21.979434 L 37.068811,17.246167 C 37.068811,17.246167 37.088388,32 37.088388,32 L 22.160133,31.978069 C 22.160133,31.978069 26.997745,27.140456 26.997745,27.140456 C 18.528582,18.264221 13.291696,25.230495 11.500037,31.436501 z"
     style="fill:#404040;"/>
  </a>
 </g>
</svg>

<style type='text/css'>
<![CDATA[
[data-mouse-over-selected='false'] { opacity: 0.7; }
[data-mouse-over-selected='true']  { opacity: 1.0; }
]]>
</style>
<script type="application/ecmascript"><![CDATA[
document.addEventListener('DOMContentLoaded', (event) => {
  highlightEdges();
  highlightAdjacentNodes();
});
]]></script>
</svg>
