<?xml version="1.0" encoding="UTF-8" standalone="no"?>
<!DOCTYPE svg PUBLIC "-//W3C//DTD SVG 1.1//EN"
 "http://www.w3.org/Graphics/SVG/1.1/DTD/svg11.dtd">
<!-- Generated by graphviz version 14.0.1 (20251006.0113)
 -->
<!-- Title: com.bank.gui.view.panel.AdminAccountDetailsPanel.AdminAccountDetailsPanel Pages: 1 -->
<svg width="571pt" height="366pt"
 viewBox="0.00 0.00 571.00 366.00" xmlns="http://www.w3.org/2000/svg" xmlns:xlink="http://www.w3.org/1999/xlink">
<g id="graph0" class="graph" transform="scale(1 1) rotate(0) translate(4 362)">
<title>com.bank.gui.view.panel.AdminAccountDetailsPanel.AdminAccountDetailsPanel</title>
<!-- Node1 -->
<g id="Node000001" class="node">
<title>Node1</title>
<g id="a_Node000001"><a xlink:title="Δημιουργεί το panel προβολής λεπτομερειών λογαριασμού.">
<polygon fill="#999999" stroke="#666666" points="166,-201 0,-201 0,-157 166,-157 166,-201"/>
<text xml:space="preserve" text-anchor="start" x="8" y="-187.5" font-family="Helvetica,sans-Serif" font-size="10.00">com.bank.gui.view.panel.</text>
<text xml:space="preserve" text-anchor="start" x="8" y="-175.5" font-family="Helvetica,sans-Serif" font-size="10.00">AdminAccountDetailsPanel.Admin</text>
<text xml:space="preserve" text-anchor="middle" x="83" y="-163.5" font-family="Helvetica,sans-Serif" font-size="10.00">AccountDetailsPanel</text>
</a>
</g>
</g>
<!-- Node2 -->
<g id="Node000002" class="node">
<title>Node2</title>
<g id="a_Node000002"><a xlink:href="../../dd/db1/classcom_1_1bank_1_1manager_1_1_account_manager.html#a8a3ebf20f49b1718127736507683d480" target="_top" xlink:title="Finds an account by IBAN.">
<polygon fill="white" stroke="#666666" points="366.88,-358 228.62,-358 228.62,-326 366.88,-326 366.88,-358"/>
<text xml:space="preserve" text-anchor="start" x="236.62" y="-344.5" font-family="Helvetica,sans-Serif" font-size="10.00">com.bank.manager.Account</text>
<text xml:space="preserve" text-anchor="middle" x="297.75" y="-332.5" font-family="Helvetica,sans-Serif" font-size="10.00">Manager.findByIban</text>
</a>
</g>
</g>
<!-- Node1&#45;&gt;Node2 -->
<g id="edge1_Node000001_Node000002" class="edge">
<title>Node1&#45;&gt;Node2</title>
<g id="a_edge1_Node000001_Node000002"><a xlink:title=" ">
<path fill="none" stroke="#63b8ff" d="M98.19,-201.43C117.97,-230.94 156.56,-282.5 202,-312 207.16,-315.35 212.71,-318.34 218.46,-321.02"/>
<polygon fill="#63b8ff" stroke="#63b8ff" points="216.99,-324.2 227.56,-324.91 219.74,-317.77 216.99,-324.2"/>
</a>
</g>
</g>
<!-- Node3 -->
<g id="Node000003" class="node">
<title>Node3</title>
<g id="a_Node000003"><a xlink:href="../../da/d83/classcom_1_1bank_1_1model_1_1accounts_1_1_account.html#a38981f8e6e13e82b7135c3b57bd2bba0" target="_top" xlink:title=" ">
<polygon fill="white" stroke="#666666" points="563.25,-336 429.5,-336 429.5,-304 563.25,-304 563.25,-336"/>
<text xml:space="preserve" text-anchor="start" x="437.5" y="-322.5" font-family="Helvetica,sans-Serif" font-size="10.00">com.bank.model.accounts.</text>
<text xml:space="preserve" text-anchor="middle" x="496.38" y="-310.5" font-family="Helvetica,sans-Serif" font-size="10.00">Account.getIban</text>
</a>
</g>
</g>
<!-- Node1&#45;&gt;Node3 -->
<g id="edge6_Node000001_Node000003" class="edge">
<title>Node1&#45;&gt;Node3</title>
<g id="a_edge6_Node000001_Node000003"><a xlink:title=" ">
<path fill="none" stroke="#63b8ff" d="M103.19,-201.49C124.68,-225.03 161.81,-261.01 202,-279 239.5,-295.79 344.5,-307.59 418.11,-314.09"/>
<polygon fill="#63b8ff" stroke="#63b8ff" points="417.41,-317.55 427.68,-314.92 418.02,-310.57 417.41,-317.55"/>
</a>
</g>
</g>
<!-- Node4 -->
<g id="Node000004" class="node">
<title>Node4</title>
<g id="a_Node000004"><a xlink:href="../../da/d83/classcom_1_1bank_1_1model_1_1accounts_1_1_account.html#a9fb33a39fa4b91e75fc66a93ff23ae8b" target="_top" xlink:title=" ">
<polygon fill="white" stroke="#666666" points="364.62,-270 230.88,-270 230.88,-238 364.62,-238 364.62,-270"/>
<text xml:space="preserve" text-anchor="start" x="238.88" y="-256.5" font-family="Helvetica,sans-Serif" font-size="10.00">com.bank.model.accounts.</text>
<text xml:space="preserve" text-anchor="middle" x="297.75" y="-244.5" font-family="Helvetica,sans-Serif" font-size="10.00">Account.getBalance</text>
</a>
</g>
</g>
<!-- Node1&#45;&gt;Node4 -->
<g id="edge3_Node000001_Node000004" class="edge">
<title>Node1&#45;&gt;Node4</title>
<g id="a_edge3_Node000001_Node000004"><a xlink:title=" ">
<path fill="none" stroke="#63b8ff" d="M132.48,-201.39C153.57,-210.64 178.74,-221.05 202,-229 207.68,-230.94 213.6,-232.83 219.58,-234.63"/>
<polygon fill="#63b8ff" stroke="#63b8ff" points="218.35,-237.91 228.93,-237.36 220.31,-231.19 218.35,-237.91"/>
</a>
</g>
</g>
<!-- Node5 -->
<g id="Node000005" class="node">
<title>Node5</title>
<g id="a_Node000005"><a xlink:href="../../da/d83/classcom_1_1bank_1_1model_1_1accounts_1_1_account.html#a646120eab2b4147a1d8d5984c2c661a4" target="_top" xlink:title=" ">
<polygon fill="white" stroke="#666666" points="364.62,-220 230.88,-220 230.88,-188 364.62,-188 364.62,-220"/>
<text xml:space="preserve" text-anchor="start" x="238.88" y="-206.5" font-family="Helvetica,sans-Serif" font-size="10.00">com.bank.model.accounts.</text>
<text xml:space="preserve" text-anchor="middle" x="297.75" y="-194.5" font-family="Helvetica,sans-Serif" font-size="10.00">Account.getDateCreated</text>
</a>
</g>
</g>
<!-- Node1&#45;&gt;Node5 -->
<g id="edge4_Node000001_Node000005" class="edge">
<title>Node1&#45;&gt;Node5</title>
<g id="a_edge4_Node000001_Node000005"><a xlink:title=" ">
<path fill="none" stroke="#63b8ff" d="M166.25,-188.67C183.71,-190.72 202.08,-192.88 219.35,-194.91"/>
<polygon fill="#63b8ff" stroke="#63b8ff" points="218.68,-198.35 229.02,-196.04 219.49,-191.4 218.68,-198.35"/>
</a>
</g>
</g>
<!-- Node6 -->
<g id="Node000006" class="node">
<title>Node6</title>
<g id="a_Node000006"><a xlink:href="../../dd/dee/classcom_1_1bank_1_1model_1_1users_1_1_user.html#a5391325a7c7123854a0ea11946fe7a85" target="_top" xlink:title=" ">
<polygon fill="white" stroke="#666666" points="375.5,-170 220,-170 220,-138 375.5,-138 375.5,-170"/>
<text xml:space="preserve" text-anchor="start" x="228" y="-156.5" font-family="Helvetica,sans-Serif" font-size="10.00">com.bank.model.users.User.get</text>
<text xml:space="preserve" text-anchor="middle" x="297.75" y="-144.5" font-family="Helvetica,sans-Serif" font-size="10.00">FullName</text>
</a>
</g>
</g>
<!-- Node1&#45;&gt;Node6 -->
<g id="edge5_Node000001_Node000006" class="edge">
<title>Node1&#45;&gt;Node6</title>
<g id="a_edge5_Node000001_Node000006"><a xlink:title=" ">
<path fill="none" stroke="#63b8ff" d="M166.25,-169.33C180.09,-167.71 194.51,-166.01 208.49,-164.37"/>
<polygon fill="#63b8ff" stroke="#63b8ff" points="208.57,-167.89 218.09,-163.24 207.75,-160.93 208.57,-167.89"/>
</a>
</g>
</g>
<!-- Node7 -->
<g id="Node000007" class="node">
<title>Node7</title>
<g id="a_Node000007"><a xlink:href="../../da/d83/classcom_1_1bank_1_1model_1_1accounts_1_1_account.html#abd3a8790eb24586225bf658df9304f05" target="_top" xlink:title=" ">
<polygon fill="white" stroke="#666666" points="364.62,-120 230.88,-120 230.88,-88 364.62,-88 364.62,-120"/>
<text xml:space="preserve" text-anchor="start" x="238.88" y="-106.5" font-family="Helvetica,sans-Serif" font-size="10.00">com.bank.model.accounts.</text>
<text xml:space="preserve" text-anchor="middle" x="297.75" y="-94.5" font-family="Helvetica,sans-Serif" font-size="10.00">Account.getInterestRate</text>
</a>
</g>
</g>
<!-- Node1&#45;&gt;Node7 -->
<g id="edge7_Node000001_Node000007" class="edge">
<title>Node1&#45;&gt;Node7</title>
<g id="a_edge7_Node000001_Node000007"><a xlink:title=" ">
<path fill="none" stroke="#63b8ff" d="M132.48,-156.61C153.57,-147.36 178.74,-136.95 202,-129 207.68,-127.06 213.6,-125.17 219.58,-123.37"/>
<polygon fill="#63b8ff" stroke="#63b8ff" points="220.31,-126.81 228.93,-120.64 218.35,-120.09 220.31,-126.81"/>
</a>
</g>
</g>
<!-- Node8 -->
<g id="Node000008" class="node">
<title>Node8</title>
<g id="a_Node000008"><a xlink:href="../../da/d83/classcom_1_1bank_1_1model_1_1accounts_1_1_account.html#a2fa464e8efa1047ae0452e57c2bbfc57" target="_top" xlink:title=" ">
<polygon fill="white" stroke="#666666" points="364.62,-70 230.88,-70 230.88,-38 364.62,-38 364.62,-70"/>
<text xml:space="preserve" text-anchor="start" x="238.88" y="-56.5" font-family="Helvetica,sans-Serif" font-size="10.00">com.bank.model.accounts.</text>
<text xml:space="preserve" text-anchor="middle" x="297.75" y="-44.5" font-family="Helvetica,sans-Serif" font-size="10.00">Account.getOwner</text>
</a>
</g>
</g>
<!-- Node1&#45;&gt;Node8 -->
<g id="edge8_Node000001_Node000008" class="edge">
<title>Node1&#45;&gt;Node8</title>
<g id="a_edge8_Node000001_Node000008"><a xlink:title=" ">
<path fill="none" stroke="#63b8ff" d="M104.44,-156.59C126.42,-133.81 163.42,-99.11 202,-79 207.7,-76.03 213.79,-73.39 220.01,-71.05"/>
<polygon fill="#63b8ff" stroke="#63b8ff" points="220.86,-74.46 229.16,-67.88 218.57,-67.85 220.86,-74.46"/>
</a>
</g>
</g>
<!-- Node9 -->
<g id="Node000009" class="node">
<title>Node9</title>
<g id="a_Node000009"><a xlink:href="../../dd/d5f/classcom_1_1bank_1_1model_1_1users_1_1_customer.html#a5bf723beb2c45823230bf1db33e927ef" target="_top" xlink:title="Returns the VAT (ΑΦΜ) of the customer.">
<polygon fill="white" stroke="#666666" points="393.5,-20 202,-20 202,0 393.5,0 393.5,-20"/>
<text xml:space="preserve" text-anchor="middle" x="297.75" y="-6.5" font-family="Helvetica,sans-Serif" font-size="10.00">com.bank.model.users.Customer.getVat</text>
</a>
</g>
</g>
<!-- Node1&#45;&gt;Node9 -->
<g id="edge9_Node000001_Node000009" class="edge">
<title>Node1&#45;&gt;Node9</title>
<g id="a_edge9_Node000001_Node000009"><a xlink:title=" ">
<path fill="none" stroke="#63b8ff" d="M95,-156.56C112.66,-123.07 150.62,-60.57 202,-29 204.44,-27.5 206.97,-26.12 209.58,-24.84"/>
<polygon fill="#63b8ff" stroke="#63b8ff" points="210.72,-28.16 218.55,-21.02 207.98,-21.72 210.72,-28.16"/>
</a>
</g>
</g>
<!-- Node2&#45;&gt;Node3 -->
<g id="edge2_Node000002_Node000003" class="edge">
<title>Node2&#45;&gt;Node3</title>
<g id="a_edge2_Node000002_Node000003"><a xlink:title=" ">
<path fill="none" stroke="#63b8ff" d="M367.24,-334.34C383.54,-332.51 401.05,-330.55 417.73,-328.69"/>
<polygon fill="#63b8ff" stroke="#63b8ff" points="418.06,-332.17 427.61,-327.58 417.28,-325.22 418.06,-332.17"/>
</a>
</g>
</g>
</g>
</svg>
