<?xml version="1.0" encoding="UTF-8" standalone="no"?>
<!DOCTYPE svg PUBLIC "-//W3C//DTD SVG 1.1//EN"
 "http://www.w3.org/Graphics/SVG/1.1/DTD/svg11.dtd">
<!-- Generated by graphviz version 14.0.1 (20251006.0113)
 -->
<!-- Title: com.bank.gui.view.panel.CompanyIssuedBillsPanel Pages: 1 -->
<svg width="147pt" height="160pt"
 viewBox="0.00 0.00 147.00 160.00" xmlns="http://www.w3.org/2000/svg" xmlns:xlink="http://www.w3.org/1999/xlink">
<g id="graph0" class="graph" transform="scale(1 1) rotate(0) translate(4 156)">
<title>com.bank.gui.view.panel.CompanyIssuedBillsPanel</title>
<!-- Node1 -->
<g id="Node000001" class="node">
<title>Node1</title>
<g id="a_Node000001"><a xlink:title="Προβολή όλων των λογαριασμών (bills) που έχει εκδώσει μία εταιρεία.">
<polygon fill="#999999" stroke="none" points="138.75,-64 0,-64 0,0 138.75,0 138.75,-64"/>
<text xml:space="preserve" text-anchor="start" x="12" y="-50.5" font-family="Helvetica,sans-Serif" font-size="10.00">com.bank.gui.view.panel.</text>
<text xml:space="preserve" text-anchor="start" x="12" y="-38.5" font-family="Helvetica,sans-Serif" font-size="10.00">CompanyIssuedBillsPanel</text>
<text xml:space="preserve" text-anchor="start" x="67.88" y="-22.5" font-family="Helvetica,sans-Serif" font-size="10.00"> </text>
<text xml:space="preserve" text-anchor="start" x="4" y="-6.5" font-family="Helvetica,sans-Serif" font-size="10.00">+</text>
<text xml:space="preserve" text-anchor="start" x="14" y="-6.5" font-family="Helvetica,sans-Serif" font-size="10.00">CompanyIssuedBillsPanel()</text>
<polygon fill="#666666" stroke="#666666" points="0,-34 0,-34 138.75,-34 138.75,-34 0,-34"/>
<polygon fill="#666666" stroke="#666666" points="0,-18 0,-18 138.75,-18 138.75,-18 0,-18"/>
<polygon fill="none" stroke="#666666" points="0,0 0,-64 138.75,-64 138.75,0 0,0"/>
</a>
</g>
</g>
<!-- Node2 -->
<g id="Node000002" class="node">
<title>Node2</title>
<g id="a_Node000002"><a xlink:title=" ">
<polygon fill="white" stroke="none" points="88.38,-152 50.38,-152 50.38,-100 88.38,-100 88.38,-152"/>
<text xml:space="preserve" text-anchor="start" x="54.38" y="-138.5" font-family="Helvetica,sans-Serif" font-size="10.00">JPanel</text>
<text xml:space="preserve" text-anchor="start" x="67.88" y="-122.5" font-family="Helvetica,sans-Serif" font-size="10.00"> </text>
<text xml:space="preserve" text-anchor="start" x="67.88" y="-106.5" font-family="Helvetica,sans-Serif" font-size="10.00"> </text>
<polygon fill="#666666" stroke="#666666" points="50.38,-134 50.38,-134 88.38,-134 88.38,-134 50.38,-134"/>
<polygon fill="#666666" stroke="#666666" points="50.38,-118 50.38,-118 88.38,-118 88.38,-118 50.38,-118"/>
<polygon fill="none" stroke="#666666" points="50.38,-100 50.38,-152 88.38,-152 88.38,-100 50.38,-100"/>
</a>
</g>
</g>
<!-- Node2&#45;&gt;Node1 -->
<g id="edge1_Node000001_Node000002" class="edge">
<title>Node2&#45;&gt;Node1</title>
<g id="a_edge1_Node000001_Node000002"><a xlink:title=" ">
<path fill="none" stroke="#63b8ff" d="M69.38,-89.06C69.38,-80.78 69.38,-72.04 69.38,-63.98"/>
<polygon fill="none" stroke="#63b8ff" points="65.88,-88.83 69.38,-98.83 72.88,-88.83 65.88,-88.83"/>
</a>
</g>
</g>
</g>
</svg>
