<?xml version="1.0" encoding="UTF-8" standalone="no"?>
<!DOCTYPE svg PUBLIC "-//W3C//DTD SVG 1.1//EN"
 "http://www.w3.org/Graphics/SVG/1.1/DTD/svg11.dtd">
<!-- Generated by graphviz version 14.0.1 (20251006.0113)
 -->
<!-- Title: com.bank.gui.view.panel.AdminAccountStatementsPanel.AdminAccountStatementsPanel Pages: 1 -->
<svg width="528pt" height="140pt"
 viewBox="0.00 0.00 528.00 140.00" xmlns="http://www.w3.org/2000/svg" xmlns:xlink="http://www.w3.org/1999/xlink">
<g id="graph0" class="graph" transform="scale(1 1) rotate(0) translate(4 136)">
<title>com.bank.gui.view.panel.AdminAccountStatementsPanel.AdminAccountStatementsPanel</title>
<!-- Node1 -->
<g id="Node000001" class="node">
<title>Node1</title>
<g id="a_Node000001"><a xlink:title="Δημιουργεί το panel προβολής κινήσεων λογαριασμού.">
<polygon fill="#999999" stroke="#666666" points="157.75,-88 0,-88 0,-44 157.75,-44 157.75,-88"/>
<text xml:space="preserve" text-anchor="start" x="8" y="-74.5" font-family="Helvetica,sans-Serif" font-size="10.00">com.bank.gui.view.panel.</text>
<text xml:space="preserve" text-anchor="start" x="8" y="-62.5" font-family="Helvetica,sans-Serif" font-size="10.00">AdminAccountStatementsPanel.</text>
<text xml:space="preserve" text-anchor="middle" x="78.88" y="-50.5" font-family="Helvetica,sans-Serif" font-size="10.00">AdminAccountStatementsPanel</text>
</a>
</g>
</g>
<!-- Node2 -->
<g id="Node000002" class="node">
<title>Node2</title>
<g id="a_Node000002"><a xlink:href="../../dd/db1/classcom_1_1bank_1_1manager_1_1_account_manager.html#a8a3ebf20f49b1718127736507683d480" target="_top" xlink:title="Finds an account by IBAN.">
<polygon fill="white" stroke="#666666" points="336.5,-132 198.25,-132 198.25,-100 336.5,-100 336.5,-132"/>
<text xml:space="preserve" text-anchor="start" x="206.25" y="-118.5" font-family="Helvetica,sans-Serif" font-size="10.00">com.bank.manager.Account</text>
<text xml:space="preserve" text-anchor="middle" x="267.38" y="-106.5" font-family="Helvetica,sans-Serif" font-size="10.00">Manager.findByIban</text>
</a>
</g>
</g>
<!-- Node1&#45;&gt;Node2 -->
<g id="edge1_Node000001_Node000002" class="edge">
<title>Node1&#45;&gt;Node2</title>
<g id="a_edge1_Node000001_Node000002"><a xlink:title=" ">
<path fill="none" stroke="#63b8ff" d="M158.16,-86.99C170.02,-90.17 182.21,-93.44 193.94,-96.58"/>
<polygon fill="#63b8ff" stroke="#63b8ff" points="192.99,-99.95 203.55,-99.16 194.8,-93.19 192.99,-99.95"/>
</a>
</g>
</g>
<!-- Node4 -->
<g id="Node000004" class="node">
<title>Node4</title>
<g id="a_Node000004"><a xlink:href="../../dd/db1/classcom_1_1bank_1_1manager_1_1_account_manager.html#a9cfb69758fe6d4532cba2d754cca7af2" target="_top" xlink:title="Returns all loaded accounts.">
<polygon fill="white" stroke="#666666" points="336.5,-82 198.25,-82 198.25,-50 336.5,-50 336.5,-82"/>
<text xml:space="preserve" text-anchor="start" x="206.25" y="-68.5" font-family="Helvetica,sans-Serif" font-size="10.00">com.bank.manager.Account</text>
<text xml:space="preserve" text-anchor="middle" x="267.38" y="-56.5" font-family="Helvetica,sans-Serif" font-size="10.00">Manager.getAllAccounts</text>
</a>
</g>
</g>
<!-- Node1&#45;&gt;Node4 -->
<g id="edge3_Node000001_Node000004" class="edge">
<title>Node1&#45;&gt;Node4</title>
<g id="a_edge3_Node000001_Node000004"><a xlink:title=" ">
<path fill="none" stroke="#63b8ff" d="M158.16,-66C167.51,-66 177.07,-66 186.45,-66"/>
<polygon fill="#63b8ff" stroke="#63b8ff" points="186.26,-69.5 196.26,-66 186.26,-62.5 186.26,-69.5"/>
</a>
</g>
</g>
<!-- Node5 -->
<g id="Node000005" class="node">
<title>Node5</title>
<g id="a_Node000005"><a xlink:href="../../d9/dd7/classcom_1_1bank_1_1manager_1_1_statement_manager.html#a26e1d7788e4c26ead0ce932e8e23ae27" target="_top" xlink:title="Loads all statement entries for a given account.">
<polygon fill="white" stroke="#666666" points="341,-32 193.75,-32 193.75,0 341,0 341,-32"/>
<text xml:space="preserve" text-anchor="start" x="201.75" y="-18.5" font-family="Helvetica,sans-Serif" font-size="10.00">com.bank.manager.Statement</text>
<text xml:space="preserve" text-anchor="middle" x="267.38" y="-6.5" font-family="Helvetica,sans-Serif" font-size="10.00">Manager.load</text>
</a>
</g>
</g>
<!-- Node1&#45;&gt;Node5 -->
<g id="edge4_Node000001_Node000005" class="edge">
<title>Node1&#45;&gt;Node5</title>
<g id="a_edge4_Node000001_Node000005"><a xlink:title=" ">
<path fill="none" stroke="#63b8ff" d="M158.16,-45.01C170.02,-41.83 182.21,-38.56 193.94,-35.42"/>
<polygon fill="#63b8ff" stroke="#63b8ff" points="194.8,-38.81 203.55,-32.84 192.99,-32.05 194.8,-38.81"/>
</a>
</g>
</g>
<!-- Node3 -->
<g id="Node000003" class="node">
<title>Node3</title>
<g id="a_Node000003"><a xlink:href="../../da/d83/classcom_1_1bank_1_1model_1_1accounts_1_1_account.html#a38981f8e6e13e82b7135c3b57bd2bba0" target="_top" xlink:title=" ">
<polygon fill="white" stroke="#666666" points="515.25,-107 381.5,-107 381.5,-75 515.25,-75 515.25,-107"/>
<text xml:space="preserve" text-anchor="start" x="389.5" y="-93.5" font-family="Helvetica,sans-Serif" font-size="10.00">com.bank.model.accounts.</text>
<text xml:space="preserve" text-anchor="middle" x="448.38" y="-81.5" font-family="Helvetica,sans-Serif" font-size="10.00">Account.getIban</text>
</a>
</g>
</g>
<!-- Node2&#45;&gt;Node3 -->
<g id="edge2_Node000002_Node000003" class="edge">
<title>Node2&#45;&gt;Node3</title>
<g id="a_edge2_Node000002_Node000003"><a xlink:title=" ">
<path fill="none" stroke="#63b8ff" d="M336.81,-106.44C347.58,-104.94 358.78,-103.37 369.74,-101.84"/>
<polygon fill="#63b8ff" stroke="#63b8ff" points="370.12,-105.32 379.54,-100.47 369.15,-98.39 370.12,-105.32"/>
</a>
</g>
</g>
<!-- Node5&#45;&gt;Node3 -->
<g id="edge5_Node000005_Node000003" class="edge">
<title>Node5&#45;&gt;Node3</title>
<g id="a_edge5_Node000005_Node000003"><a xlink:title=" ">
<path fill="none" stroke="#63b8ff" d="M318.25,-32.37C325.92,-35.12 333.71,-38.04 341,-41 362.22,-49.61 385.28,-60.28 404.48,-69.55"/>
<polygon fill="#63b8ff" stroke="#63b8ff" points="402.84,-72.64 413.36,-73.87 405.9,-66.35 402.84,-72.64"/>
</a>
</g>
</g>
<!-- Node6 -->
<g id="Node000006" class="node">
<title>Node6</title>
<g id="a_Node000006"><a xlink:href="../../d2/d71/classcom_1_1bank_1_1model_1_1statements_1_1_statement_entry.html#a3d487ca54c16c2c07ec6ec186389c070" target="_top" xlink:title="Populates this entry from a serialized CSV line.">
<polygon fill="white" stroke="#666666" points="519.75,-32 377,-32 377,0 519.75,0 519.75,-32"/>
<text xml:space="preserve" text-anchor="start" x="385" y="-18.5" font-family="Helvetica,sans-Serif" font-size="10.00">com.bank.model.statements.</text>
<text xml:space="preserve" text-anchor="middle" x="448.38" y="-6.5" font-family="Helvetica,sans-Serif" font-size="10.00">StatementEntry.unmarshal</text>
</a>
</g>
</g>
<!-- Node5&#45;&gt;Node6 -->
<g id="edge6_Node000005_Node000006" class="edge">
<title>Node5&#45;&gt;Node6</title>
<g id="a_edge6_Node000005_Node000006"><a xlink:title=" ">
<path fill="none" stroke="#63b8ff" d="M341.44,-16C349.23,-16 357.2,-16 365.09,-16"/>
<polygon fill="#63b8ff" stroke="#63b8ff" points="365.06,-19.5 375.06,-16 365.06,-12.5 365.06,-19.5"/>
</a>
</g>
</g>
</g>
</svg>
