<?xml version="1.0" encoding="UTF-8" standalone="no"?>
<!DOCTYPE svg PUBLIC "-//W3C//DTD SVG 1.1//EN"
 "http://www.w3.org/Graphics/SVG/1.1/DTD/svg11.dtd">
<!-- Generated by graphviz version 14.0.1 (20251006.0113)
 -->
<!-- Title: com.bank.model.accounts.PersonalAccount Pages: 1 -->
<!--zoomable 969 -->

<svg id="main" version="1.1" xmlns="http://www.w3.org/2000/svg" xmlns:xlink="http://www.w3.org/1999/xlink" xml:space="preserve" onload="init(evt)">

<style type="text/css"><![CDATA[
.node, .edge {opacity: 0.7;}
.node.selected, .edge.selected {opacity: 1;}
.edge:hover path { stroke: red; }
.edge:hover polygon { stroke: red; fill: red; }
]]></style>

<defs>
  <circle id="rim" cx="0" cy="0" r="7"/>
  <circle id="rim2" cx="0" cy="0" r="3.5"/>
  <g id="zoomPlus">
    <use xlink:href="#rim" fill="#404040"><set attributeName="fill" to="#808080" begin="zoomplus.mouseover" end="zoomplus.mouseout"/></use>
    <path d="M-4,0h8M0,-4v8" fill="none" stroke="white" stroke-width="1.5" pointer-events="none"/>
  </g>
  <g id="zoomMin">
    <use xlink:href="#rim" fill="#404040"><set attributeName="fill" to="#808080" begin="zoomminus.mouseover" end="zoomminus.mouseout"/></use>
    <path d="M-4,0h8" fill="none" stroke="white" stroke-width="1.5" pointer-events="none"/>
  </g>
  <g id="arrowUp" transform="translate(30 24)">
    <use xlink:href="#rim"/>
    <path pointer-events="none" fill="none" stroke="white" stroke-width="1.5" d="M0,-3.0v7 M-2.5,-0.5L0,-3.0L2.5,-0.5"/>
  </g>
  <g id="arrowRight" transform="rotate(90) translate(36 -43)">
    <use xlink:href="#rim"/>
    <path pointer-events="none" fill="none" stroke="white" stroke-width="1.5" d="M0,-3.0v7 M-2.5,-0.5L0,-3.0L2.5,-0.5"/>
  </g>
  <g id="arrowDown" transform="rotate(180) translate(-30 -48)">
    <use xlink:href="#rim"/>
    <path pointer-events="none" fill="none" stroke="white" stroke-width="1.5" d="M0,-3.0v7 M-2.5,-0.5L0,-3.0L2.5,-0.5"/>
  </g>
  <g id="arrowLeft" transform="rotate(270) translate(-36 17)">
    <use xlink:href="#rim"/>
    <path pointer-events="none" fill="none" stroke="white" stroke-width="1.5" d="M0,-3.0v7 M-2.5,-0.5L0,-3.0L2.5,-0.5"/>
  </g>
  <g id="resetDef">
    <use xlink:href="#rim2" fill="#404040"><set attributeName="fill" to="#808080" begin="reset.mouseover" end="reset.mouseout"/></use>
  </g>
</defs>
<script type="application/ecmascript">
var viewWidth = 239;
var viewHeight = 969;
var sectionId = 'dynsection-1';
</script>
<script type="application/ecmascript" xlink:href="../../svg.min.js"/>
<svg id="graph" class="graph">
<g id="viewport">
<title>com.bank.model.accounts.PersonalAccount</title>
<!-- Node1 -->
<g id="Node000001" class="node">
<title>Node1</title>
<g id="a_Node000001"><a xlink:title="Represents a personal bank account that can have multiple co&#45;owners.">
<polygon fill="#999999" stroke="none" points="129.38,-160 3.62,-160 3.62,0 129.38,0 129.38,-160"/>
<text xml:space="preserve" text-anchor="start" x="7.62" y="-146.5" font-family="Helvetica,sans-Serif" font-size="10.00">com.bank.model.accounts.</text>
<text xml:space="preserve" text-anchor="start" x="29.38" y="-134.5" font-family="Helvetica,sans-Serif" font-size="10.00">PersonalAccount</text>
<text xml:space="preserve" text-anchor="start" x="65" y="-118.5" font-family="Helvetica,sans-Serif" font-size="10.00"> </text>
<text xml:space="preserve" text-anchor="start" x="9.62" y="-102.5" font-family="Helvetica,sans-Serif" font-size="10.00">+</text>
<text xml:space="preserve" text-anchor="start" x="21.62" y="-102.5" font-family="Helvetica,sans-Serif" font-size="10.00">PersonalAccount()</text>
<text xml:space="preserve" text-anchor="start" x="9.62" y="-86.5" font-family="Helvetica,sans-Serif" font-size="10.00">+</text>
<text xml:space="preserve" text-anchor="start" x="21.62" y="-86.5" font-family="Helvetica,sans-Serif" font-size="10.00">addCoOwner()</text>
<text xml:space="preserve" text-anchor="start" x="9.62" y="-70.5" font-family="Helvetica,sans-Serif" font-size="10.00">+</text>
<text xml:space="preserve" text-anchor="start" x="21.62" y="-70.5" font-family="Helvetica,sans-Serif" font-size="10.00">getCoOwners()</text>
<text xml:space="preserve" text-anchor="start" x="9.62" y="-54.5" font-family="Helvetica,sans-Serif" font-size="10.00">+</text>
<text xml:space="preserve" text-anchor="start" x="21.62" y="-54.5" font-family="Helvetica,sans-Serif" font-size="10.00">getCoOwnerVats()</text>
<text xml:space="preserve" text-anchor="start" x="9.62" y="-38.5" font-family="Helvetica,sans-Serif" font-size="10.00">+</text>
<text xml:space="preserve" text-anchor="start" x="21.62" y="-38.5" font-family="Helvetica,sans-Serif" font-size="10.00">getAccountTypeCode()</text>
<text xml:space="preserve" text-anchor="start" x="9.62" y="-22.5" font-family="Helvetica,sans-Serif" font-size="10.00">+</text>
<text xml:space="preserve" text-anchor="start" x="21.62" y="-22.5" font-family="Helvetica,sans-Serif" font-size="10.00">marshal()</text>
<text xml:space="preserve" text-anchor="start" x="9.62" y="-6.5" font-family="Helvetica,sans-Serif" font-size="10.00">+</text>
<text xml:space="preserve" text-anchor="start" x="21.62" y="-6.5" font-family="Helvetica,sans-Serif" font-size="10.00">unmarshal()</text>
<polygon fill="#666666" stroke="#666666" points="3.62,-130 3.62,-130 129.38,-130 129.38,-130 3.62,-130"/>
<polygon fill="#666666" stroke="#666666" points="3.62,-114 3.62,-114 129.38,-114 129.38,-114 3.62,-114"/>
<polygon fill="none" stroke="#666666" points="3.62,0 3.62,-160 129.38,-160 129.38,0 3.62,0"/>
</a>
</g>
</g>
<!-- Node2 -->
<g id="Node000002" class="node">
<title>Node2</title>
<g id="a_Node000002"><a xlink:href="../../da/d83/classcom_1_1bank_1_1model_1_1accounts_1_1_account.html" target="_top" xlink:title="Abstract base class for bank accounts.">
<polygon fill="white" stroke="none" points="129.38,-533 3.62,-533 3.62,-197 129.38,-197 129.38,-533"/>
<text xml:space="preserve" text-anchor="start" x="7.62" y="-519.5" font-family="Helvetica,sans-Serif" font-size="10.00">com.bank.model.accounts.</text>
<text xml:space="preserve" text-anchor="start" x="48.5" y="-507.5" font-family="Helvetica,sans-Serif" font-size="10.00">Account</text>
<text xml:space="preserve" text-anchor="start" x="10" y="-491.5" font-family="Helvetica,sans-Serif" font-size="10.00">#</text>
<text xml:space="preserve" text-anchor="start" x="21.62" y="-491.5" font-family="Helvetica,sans-Serif" font-size="10.00">iban</text>
<text xml:space="preserve" text-anchor="start" x="10" y="-475.5" font-family="Helvetica,sans-Serif" font-size="10.00">#</text>
<text xml:space="preserve" text-anchor="start" x="21.62" y="-475.5" font-family="Helvetica,sans-Serif" font-size="10.00">balance</text>
<text xml:space="preserve" text-anchor="start" x="10" y="-459.5" font-family="Helvetica,sans-Serif" font-size="10.00">#</text>
<text xml:space="preserve" text-anchor="start" x="21.62" y="-459.5" font-family="Helvetica,sans-Serif" font-size="10.00">interestRate</text>
<text xml:space="preserve" text-anchor="start" x="10" y="-443.5" font-family="Helvetica,sans-Serif" font-size="10.00">#</text>
<text xml:space="preserve" text-anchor="start" x="21.62" y="-443.5" font-family="Helvetica,sans-Serif" font-size="10.00">dateCreated</text>
<text xml:space="preserve" text-anchor="start" x="9.62" y="-427.5" font-family="Helvetica,sans-Serif" font-size="10.00">+</text>
<text xml:space="preserve" text-anchor="start" x="21.62" y="-427.5" font-family="Helvetica,sans-Serif" font-size="10.00">Account()</text>
<text xml:space="preserve" text-anchor="start" x="9.62" y="-411.5" font-family="Helvetica,sans-Serif" font-size="10.00">+</text>
<text xml:space="preserve" text-anchor="start" x="21.62" y="-411.5" font-family="Helvetica,sans-Serif" font-size="10.00">getIban()</text>
<text xml:space="preserve" text-anchor="start" x="9.62" y="-395.5" font-family="Helvetica,sans-Serif" font-size="10.00">+</text>
<text xml:space="preserve" text-anchor="start" x="21.62" y="-395.5" font-family="Helvetica,sans-Serif" font-size="10.00">setIban()</text>
<text xml:space="preserve" text-anchor="start" x="9.62" y="-379.5" font-family="Helvetica,sans-Serif" font-size="10.00">+</text>
<text xml:space="preserve" text-anchor="start" x="21.62" y="-379.5" font-family="Helvetica,sans-Serif" font-size="10.00">getOwner()</text>
<text xml:space="preserve" text-anchor="start" x="9.62" y="-363.5" font-family="Helvetica,sans-Serif" font-size="10.00">+</text>
<text xml:space="preserve" text-anchor="start" x="21.62" y="-363.5" font-family="Helvetica,sans-Serif" font-size="10.00">getBalance()</text>
<text xml:space="preserve" text-anchor="start" x="9.62" y="-347.5" font-family="Helvetica,sans-Serif" font-size="10.00">+</text>
<text xml:space="preserve" text-anchor="start" x="21.62" y="-347.5" font-family="Helvetica,sans-Serif" font-size="10.00">getInterestRate()</text>
<text xml:space="preserve" text-anchor="start" x="9.62" y="-331.5" font-family="Helvetica,sans-Serif" font-size="10.00">+</text>
<text xml:space="preserve" text-anchor="start" x="21.62" y="-331.5" font-family="Helvetica,sans-Serif" font-size="10.00">deposit()</text>
<text xml:space="preserve" text-anchor="start" x="9.62" y="-315.5" font-family="Helvetica,sans-Serif" font-size="10.00">+</text>
<text xml:space="preserve" text-anchor="start" x="21.62" y="-315.5" font-family="Helvetica,sans-Serif" font-size="10.00">withdraw()</text>
<text xml:space="preserve" text-anchor="start" x="9.62" y="-299.5" font-family="Helvetica,sans-Serif" font-size="10.00">+</text>
<text xml:space="preserve" text-anchor="start" x="21.62" y="-299.5" font-family="Helvetica,sans-Serif" font-size="10.00">setBalance()</text>
<text xml:space="preserve" text-anchor="start" x="9.62" y="-283.5" font-family="Helvetica,sans-Serif" font-size="10.00">+</text>
<text xml:space="preserve" text-anchor="start" x="21.62" y="-283.5" font-family="Helvetica,sans-Serif" font-size="10.00">getDateCreated()</text>
<text xml:space="preserve" text-anchor="start" x="9.62" y="-267.5" font-family="Helvetica,sans-Serif" font-size="10.00">+</text>
<text xml:space="preserve" text-anchor="start" x="21.62" y="-267.5" font-family="Helvetica,sans-Serif" font-size="10.00">setDateCreated()</text>
<text xml:space="preserve" text-anchor="start" x="9.62" y="-251.5" font-family="Helvetica,sans-Serif" font-size="10.00">+</text>
<text xml:space="preserve" text-anchor="start" x="21.62" y="-251.5" font-family="Helvetica,sans-Serif" font-size="10.00">getAccountTypeCode()</text>
<text xml:space="preserve" text-anchor="start" x="9.62" y="-235.5" font-family="Helvetica,sans-Serif" font-size="10.00">+</text>
<text xml:space="preserve" text-anchor="start" x="21.62" y="-235.5" font-family="Helvetica,sans-Serif" font-size="10.00">marshal()</text>
<text xml:space="preserve" text-anchor="start" x="9.62" y="-219.5" font-family="Helvetica,sans-Serif" font-size="10.00">+</text>
<text xml:space="preserve" text-anchor="start" x="21.62" y="-219.5" font-family="Helvetica,sans-Serif" font-size="10.00">unmarshal()</text>
<text xml:space="preserve" text-anchor="start" x="9.62" y="-203.5" font-family="Helvetica,sans-Serif" font-size="10.00">+</text>
<text xml:space="preserve" text-anchor="start" x="21.62" y="-203.5" font-family="Helvetica,sans-Serif" font-size="10.00">generateIBAN()</text>
<polygon fill="#666666" stroke="#666666" points="3.62,-503 3.62,-503 129.38,-503 129.38,-503 3.62,-503"/>
<polygon fill="#666666" stroke="#666666" points="3.62,-439 3.62,-439 19.62,-439 19.62,-439 3.62,-439"/>
<polygon fill="#666666" stroke="#666666" points="19.62,-439 19.62,-439 129.38,-439 129.38,-439 19.62,-439"/>
<polygon fill="none" stroke="#666666" points="3.62,-197 3.62,-533 129.38,-533 129.38,-197 3.62,-197"/>
</a>
</g>
</g>
<!-- Node2&#45;&gt;Node1 -->
<g id="edge1_Node000001_Node000002" class="edge">
<title>Node2&#45;&gt;Node1</title>
<g id="a_edge1_Node000001_Node000002"><a xlink:title=" ">
<path fill="none" stroke="#63b8ff" d="M66.5,-185.88C66.5,-176.92 66.5,-168.16 66.5,-159.78"/>
<polygon fill="none" stroke="#63b8ff" points="63,-185.82 66.5,-195.82 70,-185.82 63,-185.82"/>
</a>
</g>
</g>
<!-- Node3 -->
<g id="Node000003" class="node">
<title>Node3</title>
<g id="a_Node000003"><a xlink:href="../../dd/d8c/interfacecom_1_1bank_1_1storage_1_1_storable.html" target="_top" xlink:title="Defines the serialization and deserialization behavior for persistent objects.">
<polygon fill="white" stroke="none" points="125,-961 0,-961 0,-893 125,-893 125,-961"/>
<text xml:space="preserve" text-anchor="start" x="4" y="-947.5" font-family="Helvetica,sans-Serif" font-size="10.00">com.bank.storage.Storable</text>
<text xml:space="preserve" text-anchor="start" x="61" y="-931.5" font-family="Helvetica,sans-Serif" font-size="10.00"> </text>
<text xml:space="preserve" text-anchor="start" x="18" y="-915.5" font-family="Helvetica,sans-Serif" font-size="10.00">+</text>
<text xml:space="preserve" text-anchor="start" x="42" y="-915.5" font-family="Helvetica,sans-Serif" font-size="10.00">marshal()</text>
<text xml:space="preserve" text-anchor="start" x="18" y="-899.5" font-family="Helvetica,sans-Serif" font-size="10.00">+</text>
<text xml:space="preserve" text-anchor="start" x="42" y="-899.5" font-family="Helvetica,sans-Serif" font-size="10.00">unmarshal()</text>
<polygon fill="#666666" stroke="#666666" points="0,-943 0,-943 125,-943 125,-943 0,-943"/>
<polygon fill="#666666" stroke="#666666" points="0,-927 0,-927 125,-927 125,-927 0,-927"/>
<polygon fill="none" stroke="#666666" points="0,-893 0,-961 125,-961 125,-893 0,-893"/>
</a>
</g>
</g>
<!-- Node3&#45;&gt;Node2 -->
<g id="edge2_Node000002_Node000003" class="edge">
<title>Node3&#45;&gt;Node2</title>
<g id="a_edge2_Node000002_Node000003"><a xlink:title=" ">
<path fill="none" stroke="#63b8ff" d="M62.82,-881.81C63.35,-807.37 64.45,-653.3 65.31,-532.83"/>
<polygon fill="none" stroke="#63b8ff" points="59.32,-881.52 62.75,-891.55 66.32,-881.57 59.32,-881.52"/>
</a>
</g>
</g>
<!-- Node5 -->
<g id="Node000005" class="node">
<title>Node5</title>
<g id="a_Node000005"><a xlink:href="../../dd/dee/classcom_1_1bank_1_1model_1_1users_1_1_user.html" target="_top" xlink:title="Abstract base class for all user types in the banking system.">
<polygon fill="white" stroke="none" points="215,-856 84,-856 84,-692 215,-692 215,-856"/>
<text xml:space="preserve" text-anchor="start" x="88" y="-842.5" font-family="Helvetica,sans-Serif" font-size="10.00">com.bank.model.users.User</text>
<text xml:space="preserve" text-anchor="start" x="97.69" y="-826.5" font-family="Helvetica,sans-Serif" font-size="10.00">#</text>
<text xml:space="preserve" text-anchor="start" x="116.62" y="-826.5" font-family="Helvetica,sans-Serif" font-size="10.00">username</text>
<text xml:space="preserve" text-anchor="start" x="97.69" y="-810.5" font-family="Helvetica,sans-Serif" font-size="10.00">#</text>
<text xml:space="preserve" text-anchor="start" x="116.62" y="-810.5" font-family="Helvetica,sans-Serif" font-size="10.00">password</text>
<text xml:space="preserve" text-anchor="start" x="97.69" y="-794.5" font-family="Helvetica,sans-Serif" font-size="10.00">#</text>
<text xml:space="preserve" text-anchor="start" x="116.62" y="-794.5" font-family="Helvetica,sans-Serif" font-size="10.00">fullName</text>
<text xml:space="preserve" text-anchor="start" x="97.31" y="-778.5" font-family="Helvetica,sans-Serif" font-size="10.00">+</text>
<text xml:space="preserve" text-anchor="start" x="116.62" y="-778.5" font-family="Helvetica,sans-Serif" font-size="10.00">User()</text>
<text xml:space="preserve" text-anchor="start" x="97.31" y="-762.5" font-family="Helvetica,sans-Serif" font-size="10.00">+</text>
<text xml:space="preserve" text-anchor="start" x="116.62" y="-762.5" font-family="Helvetica,sans-Serif" font-size="10.00">getRole()</text>
<text xml:space="preserve" text-anchor="start" x="97.31" y="-746.5" font-family="Helvetica,sans-Serif" font-size="10.00">+</text>
<text xml:space="preserve" text-anchor="start" x="116.62" y="-746.5" font-family="Helvetica,sans-Serif" font-size="10.00">getUsername()</text>
<text xml:space="preserve" text-anchor="start" x="97.31" y="-730.5" font-family="Helvetica,sans-Serif" font-size="10.00">+</text>
<text xml:space="preserve" text-anchor="start" x="116.62" y="-730.5" font-family="Helvetica,sans-Serif" font-size="10.00">getPassword()</text>
<text xml:space="preserve" text-anchor="start" x="97.31" y="-714.5" font-family="Helvetica,sans-Serif" font-size="10.00">+</text>
<text xml:space="preserve" text-anchor="start" x="116.62" y="-714.5" font-family="Helvetica,sans-Serif" font-size="10.00">getFullName()</text>
<text xml:space="preserve" text-anchor="start" x="97.31" y="-698.5" font-family="Helvetica,sans-Serif" font-size="10.00">+</text>
<text xml:space="preserve" text-anchor="start" x="116.62" y="-698.5" font-family="Helvetica,sans-Serif" font-size="10.00">checkPassword()</text>
<polygon fill="#666666" stroke="#666666" points="84,-838 84,-838 215,-838 215,-838 84,-838"/>
<polygon fill="#666666" stroke="#666666" points="84,-790 84,-790 114.62,-790 114.62,-790 84,-790"/>
<polygon fill="#666666" stroke="#666666" points="114.62,-790 114.62,-790 215,-790 215,-790 114.62,-790"/>
<polygon fill="none" stroke="#666666" points="84,-692 84,-856 215,-856 215,-692 84,-692"/>
</a>
</g>
</g>
<!-- Node3&#45;&gt;Node5 -->
<g id="edge5_Node000005_Node000003" class="edge">
<title>Node3&#45;&gt;Node5</title>
<g id="a_edge5_Node000005_Node000003"><a xlink:title=" ">
<path fill="none" stroke="#63b8ff" d="M87.05,-883.39C92.07,-874.68 97.5,-865.26 102.99,-855.72"/>
<polygon fill="none" stroke="#63b8ff" points="84.09,-881.51 82.13,-891.92 90.16,-885.01 84.09,-881.51"/>
</a>
</g>
</g>
<!-- Node4 -->
<g id="Node000004" class="node">
<title>Node4</title>
<g id="a_Node000004"><a xlink:href="../../dd/d5f/classcom_1_1bank_1_1model_1_1users_1_1_customer.html" target="_top" xlink:title="Abstract base class representing a general bank customer.">
<polygon fill="white" stroke="none" points="230.88,-655 78.12,-655 78.12,-587 230.88,-587 230.88,-655"/>
<text xml:space="preserve" text-anchor="start" x="82.12" y="-641.5" font-family="Helvetica,sans-Serif" font-size="10.00">com.bank.model.users.Customer</text>
<text xml:space="preserve" text-anchor="start" x="104" y="-625.5" font-family="Helvetica,sans-Serif" font-size="10.00">#</text>
<text xml:space="preserve" text-anchor="start" x="135.12" y="-625.5" font-family="Helvetica,sans-Serif" font-size="10.00">vat</text>
<text xml:space="preserve" text-anchor="start" x="103.62" y="-609.5" font-family="Helvetica,sans-Serif" font-size="10.00">+</text>
<text xml:space="preserve" text-anchor="start" x="135.12" y="-609.5" font-family="Helvetica,sans-Serif" font-size="10.00">Customer()</text>
<text xml:space="preserve" text-anchor="start" x="103.62" y="-593.5" font-family="Helvetica,sans-Serif" font-size="10.00">+</text>
<text xml:space="preserve" text-anchor="start" x="135.12" y="-593.5" font-family="Helvetica,sans-Serif" font-size="10.00">getVat()</text>
<polygon fill="#666666" stroke="#666666" points="78.12,-637 78.12,-637 230.88,-637 230.88,-637 78.12,-637"/>
<polygon fill="#666666" stroke="#666666" points="78.12,-621 78.12,-621 133.12,-621 133.12,-621 78.12,-621"/>
<polygon fill="#666666" stroke="#666666" points="133.12,-621 133.12,-621 230.88,-621 230.88,-621 133.12,-621"/>
<polygon fill="none" stroke="#666666" points="78.12,-587 78.12,-655 230.88,-655 230.88,-587 78.12,-587"/>
</a>
</g>
</g>
<!-- Node4&#45;&gt;Node2 -->
<g id="edge3_Node000002_Node000004" class="edge">
<title>Node4&#45;&gt;Node2</title>
<g id="a_edge3_Node000002_Node000004"><a xlink:title=" ">
<path fill="none" stroke="#63b8ff" d="M143.09,-587.05C138.97,-575.18 133.99,-560.81 128.57,-545.17"/>
<polygon fill="none" stroke="#63b8ff" points="128.57,-545.16 122.83,-540.8 124.64,-533.82 130.39,-538.18 128.57,-545.16"/>
</a>
</g>
<text xml:space="preserve" text-anchor="start" x="138.49" y="-556.5" font-family="Helvetica,sans-Serif" font-size="10.00" fill="grey">#owner</text>
</g>
<!-- Node5&#45;&gt;Node4 -->
<g id="edge4_Node000004_Node000005" class="edge">
<title>Node5&#45;&gt;Node4</title>
<g id="a_edge4_Node000004_Node000005"><a xlink:title=" ">
<path fill="none" stroke="#63b8ff" d="M152.55,-680.86C152.86,-671.67 153.15,-662.83 153.41,-654.92"/>
<polygon fill="none" stroke="#63b8ff" points="149.06,-680.57 152.23,-690.68 156.05,-680.8 149.06,-680.57"/>
</a>
</g>
</g>
</g>
</svg>

<g id="navigator" transform="translate(0 0)" fill="#404254">
  <rect fill="#f2f5e9" fill-opacity="0.5" stroke="#606060" stroke-width=".5" x="0" y="0" width="60" height="60"/>
  <use id="zoomplus" xlink:href="#zoomPlus" x="17" y="9" onmousedown="handleZoom(evt,'in')"/>
  <use id="zoomminus" xlink:href="#zoomMin" x="42" y="9" onmousedown="handleZoom(evt,'out')"/>
  <use id="reset" xlink:href="#resetDef" x="30" y="36" onmousedown="handleReset()"/>
   <use id="arrowup" xlink:href="#arrowUp" x="0" y="0" onmousedown="handlePan(0,-1)"/>
  <use id="arrowright" xlink:href="#arrowRight" x="0" y="0" onmousedown="handlePan(1,0)"/>
  <use id="arrowdown" xlink:href="#arrowDown" x="0" y="0" onmousedown="handlePan(0,1)"/>
  <use id="arrowleft" xlink:href="#arrowLeft" x="0" y="0" onmousedown="handlePan(-1,0)"/>
</g>
<svg viewBox="0 0 15 15" width="100%" height="30px" preserveAspectRatio="xMaxYMin meet">
 <g id="arrow_out" transform="scale(0.3 0.3)">
  <a xlink:href="classcom_1_1bank_1_1model_1_1accounts_1_1_personal_account__coll__graph_org.svg" target="_base">
   <rect id="button" ry="5" rx="5" y="6" x="6" height="38" width="38"
        fill="#f2f5e9" fill-opacity="0.5" stroke="#606060" stroke-width="1.0"/>
   <path id="arrow"
     d="M 11.500037,31.436501 C 11.940474,20.09759 22.043105,11.32322 32.158766,21.979434 L 37.068811,17.246167 C 37.068811,17.246167 37.088388,32 37.088388,32 L 22.160133,31.978069 C 22.160133,31.978069 26.997745,27.140456 26.997745,27.140456 C 18.528582,18.264221 13.291696,25.230495 11.500037,31.436501 z"
     style="fill:#404040;"/>
  </a>
 </g>
</svg>

<style type='text/css'>
<![CDATA[
[data-mouse-over-selected='false'] { opacity: 0.7; }
[data-mouse-over-selected='true']  { opacity: 1.0; }
]]>
</style>
<script type="application/ecmascript"><![CDATA[
document.addEventListener('DOMContentLoaded', (event) => {
  highlightEdges();
  highlightAdjacentNodes();
});
]]></script>
</svg>
