<?xml version="1.0" encoding="UTF-8" standalone="no"?>
<!DOCTYPE svg PUBLIC "-//W3C//DTD SVG 1.1//EN"
 "http://www.w3.org/Graphics/SVG/1.1/DTD/svg11.dtd">
<!-- Generated by graphviz version 14.0.1 (20251006.0113)
 -->
<!-- Title: com.bank.gui.view.panel.AdminCreateAccountPanel.AdminCreateAccountPanel Pages: 1 -->
<svg width="388pt" height="190pt"
 viewBox="0.00 0.00 388.00 190.00" xmlns="http://www.w3.org/2000/svg" xmlns:xlink="http://www.w3.org/1999/xlink">
<g id="graph0" class="graph" transform="scale(1 1) rotate(0) translate(4 186)">
<title>com.bank.gui.view.panel.AdminCreateAccountPanel.AdminCreateAccountPanel</title>
<!-- Node1 -->
<g id="Node000001" class="node">
<title>Node1</title>
<g id="a_Node000001"><a xlink:title="Δημιουργεί το GUI panel για την εγγραφή νέου λογαριασμού.">
<polygon fill="#999999" stroke="#666666" points="164.5,-113 0,-113 0,-69 164.5,-69 164.5,-113"/>
<text xml:space="preserve" text-anchor="start" x="8" y="-99.5" font-family="Helvetica,sans-Serif" font-size="10.00">com.bank.gui.view.panel.</text>
<text xml:space="preserve" text-anchor="start" x="8" y="-87.5" font-family="Helvetica,sans-Serif" font-size="10.00">AdminCreateAccountPanel.Admin</text>
<text xml:space="preserve" text-anchor="middle" x="82.25" y="-75.5" font-family="Helvetica,sans-Serif" font-size="10.00">CreateAccountPanel</text>
</a>
</g>
</g>
<!-- Node2 -->
<g id="Node000002" class="node">
<title>Node2</title>
<g id="a_Node000002"><a xlink:href="../../dd/db1/classcom_1_1bank_1_1manager_1_1_account_manager.html#a0932dd1e26957b676e4fe890be42a0c7" target="_top" xlink:title="Adds an account to the in&#45;memory list (not persisted until saveAll()).">
<polygon fill="white" stroke="#666666" points="359.38,-182 221.12,-182 221.12,-150 359.38,-150 359.38,-182"/>
<text xml:space="preserve" text-anchor="start" x="229.12" y="-168.5" font-family="Helvetica,sans-Serif" font-size="10.00">com.bank.manager.Account</text>
<text xml:space="preserve" text-anchor="middle" x="290.25" y="-156.5" font-family="Helvetica,sans-Serif" font-size="10.00">Manager.addAccount</text>
</a>
</g>
</g>
<!-- Node1&#45;&gt;Node2 -->
<g id="edge1_Node000001_Node000002" class="edge">
<title>Node1&#45;&gt;Node2</title>
<g id="a_edge1_Node000001_Node000002"><a xlink:title=" ">
<path fill="none" stroke="#63b8ff" d="M132.04,-113.47C152.89,-122.63 177.65,-132.95 200.5,-141 205.52,-142.77 210.73,-144.5 216,-146.17"/>
<polygon fill="#63b8ff" stroke="#63b8ff" points="214.83,-149.47 225.42,-149.08 216.89,-142.78 214.83,-149.47"/>
</a>
</g>
</g>
<!-- Node3 -->
<g id="Node000003" class="node">
<title>Node3</title>
<g id="a_Node000003"><a xlink:href="../../db/d15/classcom_1_1bank_1_1manager_1_1_user_manager.html#afbdaa6e3428ae4884bb804b28b9c5535" target="_top" xlink:title="Finds a customer by VAT number.">
<polygon fill="white" stroke="#666666" points="380,-132 200.5,-132 200.5,-100 380,-100 380,-132"/>
<text xml:space="preserve" text-anchor="start" x="208.5" y="-118.5" font-family="Helvetica,sans-Serif" font-size="10.00">com.bank.manager.UserManager.find</text>
<text xml:space="preserve" text-anchor="middle" x="290.25" y="-106.5" font-family="Helvetica,sans-Serif" font-size="10.00">ByVat</text>
</a>
</g>
</g>
<!-- Node1&#45;&gt;Node3 -->
<g id="edge2_Node000001_Node000003" class="edge">
<title>Node1&#45;&gt;Node3</title>
<g id="a_edge2_Node000001_Node000003"><a xlink:title=" ">
<path fill="none" stroke="#63b8ff" d="M164.96,-100.92C172.83,-101.87 180.86,-102.85 188.88,-103.82"/>
<polygon fill="#63b8ff" stroke="#63b8ff" points="188.33,-107.28 198.68,-105.01 189.17,-100.33 188.33,-107.28"/>
</a>
</g>
</g>
<!-- Node4 -->
<g id="Node000004" class="node">
<title>Node4</title>
<g id="a_Node000004"><a xlink:href="../../da/d83/classcom_1_1bank_1_1model_1_1accounts_1_1_account.html#a38981f8e6e13e82b7135c3b57bd2bba0" target="_top" xlink:title=" ">
<polygon fill="white" stroke="#666666" points="357.12,-82 223.38,-82 223.38,-50 357.12,-50 357.12,-82"/>
<text xml:space="preserve" text-anchor="start" x="231.38" y="-68.5" font-family="Helvetica,sans-Serif" font-size="10.00">com.bank.model.accounts.</text>
<text xml:space="preserve" text-anchor="middle" x="290.25" y="-56.5" font-family="Helvetica,sans-Serif" font-size="10.00">Account.getIban</text>
</a>
</g>
</g>
<!-- Node1&#45;&gt;Node4 -->
<g id="edge3_Node000001_Node000004" class="edge">
<title>Node1&#45;&gt;Node4</title>
<g id="a_edge3_Node000001_Node000004"><a xlink:title=" ">
<path fill="none" stroke="#63b8ff" d="M164.96,-81.08C180.51,-79.2 196.73,-77.23 212.13,-75.36"/>
<polygon fill="#63b8ff" stroke="#63b8ff" points="212.17,-78.88 221.68,-74.2 211.33,-71.93 212.17,-78.88"/>
</a>
</g>
</g>
<!-- Node5 -->
<g id="Node000005" class="node">
<title>Node5</title>
<g id="a_Node000005"><a xlink:href="../../dd/db1/classcom_1_1bank_1_1manager_1_1_account_manager.html#a98dae1c354bea894f0eeaf043dbcdd42" target="_top" xlink:title="Persists all accounts to CSV, overwriting the file.">
<polygon fill="white" stroke="#666666" points="359.38,-32 221.12,-32 221.12,0 359.38,0 359.38,-32"/>
<text xml:space="preserve" text-anchor="start" x="229.12" y="-18.5" font-family="Helvetica,sans-Serif" font-size="10.00">com.bank.manager.Account</text>
<text xml:space="preserve" text-anchor="middle" x="290.25" y="-6.5" font-family="Helvetica,sans-Serif" font-size="10.00">Manager.saveAll</text>
</a>
</g>
</g>
<!-- Node1&#45;&gt;Node5 -->
<g id="edge4_Node000001_Node000005" class="edge">
<title>Node1&#45;&gt;Node5</title>
<g id="a_edge4_Node000001_Node000005"><a xlink:title=" ">
<path fill="none" stroke="#63b8ff" d="M132.04,-68.53C152.89,-59.37 177.65,-49.05 200.5,-41 205.52,-39.23 210.73,-37.5 216,-35.83"/>
<polygon fill="#63b8ff" stroke="#63b8ff" points="216.89,-39.22 225.42,-32.92 214.83,-32.53 216.89,-39.22"/>
</a>
</g>
</g>
</g>
</svg>
