<?xml version="1.0" encoding="UTF-8" standalone="no"?>
<!DOCTYPE svg PUBLIC "-//W3C//DTD SVG 1.1//EN"
 "http://www.w3.org/Graphics/SVG/1.1/DTD/svg11.dtd">
<!-- Generated by graphviz version 14.0.1 (20251006.0113)
 -->
<!-- Title: com.bank.manager.UserManager.findByUsername Pages: 1 -->
<svg width="631pt" height="59pt"
 viewBox="0.00 0.00 631.00 59.00" xmlns="http://www.w3.org/2000/svg" xmlns:xlink="http://www.w3.org/1999/xlink">
<g id="graph0" class="graph" transform="scale(1 1) rotate(0) translate(4 55)">
<title>com.bank.manager.UserManager.findByUsername</title>
<!-- Node1 -->
<g id="Node000001" class="node">
<title>Node1</title>
<g id="a_Node000001"><a xlink:title="Finds a user by username.">
<polygon fill="#999999" stroke="#666666" points="623.25,-38 443.75,-38 443.75,-6 623.25,-6 623.25,-38"/>
<text xml:space="preserve" text-anchor="start" x="451.75" y="-24.5" font-family="Helvetica,sans-Serif" font-size="10.00">com.bank.manager.UserManager.find</text>
<text xml:space="preserve" text-anchor="middle" x="533.5" y="-12.5" font-family="Helvetica,sans-Serif" font-size="10.00">ByUsername</text>
</a>
</g>
</g>
<!-- Node2 -->
<g id="Node000002" class="node">
<title>Node2</title>
<g id="a_Node000002"><a xlink:href="../../db/d15/classcom_1_1bank_1_1manager_1_1_user_manager.html#a59edcfd672dadf24efd36175b985ef48" target="_top" xlink:title="Adds a new user to the system.">
<polygon fill="white" stroke="#666666" points="407.75,-51 207.25,-51 207.25,-31 407.75,-31 407.75,-51"/>
<text xml:space="preserve" text-anchor="middle" x="307.5" y="-37.5" font-family="Helvetica,sans-Serif" font-size="10.00">com.bank.manager.UserManager.addUser</text>
</a>
</g>
</g>
<!-- Node1&#45;&gt;Node2 -->
<g id="edge1_Node000001_Node000002" class="edge">
<title>Node1&#45;&gt;Node2</title>
<g id="a_edge1_Node000001_Node000002"><a xlink:title=" ">
<path fill="none" stroke="#63b8ff" d="M432.1,-30.52C424.11,-31.19 416.04,-31.88 408.06,-32.56"/>
<polygon fill="#63b8ff" stroke="#63b8ff" points="432.15,-34.02 441.82,-29.69 431.56,-27.05 432.15,-34.02"/>
</a>
</g>
</g>
<!-- Node3 -->
<g id="Node000003" class="node">
<title>Node3</title>
<g id="a_Node000003"><a xlink:href="../../d2/d09/classcom_1_1bank_1_1gui_1_1view_1_1panel_1_1_admin_create_customer_panel.html#a67f0a462826b49456c7017475c139c1b" target="_top" xlink:title="Δημιουργεί το panel δημιουργίας νέου χρήστη.">
<polygon fill="white" stroke="#666666" points="171.25,-44 0,-44 0,0 171.25,0 171.25,-44"/>
<text xml:space="preserve" text-anchor="start" x="8" y="-30.5" font-family="Helvetica,sans-Serif" font-size="10.00">com.bank.gui.view.panel.</text>
<text xml:space="preserve" text-anchor="start" x="8" y="-18.5" font-family="Helvetica,sans-Serif" font-size="10.00">AdminCreateCustomerPanel.Admin</text>
<text xml:space="preserve" text-anchor="middle" x="85.62" y="-6.5" font-family="Helvetica,sans-Serif" font-size="10.00">CreateCustomerPanel</text>
</a>
</g>
</g>
<!-- Node1&#45;&gt;Node3 -->
<g id="edge3_Node000001_Node000003" class="edge">
<title>Node1&#45;&gt;Node3</title>
<g id="a_edge3_Node000001_Node000003"><a xlink:title=" ">
<path fill="none" stroke="#63b8ff" d="M431.98,-22C353.49,-22 245.65,-22 171.47,-22"/>
<polygon fill="#63b8ff" stroke="#63b8ff" points="431.83,-25.5 441.83,-22 431.83,-18.5 431.83,-25.5"/>
</a>
</g>
</g>
<!-- Node2&#45;&gt;Node3 -->
<g id="edge2_Node000002_Node000003" class="edge">
<title>Node2&#45;&gt;Node3</title>
<g id="a_edge2_Node000002_Node000003"><a xlink:title=" ">
<path fill="none" stroke="#63b8ff" d="M195.47,-31.41C187.41,-30.71 179.35,-30.01 171.48,-29.33"/>
<polygon fill="#63b8ff" stroke="#63b8ff" points="195.08,-34.89 205.35,-32.26 195.69,-27.91 195.08,-34.89"/>
</a>
</g>
</g>
</g>
</svg>
