<?xml version="1.0" encoding="UTF-8" standalone="no"?>
<!DOCTYPE svg PUBLIC "-//W3C//DTD SVG 1.1//EN"
 "http://www.w3.org/Graphics/SVG/1.1/DTD/svg11.dtd">
<!-- Generated by graphviz version 14.0.1 (20251006.0113)
 -->
<!-- Title: com.bank.model.transactions.Deposit Pages: 1 -->
<svg width="147pt" height="380pt"
 viewBox="0.00 0.00 147.00 380.00" xmlns="http://www.w3.org/2000/svg" xmlns:xlink="http://www.w3.org/1999/xlink">
<g id="graph0" class="graph" transform="scale(1 1) rotate(0) translate(4 376)">
<title>com.bank.model.transactions.Deposit</title>
<!-- Node1 -->
<g id="Node000001" class="node">
<title>Node1</title>
<g id="a_Node000001"><a xlink:title="Represents a deposit transaction to a single bank account.">
<polygon fill="#999999" stroke="none" points="139.25,-112 0,-112 0,0 139.25,0 139.25,-112"/>
<text xml:space="preserve" text-anchor="start" x="4" y="-98.5" font-family="Helvetica,sans-Serif" font-size="10.00">com.bank.model.transactions.</text>
<text xml:space="preserve" text-anchor="start" x="52.75" y="-86.5" font-family="Helvetica,sans-Serif" font-size="10.00">Deposit</text>
<text xml:space="preserve" text-anchor="start" x="68.12" y="-70.5" font-family="Helvetica,sans-Serif" font-size="10.00"> </text>
<text xml:space="preserve" text-anchor="start" x="20.44" y="-54.5" font-family="Helvetica,sans-Serif" font-size="10.00">+</text>
<text xml:space="preserve" text-anchor="start" x="46.88" y="-54.5" font-family="Helvetica,sans-Serif" font-size="10.00">Deposit()</text>
<text xml:space="preserve" text-anchor="start" x="20.44" y="-38.5" font-family="Helvetica,sans-Serif" font-size="10.00">+</text>
<text xml:space="preserve" text-anchor="start" x="46.88" y="-38.5" font-family="Helvetica,sans-Serif" font-size="10.00">execute()</text>
<text xml:space="preserve" text-anchor="start" x="20.44" y="-22.5" font-family="Helvetica,sans-Serif" font-size="10.00">+</text>
<text xml:space="preserve" text-anchor="start" x="46.88" y="-22.5" font-family="Helvetica,sans-Serif" font-size="10.00">getAccount()</text>
<text xml:space="preserve" text-anchor="start" x="20.44" y="-6.5" font-family="Helvetica,sans-Serif" font-size="10.00">+</text>
<text xml:space="preserve" text-anchor="start" x="46.88" y="-6.5" font-family="Helvetica,sans-Serif" font-size="10.00">getAmount()</text>
<polygon fill="#666666" stroke="#666666" points="0,-82 0,-82 139.25,-82 139.25,-82 0,-82"/>
<polygon fill="#666666" stroke="#666666" points="0,-66 0,-66 139.25,-66 139.25,-66 0,-66"/>
<polygon fill="none" stroke="#666666" points="0,0 0,-112 139.25,-112 139.25,0 0,0"/>
</a>
</g>
</g>
<!-- Node2 -->
<g id="Node000002" class="node">
<title>Node2</title>
<g id="a_Node000002"><a xlink:href="../../d5/d94/classcom_1_1bank_1_1model_1_1transactions_1_1_transaction.html" target="_top" xlink:title="Abstract base class representing a financial transaction.">
<polygon fill="white" stroke="none" points="139.25,-372 0,-372 0,-148 139.25,-148 139.25,-372"/>
<text xml:space="preserve" text-anchor="start" x="4" y="-358.5" font-family="Helvetica,sans-Serif" font-size="10.00">com.bank.model.transactions.</text>
<text xml:space="preserve" text-anchor="start" x="44.12" y="-346.5" font-family="Helvetica,sans-Serif" font-size="10.00">Transaction</text>
<text xml:space="preserve" text-anchor="start" x="12.75" y="-330.5" font-family="Helvetica,sans-Serif" font-size="10.00">#</text>
<text xml:space="preserve" text-anchor="start" x="30.75" y="-330.5" font-family="Helvetica,sans-Serif" font-size="10.00">statementEntry</text>
<text xml:space="preserve" text-anchor="start" x="12.75" y="-314.5" font-family="Helvetica,sans-Serif" font-size="10.00">#</text>
<text xml:space="preserve" text-anchor="start" x="30.75" y="-314.5" font-family="Helvetica,sans-Serif" font-size="10.00">transactionId</text>
<text xml:space="preserve" text-anchor="start" x="12.75" y="-298.5" font-family="Helvetica,sans-Serif" font-size="10.00">#</text>
<text xml:space="preserve" text-anchor="start" x="30.75" y="-298.5" font-family="Helvetica,sans-Serif" font-size="10.00">timestamp</text>
<text xml:space="preserve" text-anchor="start" x="12.75" y="-282.5" font-family="Helvetica,sans-Serif" font-size="10.00">#</text>
<text xml:space="preserve" text-anchor="start" x="30.75" y="-282.5" font-family="Helvetica,sans-Serif" font-size="10.00">transactor</text>
<text xml:space="preserve" text-anchor="start" x="12.75" y="-266.5" font-family="Helvetica,sans-Serif" font-size="10.00">#</text>
<text xml:space="preserve" text-anchor="start" x="30.75" y="-266.5" font-family="Helvetica,sans-Serif" font-size="10.00">reason</text>
<text xml:space="preserve" text-anchor="start" x="12.38" y="-250.5" font-family="Helvetica,sans-Serif" font-size="10.00">+</text>
<text xml:space="preserve" text-anchor="start" x="30.75" y="-250.5" font-family="Helvetica,sans-Serif" font-size="10.00">Transaction()</text>
<text xml:space="preserve" text-anchor="start" x="12.38" y="-234.5" font-family="Helvetica,sans-Serif" font-size="10.00">+</text>
<text xml:space="preserve" text-anchor="start" x="30.75" y="-234.5" font-family="Helvetica,sans-Serif" font-size="10.00">getStatementEntry()</text>
<text xml:space="preserve" text-anchor="start" x="12.38" y="-218.5" font-family="Helvetica,sans-Serif" font-size="10.00">+</text>
<text xml:space="preserve" text-anchor="start" x="30.75" y="-218.5" font-family="Helvetica,sans-Serif" font-size="10.00">getTransactionId()</text>
<text xml:space="preserve" text-anchor="start" x="12.38" y="-202.5" font-family="Helvetica,sans-Serif" font-size="10.00">+</text>
<text xml:space="preserve" text-anchor="start" x="30.75" y="-202.5" font-family="Helvetica,sans-Serif" font-size="10.00">getTimestamp()</text>
<text xml:space="preserve" text-anchor="start" x="12.38" y="-186.5" font-family="Helvetica,sans-Serif" font-size="10.00">+</text>
<text xml:space="preserve" text-anchor="start" x="30.75" y="-186.5" font-family="Helvetica,sans-Serif" font-size="10.00">getTransactor()</text>
<text xml:space="preserve" text-anchor="start" x="12.38" y="-170.5" font-family="Helvetica,sans-Serif" font-size="10.00">+</text>
<text xml:space="preserve" text-anchor="start" x="30.75" y="-170.5" font-family="Helvetica,sans-Serif" font-size="10.00">getReason()</text>
<text xml:space="preserve" text-anchor="start" x="12.38" y="-154.5" font-family="Helvetica,sans-Serif" font-size="10.00">+</text>
<text xml:space="preserve" text-anchor="start" x="30.75" y="-154.5" font-family="Helvetica,sans-Serif" font-size="10.00">execute()</text>
<polygon fill="#666666" stroke="#666666" points="0,-342 0,-342 139.25,-342 139.25,-342 0,-342"/>
<polygon fill="#666666" stroke="#666666" points="0,-262 0,-262 28.75,-262 28.75,-262 0,-262"/>
<polygon fill="#666666" stroke="#666666" points="28.75,-262 28.75,-262 139.25,-262 139.25,-262 28.75,-262"/>
<polygon fill="none" stroke="#666666" points="0,-148 0,-372 139.25,-372 139.25,-148 0,-148"/>
</a>
</g>
</g>
<!-- Node2&#45;&gt;Node1 -->
<g id="edge1_Node000001_Node000002" class="edge">
<title>Node2&#45;&gt;Node1</title>
<g id="a_edge1_Node000001_Node000002"><a xlink:title=" ">
<path fill="none" stroke="#63b8ff" d="M69.62,-136.74C69.62,-128.06 69.62,-119.6 69.62,-111.64"/>
<polygon fill="none" stroke="#63b8ff" points="66.13,-136.74 69.63,-146.74 73.13,-136.74 66.13,-136.74"/>
</a>
</g>
</g>
</g>
</svg>
