<?xml version="1.0" encoding="UTF-8" standalone="no"?>
<!DOCTYPE svg PUBLIC "-//W3C//DTD SVG 1.1//EN"
 "http://www.w3.org/Graphics/SVG/1.1/DTD/svg11.dtd">
<!-- Generated by graphviz version 14.0.1 (20251006.0113)
 -->
<!-- Title: add_doxygen_stubs.main Pages: 1 -->
<svg width="520pt" height="78pt"
 viewBox="0.00 0.00 520.00 78.00" xmlns="http://www.w3.org/2000/svg" xmlns:xlink="http://www.w3.org/1999/xlink">
<g id="graph0" class="graph" transform="scale(1 1) rotate(0) translate(4 74)">
<title>add_doxygen_stubs.main</title>
<!-- Node1 -->
<g id="Node000001" class="node">
<title>Node1</title>
<g id="a_Node000001"><a xlink:title=" ">
<polygon fill="#999999" stroke="#666666" points="127,-42 0,-42 0,-22 127,-22 127,-42"/>
<text xml:space="preserve" text-anchor="middle" x="63.5" y="-28.5" font-family="Helvetica,sans-Serif" font-size="10.00">add_doxygen_stubs.main</text>
</a>
</g>
</g>
<!-- Node1&#45;&gt;Node1 -->
<g id="edge1_Node000001_Node000001" class="edge">
<title>Node1&#45;&gt;Node1</title>
<g id="a_edge1_Node000001_Node000001"><a xlink:title=" ">
<path fill="none" stroke="#63b8ff" d="M35.1,-42.34C22.96,-50.98 32.43,-60 63.5,-60 80.98,-60 91.62,-57.14 95.43,-53.11"/>
<polygon fill="#63b8ff" stroke="#63b8ff" points="98.81,-52.19 92.37,-43.78 92.16,-54.37 98.81,-52.19"/>
</a>
</g>
</g>
<!-- Node2 -->
<g id="Node000002" class="node">
<title>Node2</title>
<g id="a_Node000002"><a xlink:href="../../db/d85/namespaceadd__doxygen__stubs.html#ac078fb2511e7d19e12716fe7868b1d47" target="_top" xlink:title=" ">
<polygon fill="white" stroke="#666666" points="321.5,-42 163,-42 163,-22 321.5,-22 321.5,-42"/>
<text xml:space="preserve" text-anchor="middle" x="242.25" y="-28.5" font-family="Helvetica,sans-Serif" font-size="10.00">add_doxygen_stubs.process_file</text>
</a>
</g>
</g>
<!-- Node1&#45;&gt;Node2 -->
<g id="edge2_Node000001_Node000002" class="edge">
<title>Node1&#45;&gt;Node2</title>
<g id="a_edge2_Node000001_Node000002"><a xlink:title=" ">
<path fill="none" stroke="#63b8ff" d="M127.31,-32C135.07,-32 143.11,-32 151.17,-32"/>
<polygon fill="#63b8ff" stroke="#63b8ff" points="151.04,-35.5 161.04,-32 151.04,-28.5 151.04,-35.5"/>
</a>
</g>
</g>
<!-- Node3 -->
<g id="Node000003" class="node">
<title>Node3</title>
<g id="a_Node000003"><a xlink:href="../../db/d85/namespaceadd__doxygen__stubs.html#a670df11d3b0aaaaa2a142fdc8c77b9e1" target="_top" xlink:title=" ">
<polygon fill="white" stroke="#666666" points="495.38,-70 373.62,-70 373.62,-38 495.38,-38 495.38,-70"/>
<text xml:space="preserve" text-anchor="start" x="381.62" y="-56.5" font-family="Helvetica,sans-Serif" font-size="10.00">add_doxygen_stubs.has</text>
<text xml:space="preserve" text-anchor="middle" x="434.5" y="-44.5" font-family="Helvetica,sans-Serif" font-size="10.00">_doc_before</text>
</a>
</g>
</g>
<!-- Node2&#45;&gt;Node3 -->
<g id="edge3_Node000002_Node000003" class="edge">
<title>Node2&#45;&gt;Node3</title>
<g id="a_edge3_Node000002_Node000003"><a xlink:title=" ">
<path fill="none" stroke="#63b8ff" d="M321.73,-41.08C335.03,-42.61 348.78,-44.2 361.89,-45.72"/>
<polygon fill="#63b8ff" stroke="#63b8ff" points="361.38,-49.18 371.72,-46.86 362.19,-42.23 361.38,-49.18"/>
</a>
</g>
</g>
<!-- Node4 -->
<g id="Node000004" class="node">
<title>Node4</title>
<g id="a_Node000004"><a xlink:href="../../db/d85/namespaceadd__doxygen__stubs.html#a5ac223c667560f58e6796516df06c8ac" target="_top" xlink:title=" ">
<polygon fill="white" stroke="#666666" points="511.5,-20 357.5,-20 357.5,0 511.5,0 511.5,-20"/>
<text xml:space="preserve" text-anchor="middle" x="434.5" y="-6.5" font-family="Helvetica,sans-Serif" font-size="10.00">add_doxygen_stubs.insert_stub</text>
</a>
</g>
</g>
<!-- Node2&#45;&gt;Node4 -->
<g id="edge4_Node000002_Node000004" class="edge">
<title>Node2&#45;&gt;Node4</title>
<g id="a_edge4_Node000002_Node000004"><a xlink:title=" ">
<path fill="none" stroke="#63b8ff" d="M321.73,-22.92C329.66,-22.01 337.75,-21.07 345.77,-20.14"/>
<polygon fill="#63b8ff" stroke="#63b8ff" points="346,-23.64 355.54,-19.02 345.2,-16.69 346,-23.64"/>
</a>
</g>
</g>
</g>
</svg>
