<?xml version="1.0" encoding="UTF-8" standalone="no"?>
<!DOCTYPE svg PUBLIC "-//W3C//DTD SVG 1.1//EN"
 "http://www.w3.org/Graphics/SVG/1.1/DTD/svg11.dtd">
<!-- Generated by graphviz version 14.0.1 (20251006.0113)
 -->
<!-- Title: cli/CompanyMenu.java Pages: 1 -->
<svg width="640pt" height="96pt"
 viewBox="0.00 0.00 640.00 96.00" xmlns="http://www.w3.org/2000/svg" xmlns:xlink="http://www.w3.org/1999/xlink">
<g id="graph0" class="graph" transform="scale(1 1) rotate(0) translate(4 92)">
<title>cli/CompanyMenu.java</title>
<!-- Node1 -->
<g id="Node000001" class="node">
<title>Node1</title>
<g id="a_Node000001"><a xlink:title=" ">
<polygon fill="#999999" stroke="#666666" points="405.88,-88 290.12,-88 290.12,-68 405.88,-68 405.88,-88"/>
<text xml:space="preserve" text-anchor="middle" x="348" y="-74.5" font-family="Helvetica,sans-Serif" font-size="10.00">cli/CompanyMenu.java</text>
</a>
</g>
</g>
<!-- Node2 -->
<g id="Node000002" class="node">
<title>Node2</title>
<g id="a_Node000002"><a xlink:title=" ">
<polygon fill="#e0e0e0" stroke="#999999" points="106,-26 0,-26 0,-6 106,-6 106,-26"/>
<text xml:space="preserve" text-anchor="middle" x="53" y="-12.5" font-family="Helvetica,sans-Serif" font-size="10.00">com.bank.manager.*</text>
</a>
</g>
</g>
<!-- Node1&#45;&gt;Node2 -->
<g id="edge1_Node000001_Node000002" class="edge">
<title>Node1&#45;&gt;Node2</title>
<g id="a_edge1_Node000001_Node000002"><a xlink:title=" ">
<path fill="none" stroke="#63b8ff" d="M295.11,-67.51C247.79,-58.85 176.6,-45.39 115,-32 110.74,-31.07 106.32,-30.08 101.9,-29.05"/>
<polygon fill="#63b8ff" stroke="#63b8ff" points="102.98,-25.71 92.44,-26.83 101.38,-32.53 102.98,-25.71"/>
</a>
</g>
</g>
<!-- Node3 -->
<g id="Node000003" class="node">
<title>Node3</title>
<g id="a_Node000003"><a xlink:title=" ">
<polygon fill="#e0e0e0" stroke="#999999" points="263.5,-26 124.5,-26 124.5,-6 263.5,-6 263.5,-26"/>
<text xml:space="preserve" text-anchor="middle" x="194" y="-12.5" font-family="Helvetica,sans-Serif" font-size="10.00">com.bank.model.users.User</text>
</a>
</g>
</g>
<!-- Node1&#45;&gt;Node3 -->
<g id="edge2_Node000001_Node000003" class="edge">
<title>Node1&#45;&gt;Node3</title>
<g id="a_edge2_Node000001_Node000003"><a xlink:title=" ">
<path fill="none" stroke="#63b8ff" d="M323.94,-67.62C298.36,-57.66 257.67,-41.81 228.65,-30.5"/>
<polygon fill="#63b8ff" stroke="#63b8ff" points="230.15,-27.33 219.56,-26.96 227.6,-33.85 230.15,-27.33"/>
</a>
</g>
</g>
<!-- Node4 -->
<g id="Node000004" class="node">
<title>Node4</title>
<g id="a_Node000004"><a xlink:title=" ">
<polygon fill="#e0e0e0" stroke="#999999" points="414.88,-32 281.12,-32 281.12,0 414.88,0 414.88,-32"/>
<text xml:space="preserve" text-anchor="start" x="289.12" y="-18.5" font-family="Helvetica,sans-Serif" font-size="10.00">com.bank.model.accounts.</text>
<text xml:space="preserve" text-anchor="middle" x="348" y="-6.5" font-family="Helvetica,sans-Serif" font-size="10.00">Account</text>
</a>
</g>
</g>
<!-- Node1&#45;&gt;Node4 -->
<g id="edge3_Node000001_Node000004" class="edge">
<title>Node1&#45;&gt;Node4</title>
<g id="a_edge3_Node000001_Node000004"><a xlink:title=" ">
<path fill="none" stroke="#63b8ff" d="M348,-67.62C348,-61.1 348,-52.05 348,-43.4"/>
<polygon fill="#63b8ff" stroke="#63b8ff" points="351.5,-43.65 348,-33.65 344.5,-43.65 351.5,-43.65"/>
</a>
</g>
</g>
<!-- Node5 -->
<g id="Node000005" class="node">
<title>Node5</title>
<g id="a_Node000005"><a xlink:title=" ">
<polygon fill="#e0e0e0" stroke="#999999" points="557.38,-26 432.62,-26 432.62,-6 557.38,-6 557.38,-26"/>
<text xml:space="preserve" text-anchor="middle" x="495" y="-12.5" font-family="Helvetica,sans-Serif" font-size="10.00">com.bank.model.bills.Bill</text>
</a>
</g>
</g>
<!-- Node1&#45;&gt;Node5 -->
<g id="edge4_Node000001_Node000005" class="edge">
<title>Node1&#45;&gt;Node5</title>
<g id="a_edge4_Node000001_Node000005"><a xlink:title=" ">
<path fill="none" stroke="#63b8ff" d="M370.97,-67.62C395.35,-57.67 434.11,-41.85 461.81,-30.55"/>
<polygon fill="#63b8ff" stroke="#63b8ff" points="462.86,-33.9 470.79,-26.88 460.21,-27.42 462.86,-33.9"/>
</a>
</g>
</g>
<!-- Node6 -->
<g id="Node000006" class="node">
<title>Node6</title>
<g id="a_Node000006"><a xlink:title=" ">
<polygon fill="#e0e0e0" stroke="#999999" points="632.25,-26 575.75,-26 575.75,-6 632.25,-6 632.25,-26"/>
<text xml:space="preserve" text-anchor="middle" x="604" y="-12.5" font-family="Helvetica,sans-Serif" font-size="10.00">java.util.*</text>
</a>
</g>
</g>
<!-- Node1&#45;&gt;Node6 -->
<g id="edge5_Node000001_Node000006" class="edge">
<title>Node1&#45;&gt;Node6</title>
<g id="a_edge5_Node000001_Node000006"><a xlink:title=" ">
<path fill="none" stroke="#63b8ff" d="M406.05,-67.83C450.36,-60.15 512.67,-47.9 566,-32 567.82,-31.46 569.68,-30.86 571.55,-30.23"/>
<polygon fill="#63b8ff" stroke="#63b8ff" points="572.5,-33.61 580.7,-26.9 570.11,-27.03 572.5,-33.61"/>
</a>
</g>
</g>
</g>
</svg>
