<?xml version="1.0" encoding="UTF-8" standalone="no"?>
<!DOCTYPE svg PUBLIC "-//W3C//DTD SVG 1.1//EN"
 "http://www.w3.org/Graphics/SVG/1.1/DTD/svg11.dtd">
<!-- Generated by graphviz version 14.0.1 (20251006.0113)
 -->
<!-- Title: model/orders/StandingOrder.java Pages: 1 -->
<svg width="1305pt" height="96pt"
 viewBox="0.00 0.00 1305.00 96.00" xmlns="http://www.w3.org/2000/svg" xmlns:xlink="http://www.w3.org/1999/xlink">
<g id="graph0" class="graph" transform="scale(1 1) rotate(0) translate(4 92)">
<title>model/orders/StandingOrder.java</title>
<!-- Node1 -->
<g id="Node000001" class="node">
<title>Node1</title>
<g id="a_Node000001"><a xlink:title=" ">
<polygon fill="#999999" stroke="#666666" points="679.75,-88 521.25,-88 521.25,-68 679.75,-68 679.75,-88"/>
<text xml:space="preserve" text-anchor="middle" x="600.5" y="-74.5" font-family="Helvetica,sans-Serif" font-size="10.00">model/orders/StandingOrder.java</text>
</a>
</g>
</g>
<!-- Node2 -->
<g id="Node000002" class="node">
<title>Node2</title>
<g id="a_Node000002"><a xlink:title=" ">
<polygon fill="#e0e0e0" stroke="#999999" points="103,-26 0,-26 0,-6 103,-6 103,-26"/>
<text xml:space="preserve" text-anchor="middle" x="51.5" y="-12.5" font-family="Helvetica,sans-Serif" font-size="10.00">java.time.LocalDate</text>
</a>
</g>
</g>
<!-- Node1&#45;&gt;Node2 -->
<g id="edge1_Node000001_Node000002" class="edge">
<title>Node1&#45;&gt;Node2</title>
<g id="a_edge1_Node000001_Node000002"><a xlink:title=" ">
<path fill="none" stroke="#63b8ff" d="M521,-73.32C424.03,-67.99 255.35,-56.01 112.5,-32 107.53,-31.16 102.36,-30.14 97.23,-29.02"/>
<polygon fill="#63b8ff" stroke="#63b8ff" points="98.16,-25.65 87.63,-26.81 96.58,-32.47 98.16,-25.65"/>
</a>
</g>
</g>
<!-- Node3 -->
<g id="Node000003" class="node">
<title>Node3</title>
<g id="a_Node000003"><a xlink:title=" ">
<polygon fill="#e0e0e0" stroke="#999999" points="253.62,-32 121.38,-32 121.38,0 253.62,0 253.62,-32"/>
<text xml:space="preserve" text-anchor="start" x="129.38" y="-18.5" font-family="Helvetica,sans-Serif" font-size="10.00">java.time.format.DateTime</text>
<text xml:space="preserve" text-anchor="middle" x="187.5" y="-6.5" font-family="Helvetica,sans-Serif" font-size="10.00">Formatter</text>
</a>
</g>
</g>
<!-- Node1&#45;&gt;Node3 -->
<g id="edge2_Node000001_Node000003" class="edge">
<title>Node1&#45;&gt;Node3</title>
<g id="a_edge2_Node000001_Node000003"><a xlink:title=" ">
<path fill="none" stroke="#63b8ff" d="M521.06,-67.9C455.11,-60.01 358.58,-47.68 265.45,-32.43"/>
<polygon fill="#63b8ff" stroke="#63b8ff" points="266.05,-28.98 255.61,-30.8 264.9,-35.89 266.05,-28.98"/>
</a>
</g>
</g>
<!-- Node4 -->
<g id="Node000004" class="node">
<title>Node4</title>
<g id="a_Node000004"><a xlink:title=" ">
<polygon fill="#e0e0e0" stroke="#999999" points="349.62,-26 271.38,-26 271.38,-6 349.62,-6 349.62,-26"/>
<text xml:space="preserve" text-anchor="middle" x="310.5" y="-12.5" font-family="Helvetica,sans-Serif" font-size="10.00">java.util.UUID</text>
</a>
</g>
</g>
<!-- Node1&#45;&gt;Node4 -->
<g id="edge3_Node000001_Node000004" class="edge">
<title>Node1&#45;&gt;Node4</title>
<g id="a_edge3_Node000001_Node000004"><a xlink:title=" ">
<path fill="none" stroke="#63b8ff" d="M538.14,-67.5C489.01,-59.51 418.95,-47.01 358.5,-32 355.58,-31.28 352.58,-30.47 349.57,-29.63"/>
<polygon fill="#63b8ff" stroke="#63b8ff" points="350.8,-26.34 340.22,-26.88 348.82,-33.06 350.8,-26.34"/>
</a>
</g>
</g>
<!-- Node5 -->
<g id="Node000005" class="node">
<title>Node5</title>
<g id="a_Node000005"><a xlink:title=" ">
<polygon fill="#e0e0e0" stroke="#999999" points="505.62,-32 367.38,-32 367.38,0 505.62,0 505.62,-32"/>
<text xml:space="preserve" text-anchor="start" x="375.38" y="-18.5" font-family="Helvetica,sans-Serif" font-size="10.00">com.bank.manager.Account</text>
<text xml:space="preserve" text-anchor="middle" x="436.5" y="-6.5" font-family="Helvetica,sans-Serif" font-size="10.00">Manager</text>
</a>
</g>
</g>
<!-- Node1&#45;&gt;Node5 -->
<g id="edge4_Node000001_Node000005" class="edge">
<title>Node1&#45;&gt;Node5</title>
<g id="a_edge4_Node000001_Node000005"><a xlink:title=" ">
<path fill="none" stroke="#63b8ff" d="M574.88,-67.62C552.11,-59.3 518.1,-46.86 489.5,-36.39"/>
<polygon fill="#63b8ff" stroke="#63b8ff" points="490.86,-33.16 480.26,-33.01 488.45,-39.73 490.86,-33.16"/>
</a>
</g>
</g>
<!-- Node6 -->
<g id="Node000006" class="node">
<title>Node6</title>
<g id="a_Node000006"><a xlink:title=" ">
<polygon fill="#e0e0e0" stroke="#999999" points="677.12,-26 523.88,-26 523.88,-6 677.12,-6 677.12,-26"/>
<text xml:space="preserve" text-anchor="middle" x="600.5" y="-12.5" font-family="Helvetica,sans-Serif" font-size="10.00">com.bank.manager.BillManager</text>
</a>
</g>
</g>
<!-- Node1&#45;&gt;Node6 -->
<g id="edge5_Node000001_Node000006" class="edge">
<title>Node1&#45;&gt;Node6</title>
<g id="a_edge5_Node000001_Node000006"><a xlink:title=" ">
<path fill="none" stroke="#63b8ff" d="M600.5,-67.62C600.5,-59.56 600.5,-47.65 600.5,-37.41"/>
<polygon fill="#63b8ff" stroke="#63b8ff" points="604,-37.63 600.5,-27.63 597,-37.63 604,-37.63"/>
</a>
</g>
</g>
<!-- Node7 -->
<g id="Node000007" class="node">
<title>Node7</title>
<g id="a_Node000007"><a xlink:title=" ">
<polygon fill="#e0e0e0" stroke="#999999" points="848.12,-32 694.88,-32 694.88,0 848.12,0 848.12,-32"/>
<text xml:space="preserve" text-anchor="start" x="702.88" y="-18.5" font-family="Helvetica,sans-Serif" font-size="10.00">com.bank.manager.Transaction</text>
<text xml:space="preserve" text-anchor="middle" x="771.5" y="-6.5" font-family="Helvetica,sans-Serif" font-size="10.00">Manager</text>
</a>
</g>
</g>
<!-- Node1&#45;&gt;Node7 -->
<g id="edge6_Node000001_Node000007" class="edge">
<title>Node1&#45;&gt;Node7</title>
<g id="a_edge6_Node000001_Node000007"><a xlink:title=" ">
<path fill="none" stroke="#63b8ff" d="M627.22,-67.62C651.06,-59.26 686.72,-46.75 716.63,-36.25"/>
<polygon fill="#63b8ff" stroke="#63b8ff" points="717.65,-39.61 725.92,-32.99 715.33,-33 717.65,-39.61"/>
</a>
</g>
</g>
<!-- Node8 -->
<g id="Node000008" class="node">
<title>Node8</title>
<g id="a_Node000008"><a xlink:title=" ">
<polygon fill="#e0e0e0" stroke="#999999" points="1005,-26 866,-26 866,-6 1005,-6 1005,-26"/>
<text xml:space="preserve" text-anchor="middle" x="935.5" y="-12.5" font-family="Helvetica,sans-Serif" font-size="10.00">com.bank.model.users.User</text>
</a>
</g>
</g>
<!-- Node1&#45;&gt;Node8 -->
<g id="edge7_Node000001_Node000008" class="edge">
<title>Node1&#45;&gt;Node8</title>
<g id="a_edge7_Node000001_Node000008"><a xlink:title=" ">
<path fill="none" stroke="#63b8ff" d="M656.2,-67.52C708.28,-58.59 788.22,-44.73 857.5,-32 863.43,-30.91 869.62,-29.75 875.79,-28.59"/>
<polygon fill="#63b8ff" stroke="#63b8ff" points="876.18,-32.08 885.35,-26.77 874.88,-25.2 876.18,-32.08"/>
</a>
</g>
</g>
<!-- Node9 -->
<g id="Node000009" class="node">
<title>Node9</title>
<g id="a_Node000009"><a xlink:title=" ">
<polygon fill="#e0e0e0" stroke="#999999" points="1156,-26 1023,-26 1023,-6 1156,-6 1156,-26"/>
<text xml:space="preserve" text-anchor="middle" x="1089.5" y="-12.5" font-family="Helvetica,sans-Serif" font-size="10.00">com.bank.storage.Storable</text>
</a>
</g>
</g>
<!-- Node1&#45;&gt;Node9 -->
<g id="edge8_Node000001_Node000009" class="edge">
<title>Node1&#45;&gt;Node9</title>
<g id="a_edge8_Node000001_Node000009"><a xlink:title=" ">
<path fill="none" stroke="#63b8ff" d="M680.14,-70.47C763.7,-63.11 898.74,-49.83 1014.5,-32 1020.97,-31 1027.74,-29.83 1034.44,-28.59"/>
<polygon fill="#63b8ff" stroke="#63b8ff" points="1034.94,-32.06 1044.11,-26.75 1033.63,-25.19 1034.94,-32.06"/>
</a>
</g>
</g>
<!-- Node10 -->
<g id="Node000010" class="node">
<title>Node10</title>
<g id="a_Node000010"><a xlink:title=" ">
<polygon fill="#e0e0e0" stroke="#999999" points="1297.12,-32 1173.88,-32 1173.88,0 1297.12,0 1297.12,-32"/>
<text xml:space="preserve" text-anchor="start" x="1181.88" y="-18.5" font-family="Helvetica,sans-Serif" font-size="10.00">com.bank.utilities.Global</text>
<text xml:space="preserve" text-anchor="middle" x="1235.5" y="-6.5" font-family="Helvetica,sans-Serif" font-size="10.00">Clock</text>
</a>
</g>
</g>
<!-- Node1&#45;&gt;Node10 -->
<g id="edge9_Node000001_Node000010" class="edge">
<title>Node1&#45;&gt;Node10</title>
<g id="a_edge9_Node000001_Node000010"><a xlink:title=" ">
<path fill="none" stroke="#63b8ff" d="M679.94,-73.97C787.32,-69.14 984.89,-57.67 1162.35,-32.34"/>
<polygon fill="#63b8ff" stroke="#63b8ff" points="1162.85,-35.81 1172.25,-30.91 1161.85,-28.88 1162.85,-35.81"/>
</a>
</g>
</g>
</g>
</svg>
