<?xml version="1.0" encoding="UTF-8" standalone="no"?>
<!DOCTYPE svg PUBLIC "-//W3C//DTD SVG 1.1//EN"
 "http://www.w3.org/Graphics/SVG/1.1/DTD/svg11.dtd">
<!-- Generated by graphviz version 14.0.1 (20251006.0113)
 -->
<!-- Title: com.bank.model.accounts.BusinessAccount Pages: 1 -->
<svg width="239pt" height="937pt"
 viewBox="0.00 0.00 239.00 937.00" xmlns="http://www.w3.org/2000/svg" xmlns:xlink="http://www.w3.org/1999/xlink">
<g id="graph0" class="graph" transform="scale(1 1) rotate(0) translate(4 933)">
<title>com.bank.model.accounts.BusinessAccount</title>
<!-- Node1 -->
<g id="Node000001" class="node">
<title>Node1</title>
<g id="a_Node000001"><a xlink:title="Represents a business (company) bank account with an additional monthly maintenance fee.">
<polygon fill="#999999" stroke="none" points="129.38,-128 3.62,-128 3.62,0 129.38,0 129.38,-128"/>
<text xml:space="preserve" text-anchor="start" x="7.62" y="-114.5" font-family="Helvetica,sans-Serif" font-size="10.00">com.bank.model.accounts.</text>
<text xml:space="preserve" text-anchor="start" x="28.25" y="-102.5" font-family="Helvetica,sans-Serif" font-size="10.00">BusinessAccount</text>
<text xml:space="preserve" text-anchor="start" x="65" y="-86.5" font-family="Helvetica,sans-Serif" font-size="10.00"> </text>
<text xml:space="preserve" text-anchor="start" x="9.62" y="-70.5" font-family="Helvetica,sans-Serif" font-size="10.00">+</text>
<text xml:space="preserve" text-anchor="start" x="21.62" y="-70.5" font-family="Helvetica,sans-Serif" font-size="10.00">BusinessAccount()</text>
<text xml:space="preserve" text-anchor="start" x="9.62" y="-54.5" font-family="Helvetica,sans-Serif" font-size="10.00">+</text>
<text xml:space="preserve" text-anchor="start" x="21.62" y="-54.5" font-family="Helvetica,sans-Serif" font-size="10.00">getMonthlyFee()</text>
<text xml:space="preserve" text-anchor="start" x="9.62" y="-38.5" font-family="Helvetica,sans-Serif" font-size="10.00">+</text>
<text xml:space="preserve" text-anchor="start" x="21.62" y="-38.5" font-family="Helvetica,sans-Serif" font-size="10.00">getAccountTypeCode()</text>
<text xml:space="preserve" text-anchor="start" x="9.62" y="-22.5" font-family="Helvetica,sans-Serif" font-size="10.00">+</text>
<text xml:space="preserve" text-anchor="start" x="21.62" y="-22.5" font-family="Helvetica,sans-Serif" font-size="10.00">marshal()</text>
<text xml:space="preserve" text-anchor="start" x="9.62" y="-6.5" font-family="Helvetica,sans-Serif" font-size="10.00">+</text>
<text xml:space="preserve" text-anchor="start" x="21.62" y="-6.5" font-family="Helvetica,sans-Serif" font-size="10.00">unmarshal()</text>
<polygon fill="#666666" stroke="#666666" points="3.62,-98 3.62,-98 129.38,-98 129.38,-98 3.62,-98"/>
<polygon fill="#666666" stroke="#666666" points="3.62,-82 3.62,-82 129.38,-82 129.38,-82 3.62,-82"/>
<polygon fill="none" stroke="#666666" points="3.62,0 3.62,-128 129.38,-128 129.38,0 3.62,0"/>
</a>
</g>
</g>
<!-- Node2 -->
<g id="Node000002" class="node">
<title>Node2</title>
<g id="a_Node000002"><a xlink:href="../../da/d83/classcom_1_1bank_1_1model_1_1accounts_1_1_account.html" target="_top" xlink:title="Abstract base class for bank accounts.">
<polygon fill="white" stroke="none" points="129.38,-501 3.62,-501 3.62,-165 129.38,-165 129.38,-501"/>
<text xml:space="preserve" text-anchor="start" x="7.62" y="-487.5" font-family="Helvetica,sans-Serif" font-size="10.00">com.bank.model.accounts.</text>
<text xml:space="preserve" text-anchor="start" x="48.5" y="-475.5" font-family="Helvetica,sans-Serif" font-size="10.00">Account</text>
<text xml:space="preserve" text-anchor="start" x="10" y="-459.5" font-family="Helvetica,sans-Serif" font-size="10.00">#</text>
<text xml:space="preserve" text-anchor="start" x="21.62" y="-459.5" font-family="Helvetica,sans-Serif" font-size="10.00">iban</text>
<text xml:space="preserve" text-anchor="start" x="10" y="-443.5" font-family="Helvetica,sans-Serif" font-size="10.00">#</text>
<text xml:space="preserve" text-anchor="start" x="21.62" y="-443.5" font-family="Helvetica,sans-Serif" font-size="10.00">balance</text>
<text xml:space="preserve" text-anchor="start" x="10" y="-427.5" font-family="Helvetica,sans-Serif" font-size="10.00">#</text>
<text xml:space="preserve" text-anchor="start" x="21.62" y="-427.5" font-family="Helvetica,sans-Serif" font-size="10.00">interestRate</text>
<text xml:space="preserve" text-anchor="start" x="10" y="-411.5" font-family="Helvetica,sans-Serif" font-size="10.00">#</text>
<text xml:space="preserve" text-anchor="start" x="21.62" y="-411.5" font-family="Helvetica,sans-Serif" font-size="10.00">dateCreated</text>
<text xml:space="preserve" text-anchor="start" x="9.62" y="-395.5" font-family="Helvetica,sans-Serif" font-size="10.00">+</text>
<text xml:space="preserve" text-anchor="start" x="21.62" y="-395.5" font-family="Helvetica,sans-Serif" font-size="10.00">Account()</text>
<text xml:space="preserve" text-anchor="start" x="9.62" y="-379.5" font-family="Helvetica,sans-Serif" font-size="10.00">+</text>
<text xml:space="preserve" text-anchor="start" x="21.62" y="-379.5" font-family="Helvetica,sans-Serif" font-size="10.00">getIban()</text>
<text xml:space="preserve" text-anchor="start" x="9.62" y="-363.5" font-family="Helvetica,sans-Serif" font-size="10.00">+</text>
<text xml:space="preserve" text-anchor="start" x="21.62" y="-363.5" font-family="Helvetica,sans-Serif" font-size="10.00">setIban()</text>
<text xml:space="preserve" text-anchor="start" x="9.62" y="-347.5" font-family="Helvetica,sans-Serif" font-size="10.00">+</text>
<text xml:space="preserve" text-anchor="start" x="21.62" y="-347.5" font-family="Helvetica,sans-Serif" font-size="10.00">getOwner()</text>
<text xml:space="preserve" text-anchor="start" x="9.62" y="-331.5" font-family="Helvetica,sans-Serif" font-size="10.00">+</text>
<text xml:space="preserve" text-anchor="start" x="21.62" y="-331.5" font-family="Helvetica,sans-Serif" font-size="10.00">getBalance()</text>
<text xml:space="preserve" text-anchor="start" x="9.62" y="-315.5" font-family="Helvetica,sans-Serif" font-size="10.00">+</text>
<text xml:space="preserve" text-anchor="start" x="21.62" y="-315.5" font-family="Helvetica,sans-Serif" font-size="10.00">getInterestRate()</text>
<text xml:space="preserve" text-anchor="start" x="9.62" y="-299.5" font-family="Helvetica,sans-Serif" font-size="10.00">+</text>
<text xml:space="preserve" text-anchor="start" x="21.62" y="-299.5" font-family="Helvetica,sans-Serif" font-size="10.00">deposit()</text>
<text xml:space="preserve" text-anchor="start" x="9.62" y="-283.5" font-family="Helvetica,sans-Serif" font-size="10.00">+</text>
<text xml:space="preserve" text-anchor="start" x="21.62" y="-283.5" font-family="Helvetica,sans-Serif" font-size="10.00">withdraw()</text>
<text xml:space="preserve" text-anchor="start" x="9.62" y="-267.5" font-family="Helvetica,sans-Serif" font-size="10.00">+</text>
<text xml:space="preserve" text-anchor="start" x="21.62" y="-267.5" font-family="Helvetica,sans-Serif" font-size="10.00">setBalance()</text>
<text xml:space="preserve" text-anchor="start" x="9.62" y="-251.5" font-family="Helvetica,sans-Serif" font-size="10.00">+</text>
<text xml:space="preserve" text-anchor="start" x="21.62" y="-251.5" font-family="Helvetica,sans-Serif" font-size="10.00">getDateCreated()</text>
<text xml:space="preserve" text-anchor="start" x="9.62" y="-235.5" font-family="Helvetica,sans-Serif" font-size="10.00">+</text>
<text xml:space="preserve" text-anchor="start" x="21.62" y="-235.5" font-family="Helvetica,sans-Serif" font-size="10.00">setDateCreated()</text>
<text xml:space="preserve" text-anchor="start" x="9.62" y="-219.5" font-family="Helvetica,sans-Serif" font-size="10.00">+</text>
<text xml:space="preserve" text-anchor="start" x="21.62" y="-219.5" font-family="Helvetica,sans-Serif" font-size="10.00">getAccountTypeCode()</text>
<text xml:space="preserve" text-anchor="start" x="9.62" y="-203.5" font-family="Helvetica,sans-Serif" font-size="10.00">+</text>
<text xml:space="preserve" text-anchor="start" x="21.62" y="-203.5" font-family="Helvetica,sans-Serif" font-size="10.00">marshal()</text>
<text xml:space="preserve" text-anchor="start" x="9.62" y="-187.5" font-family="Helvetica,sans-Serif" font-size="10.00">+</text>
<text xml:space="preserve" text-anchor="start" x="21.62" y="-187.5" font-family="Helvetica,sans-Serif" font-size="10.00">unmarshal()</text>
<text xml:space="preserve" text-anchor="start" x="9.62" y="-171.5" font-family="Helvetica,sans-Serif" font-size="10.00">+</text>
<text xml:space="preserve" text-anchor="start" x="21.62" y="-171.5" font-family="Helvetica,sans-Serif" font-size="10.00">generateIBAN()</text>
<polygon fill="#666666" stroke="#666666" points="3.62,-471 3.62,-471 129.38,-471 129.38,-471 3.62,-471"/>
<polygon fill="#666666" stroke="#666666" points="3.62,-407 3.62,-407 19.62,-407 19.62,-407 3.62,-407"/>
<polygon fill="#666666" stroke="#666666" points="19.62,-407 19.62,-407 129.38,-407 129.38,-407 19.62,-407"/>
<polygon fill="none" stroke="#666666" points="3.62,-165 3.62,-501 129.38,-501 129.38,-165 3.62,-165"/>
</a>
</g>
</g>
<!-- Node2&#45;&gt;Node1 -->
<g id="edge1_Node000001_Node000002" class="edge">
<title>Node2&#45;&gt;Node1</title>
<g id="a_edge1_Node000001_Node000002"><a xlink:title=" ">
<path fill="none" stroke="#63b8ff" d="M66.5,-153.67C66.5,-144.71 66.5,-136.05 66.5,-127.88"/>
<polygon fill="none" stroke="#63b8ff" points="63,-153.67 66.5,-163.67 70,-153.67 63,-153.67"/>
</a>
</g>
</g>
<!-- Node3 -->
<g id="Node000003" class="node">
<title>Node3</title>
<g id="a_Node000003"><a xlink:href="../../dd/d8c/interfacecom_1_1bank_1_1storage_1_1_storable.html" target="_top" xlink:title="Defines the serialization and deserialization behavior for persistent objects.">
<polygon fill="white" stroke="none" points="125,-929 0,-929 0,-861 125,-861 125,-929"/>
<text xml:space="preserve" text-anchor="start" x="4" y="-915.5" font-family="Helvetica,sans-Serif" font-size="10.00">com.bank.storage.Storable</text>
<text xml:space="preserve" text-anchor="start" x="61" y="-899.5" font-family="Helvetica,sans-Serif" font-size="10.00"> </text>
<text xml:space="preserve" text-anchor="start" x="18" y="-883.5" font-family="Helvetica,sans-Serif" font-size="10.00">+</text>
<text xml:space="preserve" text-anchor="start" x="42" y="-883.5" font-family="Helvetica,sans-Serif" font-size="10.00">marshal()</text>
<text xml:space="preserve" text-anchor="start" x="18" y="-867.5" font-family="Helvetica,sans-Serif" font-size="10.00">+</text>
<text xml:space="preserve" text-anchor="start" x="42" y="-867.5" font-family="Helvetica,sans-Serif" font-size="10.00">unmarshal()</text>
<polygon fill="#666666" stroke="#666666" points="0,-911 0,-911 125,-911 125,-911 0,-911"/>
<polygon fill="#666666" stroke="#666666" points="0,-895 0,-895 125,-895 125,-895 0,-895"/>
<polygon fill="none" stroke="#666666" points="0,-861 0,-929 125,-929 125,-861 0,-861"/>
</a>
</g>
</g>
<!-- Node3&#45;&gt;Node2 -->
<g id="edge2_Node000002_Node000003" class="edge">
<title>Node3&#45;&gt;Node2</title>
<g id="a_edge2_Node000002_Node000003"><a xlink:title=" ">
<path fill="none" stroke="#63b8ff" d="M62.82,-849.81C63.35,-775.37 64.45,-621.3 65.31,-500.83"/>
<polygon fill="none" stroke="#63b8ff" points="59.32,-849.52 62.75,-859.55 66.32,-849.57 59.32,-849.52"/>
</a>
</g>
</g>
<!-- Node5 -->
<g id="Node000005" class="node">
<title>Node5</title>
<g id="a_Node000005"><a xlink:href="../../dd/dee/classcom_1_1bank_1_1model_1_1users_1_1_user.html" target="_top" xlink:title="Abstract base class for all user types in the banking system.">
<polygon fill="white" stroke="none" points="215,-824 84,-824 84,-660 215,-660 215,-824"/>
<text xml:space="preserve" text-anchor="start" x="88" y="-810.5" font-family="Helvetica,sans-Serif" font-size="10.00">com.bank.model.users.User</text>
<text xml:space="preserve" text-anchor="start" x="97.69" y="-794.5" font-family="Helvetica,sans-Serif" font-size="10.00">#</text>
<text xml:space="preserve" text-anchor="start" x="116.62" y="-794.5" font-family="Helvetica,sans-Serif" font-size="10.00">username</text>
<text xml:space="preserve" text-anchor="start" x="97.69" y="-778.5" font-family="Helvetica,sans-Serif" font-size="10.00">#</text>
<text xml:space="preserve" text-anchor="start" x="116.62" y="-778.5" font-family="Helvetica,sans-Serif" font-size="10.00">password</text>
<text xml:space="preserve" text-anchor="start" x="97.69" y="-762.5" font-family="Helvetica,sans-Serif" font-size="10.00">#</text>
<text xml:space="preserve" text-anchor="start" x="116.62" y="-762.5" font-family="Helvetica,sans-Serif" font-size="10.00">fullName</text>
<text xml:space="preserve" text-anchor="start" x="97.31" y="-746.5" font-family="Helvetica,sans-Serif" font-size="10.00">+</text>
<text xml:space="preserve" text-anchor="start" x="116.62" y="-746.5" font-family="Helvetica,sans-Serif" font-size="10.00">User()</text>
<text xml:space="preserve" text-anchor="start" x="97.31" y="-730.5" font-family="Helvetica,sans-Serif" font-size="10.00">+</text>
<text xml:space="preserve" text-anchor="start" x="116.62" y="-730.5" font-family="Helvetica,sans-Serif" font-size="10.00">getRole()</text>
<text xml:space="preserve" text-anchor="start" x="97.31" y="-714.5" font-family="Helvetica,sans-Serif" font-size="10.00">+</text>
<text xml:space="preserve" text-anchor="start" x="116.62" y="-714.5" font-family="Helvetica,sans-Serif" font-size="10.00">getUsername()</text>
<text xml:space="preserve" text-anchor="start" x="97.31" y="-698.5" font-family="Helvetica,sans-Serif" font-size="10.00">+</text>
<text xml:space="preserve" text-anchor="start" x="116.62" y="-698.5" font-family="Helvetica,sans-Serif" font-size="10.00">getPassword()</text>
<text xml:space="preserve" text-anchor="start" x="97.31" y="-682.5" font-family="Helvetica,sans-Serif" font-size="10.00">+</text>
<text xml:space="preserve" text-anchor="start" x="116.62" y="-682.5" font-family="Helvetica,sans-Serif" font-size="10.00">getFullName()</text>
<text xml:space="preserve" text-anchor="start" x="97.31" y="-666.5" font-family="Helvetica,sans-Serif" font-size="10.00">+</text>
<text xml:space="preserve" text-anchor="start" x="116.62" y="-666.5" font-family="Helvetica,sans-Serif" font-size="10.00">checkPassword()</text>
<polygon fill="#666666" stroke="#666666" points="84,-806 84,-806 215,-806 215,-806 84,-806"/>
<polygon fill="#666666" stroke="#666666" points="84,-758 84,-758 114.62,-758 114.62,-758 84,-758"/>
<polygon fill="#666666" stroke="#666666" points="114.62,-758 114.62,-758 215,-758 215,-758 114.62,-758"/>
<polygon fill="none" stroke="#666666" points="84,-660 84,-824 215,-824 215,-660 84,-660"/>
</a>
</g>
</g>
<!-- Node3&#45;&gt;Node5 -->
<g id="edge5_Node000005_Node000003" class="edge">
<title>Node3&#45;&gt;Node5</title>
<g id="a_edge5_Node000005_Node000003"><a xlink:title=" ">
<path fill="none" stroke="#63b8ff" d="M87.05,-851.39C92.07,-842.68 97.5,-833.26 102.99,-823.72"/>
<polygon fill="none" stroke="#63b8ff" points="84.09,-849.51 82.13,-859.92 90.16,-853.01 84.09,-849.51"/>
</a>
</g>
</g>
<!-- Node4 -->
<g id="Node000004" class="node">
<title>Node4</title>
<g id="a_Node000004"><a xlink:href="../../dd/d5f/classcom_1_1bank_1_1model_1_1users_1_1_customer.html" target="_top" xlink:title="Abstract base class representing a general bank customer.">
<polygon fill="white" stroke="none" points="230.88,-623 78.12,-623 78.12,-555 230.88,-555 230.88,-623"/>
<text xml:space="preserve" text-anchor="start" x="82.12" y="-609.5" font-family="Helvetica,sans-Serif" font-size="10.00">com.bank.model.users.Customer</text>
<text xml:space="preserve" text-anchor="start" x="104" y="-593.5" font-family="Helvetica,sans-Serif" font-size="10.00">#</text>
<text xml:space="preserve" text-anchor="start" x="135.12" y="-593.5" font-family="Helvetica,sans-Serif" font-size="10.00">vat</text>
<text xml:space="preserve" text-anchor="start" x="103.62" y="-577.5" font-family="Helvetica,sans-Serif" font-size="10.00">+</text>
<text xml:space="preserve" text-anchor="start" x="135.12" y="-577.5" font-family="Helvetica,sans-Serif" font-size="10.00">Customer()</text>
<text xml:space="preserve" text-anchor="start" x="103.62" y="-561.5" font-family="Helvetica,sans-Serif" font-size="10.00">+</text>
<text xml:space="preserve" text-anchor="start" x="135.12" y="-561.5" font-family="Helvetica,sans-Serif" font-size="10.00">getVat()</text>
<polygon fill="#666666" stroke="#666666" points="78.12,-605 78.12,-605 230.88,-605 230.88,-605 78.12,-605"/>
<polygon fill="#666666" stroke="#666666" points="78.12,-589 78.12,-589 133.12,-589 133.12,-589 78.12,-589"/>
<polygon fill="#666666" stroke="#666666" points="133.12,-589 133.12,-589 230.88,-589 230.88,-589 133.12,-589"/>
<polygon fill="none" stroke="#666666" points="78.12,-555 78.12,-623 230.88,-623 230.88,-555 78.12,-555"/>
</a>
</g>
</g>
<!-- Node4&#45;&gt;Node2 -->
<g id="edge3_Node000002_Node000004" class="edge">
<title>Node4&#45;&gt;Node2</title>
<g id="a_edge3_Node000002_Node000004"><a xlink:title=" ">
<path fill="none" stroke="#63b8ff" d="M143.09,-555.05C138.97,-543.18 133.99,-528.81 128.57,-513.17"/>
<polygon fill="none" stroke="#63b8ff" points="128.57,-513.16 122.83,-508.8 124.64,-501.82 130.39,-506.18 128.57,-513.16"/>
</a>
</g>
<text xml:space="preserve" text-anchor="start" x="138.49" y="-524.5" font-family="Helvetica,sans-Serif" font-size="10.00" fill="grey">#owner</text>
</g>
<!-- Node5&#45;&gt;Node4 -->
<g id="edge4_Node000004_Node000005" class="edge">
<title>Node5&#45;&gt;Node4</title>
<g id="a_edge4_Node000004_Node000005"><a xlink:title=" ">
<path fill="none" stroke="#63b8ff" d="M152.55,-648.86C152.86,-639.67 153.15,-630.83 153.41,-622.92"/>
<polygon fill="none" stroke="#63b8ff" points="149.06,-648.57 152.23,-658.68 156.05,-648.8 149.06,-648.57"/>
</a>
</g>
</g>
</g>
</svg>
