<?xml version="1.0" encoding="UTF-8" standalone="no"?>
<!DOCTYPE svg PUBLIC "-//W3C//DTD SVG 1.1//EN"
 "http://www.w3.org/Graphics/SVG/1.1/DTD/svg11.dtd">
<!-- Generated by graphviz version 14.0.1 (20251006.0113)
 -->
<!-- Title: com.bank.model.accounts.BusinessAccount.marshal Pages: 1 -->
<svg width="369pt" height="278pt"
 viewBox="0.00 0.00 369.00 278.00" xmlns="http://www.w3.org/2000/svg" xmlns:xlink="http://www.w3.org/1999/xlink">
<g id="graph0" class="graph" transform="scale(1 1) rotate(0) translate(4 274)">
<title>com.bank.model.accounts.BusinessAccount.marshal</title>
<!-- Node1 -->
<g id="Node000001" class="node">
<title>Node1</title>
<g id="a_Node000001"><a xlink:title="Serializes this business account into a single&#45;line key&#45;value string.">
<polygon fill="#999999" stroke="#666666" points="133.75,-145 0,-145 0,-113 133.75,-113 133.75,-145"/>
<text xml:space="preserve" text-anchor="start" x="8" y="-131.5" font-family="Helvetica,sans-Serif" font-size="10.00">com.bank.model.accounts.</text>
<text xml:space="preserve" text-anchor="middle" x="66.88" y="-119.5" font-family="Helvetica,sans-Serif" font-size="10.00">BusinessAccount.marshal</text>
</a>
</g>
</g>
<!-- Node2 -->
<g id="Node000002" class="node">
<title>Node2</title>
<g id="a_Node000002"><a xlink:href="../../da/d83/classcom_1_1bank_1_1model_1_1accounts_1_1_account.html#a9fb33a39fa4b91e75fc66a93ff23ae8b" target="_top" xlink:title=" ">
<polygon fill="white" stroke="#666666" points="332.38,-270 198.62,-270 198.62,-238 332.38,-238 332.38,-270"/>
<text xml:space="preserve" text-anchor="start" x="206.62" y="-256.5" font-family="Helvetica,sans-Serif" font-size="10.00">com.bank.model.accounts.</text>
<text xml:space="preserve" text-anchor="middle" x="265.5" y="-244.5" font-family="Helvetica,sans-Serif" font-size="10.00">Account.getBalance</text>
</a>
</g>
</g>
<!-- Node1&#45;&gt;Node2 -->
<g id="edge1_Node000001_Node000002" class="edge">
<title>Node1&#45;&gt;Node2</title>
<g id="a_edge1_Node000001_Node000002"><a xlink:title=" ">
<path fill="none" stroke="#63b8ff" d="M80.1,-145.5C97.51,-167.81 131.62,-207.32 169.75,-229 175.43,-232.23 181.55,-235.06 187.83,-237.53"/>
<polygon fill="#63b8ff" stroke="#63b8ff" points="186.51,-240.77 197.1,-240.84 188.87,-234.18 186.51,-240.77"/>
</a>
</g>
</g>
<!-- Node3 -->
<g id="Node000003" class="node">
<title>Node3</title>
<g id="a_Node000003"><a xlink:href="../../da/d83/classcom_1_1bank_1_1model_1_1accounts_1_1_account.html#a38981f8e6e13e82b7135c3b57bd2bba0" target="_top" xlink:title=" ">
<polygon fill="white" stroke="#666666" points="332.38,-220 198.62,-220 198.62,-188 332.38,-188 332.38,-220"/>
<text xml:space="preserve" text-anchor="start" x="206.62" y="-206.5" font-family="Helvetica,sans-Serif" font-size="10.00">com.bank.model.accounts.</text>
<text xml:space="preserve" text-anchor="middle" x="265.5" y="-194.5" font-family="Helvetica,sans-Serif" font-size="10.00">Account.getIban</text>
</a>
</g>
</g>
<!-- Node1&#45;&gt;Node3 -->
<g id="edge2_Node000001_Node000003" class="edge">
<title>Node1&#45;&gt;Node3</title>
<g id="a_edge2_Node000001_Node000003"><a xlink:title=" ">
<path fill="none" stroke="#63b8ff" d="M97.5,-145.48C117.46,-156.11 144.65,-169.63 169.75,-179 175.43,-181.12 181.36,-183.13 187.37,-185.03"/>
<polygon fill="#63b8ff" stroke="#63b8ff" points="186.19,-188.33 196.77,-187.87 188.21,-181.63 186.19,-188.33"/>
</a>
</g>
</g>
<!-- Node4 -->
<g id="Node000004" class="node">
<title>Node4</title>
<g id="a_Node000004"><a xlink:href="../../da/d83/classcom_1_1bank_1_1model_1_1accounts_1_1_account.html#abd3a8790eb24586225bf658df9304f05" target="_top" xlink:title=" ">
<polygon fill="white" stroke="#666666" points="332.38,-170 198.62,-170 198.62,-138 332.38,-138 332.38,-170"/>
<text xml:space="preserve" text-anchor="start" x="206.62" y="-156.5" font-family="Helvetica,sans-Serif" font-size="10.00">com.bank.model.accounts.</text>
<text xml:space="preserve" text-anchor="middle" x="265.5" y="-144.5" font-family="Helvetica,sans-Serif" font-size="10.00">Account.getInterestRate</text>
</a>
</g>
</g>
<!-- Node1&#45;&gt;Node4 -->
<g id="edge3_Node000001_Node000004" class="edge">
<title>Node1&#45;&gt;Node4</title>
<g id="a_edge3_Node000001_Node000004"><a xlink:title=" ">
<path fill="none" stroke="#63b8ff" d="M134.17,-137.43C151.09,-139.58 169.43,-141.91 186.86,-144.13"/>
<polygon fill="#63b8ff" stroke="#63b8ff" points="186.3,-147.58 196.66,-145.37 187.18,-140.64 186.3,-147.58"/>
</a>
</g>
</g>
<!-- Node5 -->
<g id="Node000005" class="node">
<title>Node5</title>
<g id="a_Node000005"><a xlink:href="../../d3/d75/classcom_1_1bank_1_1model_1_1accounts_1_1_business_account.html#a77edf1465446afdaebf92c5344d11ffe" target="_top" xlink:title="Returns the monthly maintenance fee of this account.">
<polygon fill="white" stroke="#666666" points="345.5,-120 185.5,-120 185.5,-88 345.5,-88 345.5,-120"/>
<text xml:space="preserve" text-anchor="start" x="193.5" y="-106.5" font-family="Helvetica,sans-Serif" font-size="10.00">com.bank.model.accounts.</text>
<text xml:space="preserve" text-anchor="middle" x="265.5" y="-94.5" font-family="Helvetica,sans-Serif" font-size="10.00">BusinessAccount.getMonthlyFee</text>
</a>
</g>
</g>
<!-- Node1&#45;&gt;Node5 -->
<g id="edge4_Node000001_Node000005" class="edge">
<title>Node1&#45;&gt;Node5</title>
<g id="a_edge4_Node000001_Node000005"><a xlink:title=" ">
<path fill="none" stroke="#63b8ff" d="M134.17,-120.57C146.97,-118.94 160.59,-117.21 174.01,-115.51"/>
<polygon fill="#63b8ff" stroke="#63b8ff" points="174.24,-119 183.72,-114.27 173.35,-112.06 174.24,-119"/>
</a>
</g>
</g>
<!-- Node6 -->
<g id="Node000006" class="node">
<title>Node6</title>
<g id="a_Node000006"><a xlink:href="../../da/d83/classcom_1_1bank_1_1model_1_1accounts_1_1_account.html#a2fa464e8efa1047ae0452e57c2bbfc57" target="_top" xlink:title=" ">
<polygon fill="white" stroke="#666666" points="332.38,-70 198.62,-70 198.62,-38 332.38,-38 332.38,-70"/>
<text xml:space="preserve" text-anchor="start" x="206.62" y="-56.5" font-family="Helvetica,sans-Serif" font-size="10.00">com.bank.model.accounts.</text>
<text xml:space="preserve" text-anchor="middle" x="265.5" y="-44.5" font-family="Helvetica,sans-Serif" font-size="10.00">Account.getOwner</text>
</a>
</g>
</g>
<!-- Node1&#45;&gt;Node6 -->
<g id="edge5_Node000001_Node000006" class="edge">
<title>Node1&#45;&gt;Node6</title>
<g id="a_edge5_Node000001_Node000006"><a xlink:title=" ">
<path fill="none" stroke="#63b8ff" d="M97.5,-112.52C117.46,-101.89 144.65,-88.37 169.75,-79 175.43,-76.88 181.36,-74.87 187.37,-72.97"/>
<polygon fill="#63b8ff" stroke="#63b8ff" points="188.21,-76.37 196.77,-70.13 186.19,-69.67 188.21,-76.37"/>
</a>
</g>
</g>
<!-- Node7 -->
<g id="Node000007" class="node">
<title>Node7</title>
<g id="a_Node000007"><a xlink:href="../../dd/d5f/classcom_1_1bank_1_1model_1_1users_1_1_customer.html#a5bf723beb2c45823230bf1db33e927ef" target="_top" xlink:title="Returns the VAT (ΑΦΜ) of the customer.">
<polygon fill="white" stroke="#666666" points="361.25,-20 169.75,-20 169.75,0 361.25,0 361.25,-20"/>
<text xml:space="preserve" text-anchor="middle" x="265.5" y="-6.5" font-family="Helvetica,sans-Serif" font-size="10.00">com.bank.model.users.Customer.getVat</text>
</a>
</g>
</g>
<!-- Node1&#45;&gt;Node7 -->
<g id="edge6_Node000001_Node000007" class="edge">
<title>Node1&#45;&gt;Node7</title>
<g id="a_edge6_Node000001_Node000007"><a xlink:title=" ">
<path fill="none" stroke="#63b8ff" d="M79.63,-112.56C96.74,-89.93 130.76,-49.64 169.75,-29 173.01,-27.27 176.41,-25.7 179.9,-24.27"/>
<polygon fill="#63b8ff" stroke="#63b8ff" points="180.97,-27.61 189.18,-20.92 178.59,-21.03 180.97,-27.61"/>
</a>
</g>
</g>
</g>
</svg>
