<?xml version="1.0" encoding="UTF-8" standalone="no"?>
<!DOCTYPE svg PUBLIC "-//W3C//DTD SVG 1.1//EN"
 "http://www.w3.org/Graphics/SVG/1.1/DTD/svg11.dtd">
<!-- Generated by graphviz version 14.0.1 (20251006.0113)
 -->
<!-- Title: gui/view/panel/AccountsPanel.java Pages: 1 -->
<svg width="711pt" height="96pt"
 viewBox="0.00 0.00 711.00 96.00" xmlns="http://www.w3.org/2000/svg" xmlns:xlink="http://www.w3.org/1999/xlink">
<g id="graph0" class="graph" transform="scale(1 1) rotate(0) translate(4 92)">
<title>gui/view/panel/AccountsPanel.java</title>
<!-- Node1 -->
<g id="Node000001" class="node">
<title>Node1</title>
<g id="a_Node000001"><a xlink:title=" ">
<polygon fill="#999999" stroke="#666666" points="348.38,-88 180.12,-88 180.12,-68 348.38,-68 348.38,-88"/>
<text xml:space="preserve" text-anchor="middle" x="264.25" y="-74.5" font-family="Helvetica,sans-Serif" font-size="10.00">gui/view/panel/AccountsPanel.java</text>
</a>
</g>
</g>
<!-- Node2 -->
<g id="Node000002" class="node">
<title>Node2</title>
<g id="a_Node000002"><a xlink:title=" ">
<polygon fill="#e0e0e0" stroke="#999999" points="74.5,-26 0,-26 0,-6 74.5,-6 74.5,-26"/>
<text xml:space="preserve" text-anchor="middle" x="37.25" y="-12.5" font-family="Helvetica,sans-Serif" font-size="10.00">javax.swing.*</text>
</a>
</g>
</g>
<!-- Node1&#45;&gt;Node2 -->
<g id="edge1_Node000001_Node000002" class="edge">
<title>Node1&#45;&gt;Node2</title>
<g id="a_edge1_Node000001_Node000002"><a xlink:title=" ">
<path fill="none" stroke="#63b8ff" d="M222.69,-67.56C185.86,-58.98 130.71,-45.62 83.25,-32 80.82,-31.3 78.33,-30.56 75.82,-29.8"/>
<polygon fill="#63b8ff" stroke="#63b8ff" points="76.91,-26.47 66.33,-26.82 74.82,-33.15 76.91,-26.47"/>
</a>
</g>
</g>
<!-- Node3 -->
<g id="Node000003" class="node">
<title>Node3</title>
<g id="a_Node000003"><a xlink:title=" ">
<polygon fill="#e0e0e0" stroke="#999999" points="152,-26 92.5,-26 92.5,-6 152,-6 152,-26"/>
<text xml:space="preserve" text-anchor="middle" x="122.25" y="-12.5" font-family="Helvetica,sans-Serif" font-size="10.00">java.awt.*</text>
</a>
</g>
</g>
<!-- Node1&#45;&gt;Node3 -->
<g id="edge2_Node000001_Node000003" class="edge">
<title>Node1&#45;&gt;Node3</title>
<g id="a_edge2_Node000001_Node000003"><a xlink:title=" ">
<path fill="none" stroke="#63b8ff" d="M242.06,-67.62C218.62,-57.72 181.4,-41.99 154.67,-30.7"/>
<polygon fill="#63b8ff" stroke="#63b8ff" points="156.25,-27.57 145.68,-26.9 153.53,-34.01 156.25,-27.57"/>
</a>
</g>
</g>
<!-- Node4 -->
<g id="Node000004" class="node">
<title>Node4</title>
<g id="a_Node000004"><a xlink:title=" ">
<polygon fill="#e0e0e0" stroke="#999999" points="238.5,-26 170,-26 170,-6 238.5,-6 238.5,-26"/>
<text xml:space="preserve" text-anchor="middle" x="204.25" y="-12.5" font-family="Helvetica,sans-Serif" font-size="10.00">java.util.List</text>
</a>
</g>
</g>
<!-- Node1&#45;&gt;Node4 -->
<g id="edge3_Node000001_Node000004" class="edge">
<title>Node1&#45;&gt;Node4</title>
<g id="a_edge3_Node000001_Node000004"><a xlink:title=" ">
<path fill="none" stroke="#63b8ff" d="M254.88,-67.62C245.93,-58.68 232.24,-44.99 221.35,-34.1"/>
<polygon fill="#63b8ff" stroke="#63b8ff" points="223.98,-31.78 214.43,-27.18 219.03,-36.73 223.98,-31.78"/>
</a>
</g>
</g>
<!-- Node5 -->
<g id="Node000005" class="node">
<title>Node5</title>
<g id="a_Node000005"><a xlink:title=" ">
<polygon fill="#e0e0e0" stroke="#999999" points="394.38,-32 256.12,-32 256.12,0 394.38,0 394.38,-32"/>
<text xml:space="preserve" text-anchor="start" x="264.12" y="-18.5" font-family="Helvetica,sans-Serif" font-size="10.00">com.bank.manager.Account</text>
<text xml:space="preserve" text-anchor="middle" x="325.25" y="-6.5" font-family="Helvetica,sans-Serif" font-size="10.00">Manager</text>
</a>
</g>
</g>
<!-- Node1&#45;&gt;Node5 -->
<g id="edge4_Node000001_Node000005" class="edge">
<title>Node1&#45;&gt;Node5</title>
<g id="a_edge4_Node000001_Node000005"><a xlink:title=" ">
<path fill="none" stroke="#63b8ff" d="M273.78,-67.62C281.25,-60.28 291.96,-49.75 301.68,-40.19"/>
<polygon fill="#63b8ff" stroke="#63b8ff" points="304.1,-42.71 308.78,-33.2 299.19,-37.72 304.1,-42.71"/>
</a>
</g>
</g>
<!-- Node6 -->
<g id="Node000006" class="node">
<title>Node6</title>
<g id="a_Node000006"><a xlink:title=" ">
<polygon fill="#e0e0e0" stroke="#999999" points="546.12,-32 412.38,-32 412.38,0 546.12,0 546.12,-32"/>
<text xml:space="preserve" text-anchor="start" x="420.38" y="-18.5" font-family="Helvetica,sans-Serif" font-size="10.00">com.bank.model.accounts.</text>
<text xml:space="preserve" text-anchor="middle" x="479.25" y="-6.5" font-family="Helvetica,sans-Serif" font-size="10.00">Account</text>
</a>
</g>
</g>
<!-- Node1&#45;&gt;Node6 -->
<g id="edge5_Node000001_Node000006" class="edge">
<title>Node1&#45;&gt;Node6</title>
<g id="a_edge5_Node000001_Node000006"><a xlink:title=" ">
<path fill="none" stroke="#63b8ff" d="M297.84,-67.62C328.48,-59.08 374.64,-46.19 412.72,-35.57"/>
<polygon fill="#63b8ff" stroke="#63b8ff" points="413.59,-38.96 422.28,-32.9 411.71,-32.21 413.59,-38.96"/>
</a>
</g>
</g>
<!-- Node7 -->
<g id="Node000007" class="node">
<title>Node7</title>
<g id="a_Node000007"><a xlink:title=" ">
<polygon fill="#e0e0e0" stroke="#999999" points="702.75,-26 563.75,-26 563.75,-6 702.75,-6 702.75,-26"/>
<text xml:space="preserve" text-anchor="middle" x="633.25" y="-12.5" font-family="Helvetica,sans-Serif" font-size="10.00">com.bank.model.users.User</text>
</a>
</g>
</g>
<!-- Node1&#45;&gt;Node7 -->
<g id="edge6_Node000001_Node000007" class="edge">
<title>Node1&#45;&gt;Node7</title>
<g id="a_edge6_Node000001_Node000007"><a xlink:title=" ">
<path fill="none" stroke="#63b8ff" d="M329.95,-67.54C389,-58.87 478.06,-45.39 555.25,-32 561.52,-30.91 568.06,-29.73 574.57,-28.52"/>
<polygon fill="#63b8ff" stroke="#63b8ff" points="574.78,-32.05 583.96,-26.76 573.49,-25.17 574.78,-32.05"/>
</a>
</g>
</g>
</g>
</svg>
