<?xml version="1.0" encoding="UTF-8" standalone="no"?>
<!DOCTYPE svg PUBLIC "-//W3C//DTD SVG 1.1//EN"
 "http://www.w3.org/Graphics/SVG/1.1/DTD/svg11.dtd">
<!-- Generated by graphviz version 14.0.1 (20251006.0113)
 -->
<!-- Title: gui/view/panel/AdminSimulateTimePanel.java Pages: 1 -->
<svg width="1044pt" height="108pt"
 viewBox="0.00 0.00 1044.00 108.00" xmlns="http://www.w3.org/2000/svg" xmlns:xlink="http://www.w3.org/1999/xlink">
<g id="graph0" class="graph" transform="scale(1 1) rotate(0) translate(4 104)">
<title>gui/view/panel/AdminSimulateTimePanel.java</title>
<!-- Node1 -->
<g id="Node000001" class="node">
<title>Node1</title>
<g id="a_Node000001"><a xlink:title=" ">
<polygon fill="#999999" stroke="#666666" points="664.62,-100 517.38,-100 517.38,-68 664.62,-68 664.62,-100"/>
<text xml:space="preserve" text-anchor="start" x="525.38" y="-86.5" font-family="Helvetica,sans-Serif" font-size="10.00">gui/view/panel/AdminSimulate</text>
<text xml:space="preserve" text-anchor="middle" x="591" y="-74.5" font-family="Helvetica,sans-Serif" font-size="10.00">TimePanel.java</text>
</a>
</g>
</g>
<!-- Node2 -->
<g id="Node000002" class="node">
<title>Node2</title>
<g id="a_Node000002"><a xlink:title=" ">
<polygon fill="#e0e0e0" stroke="#999999" points="106,-26 0,-26 0,-6 106,-6 106,-26"/>
<text xml:space="preserve" text-anchor="middle" x="53" y="-12.5" font-family="Helvetica,sans-Serif" font-size="10.00">com.bank.manager.*</text>
</a>
</g>
</g>
<!-- Node1&#45;&gt;Node2 -->
<g id="edge1_Node000001_Node000002" class="edge">
<title>Node1&#45;&gt;Node2</title>
<g id="a_edge1_Node000001_Node000002"><a xlink:title=" ">
<path fill="none" stroke="#63b8ff" d="M517.2,-78.1C423.27,-71.17 256.25,-56.55 115,-32 110.02,-31.13 104.84,-30.1 99.69,-28.98"/>
<polygon fill="#63b8ff" stroke="#63b8ff" points="100.57,-25.6 90.05,-26.78 99.02,-32.42 100.57,-25.6"/>
</a>
</g>
</g>
<!-- Node3 -->
<g id="Node000003" class="node">
<title>Node3</title>
<g id="a_Node000003"><a xlink:title=" ">
<polygon fill="#e0e0e0" stroke="#999999" points="257.88,-32 124.12,-32 124.12,0 257.88,0 257.88,-32"/>
<text xml:space="preserve" text-anchor="start" x="132.12" y="-18.5" font-family="Helvetica,sans-Serif" font-size="10.00">com.bank.model.accounts.</text>
<text xml:space="preserve" text-anchor="middle" x="191" y="-6.5" font-family="Helvetica,sans-Serif" font-size="10.00">Account</text>
</a>
</g>
</g>
<!-- Node1&#45;&gt;Node3 -->
<g id="edge2_Node000001_Node000003" class="edge">
<title>Node1&#45;&gt;Node3</title>
<g id="a_edge2_Node000001_Node000003"><a xlink:title=" ">
<path fill="none" stroke="#63b8ff" d="M517.2,-72.21C454.01,-62.79 360.31,-48.37 269.21,-32.35"/>
<polygon fill="#63b8ff" stroke="#63b8ff" points="270.06,-28.95 259.6,-30.66 268.84,-35.84 270.06,-28.95"/>
</a>
</g>
</g>
<!-- Node4 -->
<g id="Node000004" class="node">
<title>Node4</title>
<g id="a_Node000004"><a xlink:title=" ">
<polygon fill="#e0e0e0" stroke="#999999" points="409.88,-32 276.12,-32 276.12,0 409.88,0 409.88,-32"/>
<text xml:space="preserve" text-anchor="start" x="284.12" y="-18.5" font-family="Helvetica,sans-Serif" font-size="10.00">com.bank.model.accounts.</text>
<text xml:space="preserve" text-anchor="middle" x="343" y="-6.5" font-family="Helvetica,sans-Serif" font-size="10.00">BusinessAccount</text>
</a>
</g>
</g>
<!-- Node1&#45;&gt;Node4 -->
<g id="edge3_Node000001_Node000004" class="edge">
<title>Node1&#45;&gt;Node4</title>
<g id="a_edge3_Node000001_Node000004"><a xlink:title=" ">
<path fill="none" stroke="#63b8ff" d="M532.86,-67.53C496.76,-57.92 450.18,-45.52 412.19,-35.41"/>
<polygon fill="#63b8ff" stroke="#63b8ff" points="413.24,-32.07 402.67,-32.88 411.44,-38.83 413.24,-32.07"/>
</a>
</g>
</g>
<!-- Node5 -->
<g id="Node000005" class="node">
<title>Node5</title>
<g id="a_Node000005"><a xlink:title=" ">
<polygon fill="#e0e0e0" stroke="#999999" points="587.62,-32 428.38,-32 428.38,0 587.62,0 587.62,-32"/>
<text xml:space="preserve" text-anchor="start" x="436.38" y="-18.5" font-family="Helvetica,sans-Serif" font-size="10.00">com.bank.model.orders.Standing</text>
<text xml:space="preserve" text-anchor="middle" x="508" y="-6.5" font-family="Helvetica,sans-Serif" font-size="10.00">Order</text>
</a>
</g>
</g>
<!-- Node1&#45;&gt;Node5 -->
<g id="edge4_Node000001_Node000005" class="edge">
<title>Node1&#45;&gt;Node5</title>
<g id="a_edge4_Node000001_Node000005"><a xlink:title=" ">
<path fill="none" stroke="#63b8ff" d="M571.75,-67.69C561.24,-59.34 548.04,-48.84 536.38,-39.56"/>
<polygon fill="#63b8ff" stroke="#63b8ff" points="538.62,-36.88 528.62,-33.4 534.27,-42.36 538.62,-36.88"/>
</a>
</g>
</g>
<!-- Node6 -->
<g id="Node000006" class="node">
<title>Node6</title>
<g id="a_Node000006"><a xlink:title=" ">
<polygon fill="#e0e0e0" stroke="#999999" points="744.5,-26 605.5,-26 605.5,-6 744.5,-6 744.5,-26"/>
<text xml:space="preserve" text-anchor="middle" x="675" y="-12.5" font-family="Helvetica,sans-Serif" font-size="10.00">com.bank.model.users.User</text>
</a>
</g>
</g>
<!-- Node1&#45;&gt;Node6 -->
<g id="edge5_Node000001_Node000006" class="edge">
<title>Node1&#45;&gt;Node6</title>
<g id="a_edge5_Node000001_Node000006"><a xlink:title=" ">
<path fill="none" stroke="#63b8ff" d="M610.48,-67.69C623.59,-57.4 640.84,-43.84 654.21,-33.33"/>
<polygon fill="#63b8ff" stroke="#63b8ff" points="656.25,-36.18 661.95,-27.25 651.93,-30.68 656.25,-36.18"/>
</a>
</g>
</g>
<!-- Node7 -->
<g id="Node000007" class="node">
<title>Node7</title>
<g id="a_Node000007"><a xlink:title=" ">
<polygon fill="#e0e0e0" stroke="#999999" points="837.25,-26 762.75,-26 762.75,-6 837.25,-6 837.25,-26"/>
<text xml:space="preserve" text-anchor="middle" x="800" y="-12.5" font-family="Helvetica,sans-Serif" font-size="10.00">javax.swing.*</text>
</a>
</g>
</g>
<!-- Node1&#45;&gt;Node7 -->
<g id="edge6_Node000001_Node000007" class="edge">
<title>Node1&#45;&gt;Node7</title>
<g id="a_edge6_Node000001_Node000007"><a xlink:title=" ">
<path fill="none" stroke="#63b8ff" d="M640.99,-67.53C673.27,-57.5 716.15,-44.09 754,-32 756.1,-31.33 758.25,-30.64 760.43,-29.94"/>
<polygon fill="#63b8ff" stroke="#63b8ff" points="761.43,-33.29 769.87,-26.88 759.28,-26.63 761.43,-33.29"/>
</a>
</g>
</g>
<!-- Node8 -->
<g id="Node000008" class="node">
<title>Node8</title>
<g id="a_Node000008"><a xlink:title=" ">
<polygon fill="#e0e0e0" stroke="#999999" points="914.75,-26 855.25,-26 855.25,-6 914.75,-6 914.75,-26"/>
<text xml:space="preserve" text-anchor="middle" x="885" y="-12.5" font-family="Helvetica,sans-Serif" font-size="10.00">java.awt.*</text>
</a>
</g>
</g>
<!-- Node1&#45;&gt;Node8 -->
<g id="edge7_Node000001_Node000008" class="edge">
<title>Node1&#45;&gt;Node8</title>
<g id="a_edge7_Node000001_Node000008"><a xlink:title=" ">
<path fill="none" stroke="#63b8ff" d="M664.89,-71.64C716.23,-62.92 785.95,-49.42 846,-32 847.95,-31.43 849.95,-30.81 851.95,-30.15"/>
<polygon fill="#63b8ff" stroke="#63b8ff" points="852.86,-33.54 861.11,-26.89 850.52,-26.95 852.86,-33.54"/>
</a>
</g>
</g>
<!-- Node9 -->
<g id="Node000009" class="node">
<title>Node9</title>
<g id="a_Node000009"><a xlink:title=" ">
<polygon fill="#e0e0e0" stroke="#999999" points="1035.5,-26 932.5,-26 932.5,-6 1035.5,-6 1035.5,-26"/>
<text xml:space="preserve" text-anchor="middle" x="984" y="-12.5" font-family="Helvetica,sans-Serif" font-size="10.00">java.time.LocalDate</text>
</a>
</g>
</g>
<!-- Node1&#45;&gt;Node9 -->
<g id="edge8_Node000001_Node000009" class="edge">
<title>Node1&#45;&gt;Node9</title>
<g id="a_edge8_Node000001_Node000009"><a xlink:title=" ">
<path fill="none" stroke="#63b8ff" d="M665.08,-73.66C732.8,-64.66 835.56,-49.79 924,-32 928.38,-31.12 932.91,-30.13 937.44,-29.09"/>
<polygon fill="#63b8ff" stroke="#63b8ff" points="938.2,-32.51 947.12,-26.78 936.58,-25.7 938.2,-32.51"/>
</a>
</g>
</g>
</g>
</svg>
