<?xml version="1.0" encoding="UTF-8" standalone="no"?>
<!DOCTYPE svg PUBLIC "-//W3C//DTD SVG 1.1//EN"
 "http://www.w3.org/Graphics/SVG/1.1/DTD/svg11.dtd">
<!-- Generated by graphviz version 14.0.1 (20251006.0113)
 -->
<!-- Title: model/accounts/Account.java Pages: 1 -->
<svg width="689pt" height="96pt"
 viewBox="0.00 0.00 689.00 96.00" xmlns="http://www.w3.org/2000/svg" xmlns:xlink="http://www.w3.org/1999/xlink">
<g id="graph0" class="graph" transform="scale(1 1) rotate(0) translate(4 92)">
<title>model/accounts/Account.java</title>
<!-- Node1 -->
<g id="Node000001" class="node">
<title>Node1</title>
<g id="a_Node000001"><a xlink:title=" ">
<polygon fill="#999999" stroke="#666666" points="463.88,-88 318.88,-88 318.88,-68 463.88,-68 463.88,-88"/>
<text xml:space="preserve" text-anchor="middle" x="391.38" y="-74.5" font-family="Helvetica,sans-Serif" font-size="10.00">model/accounts/Account.java</text>
</a>
</g>
</g>
<!-- Node2 -->
<g id="Node000002" class="node">
<title>Node2</title>
<g id="a_Node000002"><a xlink:title=" ">
<polygon fill="#e0e0e0" stroke="#999999" points="160.75,-26 0,-26 0,-6 160.75,-6 160.75,-26"/>
<text xml:space="preserve" text-anchor="middle" x="80.38" y="-12.5" font-family="Helvetica,sans-Serif" font-size="10.00">com.bank.model.users.Customer</text>
</a>
</g>
</g>
<!-- Node1&#45;&gt;Node2 -->
<g id="edge1_Node000001_Node000002" class="edge">
<title>Node1&#45;&gt;Node2</title>
<g id="a_edge1_Node000001_Node000002"><a xlink:title=" ">
<path fill="none" stroke="#63b8ff" d="M342.44,-67.56C287.8,-57.02 199.34,-39.95 140.52,-28.6"/>
<polygon fill="#63b8ff" stroke="#63b8ff" points="141.51,-25.23 131.02,-26.77 140.18,-32.1 141.51,-25.23"/>
</a>
</g>
</g>
<!-- Node3 -->
<g id="Node000003" class="node">
<title>Node3</title>
<g id="a_Node000003"><a xlink:title=" ">
<polygon fill="#e0e0e0" stroke="#999999" points="311.88,-26 178.88,-26 178.88,-6 311.88,-6 311.88,-26"/>
<text xml:space="preserve" text-anchor="middle" x="245.38" y="-12.5" font-family="Helvetica,sans-Serif" font-size="10.00">com.bank.storage.Storable</text>
</a>
</g>
</g>
<!-- Node1&#45;&gt;Node3 -->
<g id="edge2_Node000001_Node000003" class="edge">
<title>Node1&#45;&gt;Node3</title>
<g id="a_edge2_Node000001_Node000003"><a xlink:title=" ">
<path fill="none" stroke="#63b8ff" d="M368.56,-67.62C344.35,-57.67 305.86,-41.85 278.34,-30.55"/>
<polygon fill="#63b8ff" stroke="#63b8ff" points="280.01,-27.45 269.43,-26.88 277.35,-33.92 280.01,-27.45"/>
</a>
</g>
</g>
<!-- Node4 -->
<g id="Node000004" class="node">
<title>Node4</title>
<g id="a_Node000004"><a xlink:title=" ">
<polygon fill="#e0e0e0" stroke="#999999" points="453,-32 329.75,-32 329.75,0 453,0 453,-32"/>
<text xml:space="preserve" text-anchor="start" x="337.75" y="-18.5" font-family="Helvetica,sans-Serif" font-size="10.00">com.bank.utilities.Global</text>
<text xml:space="preserve" text-anchor="middle" x="391.38" y="-6.5" font-family="Helvetica,sans-Serif" font-size="10.00">Clock</text>
</a>
</g>
</g>
<!-- Node1&#45;&gt;Node4 -->
<g id="edge3_Node000001_Node000004" class="edge">
<title>Node1&#45;&gt;Node4</title>
<g id="a_edge3_Node000001_Node000004"><a xlink:title=" ">
<path fill="none" stroke="#63b8ff" d="M391.38,-67.62C391.38,-61.1 391.38,-52.05 391.38,-43.4"/>
<polygon fill="#63b8ff" stroke="#63b8ff" points="394.88,-43.65 391.38,-33.65 387.88,-43.65 394.88,-43.65"/>
</a>
</g>
</g>
<!-- Node5 -->
<g id="Node000005" class="node">
<title>Node5</title>
<g id="a_Node000005"><a xlink:title=" ">
<polygon fill="#e0e0e0" stroke="#999999" points="573.88,-26 470.88,-26 470.88,-6 573.88,-6 573.88,-26"/>
<text xml:space="preserve" text-anchor="middle" x="522.38" y="-12.5" font-family="Helvetica,sans-Serif" font-size="10.00">java.time.LocalDate</text>
</a>
</g>
</g>
<!-- Node1&#45;&gt;Node5 -->
<g id="edge4_Node000001_Node000005" class="edge">
<title>Node1&#45;&gt;Node5</title>
<g id="a_edge4_Node000001_Node000005"><a xlink:title=" ">
<path fill="none" stroke="#63b8ff" d="M411.84,-67.62C433.28,-57.81 467.19,-42.27 491.81,-31"/>
<polygon fill="#63b8ff" stroke="#63b8ff" points="493.04,-34.29 500.67,-26.94 490.12,-27.92 493.04,-34.29"/>
</a>
</g>
</g>
<!-- Node6 -->
<g id="Node000006" class="node">
<title>Node6</title>
<g id="a_Node000006"><a xlink:title=" ">
<polygon fill="#e0e0e0" stroke="#999999" points="681.12,-26 591.62,-26 591.62,-6 681.12,-6 681.12,-26"/>
<text xml:space="preserve" text-anchor="middle" x="636.38" y="-12.5" font-family="Helvetica,sans-Serif" font-size="10.00">java.util.Random</text>
</a>
</g>
</g>
<!-- Node1&#45;&gt;Node6 -->
<g id="edge5_Node000001_Node000006" class="edge">
<title>Node1&#45;&gt;Node6</title>
<g id="a_edge5_Node000001_Node000006"><a xlink:title=" ">
<path fill="none" stroke="#63b8ff" d="M434.22,-67.55C473.22,-58.8 532.33,-45.2 583.38,-32 586.5,-31.19 589.72,-30.34 592.96,-29.46"/>
<polygon fill="#63b8ff" stroke="#63b8ff" points="593.76,-32.87 602.47,-26.84 591.9,-26.12 593.76,-32.87"/>
</a>
</g>
</g>
</g>
</svg>
