<?xml version="1.0" encoding="UTF-8" standalone="no"?>
<!DOCTYPE svg PUBLIC "-//W3C//DTD SVG 1.1//EN"
 "http://www.w3.org/Graphics/SVG/1.1/DTD/svg11.dtd">
<!-- Generated by graphviz version 14.0.1 (20251006.0113)
 -->
<!-- Title: gui/view/panel/AdminCreateCustomerPanel.java Pages: 1 -->
<svg width="478pt" height="96pt"
 viewBox="0.00 0.00 478.00 96.00" xmlns="http://www.w3.org/2000/svg" xmlns:xlink="http://www.w3.org/1999/xlink">

<svg id="main" version="1.1" xmlns="http://www.w3.org/2000/svg" xmlns:xlink="http://www.w3.org/1999/xlink" xml:space="preserve">

<style type="text/css"><![CDATA[
.node, .edge {opacity: 0.7;}
.node.selected, .edge.selected {opacity: 1;}
.edge:hover path { stroke: red; }
.edge:hover polygon { stroke: red; fill: red; }
]]></style>
<script type="application/ecmascript" xlink:href="../../svg.min.js"/>
<svg id="graph" class="graph">
<g id="graph0" class="graph" transform="scale(1 1) rotate(0) translate(4 92)">
<title>gui/view/panel/AdminCreateCustomerPanel.java</title>
<!-- Node1 -->
<g id="Node000001" class="node">
<title>Node1</title>
<g id="a_Node000001"><a xlink:title=" ">
<polygon fill="#999999" stroke="#666666" points="366.5,-88 228.25,-88 228.25,-56 366.5,-56 366.5,-88"/>
<text xml:space="preserve" text-anchor="start" x="236.25" y="-74.5" font-family="Helvetica,sans-Serif" font-size="10.00">gui/view/panel/AdminCreate</text>
<text xml:space="preserve" text-anchor="middle" x="297.38" y="-62.5" font-family="Helvetica,sans-Serif" font-size="10.00">CustomerPanel.java</text>
</a>
</g>
</g>
<!-- Node2 -->
<g id="Node000002" class="node">
<title>Node2</title>
<g id="a_Node000002"><a xlink:title=" ">
<polygon fill="#e0e0e0" stroke="#999999" points="160.75,-20 0,-20 0,0 160.75,0 160.75,-20"/>
<text xml:space="preserve" text-anchor="middle" x="80.38" y="-6.5" font-family="Helvetica,sans-Serif" font-size="10.00">com.bank.manager.UserManager</text>
</a>
</g>
</g>
<!-- Node1&#45;&gt;Node2 -->
<g id="edge1_Node000001_Node000002" class="edge">
<title>Node1&#45;&gt;Node2</title>
<g id="a_edge1_Node000001_Node000002"><a xlink:title=" ">
<path fill="none" stroke="#63b8ff" d="M241.49,-55.55C205.5,-45.6 159.32,-32.83 125.63,-23.51"/>
<polygon fill="#63b8ff" stroke="#63b8ff" points="126.75,-20.19 116.18,-20.9 124.88,-26.94 126.75,-20.19"/>
</a>
</g>
</g>
<!-- Node3 -->
<g id="Node000003" class="node">
<title>Node3</title>
<g id="a_Node000003"><a xlink:title=" ">
<polygon fill="#e0e0e0" stroke="#999999" points="300.25,-20 178.5,-20 178.5,0 300.25,0 300.25,-20"/>
<text xml:space="preserve" text-anchor="middle" x="239.38" y="-6.5" font-family="Helvetica,sans-Serif" font-size="10.00">com.bank.model.users.*</text>
</a>
</g>
</g>
<!-- Node1&#45;&gt;Node3 -->
<g id="edge2_Node000001_Node000003" class="edge">
<title>Node1&#45;&gt;Node3</title>
<g id="a_edge2_Node000001_Node000003"><a xlink:title=" ">
<path fill="none" stroke="#63b8ff" d="M282.44,-55.55C274.47,-47.3 264.62,-37.12 256.36,-28.57"/>
<polygon fill="#63b8ff" stroke="#63b8ff" points="258.99,-26.25 249.52,-21.5 253.96,-31.12 258.99,-26.25"/>
</a>
</g>
</g>
<!-- Node4 -->
<g id="Node000004" class="node">
<title>Node4</title>
<g id="a_Node000004"><a xlink:title=" ">
<polygon fill="#e0e0e0" stroke="#999999" points="392.62,-20 318.12,-20 318.12,0 392.62,0 392.62,-20"/>
<text xml:space="preserve" text-anchor="middle" x="355.38" y="-6.5" font-family="Helvetica,sans-Serif" font-size="10.00">javax.swing.*</text>
</a>
</g>
</g>
<!-- Node1&#45;&gt;Node4 -->
<g id="edge3_Node000001_Node000004" class="edge">
<title>Node1&#45;&gt;Node4</title>
<g id="a_edge3_Node000001_Node000004"><a xlink:title=" ">
<path fill="none" stroke="#63b8ff" d="M312.31,-55.55C320.28,-47.3 330.13,-37.12 338.39,-28.57"/>
<polygon fill="#63b8ff" stroke="#63b8ff" points="340.79,-31.12 345.23,-21.5 335.76,-26.25 340.79,-31.12"/>
</a>
</g>
</g>
<!-- Node5 -->
<g id="Node000005" class="node">
<title>Node5</title>
<g id="a_Node000005"><a xlink:title=" ">
<polygon fill="#e0e0e0" stroke="#999999" points="470.12,-20 410.62,-20 410.62,0 470.12,0 470.12,-20"/>
<text xml:space="preserve" text-anchor="middle" x="440.38" y="-6.5" font-family="Helvetica,sans-Serif" font-size="10.00">java.awt.*</text>
</a>
</g>
</g>
<!-- Node1&#45;&gt;Node5 -->
<g id="edge4_Node000001_Node000005" class="edge">
<title>Node1&#45;&gt;Node5</title>
<g id="a_edge4_Node000001_Node000005"><a xlink:title=" ">
<path fill="none" stroke="#63b8ff" d="M334.2,-55.55C356.85,-46.04 385.64,-33.97 407.52,-24.79"/>
<polygon fill="#63b8ff" stroke="#63b8ff" points="408.69,-28.09 416.56,-20.99 405.98,-21.64 408.69,-28.09"/>
</a>
</g>
</g>
</g>
</svg>
</svg>

<style type='text/css'>
<![CDATA[
[data-mouse-over-selected='false'] { opacity: 0.7; }
[data-mouse-over-selected='true']  { opacity: 1.0; }
]]>
</style>
<script type="application/ecmascript"><![CDATA[
document.addEventListener('DOMContentLoaded', (event) => {
  highlightEdges();
  highlightAdjacentNodes();
});
]]></script>
</svg>
