<?xml version="1.0" encoding="UTF-8" standalone="no"?>
<!DOCTYPE svg PUBLIC "-//W3C//DTD SVG 1.1//EN"
 "http://www.w3.org/Graphics/SVG/1.1/DTD/svg11.dtd">
<!-- Generated by graphviz version 14.0.1 (20251006.0113)
 -->
<!-- Title: manager/AccountManager.java Pages: 1 -->
<svg width="920pt" height="96pt"
 viewBox="0.00 0.00 920.00 96.00" xmlns="http://www.w3.org/2000/svg" xmlns:xlink="http://www.w3.org/1999/xlink">
<g id="graph0" class="graph" transform="scale(1 1) rotate(0) translate(4 92)">
<title>manager/AccountManager.java</title>
<!-- Node1 -->
<g id="Node000001" class="node">
<title>Node1</title>
<g id="a_Node000001"><a xlink:title=" ">
<polygon fill="#999999" stroke="#666666" points="604.25,-88 453.25,-88 453.25,-68 604.25,-68 604.25,-88"/>
<text xml:space="preserve" text-anchor="middle" x="528.75" y="-74.5" font-family="Helvetica,sans-Serif" font-size="10.00">manager/AccountManager.java</text>
</a>
</g>
</g>
<!-- Node2 -->
<g id="Node000002" class="node">
<title>Node2</title>
<g id="a_Node000002"><a xlink:title=" ">
<polygon fill="#e0e0e0" stroke="#999999" points="137.5,-26 0,-26 0,-6 137.5,-6 137.5,-26"/>
<text xml:space="preserve" text-anchor="middle" x="68.75" y="-12.5" font-family="Helvetica,sans-Serif" font-size="10.00">com.bank.model.accounts.*</text>
</a>
</g>
</g>
<!-- Node1&#45;&gt;Node2 -->
<g id="edge1_Node000001_Node000002" class="edge">
<title>Node1&#45;&gt;Node2</title>
<g id="a_edge1_Node000001_Node000002"><a xlink:title=" ">
<path fill="none" stroke="#63b8ff" d="M452.79,-69.7C375.54,-61.88 252.5,-48.38 146.75,-32 140.03,-30.96 133.01,-29.76 126.05,-28.51"/>
<polygon fill="#63b8ff" stroke="#63b8ff" points="126.81,-25.09 116.34,-26.72 125.53,-31.98 126.81,-25.09"/>
</a>
</g>
</g>
<!-- Node3 -->
<g id="Node000003" class="node">
<title>Node3</title>
<g id="a_Node000003"><a xlink:title=" ">
<polygon fill="#e0e0e0" stroke="#999999" points="277.62,-26 155.88,-26 155.88,-6 277.62,-6 277.62,-26"/>
<text xml:space="preserve" text-anchor="middle" x="216.75" y="-12.5" font-family="Helvetica,sans-Serif" font-size="10.00">com.bank.model.users.*</text>
</a>
</g>
</g>
<!-- Node1&#45;&gt;Node3 -->
<g id="edge2_Node000001_Node000003" class="edge">
<title>Node1&#45;&gt;Node3</title>
<g id="a_edge2_Node000001_Node000003"><a xlink:title=" ">
<path fill="none" stroke="#63b8ff" d="M475.8,-67.58C426.72,-58.75 351.7,-45 286.75,-32 281.61,-30.97 276.27,-29.88 270.93,-28.76"/>
<polygon fill="#63b8ff" stroke="#63b8ff" points="272.01,-25.41 261.51,-26.78 270.57,-32.26 272.01,-25.41"/>
</a>
</g>
</g>
<!-- Node4 -->
<g id="Node000004" class="node">
<title>Node4</title>
<g id="a_Node000004"><a xlink:title=" ">
<polygon fill="#e0e0e0" stroke="#999999" points="444.12,-32 295.38,-32 295.38,0 444.12,0 444.12,-32"/>
<text xml:space="preserve" text-anchor="start" x="303.38" y="-18.5" font-family="Helvetica,sans-Serif" font-size="10.00">com.bank.storage.CsvStorage</text>
<text xml:space="preserve" text-anchor="middle" x="369.75" y="-6.5" font-family="Helvetica,sans-Serif" font-size="10.00">Manager</text>
</a>
</g>
</g>
<!-- Node1&#45;&gt;Node4 -->
<g id="edge3_Node000001_Node000004" class="edge">
<title>Node1&#45;&gt;Node4</title>
<g id="a_edge3_Node000001_Node000004"><a xlink:title=" ">
<path fill="none" stroke="#63b8ff" d="M503.91,-67.62C481.93,-59.33 449.16,-46.96 421.5,-36.53"/>
<polygon fill="#63b8ff" stroke="#63b8ff" points="422.81,-33.28 412.22,-33.02 420.34,-39.83 422.81,-33.28"/>
</a>
</g>
</g>
<!-- Node5 -->
<g id="Node000005" class="node">
<title>Node5</title>
<g id="a_Node000005"><a xlink:title=" ">
<polygon fill="#e0e0e0" stroke="#999999" points="595.25,-26 462.25,-26 462.25,-6 595.25,-6 595.25,-26"/>
<text xml:space="preserve" text-anchor="middle" x="528.75" y="-12.5" font-family="Helvetica,sans-Serif" font-size="10.00">com.bank.storage.Storable</text>
</a>
</g>
</g>
<!-- Node1&#45;&gt;Node5 -->
<g id="edge4_Node000001_Node000005" class="edge">
<title>Node1&#45;&gt;Node5</title>
<g id="a_edge4_Node000001_Node000005"><a xlink:title=" ">
<path fill="none" stroke="#63b8ff" d="M528.75,-67.62C528.75,-59.56 528.75,-47.65 528.75,-37.41"/>
<polygon fill="#63b8ff" stroke="#63b8ff" points="532.25,-37.63 528.75,-27.63 525.25,-37.63 532.25,-37.63"/>
</a>
</g>
</g>
<!-- Node6 -->
<g id="Node000006" class="node">
<title>Node6</title>
<g id="a_Node000006"><a xlink:title=" ">
<polygon fill="#e0e0e0" stroke="#999999" points="716.25,-26 613.25,-26 613.25,-6 716.25,-6 716.25,-26"/>
<text xml:space="preserve" text-anchor="middle" x="664.75" y="-12.5" font-family="Helvetica,sans-Serif" font-size="10.00">java.time.LocalDate</text>
</a>
</g>
</g>
<!-- Node1&#45;&gt;Node6 -->
<g id="edge5_Node000001_Node000006" class="edge">
<title>Node1&#45;&gt;Node6</title>
<g id="a_edge5_Node000001_Node000006"><a xlink:title=" ">
<path fill="none" stroke="#63b8ff" d="M550,-67.62C572.36,-57.76 607.78,-42.13 633.36,-30.85"/>
<polygon fill="#63b8ff" stroke="#63b8ff" points="634.53,-34.16 642.26,-26.92 631.7,-27.75 634.53,-34.16"/>
</a>
</g>
</g>
<!-- Node7 -->
<g id="Node000007" class="node">
<title>Node7</title>
<g id="a_Node000007"><a xlink:title=" ">
<polygon fill="#e0e0e0" stroke="#999999" points="825.62,-26 733.88,-26 733.88,-6 825.62,-6 825.62,-26"/>
<text xml:space="preserve" text-anchor="middle" x="779.75" y="-12.5" font-family="Helvetica,sans-Serif" font-size="10.00">java.util.ArrayList</text>
</a>
</g>
</g>
<!-- Node1&#45;&gt;Node7 -->
<g id="edge6_Node000001_Node000007" class="edge">
<title>Node1&#45;&gt;Node7</title>
<g id="a_edge6_Node000001_Node000007"><a xlink:title=" ">
<path fill="none" stroke="#63b8ff" d="M572.71,-67.57C612.72,-58.84 673.37,-45.25 725.75,-32 729.04,-31.17 732.44,-30.28 735.85,-29.38"/>
<polygon fill="#63b8ff" stroke="#63b8ff" points="736.49,-32.83 745.23,-26.84 734.66,-26.07 736.49,-32.83"/>
</a>
</g>
</g>
<!-- Node8 -->
<g id="Node000008" class="node">
<title>Node8</title>
<g id="a_Node000008"><a xlink:title=" ">
<polygon fill="#e0e0e0" stroke="#999999" points="912,-26 843.5,-26 843.5,-6 912,-6 912,-26"/>
<text xml:space="preserve" text-anchor="middle" x="877.75" y="-12.5" font-family="Helvetica,sans-Serif" font-size="10.00">java.util.List</text>
</a>
</g>
</g>
<!-- Node1&#45;&gt;Node8 -->
<g id="edge7_Node000001_Node000008" class="edge">
<title>Node1&#45;&gt;Node8</title>
<g id="a_edge7_Node000001_Node000008"><a xlink:title=" ">
<path fill="none" stroke="#63b8ff" d="M604.66,-69.89C667.05,-63.07 757.44,-50.99 834.75,-32 837.34,-31.36 840,-30.63 842.65,-29.85"/>
<polygon fill="#63b8ff" stroke="#63b8ff" points="843.54,-33.24 851.99,-26.85 841.4,-26.57 843.54,-33.24"/>
</a>
</g>
</g>
</g>
</svg>
