<?xml version="1.0" encoding="UTF-8" standalone="no"?>
<!DOCTYPE svg PUBLIC "-//W3C//DTD SVG 1.1//EN"
 "http://www.w3.org/Graphics/SVG/1.1/DTD/svg11.dtd">
<!-- Generated by graphviz version 14.0.1 (20251006.0113)
 -->
<!-- Title: com.bank.gui.view.panel.AdminAccountDetailsPanel Pages: 1 -->
<svg width="151pt" height="160pt"
 viewBox="0.00 0.00 151.00 160.00" xmlns="http://www.w3.org/2000/svg" xmlns:xlink="http://www.w3.org/1999/xlink">
<g id="graph0" class="graph" transform="scale(1 1) rotate(0) translate(4 156)">
<title>com.bank.gui.view.panel.AdminAccountDetailsPanel</title>
<!-- Node1 -->
<g id="Node000001" class="node">
<title>Node1</title>
<g id="a_Node000001"><a xlink:title="Προβολή λεπτομερειών λογαριασμού για Admin.">
<polygon fill="#999999" stroke="none" points="143.25,-64 0,-64 0,0 143.25,0 143.25,-64"/>
<text xml:space="preserve" text-anchor="start" x="12" y="-50.5" font-family="Helvetica,sans-Serif" font-size="10.00">com.bank.gui.view.panel.</text>
<text xml:space="preserve" text-anchor="start" x="12" y="-38.5" font-family="Helvetica,sans-Serif" font-size="10.00">AdminAccountDetailsPanel</text>
<text xml:space="preserve" text-anchor="start" x="70.12" y="-22.5" font-family="Helvetica,sans-Serif" font-size="10.00"> </text>
<text xml:space="preserve" text-anchor="start" x="4" y="-6.5" font-family="Helvetica,sans-Serif" font-size="10.00">+</text>
<text xml:space="preserve" text-anchor="start" x="14" y="-6.5" font-family="Helvetica,sans-Serif" font-size="10.00">AdminAccountDetailsPanel()</text>
<polygon fill="#666666" stroke="#666666" points="0,-34 0,-34 143.25,-34 143.25,-34 0,-34"/>
<polygon fill="#666666" stroke="#666666" points="0,-18 0,-18 143.25,-18 143.25,-18 0,-18"/>
<polygon fill="none" stroke="#666666" points="0,0 0,-64 143.25,-64 143.25,0 0,0"/>
</a>
</g>
</g>
<!-- Node2 -->
<g id="Node000002" class="node">
<title>Node2</title>
<g id="a_Node000002"><a xlink:title=" ">
<polygon fill="white" stroke="none" points="90.62,-152 52.62,-152 52.62,-100 90.62,-100 90.62,-152"/>
<text xml:space="preserve" text-anchor="start" x="56.62" y="-138.5" font-family="Helvetica,sans-Serif" font-size="10.00">JPanel</text>
<text xml:space="preserve" text-anchor="start" x="70.12" y="-122.5" font-family="Helvetica,sans-Serif" font-size="10.00"> </text>
<text xml:space="preserve" text-anchor="start" x="70.12" y="-106.5" font-family="Helvetica,sans-Serif" font-size="10.00"> </text>
<polygon fill="#666666" stroke="#666666" points="52.62,-134 52.62,-134 90.62,-134 90.62,-134 52.62,-134"/>
<polygon fill="#666666" stroke="#666666" points="52.62,-118 52.62,-118 90.62,-118 90.62,-118 52.62,-118"/>
<polygon fill="none" stroke="#666666" points="52.62,-100 52.62,-152 90.62,-152 90.62,-100 52.62,-100"/>
</a>
</g>
</g>
<!-- Node2&#45;&gt;Node1 -->
<g id="edge1_Node000001_Node000002" class="edge">
<title>Node2&#45;&gt;Node1</title>
<g id="a_edge1_Node000001_Node000002"><a xlink:title=" ">
<path fill="none" stroke="#63b8ff" d="M71.62,-89.06C71.62,-80.78 71.62,-72.04 71.62,-63.98"/>
<polygon fill="none" stroke="#63b8ff" points="68.13,-88.83 71.63,-98.83 75.13,-88.83 68.13,-88.83"/>
</a>
</g>
</g>
</g>
</svg>
