<?xml version="1.0" encoding="UTF-8" standalone="no"?>
<!DOCTYPE svg PUBLIC "-//W3C//DTD SVG 1.1//EN"
 "http://www.w3.org/Graphics/SVG/1.1/DTD/svg11.dtd">
<!-- Generated by graphviz version 14.0.1 (20251006.0113)
 -->
<!-- Title: com.bank.utilities.GlobalClock.getDate Pages: 1 -->
<svg width="543pt" height="178pt"
 viewBox="0.00 0.00 543.00 178.00" xmlns="http://www.w3.org/2000/svg" xmlns:xlink="http://www.w3.org/1999/xlink">
<g id="graph0" class="graph" transform="scale(1 1) rotate(0) translate(4 174)">
<title>com.bank.utilities.GlobalClock.getDate</title>
<!-- Node1 -->
<g id="Node000001" class="node">
<title>Node1</title>
<g id="a_Node000001"><a xlink:title="Returns the current simulated date.">
<polygon fill="#999999" stroke="#666666" points="534.75,-104 411.5,-104 411.5,-72 534.75,-72 534.75,-104"/>
<text xml:space="preserve" text-anchor="start" x="419.5" y="-90.5" font-family="Helvetica,sans-Serif" font-size="10.00">com.bank.utilities.Global</text>
<text xml:space="preserve" text-anchor="middle" x="473.12" y="-78.5" font-family="Helvetica,sans-Serif" font-size="10.00">Clock.getDate</text>
</a>
</g>
</g>
<!-- Node2 -->
<g id="Node000002" class="node">
<title>Node2</title>
<g id="a_Node000002"><a xlink:href="../../da/d83/classcom_1_1bank_1_1model_1_1accounts_1_1_account.html#a19993b769030cf766125dd5ba9b44f88" target="_top" xlink:title="Constructs a new account with zero initial balance.">
<polygon fill="white" stroke="#666666" points="362.75,-170 229,-170 229,-138 362.75,-138 362.75,-170"/>
<text xml:space="preserve" text-anchor="start" x="237" y="-156.5" font-family="Helvetica,sans-Serif" font-size="10.00">com.bank.model.accounts.</text>
<text xml:space="preserve" text-anchor="middle" x="295.88" y="-144.5" font-family="Helvetica,sans-Serif" font-size="10.00">Account.Account</text>
</a>
</g>
</g>
<!-- Node1&#45;&gt;Node2 -->
<g id="edge1_Node000001_Node000002" class="edge">
<title>Node1&#45;&gt;Node2</title>
<g id="a_edge1_Node000001_Node000002"><a xlink:title=" ">
<path fill="none" stroke="#63b8ff" d="M425.24,-108.94C409.55,-115.66 391.88,-122.93 375.5,-129 367.57,-131.93 359.13,-134.84 350.82,-137.58"/>
<polygon fill="#63b8ff" stroke="#63b8ff" points="426.57,-112.17 434.35,-104.99 423.79,-105.75 426.57,-112.17"/>
</a>
</g>
</g>
<!-- Node3 -->
<g id="Node000003" class="node">
<title>Node3</title>
<g id="a_Node000003"><a xlink:href="../../d3/dd4/classcom_1_1bank_1_1model_1_1bills_1_1_bill.html#a5f3878e8ec87aed76933557b4c1f27d7" target="_top" xlink:title="Constructs a new bill with 30&#45;day default due date.">
<polygon fill="white" stroke="#666666" points="366.5,-120 225.25,-120 225.25,-100 366.5,-100 366.5,-120"/>
<text xml:space="preserve" text-anchor="middle" x="295.88" y="-106.5" font-family="Helvetica,sans-Serif" font-size="10.00">com.bank.model.bills.Bill.Bill</text>
</a>
</g>
</g>
<!-- Node1&#45;&gt;Node3 -->
<g id="edge2_Node000001_Node000003" class="edge">
<title>Node1&#45;&gt;Node3</title>
<g id="a_edge2_Node000001_Node000003"><a xlink:title=" ">
<path fill="none" stroke="#63b8ff" d="M400.05,-97.05C389.1,-98.42 377.8,-99.84 366.89,-101.21"/>
<polygon fill="#63b8ff" stroke="#63b8ff" points="400.33,-100.54 409.82,-95.82 399.46,-93.59 400.33,-100.54"/>
</a>
</g>
</g>
<!-- Node4 -->
<g id="Node000004" class="node">
<title>Node4</title>
<g id="a_Node000004"><a xlink:href="../../d7/d26/classcom_1_1bank_1_1model_1_1orders_1_1_standing_order.html#a8a98a82d057222ef90f6e5e1aeb0d7a5" target="_top" xlink:title="Determines whether the order is expired.">
<polygon fill="white" stroke="#666666" points="375.5,-82 216.25,-82 216.25,-50 375.5,-50 375.5,-82"/>
<text xml:space="preserve" text-anchor="start" x="224.25" y="-68.5" font-family="Helvetica,sans-Serif" font-size="10.00">com.bank.model.orders.Standing</text>
<text xml:space="preserve" text-anchor="middle" x="295.88" y="-56.5" font-family="Helvetica,sans-Serif" font-size="10.00">Order.isExpired</text>
</a>
</g>
</g>
<!-- Node1&#45;&gt;Node4 -->
<g id="edge3_Node000001_Node000004" class="edge">
<title>Node1&#45;&gt;Node4</title>
<g id="a_edge3_Node000001_Node000004"><a xlink:title=" ">
<path fill="none" stroke="#63b8ff" d="M400.12,-78.96C392.1,-77.95 383.89,-76.92 375.78,-75.91"/>
<polygon fill="#63b8ff" stroke="#63b8ff" points="399.46,-82.41 409.82,-80.18 400.33,-75.46 399.46,-82.41"/>
</a>
</g>
</g>
<!-- Node5 -->
<g id="Node000005" class="node">
<title>Node5</title>
<g id="a_Node000005"><a xlink:href="../../dc/d87/classcom_1_1bank_1_1manager_1_1_standing_order_manager.html#aaee18d5046154f968277afe22f4f9505" target="_top" xlink:title="Loads standing orders from all ledgers into memory.">
<polygon fill="white" stroke="#666666" points="366.12,-32 225.62,-32 225.62,0 366.12,0 366.12,-32"/>
<text xml:space="preserve" text-anchor="start" x="233.62" y="-18.5" font-family="Helvetica,sans-Serif" font-size="10.00">com.bank.manager.Standing</text>
<text xml:space="preserve" text-anchor="middle" x="295.88" y="-6.5" font-family="Helvetica,sans-Serif" font-size="10.00">OrderManager.loadOrders</text>
</a>
</g>
</g>
<!-- Node1&#45;&gt;Node5 -->
<g id="edge4_Node000001_Node000005" class="edge">
<title>Node1&#45;&gt;Node5</title>
<g id="a_edge4_Node000001_Node000005"><a xlink:title=" ">
<path fill="none" stroke="#63b8ff" d="M431.18,-66.45C414.2,-57.95 394.15,-48.45 375.5,-41 368.05,-38.02 360.1,-35.15 352.22,-32.48"/>
<polygon fill="#63b8ff" stroke="#63b8ff" points="429.46,-69.51 439.96,-70.91 432.62,-63.26 429.46,-69.51"/>
</a>
</g>
</g>
<!-- Node6 -->
<g id="Node000006" class="node">
<title>Node6</title>
<g id="a_Node000006"><a xlink:href="../../dc/d87/classcom_1_1bank_1_1manager_1_1_standing_order_manager.html#a1cca7c218ad9fb86c6060dccc0bd6bcb" target="_top" xlink:title="Constructs the manager and immediately loads orders from disk.">
<polygon fill="white" stroke="#666666" points="180.25,-32 0,-32 0,0 180.25,0 180.25,-32"/>
<text xml:space="preserve" text-anchor="start" x="8" y="-18.5" font-family="Helvetica,sans-Serif" font-size="10.00">com.bank.manager.Standing</text>
<text xml:space="preserve" text-anchor="middle" x="90.12" y="-6.5" font-family="Helvetica,sans-Serif" font-size="10.00">OrderManager.StandingOrderManager</text>
</a>
</g>
</g>
<!-- Node5&#45;&gt;Node6 -->
<g id="edge5_Node000005_Node000006" class="edge">
<title>Node5&#45;&gt;Node6</title>
<g id="a_edge5_Node000005_Node000006"><a xlink:title=" ">
<path fill="none" stroke="#63b8ff" d="M214.01,-16C203.01,-16 191.67,-16 180.54,-16"/>
<polygon fill="#63b8ff" stroke="#63b8ff" points="213.81,-19.5 223.81,-16 213.81,-12.5 213.81,-19.5"/>
</a>
</g>
</g>
</g>
</svg>
