<?xml version="1.0" encoding="UTF-8" standalone="no"?>
<!DOCTYPE svg PUBLIC "-//W3C//DTD SVG 1.1//EN"
 "http://www.w3.org/Graphics/SVG/1.1/DTD/svg11.dtd">
<!-- Generated by graphviz version 14.0.1 (20251006.0113)
 -->
<!-- Title: model/transactions/Payment.java Pages: 1 -->
<svg width="768pt" height="108pt"
 viewBox="0.00 0.00 768.00 108.00" xmlns="http://www.w3.org/2000/svg" xmlns:xlink="http://www.w3.org/1999/xlink">
<g id="graph0" class="graph" transform="scale(1 1) rotate(0) translate(4 104)">
<title>model/transactions/Payment.java</title>
<!-- Node1 -->
<g id="Node000001" class="node">
<title>Node1</title>
<g id="a_Node000001"><a xlink:title=" ">
<polygon fill="#999999" stroke="#666666" points="435.88,-100 337.38,-100 337.38,-68 435.88,-68 435.88,-100"/>
<text xml:space="preserve" text-anchor="start" x="345.38" y="-86.5" font-family="Helvetica,sans-Serif" font-size="10.00">model/transactions</text>
<text xml:space="preserve" text-anchor="middle" x="386.62" y="-74.5" font-family="Helvetica,sans-Serif" font-size="10.00">/Payment.java</text>
</a>
</g>
</g>
<!-- Node2 -->
<g id="Node000002" class="node">
<title>Node2</title>
<g id="a_Node000002"><a xlink:title=" ">
<polygon fill="#e0e0e0" stroke="#999999" points="147.25,-32 0,-32 0,0 147.25,0 147.25,-32"/>
<text xml:space="preserve" text-anchor="start" x="8" y="-18.5" font-family="Helvetica,sans-Serif" font-size="10.00">com.bank.manager.Statement</text>
<text xml:space="preserve" text-anchor="middle" x="73.62" y="-6.5" font-family="Helvetica,sans-Serif" font-size="10.00">Manager</text>
</a>
</g>
</g>
<!-- Node1&#45;&gt;Node2 -->
<g id="edge1_Node000001_Node000002" class="edge">
<title>Node1&#45;&gt;Node2</title>
<g id="a_edge1_Node000001_Node000002"><a xlink:title=" ">
<path fill="none" stroke="#63b8ff" d="M337.03,-72.54C289.03,-62.42 215.34,-46.88 158.09,-34.81"/>
<polygon fill="#63b8ff" stroke="#63b8ff" points="158.86,-31.4 148.36,-32.76 157.42,-38.25 158.86,-31.4"/>
</a>
</g>
</g>
<!-- Node3 -->
<g id="Node000003" class="node">
<title>Node3</title>
<g id="a_Node000003"><a xlink:title=" ">
<polygon fill="#e0e0e0" stroke="#999999" points="299.5,-32 165.75,-32 165.75,0 299.5,0 299.5,-32"/>
<text xml:space="preserve" text-anchor="start" x="173.75" y="-18.5" font-family="Helvetica,sans-Serif" font-size="10.00">com.bank.model.accounts.</text>
<text xml:space="preserve" text-anchor="middle" x="232.62" y="-6.5" font-family="Helvetica,sans-Serif" font-size="10.00">Account</text>
</a>
</g>
</g>
<!-- Node1&#45;&gt;Node3 -->
<g id="edge2_Node000001_Node000003" class="edge">
<title>Node1&#45;&gt;Node3</title>
<g id="a_edge2_Node000001_Node000003"><a xlink:title=" ">
<path fill="none" stroke="#63b8ff" d="M350.52,-67.53C329.26,-58.41 302.14,-46.79 279.28,-36.99"/>
<polygon fill="#63b8ff" stroke="#63b8ff" points="280.73,-33.81 270.16,-33.09 277.98,-40.24 280.73,-33.81"/>
</a>
</g>
</g>
<!-- Node4 -->
<g id="Node000004" class="node">
<title>Node4</title>
<g id="a_Node000004"><a xlink:title=" ">
<polygon fill="#e0e0e0" stroke="#999999" points="456.12,-26 317.12,-26 317.12,-6 456.12,-6 456.12,-26"/>
<text xml:space="preserve" text-anchor="middle" x="386.62" y="-12.5" font-family="Helvetica,sans-Serif" font-size="10.00">com.bank.model.users.User</text>
</a>
</g>
</g>
<!-- Node1&#45;&gt;Node4 -->
<g id="edge3_Node000001_Node000004" class="edge">
<title>Node1&#45;&gt;Node4</title>
<g id="a_edge3_Node000001_Node000004"><a xlink:title=" ">
<path fill="none" stroke="#63b8ff" d="M386.62,-67.69C386.62,-58.8 386.62,-47.46 386.62,-37.77"/>
<polygon fill="#63b8ff" stroke="#63b8ff" points="390.13,-37.83 386.63,-27.83 383.13,-37.83 390.13,-37.83"/>
</a>
</g>
</g>
<!-- Node5 -->
<g id="Node000005" class="node">
<title>Node5</title>
<g id="a_Node000005"><a xlink:title=" ">
<polygon fill="#e0e0e0" stroke="#999999" points="599,-26 474.25,-26 474.25,-6 599,-6 599,-26"/>
<text xml:space="preserve" text-anchor="middle" x="536.62" y="-12.5" font-family="Helvetica,sans-Serif" font-size="10.00">com.bank.model.bills.Bill</text>
</a>
</g>
</g>
<!-- Node1&#45;&gt;Node5 -->
<g id="edge4_Node000001_Node000005" class="edge">
<title>Node1&#45;&gt;Node5</title>
<g id="a_edge4_Node000001_Node000005"><a xlink:title=" ">
<path fill="none" stroke="#63b8ff" d="M421.79,-67.53C446.87,-56.49 480.33,-41.77 504.65,-31.07"/>
<polygon fill="#63b8ff" stroke="#63b8ff" points="506,-34.3 513.74,-27.07 503.18,-27.89 506,-34.3"/>
</a>
</g>
</g>
<!-- Node6 -->
<g id="Node000006" class="node">
<title>Node6</title>
<g id="a_Node000006"><a xlink:title=" ">
<polygon fill="#e0e0e0" stroke="#999999" points="760,-32 617.25,-32 617.25,0 760,0 760,-32"/>
<text xml:space="preserve" text-anchor="start" x="625.25" y="-18.5" font-family="Helvetica,sans-Serif" font-size="10.00">com.bank.model.statements.</text>
<text xml:space="preserve" text-anchor="middle" x="688.62" y="-6.5" font-family="Helvetica,sans-Serif" font-size="10.00">StatementEntry</text>
</a>
</g>
</g>
<!-- Node1&#45;&gt;Node6 -->
<g id="edge5_Node000001_Node000006" class="edge">
<title>Node1&#45;&gt;Node6</title>
<g id="a_edge5_Node000001_Node000006"><a xlink:title=" ">
<path fill="none" stroke="#63b8ff" d="M436.16,-72.18C482.42,-62.07 552.33,-46.79 606.86,-34.87"/>
<polygon fill="#63b8ff" stroke="#63b8ff" points="607.4,-38.33 616.42,-32.78 605.9,-31.5 607.4,-38.33"/>
</a>
</g>
</g>
</g>
</svg>
