<?xml version="1.0" encoding="UTF-8" standalone="no"?>
<!DOCTYPE svg PUBLIC "-//W3C//DTD SVG 1.1//EN"
 "http://www.w3.org/Graphics/SVG/1.1/DTD/svg11.dtd">
<!-- Generated by graphviz version 14.0.1 (20251006.0113)
 -->
<!-- Title: com.bank.model.transactions.Deposit Pages: 1 -->
<svg width="292pt" height="764pt"
 viewBox="0.00 0.00 292.00 764.00" xmlns="http://www.w3.org/2000/svg" xmlns:xlink="http://www.w3.org/1999/xlink">
<g id="graph0" class="graph" transform="scale(1 1) rotate(0) translate(4 760)">
<title>com.bank.model.transactions.Deposit</title>
<!-- Node1 -->
<g id="Node000001" class="node">
<title>Node1</title>
<g id="a_Node000001"><a xlink:title="Represents a deposit transaction to a single bank account.">
<polygon fill="#999999" stroke="none" points="212,-112 72.75,-112 72.75,0 212,0 212,-112"/>
<text xml:space="preserve" text-anchor="start" x="76.75" y="-98.5" font-family="Helvetica,sans-Serif" font-size="10.00">com.bank.model.transactions.</text>
<text xml:space="preserve" text-anchor="start" x="125.5" y="-86.5" font-family="Helvetica,sans-Serif" font-size="10.00">Deposit</text>
<text xml:space="preserve" text-anchor="start" x="140.88" y="-70.5" font-family="Helvetica,sans-Serif" font-size="10.00"> </text>
<text xml:space="preserve" text-anchor="start" x="93.19" y="-54.5" font-family="Helvetica,sans-Serif" font-size="10.00">+</text>
<text xml:space="preserve" text-anchor="start" x="119.62" y="-54.5" font-family="Helvetica,sans-Serif" font-size="10.00">Deposit()</text>
<text xml:space="preserve" text-anchor="start" x="93.19" y="-38.5" font-family="Helvetica,sans-Serif" font-size="10.00">+</text>
<text xml:space="preserve" text-anchor="start" x="119.62" y="-38.5" font-family="Helvetica,sans-Serif" font-size="10.00">execute()</text>
<text xml:space="preserve" text-anchor="start" x="93.19" y="-22.5" font-family="Helvetica,sans-Serif" font-size="10.00">+</text>
<text xml:space="preserve" text-anchor="start" x="119.62" y="-22.5" font-family="Helvetica,sans-Serif" font-size="10.00">getAccount()</text>
<text xml:space="preserve" text-anchor="start" x="93.19" y="-6.5" font-family="Helvetica,sans-Serif" font-size="10.00">+</text>
<text xml:space="preserve" text-anchor="start" x="119.62" y="-6.5" font-family="Helvetica,sans-Serif" font-size="10.00">getAmount()</text>
<polygon fill="#666666" stroke="#666666" points="72.75,-82 72.75,-82 212,-82 212,-82 72.75,-82"/>
<polygon fill="#666666" stroke="#666666" points="72.75,-66 72.75,-66 212,-66 212,-66 72.75,-66"/>
<polygon fill="none" stroke="#666666" points="72.75,0 72.75,-112 212,-112 212,0 72.75,0"/>
</a>
</g>
</g>
<!-- Node2 -->
<g id="Node000002" class="node">
<title>Node2</title>
<g id="a_Node000002"><a xlink:href="../../d5/d94/classcom_1_1bank_1_1model_1_1transactions_1_1_transaction.html" target="_top" xlink:title="Abstract base class representing a financial transaction.">
<polygon fill="white" stroke="none" points="212,-341 72.75,-341 72.75,-149 212,-149 212,-341"/>
<text xml:space="preserve" text-anchor="start" x="76.75" y="-327.5" font-family="Helvetica,sans-Serif" font-size="10.00">com.bank.model.transactions.</text>
<text xml:space="preserve" text-anchor="start" x="116.88" y="-315.5" font-family="Helvetica,sans-Serif" font-size="10.00">Transaction</text>
<text xml:space="preserve" text-anchor="start" x="85.5" y="-299.5" font-family="Helvetica,sans-Serif" font-size="10.00">#</text>
<text xml:space="preserve" text-anchor="start" x="103.5" y="-299.5" font-family="Helvetica,sans-Serif" font-size="10.00">transactionId</text>
<text xml:space="preserve" text-anchor="start" x="85.5" y="-283.5" font-family="Helvetica,sans-Serif" font-size="10.00">#</text>
<text xml:space="preserve" text-anchor="start" x="103.5" y="-283.5" font-family="Helvetica,sans-Serif" font-size="10.00">timestamp</text>
<text xml:space="preserve" text-anchor="start" x="85.5" y="-267.5" font-family="Helvetica,sans-Serif" font-size="10.00">#</text>
<text xml:space="preserve" text-anchor="start" x="103.5" y="-267.5" font-family="Helvetica,sans-Serif" font-size="10.00">reason</text>
<text xml:space="preserve" text-anchor="start" x="85.12" y="-251.5" font-family="Helvetica,sans-Serif" font-size="10.00">+</text>
<text xml:space="preserve" text-anchor="start" x="103.5" y="-251.5" font-family="Helvetica,sans-Serif" font-size="10.00">Transaction()</text>
<text xml:space="preserve" text-anchor="start" x="85.12" y="-235.5" font-family="Helvetica,sans-Serif" font-size="10.00">+</text>
<text xml:space="preserve" text-anchor="start" x="103.5" y="-235.5" font-family="Helvetica,sans-Serif" font-size="10.00">getStatementEntry()</text>
<text xml:space="preserve" text-anchor="start" x="85.12" y="-219.5" font-family="Helvetica,sans-Serif" font-size="10.00">+</text>
<text xml:space="preserve" text-anchor="start" x="103.5" y="-219.5" font-family="Helvetica,sans-Serif" font-size="10.00">getTransactionId()</text>
<text xml:space="preserve" text-anchor="start" x="85.12" y="-203.5" font-family="Helvetica,sans-Serif" font-size="10.00">+</text>
<text xml:space="preserve" text-anchor="start" x="103.5" y="-203.5" font-family="Helvetica,sans-Serif" font-size="10.00">getTimestamp()</text>
<text xml:space="preserve" text-anchor="start" x="85.12" y="-187.5" font-family="Helvetica,sans-Serif" font-size="10.00">+</text>
<text xml:space="preserve" text-anchor="start" x="103.5" y="-187.5" font-family="Helvetica,sans-Serif" font-size="10.00">getTransactor()</text>
<text xml:space="preserve" text-anchor="start" x="85.12" y="-171.5" font-family="Helvetica,sans-Serif" font-size="10.00">+</text>
<text xml:space="preserve" text-anchor="start" x="103.5" y="-171.5" font-family="Helvetica,sans-Serif" font-size="10.00">getReason()</text>
<text xml:space="preserve" text-anchor="start" x="85.12" y="-155.5" font-family="Helvetica,sans-Serif" font-size="10.00">+</text>
<text xml:space="preserve" text-anchor="start" x="103.5" y="-155.5" font-family="Helvetica,sans-Serif" font-size="10.00">execute()</text>
<polygon fill="#666666" stroke="#666666" points="72.75,-311 72.75,-311 212,-311 212,-311 72.75,-311"/>
<polygon fill="#666666" stroke="#666666" points="72.75,-263 72.75,-263 101.5,-263 101.5,-263 72.75,-263"/>
<polygon fill="#666666" stroke="#666666" points="101.5,-263 101.5,-263 212,-263 212,-263 101.5,-263"/>
<polygon fill="none" stroke="#666666" points="72.75,-149 72.75,-341 212,-341 212,-149 72.75,-149"/>
</a>
</g>
</g>
<!-- Node2&#45;&gt;Node1 -->
<g id="edge1_Node000001_Node000002" class="edge">
<title>Node2&#45;&gt;Node1</title>
<g id="a_edge1_Node000001_Node000002"><a xlink:title=" ">
<path fill="none" stroke="#63b8ff" d="M142.38,-137.73C142.38,-128.78 142.38,-119.99 142.38,-111.69"/>
<polygon fill="none" stroke="#63b8ff" points="138.88,-137.62 142.38,-147.62 145.88,-137.62 138.88,-137.62"/>
</a>
</g>
</g>
<!-- Node3 -->
<g id="Node000003" class="node">
<title>Node3</title>
<g id="a_Node000003"><a xlink:href="../../d2/d71/classcom_1_1bank_1_1model_1_1statements_1_1_statement_entry.html" target="_top" xlink:title="Represents a single transaction record in an account statement.">
<polygon fill="white" stroke="none" points="134.75,-651 0,-651 0,-395 134.75,-395 134.75,-651"/>
<text xml:space="preserve" text-anchor="start" x="4" y="-637.5" font-family="Helvetica,sans-Serif" font-size="10.00">com.bank.model.statements.</text>
<text xml:space="preserve" text-anchor="start" x="33.25" y="-625.5" font-family="Helvetica,sans-Serif" font-size="10.00">StatementEntry</text>
<text xml:space="preserve" text-anchor="start" x="65.88" y="-609.5" font-family="Helvetica,sans-Serif" font-size="10.00"> </text>
<text xml:space="preserve" text-anchor="start" x="14.62" y="-593.5" font-family="Helvetica,sans-Serif" font-size="10.00">+</text>
<text xml:space="preserve" text-anchor="start" x="35.25" y="-593.5" font-family="Helvetica,sans-Serif" font-size="10.00">StatementEntry()</text>
<text xml:space="preserve" text-anchor="start" x="14.62" y="-577.5" font-family="Helvetica,sans-Serif" font-size="10.00">+</text>
<text xml:space="preserve" text-anchor="start" x="35.25" y="-577.5" font-family="Helvetica,sans-Serif" font-size="10.00">StatementEntry()</text>
<text xml:space="preserve" text-anchor="start" x="14.62" y="-561.5" font-family="Helvetica,sans-Serif" font-size="10.00">+</text>
<text xml:space="preserve" text-anchor="start" x="35.25" y="-561.5" font-family="Helvetica,sans-Serif" font-size="10.00">getTransactor()</text>
<text xml:space="preserve" text-anchor="start" x="14.62" y="-545.5" font-family="Helvetica,sans-Serif" font-size="10.00">+</text>
<text xml:space="preserve" text-anchor="start" x="35.25" y="-545.5" font-family="Helvetica,sans-Serif" font-size="10.00">getReason()</text>
<text xml:space="preserve" text-anchor="start" x="14.62" y="-529.5" font-family="Helvetica,sans-Serif" font-size="10.00">+</text>
<text xml:space="preserve" text-anchor="start" x="35.25" y="-529.5" font-family="Helvetica,sans-Serif" font-size="10.00">getType()</text>
<text xml:space="preserve" text-anchor="start" x="14.62" y="-513.5" font-family="Helvetica,sans-Serif" font-size="10.00">+</text>
<text xml:space="preserve" text-anchor="start" x="35.25" y="-513.5" font-family="Helvetica,sans-Serif" font-size="10.00">getAmount()</text>
<text xml:space="preserve" text-anchor="start" x="14.62" y="-497.5" font-family="Helvetica,sans-Serif" font-size="10.00">+</text>
<text xml:space="preserve" text-anchor="start" x="35.25" y="-497.5" font-family="Helvetica,sans-Serif" font-size="10.00">getBalance()</text>
<text xml:space="preserve" text-anchor="start" x="14.62" y="-481.5" font-family="Helvetica,sans-Serif" font-size="10.00">+</text>
<text xml:space="preserve" text-anchor="start" x="35.25" y="-481.5" font-family="Helvetica,sans-Serif" font-size="10.00">getTimestamp()</text>
<text xml:space="preserve" text-anchor="start" x="14.62" y="-465.5" font-family="Helvetica,sans-Serif" font-size="10.00">+</text>
<text xml:space="preserve" text-anchor="start" x="35.25" y="-465.5" font-family="Helvetica,sans-Serif" font-size="10.00">getFromIban()</text>
<text xml:space="preserve" text-anchor="start" x="14.62" y="-449.5" font-family="Helvetica,sans-Serif" font-size="10.00">+</text>
<text xml:space="preserve" text-anchor="start" x="35.25" y="-449.5" font-family="Helvetica,sans-Serif" font-size="10.00">getToIban()</text>
<text xml:space="preserve" text-anchor="start" x="14.62" y="-433.5" font-family="Helvetica,sans-Serif" font-size="10.00">+</text>
<text xml:space="preserve" text-anchor="start" x="35.25" y="-433.5" font-family="Helvetica,sans-Serif" font-size="10.00">marshal()</text>
<text xml:space="preserve" text-anchor="start" x="14.62" y="-417.5" font-family="Helvetica,sans-Serif" font-size="10.00">+</text>
<text xml:space="preserve" text-anchor="start" x="35.25" y="-417.5" font-family="Helvetica,sans-Serif" font-size="10.00">unmarshal()</text>
<text xml:space="preserve" text-anchor="start" x="14.62" y="-401.5" font-family="Helvetica,sans-Serif" font-size="10.00">+</text>
<text xml:space="preserve" text-anchor="start" x="35.25" y="-401.5" font-family="Helvetica,sans-Serif" font-size="10.00">toString()</text>
<polygon fill="#666666" stroke="#666666" points="0,-621 0,-621 134.75,-621 134.75,-621 0,-621"/>
<polygon fill="#666666" stroke="#666666" points="0,-605 0,-605 134.75,-605 134.75,-605 0,-605"/>
<polygon fill="none" stroke="#666666" points="0,-395 0,-651 134.75,-651 134.75,-395 0,-395"/>
</a>
</g>
</g>
<!-- Node3&#45;&gt;Node2 -->
<g id="edge2_Node000002_Node000003" class="edge">
<title>Node3&#45;&gt;Node2</title>
<g id="a_edge2_Node000002_Node000003"><a xlink:title=" ">
<path fill="none" stroke="#63b8ff" d="M95.75,-395.36C98.86,-383.04 102.09,-370.75 105.38,-359 105.92,-357.04 106.48,-355.07 107.05,-353.08"/>
<polygon fill="none" stroke="#63b8ff" points="107.04,-353.14 104.89,-346.25 110.43,-341.63 112.57,-348.51 107.04,-353.14"/>
</a>
</g>
<text xml:space="preserve" text-anchor="start" x="108.38" y="-364.5" font-family="Helvetica,sans-Serif" font-size="10.00" fill="grey">#statementEntry</text>
</g>
<!-- Node4 -->
<g id="Node000004" class="node">
<title>Node4</title>
<g id="a_Node000004"><a xlink:href="../../dd/d8c/interfacecom_1_1bank_1_1storage_1_1_storable.html" target="_top" xlink:title="Defines the serialization and deserialization behavior for persistent objects.">
<polygon fill="white" stroke="none" points="204.88,-756 79.88,-756 79.88,-688 204.88,-688 204.88,-756"/>
<text xml:space="preserve" text-anchor="start" x="83.88" y="-742.5" font-family="Helvetica,sans-Serif" font-size="10.00">com.bank.storage.Storable</text>
<text xml:space="preserve" text-anchor="start" x="140.88" y="-726.5" font-family="Helvetica,sans-Serif" font-size="10.00"> </text>
<text xml:space="preserve" text-anchor="start" x="97.88" y="-710.5" font-family="Helvetica,sans-Serif" font-size="10.00">+</text>
<text xml:space="preserve" text-anchor="start" x="121.88" y="-710.5" font-family="Helvetica,sans-Serif" font-size="10.00">marshal()</text>
<text xml:space="preserve" text-anchor="start" x="97.88" y="-694.5" font-family="Helvetica,sans-Serif" font-size="10.00">+</text>
<text xml:space="preserve" text-anchor="start" x="121.88" y="-694.5" font-family="Helvetica,sans-Serif" font-size="10.00">unmarshal()</text>
<polygon fill="#666666" stroke="#666666" points="79.88,-738 79.88,-738 204.88,-738 204.88,-738 79.88,-738"/>
<polygon fill="#666666" stroke="#666666" points="79.88,-722 79.88,-722 204.88,-722 204.88,-722 79.88,-722"/>
<polygon fill="none" stroke="#666666" points="79.88,-688 79.88,-756 204.88,-756 204.88,-688 79.88,-688"/>
</a>
</g>
</g>
<!-- Node4&#45;&gt;Node3 -->
<g id="edge3_Node000003_Node000004" class="edge">
<title>Node4&#45;&gt;Node3</title>
<g id="a_edge3_Node000003_Node000004"><a xlink:title=" ">
<path fill="none" stroke="#63b8ff" d="M125.75,-677.33C122.62,-669.12 119.21,-660.16 115.66,-650.83"/>
<polygon fill="none" stroke="#63b8ff" points="122.45,-678.51 129.28,-686.61 129,-676.02 122.45,-678.51"/>
</a>
</g>
</g>
<!-- Node5 -->
<g id="Node000005" class="node">
<title>Node5</title>
<g id="a_Node000005"><a xlink:href="../../dd/dee/classcom_1_1bank_1_1model_1_1users_1_1_user.html" target="_top" xlink:title="Abstract base class for all user types in the banking system.">
<polygon fill="white" stroke="none" points="283.88,-605 152.88,-605 152.88,-441 283.88,-441 283.88,-605"/>
<text xml:space="preserve" text-anchor="start" x="156.88" y="-591.5" font-family="Helvetica,sans-Serif" font-size="10.00">com.bank.model.users.User</text>
<text xml:space="preserve" text-anchor="start" x="166.56" y="-575.5" font-family="Helvetica,sans-Serif" font-size="10.00">#</text>
<text xml:space="preserve" text-anchor="start" x="185.5" y="-575.5" font-family="Helvetica,sans-Serif" font-size="10.00">username</text>
<text xml:space="preserve" text-anchor="start" x="166.56" y="-559.5" font-family="Helvetica,sans-Serif" font-size="10.00">#</text>
<text xml:space="preserve" text-anchor="start" x="185.5" y="-559.5" font-family="Helvetica,sans-Serif" font-size="10.00">password</text>
<text xml:space="preserve" text-anchor="start" x="166.56" y="-543.5" font-family="Helvetica,sans-Serif" font-size="10.00">#</text>
<text xml:space="preserve" text-anchor="start" x="185.5" y="-543.5" font-family="Helvetica,sans-Serif" font-size="10.00">fullName</text>
<text xml:space="preserve" text-anchor="start" x="166.19" y="-527.5" font-family="Helvetica,sans-Serif" font-size="10.00">+</text>
<text xml:space="preserve" text-anchor="start" x="185.5" y="-527.5" font-family="Helvetica,sans-Serif" font-size="10.00">User()</text>
<text xml:space="preserve" text-anchor="start" x="166.19" y="-511.5" font-family="Helvetica,sans-Serif" font-size="10.00">+</text>
<text xml:space="preserve" text-anchor="start" x="185.5" y="-511.5" font-family="Helvetica,sans-Serif" font-size="10.00">getRole()</text>
<text xml:space="preserve" text-anchor="start" x="166.19" y="-495.5" font-family="Helvetica,sans-Serif" font-size="10.00">+</text>
<text xml:space="preserve" text-anchor="start" x="185.5" y="-495.5" font-family="Helvetica,sans-Serif" font-size="10.00">getUsername()</text>
<text xml:space="preserve" text-anchor="start" x="166.19" y="-479.5" font-family="Helvetica,sans-Serif" font-size="10.00">+</text>
<text xml:space="preserve" text-anchor="start" x="185.5" y="-479.5" font-family="Helvetica,sans-Serif" font-size="10.00">getPassword()</text>
<text xml:space="preserve" text-anchor="start" x="166.19" y="-463.5" font-family="Helvetica,sans-Serif" font-size="10.00">+</text>
<text xml:space="preserve" text-anchor="start" x="185.5" y="-463.5" font-family="Helvetica,sans-Serif" font-size="10.00">getFullName()</text>
<text xml:space="preserve" text-anchor="start" x="166.19" y="-447.5" font-family="Helvetica,sans-Serif" font-size="10.00">+</text>
<text xml:space="preserve" text-anchor="start" x="185.5" y="-447.5" font-family="Helvetica,sans-Serif" font-size="10.00">checkPassword()</text>
<polygon fill="#666666" stroke="#666666" points="152.88,-587 152.88,-587 283.88,-587 283.88,-587 152.88,-587"/>
<polygon fill="#666666" stroke="#666666" points="152.88,-539 152.88,-539 183.5,-539 183.5,-539 152.88,-539"/>
<polygon fill="#666666" stroke="#666666" points="183.5,-539 183.5,-539 283.88,-539 283.88,-539 183.5,-539"/>
<polygon fill="none" stroke="#666666" points="152.88,-441 152.88,-605 283.88,-605 283.88,-441 152.88,-441"/>
</a>
</g>
</g>
<!-- Node4&#45;&gt;Node5 -->
<g id="edge5_Node000005_Node000004" class="edge">
<title>Node4&#45;&gt;Node5</title>
<g id="a_edge5_Node000005_Node000004"><a xlink:title=" ">
<path fill="none" stroke="#63b8ff" d="M159.21,-677.35C167.46,-655.99 177.65,-629.57 187.24,-604.71"/>
<polygon fill="none" stroke="#63b8ff" points="155.97,-676.02 155.64,-686.61 162.51,-678.54 155.97,-676.02"/>
</a>
</g>
</g>
<!-- Node5&#45;&gt;Node2 -->
<g id="edge4_Node000002_Node000005" class="edge">
<title>Node5&#45;&gt;Node2</title>
<g id="a_edge4_Node000002_Node000005"><a xlink:title=" ">
<path fill="none" stroke="#63b8ff" d="M203.27,-441.04C197.75,-414.69 190.97,-385.43 183.38,-359 182.84,-357.15 182.3,-355.29 181.74,-353.42"/>
<polygon fill="none" stroke="#63b8ff" points="181.69,-353.27 176.1,-348.72 178.14,-341.81 183.74,-346.36 181.69,-353.27"/>
</a>
</g>
<text xml:space="preserve" text-anchor="start" x="191.17" y="-364.5" font-family="Helvetica,sans-Serif" font-size="10.00" fill="grey">#transactor</text>
</g>
</g>
</svg>
