<?xml version="1.0" encoding="UTF-8" standalone="no"?>
<!DOCTYPE svg PUBLIC "-//W3C//DTD SVG 1.1//EN"
 "http://www.w3.org/Graphics/SVG/1.1/DTD/svg11.dtd">
<!-- Generated by graphviz version 14.0.1 (20251006.0113)
 -->
<!-- Title: model/accounts/PersonalAccount.java Pages: 1 -->
<svg width="364pt" height="84pt"
 viewBox="0.00 0.00 364.00 84.00" xmlns="http://www.w3.org/2000/svg" xmlns:xlink="http://www.w3.org/1999/xlink">

<svg id="main" version="1.1" xmlns="http://www.w3.org/2000/svg" xmlns:xlink="http://www.w3.org/1999/xlink" xml:space="preserve">

<style type="text/css"><![CDATA[
.node, .edge {opacity: 0.7;}
.node.selected, .edge.selected {opacity: 1;}
.edge:hover path { stroke: red; }
.edge:hover polygon { stroke: red; fill: red; }
]]></style>
<script type="application/ecmascript" xlink:href="../../svg.min.js"/>
<svg id="graph" class="graph">
<g id="graph0" class="graph" transform="scale(1 1) rotate(0) translate(4 80)">
<title>model/accounts/PersonalAccount.java</title>
<!-- Node1 -->
<g id="Node000001" class="node">
<title>Node1</title>
<g id="a_Node000001"><a xlink:title=" ">
<polygon fill="#999999" stroke="#666666" points="315.25,-76 132,-76 132,-56 315.25,-56 315.25,-76"/>
<text xml:space="preserve" text-anchor="middle" x="223.62" y="-62.5" font-family="Helvetica,sans-Serif" font-size="10.00">model/accounts/PersonalAccount.java</text>
</a>
</g>
</g>
<!-- Node2 -->
<g id="Node000002" class="node">
<title>Node2</title>
<g id="a_Node000002"><a xlink:title=" ">
<polygon fill="#e0e0e0" stroke="#999999" points="159.25,-20 0,-20 0,0 159.25,0 159.25,-20"/>
<text xml:space="preserve" text-anchor="middle" x="79.62" y="-6.5" font-family="Helvetica,sans-Serif" font-size="10.00">com.bank.model.users.Individual</text>
</a>
</g>
</g>
<!-- Node1&#45;&gt;Node2 -->
<g id="edge1_Node000001_Node000002" class="edge">
<title>Node1&#45;&gt;Node2</title>
<g id="a_edge1_Node000001_Node000002"><a xlink:title=" ">
<path fill="none" stroke="#63b8ff" d="M198.54,-55.59C175.56,-46.97 141.27,-34.12 115.41,-24.42"/>
<polygon fill="#63b8ff" stroke="#63b8ff" points="116.91,-21.25 106.32,-21.01 114.46,-27.8 116.91,-21.25"/>
</a>
</g>
</g>
<!-- Node3 -->
<g id="Node000003" class="node">
<title>Node3</title>
<g id="a_Node000003"><a xlink:title=" ">
<polygon fill="#e0e0e0" stroke="#999999" points="269.5,-20 177.75,-20 177.75,0 269.5,0 269.5,-20"/>
<text xml:space="preserve" text-anchor="middle" x="223.62" y="-6.5" font-family="Helvetica,sans-Serif" font-size="10.00">java.util.ArrayList</text>
</a>
</g>
</g>
<!-- Node1&#45;&gt;Node3 -->
<g id="edge2_Node000001_Node000003" class="edge">
<title>Node1&#45;&gt;Node3</title>
<g id="a_edge2_Node000001_Node000003"><a xlink:title=" ">
<path fill="none" stroke="#63b8ff" d="M223.62,-55.59C223.62,-49.01 223.62,-39.96 223.62,-31.73"/>
<polygon fill="#63b8ff" stroke="#63b8ff" points="227.13,-31.81 223.63,-21.81 220.13,-31.81 227.13,-31.81"/>
</a>
</g>
</g>
<!-- Node4 -->
<g id="Node000004" class="node">
<title>Node4</title>
<g id="a_Node000004"><a xlink:title=" ">
<polygon fill="#e0e0e0" stroke="#999999" points="355.88,-20 287.38,-20 287.38,0 355.88,0 355.88,-20"/>
<text xml:space="preserve" text-anchor="middle" x="321.62" y="-6.5" font-family="Helvetica,sans-Serif" font-size="10.00">java.util.List</text>
</a>
</g>
</g>
<!-- Node1&#45;&gt;Node4 -->
<g id="edge3_Node000001_Node000004" class="edge">
<title>Node1&#45;&gt;Node4</title>
<g id="a_edge3_Node000001_Node000004"><a xlink:title=" ">
<path fill="none" stroke="#63b8ff" d="M240.7,-55.59C255.5,-47.44 277.19,-35.48 294.39,-26"/>
<polygon fill="#63b8ff" stroke="#63b8ff" points="296.03,-29.1 303.1,-21.21 292.65,-22.97 296.03,-29.1"/>
</a>
</g>
</g>
</g>
</svg>
</svg>

<style type='text/css'>
<![CDATA[
[data-mouse-over-selected='false'] { opacity: 0.7; }
[data-mouse-over-selected='true']  { opacity: 1.0; }
]]>
</style>
<script type="application/ecmascript"><![CDATA[
document.addEventListener('DOMContentLoaded', (event) => {
  highlightEdges();
  highlightAdjacentNodes();
});
]]></script>
</svg>
