<?xml version="1.0" encoding="UTF-8" standalone="no"?>
<!DOCTYPE svg PUBLIC "-//W3C//DTD SVG 1.1//EN"
 "http://www.w3.org/Graphics/SVG/1.1/DTD/svg11.dtd">
<!-- Generated by graphviz version 14.0.1 (20251006.0113)
 -->
<!-- Title: com.bank.model.orders.TransferOrder.execute Pages: 1 -->
<svg width="544pt" height="328pt"
 viewBox="0.00 0.00 544.00 328.00" xmlns="http://www.w3.org/2000/svg" xmlns:xlink="http://www.w3.org/1999/xlink">
<g id="graph0" class="graph" transform="scale(1 1) rotate(0) translate(4 324)">
<title>com.bank.model.orders.TransferOrder.execute</title>
<!-- Node1 -->
<g id="Node000001" class="node">
<title>Node1</title>
<g id="a_Node000001"><a xlink:title="Executes the transfer if the date matches the schedule and funds are sufficient.">
<polygon fill="#999999" stroke="#666666" points="157,-182 0,-182 0,-150 157,-150 157,-182"/>
<text xml:space="preserve" text-anchor="start" x="8" y="-168.5" font-family="Helvetica,sans-Serif" font-size="10.00">com.bank.model.orders.Transfer</text>
<text xml:space="preserve" text-anchor="middle" x="78.5" y="-156.5" font-family="Helvetica,sans-Serif" font-size="10.00">Order.execute</text>
</a>
</g>
</g>
<!-- Node2 -->
<g id="Node000002" class="node">
<title>Node2</title>
<g id="a_Node000002"><a xlink:href="../../d6/d0e/classcom_1_1bank_1_1manager_1_1_transaction_manager.html#a4ade645d8387a45e8026f0efd086c921" target="_top" xlink:title="Executes a transaction and records it in history.">
<polygon fill="white" stroke="#666666" points="349.25,-320 196,-320 196,-288 349.25,-288 349.25,-320"/>
<text xml:space="preserve" text-anchor="start" x="204" y="-306.5" font-family="Helvetica,sans-Serif" font-size="10.00">com.bank.manager.Transaction</text>
<text xml:space="preserve" text-anchor="middle" x="272.62" y="-294.5" font-family="Helvetica,sans-Serif" font-size="10.00">Manager.execute</text>
</a>
</g>
</g>
<!-- Node1&#45;&gt;Node2 -->
<g id="edge1_Node000001_Node000002" class="edge">
<title>Node1&#45;&gt;Node2</title>
<g id="a_edge1_Node000001_Node000002"><a xlink:title=" ">
<path fill="none" stroke="#63b8ff" d="M91.62,-182.29C110.62,-206.71 149.74,-252.74 193,-279 195.14,-280.3 197.35,-281.54 199.62,-282.71"/>
<polygon fill="#63b8ff" stroke="#63b8ff" points="197.94,-285.79 208.47,-286.87 200.91,-279.45 197.94,-285.79"/>
</a>
</g>
</g>
<!-- Node4 -->
<g id="Node000004" class="node">
<title>Node4</title>
<g id="a_Node000004"><a xlink:href="../../dd/db1/classcom_1_1bank_1_1manager_1_1_account_manager.html#a8a3ebf20f49b1718127736507683d480" target="_top" xlink:title="Finds an account by IBAN.">
<polygon fill="white" stroke="#666666" points="341.75,-270 203.5,-270 203.5,-238 341.75,-238 341.75,-270"/>
<text xml:space="preserve" text-anchor="start" x="211.5" y="-256.5" font-family="Helvetica,sans-Serif" font-size="10.00">com.bank.manager.Account</text>
<text xml:space="preserve" text-anchor="middle" x="272.62" y="-244.5" font-family="Helvetica,sans-Serif" font-size="10.00">Manager.findByIban</text>
</a>
</g>
</g>
<!-- Node1&#45;&gt;Node4 -->
<g id="edge3_Node000001_Node000004" class="edge">
<title>Node1&#45;&gt;Node4</title>
<g id="a_edge3_Node000001_Node000004"><a xlink:title=" ">
<path fill="none" stroke="#63b8ff" d="M109.42,-182.41C132.06,-194.55 164.09,-211.14 193,-224 200.17,-227.19 207.79,-230.36 215.36,-233.38"/>
<polygon fill="#63b8ff" stroke="#63b8ff" points="213.97,-236.59 224.56,-236.98 216.52,-230.08 213.97,-236.59"/>
</a>
</g>
</g>
<!-- Node5 -->
<g id="Node000005" class="node">
<title>Node5</title>
<g id="a_Node000005"><a xlink:href="../../da/d83/classcom_1_1bank_1_1model_1_1accounts_1_1_account.html#a38981f8e6e13e82b7135c3b57bd2bba0" target="_top" xlink:title=" ">
<polygon fill="white" stroke="#666666" points="528.75,-248 395,-248 395,-216 528.75,-216 528.75,-248"/>
<text xml:space="preserve" text-anchor="start" x="403" y="-234.5" font-family="Helvetica,sans-Serif" font-size="10.00">com.bank.model.accounts.</text>
<text xml:space="preserve" text-anchor="middle" x="461.88" y="-222.5" font-family="Helvetica,sans-Serif" font-size="10.00">Account.getIban</text>
</a>
</g>
</g>
<!-- Node1&#45;&gt;Node5 -->
<g id="edge7_Node000001_Node000005" class="edge">
<title>Node1&#45;&gt;Node5</title>
<g id="a_edge7_Node000001_Node000005"><a xlink:title=" ">
<path fill="none" stroke="#63b8ff" d="M150.8,-182.45C164.76,-185.46 179.31,-188.45 193,-191 256.91,-202.92 329.86,-213.91 383.48,-221.51"/>
<polygon fill="#63b8ff" stroke="#63b8ff" points="382.73,-224.94 393.12,-222.87 383.71,-218.01 382.73,-224.94"/>
</a>
</g>
</g>
<!-- Node6 -->
<g id="Node000006" class="node">
<title>Node6</title>
<g id="a_Node000006"><a xlink:href="../../da/d83/classcom_1_1bank_1_1model_1_1accounts_1_1_account.html#a9fb33a39fa4b91e75fc66a93ff23ae8b" target="_top" xlink:title=" ">
<polygon fill="white" stroke="#666666" points="339.5,-182 205.75,-182 205.75,-150 339.5,-150 339.5,-182"/>
<text xml:space="preserve" text-anchor="start" x="213.75" y="-168.5" font-family="Helvetica,sans-Serif" font-size="10.00">com.bank.model.accounts.</text>
<text xml:space="preserve" text-anchor="middle" x="272.62" y="-156.5" font-family="Helvetica,sans-Serif" font-size="10.00">Account.getBalance</text>
</a>
</g>
</g>
<!-- Node1&#45;&gt;Node6 -->
<g id="edge5_Node000001_Node000006" class="edge">
<title>Node1&#45;&gt;Node6</title>
<g id="a_edge5_Node000001_Node000006"><a xlink:title=" ">
<path fill="none" stroke="#63b8ff" d="M157.37,-166C169.43,-166 181.89,-166 193.94,-166"/>
<polygon fill="#63b8ff" stroke="#63b8ff" points="193.84,-169.5 203.84,-166 193.84,-162.5 193.84,-169.5"/>
</a>
</g>
</g>
<!-- Node7 -->
<g id="Node000007" class="node">
<title>Node7</title>
<g id="a_Node000007"><a xlink:href="../../d7/d26/classcom_1_1bank_1_1model_1_1orders_1_1_standing_order.html#a17c2dbeb83fd230b8592ec708c61903e" target="_top" xlink:title=" ">
<polygon fill="white" stroke="#666666" points="352.25,-132 193,-132 193,-100 352.25,-100 352.25,-132"/>
<text xml:space="preserve" text-anchor="start" x="201" y="-118.5" font-family="Helvetica,sans-Serif" font-size="10.00">com.bank.model.orders.Standing</text>
<text xml:space="preserve" text-anchor="middle" x="272.62" y="-106.5" font-family="Helvetica,sans-Serif" font-size="10.00">Order.getEndingDate</text>
</a>
</g>
</g>
<!-- Node1&#45;&gt;Node7 -->
<g id="edge6_Node000001_Node000007" class="edge">
<title>Node1&#45;&gt;Node7</title>
<g id="a_edge6_Node000001_Node000007"><a xlink:title=" ">
<path fill="none" stroke="#63b8ff" d="M142.68,-149.56C160.16,-145.01 179.29,-140.03 197.34,-135.33"/>
<polygon fill="#63b8ff" stroke="#63b8ff" points="198.15,-138.74 206.95,-132.83 196.39,-131.96 198.15,-138.74"/>
</a>
</g>
</g>
<!-- Node8 -->
<g id="Node000008" class="node">
<title>Node8</title>
<g id="a_Node000008"><a xlink:href="../../d7/d26/classcom_1_1bank_1_1model_1_1orders_1_1_standing_order.html#afe93c8eb32bc3320c45168ddae53439e" target="_top" xlink:title=" ">
<polygon fill="white" stroke="#666666" points="352.25,-82 193,-82 193,-50 352.25,-50 352.25,-82"/>
<text xml:space="preserve" text-anchor="start" x="201" y="-68.5" font-family="Helvetica,sans-Serif" font-size="10.00">com.bank.model.orders.Standing</text>
<text xml:space="preserve" text-anchor="middle" x="272.62" y="-56.5" font-family="Helvetica,sans-Serif" font-size="10.00">Order.getStartingDate</text>
</a>
</g>
</g>
<!-- Node1&#45;&gt;Node8 -->
<g id="edge8_Node000001_Node000008" class="edge">
<title>Node1&#45;&gt;Node8</title>
<g id="a_edge8_Node000001_Node000008"><a xlink:title=" ">
<path fill="none" stroke="#63b8ff" d="M100.21,-149.76C122.2,-133.15 158.48,-107.5 193,-91 196.3,-89.42 199.71,-87.92 203.2,-86.47"/>
<polygon fill="#63b8ff" stroke="#63b8ff" points="204.33,-89.79 212.39,-82.91 201.8,-83.26 204.33,-89.79"/>
</a>
</g>
</g>
<!-- Node9 -->
<g id="Node000009" class="node">
<title>Node9</title>
<g id="a_Node000009"><a xlink:href="../../d7/d26/classcom_1_1bank_1_1model_1_1orders_1_1_standing_order.html#a87b39ed2397892d0db4c4b8bf69abf13" target="_top" xlink:title=" ">
<polygon fill="white" stroke="#666666" points="352.25,-32 193,-32 193,0 352.25,0 352.25,-32"/>
<text xml:space="preserve" text-anchor="start" x="201" y="-18.5" font-family="Helvetica,sans-Serif" font-size="10.00">com.bank.model.orders.Standing</text>
<text xml:space="preserve" text-anchor="middle" x="272.62" y="-6.5" font-family="Helvetica,sans-Serif" font-size="10.00">Order.setIsActive</text>
</a>
</g>
</g>
<!-- Node1&#45;&gt;Node9 -->
<g id="edge9_Node000001_Node000009" class="edge">
<title>Node1&#45;&gt;Node9</title>
<g id="a_edge9_Node000001_Node000009"><a xlink:title=" ">
<path fill="none" stroke="#63b8ff" d="M90.03,-149.68C107.99,-123.09 147.12,-70.45 193,-41 194.98,-39.73 197.02,-38.52 199.12,-37.37"/>
<polygon fill="#63b8ff" stroke="#63b8ff" points="200.47,-40.6 207.91,-33.06 197.39,-34.32 200.47,-40.6"/>
</a>
</g>
</g>
<!-- Node3 -->
<g id="Node000003" class="node">
<title>Node3</title>
<g id="a_Node000003"><a xlink:href="../../d5/d94/classcom_1_1bank_1_1model_1_1transactions_1_1_transaction.html#a31513476c29864af24cc9a96185ceaa7" target="_top" xlink:title="Executes the transaction logic.">
<polygon fill="white" stroke="#666666" points="535.5,-320 388.25,-320 388.25,-288 535.5,-288 535.5,-320"/>
<text xml:space="preserve" text-anchor="start" x="396.25" y="-306.5" font-family="Helvetica,sans-Serif" font-size="10.00">com.bank.model.transactions.</text>
<text xml:space="preserve" text-anchor="middle" x="461.88" y="-294.5" font-family="Helvetica,sans-Serif" font-size="10.00">Transaction.execute</text>
</a>
</g>
</g>
<!-- Node2&#45;&gt;Node3 -->
<g id="edge2_Node000002_Node000003" class="edge">
<title>Node2&#45;&gt;Node3</title>
<g id="a_edge2_Node000002_Node000003"><a xlink:title=" ">
<path fill="none" stroke="#63b8ff" d="M349.52,-304C358.43,-304 367.56,-304 376.58,-304"/>
<polygon fill="#63b8ff" stroke="#63b8ff" points="376.39,-307.5 386.39,-304 376.39,-300.5 376.39,-307.5"/>
</a>
</g>
</g>
<!-- Node4&#45;&gt;Node5 -->
<g id="edge4_Node000004_Node000005" class="edge">
<title>Node4&#45;&gt;Node5</title>
<g id="a_edge4_Node000004_Node000005"><a xlink:title=" ">
<path fill="none" stroke="#63b8ff" d="M342.02,-245.96C355.41,-244.39 369.54,-242.73 383.2,-241.13"/>
<polygon fill="#63b8ff" stroke="#63b8ff" points="383.51,-244.61 393.04,-239.97 382.7,-237.66 383.51,-244.61"/>
</a>
</g>
</g>
</g>
</svg>
