<?xml version="1.0" encoding="UTF-8" standalone="no"?>
<!DOCTYPE svg PUBLIC "-//W3C//DTD SVG 1.1//EN"
 "http://www.w3.org/Graphics/SVG/1.1/DTD/svg11.dtd">
<!-- Generated by graphviz version 14.0.1 (20251006.0113)
 -->
<!-- Title: com.bank.model.orders.TransferOrder.marshal Pages: 1 -->
<svg width="360pt" height="140pt"
 viewBox="0.00 0.00 360.00 140.00" xmlns="http://www.w3.org/2000/svg" xmlns:xlink="http://www.w3.org/1999/xlink">
<g id="graph0" class="graph" transform="scale(1 1) rotate(0) translate(4 136)">
<title>com.bank.model.orders.TransferOrder.marshal</title>
<!-- Node1 -->
<g id="Node000001" class="node">
<title>Node1</title>
<g id="a_Node000001"><a xlink:title="Serializes this transfer order to a key&#45;value single line.">
<polygon fill="#999999" stroke="#666666" points="157,-82 0,-82 0,-50 157,-50 157,-82"/>
<text xml:space="preserve" text-anchor="start" x="8" y="-68.5" font-family="Helvetica,sans-Serif" font-size="10.00">com.bank.model.orders.Transfer</text>
<text xml:space="preserve" text-anchor="middle" x="78.5" y="-56.5" font-family="Helvetica,sans-Serif" font-size="10.00">Order.marshal</text>
</a>
</g>
</g>
<!-- Node2 -->
<g id="Node000002" class="node">
<title>Node2</title>
<g id="a_Node000002"><a xlink:href="../../d7/d26/classcom_1_1bank_1_1model_1_1orders_1_1_standing_order.html#a45ab8b71469f08273629339f5e8af553" target="_top" xlink:title=" ">
<polygon fill="white" stroke="#666666" points="352.25,-132 193,-132 193,-100 352.25,-100 352.25,-132"/>
<text xml:space="preserve" text-anchor="start" x="201" y="-118.5" font-family="Helvetica,sans-Serif" font-size="10.00">com.bank.model.orders.Standing</text>
<text xml:space="preserve" text-anchor="middle" x="272.62" y="-106.5" font-family="Helvetica,sans-Serif" font-size="10.00">Order.getDescription</text>
</a>
</g>
</g>
<!-- Node1&#45;&gt;Node2 -->
<g id="edge1_Node000001_Node000002" class="edge">
<title>Node1&#45;&gt;Node2</title>
<g id="a_edge1_Node000001_Node000002"><a xlink:title=" ">
<path fill="none" stroke="#63b8ff" d="M142.68,-82.44C160.16,-86.99 179.29,-91.97 197.34,-96.67"/>
<polygon fill="#63b8ff" stroke="#63b8ff" points="196.39,-100.04 206.95,-99.17 198.15,-93.26 196.39,-100.04"/>
</a>
</g>
</g>
<!-- Node3 -->
<g id="Node000003" class="node">
<title>Node3</title>
<g id="a_Node000003"><a xlink:href="../../d7/d26/classcom_1_1bank_1_1model_1_1orders_1_1_standing_order.html#a1503f51aed8da5ead452c4099d062e74" target="_top" xlink:title=" ">
<polygon fill="white" stroke="#666666" points="352.25,-82 193,-82 193,-50 352.25,-50 352.25,-82"/>
<text xml:space="preserve" text-anchor="start" x="201" y="-68.5" font-family="Helvetica,sans-Serif" font-size="10.00">com.bank.model.orders.Standing</text>
<text xml:space="preserve" text-anchor="middle" x="272.62" y="-56.5" font-family="Helvetica,sans-Serif" font-size="10.00">Order.getOrderId</text>
</a>
</g>
</g>
<!-- Node1&#45;&gt;Node3 -->
<g id="edge2_Node000001_Node000003" class="edge">
<title>Node1&#45;&gt;Node3</title>
<g id="a_edge2_Node000001_Node000003"><a xlink:title=" ">
<path fill="none" stroke="#63b8ff" d="M157.37,-66C165.29,-66 173.38,-66 181.41,-66"/>
<polygon fill="#63b8ff" stroke="#63b8ff" points="181.2,-69.5 191.2,-66 181.2,-62.5 181.2,-69.5"/>
</a>
</g>
</g>
<!-- Node4 -->
<g id="Node000004" class="node">
<title>Node4</title>
<g id="a_Node000004"><a xlink:href="../../d7/d26/classcom_1_1bank_1_1model_1_1orders_1_1_standing_order.html#a846f0e91c6bc4fa202e4188dccfc385c" target="_top" xlink:title=" ">
<polygon fill="white" stroke="#666666" points="352.25,-32 193,-32 193,0 352.25,0 352.25,-32"/>
<text xml:space="preserve" text-anchor="start" x="201" y="-18.5" font-family="Helvetica,sans-Serif" font-size="10.00">com.bank.model.orders.Standing</text>
<text xml:space="preserve" text-anchor="middle" x="272.62" y="-6.5" font-family="Helvetica,sans-Serif" font-size="10.00">Order.getTitle</text>
</a>
</g>
</g>
<!-- Node1&#45;&gt;Node4 -->
<g id="edge3_Node000001_Node000004" class="edge">
<title>Node1&#45;&gt;Node4</title>
<g id="a_edge3_Node000001_Node000004"><a xlink:title=" ">
<path fill="none" stroke="#63b8ff" d="M142.68,-49.56C160.16,-45.01 179.29,-40.03 197.34,-35.33"/>
<polygon fill="#63b8ff" stroke="#63b8ff" points="198.15,-38.74 206.95,-32.83 196.39,-31.96 198.15,-38.74"/>
</a>
</g>
</g>
</g>
</svg>
